<svg xmlns="http://www.w3.org/2000/svg" xmlns:osb="http://www.openswatchbook.org/uri/2009/osb" xmlns:svg="http://www.w3.org/2000/svg" xmlns:xlink="http://www.w3.org/1999/xlink" id="svg2" width="64" height="64" version="1.1" viewBox="0 0 64 64"><metadata id="metadata14"/><defs id="defs12"><linearGradient id="linearGradient4207" osb:paint="gradient"><stop id="stop3371" offset="0" stop-color="#3498db" stop-opacity="1"/><stop id="stop3373" offset="1" stop-color="#3498db" stop-opacity="0"/></linearGradient><linearGradient id="linearGradient4182" x1="-74.929" x2="-75.26" y1="52.199" y2="2.356" gradientTransform="matrix(1.0749904,0,0,1.0292896,56.688954,-0.01528455)" gradientUnits="userSpaceOnUse" xlink:href="#linearGradient8467"/><linearGradient id="linearGradient8467"><stop id="stop8469" offset="0" stop-color="#d3d3d3" stop-opacity="1"/><stop id="stop8471" offset="1" stop-color="#f2efef" stop-opacity="1"/></linearGradient></defs><g id="g4186" transform="translate(56.391766,-0.17677665)"><rect id="rect4162" width="44" height="7.699" x="-46.392" y="54.477" fill="#3d434a" fill-opacity="1" stroke="none" stroke-dasharray="none" stroke-dashoffset="0" stroke-linecap="round" stroke-linejoin="round" stroke-miterlimit="4" stroke-opacity="1" stroke-width=".185" opacity="1" ry="2.5"/><rect id="rect4174" width="44" height="52.832" x="-46.392" y="1.646" fill="url(#linearGradient4182)" fill-opacity="1" stroke="none" stroke-dasharray="none" stroke-dashoffset="0" stroke-linecap="round" stroke-linejoin="round" stroke-miterlimit="4" stroke-opacity="1" stroke-width=".3" opacity="1" ry="2.5"/><rect id="rect4184" width="44" height="7.912" x="-46.392" y="51.264" fill="#3d434a" fill-opacity="1" stroke="none" stroke-dasharray="none" stroke-dashoffset="0" stroke-linecap="round" stroke-linejoin="round" stroke-miterlimit="4" stroke-opacity="1" stroke-width=".185" opacity="1" ry="0"/><g id="text4161" fill="#fff" fill-opacity="1" stroke="none" stroke-linecap="butt" stroke-linejoin="miter" stroke-opacity="1" stroke-width="1" font-family="sans-serif" font-size="9.37" font-style="normal" font-weight="normal" letter-spacing="0" transform="matrix(0.81954967,0,0,0.81954967,-4.2342889,11.121832)" word-spacing="0" style="line-height:125%"><g id="text4269" fill="#fff" fill-opacity="1" stroke="none" stroke-linecap="butt" stroke-linejoin="miter" stroke-opacity="1" stroke-width="1" font-family="sans-serif" font-size="13.75" font-style="normal" font-weight="normal" letter-spacing="0" word-spacing="0" style="line-height:125%"><path id="path4165" fill="#fff" fill-opacity="1" d="m -31.78267,58.684444 0,-4.9 0.88,0 0,0.68 0.04,0 q 0.21,-0.35 0.64,-0.59 0.44,-0.25 0.87,-0.25 1.14,0 1.55,0.94 0.6,-0.94 1.71,-0.94 0.87,0 1.31,0.56 0.44,0.55 0.44,1.5 l 0,3 -0.92,0 0,-2.86 q 0,-0.74 -0.27,-1.05 -0.27,-0.31 -0.82,-0.31 -0.54,0 -0.9,0.46 -0.35,0.46 -0.35,1.05 l 0,2.71 -0.92,0 0,-2.86 q 0,-0.74 -0.27,-1.05 -0.27,-0.31 -0.82,-0.31 -0.54,0 -0.9,0.46 -0.35,0.46 -0.35,1.05 l 0,2.71 -0.92,0 z" font-family="Product Sans" font-size="10" font-stretch="normal" font-style="normal" font-variant="normal" font-weight="normal" style="-inkscape-font-specification:'Product Sans'"/><path id="path4167" fill="#fff" fill-opacity="1" d="m -21.505639,58.844444 q -0.82,0 -1.36,-0.4 -0.53,-0.4 -0.78,-1 l 0.82,-0.34 q 0.39,0.92 1.33,0.92 0.43,0 0.7,-0.19 0.28,-0.19 0.28,-0.5 0,-0.48 -0.67,-0.65 l -0.99,-0.24 q -0.47,-0.12 -0.89,-0.45 -0.42,-0.34 -0.42,-0.91 0,-0.65 0.57,-1.05 0.58,-0.41 1.37,-0.41 0.65,0 1.16,0.3 0.51,0.29 0.73,0.84 l -0.8,0.33 q -0.27,-0.65 -1.12,-0.65 -0.41,0 -0.69,0.17 -0.28,0.17 -0.28,0.46 0,0.42 0.65,0.57 l 0.97,0.23 q 0.69,0.16 1.02,0.55 0.33,0.39 0.33,0.88 0,0.66 -0.54,1.1 -0.54,0.44 -1.39,0.44 z" font-family="Product Sans" font-size="10" font-stretch="normal" font-style="normal" font-variant="normal" font-weight="normal" style="-inkscape-font-specification:'Product Sans'"/><path id="path4169" fill="#fff" fill-opacity="1" d="m -17.833452,52.554444 q -0.19,0.19 -0.46,0.19 -0.27,0 -0.46,-0.19 -0.19,-0.19 -0.19,-0.46 0,-0.27 0.19,-0.46 0.19,-0.19 0.46,-0.19 0.27,0 0.46,0.19 0.19,0.19 0.19,0.46 0,0.27 -0.19,0.46 z m 0,6.13 -0.92,0 0,-4.9 0.92,0 0,4.9 z" font-family="Product Sans" font-size="10" font-stretch="normal" font-style="normal" font-variant="normal" font-weight="normal" style="-inkscape-font-specification:'Product Sans'"/></g></g><g id="layer1-2" fill="#3d434a" fill-opacity="1" transform="translate(-551.87989,-516.16796)"><g id="layer1-3-9" fill="#3d434a" fill-opacity="1" transform="translate(0.41988239,0.03484499)"><g id="g3" fill="#3d434a" fill-opacity="1" transform="matrix(0.04177363,0,0,0.04583333,516.7172,532.30989)"><path id="path5" fill="#3d434a" fill-opacity="1" d="M 0.176,224 0.001,67.963 l 192,-26.072 0,182.109 -191.825,0 z M 224.001,37.241 479.937,0 l 0,224 -255.936,0 0,-186.759 z M 479.999,256 l -0.062,224 -255.936,-36.008 0,-187.992 255.998,0 z M 192.001,439.918 0.157,413.621 0.147,256 l 191.854,0 0,183.918 z"/></g></g></g></g></svg>