<svg xmlns="http://www.w3.org/2000/svg" xmlns:osb="http://www.openswatchbook.org/uri/2009/osb" xmlns:svg="http://www.w3.org/2000/svg" xmlns:xlink="http://www.w3.org/1999/xlink" id="svg2" width="64" height="64" version="1.1" viewBox="0 0 64 64"><metadata id="metadata14"/><defs id="defs12"><linearGradient id="linearGradient4207" osb:paint="gradient"><stop id="stop3371" offset="0" stop-color="#3498db" stop-opacity="1"/><stop id="stop3373" offset="1" stop-color="#3498db" stop-opacity="0"/></linearGradient><linearGradient id="linearGradient4182" x1="-74.929" x2="-75.26" y1="52.199" y2="2.356" gradientTransform="matrix(1.0749904,0,0,1.0292896,56.688954,-0.01528455)" gradientUnits="userSpaceOnUse" xlink:href="#linearGradient4422"/><linearGradient id="linearGradient4422-4"><stop id="stop4424-3" offset="0" stop-color="#d1d7df" stop-opacity="1"/><stop id="stop4426-4" offset="1" stop-color="#e0e5e7" stop-opacity="1"/></linearGradient><linearGradient id="linearGradient4422"><stop id="stop4424" offset="0" stop-color="#debf85" stop-opacity="1"/><stop id="stop4426" offset="1" stop-color="#fde2a6" stop-opacity="1"/></linearGradient></defs><g id="g4186" transform="translate(56.391766,-0.17677665)"><rect id="rect4162" width="44" height="7.699" x="-46.392" y="54.477" fill="#62543b" fill-opacity="1" stroke="none" stroke-dasharray="none" stroke-dashoffset="0" stroke-linecap="round" stroke-linejoin="round" stroke-miterlimit="4" stroke-opacity="1" stroke-width=".185" opacity="1" ry="2.5"/><rect id="rect4174" width="44" height="52.832" x="-46.392" y="1.646" fill="url(#linearGradient4182)" fill-opacity="1" stroke="none" stroke-dasharray="none" stroke-dashoffset="0" stroke-linecap="round" stroke-linejoin="round" stroke-miterlimit="4" stroke-opacity="1" stroke-width=".3" opacity="1" ry="2.5"/><rect id="rect4184" width="44" height="7.912" x="-46.392" y="51.264" fill="#62543b" fill-opacity="1" stroke="none" stroke-dasharray="none" stroke-dashoffset="0" stroke-linecap="round" stroke-linejoin="round" stroke-miterlimit="4" stroke-opacity="1" stroke-width=".185" opacity="1" ry="0"/><g id="layer1-5" transform="matrix(0.84688321,0,0,0.84688321,-416.84979,-419.33873)"><g id="g4414" transform="matrix(1.5263052,0,0,1.5263052,376.49864,-1040.1735)"><g id="layer1-0" transform="matrix(0.42549858,0,0,0.42549858,-116.82388,804.06163)"><rect id="rect4319" width="36" height="40" x="390.571" y="503.798" fill="#62543b" fill-opacity="1" stroke="none" stroke-dasharray="none" stroke-miterlimit="4" stroke-opacity=".55" stroke-width="2.8" opacity="1" ry="2"/><g id="layer1-7" fill="#fff" fill-opacity="1" transform="translate(-0.71741557,0.01714041)"><rect id="rect4199" width="4" height="2" x="407.361" y="504.892" fill="#fff" fill-opacity="1" stroke="none" stroke-dasharray="none" stroke-linecap="round" stroke-linejoin="round" stroke-miterlimit="4" stroke-opacity="1" stroke-width="1.026" opacity=".929" ry=".889"/><rect id="rect4199-5" width="4" height="2" x="407.352" y="507.785" fill="#fff" fill-opacity="1" stroke="none" stroke-dasharray="none" stroke-linecap="round" stroke-linejoin="round" stroke-miterlimit="4" stroke-opacity="1" stroke-width="1.026" opacity=".929" ry=".889"/><rect id="rect4199-5-3" width="4" height="2" x="407.327" y="510.643" fill="#fff" fill-opacity="1" stroke="none" stroke-dasharray="none" stroke-linecap="round" stroke-linejoin="round" stroke-miterlimit="4" stroke-opacity="1" stroke-width="1.026" opacity=".929" ry=".889"/><rect id="rect4199-5-3-9" width="4" height="2" x="407.371" y="513.618" fill="#fff" fill-opacity="1" stroke="none" stroke-dasharray="none" stroke-linecap="round" stroke-linejoin="round" stroke-miterlimit="4" stroke-opacity="1" stroke-width="1.026" opacity=".929" ry=".889"/><rect id="rect4199-5-3-9-2" width="4" height="2" x="407.371" y="516.54" fill="#fff" fill-opacity="1" stroke="none" stroke-dasharray="none" stroke-linecap="round" stroke-linejoin="round" stroke-miterlimit="4" stroke-opacity="1" stroke-width="1.026" opacity=".929" ry=".889"/></g><rect id="rect4199-5-3-9-8" width="4" height="2" x="406.654" y="519.549" fill="#fff" fill-opacity="1" stroke="none" stroke-dasharray="none" stroke-linecap="round" stroke-linejoin="round" stroke-miterlimit="4" stroke-opacity="1" stroke-width="1.026" opacity=".929" ry=".889"/><path id="path7" fill="#fff" fill-opacity="1" d="m 410.11783,524.47214 0,-1.26212 c 0,-0.35164 -0.28416,-0.63683 -0.63453,-0.63683 l -1.76295,0 c -0.35037,0 -0.6346,0.28526 -0.6346,0.63683 l 0,1.2615 -0.98056,2.89118 c -0.27435,0.80579 -0.14271,1.70105 0.35164,2.39489 0.49436,0.69257 1.29597,1.10622 2.14496,1.10622 0.84916,0 1.65084,-0.41365 2.14519,-1.10622 0.49435,-0.69384 0.62583,-1.5891 0.35156,-2.39426 z m -0.40955,4.53977 c -0.50867,0.71448 -1.70431,0.71448 -2.21306,0 -0.25497,-0.35792 -0.32285,-0.8196 -0.18195,-1.23564 l 0.32909,-0.96974 1.91878,0 0.32918,0.97037 c 0.14096,0.41541 0.0729,0.87709 -0.18204,1.23501 z" opacity="1"/></g></g></g><g id="text4179" fill="#000" fill-opacity="1" stroke="none" stroke-linecap="butt" stroke-linejoin="miter" stroke-opacity="1" stroke-width="1" font-family="sans-serif" font-size="8.505" font-style="normal" font-weight="normal" letter-spacing="0" word-spacing="0" style="line-height:125%"><path id="path4194" fill="#fff" fill-opacity="1" d="m -27.598859,59.847778 -0.782416,0 0,-6.089242 0.782416,0 0,6.089242 z" font-family="Product Sans" font-stretch="normal" font-style="normal" font-variant="normal" font-weight="normal" style="-inkscape-font-specification:'Product Sans'"/><path id="path4196" fill="#fff" fill-opacity="1" d="m -25.871376,53.758536 0,1.922024 -0.03402,0.578307 0.03402,0 q 0.17009,-0.297658 0.535785,-0.501767 0.365695,-0.212613 0.782417,-0.212613 0.773912,0 1.182129,0.476254 0.408217,0.476253 0.408217,1.275679 l 0,2.551358 -0.782416,0 0,-2.432295 q 0,-1.156616 -1.029048,-1.156616 -0.484758,0 -0.790921,0.391209 -0.306163,0.382704 -0.306163,0.892975 l 0,2.304727 -0.782417,0 0,-6.089242 0.782417,0 z" font-family="Product Sans" font-stretch="normal" font-style="normal" font-variant="normal" font-weight="normal" style="-inkscape-font-specification:'Product Sans'"/><path id="path4198" fill="#fff" fill-opacity="1" d="m -22.240209,59.847778 0,-0.680362 2.372764,-2.772476 -2.304727,0 0,-0.71438 3.265738,0 0,0.680362 -2.372763,2.772476 2.406782,0 0,0.71438 -3.367794,0 z" font-family="Product Sans" font-stretch="normal" font-style="normal" font-variant="normal" font-weight="normal" style="-inkscape-font-specification:'Product Sans'"/></g></g></svg>