<svg xmlns="http://www.w3.org/2000/svg" xmlns:osb="http://www.openswatchbook.org/uri/2009/osb" xmlns:svg="http://www.w3.org/2000/svg" xmlns:xlink="http://www.w3.org/1999/xlink" id="svg2" width="64" height="64" version="1.1" viewBox="0 0 64 64"><metadata id="metadata14"/><defs id="defs12"><linearGradient id="linearGradient4207" osb:paint="gradient"><stop id="stop3371" offset="0" stop-color="#3498db" stop-opacity="1"/><stop id="stop3373" offset="1" stop-color="#3498db" stop-opacity="0"/></linearGradient><linearGradient id="linearGradient4182" x1="-74.929" x2="-75.26" y1="52.199" y2="2.356" gradientTransform="matrix(1.0749904,0,0,1.0292896,56.688954,-0.01528455)" gradientUnits="userSpaceOnUse" xlink:href="#linearGradient4422-35"/><linearGradient id="linearGradient4422-4"><stop id="stop4424-3" offset="0" stop-color="#d1d7df" stop-opacity="1"/><stop id="stop4426-4" offset="1" stop-color="#e0e5e7" stop-opacity="1"/></linearGradient><linearGradient id="linearGradient4422"><stop id="stop4424" offset="0" stop-color="#debf85" stop-opacity="1"/><stop id="stop4426" offset="1" stop-color="#fde2a6" stop-opacity="1"/></linearGradient><linearGradient id="linearGradient4422-45"><stop id="stop4424-1" offset="0" stop-color="#e2a041" stop-opacity="1"/><stop id="stop4426-3" offset="1" stop-color="#ffc352" stop-opacity="1"/></linearGradient><linearGradient id="linearGradient4422-8"><stop id="stop4424-7" offset="0" stop-color="#e0494c" stop-opacity="1"/><stop id="stop4426-9" offset="1" stop-color="#ff705c" stop-opacity="1"/></linearGradient><linearGradient id="linearGradient4351"><stop id="stop4353" offset="0" stop-color="#ffd6af" stop-opacity="1"/><stop id="stop4355" offset="1" stop-color="#fffcf9" stop-opacity="1"/></linearGradient><linearGradient id="linearGradient4300"><stop id="stop4302" offset="0" stop-color="#f62459" stop-opacity="1"/><stop id="stop4304" offset="1" stop-color="#f73768" stop-opacity="1"/></linearGradient><linearGradient id="linearGradient4422-79"><stop id="stop4424-5" offset="0" stop-color="#1a85f2" stop-opacity="1"/><stop id="stop4426-5" offset="1" stop-color="#1fb0f9" stop-opacity="1"/></linearGradient><linearGradient id="linearGradient4256"><stop id="stop4258" offset="0" stop-color="#8cbdf8" stop-opacity="1"/><stop id="stop4260" offset="1" stop-color="#d5e8ff" stop-opacity="1"/></linearGradient><linearGradient id="linearGradient4300-2"><stop id="stop4302-4" offset="0" stop-color="#3a539b" stop-opacity="1"/><stop id="stop4304-1" offset="1" stop-color="#3f5aa9" stop-opacity="1"/></linearGradient><linearGradient id="linearGradient4422-1"><stop id="stop4424-33" offset="0" stop-color="#2db27c" stop-opacity="1"/><stop id="stop4426-3-4" offset="1" stop-color="#3ec380" stop-opacity="1"/></linearGradient><linearGradient id="linearGradient4422-3"><stop id="stop4424-4" offset="0" stop-color="#e3473a" stop-opacity="1"/><stop id="stop4426-9-5" offset="1" stop-color="#ff3e29" stop-opacity="1"/></linearGradient><linearGradient id="linearGradient4422-7"><stop id="stop4424-1-2" offset="0" stop-color="#cd2619" stop-opacity="1"/><stop id="stop4426-90" offset="1" stop-color="#ff5c4d" stop-opacity="1"/></linearGradient><linearGradient id="linearGradient4422-35"><stop id="stop4424-8" offset="0" stop-color="#ff1526" stop-opacity="1"/><stop id="stop4426-2" offset="1" stop-color="#ff461c" stop-opacity="1"/></linearGradient></defs><g id="g4186" transform="translate(56.391766,-0.17677665)"><rect id="rect4162" width="44" height="7.699" x="-46.392" y="54.477" fill="#6f0a10" fill-opacity="1" stroke="none" stroke-dasharray="none" stroke-dashoffset="0" stroke-linecap="round" stroke-linejoin="round" stroke-miterlimit="4" stroke-opacity="1" stroke-width=".185" opacity="1" ry="2.5"/><rect id="rect4174" width="44" height="52.832" x="-46.392" y="1.646" fill="url(#linearGradient4182)" fill-opacity="1" stroke="none" stroke-dasharray="none" stroke-dashoffset="0" stroke-linecap="round" stroke-linejoin="round" stroke-miterlimit="4" stroke-opacity="1" stroke-width=".3" opacity="1" ry="2.5"/><rect id="rect4184" width="44" height="7.912" x="-46.392" y="51.264" fill="#6f0a10" fill-opacity="1" stroke="none" stroke-dasharray="none" stroke-dashoffset="0" stroke-linecap="round" stroke-linejoin="round" stroke-miterlimit="4" stroke-opacity="1" stroke-width=".185" opacity="1" ry="0"/><g id="text4161" fill="#fff" fill-opacity="1" stroke="none" stroke-linecap="butt" stroke-linejoin="miter" stroke-opacity="1" stroke-width="1" font-family="sans-serif" font-size="9.37" font-style="normal" font-weight="normal" letter-spacing="0" transform="matrix(0.81954967,0,0,0.81954967,-3.2342864,9.9218286)" word-spacing="0" style="line-height:125%"><g id="text4269" fill="#fff" fill-opacity="1" stroke="none" stroke-linecap="butt" stroke-linejoin="miter" stroke-opacity="1" stroke-width="1" font-family="sans-serif" font-size="13.75" font-style="normal" font-weight="normal" letter-spacing="0" word-spacing="0" style="line-height:125%"><path id="path4201" fill="#fff" fill-opacity="1" d="m -33.792331,60.026527 -0.92,0 0,-4.9 0.88,0 0,0.8 0.04,0 q 0.14,-0.4 0.57,-0.66 0.44,-0.26 0.85,-0.26 0.41,0 0.69,0.12 l -0.35,0.86 q -0.18,-0.07 -0.49,-0.07 -0.5,0 -0.89,0.4 -0.38,0.39 -0.38,1.03 l 0,2.68 z" font-family="Product Sans" font-size="10" font-stretch="normal" font-style="normal" font-variant="normal" font-weight="normal" style="-inkscape-font-specification:'Product Sans'"/><path id="path4203" fill="#fff" fill-opacity="1" d="m -26.779519,60.026527 -0.88,0 0,-0.68 -0.04,0 q -0.21,0.35 -0.64,0.6 -0.43,0.24 -0.91,0.24 -0.92,0 -1.4,-0.56 -0.47,-0.56 -0.47,-1.5 l 0,-3 0.92,0 0,2.85 q 0,1.37 1.21,1.37 0.57,0 0.93,-0.46 0.36,-0.46 0.36,-1.06 l 0,-2.7 0.92,0 0,4.9 z" font-family="Product Sans" font-size="10" font-stretch="normal" font-style="normal" font-variant="normal" font-weight="normal" style="-inkscape-font-specification:'Product Sans'"/><path id="path4205" fill="#fff" fill-opacity="1" d="m -23.059831,60.186527 q -0.56,0 -1.01,-0.24 -0.44,-0.24 -0.66,-0.6 l -0.04,0 0,0.68 -0.88,0 0,-7.16 0.92,0 0,2.26 -0.04,0.68 0.04,0 q 0.22,-0.36 0.66,-0.6 0.45,-0.24 1.01,-0.24 0.95,0 1.64,0.75 0.69,0.75 0.69,1.86 0,1.11 -0.69,1.86 -0.69,0.75 -1.64,0.75 z m -0.15,-0.84 q 0.64,0 1.1,-0.48 0.46,-0.49 0.46,-1.29 0,-0.8 -0.46,-1.28 -0.46,-0.49 -1.1,-0.49 -0.65,0 -1.11,0.48 -0.45,0.48 -0.45,1.29 0,0.81 0.45,1.29 0.46,0.48 1.11,0.48 z" font-family="Product Sans" font-size="10" font-stretch="normal" font-style="normal" font-variant="normal" font-weight="normal" style="-inkscape-font-specification:'Product Sans'"/><path id="path4207" fill="#fff" fill-opacity="1" d="m -18.773425,62.186527 -0.95,0 1.14,-2.47 -2.02,-4.59 1,0 1.46,3.52 0.02,0 1.42,-3.52 1,0 -3.07,7.06 z" font-family="Product Sans" font-size="10" font-stretch="normal" font-style="normal" font-variant="normal" font-weight="normal" style="-inkscape-font-specification:'Product Sans'"/></g></g><g id="g3" fill="#fff" fill-opacity="1" transform="matrix(0.05916547,0,0,0.05916547,-36.670766,15.837078)"><path id="path5" fill="#fff" fill-opacity="1" d="m 333.227,39.545 -54.916,83.015 -56.76,-83.015 111.676,0 z m -63.641,102 -121.829,0 60.908,231.669 60.921,-231.669 z m -117.763,-13.6 113.688,0 -56.847,-83.15 -56.841,83.15 z m -12.79,-5.385 56.753,-83.015 -111.67,0 54.917,83.015 z M 195.758,377.58 133.701,141.545 0,141.545 195.758,377.58 Z M 0.19,127.945 l 126.1,0 L 71.359,44.91 0.19,127.945 Z m 345.699,-82.885 -54.836,82.885 125.883,0 -71.047,-82.885 z m -62.248,96.485 -62.063,236.015 195.547,-236.015 -133.484,0 z"/></g></g></svg>