<svg xmlns="http://www.w3.org/2000/svg" xmlns:osb="http://www.openswatchbook.org/uri/2009/osb" xmlns:svg="http://www.w3.org/2000/svg" xmlns:xlink="http://www.w3.org/1999/xlink" id="svg2" width="64" height="64" version="1.1" viewBox="0 0 64 64"><metadata id="metadata14"/><defs id="defs12"><linearGradient id="linearGradient4207" osb:paint="gradient"><stop id="stop3371" offset="0" stop-color="#3498db" stop-opacity="1"/><stop id="stop3373" offset="1" stop-color="#3498db" stop-opacity="0"/></linearGradient><linearGradient id="linearGradient4182" x1="-74.929" x2="-75.26" y1="52.199" y2="2.356" gradientTransform="matrix(1.0749904,0,0,1.0292896,56.688954,-0.01528455)" gradientUnits="userSpaceOnUse" xlink:href="#linearGradient4422-7"/><linearGradient id="linearGradient4422-4"><stop id="stop4424-3" offset="0" stop-color="#d1d7df" stop-opacity="1"/><stop id="stop4426-4" offset="1" stop-color="#e0e5e7" stop-opacity="1"/></linearGradient><linearGradient id="linearGradient4422"><stop id="stop4424" offset="0" stop-color="#debf85" stop-opacity="1"/><stop id="stop4426" offset="1" stop-color="#fde2a6" stop-opacity="1"/></linearGradient><linearGradient id="linearGradient4422-45"><stop id="stop4424-1" offset="0" stop-color="#e2a041" stop-opacity="1"/><stop id="stop4426-3" offset="1" stop-color="#ffc352" stop-opacity="1"/></linearGradient><linearGradient id="linearGradient4422-8"><stop id="stop4424-7" offset="0" stop-color="#e0494c" stop-opacity="1"/><stop id="stop4426-9" offset="1" stop-color="#ff705c" stop-opacity="1"/></linearGradient><linearGradient id="linearGradient4351"><stop id="stop4353" offset="0" stop-color="#ffd6af" stop-opacity="1"/><stop id="stop4355" offset="1" stop-color="#fffcf9" stop-opacity="1"/></linearGradient><linearGradient id="linearGradient4300"><stop id="stop4302" offset="0" stop-color="#f62459" stop-opacity="1"/><stop id="stop4304" offset="1" stop-color="#f73768" stop-opacity="1"/></linearGradient><linearGradient id="linearGradient4422-79"><stop id="stop4424-5" offset="0" stop-color="#1a85f2" stop-opacity="1"/><stop id="stop4426-5" offset="1" stop-color="#1fb0f9" stop-opacity="1"/></linearGradient><linearGradient id="linearGradient4256"><stop id="stop4258" offset="0" stop-color="#8cbdf8" stop-opacity="1"/><stop id="stop4260" offset="1" stop-color="#d5e8ff" stop-opacity="1"/></linearGradient><linearGradient id="linearGradient4300-2"><stop id="stop4302-4" offset="0" stop-color="#3a539b" stop-opacity="1"/><stop id="stop4304-1" offset="1" stop-color="#3f5aa9" stop-opacity="1"/></linearGradient><linearGradient id="linearGradient4422-1"><stop id="stop4424-33" offset="0" stop-color="#2db27c" stop-opacity="1"/><stop id="stop4426-3-4" offset="1" stop-color="#3ec380" stop-opacity="1"/></linearGradient><linearGradient id="linearGradient4422-3"><stop id="stop4424-4" offset="0" stop-color="#e3473a" stop-opacity="1"/><stop id="stop4426-9-5" offset="1" stop-color="#ff3e29" stop-opacity="1"/></linearGradient><linearGradient id="linearGradient4422-7"><stop id="stop4424-1-2" offset="0" stop-color="#cd2619" stop-opacity="1"/><stop id="stop4426-90" offset="1" stop-color="#ff5c4d" stop-opacity="1"/></linearGradient><linearGradient id="linearGradient4422-35"><stop id="stop4424-8" offset="0" stop-color="#ff1526" stop-opacity="1"/><stop id="stop4426-2" offset="1" stop-color="#ff461c" stop-opacity="1"/></linearGradient><linearGradient id="linearGradient4422-46"><stop id="stop4424-46" offset="0" stop-color="#cf5764" stop-opacity="1"/><stop id="stop4426-8" offset="1" stop-color="#ff747c" stop-opacity="1"/></linearGradient></defs><g id="g4186" transform="translate(56.391766,-0.17677665)"><rect id="rect4162" width="44" height="7.699" x="-46.392" y="54.477" fill="#5b130d" fill-opacity="1" stroke="none" stroke-dasharray="none" stroke-dashoffset="0" stroke-linecap="round" stroke-linejoin="round" stroke-miterlimit="4" stroke-opacity="1" stroke-width=".185" opacity="1" ry="2.5"/><rect id="rect4174" width="44" height="52.832" x="-46.392" y="1.646" fill="url(#linearGradient4182)" fill-opacity="1" stroke="none" stroke-dasharray="none" stroke-dashoffset="0" stroke-linecap="round" stroke-linejoin="round" stroke-miterlimit="4" stroke-opacity="1" stroke-width=".3" opacity="1" ry="2.5"/><rect id="rect4184" width="44" height="7.912" x="-46.392" y="51.264" fill="#5b130d" fill-opacity="1" stroke="none" stroke-dasharray="none" stroke-dashoffset="0" stroke-linecap="round" stroke-linejoin="round" stroke-miterlimit="4" stroke-opacity="1" stroke-width=".185" opacity="1" ry="0"/><g id="layer1-5" transform="matrix(0.84688321,0,0,0.84688321,-416.84979,-419.33873)"><g id="g4414" transform="matrix(1.5263052,0,0,1.5263052,376.49864,-1040.1735)"><g id="layer1-0" transform="matrix(0.42549858,0,0,0.42549858,-116.82388,804.06163)"><rect id="rect4319" width="36" height="40" x="390.571" y="503.798" fill="#5b130d" fill-opacity="1" stroke="none" stroke-dasharray="none" stroke-miterlimit="4" stroke-opacity=".55" stroke-width="2.8" opacity="1" ry="2"/><g id="layer1-7" fill="#fff" fill-opacity="1" transform="translate(-0.71741557,0.01714041)"><rect id="rect4199" width="4" height="2" x="407.361" y="504.892" fill="#fff" fill-opacity="1" stroke="none" stroke-dasharray="none" stroke-linecap="round" stroke-linejoin="round" stroke-miterlimit="4" stroke-opacity="1" stroke-width="1.026" opacity=".929" ry=".889"/><rect id="rect4199-5" width="4" height="2" x="407.352" y="507.785" fill="#fff" fill-opacity="1" stroke="none" stroke-dasharray="none" stroke-linecap="round" stroke-linejoin="round" stroke-miterlimit="4" stroke-opacity="1" stroke-width="1.026" opacity=".929" ry=".889"/><rect id="rect4199-5-3" width="4" height="2" x="407.327" y="510.643" fill="#fff" fill-opacity="1" stroke="none" stroke-dasharray="none" stroke-linecap="round" stroke-linejoin="round" stroke-miterlimit="4" stroke-opacity="1" stroke-width="1.026" opacity=".929" ry=".889"/><rect id="rect4199-5-3-9" width="4" height="2" x="407.371" y="513.618" fill="#fff" fill-opacity="1" stroke="none" stroke-dasharray="none" stroke-linecap="round" stroke-linejoin="round" stroke-miterlimit="4" stroke-opacity="1" stroke-width="1.026" opacity=".929" ry=".889"/><rect id="rect4199-5-3-9-2" width="4" height="2" x="407.371" y="516.54" fill="#fff" fill-opacity="1" stroke="none" stroke-dasharray="none" stroke-linecap="round" stroke-linejoin="round" stroke-miterlimit="4" stroke-opacity="1" stroke-width="1.026" opacity=".929" ry=".889"/></g><rect id="rect4199-5-3-9-8" width="4" height="2" x="406.654" y="519.549" fill="#fff" fill-opacity="1" stroke="none" stroke-dasharray="none" stroke-linecap="round" stroke-linejoin="round" stroke-miterlimit="4" stroke-opacity="1" stroke-width="1.026" opacity=".929" ry=".889"/><path id="path7" fill="#fff" fill-opacity="1" d="m 410.11783,524.47214 0,-1.26212 c 0,-0.35164 -0.28416,-0.63683 -0.63453,-0.63683 l -1.76295,0 c -0.35037,0 -0.6346,0.28526 -0.6346,0.63683 l 0,1.2615 -0.98056,2.89118 c -0.27435,0.80579 -0.14271,1.70105 0.35164,2.39489 0.49436,0.69257 1.29597,1.10622 2.14496,1.10622 0.84916,0 1.65084,-0.41365 2.14519,-1.10622 0.49435,-0.69384 0.62583,-1.5891 0.35156,-2.39426 z m -0.40955,4.53977 c -0.50867,0.71448 -1.70431,0.71448 -2.21306,0 -0.25497,-0.35792 -0.32285,-0.8196 -0.18195,-1.23564 l 0.32909,-0.96974 1.91878,0 0.32918,0.97037 c 0.14096,0.41541 0.0729,0.87709 -0.18204,1.23501 z" opacity="1"/></g></g></g><g id="text4312" fill="#000" fill-opacity="1" stroke="none" stroke-linecap="butt" stroke-linejoin="miter" stroke-opacity="1" stroke-width="1" font-family="sans-serif" font-size="13.75" font-style="normal" font-weight="normal" letter-spacing="0" transform="matrix(0.60391763,0,0,0.60391763,-39.356305,44.108488)" word-spacing="0" style="line-height:125%"><path id="path4317" fill="#fff" fill-opacity="1" d="m 19.323302,26.326795 q -1.05875,0 -1.6225,-0.56375 -0.55,-0.56375 -0.55,-1.595 l 0,-3.53375 -1.1825,0 0,-1.155 1.1825,0 0,-2.0625 1.265,0 0,2.0625 1.65,0 0,1.155 -1.65,0 0,3.4375 q 0,1.1 0.9075,1.1 0.34375,0 0.5775,-0.11 l 0.44,1.08625 q -0.4125,0.17875 -1.0175,0.17875 z" font-family="Product Sans" font-stretch="normal" font-style="normal" font-variant="normal" font-weight="normal" style="-inkscape-font-specification:'Product Sans'"/><path id="path4319" fill="#fff" fill-opacity="1" d="m 22.614708,16.371795 0,3.1075 -0.055,0.935 0.055,0 q 0.275,-0.48125 0.86625,-0.81125 0.59125,-0.34375 1.265,-0.34375 1.25125,0 1.91125,0.77 0.66,0.77 0.66,2.0625 l 0,4.125 -1.265,0 0,-3.9325 q 0,-1.87 -1.66375,-1.87 -0.78375,0 -1.27875,0.6325 -0.495,0.61875 -0.495,1.44375 l 0,3.72625 -1.265,0 0,-9.845 1.265,0 z" font-family="Product Sans" font-stretch="normal" font-style="normal" font-variant="normal" font-weight="normal" style="-inkscape-font-specification:'Product Sans'"/><path id="path4321" fill="#fff" fill-opacity="1" d="m 28.485528,26.216795 0,-1.1 3.83625,-4.4825 -3.72625,0 0,-1.155 5.28,0 0,1.1 -3.83625,4.4825 3.89125,0 0,1.155 -5.445,0 z" font-family="Product Sans" font-stretch="normal" font-style="normal" font-variant="normal" font-weight="normal" style="-inkscape-font-specification:'Product Sans'"/></g></g></svg>