<svg xmlns="http://www.w3.org/2000/svg" xmlns:osb="http://www.openswatchbook.org/uri/2009/osb" xmlns:svg="http://www.w3.org/2000/svg" xmlns:xlink="http://www.w3.org/1999/xlink" id="svg2" width="64" height="64" version="1.1" viewBox="0 0 64 64"><metadata id="metadata14"/><defs id="defs12"><linearGradient id="linearGradient4207" osb:paint="gradient"><stop id="stop3371" offset="0" stop-color="#3498db" stop-opacity="1"/><stop id="stop3373" offset="1" stop-color="#3498db" stop-opacity="0"/></linearGradient><linearGradient id="linearGradient4182" x1="-74.929" x2="-75.26" y1="52.199" y2="2.356" gradientTransform="matrix(1.0749904,0,0,1.0292896,56.688954,-0.01528455)" gradientUnits="userSpaceOnUse" xlink:href="#linearGradient4422-46"/><linearGradient id="linearGradient4422-4"><stop id="stop4424-3" offset="0" stop-color="#d1d7df" stop-opacity="1"/><stop id="stop4426-4" offset="1" stop-color="#e0e5e7" stop-opacity="1"/></linearGradient><linearGradient id="linearGradient4422"><stop id="stop4424" offset="0" stop-color="#debf85" stop-opacity="1"/><stop id="stop4426" offset="1" stop-color="#fde2a6" stop-opacity="1"/></linearGradient><linearGradient id="linearGradient4422-45"><stop id="stop4424-1" offset="0" stop-color="#e2a041" stop-opacity="1"/><stop id="stop4426-3" offset="1" stop-color="#ffc352" stop-opacity="1"/></linearGradient><linearGradient id="linearGradient4422-8"><stop id="stop4424-7" offset="0" stop-color="#e0494c" stop-opacity="1"/><stop id="stop4426-9" offset="1" stop-color="#ff705c" stop-opacity="1"/></linearGradient><linearGradient id="linearGradient4351"><stop id="stop4353" offset="0" stop-color="#ffd6af" stop-opacity="1"/><stop id="stop4355" offset="1" stop-color="#fffcf9" stop-opacity="1"/></linearGradient><linearGradient id="linearGradient4300"><stop id="stop4302" offset="0" stop-color="#f62459" stop-opacity="1"/><stop id="stop4304" offset="1" stop-color="#f73768" stop-opacity="1"/></linearGradient><linearGradient id="linearGradient4422-79"><stop id="stop4424-5" offset="0" stop-color="#1a85f2" stop-opacity="1"/><stop id="stop4426-5" offset="1" stop-color="#1fb0f9" stop-opacity="1"/></linearGradient><linearGradient id="linearGradient4256"><stop id="stop4258" offset="0" stop-color="#8cbdf8" stop-opacity="1"/><stop id="stop4260" offset="1" stop-color="#d5e8ff" stop-opacity="1"/></linearGradient><linearGradient id="linearGradient4300-2"><stop id="stop4302-4" offset="0" stop-color="#3a539b" stop-opacity="1"/><stop id="stop4304-1" offset="1" stop-color="#3f5aa9" stop-opacity="1"/></linearGradient><linearGradient id="linearGradient4422-1"><stop id="stop4424-33" offset="0" stop-color="#2db27c" stop-opacity="1"/><stop id="stop4426-3-4" offset="1" stop-color="#3ec380" stop-opacity="1"/></linearGradient><linearGradient id="linearGradient4422-3"><stop id="stop4424-4" offset="0" stop-color="#e3473a" stop-opacity="1"/><stop id="stop4426-9-5" offset="1" stop-color="#ff3e29" stop-opacity="1"/></linearGradient><linearGradient id="linearGradient4422-7"><stop id="stop4424-1-2" offset="0" stop-color="#cd2619" stop-opacity="1"/><stop id="stop4426-90" offset="1" stop-color="#ff5c4d" stop-opacity="1"/></linearGradient><linearGradient id="linearGradient4422-35"><stop id="stop4424-8" offset="0" stop-color="#ff1526" stop-opacity="1"/><stop id="stop4426-2" offset="1" stop-color="#ff461c" stop-opacity="1"/></linearGradient><linearGradient id="linearGradient4422-46"><stop id="stop4424-46" offset="0" stop-color="#cf5764" stop-opacity="1"/><stop id="stop4426-8" offset="1" stop-color="#ff747c" stop-opacity="1"/></linearGradient></defs><g id="g4186" transform="translate(56.391766,-0.17677665)"><rect id="rect4162" width="44" height="7.699" x="-46.392" y="54.477" fill="#5c272c" fill-opacity="1" stroke="none" stroke-dasharray="none" stroke-dashoffset="0" stroke-linecap="round" stroke-linejoin="round" stroke-miterlimit="4" stroke-opacity="1" stroke-width=".185" opacity="1" ry="2.5"/><rect id="rect4174" width="44" height="52.832" x="-46.392" y="1.646" fill="url(#linearGradient4182)" fill-opacity="1" stroke="none" stroke-dasharray="none" stroke-dashoffset="0" stroke-linecap="round" stroke-linejoin="round" stroke-miterlimit="4" stroke-opacity="1" stroke-width=".3" opacity="1" ry="2.5"/><rect id="rect4184" width="44" height="7.912" x="-46.392" y="51.264" fill="#5c272c" fill-opacity="1" stroke="none" stroke-dasharray="none" stroke-dashoffset="0" stroke-linecap="round" stroke-linejoin="round" stroke-miterlimit="4" stroke-opacity="1" stroke-width=".185" opacity="1" ry="0"/><g id="layer1-5" transform="matrix(0.84688321,0,0,0.84688321,-416.84979,-419.33873)"><g id="g4414" transform="matrix(1.5263052,0,0,1.5263052,376.49864,-1040.1735)"><g id="layer1-0" transform="matrix(0.42549858,0,0,0.42549858,-116.82388,804.06163)"><rect id="rect4319" width="36" height="40" x="390.571" y="503.798" fill="#5c272c" fill-opacity="1" stroke="none" stroke-dasharray="none" stroke-miterlimit="4" stroke-opacity=".55" stroke-width="2.8" opacity="1" ry="2"/><g id="layer1-7" fill="#fff" fill-opacity="1" transform="translate(-0.71741557,0.01714041)"><rect id="rect4199" width="4" height="2" x="407.361" y="504.892" fill="#fff" fill-opacity="1" stroke="none" stroke-dasharray="none" stroke-linecap="round" stroke-linejoin="round" stroke-miterlimit="4" stroke-opacity="1" stroke-width="1.026" opacity=".929" ry=".889"/><rect id="rect4199-5" width="4" height="2" x="407.352" y="507.785" fill="#fff" fill-opacity="1" stroke="none" stroke-dasharray="none" stroke-linecap="round" stroke-linejoin="round" stroke-miterlimit="4" stroke-opacity="1" stroke-width="1.026" opacity=".929" ry=".889"/><rect id="rect4199-5-3" width="4" height="2" x="407.327" y="510.643" fill="#fff" fill-opacity="1" stroke="none" stroke-dasharray="none" stroke-linecap="round" stroke-linejoin="round" stroke-miterlimit="4" stroke-opacity="1" stroke-width="1.026" opacity=".929" ry=".889"/><rect id="rect4199-5-3-9" width="4" height="2" x="407.371" y="513.618" fill="#fff" fill-opacity="1" stroke="none" stroke-dasharray="none" stroke-linecap="round" stroke-linejoin="round" stroke-miterlimit="4" stroke-opacity="1" stroke-width="1.026" opacity=".929" ry=".889"/><rect id="rect4199-5-3-9-2" width="4" height="2" x="407.371" y="516.54" fill="#fff" fill-opacity="1" stroke="none" stroke-dasharray="none" stroke-linecap="round" stroke-linejoin="round" stroke-miterlimit="4" stroke-opacity="1" stroke-width="1.026" opacity=".929" ry=".889"/></g><rect id="rect4199-5-3-9-8" width="4" height="2" x="406.654" y="519.549" fill="#fff" fill-opacity="1" stroke="none" stroke-dasharray="none" stroke-linecap="round" stroke-linejoin="round" stroke-miterlimit="4" stroke-opacity="1" stroke-width="1.026" opacity=".929" ry=".889"/><path id="path7" fill="#fff" fill-opacity="1" d="m 410.11783,524.47214 0,-1.26212 c 0,-0.35164 -0.28416,-0.63683 -0.63453,-0.63683 l -1.76295,0 c -0.35037,0 -0.6346,0.28526 -0.6346,0.63683 l 0,1.2615 -0.98056,2.89118 c -0.27435,0.80579 -0.14271,1.70105 0.35164,2.39489 0.49436,0.69257 1.29597,1.10622 2.14496,1.10622 0.84916,0 1.65084,-0.41365 2.14519,-1.10622 0.49435,-0.69384 0.62583,-1.5891 0.35156,-2.39426 z m -0.40955,4.53977 c -0.50867,0.71448 -1.70431,0.71448 -2.21306,0 -0.25497,-0.35792 -0.32285,-0.8196 -0.18195,-1.23564 l 0.32909,-0.96974 1.91878,0 0.32918,0.97037 c 0.14096,0.41541 0.0729,0.87709 -0.18204,1.23501 z" opacity="1"/></g></g></g><g id="text4215" fill="#000" fill-opacity="1" stroke="none" stroke-linecap="butt" stroke-linejoin="miter" stroke-opacity="1" stroke-width="1" font-family="sans-serif" font-size="13.75" font-style="normal" font-weight="normal" letter-spacing="0" transform="matrix(0.81321839,0,0,0.81321839,78.584358,19.47893)" word-spacing="0" style="line-height:125%"><path id="path4220" fill="#fff" fill-opacity="1" d="m -131.54134,49.313748 q -0.82,0 -1.36,-0.4 -0.53,-0.4 -0.78,-1 l 0.82,-0.34 q 0.39,0.92 1.33,0.92 0.43,0 0.7,-0.19 0.28,-0.19 0.28,-0.5 0,-0.48 -0.67,-0.65 l -0.99,-0.24 q -0.47,-0.12 -0.89,-0.45 -0.42,-0.34 -0.42,-0.91 0,-0.65 0.57,-1.05 0.58,-0.41 1.37,-0.41 0.65,0 1.16,0.3 0.51,0.29 0.73,0.84 l -0.8,0.33 q -0.27,-0.65 -1.12,-0.65 -0.41,0 -0.69,0.17 -0.28,0.17 -0.28,0.46 0,0.42 0.65,0.57 l 0.97,0.23 q 0.69,0.16 1.02,0.55 0.33,0.39 0.33,0.88 0,0.66 -0.54,1.1 -0.54,0.44 -1.39,0.44 z" font-family="Product Sans" font-size="10" font-stretch="normal" font-style="normal" font-variant="normal" font-weight="normal" style="-inkscape-font-specification:'Product Sans'"/><path id="path4222" fill="#fff" fill-opacity="1" d="m -127.86915,43.023748 q -0.19,0.19 -0.46,0.19 -0.27,0 -0.46,-0.19 -0.19,-0.19 -0.19,-0.46 0,-0.27 0.19,-0.46 0.19,-0.19 0.46,-0.19 0.27,0 0.46,0.19 0.19,0.19 0.19,0.46 0,0.27 -0.19,0.46 z m 0,6.13 -0.92,0 0,-4.9 0.92,0 0,4.9 z" font-family="Product Sans" font-size="10" font-stretch="normal" font-style="normal" font-variant="normal" font-weight="normal" style="-inkscape-font-specification:'Product Sans'"/><path id="path4224" fill="#fff" fill-opacity="1" d="m -124.60072,49.233748 q -0.77,0 -1.18,-0.41 -0.4,-0.41 -0.4,-1.16 l 0,-2.57 -0.86,0 0,-0.84 0.86,0 0,-1.5 0.92,0 0,1.5 1.2,0 0,0.84 -1.2,0 0,2.5 q 0,0.8 0.66,0.8 0.25,0 0.42,-0.08 l 0.32,0.79 q -0.3,0.13 -0.74,0.13 z" font-family="Product Sans" font-size="10" font-stretch="normal" font-style="normal" font-variant="normal" font-weight="normal" style="-inkscape-font-specification:'Product Sans'"/><path id="path4226" fill="#fff" fill-opacity="1" d="m -118.94931,49.153748 -1.08,0 -1.21,-1.81 -1.19,1.81 -1.08,0 1.73,-2.49 -1.69,-2.41 1.04,0 1.21,1.73 1.15,-1.73 1.08,0 -1.71,2.41 1.75,2.49 z" font-family="Product Sans" font-size="10" font-stretch="normal" font-style="normal" font-variant="normal" font-weight="normal" style="-inkscape-font-specification:'Product Sans'"/></g></g></svg>