<svg xmlns="http://www.w3.org/2000/svg" xmlns:osb="http://www.openswatchbook.org/uri/2009/osb" xmlns:svg="http://www.w3.org/2000/svg" xmlns:xlink="http://www.w3.org/1999/xlink" id="svg2" width="64" height="64" version="1.1" viewBox="0 0 64 64"><metadata id="metadata14"/><defs id="defs12"><linearGradient id="linearGradient6527"><stop id="stop6529" offset="0" stop-color="#e67940" stop-opacity="1"/><stop id="stop6531" offset="1" stop-color="#ffa482" stop-opacity="1"/></linearGradient><linearGradient id="linearGradient4207" osb:paint="gradient"><stop id="stop3371" offset="0" stop-color="#3498db" stop-opacity="1"/><stop id="stop3373" offset="1" stop-color="#3498db" stop-opacity="0"/></linearGradient><linearGradient id="linearGradient4182" x1="-74.929" x2="-75.26" y1="52.199" y2="2.356" gradientTransform="matrix(1.0749904,0,0,1.0292896,56.688954,-0.01528455)" gradientUnits="userSpaceOnUse" xlink:href="#linearGradient4422-8"/><linearGradient id="linearGradient4422-9"><stop id="stop4424-7" offset="0" stop-color="#ffa400" stop-opacity="1"/><stop id="stop4426-7" offset="1" stop-color="#fd0" stop-opacity="1"/></linearGradient><linearGradient id="linearGradient4422"><stop id="stop4424" offset="0" stop-color="#db733d" stop-opacity="1"/><stop id="stop4426" offset="1" stop-color="#ff8f65" stop-opacity="1"/></linearGradient><linearGradient id="linearGradient4422-8"><stop id="stop4424-5" offset="0" stop-color="#14b59e" stop-opacity="1"/><stop id="stop4426-0" offset="1" stop-color="#33d6b6" stop-opacity="1"/></linearGradient></defs><g id="g4186" transform="translate(56.391766,-0.17677665)"><rect id="rect4162" width="44" height="7.699" x="-46.392" y="54.477" fill="#0a5045" fill-opacity="1" stroke="none" stroke-dasharray="none" stroke-dashoffset="0" stroke-linecap="round" stroke-linejoin="round" stroke-miterlimit="4" stroke-opacity="1" stroke-width=".185" opacity="1" ry="2.5"/><rect id="rect4174" width="44" height="52.832" x="-46.392" y="1.646" fill="url(#linearGradient4182)" fill-opacity="1" stroke="none" stroke-dasharray="none" stroke-dashoffset="0" stroke-linecap="round" stroke-linejoin="round" stroke-miterlimit="4" stroke-opacity="1" stroke-width=".3" opacity="1" ry="2.5"/><rect id="rect4184" width="44" height="7.912" x="-46.392" y="51.264" fill="#0a5045" fill-opacity="1" stroke="none" stroke-dasharray="none" stroke-dashoffset="0" stroke-linecap="round" stroke-linejoin="round" stroke-miterlimit="4" stroke-opacity="1" stroke-width=".185" opacity="1" ry="0"/><g id="text4161" fill="#fff" fill-opacity="1" stroke="none" stroke-linecap="butt" stroke-linejoin="miter" stroke-opacity="1" stroke-width="1" font-family="sans-serif" font-size="9.37" font-style="normal" font-weight="normal" letter-spacing="0" transform="matrix(0.81954967,0,0,0.81954967,-4.3342833,10.721775)" word-spacing="0" style="line-height:125%"><g id="text4269" fill="#fff" fill-opacity="1" stroke="none" stroke-linecap="butt" stroke-linejoin="miter" stroke-opacity="1" stroke-width="1" font-family="sans-serif" font-size="13.75" font-style="normal" font-weight="normal" letter-spacing="0" word-spacing="0" style="line-height:125%"><path id="path4174" fill="#fff" fill-opacity="1" d="m -31.149042,53.164537 q -0.19,0.19 -0.46,0.19 -0.27,0 -0.46,-0.19 -0.19,-0.19 -0.19,-0.46 0,-0.27 0.19,-0.46 0.19,-0.19 0.46,-0.19 0.27,0 0.46,0.19 0.19,0.19 0.19,0.46 0,0.27 -0.19,0.46 z m -1.47,8.39 q -0.27,0 -0.54,-0.1 l 0.24,-0.8 q 0.13,0.06 0.27,0.06 0.58,0 0.58,-0.76 l 0,-5.56 0.92,0 0,5.56 q 0,0.81 -0.39,1.2 -0.39,0.4 -1.08,0.4 z" font-family="Product Sans" font-size="10" font-stretch="normal" font-style="normal" font-variant="normal" font-weight="normal" style="-inkscape-font-specification:'Product Sans'"/><path id="path4176" fill="#fff" fill-opacity="1" d="m -28.450604,59.454537 q -0.78,0 -1.31,-0.45 -0.52,-0.45 -0.52,-1.19 0,-0.8 0.62,-1.25 0.62,-0.46 1.53,-0.46 0.81,0 1.33,0.3 l 0,-0.14 q 0,-0.54 -0.37,-0.86 -0.37,-0.33 -0.91,-0.33 -0.4,0 -0.73,0.19 -0.32,0.19 -0.44,0.52 l -0.84,-0.36 q 0.17,-0.44 0.67,-0.81 0.5,-0.38 1.32,-0.38 0.94,0 1.56,0.55 0.62,0.55 0.62,1.55 l 0,2.96 -0.88,0 0,-0.68 -0.04,0 q -0.55,0.84 -1.61,0.84 z m 0.15,-0.84 q 0.57,0 1.03,-0.42 0.47,-0.43 0.47,-1.01 -0.39,-0.32 -1.17,-0.32 -0.67,0 -1.01,0.29 -0.34,0.29 -0.34,0.68 0,0.36 0.31,0.57 0.31,0.21 0.71,0.21 z" font-family="Product Sans" font-size="10" font-stretch="normal" font-style="normal" font-variant="normal" font-weight="normal" style="-inkscape-font-specification:'Product Sans'"/><path id="path4178" fill="#fff" fill-opacity="1" d="m -23.521073,59.294537 -1.98,-4.9 1,0 1.44,3.8 0.02,0 1.46,-3.8 0.98,0 -2,4.9 -0.92,0 z" font-family="Product Sans" font-size="10" font-stretch="normal" font-style="normal" font-variant="normal" font-weight="normal" style="-inkscape-font-specification:'Product Sans'"/><path id="path4180" fill="#fff" fill-opacity="1" d="m -18.54826,59.454537 q -0.78,0 -1.31,-0.45 -0.52,-0.45 -0.52,-1.19 0,-0.8 0.62,-1.25 0.62,-0.46 1.53,-0.46 0.81,0 1.33,0.3 l 0,-0.14 q 0,-0.54 -0.37,-0.86 -0.37,-0.33 -0.91,-0.33 -0.4,0 -0.73,0.19 -0.32,0.19 -0.44,0.52 l -0.84,-0.36 q 0.17,-0.44 0.67,-0.81 0.5,-0.38 1.32,-0.38 0.94,0 1.56,0.55 0.62,0.55 0.62,1.55 l 0,2.96 -0.88,0 0,-0.68 -0.04,0 q -0.55,0.84 -1.61,0.84 z m 0.15,-0.84 q 0.57,0 1.03,-0.42 0.47,-0.43 0.47,-1.01 -0.39,-0.32 -1.17,-0.32 -0.67,0 -1.01,0.29 -0.34,0.29 -0.34,0.68 0,0.36 0.31,0.57 0.31,0.21 0.71,0.21 z" font-family="Product Sans" font-size="10" font-stretch="normal" font-style="normal" font-variant="normal" font-weight="normal" style="-inkscape-font-specification:'Product Sans'"/></g><g id="layer1-4" fill="#0a5045" fill-opacity="1" transform="matrix(1.4420334,0,0,1.4420334,-517.44113,-760.90415)"><g id="layer1-3-3" fill="#0a5045" fill-opacity="1" transform="translate(0.41988239,0.03484499)"><path id="cup-3" fill="#0a5045" fill-opacity="1" stroke="none" stroke-linecap="butt" stroke-linejoin="miter" stroke-opacity="1" stroke-width="1" d="m 348.74142,544.28726 c 0.0425,7.3e-4 0.0812,0.002 0.14207,0.002 0.828,0 2.87925,-0.148 4.04827,-1.51868 1.49694,-1.75569 1.7442,-3.91961 0.56408,-4.92663 -0.38029,-0.32436 -0.87261,-0.49562 -1.4235,-0.49562 -0.44628,0 -0.92172,0.11921 -1.39367,0.32992 -1.07382,-1.91091 -7.71705,-2.01653 -9.14282,-2.01653 -1.55242,4e-5 -9.29376,0.1238 -9.29518,2.56666 l 0,4e-4 c 0,0 0,0 0,4e-4 l 0,4.1e-4 c 0,2.85254 1.22392,5.41092 3.14999,7.16763 -1.78716,0.47712 -3.1434,1.24117 -3.1434,2.42601 0,2.4626 5.84282,3.11995 9.29515,3.11995 3.45214,0 9.29433,-0.65735 9.29433,-3.11995 0,-1.18484 -1.35633,-1.94889 -3.14339,-2.42601 0.37592,-0.34267 0.72987,-0.70981 1.04807,-1.11041 z m 3.78149,-5.30299 c 0.45654,0.38871 0.2407,1.67529 -0.73075,2.81471 -0.50712,0.59363 -1.36449,0.8321 -2.04176,0.92828 0.53626,-1.03559 0.89168,-2.18362 1.02712,-3.40036 0.48929,-0.32623 0.95835,-0.47976 1.29487,-0.47976 0.19231,0 0.34356,0.0461 0.45052,0.13713 z m -10.98714,-1.82374 c 4.24212,0 6.85171,0.63413 7.62702,1.0691 -0.77527,0.43457 -3.38485,1.0687 -7.62702,1.0687 -4.24312,0 -6.85247,-0.63413 -7.62783,-1.0687 0.7754,-0.43497 3.38471,-1.0691 7.62783,-1.0691 z m 7.80484,10.64688 c -0.14328,0.46639 -2.67304,1.63786 -7.7982,1.63786 -5.12539,0 -7.65582,-1.17147 -7.79848,-1.60604 0.0849,-0.27769 1.02285,-0.80393 2.84373,-1.18586 -0.0315,0.0933 -0.0529,0.19052 -0.0529,0.29663 0,1.36778 2.72282,1.65475 5.0076,1.65475 2.28375,0 5.00657,-0.28697 5.00657,-1.65475 0,-0.10669 -0.0218,-0.20473 -0.0532,-0.29891 1.82147,0.37873 2.76004,0.89775 2.84489,1.15632 z" font-family="sans-serif" font-size="9.37" font-style="normal" font-weight="normal" letter-spacing="0" word-spacing="0" style="line-height:125%"/></g></g></g></g></svg>