<svg xmlns="http://www.w3.org/2000/svg" xmlns:osb="http://www.openswatchbook.org/uri/2009/osb" xmlns:svg="http://www.w3.org/2000/svg" xmlns:xlink="http://www.w3.org/1999/xlink" id="svg2" width="64" height="64" version="1.1" viewBox="0 0 64 64"><metadata id="metadata14"/><defs id="defs12"><linearGradient id="linearGradient4373"><stop id="stop4375" offset="0" stop-color="#2aaa76" stop-opacity="1"/><stop id="stop4377" offset="1" stop-color="#44d48b" stop-opacity="1"/></linearGradient><linearGradient id="linearGradient4207" osb:paint="gradient"><stop id="stop3371" offset="0" stop-color="#3498db" stop-opacity="1"/><stop id="stop3373" offset="1" stop-color="#3498db" stop-opacity="0"/></linearGradient><linearGradient id="linearGradient4182" x1="-74.929" x2="-75.26" y1="52.199" y2="2.356" gradientTransform="matrix(1.0749904,0,0,1.0292896,56.688954,-0.01528455)" gradientUnits="userSpaceOnUse" xlink:href="#linearGradient4373"/><linearGradient id="linearGradient4422-9"><stop id="stop4424-7" offset="0" stop-color="#ffa400" stop-opacity="1"/><stop id="stop4426-7" offset="1" stop-color="#fd0" stop-opacity="1"/></linearGradient><linearGradient id="linearGradient4422-1"><stop id="stop4424-78" offset="0" stop-color="#8798a9" stop-opacity="1"/><stop id="stop4426-8" offset="1" stop-color="#aeb6be" stop-opacity="1"/></linearGradient><linearGradient id="linearGradient4422"><stop id="stop4424" offset="0" stop-color="#059e7a" stop-opacity="1"/><stop id="stop4426" offset="1" stop-color="#3ec380" stop-opacity="1"/></linearGradient></defs><g id="g4186" transform="translate(56.391766,-0.17677665)"><rect id="rect4162" width="44" height="7.699" x="-46.392" y="54.477" fill="#144e36" fill-opacity="1" stroke="none" stroke-dasharray="none" stroke-dashoffset="0" stroke-linecap="round" stroke-linejoin="round" stroke-miterlimit="4" stroke-opacity="1" stroke-width=".185" opacity="1" ry="2.5"/><rect id="rect4174" width="44" height="52.832" x="-46.392" y="1.646" fill="url(#linearGradient4182)" fill-opacity="1" stroke="none" stroke-dasharray="none" stroke-dashoffset="0" stroke-linecap="round" stroke-linejoin="round" stroke-miterlimit="4" stroke-opacity="1" stroke-width=".3" opacity="1" ry="2.5"/><rect id="rect4184" width="44" height="7.912" x="-46.392" y="51.264" fill="#144e36" fill-opacity="1" stroke="none" stroke-dasharray="none" stroke-dashoffset="0" stroke-linecap="round" stroke-linejoin="round" stroke-miterlimit="4" stroke-opacity="1" stroke-width=".185" opacity="1" ry="0"/><g id="text4161" fill="#fff" fill-opacity="1" stroke="none" stroke-linecap="butt" stroke-linejoin="miter" stroke-opacity="1" stroke-width="1" font-family="sans-serif" font-size="9.37" font-style="normal" font-weight="normal" letter-spacing="0" transform="matrix(0.81954967,0,0,0.81954967,-4.3342833,10.721775)" word-spacing="0" style="line-height:125%"><g id="text4269" fill="#fff" fill-opacity="1" stroke="none" stroke-linecap="butt" stroke-linejoin="miter" stroke-opacity="1" stroke-width="1" font-family="sans-serif" font-size="13.75" font-style="normal" font-weight="normal" letter-spacing="0" word-spacing="0" style="line-height:125%"><path id="path4181" fill="#fff" fill-opacity="1" d="m -32.592022,59.374605 q -0.77,0 -1.18,-0.41 -0.4,-0.41 -0.4,-1.16 l 0,-2.57 -0.86,0 0,-0.84 0.86,0 0,-1.5 0.92,0 0,1.5 1.2,0 0,0.84 -1.2,0 0,2.5 q 0,0.8 0.66,0.8 0.25,0 0.42,-0.08 l 0.32,0.79 q -0.3,0.13 -0.74,0.13 z" font-family="Product Sans" font-size="10" font-stretch="normal" font-style="normal" font-variant="normal" font-weight="normal" style="-inkscape-font-specification:'Product Sans'"/><path id="path4183" fill="#fff" fill-opacity="1" d="m -30.256866,59.294605 -0.92,0 0,-4.9 0.88,0 0,0.8 0.04,0 q 0.14,-0.4 0.57,-0.66 0.44,-0.26 0.85,-0.26 0.41,0 0.69,0.12 l -0.35,0.86 q -0.18,-0.07 -0.49,-0.07 -0.5,0 -0.89,0.4 -0.38,0.39 -0.38,1.03 l 0,2.68 z" font-family="Product Sans" font-size="10" font-stretch="normal" font-style="normal" font-variant="normal" font-weight="normal" style="-inkscape-font-specification:'Product Sans'"/><path id="path4185" fill="#fff" fill-opacity="1" d="m -26.189366,59.454605 q -0.78,0 -1.31,-0.45 -0.52,-0.45 -0.52,-1.19 0,-0.8 0.62,-1.25 0.62,-0.46 1.53,-0.46 0.81,0 1.33,0.3 l 0,-0.14 q 0,-0.54 -0.37,-0.86 -0.37,-0.33 -0.91,-0.33 -0.4,0 -0.73,0.19 -0.32,0.19 -0.44,0.52 l -0.84,-0.36 q 0.17,-0.44 0.67,-0.81 0.5,-0.38 1.32,-0.38 0.94,0 1.56,0.55 0.62,0.55 0.62,1.55 l 0,2.96 -0.88,0 0,-0.68 -0.04,0 q -0.55,0.84 -1.61,0.84 z m 0.15,-0.84 q 0.57,0 1.03,-0.42 0.47,-0.43 0.47,-1.01 -0.39,-0.32 -1.17,-0.32 -0.67,0 -1.01,0.29 -0.34,0.29 -0.34,0.68 0,0.36 0.31,0.57 0.31,0.21 0.71,0.21 z" font-family="Product Sans" font-size="10" font-stretch="normal" font-style="normal" font-variant="normal" font-weight="normal" style="-inkscape-font-specification:'Product Sans'"/><path id="path4187" fill="#fff" fill-opacity="1" d="m -20.860772,59.454605 q -0.82,0 -1.36,-0.4 -0.53,-0.4 -0.78,-1 l 0.82,-0.34 q 0.39,0.92 1.33,0.92 0.43,0 0.7,-0.19 0.28,-0.19 0.28,-0.5 0,-0.48 -0.67,-0.65 l -0.99,-0.24 q -0.47,-0.12 -0.89,-0.45 -0.42,-0.34 -0.42,-0.91 0,-0.65 0.57,-1.05 0.58,-0.41 1.37,-0.41 0.65,0 1.16,0.3 0.51,0.29 0.73,0.84 l -0.8,0.33 q -0.27,-0.65 -1.12,-0.65 -0.41,0 -0.69,0.17 -0.28,0.17 -0.28,0.46 0,0.42 0.65,0.57 l 0.97,0.23 q 0.69,0.16 1.02,0.55 0.33,0.39 0.33,0.88 0,0.66 -0.54,1.1 -0.54,0.44 -1.39,0.44 z" font-family="Product Sans" font-size="10" font-stretch="normal" font-style="normal" font-variant="normal" font-weight="normal" style="-inkscape-font-specification:'Product Sans'"/><path id="path4189" fill="#fff" fill-opacity="1" d="m -17.209991,52.134605 0,2.26 -0.04,0.68 0.04,0 q 0.2,-0.35 0.63,-0.59 0.43,-0.25 0.92,-0.25 0.91,0 1.39,0.56 0.48,0.56 0.48,1.5 l 0,3 -0.92,0 0,-2.86 q 0,-1.36 -1.21,-1.36 -0.57,0 -0.93,0.46 -0.36,0.45 -0.36,1.05 l 0,2.71 -0.92,0 0,-7.16 0.92,0 z" font-family="Product Sans" font-size="10" font-stretch="normal" font-style="normal" font-variant="normal" font-weight="normal" style="-inkscape-font-specification:'Product Sans'"/></g></g><g id="layer1" transform="translate(-497.6354,-505.80469)"><g id="layer1-3" transform="translate(0.41988239,0.03484499)"><g id="layer1-22" fill="#144e36" fill-opacity="1" transform="matrix(0.84198763,0,0,0.84198763,442.50417,-337.35437)"><g id="layer1-00" fill="#144e36" fill-opacity="1" transform="translate(-401.01229,510.63371)"><g id="layer1-4" fill="#144e36" fill-opacity="1" transform="translate(5.05585,-5.251147)"><g id="layer1-9" fill="#144e36" fill-opacity="1" stroke="#000" stroke-opacity=".8" transform="translate(-11.317,5.8824915)"><g id="layer1-79" fill="#144e36" fill-opacity="1" transform="translate(1.8733025,-0.28410538)"><g id="layer1-2" fill="#144e36" fill-opacity="1" transform="translate(-2.0518724,-0.97858527)"><path id="path4171" fill="#144e36" fill-opacity="1" stroke="none" stroke-opacity=".8" d="m 430.40543,518.99026 1.6586,1.32991 -1.56105,3.06886 c -0.7805,1.41512 0.56036,2.79363 1.41467,3.2735 0.84103,0.4724 2.1464,0.52855 3.36595,0.51153 l 2.19517,-3.6827 1.65859,0.92067 -2.87814,-5.47284 -5.85379,0.051 z m 0.24389,7.51238 3.56107,6.75156 c 0.71546,0.93769 2.06511,1.15936 3.46352,1.12526 l 3.75619,0 0,-6.39351 -7.12214,-0.0512 c -1.10568,0.0682 -2.55292,-0.17048 -3.65864,-1.43217 z m 22.40447,-12.44234 -1.93748,0.84395 -1.85874,-2.88889 c -0.82761,-1.3866 -2.65262,-0.85145 -3.47574,-0.31726 -0.81029,0.52585 -1.49105,1.67027 -2.06777,2.77313 l 2.07441,3.75569 -1.58877,1.04232 6.05969,0.0701 2.7944,-5.27897 z m -6.5208,-3.42308 -7.48062,-0.0771 c -1.14603,0.18748 -1.98926,1.29143 -2.63816,2.56317 l -1.82102,3.37139 5.44902,3.09965 3.49648,-6.36774 c 0.47793,-1.02556 1.38297,-2.20877 2.9943,-2.58951 z m 0.3254,26.05155 0.2199,-2.14819 3.3633,-0.26769 c 1.58297,-0.0707 2.01165,-1.96808 1.95546,-2.96589 -0.0553,-0.98224 -0.70066,-2.14806 -1.36103,-3.20037 l -4.20653,0.041 -0.11811,-1.93134 -2.99748,5.40495 3.14443,5.06744 z m 6.07879,-4.19319 3.69224,-6.67689 c 0.39579,-1.11957 -0.13625,-2.41161 -0.90551,-3.61058 l -1.99048,-3.26897 -5.28348,3.38803 3.73191,6.22544 c 0.64235,0.92613 1.21198,2.31205 0.75532,3.94297 z" display="inline"/></g></g></g></g></g></g></g></g></g></svg>