<svg xmlns="http://www.w3.org/2000/svg" xmlns:osb="http://www.openswatchbook.org/uri/2009/osb" xmlns:svg="http://www.w3.org/2000/svg" xmlns:xlink="http://www.w3.org/1999/xlink" id="svg2" width="64" height="64" version="1.1" viewBox="0 0 64 64"><metadata id="metadata14"/><defs id="defs12"><linearGradient id="linearGradient4207" osb:paint="gradient"><stop id="stop3371" offset="0" stop-color="#3498db" stop-opacity="1"/><stop id="stop3373" offset="1" stop-color="#3498db" stop-opacity="0"/></linearGradient><linearGradient id="linearGradient4182" x1="-74.929" x2="-75.26" y1="52.199" y2="2.356" gradientTransform="matrix(1.0749904,0,0,1.0292896,56.688954,-0.01528455)" gradientUnits="userSpaceOnUse" xlink:href="#linearGradient4531"/><linearGradient id="linearGradient4531"><stop id="stop4533" offset="0" stop-color="#179985" stop-opacity="1"/><stop id="stop4535" offset="1" stop-color="#3cc380" stop-opacity="1"/></linearGradient></defs><g id="g4186" transform="translate(56.391766,-0.17677665)"><rect id="rect4162" width="44" height="7.699" x="-46.392" y="54.477" fill="#0c4439" fill-opacity="1" stroke="none" stroke-dasharray="none" stroke-dashoffset="0" stroke-linecap="round" stroke-linejoin="round" stroke-miterlimit="4" stroke-opacity="1" stroke-width=".185" opacity="1" ry="2.5"/><rect id="rect4174" width="44" height="52.832" x="-46.392" y="1.646" fill="url(#linearGradient4182)" fill-opacity="1" stroke="none" stroke-dasharray="none" stroke-dashoffset="0" stroke-linecap="round" stroke-linejoin="round" stroke-miterlimit="4" stroke-opacity="1" stroke-width=".3" opacity="1" ry="2.5"/><rect id="rect4184" width="44" height="7.912" x="-46.392" y="51.264" fill="#0c4439" fill-opacity="1" stroke="none" stroke-dasharray="none" stroke-dashoffset="0" stroke-linecap="round" stroke-linejoin="round" stroke-miterlimit="4" stroke-opacity="1" stroke-width=".185" opacity="1" ry="0"/><g id="text4161" fill="#fff" fill-opacity="1" stroke="none" stroke-linecap="butt" stroke-linejoin="miter" stroke-opacity="1" stroke-width="1" font-family="sans-serif" font-size="9.37" font-style="normal" font-weight="normal" letter-spacing="0" transform="matrix(0.81954967,0,0,0.81954967,-5.3342874,9.4216035)" word-spacing="0" style="line-height:125%"><g id="text4269" fill="#fff" fill-opacity="1" stroke="none" stroke-linecap="butt" stroke-linejoin="miter" stroke-opacity="1" stroke-width="1" font-family="sans-serif" font-size="13.75" font-style="normal" font-weight="normal" letter-spacing="0" word-spacing="0" style="line-height:125%"><path id="path4166" fill="#fff" fill-opacity="1" d="m -30.741874,61.003071 -0.92,0 0,-7.16 0.92,0 0,7.16 z" font-family="Product Sans" font-size="10" font-stretch="normal" font-style="normal" font-variant="normal" font-weight="normal" style="-inkscape-font-specification:'Product Sans'"/><path id="path4168" fill="#fff" fill-opacity="1" d="m -29.259218,56.693071 q 0.71,-0.75 1.81,-0.75 1.1,0 1.81,0.75 0.71,0.74 0.71,1.86 0,1.12 -0.71,1.87 -0.71,0.74 -1.81,0.74 -1.1,0 -1.81,-0.74 -0.71,-0.75 -0.71,-1.87 0,-1.12 0.71,-1.86 z m 0.68,3.15 q 0.48,0.48 1.13,0.48 0.65,0 1.12,-0.48 0.48,-0.49 0.48,-1.29 0,-0.8 -0.48,-1.28 -0.47,-0.49 -1.12,-0.49 -0.65,0 -1.13,0.49 -0.47,0.48 -0.47,1.28 0,0.8 0.47,1.29 z" font-family="Product Sans" font-size="10" font-stretch="normal" font-style="normal" font-variant="normal" font-weight="normal" style="-inkscape-font-specification:'Product Sans'"/><path id="path4170" fill="#fff" fill-opacity="1" d="m -21.843749,61.163071 q -1.1,0 -1.81,-0.74 -0.71,-0.75 -0.71,-1.87 0,-1.12 0.71,-1.86 0.71,-0.75 1.81,-0.75 0.82,0 1.36,0.4 0.54,0.4 0.79,1.01 l -0.84,0.35 q -0.38,-0.92 -1.37,-0.92 -0.61,0 -1.08,0.5 -0.46,0.5 -0.46,1.27 0,0.77 0.46,1.27 0.47,0.5 1.08,0.5 1.03,0 1.42,-0.92 l 0.82,0.35 q -0.25,0.6 -0.81,1.01 -0.55,0.4 -1.37,0.4 z" font-family="Product Sans" font-size="10" font-stretch="normal" font-style="normal" font-variant="normal" font-weight="normal" style="-inkscape-font-specification:'Product Sans'"/><path id="path4172" fill="#fff" fill-opacity="1" d="m -17.948905,53.843071 0,4.41 2.12,-2.15 1.18,0 0,0.04 -1.91,1.91 2,2.91 0,0.04 -1.11,0 -1.54,-2.31 -0.74,0.74 0,1.57 -0.92,0 0,-7.16 0.92,0 z" font-family="Product Sans" font-size="10" font-stretch="normal" font-style="normal" font-variant="normal" font-weight="normal" style="-inkscape-font-specification:'Product Sans'"/></g></g><g id="g3" fill="#0c4439" fill-opacity="1" transform="matrix(0.04260478,0,0,0.04260478,-35.087766,16.108533)"><path id="path5-1" fill="#0c4439" fill-opacity="1" d="M 353.812,0 C 263.925,0 191.25,72.675 191.25,162.562 c 0,19.125 3.825,38.25 9.562,57.375 L 0,420.75 l 0,95.625 95.625,0 0,-57.375 57.375,0 0,-57.375 57.375,0 86.062,-86.062 c 17.213,5.737 36.338,9.562 57.375,9.562 89.888,0 162.562,-72.675 162.562,-162.562 C 516.374,72.676 443.7,0 353.812,0 Z m 47.813,172.125 c -32.513,0 -57.375,-24.862 -57.375,-57.375 0,-32.513 24.862,-57.375 57.375,-57.375 32.513,0 57.375,24.862 57.375,57.375 0,32.513 -24.862,57.375 -57.375,57.375 z"/></g></g></svg>