<svg xmlns="http://www.w3.org/2000/svg" xmlns:osb="http://www.openswatchbook.org/uri/2009/osb" xmlns:svg="http://www.w3.org/2000/svg" xmlns:xlink="http://www.w3.org/1999/xlink" id="svg2" width="64" height="64" version="1.1" viewBox="0 0 64 64"><metadata id="metadata14"/><defs id="defs12"><linearGradient id="linearGradient4207" osb:paint="gradient"><stop id="stop3371" offset="0" stop-color="#3498db" stop-opacity="1"/><stop id="stop3373" offset="1" stop-color="#3498db" stop-opacity="0"/></linearGradient><linearGradient id="linearGradient4182" x1="-74.929" x2="-75.26" y1="52.199" y2="2.356" gradientTransform="matrix(1.0749904,0,0,1.0292896,56.688954,-0.01528455)" gradientUnits="userSpaceOnUse" xlink:href="#linearGradient4531"/><linearGradient id="linearGradient5002"><stop id="stop5004" offset="0" stop-color="#2e5d89" stop-opacity="1"/><stop id="stop5006" offset="1" stop-color="#1b92f4" stop-opacity="1"/></linearGradient><linearGradient id="linearGradient4422-9"><stop id="stop4424-7" offset="0" stop-color="#ffa400" stop-opacity="1"/><stop id="stop4426-7" offset="1" stop-color="#fd0" stop-opacity="1"/></linearGradient><linearGradient id="linearGradient4422-1"><stop id="stop4424-78" offset="0" stop-color="#8798a9" stop-opacity="1"/><stop id="stop4426-8" offset="1" stop-color="#aeb6be" stop-opacity="1"/></linearGradient><linearGradient id="linearGradient5024" x1="400.571" x2="415.571" y1="512.798" y2="527.798" gradientTransform="matrix(1.1818182,0,0,1.1818182,-74.285714,-95.732083)" gradientUnits="userSpaceOnUse" xlink:href="#linearGradient5002"/><linearGradient id="linearGradient5026" x1="400.571" x2="415.571" y1="512.798" y2="527.798" gradientTransform="translate(78.999997,3.6562389)" gradientUnits="userSpaceOnUse" xlink:href="#linearGradient5002"/><linearGradient id="linearGradient5028" x1="400.571" x2="415.571" y1="512.798" y2="527.798" gradientTransform="matrix(1.1818182,0,0,1.1818182,6.714285,-89.23598)" gradientUnits="userSpaceOnUse" xlink:href="#linearGradient5002"/><linearGradient id="linearGradient5030" x1="400.571" x2="415.571" y1="512.798" y2="527.798" gradientTransform="matrix(1.1818182,0,0,1.1818182,3.714275,-96.23596)" gradientUnits="userSpaceOnUse" xlink:href="#linearGradient5002"/><linearGradient id="linearGradient4351"><stop id="stop4353" offset="0" stop-color="#ffd6af" stop-opacity="1"/><stop id="stop4355" offset="1" stop-color="#fffcf9" stop-opacity="1"/></linearGradient><linearGradient id="linearGradient4300"><stop id="stop4302" offset="0" stop-color="#f62459" stop-opacity="1"/><stop id="stop4304" offset="1" stop-color="#f73768" stop-opacity="1"/></linearGradient><linearGradient id="linearGradient4422"><stop id="stop4424" offset="0" stop-color="#1a85f2" stop-opacity="1"/><stop id="stop4426" offset="1" stop-color="#1fb0f9" stop-opacity="1"/></linearGradient><linearGradient id="linearGradient4256"><stop id="stop4258" offset="0" stop-color="#8cbdf8" stop-opacity="1"/><stop id="stop4260" offset="1" stop-color="#d5e8ff" stop-opacity="1"/></linearGradient><linearGradient id="linearGradient4300-2"><stop id="stop4302-4" offset="0" stop-color="#3a539b" stop-opacity="1"/><stop id="stop4304-1" offset="1" stop-color="#3f5aa9" stop-opacity="1"/></linearGradient><linearGradient id="linearGradient4422-4"><stop id="stop4424-3" offset="0" stop-color="#d1d7df" stop-opacity="1"/><stop id="stop4426-4" offset="1" stop-color="#e0e5e7" stop-opacity="1"/></linearGradient><linearGradient id="linearGradient4422-41"><stop id="stop4424-2" offset="0" stop-color="#13b89f" stop-opacity="1"/><stop id="stop4426-43" offset="1" stop-color="#3aedca" stop-opacity="1"/></linearGradient><linearGradient id="linearGradient4351-9"><stop id="stop4353-1" offset="0" stop-color="#fddda3" stop-opacity="1"/><stop id="stop4355-7" offset="1" stop-color="#fde3a7" stop-opacity="1"/></linearGradient><linearGradient id="linearGradient4300-0"><stop id="stop4302-9" offset="0" stop-color="#f39c12" stop-opacity="1"/><stop id="stop4304-7" offset="1" stop-color="#f89406" stop-opacity="1"/></linearGradient><clipPath id="clipPath4157" clipPathUnits="userSpaceOnUse"><path id="path4159" fill="#f9f8f2" fill-opacity="1" stroke-width="1.007" d="m 27.642964,3.2951379 13.085584,13.0855841 -11.072418,0 c -0.977824,0 -2.013166,-1.035372 -2.013166,-2.013167 l 0,-11.0724171 z"/></clipPath><linearGradient id="linearGradient4422-3"><stop id="stop4424-7-3" offset="0" stop-color="#ff721a" stop-opacity="1"/><stop id="stop4426-91" offset="1" stop-color="#fbb521" stop-opacity="1"/></linearGradient><linearGradient id="linearGradient8467"><stop id="stop8469" offset="0" stop-color="#d3d3d3" stop-opacity="1"/><stop id="stop8471" offset="1" stop-color="#fcf9f9" stop-opacity="1"/></linearGradient><linearGradient id="linearGradient4300-3"><stop id="stop4302-0" offset="0" stop-color="#f39c12" stop-opacity="1"/><stop id="stop4304-0" offset="1" stop-color="#f9a11f" stop-opacity="1"/></linearGradient><linearGradient id="linearGradient4422-04"><stop id="stop4424-0" offset="0" stop-color="#db733d" stop-opacity="1"/><stop id="stop4426-9" offset="1" stop-color="#ff8f65" stop-opacity="1"/></linearGradient><linearGradient id="linearGradient4422-4-7"><stop id="stop4424-5" offset="0" stop-color="#14b59e" stop-opacity="1"/><stop id="stop4426-7-9" offset="1" stop-color="#33d6b6" stop-opacity="1"/></linearGradient><linearGradient id="linearGradient4351-3"><stop id="stop4353-5" offset="0" stop-color="#c8e3fe" stop-opacity="1"/><stop id="stop4355-4" offset="1" stop-color="#fff" stop-opacity="1"/></linearGradient><linearGradient id="linearGradient4300-2-8"><stop id="stop4302-4-2" offset="0" stop-color="#7fcc74" stop-opacity="1"/><stop id="stop4304-1-2" offset="1" stop-color="#87d37c" stop-opacity="1"/></linearGradient><linearGradient id="linearGradient5356" x1="400.571" x2="415.571" y1="512.798" y2="527.798" gradientTransform="matrix(1.1818182,0,0,1.1818182,-74.285714,-95.732083)" gradientUnits="userSpaceOnUse" xlink:href="#linearGradient5002"/><linearGradient id="linearGradient5358" x1="400.571" x2="415.571" y1="512.798" y2="527.798" gradientTransform="translate(78.999997,3.6562389)" gradientUnits="userSpaceOnUse" xlink:href="#linearGradient5002"/><linearGradient id="linearGradient5360" x1="400.571" x2="415.571" y1="512.798" y2="527.798" gradientTransform="matrix(1.1818182,0,0,1.1818182,6.714285,-89.23598)" gradientUnits="userSpaceOnUse" xlink:href="#linearGradient5002"/><linearGradient id="linearGradient5362" x1="400.571" x2="415.571" y1="512.798" y2="527.798" gradientTransform="matrix(1.1818182,0,0,1.1818182,3.714275,-96.23596)" gradientUnits="userSpaceOnUse" xlink:href="#linearGradient5002"/><linearGradient id="linearGradient5602" x1="400.571" x2="415.571" y1="512.798" y2="527.798" gradientTransform="matrix(1.1818182,0,0,1.1818182,-74.285714,-95.732083)" gradientUnits="userSpaceOnUse" xlink:href="#linearGradient5002"/><linearGradient id="linearGradient5604" x1="400.571" x2="415.571" y1="512.798" y2="527.798" gradientTransform="translate(78.999997,3.6562389)" gradientUnits="userSpaceOnUse" xlink:href="#linearGradient5002"/><linearGradient id="linearGradient5606" x1="400.571" x2="415.571" y1="512.798" y2="527.798" gradientTransform="matrix(1.1818182,0,0,1.1818182,6.714285,-89.23598)" gradientUnits="userSpaceOnUse" xlink:href="#linearGradient5002"/><linearGradient id="linearGradient5608" x1="400.571" x2="415.571" y1="512.798" y2="527.798" gradientTransform="matrix(1.1818182,0,0,1.1818182,3.714275,-96.23596)" gradientUnits="userSpaceOnUse" xlink:href="#linearGradient5002"/><clipPath id="clipPath4157-9" clipPathUnits="userSpaceOnUse"><path id="path4159-4" fill="#f9f8f2" fill-opacity="1" stroke-width="1.007" d="m 27.642964,3.2951379 13.085584,13.0855841 -11.072418,0 c -0.977824,0 -2.013166,-1.035372 -2.013166,-2.013167 l 0,-11.0724171 z"/></clipPath><linearGradient id="linearGradient5959" x1="400.571" x2="415.571" y1="512.798" y2="527.798" gradientTransform="matrix(1.1818182,0,0,1.1818182,-74.285714,-95.732083)" gradientUnits="userSpaceOnUse" xlink:href="#linearGradient5002"/><linearGradient id="linearGradient5961" x1="400.571" x2="415.571" y1="512.798" y2="527.798" gradientTransform="translate(78.999997,3.6562389)" gradientUnits="userSpaceOnUse" xlink:href="#linearGradient5002"/><linearGradient id="linearGradient5963" x1="400.571" x2="415.571" y1="512.798" y2="527.798" gradientTransform="matrix(1.1818182,0,0,1.1818182,6.714285,-89.23598)" gradientUnits="userSpaceOnUse" xlink:href="#linearGradient5002"/><linearGradient id="linearGradient5965" x1="400.571" x2="415.571" y1="512.798" y2="527.798" gradientTransform="matrix(1.1818182,0,0,1.1818182,3.714275,-96.23596)" gradientUnits="userSpaceOnUse" xlink:href="#linearGradient5002"/><linearGradient id="linearGradient4531"><stop id="stop4533" offset="0" stop-color="#ff5239" stop-opacity="1"/><stop id="stop4535" offset="1" stop-color="#ff9136" stop-opacity="1"/></linearGradient></defs><g id="g4186" transform="translate(56.391766,-0.17677665)"><rect id="rect4162" width="44" height="7.699" x="-46.392" y="54.477" fill="#6f2519" fill-opacity="1" stroke="none" stroke-dasharray="none" stroke-dashoffset="0" stroke-linecap="round" stroke-linejoin="round" stroke-miterlimit="4" stroke-opacity="1" stroke-width=".185" opacity="1" ry="2.5"/><rect id="rect4174" width="44" height="52.832" x="-46.392" y="1.646" fill="url(#linearGradient4182)" fill-opacity="1" stroke="none" stroke-dasharray="none" stroke-dashoffset="0" stroke-linecap="round" stroke-linejoin="round" stroke-miterlimit="4" stroke-opacity="1" stroke-width=".3" opacity="1" ry="2.5"/><rect id="rect4184" width="44" height="7.912" x="-46.392" y="51.264" fill="#6f2519" fill-opacity="1" stroke="none" stroke-dasharray="none" stroke-dashoffset="0" stroke-linecap="round" stroke-linejoin="round" stroke-miterlimit="4" stroke-opacity="1" stroke-width=".185" opacity="1" ry="0"/><g id="text4161" fill="#fff" fill-opacity="1" stroke="none" stroke-linecap="butt" stroke-linejoin="miter" stroke-opacity="1" stroke-width="1" font-family="sans-serif" font-size="9.37" font-style="normal" font-weight="normal" letter-spacing="0" transform="matrix(0.81954967,0,0,0.81954967,-3.6342884,11.121832)" word-spacing="0" style="line-height:125%"><g id="text4269" fill="#fff" fill-opacity="1" stroke="none" stroke-linecap="butt" stroke-linejoin="miter" stroke-opacity="1" stroke-width="1" font-family="sans-serif" font-size="13.75" font-style="normal" font-weight="normal" letter-spacing="0" word-spacing="0" style="line-height:125%"><path id="path4256" fill="#fff" fill-opacity="1" d="m -27.21413,59.050499 -1.08,0 -1.21,-1.81 -1.19,1.81 -1.08,0 1.73,-2.49 -1.69,-2.41 1.04,0 1.21,1.73 1.15,-1.73 1.08,0 -1.71,2.41 1.75,2.49 z" font-family="Product Sans" font-size="10" font-stretch="normal" font-style="normal" font-variant="normal" font-weight="normal" style="-inkscape-font-specification:'Product Sans'"/><path id="path4258" fill="#fff" fill-opacity="1" d="m -24.483817,59.210499 q -1.1,0 -1.81,-0.74 -0.71,-0.75 -0.71,-1.87 0,-1.12 0.71,-1.86 0.71,-0.75 1.81,-0.75 0.82,0 1.36,0.4 0.54,0.4 0.79,1.01 l -0.84,0.35 q -0.38,-0.92 -1.37,-0.92 -0.61,0 -1.08,0.5 -0.46,0.5 -0.46,1.27 0,0.77 0.46,1.27 0.47,0.5 1.08,0.5 1.03,0 1.42,-0.92 l 0.82,0.35 q -0.25,0.6 -0.81,1.01 -0.55,0.4 -1.37,0.4 z" font-family="Product Sans" font-size="10" font-stretch="normal" font-style="normal" font-variant="normal" font-weight="normal" style="-inkscape-font-specification:'Product Sans'"/><path id="path4260" fill="#fff" fill-opacity="1" d="m -19.168974,51.850499 q 0.44,0 0.74,0.13 l -0.32,0.79 q -0.16,-0.08 -0.42,-0.08 -0.36,0 -0.59,0.22 -0.23,0.21 -0.23,0.62 l 0,0.62 1.28,0 0,0.84 -1.28,0 0,4.06 -0.92,0 0,-4.06 -0.92,0 0,-0.84 0.92,0 0,-0.65 q 0,-0.75 0.48,-1.2 0.48,-0.45 1.26,-0.45 z" font-family="Product Sans" font-size="10" font-stretch="normal" font-style="normal" font-variant="normal" font-weight="normal" style="-inkscape-font-specification:'Product Sans'"/></g></g><g id="g13074" transform="matrix(0.80067132,0,0,0.80067132,-398.62851,-409.55811)"><g id="layer1-71" transform="translate(446.67745,522.98761)"><path id="path4323" fill="#6f2519" fill-opacity="1" fill-rule="evenodd" stroke="none" stroke-dasharray="none" stroke-dashoffset="0" stroke-linecap="butt" stroke-linejoin="miter" stroke-miterlimit="10" stroke-opacity="1" stroke-width="1" marker-end="none" marker-mid="none" marker-start="none" d="m 10.374369,12.467884 c 0,0 2.874509,5.927634 9.599242,5.760407 C 34.066126,17.874738 36.53732,10.523341 36.890873,9.4626804 37.244427,8.4020202 37.785407,8.5626825 37.91048,9.5429474 42.506674,51.262247 6.0135488,33.362123 4.7175144,26.256467 11.965359,24.135147 10.197592,20.069282 10.197592,20.069282 l 0.176777,-7.601398 z" color="#000" display="inline" overflow="visible" visibility="visible" style="marker:none"/><path id="path8520" fill="none" fill-opacity="1" fill-rule="evenodd" stroke="none" stroke-dasharray="none" stroke-dashoffset="0" stroke-linecap="butt" stroke-linejoin="miter" stroke-miterlimit="10" stroke-opacity="1" stroke-width="1" marker-end="none" marker-mid="none" marker-start="none" d="m 36.96875,11.84375 c -0.561978,0.926895 -1.406492,2.033166 -2.6875,3.09375 -2.631918,2.179042 -7.050563,4.162347 -14.28125,4.34375 -4.224373,0.105049 -6.952741,-1.934149 -8.625,-3.75 L 11.25,20 c 0.136107,0.418802 0.415455,1.390498 -0.0625,2.71875 -0.514314,1.429296 -2.154514,2.891363 -4.96875,4 0.2503304,0.522033 0.4954845,1.04362 1.25,1.78125 1.0279503,1.004945 2.4570333,2.088049 4.15625,3.0625 3.398433,1.948902 7.801583,3.493212 11.90625,3.5625 4.104667,0.06929 7.857126,-1.23455 10.4375,-5 2.378744,-3.471218 3.682473,-9.347943 3,-18.28125 z" color="#000" display="inline" opacity=".185" overflow="visible" visibility="visible" style="marker:none"/><path id="path4357" fill="#6f2519" fill-opacity="1" fill-rule="evenodd" stroke="#ff7737" stroke-dasharray="none" stroke-dashoffset="0" stroke-linecap="butt" stroke-linejoin="miter" stroke-miterlimit="10" stroke-opacity="1" stroke-width=".783" marker-end="none" marker-mid="none" marker-start="none" d="m 72.655224,21.837049 a 3.1819806,3.1819806 0 1 1 -6.363961,0 3.1819806,3.1819806 0 1 1 6.363961,0 z" color="#000" display="inline" overflow="visible" transform="matrix(1.277778,0,0,1.277778,-75.12661,-6.507784)" visibility="visible" style="marker:none"/><path id="path5198" fill="#6f2519" fill-opacity="1" fill-rule="evenodd" stroke="#ff7337" stroke-dasharray="none" stroke-dashoffset="0" stroke-linecap="butt" stroke-linejoin="miter" stroke-miterlimit="10" stroke-opacity="1" stroke-width="1" marker-end="none" marker-mid="none" marker-start="none" d="m 10.429825,27.228739 a 4.331029,6.098796 0 1 1 -8.662058,0 4.331029,6.098796 0 1 1 8.662058,0 z" color="#000" display="inline" overflow="visible" transform="matrix(0.810984,-0.585069,0.585069,0.810984,-14.77791,6.947121)" visibility="visible" style="marker:none"/><path id="path4359" fill="#ff7b37" fill-opacity="1" fill-rule="evenodd" stroke="#ff7d37" stroke-dasharray="none" stroke-dashoffset="0" stroke-linecap="butt" stroke-linejoin="miter" stroke-miterlimit="10" stroke-opacity="1" stroke-width="1.174" marker-end="none" marker-mid="none" marker-start="none" d="m 24.041631,21.837049 a 2.2980971,2.2980971 0 1 1 -4.596194,0 2.2980971,2.2980971 0 1 1 4.596194,0 z" color="#000" display="inline" overflow="visible" transform="matrix(0.851852,0,0,0.851852,-3.926759,3.395528)" visibility="visible" style="marker:none"/><path id="path6462" fill="#6f2719" fill-opacity="1" fill-rule="evenodd" stroke="#ff7537" stroke-dasharray="none" stroke-dashoffset="0" stroke-linecap="butt" stroke-linejoin="miter" stroke-miterlimit="10" stroke-opacity="1" stroke-width=".667" marker-end="none" marker-mid="none" marker-start="none" d="m 72.655224,21.837049 a 3.1819806,3.1819806 0 1 1 -6.363961,0 3.1819806,3.1819806 0 1 1 6.363961,0 z" color="#000" display="inline" overflow="visible" transform="matrix(1.5,0,0,1.5,-82.16821,-10.91852)" visibility="visible" style="marker:none"/><path id="path6464" fill="#ff7b37" fill-opacity="1" fill-rule="evenodd" stroke="#ff7337" stroke-dasharray="none" stroke-dashoffset="0" stroke-linecap="butt" stroke-linejoin="miter" stroke-miterlimit="10" stroke-opacity="1" stroke-width="1" marker-end="none" marker-mid="none" marker-start="none" d="m 24.041631,21.837049 a 2.2980971,2.2980971 0 1 1 -4.596194,0 2.2980971,2.2980971 0 1 1 4.596194,0 z" color="#000" display="inline" overflow="visible" transform="translate(1.414216,0.707108)" visibility="visible" style="marker:none"/></g></g></g></svg>