<svg xmlns="http://www.w3.org/2000/svg" xmlns:osb="http://www.openswatchbook.org/uri/2009/osb" xmlns:svg="http://www.w3.org/2000/svg" xmlns:xlink="http://www.w3.org/1999/xlink" id="svg2" width="64" height="64" version="1.1" viewBox="0 0 64 64"><metadata id="metadata14"/><defs id="defs12"><linearGradient id="linearGradient4207" osb:paint="gradient"><stop id="stop3371" offset="0" stop-color="#3498db" stop-opacity="1"/><stop id="stop3373" offset="1" stop-color="#3498db" stop-opacity="0"/></linearGradient><linearGradient id="linearGradient4182" x1="-74.929" x2="-75.26" y1="52.199" y2="2.356" gradientTransform="matrix(1.0749904,0,0,1.0292896,56.688954,-0.01528455)" gradientUnits="userSpaceOnUse" xlink:href="#linearGradient4422"/><linearGradient id="linearGradient4422-4"><stop id="stop4424-5" offset="0" stop-color="#1981f2" stop-opacity="1"/><stop id="stop4426-1" offset="1" stop-color="#21c6fb" stop-opacity="1"/></linearGradient><linearGradient id="linearGradient4422"><stop id="stop4424" offset="0" stop-color="#f4a01c" stop-opacity="1"/><stop id="stop4426" offset="1" stop-color="#fac632" stop-opacity="1"/></linearGradient></defs><g id="g4186" transform="translate(56.391766,-0.17677665)"><rect id="rect4162" width="44" height="7.699" x="-46.392" y="54.477" fill="#6b470d" fill-opacity="1" stroke="none" stroke-dasharray="none" stroke-dashoffset="0" stroke-linecap="round" stroke-linejoin="round" stroke-miterlimit="4" stroke-opacity="1" stroke-width=".185" opacity="1" ry="2.5"/><rect id="rect4174" width="44" height="52.832" x="-46.392" y="1.646" fill="url(#linearGradient4182)" fill-opacity="1" stroke="none" stroke-dasharray="none" stroke-dashoffset="0" stroke-linecap="round" stroke-linejoin="round" stroke-miterlimit="4" stroke-opacity="1" stroke-width=".3" opacity="1" ry="2.5"/><rect id="rect4184" width="44" height="7.912" x="-46.392" y="51.264" fill="#6b470d" fill-opacity="1" stroke="none" stroke-dasharray="none" stroke-dashoffset="0" stroke-linecap="round" stroke-linejoin="round" stroke-miterlimit="4" stroke-opacity="1" stroke-width=".185" opacity="1" ry="0"/><g id="text4161" fill="#fff" fill-opacity="1" stroke="none" stroke-linecap="butt" stroke-linejoin="miter" stroke-opacity="1" stroke-width="1" font-family="sans-serif" font-size="9.37" font-style="normal" font-weight="normal" letter-spacing="0" transform="matrix(0.81954967,0,0,0.81954967,-4.334287,10.321731)" word-spacing="0" style="line-height:125%"><g id="text4269" fill="#fff" fill-opacity="1" stroke="none" stroke-linecap="butt" stroke-linejoin="miter" stroke-opacity="1" stroke-width="1" font-family="sans-serif" font-size="13.75" font-style="normal" font-weight="normal" letter-spacing="0" word-spacing="0" style="line-height:125%"><path id="path4171" fill="#fff" fill-opacity="1" d="m -35.94394,59.454537 q -0.56,0 -1.01,-0.24 -0.44,-0.24 -0.66,-0.6 l -0.04,0 0.04,0.68 0,2.16 -0.92,0 0,-7.06 0.88,0 0,0.68 0.04,0 q 0.22,-0.36 0.66,-0.6 0.45,-0.24 1.01,-0.24 0.95,0 1.64,0.75 0.69,0.75 0.69,1.86 0,1.11 -0.69,1.86 -0.69,0.75 -1.64,0.75 z m -0.15,-0.84 q 0.64,0 1.1,-0.48 0.46,-0.49 0.46,-1.29 0,-0.8 -0.46,-1.28 -0.46,-0.49 -1.1,-0.49 -0.65,0 -1.11,0.48 -0.45,0.48 -0.45,1.29 0,0.81 0.45,1.29 0.46,0.48 1.11,0.48 z" font-family="Product Sans" font-size="10" font-stretch="normal" font-style="normal" font-variant="normal" font-weight="normal" style="-inkscape-font-specification:'Product Sans'"/><path id="path4173" fill="#fff" fill-opacity="1" d="m -31.656596,61.454537 -0.95,0 1.14,-2.47 -2.02,-4.59 1,0 1.46,3.52 0.02,0 1.42,-3.52 1,0 -3.07,7.06 z" font-family="Product Sans" font-size="10" font-stretch="normal" font-style="normal" font-variant="normal" font-weight="normal" style="-inkscape-font-specification:'Product Sans'"/><path id="path4175" fill="#fff" fill-opacity="1" d="m -25.866127,59.374537 q -0.77,0 -1.18,-0.41 -0.4,-0.41 -0.4,-1.16 l 0,-2.57 -0.86,0 0,-0.84 0.86,0 0,-1.5 0.92,0 0,1.5 1.2,0 0,0.84 -1.2,0 0,2.5 q 0,0.8 0.66,0.8 0.25,0 0.42,-0.08 l 0.32,0.79 q -0.3,0.13 -0.74,0.13 z" font-family="Product Sans" font-size="10" font-stretch="normal" font-style="normal" font-variant="normal" font-weight="normal" style="-inkscape-font-specification:'Product Sans'"/><path id="path4177" fill="#fff" fill-opacity="1" d="m -23.472377,52.134537 0,2.26 -0.04,0.68 0.04,0 q 0.2,-0.35 0.63,-0.59 0.43,-0.25 0.92,-0.25 0.91,0 1.39,0.56 0.48,0.56 0.48,1.5 l 0,3 -0.92,0 0,-2.86 q 0,-1.36 -1.21,-1.36 -0.57,0 -0.93,0.46 -0.36,0.45 -0.36,1.05 l 0,2.71 -0.92,0 0,-7.16 0.92,0 z" font-family="Product Sans" font-size="10" font-stretch="normal" font-style="normal" font-variant="normal" font-weight="normal" style="-inkscape-font-specification:'Product Sans'"/><path id="path4179" fill="#fff" fill-opacity="1" d="m -18.53269,54.984537 q 0.71,-0.75 1.81,-0.75 1.1,0 1.81,0.75 0.71,0.74 0.71,1.86 0,1.12 -0.71,1.87 -0.71,0.74 -1.81,0.74 -1.1,0 -1.81,-0.74 -0.71,-0.75 -0.71,-1.87 0,-1.12 0.71,-1.86 z m 0.68,3.15 q 0.48,0.48 1.13,0.48 0.65,0 1.12,-0.48 0.48,-0.49 0.48,-1.29 0,-0.8 -0.48,-1.28 -0.47,-0.49 -1.12,-0.49 -0.65,0 -1.13,0.49 -0.47,0.48 -0.47,1.28 0,0.8 0.47,1.29 z" font-family="Product Sans" font-size="10" font-stretch="normal" font-style="normal" font-variant="normal" font-weight="normal" style="-inkscape-font-specification:'Product Sans'"/><path id="path4181" fill="#fff" fill-opacity="1" d="m -12.574877,54.394537 0,0.68 0.04,0 q 0.2,-0.35 0.63,-0.59 0.43,-0.25 0.92,-0.25 0.91,0 1.3899997,0.56 0.48,0.56 0.48,1.5 l 0,3 -0.9199997,0 0,-2.86 q 0,-1.36 -1.21,-1.36 -0.57,0 -0.93,0.46 -0.36,0.45 -0.36,1.05 l 0,2.71 -0.92,0 0,-4.9 0.88,0 z" font-family="Product Sans" font-size="10" font-stretch="normal" font-style="normal" font-variant="normal" font-weight="normal" style="-inkscape-font-specification:'Product Sans'"/></g><g id="layer1" transform="matrix(1.2201823,0,0,1.2201823,-601.75362,-635.15973)"><g id="layer1-3" transform="translate(0.41988239,0.03484499)"><g id="g138566" fill="#6b470d" fill-opacity="1" stroke="none" stroke-linecap="butt" stroke-linejoin="miter" stroke-opacity="1" stroke-width="1" font-family="sans-serif" font-size="9.37" font-style="normal" font-weight="normal" letter-spacing="0" transform="matrix(0.88117665,0,0,0.88117665,404.05204,511.65407)" word-spacing="0" style="line-height:125%"><path id="rect4270" fill="#6b470d" fill-opacity="1" stroke="none" d="m 75.623397,16.694814 c -1.886114,0 -3.404538,1.518424 -3.404538,3.404538 l 0,2.269691 5.674229,0 0,1.134846 -5.674229,0 -2.269692,0 c -2.514818,0 -4.539383,2.024565 -4.539383,4.539384 l 0,2.269691 c 0,2.514819 2.024565,4.539384 4.539383,4.539384 l 0,-2.269692 c 0,-2.08943 1.405155,-3.822825 3.320311,-4.355415 0.166643,-0.04635 0.33748,-0.08205 0.509794,-0.113042 0.232462,-0.03642 0.466278,-0.07093 0.709279,-0.07093 l 4.539383,0 3.659434,0 c 0.541527,-0.602464 0.87995,-1.392119 0.87995,-2.269692 l 0,-5.674229 c 0,-1.886114 -1.518424,-3.404538 -3.404538,-3.404538 z m 10.213612,6.809075 0,2.269692 c 0,2.08943 -1.405154,3.822825 -3.32031,4.355415 -0.166643,0.04635 -0.337481,0.08205 -0.509794,0.113042 -0.232462,0.03642 -0.466278,0.07093 -0.709279,0.07093 l -4.539383,0 -3.659435,0 c -0.541527,0.602464 -0.879949,1.392119 -0.879949,2.269692 l 0,5.674229 c 0,1.886114 1.518424,3.404538 3.404538,3.404538 l 4.539383,0 c 1.886114,0 3.404538,-1.518424 3.404538,-3.404538 l 0,-2.269691 -5.67423,0 0,-1.134846 5.67423,0 2.269691,0 c 2.514819,0 4.539384,-2.024565 4.539384,-4.539384 l 0,-2.269691 c 0,-2.514819 -2.024565,-4.539384 -4.539384,-4.539388 z" opacity="1"/></g></g></g></g></g></svg>