<svg xmlns="http://www.w3.org/2000/svg" xmlns:osb="http://www.openswatchbook.org/uri/2009/osb" xmlns:svg="http://www.w3.org/2000/svg" xmlns:xlink="http://www.w3.org/1999/xlink" id="svg2" width="64" height="64" version="1.1" viewBox="0 0 64 64"><metadata id="metadata14"/><defs id="defs12"><linearGradient id="linearGradient6527"><stop id="stop6529" offset="0" stop-color="#ef6f29" stop-opacity="1"/><stop id="stop6531" offset="1" stop-color="#ff9b65" stop-opacity="1"/></linearGradient><linearGradient id="linearGradient4207" osb:paint="gradient"><stop id="stop3371" offset="0" stop-color="#3498db" stop-opacity="1"/><stop id="stop3373" offset="1" stop-color="#3498db" stop-opacity="0"/></linearGradient><linearGradient id="linearGradient4182" x1="-74.929" x2="-75.26" y1="52.199" y2="2.356" gradientTransform="matrix(1.0749904,0,0,1.0292896,56.688954,-0.01528455)" gradientUnits="userSpaceOnUse" xlink:href="#linearGradient6527"/><clipPath id="clipPath-883211809-3-2"><g id="g17-2-9" transform="translate(0,-1004.3622)"><path id="path19-9-8" fill="#1890d0" d="m -24,13 c 0,1.105 -0.672,2 -1.5,2 -0.828,0 -1.5,-0.895 -1.5,-2 0,-1.105 0.672,-2 1.5,-2 0.828,0 1.5,0.895 1.5,2 z" transform="matrix(15.333333,0,0,11.5,414.99999,878.8622)"/></g></clipPath></defs><g id="g4186" transform="translate(56.391766,-0.17677665)"><rect id="rect4162" width="44" height="7.699" x="-46.392" y="54.477" fill="#7d4224" fill-opacity="1" stroke="none" stroke-dasharray="none" stroke-dashoffset="0" stroke-linecap="round" stroke-linejoin="round" stroke-miterlimit="4" stroke-opacity="1" stroke-width=".185" opacity="1" ry="2.5"/><rect id="rect4174" width="44" height="52.832" x="-46.392" y="1.646" fill="url(#linearGradient4182)" fill-opacity="1" stroke="none" stroke-dasharray="none" stroke-dashoffset="0" stroke-linecap="round" stroke-linejoin="round" stroke-miterlimit="4" stroke-opacity="1" stroke-width=".3" opacity="1" ry="2.5"/><rect id="rect4184" width="44" height="7.912" x="-46.392" y="51.264" fill="#7d4224" fill-opacity="1" stroke="none" stroke-dasharray="none" stroke-dashoffset="0" stroke-linecap="round" stroke-linejoin="round" stroke-miterlimit="4" stroke-opacity="1" stroke-width=".185" opacity="1" ry="0"/><g id="text4161" fill="#fff" fill-opacity="1" stroke="none" stroke-linecap="butt" stroke-linejoin="miter" stroke-opacity="1" stroke-width="1" font-family="sans-serif" font-size="9.37" font-style="normal" font-weight="normal" letter-spacing="0" transform="matrix(0.81954967,0,0,0.81954967,-10.173724,5.7588093)" word-spacing="0" style="line-height:125%"><g id="g4213" transform="matrix(1.2201823,0,0,1.2201823,-115.97793,-13.101352)"><g id="g64" fill="#fff" fill-opacity="1" stroke="none" stroke-linecap="butt" stroke-linejoin="miter" stroke-opacity="1" stroke-width="1" font-family="sans-serif" font-size="9.37" font-style="normal" font-weight="normal" letter-spacing="0" transform="matrix(0.91662855,0,0,0.91676102,58.83209,10.154327)" word-spacing="0" style="line-height:125%"><g id="g66" fill="#fff" clip-path="url(#clipPath-883211809-3-2)"><g id="g68" fill="#fff"><path id="path70" fill="#fff" fill-rule="nonzero" stroke="none" d="m 15.988,14.492 c -3.766,4.04 -2.852,11.574 2.031,16.828 4.887,5.25 11.898,6.227 15.66,2.184 3.762,-4.04 2.852,-11.578 -2.035,-16.824 -4.887,-5.254 -11.898,-6.23 -15.66,-2.187 m 3.414,1.68 c 2.957,-3.18 8.219948,-2.488 11.969948,1.543 3.75,4.03 4.479921,9.875 1.518921,13.05 -2.953,3.18 -8.308869,2.488 -12.054869,-1.539 -3.75,-4.03 -4.391,-9.871 -1.438,-13.05"/><path id="path72" fill="#fff" fill-opacity="1" fill-rule="nonzero" stroke="none" d="m 30.606276,15.427414 2.216162,0 c 0.334537,0 0.606276,0.271739 0.606276,0.606276 l 0,2.216162 c 0,0.334536 -0.271739,0.606276 -0.606276,0.606276 l -2.216162,0 C 30.27174,18.856128 30,18.584388 30,18.249852 l 0,-2.216162 c 0,-0.334537 0.27174,-0.606276 0.606276,-0.606276 m 0,0"/><path id="path74" fill="#fff" fill-opacity="1" fill-rule="nonzero" stroke="none" d="m 13.216009,20.574141 4.425411,0 c 0.673602,0 1.216009,0.543385 1.216009,1.212092 l 0,4.428348 c 0,0.669686 -0.543386,1.212093 -1.216009,1.212093 l -4.425411,0 C 12.542407,27.426674 12,26.883288 12,26.214581 l 0,-4.428348 c 0,-0.669686 0.543386,-1.212092 1.216009,-1.212092 m 0,0"/><path id="path76" fill="#fff" fill-opacity="1" fill-rule="nonzero" stroke="none" d="m 31.770127,29.145183 3.318675,0 c 0.501863,0 0.912198,0.406221 0.912198,0.908084 l 0,3.32176 c 0,0.501864 -0.409306,0.908085 -0.912198,0.908085 l -3.318675,0 c -0.501863,0 -0.912198,-0.406221 -0.912198,-0.908085 l 0,-3.32176 c 0,-0.501863 0.409307,-0.908084 0.912198,-0.908084 m 0,0"/></g></g></g></g></g></g></svg>