<svg xmlns="http://www.w3.org/2000/svg" xmlns:osb="http://www.openswatchbook.org/uri/2009/osb" xmlns:svg="http://www.w3.org/2000/svg" xmlns:xlink="http://www.w3.org/1999/xlink" id="svg2" width="64" height="64" version="1.1" viewBox="0 0 64 64"><metadata id="metadata14"/><defs id="defs12"><linearGradient id="linearGradient4207" osb:paint="gradient"><stop id="stop3371" offset="0" stop-color="#3498db" stop-opacity="1"/><stop id="stop3373" offset="1" stop-color="#3498db" stop-opacity="0"/></linearGradient><linearGradient id="linearGradient4182" x1="-74.929" x2="-75.26" y1="52.199" y2="2.356" gradientTransform="matrix(1.0749904,0,0,1.0292896,56.688954,-0.01528455)" gradientUnits="userSpaceOnUse" xlink:href="#linearGradient4531-9"/><linearGradient id="linearGradient4531-9"><stop id="stop4533-5" offset="0" stop-color="#8549a0" stop-opacity="1"/><stop id="stop4535-4" offset="1" stop-color="#c16fe3" stop-opacity="1"/></linearGradient></defs><g id="g4186" transform="translate(56.391766,-0.17677665)"><rect id="rect4162" width="44" height="7.699" x="-46.392" y="54.477" fill="#3d2248" fill-opacity="1" stroke="none" stroke-dasharray="none" stroke-dashoffset="0" stroke-linecap="round" stroke-linejoin="round" stroke-miterlimit="4" stroke-opacity="1" stroke-width=".185" opacity="1" ry="2.5"/><rect id="rect4174" width="44" height="52.832" x="-46.392" y="1.646" fill="url(#linearGradient4182)" fill-opacity="1" stroke="none" stroke-dasharray="none" stroke-dashoffset="0" stroke-linecap="round" stroke-linejoin="round" stroke-miterlimit="4" stroke-opacity="1" stroke-width=".3" opacity="1" ry="2.5"/><rect id="rect4184" width="44" height="7.912" x="-46.392" y="51.264" fill="#3d2248" fill-opacity="1" stroke="none" stroke-dasharray="none" stroke-dashoffset="0" stroke-linecap="round" stroke-linejoin="round" stroke-miterlimit="4" stroke-opacity="1" stroke-width=".185" opacity="1" ry="0"/><g id="text4161" fill="#fff" fill-opacity="1" stroke="none" stroke-linecap="butt" stroke-linejoin="miter" stroke-opacity="1" stroke-width="1" font-family="sans-serif" font-size="9.37" font-style="normal" font-weight="normal" letter-spacing="0" transform="matrix(0.81954967,0,0,0.81954967,-4.6343771,10.721775)" word-spacing="0" style="line-height:125%"><g id="text4269" fill="#fff" fill-opacity="1" stroke="none" stroke-linecap="butt" stroke-linejoin="miter" stroke-opacity="1" stroke-width="1" font-family="sans-serif" font-size="13.75" font-style="normal" font-weight="normal" letter-spacing="0" word-spacing="0" style="line-height:125%"><path id="path4166" fill="#fff" fill-opacity="1" d="m -28.32127,59.374605 q -0.77,0 -1.18,-0.41 -0.4,-0.41 -0.4,-1.16 l 0,-2.57 -0.86,0 0,-0.84 0.86,0 0,-1.5 0.92,0 0,1.5 1.2,0 0,0.84 -1.2,0 0,2.5 q 0,0.8 0.66,0.8 0.25,0 0.42,-0.08 l 0.32,0.79 q -0.3,0.13 -0.74,0.13 z" font-family="Product Sans" font-size="10" font-stretch="normal" font-style="normal" font-variant="normal" font-weight="normal" style="-inkscape-font-specification:'Product Sans'"/><path id="path4168" fill="#fff" fill-opacity="1" d="m -24.744708,59.454605 q -1.11,0 -1.81,-0.74 -0.69,-0.74 -0.69,-1.87 0,-1.07 0.67,-1.84 0.68,-0.77 1.73,-0.77 1.09,0 1.74,0.71 0.66,0.71 0.66,1.9 l -0.01,0.17 -3.87,0 q 0.04,0.74 0.49,1.17 0.46,0.43 1.07,0.43 0.99,0 1.34,-0.84 l 0.82,0.34 q -0.24,0.57 -0.79,0.96 -0.55,0.38 -1.35,0.38 z m 1.32,-3.2 q -0.03,-0.42 -0.39,-0.8 -0.35,-0.38 -1.05,-0.38 -0.51,0 -0.89,0.32 -0.37,0.32 -0.51,0.86 l 2.84,0 z" font-family="Product Sans" font-size="10" font-stretch="normal" font-style="normal" font-variant="normal" font-weight="normal" style="-inkscape-font-specification:'Product Sans'"/><path id="path4170" fill="#fff" fill-opacity="1" d="m -17.630802,59.294605 -1.08,0 -1.21,-1.81 -1.19,1.81 -1.08,0 1.73,-2.49 -1.69,-2.41 1.04,0 1.21,1.73 1.15,-1.73 1.08,0 -1.71,2.41 1.75,2.49 z" font-family="Product Sans" font-size="10" font-stretch="normal" font-style="normal" font-variant="normal" font-weight="normal" style="-inkscape-font-specification:'Product Sans'"/></g></g><g id="layer1" transform="translate(-500.85463,-513.29526)"><g id="layer1-3" transform="translate(0.41988239,0.03484499)"><g id="g7381" fill="#3d2248" fill-opacity="1" transform="matrix(0.8315412,0,0,0.8315412,407.70134,516.72889)"><path id="rect4274" fill="#3d2248" fill-opacity="1" stroke="none" d="m 69.679821,15.282824 0,1.150299 0,1.1503 0,1.1503 25.306598,0 0,-1.1503 0,-1.1503 0,-1.150299 -25.306598,0 z m 9.741603,5.751499 0.03595,1.006512 6.901799,9.346187 -7.476949,9.202399 0,1.1503 16.104198,0 0,-5.751499 -1.1503,0 c 0,1.150299 0.298287,1.863522 -0.68299,2.552227 -1.075795,0.755023 -2.492547,0.898672 -3.738475,0.898672 l -5.931234,0 5.7515,-8.052099 -5.7515,-9.202399 3.379006,0 c 2.397333,0 5.809423,-0.221334 6.758012,2.660068 0.162158,0.492548 0.174857,1.423955 0.215681,1.941131 l 1.1503,0 0,-5.751499 -15.564995,0 z m -9.741603,1.1503 0,1.1503 8.0521,0 0,-1.1503 -8.0521,0 z m 0,3.4509 0,1.150299 10.352699,0 0,-1.150299 -10.352699,0 z m 0,3.450899 0,1.1503 12.653299,0 0,-1.1503 -12.653299,0 z m 0,3.4509 0,1.1503 12.653299,0 0,-1.1503 -12.653299,0 z m 0,3.4509 0,1.150299 10.352699,0 0,-1.150299 -10.352699,0 z m 0,3.450899 0,1.1503 6.9018,0 0,-1.1503 -6.9018,0 z" opacity="1"/></g></g></g></g></svg>