<svg xmlns="http://www.w3.org/2000/svg" xmlns:osb="http://www.openswatchbook.org/uri/2009/osb" xmlns:svg="http://www.w3.org/2000/svg" xmlns:xlink="http://www.w3.org/1999/xlink" id="svg2" width="64" height="64" version="1.1" viewBox="0 0 64 64"><metadata id="metadata14"/><defs id="defs12"><linearGradient id="linearGradient4244"><stop id="stop4246" offset="0" stop-color="#2daf7b" stop-opacity="1"/><stop id="stop4248" offset="1" stop-color="#44d68c" stop-opacity="1"/></linearGradient><linearGradient id="linearGradient4207" osb:paint="gradient"><stop id="stop3371" offset="0" stop-color="#3498db" stop-opacity="1"/><stop id="stop3373" offset="1" stop-color="#3498db" stop-opacity="0"/></linearGradient><linearGradient id="linearGradient4182" x1="-74.929" x2="-75.26" y1="52.199" y2="2.356" gradientTransform="matrix(1.0749904,0,0,1.0292896,56.688954,-0.01528455)" gradientUnits="userSpaceOnUse" xlink:href="#linearGradient4244"/></defs><g id="g4186" transform="translate(56.391766,-0.17677665)"><rect id="rect4162" width="44" height="7.699" x="-46.392" y="54.477" fill="#144d36" fill-opacity="1" stroke="none" stroke-dasharray="none" stroke-dashoffset="0" stroke-linecap="round" stroke-linejoin="round" stroke-miterlimit="4" stroke-opacity="1" stroke-width=".185" opacity="1" ry="2.5"/><rect id="rect4174" width="44" height="52.832" x="-46.392" y="1.646" fill="url(#linearGradient4182)" fill-opacity="1" stroke="none" stroke-dasharray="none" stroke-dashoffset="0" stroke-linecap="round" stroke-linejoin="round" stroke-miterlimit="4" stroke-opacity="1" stroke-width=".3" opacity="1" ry="2.5"/><rect id="rect4184" width="44" height="7.912" x="-46.392" y="51.264" fill="#144d36" fill-opacity="1" stroke="none" stroke-dasharray="none" stroke-dashoffset="0" stroke-linecap="round" stroke-linejoin="round" stroke-miterlimit="4" stroke-opacity="1" stroke-width=".185" opacity="1" ry="0"/><g id="text4161" fill="#fff" fill-opacity="1" stroke="none" stroke-linecap="butt" stroke-linejoin="miter" stroke-opacity="1" stroke-width="1" font-family="sans-serif" font-size="9.37" font-style="normal" font-weight="normal" letter-spacing="0" transform="matrix(0.81954967,0,0,0.81954967,-4.0342878,10.721773)" word-spacing="0" style="line-height:125%"><g id="text4269" fill="#fff" fill-opacity="1" stroke="none" stroke-linecap="butt" stroke-linejoin="miter" stroke-opacity="1" stroke-width="1" font-family="sans-serif" font-size="13.75" font-style="normal" font-weight="normal" letter-spacing="0" word-spacing="0" style="line-height:125%"><path id="path4174" fill="#fff" fill-opacity="1" d="m -30.253801,59.294537 -0.92,0 0,-4.9 0.88,0 0,0.8 0.04,0 q 0.14,-0.4 0.57,-0.66 0.44,-0.26 0.85,-0.26 0.41,0 0.69,0.12 l -0.35,0.86 q -0.18,-0.07 -0.49,-0.07 -0.5,0 -0.89,0.4 -0.38,0.39 -0.38,1.03 l 0,2.68 z" font-family="Product Sans" font-size="10" font-stretch="normal" font-style="normal" font-variant="normal" font-weight="normal" style="-inkscape-font-specification:'Product Sans'"/><path id="path4176" fill="#fff" fill-opacity="1" d="m -23.240988,59.294537 -0.88,0 0,-0.68 -0.04,0 q -0.21,0.35 -0.64,0.6 -0.43,0.24 -0.91,0.24 -0.92,0 -1.4,-0.56 -0.47,-0.56 -0.47,-1.5 l 0,-3 0.92,0 0,2.85 q 0,1.37 1.21,1.37 0.57,0 0.93,-0.46 0.36,-0.46 0.36,-1.06 l 0,-2.7 0.92,0 0,4.9 z" font-family="Product Sans" font-size="10" font-stretch="normal" font-style="normal" font-variant="normal" font-weight="normal" style="-inkscape-font-specification:'Product Sans'"/><path id="path4178" fill="#fff" fill-opacity="1" d="m -21.231301,54.394537 0,0.68 0.04,0 q 0.2,-0.35 0.63,-0.59 0.43,-0.25 0.92,-0.25 0.91,0 1.39,0.56 0.48,0.56 0.48,1.5 l 0,3 -0.92,0 0,-2.86 q 0,-1.36 -1.21,-1.36 -0.57,0 -0.93,0.46 -0.36,0.45 -0.36,1.05 l 0,2.71 -0.92,0 0,-4.9 0.88,0 z" font-family="Product Sans" font-size="10" font-stretch="normal" font-style="normal" font-variant="normal" font-weight="normal" style="-inkscape-font-specification:'Product Sans'"/></g></g><g id="layer1" transform="translate(-406.57999,-510.78916)"><g id="layer1-3" transform="translate(0.41988239,0.03484499)"><g id="layer1-8" transform="matrix(0.72249841,0,0,0.72249841,120.78241,155.36674)"><g id="g4447" transform="matrix(0.65762761,0,0,0.65762761,124.45546,178.50762)"><g id="g8460" transform="translate(0,-0.21046656)"><g id="layer1-6" transform="translate(-48.123492,9.2849703)"><g id="g4403" transform="translate(50.777056,-5.4014337)"><rect id="rect4195" width="46.303" height="34.939" x="334.234" y="512.707" fill="#144d36" fill-opacity="1" stroke="none" stroke-dasharray="none" stroke-linecap="round" stroke-linejoin="round" stroke-miterlimit="4" stroke-opacity="1" stroke-width=".2" opacity="1" ry="1.644"/></g></g><g id="chevron18" fill="#818a93" fill-opacity="1" transform="matrix(0.14062974,0,0,0.14062974,354.88951,525.3256)"><path id="path1551" fill="#39c384" fill-opacity="1" d="M 76.988,55.667 23.869,2.628 c -1.956,-2.064 -4.399,-3.096 -7.333,-3.096 -2.934,0 -5.377,1.033 -7.333,3.096 L 3.011,8.739 c -2.01,2.01 -3.015,4.453 -3.015,7.332 0,2.824 1.005,5.296 3.015,7.414 L 42.607,63 3.01,102.596 c -2.01,2.01 -3.015,4.454 -3.015,7.333 0,2.824 1.005,5.296 3.015,7.414 l 6.192,6.11 c 2.01,2.01 4.455,3.015 7.333,3.015 2.879,0 5.324,-1.005 7.333,-3.015 l 53.12,-53.039 c 2.01,-2.118 3.016,-4.59 3.016,-7.414 0,-2.879 -1.006,-5.323 -3.016,-7.333 l 0,0 z"/></g></g></g></g></g></g></g></svg>