<svg xmlns="http://www.w3.org/2000/svg" xmlns:osb="http://www.openswatchbook.org/uri/2009/osb" xmlns:svg="http://www.w3.org/2000/svg" id="svg7384" width="16" height="16" enable-background="new" version="1.1"><metadata id="metadata90"/><title id="title8473">Paper Symbolic Icon Theme</title><defs id="defs7386"><linearGradient id="linearGradient5606" osb:paint="solid"><stop id="stop5608" offset="0" stop-color="#000" stop-opacity="1"/></linearGradient><filter id="filter7554" color-interpolation-filters="sRGB"><feBlend id="feBlend7556" in2="BackgroundImage" mode="darken"/></filter><linearGradient id="linearGradient4207" osb:paint="gradient"><stop id="stop3371" offset="0" stop-color="#3498db" stop-opacity="1"/><stop id="stop3373" offset="1" stop-color="#3498db" stop-opacity="0"/></linearGradient></defs><g id="layer14" display="inline" transform="translate(-805.00043,351.03455)"><g id="g4186" transform="matrix(0.70909091,0,0,0.70909091,840.93992,-375.3736)"><g id="layer1-9" display="inline" transform="translate(-421.606,-492.32374)"><g id="layer1-3" transform="translate(0.41988239,0.03484499)"><g id="layer1-8" transform="matrix(0.72249841,0,0,0.72249841,120.78241,155.36674)"><g id="g4447" transform="matrix(0.65762761,0,0,0.65762761,124.45546,178.50762)"><g id="g8460" transform="translate(0,-0.21046656)"><g id="layer1-6" transform="translate(-48.123492,9.2849703)"><g id="g4403" transform="translate(50.777056,-5.4014337)"><rect id="rect4195" width="46.303" height="34.939" x="334.234" y="512.707" fill="#555" fill-opacity="1" stroke="none" stroke-dasharray="none" stroke-linecap="round" stroke-linejoin="round" stroke-miterlimit="4" stroke-opacity="1" stroke-width=".2" opacity="1" ry="1.644"/></g></g><g id="chevron18" fill="#818a93" fill-opacity="1" transform="matrix(0.14062974,0,0,0.14062974,354.88951,525.3256)"><path id="path1551" fill="#fff" fill-opacity="1" d="M 76.988,55.667 23.869,2.628 c -1.956,-2.064 -4.399,-3.096 -7.333,-3.096 -2.934,0 -5.377,1.033 -7.333,3.096 L 3.011,8.739 c -2.01,2.01 -3.015,4.453 -3.015,7.332 0,2.824 1.005,5.296 3.015,7.414 L 42.607,63 3.01,102.596 c -2.01,2.01 -3.015,4.454 -3.015,7.333 0,2.824 1.005,5.296 3.015,7.414 l 6.192,6.11 c 2.01,2.01 4.455,3.015 7.333,3.015 2.879,0 5.324,-1.005 7.333,-3.015 l 53.12,-53.039 c 2.01,-2.118 3.016,-4.59 3.016,-7.414 0,-2.879 -1.006,-5.323 -3.016,-7.333 l 0,0 z"/></g></g></g></g></g></g></g></g></svg>