<svg xmlns="http://www.w3.org/2000/svg" xmlns:osb="http://www.openswatchbook.org/uri/2009/osb" xmlns:svg="http://www.w3.org/2000/svg" id="svg7384" width="16" height="16" enable-background="new" version="1.1"><metadata id="metadata90"/><title id="title8473">Paper Symbolic Icon Theme</title><defs id="defs7386"><linearGradient id="linearGradient5606" osb:paint="solid"><stop id="stop5608" offset="0" stop-color="#000" stop-opacity="1"/></linearGradient><filter id="filter7554" color-interpolation-filters="sRGB"><feBlend id="feBlend7556" in2="BackgroundImage" mode="darken"/></filter><linearGradient id="linearGradient4207" osb:paint="gradient"><stop id="stop3371" offset="0" stop-color="#3498db" stop-opacity="1"/><stop id="stop3373" offset="1" stop-color="#3498db" stop-opacity="0"/></linearGradient></defs><g id="layer14" display="inline" transform="translate(-665.00063,351.00336)"><g id="g4186" transform="matrix(0.68908593,0,0,0.68908593,701.63055,-358.72053)"><g id="layer1-34" fill="#555" fill-opacity="1" display="inline" transform="translate(-515.63585,-516.83297)"><g id="layer1-3" fill="#555" fill-opacity="1" transform="translate(0.41988239,0.03484499)"><path id="Music" fill="#555" fill-opacity="1" d="m 471.11732,530.73981 c -0.76741,0.21527 -1.38522,1.07176 -1.38522,1.90367 l 0,13.19006 c -0.77819,-0.42666 -1.77761,-0.59922 -2.81376,-0.31728 -1.86973,0.50868 -3.04139,2.15267 -2.64059,3.67146 0.40079,1.51871 2.24266,2.36706 4.11239,1.85838 1.49167,-0.40583 2.5199,-1.55412 2.68388,-2.76492 l 0.0433,-12.46485 9.69662,-2.71956 0,9.83584 c -0.77819,-0.42665 -1.77762,-0.59916 -2.81374,-0.31728 -1.86976,0.50868 -3.04141,2.15268 -2.6406,3.67145 0.40079,1.51878 2.24266,2.36712 4.1124,1.85838 1.49166,-0.40578 2.51989,-1.55407 2.68388,-2.76492 l 0.0433,-16.2269 c 0,-0.62395 -0.36827,-1.09074 -0.86578,-1.17852 l -10.21608,2.76499 z"/></g></g></g></g></svg>