<svg xmlns="http://www.w3.org/2000/svg" xmlns:osb="http://www.openswatchbook.org/uri/2009/osb" xmlns:svg="http://www.w3.org/2000/svg" id="svg7384" width="16" height="16" enable-background="new" version="1.1"><metadata id="metadata90"/><title id="title8473">Paper Symbolic Icon Theme</title><defs id="defs7386"><linearGradient id="linearGradient5606" osb:paint="solid"><stop id="stop5608" offset="0" stop-color="#000" stop-opacity="1"/></linearGradient><filter id="filter7554" color-interpolation-filters="sRGB"><feBlend id="feBlend7556" in2="BackgroundImage" mode="darken"/></filter></defs><g id="layer14" display="inline" transform="translate(-687,307)"><g id="layer1-6" fill="#555" fill-opacity="1" transform="matrix(1.4328007,0,0,1.4328007,683.72685,-1795.4568)"><g id="layer1-00" fill="#555" fill-opacity="1" transform="matrix(0.98284921,0,0,0.98284921,-393.88612,519.81384)"><g id="layer1-4" fill="#555" fill-opacity="1" transform="translate(5.05585,-5.251147)"><g id="layer1-9" fill="#555" fill-opacity="1" stroke="#000" stroke-opacity=".8" transform="translate(-11.317,5.8824915)"><g id="g4187" fill="#555" fill-opacity="1" stroke="none" stroke-opacity="1" transform="matrix(0.7863692,0,0,0.78394543,93.325829,112.35451)"><path id="Documents" fill="#555" fill-opacity="1" stroke="none" stroke-opacity="1" stroke-width=".071" d="m 408.99594,530.99649 -5.24403,6.7328 c -0.98326,1.2624 -0.708,3.5111 0.5505,4.4974 1.25852,0.98629 3.50028,0.71019 4.48354,-0.55221 l 5.24403,-6.73281 0.65549,-0.8416 c 0.65551,-0.8416 0.47201,-2.34073 -0.36699,-2.99826 -0.83901,-0.65753 -2.33352,-0.47347 -2.98902,0.36814 l -0.65551,0.8416 -3.93302,5.0496 -0.6555,0.8416 c -0.32776,0.4208 -0.236,1.17037 0.1835,1.49914 0.4195,0.32875 1.16676,0.23673 1.49451,-0.18407 l 4.58852,-5.89121 0.83901,0.65753 -4.58852,5.8912 c -0.65551,0.84161 -2.15002,1.02568 -2.98902,0.36814 -0.83901,-0.65753 -1.02252,-2.15666 -0.36702,-2.99826 l 0.65551,-0.8416 4.58853,-5.8912 c 0.98325,-1.26241 3.22501,-1.5385 4.48353,-0.55221 1.25851,0.98629 1.53377,3.23499 0.55051,4.49739 l -0.6555,0.84161 -5.24403,6.73279 c -1.31102,1.68321 -4.30004,2.05135 -5.97805,0.73629 -1.67801,-1.31507 -2.04502,-4.31332 -0.73401,-5.99653 l 5.24403,-6.7328 0.83901,0.65753 0,0 z"/></g></g></g></g></g></g></svg>