<svg xmlns="http://www.w3.org/2000/svg" xmlns:osb="http://www.openswatchbook.org/uri/2009/osb" xmlns:svg="http://www.w3.org/2000/svg" xmlns:xlink="http://www.w3.org/1999/xlink" id="svg5453" width="48" height="48" version="1.1"><defs id="defs5455"><linearGradient id="linearGradient5332"><stop id="stop5334" offset="0" stop-color="#ffb900" stop-opacity="1"/><stop id="stop5336" offset="1" stop-color="#ffff02" stop-opacity="1"/></linearGradient><linearGradient id="linearGradient4749"><stop id="stop4751" offset="0" stop-color="#ff9300" stop-opacity="1"/><stop id="stop4753" offset="1" stop-color="#ffff02" stop-opacity="1"/></linearGradient><linearGradient id="linearGradient4232"><stop id="stop4234-0" offset="0" stop-color="#3889e9" stop-opacity="1"/><stop id="stop4236" offset="1" stop-color="#5ea5fb" stop-opacity="1"/></linearGradient><linearGradient id="linearGradient3426" x1="399.571" x2="399.571" y1="545.798" y2="517.798" gradientUnits="userSpaceOnUse" xlink:href="#linearGradient4232"/><linearGradient id="linearGradient4181" x1="399.994" x2="399.994" y1="545.139" y2="518.139" gradientUnits="userSpaceOnUse" xlink:href="#linearGradient4202"/><linearGradient id="linearGradient4207" osb:paint="gradient"><stop id="stop3371" offset="0" stop-color="#3498db" stop-opacity="1"/><stop id="stop3373" offset="1" stop-color="#3498db" stop-opacity="0"/></linearGradient><linearGradient id="linearGradient4747" x1="193.279" x2="167.679" y1="478.607" y2="723.229" gradientUnits="userSpaceOnUse" xlink:href="#linearGradient4749"/><linearGradient id="linearGradient4202"><stop id="stop4204" offset="0" stop-color="#c61423" stop-opacity="1"/><stop id="stop4206" offset="1" stop-color="#ff4c63" stop-opacity="1"/></linearGradient><linearGradient id="linearGradient5058" x1="407.71" x2="408.581" y1="544.537" y2="502.775" gradientUnits="userSpaceOnUse" xlink:href="#linearGradient5332"/><linearGradient id="linearGradient5081" x1="373.546" x2="370.787" y1="588.707" y2="551.628" gradientTransform="matrix(0.93137257,0,0,0.93137257,62.034279,-8.1027677)" gradientUnits="userSpaceOnUse" xlink:href="#linearGradient4202"/><linearGradient id="linearGradient5104" x1="387.414" x2="387.412" y1="586.434" y2="558.977" gradientTransform="matrix(0.91666667,0,0,0.91666667,53.443453,0.0352458)" gradientUnits="userSpaceOnUse" xlink:href="#linearGradient5332"/></defs><metadata id="metadata5458"/><g id="layer1" transform="translate(-384.57143,-499.798)"><g id="g5611"><g id="g5338" transform="translate(-0.08000146,-0.10899867)"><g id="g4471" transform="matrix(1.0931221,0,0,1.0931221,33.310366,-50.486049)"><g id="g4317" transform="matrix(1.0749621,0,0,1.0749621,-25.666825,-39.659158)"><g id="g4320" transform="matrix(0.9445804,0,0,0.9445804,18.835253,29.227482)"><g id="layer1-3" stroke="none" stroke-dasharray="none" stroke-miterlimit="4" stroke-opacity="1" stroke-width="1.3" transform="matrix(1.5444819,0,0,1.5444819,-275.17538,-295.73877)"><circle id="path3377" cx="400.571" cy="531.798" r="14" fill="url(#linearGradient4181)" fill-opacity="1" stroke="none" stroke-dasharray="none" stroke-dashoffset="0" stroke-miterlimit="4" stroke-opacity="1" stroke-width=".941" opacity="1"/><circle id="circle4174" cx="400.571" cy="531.798" r="14" fill="#5ea5fb" fill-opacity="0" stroke="none" stroke-dasharray="none" stroke-dashoffset="0" stroke-miterlimit="4" stroke-opacity="1" stroke-width="1.3" opacity="1"/><circle id="ellipse4233" cx="400.571" cy="531.798" r="0" fill="url(#linearGradient3426)" fill-opacity="1" stroke="none" stroke-dasharray="none" stroke-dashoffset="0" stroke-miterlimit="4" stroke-opacity="1" stroke-width="1.3" opacity="1"/></g></g></g></g><circle id="path4885-5-0-1" cx="408.571" cy="523.798" r="21.6" fill="url(#linearGradient5058)" fill-opacity="1" fill-rule="evenodd" stroke="none" stroke-dasharray="none" stroke-dashoffset="0" stroke-linecap="round" stroke-linejoin="round" stroke-miterlimit="4" stroke-opacity="1" stroke-width="2.6" opacity="1"/><circle id="path4885-5-3" cx="408.571" cy="523.798" r="19" fill="url(#linearGradient5081)" fill-opacity="1" fill-rule="evenodd" stroke="none" stroke-dasharray="none" stroke-dashoffset="0" stroke-linecap="round" stroke-linejoin="round" stroke-miterlimit="4" stroke-opacity="1" stroke-width="2.6" opacity="1"/><path id="path3-3" fill="url(#linearGradient5104)" fill-opacity="1" d="m 418.5208,531.78362 -0.21658,0 -8.36441,-18.1104 c -0.24643,-0.53361 -0.78058,-0.87522 -1.36831,-0.87522 -0.58773,0 -1.12188,0.34161 -1.3683,0.87522 l -8.36448,18.1104 -0.21659,0 c -0.83242,0 -1.50719,0.67476 -1.50719,1.50719 0,0.83242 0.67477,1.50719 1.50719,1.50719 l 3.46655,0 c 0.83243,0 1.50719,-0.67477 1.50719,-1.50719 0,-0.80922 -0.63813,-1.46748 -1.43838,-1.50373 l 6.41394,-13.8873 6.41394,13.8873 c -0.80024,0.0362 -1.43838,0.69451 -1.43838,1.50373 0,0.83242 0.67476,1.50719 1.50719,1.50719 l 3.46655,0 c 0.83242,0 1.50719,-0.67477 1.50719,-1.50719 0,-0.83243 -0.67469,-1.50719 -1.50712,-1.50719 z"/></g></g></g></svg>