<svg xmlns="http://www.w3.org/2000/svg" xmlns:osb="http://www.openswatchbook.org/uri/2009/osb" xmlns:svg="http://www.w3.org/2000/svg" xmlns:xlink="http://www.w3.org/1999/xlink" id="svg5453" width="48" height="48" version="1.1"><defs id="defs5455"><linearGradient id="linearGradient5061"><stop id="stop5063" offset="0" stop-color="#f15400" stop-opacity="1"/><stop id="stop5065" offset="1" stop-color="#fa8c00" stop-opacity="1"/></linearGradient><linearGradient id="linearGradient7106"><stop id="stop7108" offset="0" stop-color="#fe9501" stop-opacity="1"/><stop id="stop7110" offset="1" stop-color="#feb600" stop-opacity="1"/></linearGradient><linearGradient id="linearGradient4466" x1="23.802" x2="23.892" y1="265.837" y2="146.964" gradientUnits="userSpaceOnUse" xlink:href="#linearGradient7106"/><linearGradient id="linearGradient5059" x1="22.548" x2="21.17" y1="266.997" y2="148.123" gradientUnits="userSpaceOnUse" xlink:href="#linearGradient5061"/><linearGradient id="linearGradient4991" x1="5.234" x2="3.419" y1="206.23" y2="147.642" gradientTransform="matrix(1.0014519,3.7631821e-5,3.7631794e-5,0.95188387,0.29246943,11.945264)" gradientUnits="userSpaceOnUse" xlink:href="#linearGradient8467-5"/><linearGradient id="linearGradient4207" osb:paint="gradient"><stop id="stop3371" offset="0" stop-color="#3498db" stop-opacity="1"/><stop id="stop3373" offset="1" stop-color="#3498db" stop-opacity="0"/></linearGradient><linearGradient id="linearGradient4422"><stop id="stop4424" offset="0" stop-color="#ff9300" stop-opacity="1"/><stop id="stop4426" offset="1" stop-color="#ffd702" stop-opacity="1"/></linearGradient><linearGradient id="linearGradient4451" x1="27.255" x2="27.538" y1="266.788" y2="155.371" gradientUnits="userSpaceOnUse" xlink:href="#linearGradient4422"/><linearGradient id="linearGradient8467-5"><stop id="stop8469-7" offset="0" stop-color="#d3d3d3" stop-opacity="1"/><stop id="stop8471-0" offset="1" stop-color="#fcf9f9" stop-opacity="1"/></linearGradient><linearGradient id="linearGradient4307" x1="-.485" x2="-3.976" y1="266.767" y2="208.511" gradientUnits="userSpaceOnUse" xlink:href="#linearGradient5061"/><linearGradient id="linearGradient4309" x1="27.986" x2="27.497" y1="263.933" y2="206.292" gradientUnits="userSpaceOnUse" xlink:href="#linearGradient8467-5"/><linearGradient id="linearGradient4311" x1="28.345" x2="27.538" y1="236.009" y2="155.371" gradientUnits="userSpaceOnUse" xlink:href="#linearGradient5061"/></defs><metadata id="metadata5458"/><g id="layer1" transform="translate(-384.57143,-499.798)"><g id="g4470" transform="matrix(1.3382274,-0.31961128,0.31961128,1.3382274,-356.73681,-37.003194)"><g id="g7486" transform="matrix(0.26208427,0.02583472,-0.02583472,0.26208427,404.04667,465.90142)"><g id="g4236" transform="matrix(0.98797581,0.13461765,-0.13501288,0.99084384,25.550446,-23.969633)"><g id="g5130" transform="matrix(1.080707,0,0,1.080707,160.14549,-15.529907)"><g id="g4198" transform="matrix(1.0444445,0,0,1.0444445,-2.1594817,-11.708972)"><g id="g5622"><path id="path4271-0" fill="url(#linearGradient4991)" fill-opacity="1" fill-rule="evenodd" stroke="none" stroke-linecap="butt" stroke-linejoin="miter" stroke-opacity="1" stroke-width="2.764" d="m -23.525211,154.66937 47.828584,0.0363 -0.0419,55.16792 -55.437374,-0.0422 0.0365,-48.05392 c 0.006,-7.63847 7.21097,-7.10853 7.61419,-7.10821 z" opacity="1"/><g id="g4440" fill="url(#linearGradient4451)" fill-opacity="1"><path id="path4271" fill="url(#linearGradient4307)" fill-opacity="1" fill-rule="evenodd" stroke="none" stroke-linecap="butt" stroke-linejoin="miter" stroke-opacity="1" stroke-width="2.764" d="m -23.87675,265.80577 47.759246,0.0362 0.044,-57.95657 -55.356996,-0.042 -0.03833,50.48297 c -0.0061,8.02458 7.189449,7.47907 7.59208,7.47936 z" opacity="1" transform="matrix(1.0014519,3.7631819e-5,3.7631809e-5,0.95188386,0.03653067,11.689948)"/><path id="path4271-0-9" fill="url(#linearGradient4311)" fill-opacity="1" fill-rule="evenodd" stroke="none" stroke-linecap="butt" stroke-linejoin="miter" stroke-opacity="1" stroke-width="2.764" d="m 71.568966,150.27986 -47.759241,-0.0362 -0.044,57.95657 55.356991,0.042 0.03835,-50.48297 c 0.0062,-8.02458 -7.189452,-7.47907 -7.592072,-7.47936 z" opacity="1" transform="matrix(1.0014519,3.7631819e-5,3.7631809e-5,0.95188386,0.03653067,11.689948)"/><path id="path4271-4" fill="url(#linearGradient4309)" fill-opacity="1" fill-rule="evenodd" stroke="none" stroke-linecap="butt" stroke-linejoin="miter" stroke-opacity="1" stroke-width="2.764" d="m 71.368015,265.8766 -47.75924,-0.0363 0.044,-57.95657 55.35699,0.0421 -0.0383,50.48297 c -0.006,8.02458 -7.2008,7.46814 -7.60343,7.46782 z" opacity="1" transform="matrix(1.0014519,3.7631819e-5,3.7631809e-5,0.95188386,0.03653067,11.689948)"/></g><g id="text5594" fill="#000" fill-opacity=".81" stroke="none" stroke-linecap="butt" stroke-linejoin="miter" stroke-opacity="1" stroke-width="1" font-family="sans-serif" font-size="61.215" font-style="normal" font-weight="normal" letter-spacing="0" transform="matrix(0.68670879,5.2134611e-4,-5.1983668e-4,0.68472069,46.151769,65.234352)" word-spacing="0" style="line-height:125%"><path style="-inkscape-font-specification:'Product Sans'" id="path5620" fill="#000" fill-opacity=".81" d="m -58.92517,192.33365 -26.689856,0 0,-5.63181 q 11.998192,-12.0594 15.365032,-15.73232 2.999548,-3.36684 4.040208,-5.08087 1.040659,-1.77524 1.040659,-4.34628 0,-2.63226 -2.081319,-4.65236 -2.081319,-2.0201 -5.570589,-2.0201 -3.183194,0 -5.142083,1.89767 -1.958888,1.83646 -2.509826,3.97899 l -5.142082,-2.08132 q 1.040659,-3.30562 4.346284,-6.24396 3.305624,-2.93833 8.570137,-2.93833 5.815451,0 9.549582,3.55049 3.734131,3.55048 3.734131,8.50892 0,6.12153 -6.672464,13.10007 l -12.243053,12.30427 19.405239,0 0,5.38694 z" font-family="Product Sans" font-stretch="normal" font-style="normal" font-variant="normal" font-weight="normal"/></g><g id="text5598" fill="#000" fill-opacity=".81" stroke="none" stroke-linecap="butt" stroke-linejoin="miter" stroke-opacity="1" stroke-width="1" font-family="sans-serif" font-size="61.215" font-style="normal" font-weight="normal" letter-spacing="0" transform="matrix(0.67136342,5.0969597e-4,-5.0822027e-4,0.66941974,111.04414,94.354336)" word-spacing="0" style="line-height:125%"><path style="-inkscape-font-specification:'Product Sans'" id="path5617" fill="#fff" fill-opacity=".81" d="m -77.159319,146.99794 q -4.652361,6.30517 -12.181839,6.30517 -7.529477,0 -12.181842,-6.30517 -4.65236,-6.30517 -4.65236,-15.60989 0,-9.36594 4.65236,-15.6099 4.652365,-6.30517 12.181842,-6.30517 7.529478,0 12.181839,6.30517 4.65236,6.24396 4.65236,15.6099 0,9.30472 -4.65236,15.60989 z m -12.181839,0.91823 q 5.019652,0 8.0192,-4.71358 3.060764,-4.71357 3.060764,-11.81454 0,-7.16219 -3.060764,-11.81455 -2.999548,-4.71357 -8.0192,-4.71357 -5.080867,0 -8.080415,4.71357 -2.999547,4.65236 -2.999547,11.81455 0,7.10097 2.999547,11.81454 2.999548,4.71358 8.080415,4.71358 z" font-family="Product Sans" font-stretch="normal" font-style="normal" font-variant="normal" font-weight="normal"/></g><g id="text5602" fill="#000" fill-opacity=".81" stroke="none" stroke-linecap="butt" stroke-linejoin="miter" stroke-opacity="1" stroke-width="1" font-family="sans-serif" font-size="61.215" font-style="normal" font-weight="normal" letter-spacing="0" transform="matrix(0.70277226,5.3354141e-4,-5.3199668e-4,0.70073765,-2.0004334,173.8051)" word-spacing="0" style="line-height:125%"><path style="-inkscape-font-specification:'Product Sans'" id="path5614" fill="#fff" fill-opacity=".81" d="m 7.1285029,111.24677 -5.6318046,0 0,-8.815 -19.8949623,0 0,-4.285064 19.4052401,-28.771176 6.1215268,0 0,27.791731 5.3869431,0 0,5.264509 -5.3869431,0 0,8.815 z m -5.6318046,-14.079509 0,-19.52767 -0.2448611,0 -13.2837132,19.52767 13.5285743,0 z" font-family="Product Sans" font-stretch="normal" font-style="normal" font-variant="normal" font-weight="normal"/></g><g id="text5606" fill="#000" fill-opacity=".81" stroke="none" stroke-linecap="butt" stroke-linejoin="miter" stroke-opacity="1" stroke-width="1" font-family="sans-serif" font-size="61.215" font-style="normal" font-weight="normal" letter-spacing="0" transform="matrix(0.67136346,5.09696e-4,-5.082203e-4,0.66941978,-28.241749,167.68571)" word-spacing="0" style="line-height:125%"><path style="-inkscape-font-specification:'Product Sans'" id="path5611" fill="#000" fill-opacity=".81" d="m 128.068,121.95116 q -4.10142,3.6117 -10.10051,3.6117 -5.9991,0 -10.10052,-3.6117 -4.10143,-3.6117 -4.10143,-8.93743 0,-3.48927 1.89768,-6.12152 1.89767,-2.69347 4.95843,-4.22386 l 0,-0.24486 q -2.38739,-1.53038 -3.91777,-3.856559 -1.53039,-2.387395 -1.53039,-4.958436 0,-5.080868 3.61171,-8.447707 3.6117,-3.428055 9.18229,-3.428055 5.57058,0 9.18229,3.428055 3.6117,3.366839 3.6117,8.447707 0,2.571041 -1.53039,4.958436 -1.53038,2.326179 -3.91777,3.856559 l 0,0.24486 q 3.06076,1.53039 4.95843,4.22386 1.89768,2.63225 1.89768,6.12152 0,5.32573 -4.10143,8.93743 z M 112.88662,98.260855 q 2.0201,1.775245 5.08087,1.775245 3.06076,0 5.01965,-1.775245 2.0201,-1.836458 2.0201,-4.774791 0,-2.938333 -2.0201,-4.65236 -1.95889,-1.714028 -5.01965,-1.714028 -3.06077,0 -5.08087,1.714028 -1.95889,1.714027 -1.95889,4.65236 0,2.938333 1.95889,4.774791 z m -0.91823,19.833745 q 2.44861,2.08132 5.9991,2.08132 3.55048,0 5.99909,-2.08132 2.44861,-2.08132 2.44861,-5.38694 0,-3.24441 -2.44861,-5.32573 -2.44861,-2.08132 -5.99909,-2.08132 -3.55049,0 -5.9991,2.08132 -2.44861,2.08132 -2.44861,5.32573 0,3.30562 2.44861,5.38694 z" font-family="Product Sans" font-stretch="normal" font-style="normal" font-variant="normal" font-weight="normal"/></g></g></g></g></g></g></g></g></svg>