<svg xmlns="http://www.w3.org/2000/svg" xmlns:svg="http://www.w3.org/2000/svg" xmlns:xlink="http://www.w3.org/1999/xlink" id="svg5453" width="48" height="48" version="1.1"><defs id="defs5455"><linearGradient id="linearGradient4422"><stop id="stop4424" offset="0" stop-color="#197ff1" stop-opacity="1"/><stop id="stop4426" offset="1" stop-color="#21c6fb" stop-opacity="1"/></linearGradient><linearGradient id="linearGradient4232"><stop id="stop4234-0" offset="0" stop-color="#3889e9" stop-opacity="1"/><stop id="stop4236" offset="1" stop-color="#5ea5fb" stop-opacity="1"/></linearGradient><linearGradient id="linearGradient3426" x1="399.571" x2="399.571" y1="545.798" y2="517.798" gradientUnits="userSpaceOnUse" xlink:href="#linearGradient4232"/><linearGradient id="linearGradient4181" x1="399.994" x2="399.994" y1="545.139" y2="518.139" gradientUnits="userSpaceOnUse" xlink:href="#linearGradient4422"/></defs><metadata id="metadata5458"/><g id="layer1" transform="translate(-384.57143,-499.798)"><g id="g4238" display="inline" transform="translate(225.81911,462.44565)"><g id="layer1-8" display="inline" transform="matrix(0.22655187,0,0,0.22655187,106.94841,54.31088)"><g id="g4370" transform="matrix(4.4140002,0,0,4.4140002,59.275211,39.357303)"><g id="g4182" transform="matrix(1.6428571,0,0,1.6428571,-26.955355,-11.937516)"><g id="layer1-1" display="inline" transform="translate(-346.19643,-525.67299)"><g id="layer1-9" transform="matrix(0.87499998,0,0,0.87499998,50.025937,66.450093)"><g id="g4284" transform="matrix(1.1428581,0,0,1.1428581,-57.327415,-75.995025)"><g id="layer1-3" stroke="none" stroke-dasharray="none" stroke-miterlimit="4" stroke-opacity="1" stroke-width="1.3" transform="translate(0.13524268,0.04517549)"><circle id="path3377" cx="400.571" cy="531.798" r="14" fill="url(#linearGradient4181)" fill-opacity="1" stroke="none" stroke-dasharray="none" stroke-dashoffset="0" stroke-miterlimit="4" stroke-opacity="1" stroke-width="1.3" opacity="1"/><circle id="circle4174" cx="400.571" cy="531.798" r="14" fill="#5ea5fb" fill-opacity="0" stroke="none" stroke-dasharray="none" stroke-dashoffset="0" stroke-miterlimit="4" stroke-opacity="1" stroke-width="1.3" opacity="1"/><circle id="ellipse4233" cx="400.571" cy="531.798" r="0" fill="url(#linearGradient3426)" fill-opacity="1" stroke="none" stroke-dasharray="none" stroke-dashoffset="0" stroke-miterlimit="4" stroke-opacity="1" stroke-width="1.3" opacity="1"/></g></g></g></g><path id="path6668" fill="#fff" fill-opacity=".852" stroke="none" d="m 56.311671,0.45712184 c 0,1.01133336 -0.828432,1.83212546 -1.849178,1.83212546 -1.020749,0 -1.84918,-0.8207921 -1.84918,-1.83212546 0,-1.01133169 0.828431,-1.83212464 1.84918,-1.83212464 1.020746,0 1.849178,0.82079295 1.849178,1.83212464 z m 4.615295,1.94814386 c -0.08553,0.013727 -0.166343,0.047149 -0.235608,0.097499 L 54.374806,3.4786813 48.092274,2.489305 C 47.929871,2.3726024 47.701539,2.3376554 47.520071,2.424302 c -0.181466,0.086644 -0.30043,0.2920033 -0.302931,0.4874171 -0.0023,0.1954407 0.123719,0.363988 0.302931,0.4549286 l 4.922978,1.5473045 -0.03367,3.5520882 -1.737119,5.3198866 c -0.167306,0.242246 -0.116307,0.553358 0.134637,0.714858 0.250961,0.161522 0.606847,0.112306 0.774171,-0.12996 l 2.80336,-5.7422993 2.750444,5.7323753 c 0.148725,0.251261 0.480249,0.338544 0.740505,0.19497 0.260256,-0.143569 0.350676,-0.463618 0.201956,-0.714881 L 56.372462,8.4982167 56.305155,5.154166 61.297207,3.3476196 C 61.498902,3.2110691 61.586526,2.9525632 61.499167,2.7302315 61.411799,2.5078754 61.171706,2.3783276 60.926951,2.40527 l 1.8e-5,0 z" display="inline" enable-background="new"/></g></g></g></g></g></svg>