<svg xmlns="http://www.w3.org/2000/svg" xmlns:svg="http://www.w3.org/2000/svg" xmlns:xlink="http://www.w3.org/1999/xlink" id="svg5453" width="48" height="48" version="1.1"><defs id="defs5455"><linearGradient id="linearGradient4350"><stop id="stop4352" offset="0" stop-color="#f0a23a" stop-opacity="1"/><stop id="stop4354" offset="1" stop-color="#fde46a" stop-opacity="1"/></linearGradient><linearGradient id="linearGradient4309"><stop id="stop4311" offset="0" stop-color="#ffee97" stop-opacity="1"/><stop id="stop4313" offset="1" stop-color="#ffe76b" stop-opacity="1"/></linearGradient><linearGradient id="linearGradient4237-0"><stop id="stop4239-8" offset="0" stop-color="#fed45b" stop-opacity="1"/><stop id="stop4241-9" offset="1" stop-color="#ffcc54" stop-opacity="1"/></linearGradient><linearGradient id="linearGradient4315" x1="859.999" x2="842.729" y1="525.969" y2="507.215" gradientUnits="userSpaceOnUse" xlink:href="#linearGradient4309"/><linearGradient id="linearGradient4348" x1="858.806" x2="860.022" y1="529.209" y2="517.047" gradientTransform="translate(0,0.27058258)" gradientUnits="userSpaceOnUse" xlink:href="#linearGradient4237-0"/><linearGradient id="linearGradient4356" x1="859.237" x2="864.142" y1="526.265" y2="531.152" gradientUnits="userSpaceOnUse" xlink:href="#linearGradient4350"/></defs><metadata id="metadata5458"/><g id="layer1" transform="translate(-384.57143,-499.798)"><g id="layer1-75" transform="translate(-45.094638,-4.5941823)"><g id="g4816" transform="translate(49.044051,-24.616705)"><g id="g5112" transform="translate(45.121104,5.0503102)"><g id="g4581" transform="matrix(0.73914669,0,0,0.73914669,145.33197,144.69716)"><g id="g4325" transform="matrix(1.1428571,0,0,1.1428571,-41.401542,-77.999265)"><g id="g4698" transform="matrix(1.6168609,0,0,1.6168609,-1083.4999,-289.40898)"><rect id="rect4303" width="35.035" height="34.793" x="831.905" y="499.127" fill="url(#linearGradient4356)" fill-opacity="1" stroke="none" stroke-dasharray="none" stroke-dashoffset="0" stroke-linecap="round" stroke-linejoin="round" stroke-miterlimit="4" stroke-opacity="1" stroke-width="1.5" opacity="1" ry="1.5"/><path id="path4305" fill="url(#linearGradient4315)" fill-opacity="1" fill-rule="evenodd" stroke="none" stroke-linecap="butt" stroke-linejoin="miter" stroke-opacity="1" stroke-width="1.353" d="m 831.79963,501.31463 0,30.90945 c 0,0 0.29172,1.72327 2.04543,1.72327 l 13.00006,0 c 11.6503,-2.05695 18.5526,-8.41046 20.0815,-19.6253 l 0,-13.37555 c 0.0839,-1.86568 -1.56253,-1.95162 -1.56253,-1.95162 l -31.39741,0.10959 c -2.33705,-0.16082 -2.16705,2.21016 -2.16705,2.21016 z" opacity="1"/><path id="path4307" fill="url(#linearGradient4348)" fill-opacity="1" fill-rule="evenodd" stroke="none" stroke-dasharray="none" stroke-linecap="butt" stroke-linejoin="miter" stroke-miterlimit="4" stroke-opacity="1" stroke-width=".406" d="m 846.06743,534.25446 c 6.65638,-1.38481 10.15878,-5.0846 12.41635,-9.50949 5.99429,-1.74052 7.52638,-6.27185 8.40235,-11.21401 0.12844,12.62171 -9.62351,18.83447 -20.8187,20.7235 z" opacity=".9"/><g id="g4679" fill="#e8923a" fill-opacity="1" stroke="#cb8034" stroke-dasharray="none" stroke-miterlimit="4" stroke-opacity="1" stroke-width="4.248" opacity=".7" transform="matrix(0.04151878,0.00413984,-0.00413984,0.04151878,840.44617,505.53618)"><g id="g4639" fill="#e8923a" fill-opacity="1" stroke="#cb8034" stroke-dasharray="none" stroke-miterlimit="4" stroke-opacity="1" stroke-width="4.248"><path id="path4641" fill="#e8923a" fill-opacity="1" stroke="#cb8034" stroke-dasharray="none" stroke-miterlimit="4" stroke-opacity="1" stroke-width="4.248" d="M 462.5,96.193 440.774,74.467 c -8.951,-8.95 -23.562,-8.95 -32.59,0 L 180.368,302.361 61.028,183.021 c -8.95,-8.951 -23.562,-8.951 -32.589,0 L 6.712,204.747 c -8.95,8.951 -8.95,23.562 0,32.589 L 163.997,394.62 c 4.514,4.514 10.327,6.809 16.218,6.809 5.891,0 11.781,-2.295 16.219,-6.809 L 462.27,128.783 c 9.18,-9.103 9.18,-23.638 0.23,-32.59 z"/></g></g></g></g></g></g></g></g></g></svg>