<svg xmlns="http://www.w3.org/2000/svg" xmlns:svg="http://www.w3.org/2000/svg" xmlns:xlink="http://www.w3.org/1999/xlink" id="svg4242" width="48" height="48" version="1.1" viewBox="0 0 48 48"><defs id="defs4244"><linearGradient id="linearGradient4311"><stop id="stop4313" offset="0" stop-color="#79a4cb" stop-opacity="1"/><stop id="stop4315" offset="1" stop-color="#98ceff" stop-opacity="1"/></linearGradient><linearGradient id="linearGradient4288"><stop id="stop4290" offset="0" stop-color="#587ea7" stop-opacity="1"/><stop id="stop4292" offset="1" stop-color="#7db2eb" stop-opacity="1"/></linearGradient><linearGradient id="linearGradient4489" x1="413.919" x2="414.629" y1="524.019" y2="502.844" gradientTransform="translate(-384.57144,504.56422)" gradientUnits="userSpaceOnUse" xlink:href="#linearGradient4333"/><linearGradient id="linearGradient4333"><stop id="stop4335" offset="0" stop-color="#85cfd6" stop-opacity="1"/><stop id="stop4337" offset="1" stop-color="#daedff" stop-opacity="1"/></linearGradient><linearGradient id="linearGradient8311-06"><stop id="stop8313-6" offset="0" stop-color="#a9a3d4" stop-opacity="1"/><stop id="stop4462" offset=".47" stop-color="#87baff" stop-opacity="1"/><stop id="stop8315-2" offset="1" stop-color="#89ec85" stop-opacity="1"/></linearGradient><linearGradient id="linearGradient4460" x1="0" x2="47" y1="23.5" y2="23.5" gradientUnits="userSpaceOnUse" xlink:href="#linearGradient8311-06"/><clipPath id="clipPath4186" clipPathUnits="userSpaceOnUse"><circle id="path4188" cx="286" cy="26" r="10" fill="url(#linearGradient4190)" color="#000"/></clipPath><linearGradient id="linearGradient4294" x1="82.216" x2="82.872" y1="48.41" y2="16.937" gradientTransform="matrix(1.0202105,0,0,1.0202105,-59.261579,1002.4886)" gradientUnits="userSpaceOnUse" xlink:href="#linearGradient4288"/><linearGradient id="linearGradient4317" x1="83.148" x2="59.914" y1="48.459" y2="1.333" gradientTransform="matrix(1.0424899,0,0,1.0424899,-59.802637,1001.3049)" gradientUnits="userSpaceOnUse" xlink:href="#linearGradient4311"/></defs><metadata id="metadata4247"/><g id="layer1" transform="translate(0,-1004.3622)"><circle id="path4240" cx="286" cy="26" r="10" stroke-width=".455" clip-path="url(#clipPath4186)" color="#000" opacity="0" transform="matrix(2,0,0,2,-604.90584,975.4782)"/><circle id="path4242" cx="286" cy="26" r="10" stroke-width=".909" clip-path="url(#clipPath4186)" color="#000" opacity="0" transform="matrix(2,0,0,2,-604.90584,975.4782)"/><g id="g4332" transform="matrix(0.96610092,0,0,0.96610092,0.28656495,34.422365)"><g id="g4323" transform="matrix(0.98959538,0,0,0.98959538,0.66409747,10.619561)"><g id="g4319"><g id="g4413" transform="matrix(1.1800816,0,0,1.1800816,-3.8308285,-185.02547)"><circle id="path4173" cx="24" cy="1028.362" r="20" fill="url(#linearGradient4489)" fill-opacity="1" stroke="none" stroke-dasharray="none" stroke-linecap="butt" stroke-linejoin="round" stroke-miterlimit="4" stroke-opacity="1" stroke-width=".5" opacity="1"/></g></g></g><path id="path4397-2" fill="url(#linearGradient4317)" fill-opacity="1" d="m 35.370129,1047.4336 c -11.323052,6.5381 -25.803648,2.6578 -32.340539,-8.6652 -6.538137,-11.3243 -2.658369,-25.8037 8.665181,-32.3418 13.342933,-0.061 21.814973,28.7705 23.675358,41.007 z" color="#000"/><path id="circle4394-7" fill="url(#linearGradient4294)" fill-opacity="1" d="m 49.537718,1027.6486 c 0,13.6917 -11.100282,24.792 -24.791987,24.792 -13.691706,0 -24.791995,-11.1003 -24.791995,-24.792 6.930407,-12.1323 37.512899,-4.7193 49.583982,0 z" color="#000"/></g></g></svg>