<svg xmlns="http://www.w3.org/2000/svg" xmlns:svg="http://www.w3.org/2000/svg" xmlns:xlink="http://www.w3.org/1999/xlink" id="svg5453" width="48" height="48" version="1.1"><defs id="defs5455"><linearGradient id="linearGradient4422"><stop id="stop4424" offset="0" stop-color="#f15f19" stop-opacity="1"/><stop id="stop4426" offset="1" stop-color="#fbb521" stop-opacity="1"/></linearGradient><linearGradient id="linearGradient4232"><stop id="stop4234-0" offset="0" stop-color="#3889e9" stop-opacity="1"/><stop id="stop4236" offset="1" stop-color="#5ea5fb" stop-opacity="1"/></linearGradient><linearGradient id="linearGradient3426" x1="399.571" x2="399.571" y1="545.798" y2="517.798" gradientUnits="userSpaceOnUse" xlink:href="#linearGradient4232"/><linearGradient id="linearGradient4181" x1="399.994" x2="399.994" y1="545.139" y2="518.139" gradientUnits="userSpaceOnUse" xlink:href="#linearGradient4422"/></defs><metadata id="metadata5458"/><g id="layer1" transform="translate(-384.57143,-499.798)"><g id="g4471" transform="matrix(1.0931221,0,0,1.0931221,33.310366,-50.486049)"><g id="g4317" transform="matrix(1.0749621,0,0,1.0749621,-25.666825,-39.659158)"><g id="g4320" transform="matrix(0.9445804,0,0,0.9445804,18.835253,29.227482)"><g id="layer1-3" stroke="none" stroke-dasharray="none" stroke-miterlimit="4" stroke-opacity="1" stroke-width="1.3" transform="matrix(1.5444819,0,0,1.5444819,-275.17538,-295.73877)"><circle id="path3377" cx="400.571" cy="531.798" r="14" fill="url(#linearGradient4181)" fill-opacity="1" stroke="none" stroke-dasharray="none" stroke-dashoffset="0" stroke-miterlimit="4" stroke-opacity="1" stroke-width=".941" opacity="1"/><circle id="circle4174" cx="400.571" cy="531.798" r="14" fill="#5ea5fb" fill-opacity="0" stroke="none" stroke-dasharray="none" stroke-dashoffset="0" stroke-miterlimit="4" stroke-opacity="1" stroke-width="1.3" opacity="1"/><circle id="ellipse4233" cx="400.571" cy="531.798" r="0" fill="url(#linearGradient3426)" fill-opacity="1" stroke="none" stroke-dasharray="none" stroke-dashoffset="0" stroke-miterlimit="4" stroke-opacity="1" stroke-width="1.3" opacity="1"/></g></g><g id="g4347" fill="#692c0b" fill-opacity="1" transform="matrix(0.03654726,0,0,0.03654726,333.61054,515.50588)"><g id="g4305" fill="#692c0b" fill-opacity="1"><g id="g4307" fill="#692c0b" fill-opacity="1"><path id="path4309" fill="#692c0b" fill-opacity="1" d="m 53.244,0.002 c 46.512,0 91.29,6.018 134.334,18.054 43.044,12.036 83.334,29.07 120.869,51.102 37.537,22.032 71.707,48.45 102.514,79.254 30.803,30.804 57.221,64.974 79.254,102.51 22.029,37.539 39.063,77.828 51.102,120.873 12.037,43.043 18.055,87.818 18.055,134.334 0,14.688 -5.201,27.23 -15.605,37.637 -10.404,10.407 -22.949,15.604 -37.637,15.604 -14.689,0 -27.234,-5.199 -37.641,-15.604 -10.402,-10.404 -15.604,-22.949 -15.604,-37.637 0,-36.723 -4.795,-72.115 -14.383,-106.186 -9.588,-34.064 -23.055,-65.891 -40.395,-95.471 -17.34,-29.581 -38.145,-56.509 -62.424,-80.785 -24.277,-24.276 -51.203,-45.084 -80.784,-62.424 -29.58,-17.34 -61.404,-30.804 -95.472,-40.392 -34.068,-9.588 -69.462,-14.382 -106.182,-14.382 -14.688,0 -27.234,-5.202 -37.638,-15.606 C 5.203,80.479 0.001,67.933 0.001,53.245 0.001,38.557 5.203,26.011 15.607,15.607 26.01,5.204 38.556,0.002 53.244,0.002 Z m 0,201.348 c 42.024,0 81.498,8.058 118.422,24.174 36.924,16.116 69.156,37.944 96.696,65.484 27.541,27.541 49.369,59.771 65.484,96.693 16.117,36.928 24.174,76.398 24.174,118.426 0,14.688 -5.201,27.23 -15.604,37.637 -10.404,10.404 -22.949,15.604 -37.641,15.604 -14.688,0 -27.233,-5.199 -37.637,-15.604 -10.404,-10.404 -15.606,-22.949 -15.606,-37.637 0,-27.338 -5.202,-53.041 -15.606,-77.113 C 225.522,404.942 211.344,383.93 193.392,365.979 175.44,348.026 154.428,333.848 130.356,323.444 106.284,313.042 80.58,307.84 53.244,307.84 38.556,307.84 26.01,302.639 15.606,292.235 5.202,281.83 0,269.284 0,254.596 0,239.908 5.202,227.362 15.606,216.958 26.01,206.552 38.556,201.35 53.244,201.35 Z m 97.92,279.683 c 0,10.609 -1.938,20.4 -5.814,29.377 -3.876,8.979 -9.18,16.83 -15.912,23.563 -6.732,6.729 -14.688,12.035 -23.868,15.912 -9.18,3.875 -18.87,5.811 -29.07,5.811 -10.608,0 -20.4,-1.938 -29.376,-5.811 C 38.148,546.01 30.294,540.701 23.562,533.973 16.83,527.241 11.526,519.387 7.65,510.41 3.774,501.433 1.836,491.642 1.836,481.033 c 0,-10.197 1.938,-19.889 5.814,-29.066 3.876,-9.184 9.18,-17.139 15.912,-23.869 6.732,-6.732 14.586,-12.035 23.562,-15.912 8.976,-3.875 18.768,-5.814 29.376,-5.814 10.2,0 19.89,1.939 29.07,5.814 9.18,3.877 17.136,9.18 23.868,15.912 6.732,6.73 12.036,14.688 15.912,23.869 3.876,9.178 5.814,18.867 5.814,29.066 z"/></g></g></g></g></g></g></svg>