<svg xmlns="http://www.w3.org/2000/svg" xmlns:svg="http://www.w3.org/2000/svg" xmlns:xlink="http://www.w3.org/1999/xlink" id="svg5453" width="48" height="48" version="1.1"><defs id="defs5455"><linearGradient id="linearGradient4422"><stop id="stop4424" offset="0" stop-color="#30cf41" stop-opacity="1"/><stop id="stop4426" offset="1" stop-color="#47f383" stop-opacity="1"/></linearGradient><linearGradient id="linearGradient4232"><stop id="stop4234-0" offset="0" stop-color="#3889e9" stop-opacity="1"/><stop id="stop4236" offset="1" stop-color="#5ea5fb" stop-opacity="1"/></linearGradient><linearGradient id="linearGradient3426" x1="399.571" x2="399.571" y1="545.798" y2="517.798" gradientUnits="userSpaceOnUse" xlink:href="#linearGradient4232"/><linearGradient id="linearGradient4181" x1="399.994" x2="399.994" y1="545.139" y2="518.139" gradientUnits="userSpaceOnUse" xlink:href="#linearGradient4422"/></defs><metadata id="metadata5458"/><g id="layer1" transform="translate(-384.57143,-499.798)"><g id="g4471" transform="matrix(1.0931221,0,0,1.0931221,33.310366,-50.486049)"><g id="g4322" transform="matrix(1.0320907,0,0,1.0320907,-11.164043,-16.90606)"><g id="g4320" stroke="none" transform="matrix(0.98381885,0,0,0.98381885,5.5651187,8.3948576)"><g id="layer1-3" stroke="none" stroke-dasharray="none" stroke-miterlimit="4" stroke-opacity="1" stroke-width="1.3" transform="matrix(1.5444819,0,0,1.5444819,-275.17538,-295.73877)"><circle id="path3377" cx="400.571" cy="531.798" r="14" fill="url(#linearGradient4181)" fill-opacity="1" stroke="none" stroke-dasharray="none" stroke-dashoffset="0" stroke-miterlimit="4" stroke-opacity="1" stroke-width=".941" opacity="1"/><circle id="ellipse4233" cx="400.571" cy="531.798" r="0" fill="url(#linearGradient3426)" fill-opacity="1" stroke="none" stroke-dasharray="none" stroke-dashoffset="0" stroke-miterlimit="4" stroke-opacity="1" stroke-width="1.3" opacity="1"/></g></g></g><g id="g3" fill="#195c28" fill-opacity="1" transform="matrix(0.04783325,0,0,0.04783325,328.65591,511.91358)"><path id="path5" fill="#195c28" fill-opacity="1" d="M 64.601,236.822 C 64.601,394.256 192.786,612 306.001,612 412.582,612 547.4,394.256 547.4,236.822 547.4,79.388 439.322,0 306,0 172.678,0 64.601,79.388 64.601,236.822 Z m 304.12,116.415 c 29.475,-29.475 70.598,-40.195 108.552,-32.173 8.021,37.954 -2.698,79.077 -32.173,108.552 -29.475,29.475 -70.598,40.195 -108.552,32.173 -8.022,-37.955 2.698,-79.078 32.173,-108.552 z M 134.727,321.063 c 37.954,-8.021 79.077,2.698 108.552,32.173 29.475,29.475 40.195,70.598 32.173,108.552 -37.954,8.021 -79.077,-2.698 -108.552,-32.173 -29.475,-29.476 -40.194,-70.598 -32.173,-108.552 z"/></g></g></g></svg>