<svg xmlns="http://www.w3.org/2000/svg" xmlns:svg="http://www.w3.org/2000/svg" xmlns:xlink="http://www.w3.org/1999/xlink" id="svg5453" width="48" height="48" version="1.1"><defs id="defs5455"><linearGradient id="linearGradient6229"><stop id="stop6231" offset="0" stop-color="#f2b333" stop-opacity="1"/><stop id="stop6233" offset="1" stop-color="#fcde3f" stop-opacity="1"/></linearGradient><linearGradient id="linearGradient3776"><stop id="stop3778" offset="0" stop-color="#e7f0f4" stop-opacity="1"/><stop id="stop3780" offset="1" stop-color="#f4faff" stop-opacity="1"/></linearGradient><linearGradient id="linearGradient6227" x1="-989.666" x2="-1003.636" y1="433.284" y2="317.355" gradientTransform="matrix(0.9997764,0,0,0.9863347,-0.83288226,5.9958688)" gradientUnits="userSpaceOnUse" xlink:href="#linearGradient6229"/><linearGradient id="linearGradient6235" x1="-1092.912" x2="-1060.255" y1="203.099" y2="104.853" gradientTransform="matrix(0.99833895,0,0,0.98513314,-2.169195,6.7017171)" gradientUnits="userSpaceOnUse" xlink:href="#linearGradient4294-8"/><linearGradient id="linearGradient4294-8"><stop id="stop4296-9" offset="0" stop-color="#e53838" stop-opacity="1"/><stop id="stop4298-4" offset="1" stop-color="#f77" stop-opacity="1"/></linearGradient></defs><metadata id="metadata5458"/><g id="layer1" transform="translate(-384.57143,-499.798)"><g id="g4779" transform="matrix(1.0428149,-0.13520447,0.13520447,1.0428149,-137.47144,45.714952)"><g id="g4903" transform="matrix(1.0300127,0,0,1.0300127,-13.194705,-14.404024)"><g id="g4541" transform="matrix(0.32603906,0.04227207,-0.04227207,0.32603906,784.98887,393.98281)"><rect id="rect6189-3" width="89.616" height="112.933" x="-1100.904" y="117.574" fill="url(#linearGradient6235)" fill-opacity="1" stroke="none" stroke-dasharray="none" stroke-dashoffset="0" stroke-linecap="round" stroke-linejoin="round" stroke-miterlimit="4" stroke-opacity="1" stroke-width=".3" opacity="1" ry="2.756" transform="matrix(0.94911544,-0.31492839,0.30720732,0.95164261,0,0)"/><rect id="rect6189" width="99.803" height="121.239" x="-1046.299" y="317.974" fill="url(#linearGradient6227)" fill-opacity="1" stroke="none" stroke-dasharray="none" stroke-dashoffset="0" stroke-linecap="round" stroke-linejoin="round" stroke-miterlimit="4" stroke-opacity="1" stroke-width=".3" opacity="1" ry="2.959" transform="matrix(0.99210439,-0.12541481,0.13781259,0.99045832,0,0)"/></g></g></g><flowRoot id="flowRoot4567" fill="#000" fill-opacity="1" stroke="none" stroke-linecap="butt" stroke-linejoin="miter" stroke-opacity="1" stroke-width="1" font-family="sans-serif" font-size="10" font-style="normal" font-weight="normal" letter-spacing="0" word-spacing="0" xml:space="preserve" style="line-height:125%"><flowRegion id="flowRegion4569"><rect id="rect4571" width="135.55" height="166.64" x="-1370.425" y="-469.329"/></flowRegion><flowPara id="flowPara4573"/></flowRoot><g id="layer1-8" fill="#000" fill-opacity=".685" transform="matrix(1.4302134,-0.2058376,0.2058376,1.4302134,181.29019,-962.5391)"><g id="layer1-2" fill="#000" fill-opacity=".685" transform="translate(0.05674466,0.08091695)"><path id="path3" fill="#000" fill-opacity=".685" d="m 15.926846,1040.1714 0,-1.9983 c 0,-2.7121 -2.206463,-4.9187 -4.918609,-4.9187 -2.7121476,0 -4.9186118,2.2066 -4.9186118,4.9187 l 0,1.9983 c -0.387614,0.081 -0.6796621,0.4259 -0.6796621,0.8373 l 0,7.4883 c 0,0.4717 0.3838071,0.8555 0.8555666,0.8555 l 9.4853693,0 c 0.471759,0 0.855566,-0.3838 0.855566,-0.8555 l 0,-7.4883 c 0,-0.4114 -0.292003,-0.7559 -0.679619,-0.8373 z m -3.769499,6.3834 c 0.01745,0.093 -0.04526,0.1682 -0.139371,0.1682 l -1.996764,0 c -0.094111,0 -0.1568262,-0.076 -0.1393725,-0.1682 l 0.3179295,-1.6849 c -0.2406715,-0.2195 -0.3917217,-0.5357 -0.3917217,-0.887 0,-0.6628 0.5373387,-1.2002 1.2001897,-1.2002 0.66285,0 1.200189,0.5374 1.200189,1.2002 0,0.3418 -0.143137,0.6499 -0.372472,0.8686 z m 2.058366,-6.4016 -6.4149539,0 0,-1.9801 c 0,-1.7686 1.4388492,-3.2074 3.2074779,-3.2074 1.768626,0 3.207476,1.4389 3.207476,3.2074 z"/></g></g></g></svg>