<svg xmlns="http://www.w3.org/2000/svg" xmlns:svg="http://www.w3.org/2000/svg" xmlns:xlink="http://www.w3.org/1999/xlink" id="svg5453" width="48" height="48" version="1.1"><defs id="defs5455"><linearGradient id="linearGradient4143"><stop id="stop4145" offset="0" stop-color="#197cf1" stop-opacity="1"/><stop id="stop4147" offset="1" stop-color="#20bcfa" stop-opacity="1"/></linearGradient><linearGradient id="linearGradient4183" x1="770.857" x2="770.857" y1="216.934" y2="164.934" gradientTransform="matrix(-0.53740105,0,0,0.53740105,1202.0726,86.002266)" gradientUnits="userSpaceOnUse" xlink:href="#linearGradient4143"/></defs><metadata id="metadata5458"/><g id="layer1" transform="translate(-384.57143,-499.798)"><g id="layer1-0" transform="matrix(1.5327611,0,0,1.5327611,-205.40274,-290.71617)"><g id="layer1-1" transform="translate(-387.2873,342.96031)"><path id="path7" fill="url(#linearGradient4183)" fill-opacity="1" stroke="none" stroke-dasharray="none" stroke-miterlimit="4" stroke-width=".5" d="m 802.8603,186.85095 c 0,-6.93885 -6.73161,-12.58395 -15.0055,-12.58395 -8.27412,0 -15.00567,5.64515 -15.00567,12.58395 0,6.93882 6.73155,12.58396 15.00567,12.58396 0.69567,0 1.39378,-0.0404 2.08009,-0.11975 3.18694,2.02453 5.53955,3.13266 6.99769,3.29464 0.0508,0.006 0.10183,0.009 0.15175,0.009 0.46837,0 0.90187,-0.23341 1.16001,-0.62478 0.28855,-0.43783 0.30737,-0.9933 0.0504,-1.4468 -0.0114,-0.0216 -1.13723,-2.07466 -0.81259,-4.03577 3.42345,-2.39575 5.37818,-5.89684 5.37818,-9.65979 z"/></g><g id="g4300" transform="translate(189.06654,331.78791)"><g id="g4248" fill="#fff" fill-opacity=".85"><g id="g4250" fill="#fff" fill-opacity=".85" transform="matrix(0.08537198,0,0,0.08537198,194.52599,178.92036)"><g id="g4252" fill="#fff" fill-opacity=".85"><g id="g4337" fill="#fff" fill-opacity=".85" transform="matrix(1.1098657,0,0,1.1098657,-21.935083,-20.142357)"><path id="path4256" fill="#fff" fill-opacity=".85" d="m 120.31878,192.70649 59.117,0 c -1.666,10.675 -7.326,22.046 -16.84,33.827 -6.064,-9.714 -9.964,-19.135 -12.188,-25.408 -0.562,-1.583 -2.058,-2.641 -3.736,-2.641 l -9.728,0 c -1.264,0 -2.453,0.603 -3.2,1.623 -0.746,1.021 -0.961,2.335 -0.579,3.542 2.305,7.258 7.614,21.507 17.429,35.986 -11.594,11.271 -23.143,19.394 -27.611,22.387 -1.778,1.192 -2.289,3.581 -1.153,5.396 l 4.882,7.808 c 0.565,0.903 1.473,1.542 2.515,1.771 0.28,0.063 0.564,0.093 0.846,0.093 0.769,0 1.527,-0.224 2.178,-0.651 4.601,-3.024 16.538,-11.28 29.038,-23.255 4.625,4.82 15.499,13.268 21.942,17.954 0.983,0.715 2.242,0.938 3.415,0.607 1.172,-0.334 2.124,-1.188 2.586,-2.312 l 3.642,-8.903 c 0.732,-1.789 0.065,-3.85 -1.579,-4.867 -4.198,-2.604 -12.101,-7.952 -18.552,-14.902 14.163,-16.575 22.24,-32.734 24.018,-48.049 l 3.121,0 c 2.189,0 3.964,-1.775 3.964,-3.965 l 0,-10.567 c 0,-2.189 -1.774,-3.964 -3.964,-3.964 l -30.872,0 0,-5.426 c 0,-2.19 -1.774,-3.965 -3.964,-3.965 l -9.89,0 c -2.189,0 -3.964,1.774 -3.964,3.965 l 0,5.426 -30.872,0 c -2.189,0 -3.964,1.774 -3.964,3.964 l 0,10.567 c -10e-4,2.184 1.774,3.959 3.963,3.959 z"/><path id="path4258" fill="#fff" fill-opacity=".85" d="m 256.10311,180.09731 c -0.516,-1.66 -2.049,-2.791 -3.787,-2.791 l -22.026,0 c -1.743,0 -3.281,1.139 -3.791,2.805 l -26.318,86.05 c -0.369,1.202 -0.145,2.508 0.604,3.521 0.748,1.009 1.93,1.604 3.188,1.604 l 13.664,0 c 1.779,0 3.342,-1.188 3.819,-2.901 l 5.9,-21.229 26.923,0 6.389,21.307 c 0.502,1.678 2.047,2.825 3.797,2.825 l 14.523,0 c 1.262,0 2.444,-0.599 3.19,-1.61 0.748,-1.015 0.969,-2.323 0.594,-3.526 l -26.669,-86.055 z m -25.697,51.186 9.917,-38.067 0.27,0 10.604,38.067 -20.791,0 z"/></g></g></g></g></g></g></g></svg>