<svg xmlns="http://www.w3.org/2000/svg" xmlns:osb="http://www.openswatchbook.org/uri/2009/osb" xmlns:svg="http://www.w3.org/2000/svg" xmlns:xlink="http://www.w3.org/1999/xlink" id="svg2985" width="48" height="48" version="1.1"><defs id="defs2987"><linearGradient id="linearGradient4269" x1="24.006" x2="24.04" y1="43.461" y2="4.494" gradientTransform="matrix(2.4587921,0,0,2.4587921,258.87464,462.15559)" gradientUnits="userSpaceOnUse" xlink:href="#linearGradient4768"/><linearGradient id="linearGradient4207" osb:paint="gradient"><stop id="stop3371" offset="0" stop-color="#3498db" stop-opacity="1"/><stop id="stop3373" offset="1" stop-color="#3498db" stop-opacity="0"/></linearGradient><linearGradient id="linearGradient4678" x1="145.527" x2="144.448" y1="578.957" y2="478.151" gradientTransform="matrix(0.97044273,0,0,0.97044273,170.66539,9.5402197)" gradientUnits="userSpaceOnUse" xlink:href="#linearGradient4680"/><linearGradient id="linearGradient4768"><stop id="stop4770" offset="0" stop-color="#cecece" stop-opacity="1"/><stop id="stop4772" offset="1" stop-color="#fcfcfc" stop-opacity="1"/></linearGradient><linearGradient id="linearGradient4680"><stop id="stop4682" offset="0" stop-color="#216fa3" stop-opacity="1"/><stop id="stop4684" offset="1" stop-color="#2d94d8" stop-opacity="1"/></linearGradient></defs><metadata id="metadata2990"/><g id="layer1"><g id="g8201" transform="matrix(0.44346671,0,0,0.44346671,-66.448582,-206.62428)"><g id="g4209" transform="matrix(0.91794904,0,0,0.91794904,14.330292,42.299028)"><g id="g4251" transform="translate(2.9479298,0)"><g id="g4297" transform="translate(1.2282639,-0.98260975)"><g id="g4262" transform="matrix(1.1489124,0,0,1.1489124,-33.786598,-79.42617)"><g id="g4367" transform="translate(0.21380876,0.85524921)"><g id="g4365" transform="translate(-111.49263,1.9970068)"><g id="g4318" transform="matrix(1.0105477,0,0,1.0105477,-3.6670252,-5.597125)"><path id="path4187" fill="url(#linearGradient4269)" fill-opacity="1" fill-rule="nonzero" stroke="none" stroke-dasharray="none" stroke-linecap="butt" stroke-linejoin="miter" stroke-miterlimit="4" stroke-opacity="1" stroke-width="3.087" d="m 317.88565,471.99077 c -27.15908,0 -49.17584,22.01676 -49.17584,49.17582 0,27.15909 22.01676,49.17585 49.17584,49.17585 27.15905,0 49.17584,-22.01676 49.17584,-49.17585 0,-27.15906 -22.01679,-49.17582 -49.17584,-49.17582 z" color="#000" display="inline" enable-background="accumulate" opacity="1" overflow="visible" visibility="visible" style="marker:none"/><path id="path4300" fill="#315978" fill-opacity="1" fill-rule="evenodd" stroke="none" stroke-linecap="butt" stroke-linejoin="miter" stroke-opacity="1" stroke-width="2.138" d="m 324.00615,536.30806 c 15.35486,6.95698 15.38282,19.50923 9.28547,32.11372 10.19621,-5.27504 20.159,-9.32014 24.03594,-18.45994 l -14.16962,-18.21808 z"/><g id="g4456" stroke="none" stroke-dasharray="none" stroke-miterlimit="4" stroke-opacity="1" stroke-width=".419" transform="matrix(1.2209187,0,0,1.2209187,50.368983,-112.76343)"><g id="g4353" transform="translate(0.17023921,-0.17032307)"><path id="path8185" fill="#1f94e8" fill-opacity="1" fill-rule="evenodd" stroke="none" stroke-dasharray="none" stroke-linecap="butt" stroke-linejoin="miter" stroke-miterlimit="4" stroke-opacity="1" stroke-width=".419" d="m 255.3881,537.13246 c 10.20446,-24.19499 0.59237,-30.37523 -26.94211,-38.99246 -1.79549,-5.22467 -3.43885,-7.23527 -7.52735,-11.08413 0.79036,6.39178 -7.80258,13.59875 5.60175,16.51081 -3.6788,0.71136 -4.46267,2.0017 -5.95185,3.15098 19.43551,0.59597 33.57475,7.43028 34.81956,30.4148 z"/><path id="path8187" fill="#1f94e8" fill-opacity="1" fill-rule="evenodd" stroke="none" stroke-dasharray="none" stroke-linecap="butt" stroke-linejoin="miter" stroke-miterlimit="4" stroke-opacity="1" stroke-width=".419" d="m 217.06746,502.16623 3.85119,-1.22538 -0.87527,-6.65206 c -4.1435,-3.14462 -5.47289,-5.66388 -5.42669,-7.87745 0.0742,5.25163 -1.10757,10.50326 2.45077,15.75489 z"/><path id="path8183" fill="#267fbb" fill-opacity="1" fill-rule="evenodd" stroke="none" stroke-dasharray="none" stroke-linecap="butt" stroke-linejoin="miter" stroke-miterlimit="4" stroke-opacity="1" stroke-width=".419" d="m 188.82796,525.13605 c 7.31894,13.62551 14.92296,7.00103 35.27183,-3.2557 6.89549,-3.47564 9.32697,0.72323 14.99782,0.35552 l -4.35025,1.45009 c 14.61143,2.4326 21.95781,6.70772 13.18312,24.05323 19.56775,-18.61039 3.16869,-38.63196 -21.72252,-42.25987 0.5288,-0.96672 1.22616,-1.93344 3.8669,-2.90017 -6.87449,-2.57793 -9.88207,-8.0839 -9.02276,-15.81769 -2.56349,4.77991 -3.82637,9.90993 -3.38353,14.68985 -3.16377,3.20892 -6.47559,3.6394 -8.54805,6.92273 -3.14328,4.97979 2.91188,9.52846 -20.93704,16.92312 z" opacity="1"/><path id="path8197" fill="#315978" fill-opacity="1" fill-rule="evenodd" stroke="none" stroke-dasharray="none" stroke-linecap="butt" stroke-linejoin="miter" stroke-miterlimit="4" stroke-opacity="1" stroke-width=".419" d="m 211.80934,514.77476 c 0.0263,-4.73835 3.72224,-5.55585 8.58416,-5.23778 -2.22954,2.86275 -3.776,5.53562 -8.58416,5.23778 z"/><path id="path8199" fill="#315978" fill-opacity="1" fill-rule="evenodd" stroke="none" stroke-dasharray="none" stroke-linecap="butt" stroke-linejoin="miter" stroke-miterlimit="4" stroke-opacity="1" stroke-width=".419" d="m 188.54269,525.12796 2.21582,3.05587 c 2.07906,-1.38595 2.4076,-2.23618 1.29401,-4.3316 z"/><path id="path8181" fill="#256592" fill-opacity="1" fill-rule="evenodd" stroke="none" stroke-dasharray="none" stroke-linecap="butt" stroke-linejoin="miter" stroke-miterlimit="4" stroke-opacity="1" stroke-width=".419" d="m 194.48544,531.75043 c 6.74366,3.32692 14.26792,1.53738 18.55272,0.94391 24.71345,-3.42296 40.19288,1.12828 31.94882,17.57256 6.89599,-5.39895 19.50725,-20.91287 -6.21278,-29.19478 -0.55711,-1.79569 2.08559,-1.99148 4.2013,-2.45076 -12.00098,-4.17595 -23.29015,3.43973 -36.38662,9.85346 -3.33599,1.63374 -8.77631,1.72758 -12.10344,3.27561 z"/></g></g><path id="path4187-5" fill="none" fill-opacity="1" fill-rule="nonzero" stroke="url(#linearGradient4678)" stroke-dasharray="none" stroke-linecap="butt" stroke-linejoin="miter" stroke-miterlimit="4" stroke-opacity="1" stroke-width="3.174" d="m 317.45707,471.13494 c -27.1591,0 -49.17585,22.01676 -49.17585,49.17582 0,27.1591 22.01675,49.17585 49.17585,49.17585 27.15904,0 49.17584,-22.01675 49.17584,-49.17585 0,-27.15906 -22.0168,-49.17582 -49.17584,-49.17582 z" color="#000" display="inline" enable-background="accumulate" opacity="1" overflow="visible" visibility="visible" style="marker:none"/></g></g></g></g></g></g></g></g></g></svg>