<svg xmlns="http://www.w3.org/2000/svg" xmlns:svg="http://www.w3.org/2000/svg" xmlns:xlink="http://www.w3.org/1999/xlink" id="svg5453" width="48" height="48" version="1.1"><defs id="defs5455"><linearGradient id="linearGradient4422"><stop id="stop4424" offset="0" stop-color="#30cf41" stop-opacity="1"/><stop id="stop4426" offset="1" stop-color="#47f383" stop-opacity="1"/></linearGradient><linearGradient id="linearGradient4232"><stop id="stop4234-0" offset="0" stop-color="#3889e9" stop-opacity="1"/><stop id="stop4236" offset="1" stop-color="#5ea5fb" stop-opacity="1"/></linearGradient><linearGradient id="linearGradient3426" x1="399.571" x2="399.571" y1="545.798" y2="517.798" gradientUnits="userSpaceOnUse" xlink:href="#linearGradient4232"/><linearGradient id="linearGradient4181" x1="399.994" x2="399.994" y1="545.139" y2="518.139" gradientUnits="userSpaceOnUse" xlink:href="#linearGradient4422"/></defs><metadata id="metadata5458"/><g id="layer1" transform="translate(-384.57143,-499.798)"><g id="g4471" transform="matrix(1.0931221,0,0,1.0931221,33.310366,-50.486049)"><g id="g4322" transform="matrix(1.0320907,0,0,1.0320907,-11.164043,-16.90606)"><g id="g4320" stroke="none" transform="matrix(0.98381885,0,0,0.98381885,5.5651187,8.3948576)"><g id="layer1-3" stroke="none" stroke-dasharray="none" stroke-miterlimit="4" stroke-opacity="1" stroke-width="1.3" transform="matrix(1.5444819,0,0,1.5444819,-275.17538,-295.73877)"><circle id="path3377" cx="400.571" cy="531.798" r="14" fill="url(#linearGradient4181)" fill-opacity="1" stroke="none" stroke-dasharray="none" stroke-dashoffset="0" stroke-miterlimit="4" stroke-opacity="1" stroke-width=".941" opacity="1"/><circle id="ellipse4233" cx="400.571" cy="531.798" r="0" fill="url(#linearGradient3426)" fill-opacity="1" stroke="none" stroke-dasharray="none" stroke-dashoffset="0" stroke-miterlimit="4" stroke-opacity="1" stroke-width="1.3" opacity="1"/></g></g><g id="g4541" opacity=".9" transform="matrix(1.9805395,0,0,1.9805395,-273.6842,-523.02827)"><g id="g4567" transform="translate(-2.1372744e-6,-0.12047652)"><path id="path4351" fill="#154e22" fill-opacity="1" fill-rule="evenodd" stroke="none" stroke-linecap="butt" stroke-linejoin="miter" stroke-opacity="1" stroke-width=".915" d="m 309.4318,533.85461 -0.21097,1.84593 c 0.14968,1.02135 1.39879,0.82804 1.58223,0.15822 l 0.29224,-1.74327 1.181,0.003 0.16173,1.56464 c 0.0765,0.94895 1.72236,1.05682 1.64551,-0.24612 l -0.27424,-1.63497 c 0.85115,-0.035 1.15188,-0.49249 1.21606,-1.0139 l 0.0894,-1.88685 2.01724,-2.16238 c 0.52822,-0.77682 -0.21762,-1.81414 -1.10756,-1.10756 -0.61064,0.79127 -1.1098,1.34636 -2.40713,1.63262 -0.92555,0.20422 -2.54,0.31394 -4.01508,-0.0426 -0.80051,-0.19346 -1.37086,-0.43329 -2.19567,-1.51276 -0.79139,-0.93954 -2.10297,-0.081 -1.35368,0.93175 l 2.18699,2.23623 0.0877,1.93263 c 0.0635,0.69377 0.76203,0.86331 1.10423,1.04552 z" opacity="1"/><g id="g4559" transform="matrix(1.0001786,0,0,1.0001786,-0.05520945,0.05530982)"><g id="g4536" fill="#154e22" fill-opacity="1" transform="translate(16.831387,2.2788339)"><path id="path4517" fill="#154e22" fill-opacity="1" fill-rule="evenodd" stroke="none" stroke-linecap="butt" stroke-linejoin="miter" stroke-opacity="1" stroke-width=".915" d="m 291.52172,525.88184 c 1.81993,1.16506 4.83248,1.1017 6.70112,0.042 0.67205,-5.24667 -7.07854,-5.66367 -6.70112,-0.042 z" opacity="1"/><rect id="rect4519" width=".382" height="2.672" x="-12.388" y="596.805" fill="#154e22" fill-opacity="1" stroke="none" stroke-dasharray="none" stroke-linecap="round" stroke-linejoin="round" stroke-miterlimit="4" stroke-opacity="1" stroke-width="1.5" opacity="1" ry=".191" transform="matrix(0.8617256,-0.5073746,0.5073746,0.8617256,0,0)"/><rect id="rect4519-2" width=".382" height="2.672" x="-520.511" y="297.636" fill="#154e22" fill-opacity="1" stroke="none" stroke-dasharray="none" stroke-linecap="round" stroke-linejoin="round" stroke-miterlimit="4" stroke-opacity="1" stroke-width="1.5" opacity="1" ry=".191" transform="matrix(-0.8617256,-0.5073746,-0.5073746,0.8617256,0,0)"/></g><circle id="path4500" cx="310.404" cy="526.445" r=".549" fill="#40e86f" fill-opacity="1" stroke="none" stroke-dasharray="none" stroke-linecap="round" stroke-linejoin="round" stroke-miterlimit="4" stroke-opacity="1" stroke-width="1.5" opacity="1"/><circle id="path4500-8" cx="313" cy="526.429" r=".549" fill="#40e86f" fill-opacity="1" stroke="none" stroke-dasharray="none" stroke-linecap="round" stroke-linejoin="round" stroke-miterlimit="4" stroke-opacity="1" stroke-width="1.5" opacity="1"/></g></g></g></g></g></g></svg>