<svg xmlns="http://www.w3.org/2000/svg" xmlns:svg="http://www.w3.org/2000/svg" xmlns:xlink="http://www.w3.org/1999/xlink" id="svg5453" width="32" height="32" version="1.1" viewBox="0 0 32 32"><defs id="defs5455"><linearGradient id="linearGradient4422"><stop id="stop4424" offset="0" stop-color="#1d2125" stop-opacity="1"/><stop id="stop4426" offset="1" stop-color="#67747f" stop-opacity="1"/></linearGradient><linearGradient id="linearGradient4256"><stop id="stop4258" offset="0" stop-color="#8cbdf8" stop-opacity="1"/><stop id="stop4260" offset="1" stop-color="#d5e8ff" stop-opacity="1"/></linearGradient><linearGradient id="linearGradient4232"><stop id="stop4234-0" offset="0" stop-color="#3889e9" stop-opacity="1"/><stop id="stop4236" offset="1" stop-color="#5ea5fb" stop-opacity="1"/></linearGradient><linearGradient id="linearGradient3426" x1="399.571" x2="399.571" y1="545.798" y2="517.798" gradientUnits="userSpaceOnUse" xlink:href="#linearGradient4232"/><linearGradient id="linearGradient4181" x1="400.512" x2="400.699" y1="546.074" y2="517.773" gradientUnits="userSpaceOnUse" xlink:href="#linearGradient4422"/><linearGradient id="linearGradient5263"><stop id="stop5265" offset="0" stop-color="#a0d5ff" stop-opacity="1"/><stop id="stop5267" offset="1" stop-color="#a0d5ff" stop-opacity="1"/></linearGradient><clipPath id="clipPath4458"><path id="use4460" d="m 69.626,12.145 -0.052,0 c -22.727,-0.292 -46.472,4.077 -46.709,4.122 -2.424,0.451 -4.946,2.974 -5.397,5.397 -0.044,0.237 -4.414,23.983 -4.122,46.71 -0.292,22.777 4.078,46.523 4.122,46.761 0.451,2.423 2.974,4.945 5.398,5.398 0.237,0.044 23.982,4.413 46.709,4.121 22.779,0.292 46.524,-4.077 46.761,-4.121 2.423,-0.452 4.946,-2.976 5.398,-5.399 0.044,-0.236 4.413,-23.981 4.121,-46.709 0.292,-22.777 -4.077,-46.523 -4.121,-46.761 -0.453,-2.423 -2.976,-4.946 -5.398,-5.397 -0.238,-0.045 -23.984,-4.414 -46.71,-4.122 z"/></clipPath><linearGradient id="linearGradient4237"><stop id="stop4239" offset="0" stop-color="#ff594d" stop-opacity="1"/><stop id="stop4241" offset="1" stop-color="#ff7f76" stop-opacity="1"/></linearGradient><linearGradient id="linearGradient4210"><stop id="stop4212" offset="0" stop-color="#ff584c" stop-opacity="1"/><stop id="stop4214" offset="1" stop-color="#ff8077" stop-opacity="1"/></linearGradient><linearGradient id="linearGradient4179"><stop id="stop4181" offset="0" stop-color="#ffee5e" stop-opacity="1"/><stop id="stop4183" offset="1" stop-color="#feff8b" stop-opacity="1"/></linearGradient><linearGradient id="linearGradient4210-3"><stop id="stop4212-1" offset="0" stop-color="#ffce69" stop-opacity="1"/><stop id="stop4214-6" offset="1" stop-color="#ffce54" stop-opacity="1"/></linearGradient><linearGradient id="linearGradient4237-0"><stop id="stop4239-8" offset="0" stop-color="#ffee5e" stop-opacity="1"/><stop id="stop4241-9" offset="1" stop-color="#feff9f" stop-opacity="1"/></linearGradient><linearGradient id="linearGradient4237-2"><stop id="stop4239-7" offset="0" stop-color="#ffa0a6" stop-opacity="1"/><stop id="stop4241-2" offset="1" stop-color="#ffa0a5" stop-opacity="1"/></linearGradient><linearGradient id="linearGradient8311"><stop id="stop8313" offset="0" stop-color="#ce89ff" stop-opacity="1"/><stop id="stop8315" offset="1" stop-color="#e898ff" stop-opacity="1"/></linearGradient><linearGradient id="linearGradient4237-8"><stop id="stop4239-2" offset="0" stop-color="#cf8aff" stop-opacity="1"/><stop id="stop4241-3" offset="1" stop-color="#eaa0ff" stop-opacity="1"/></linearGradient><linearGradient id="linearGradient8311-3"><stop id="stop8313-0" offset="0" stop-color="#ffcc6b" stop-opacity="1"/><stop id="stop8315-1" offset="1" stop-color="#ffcf98" stop-opacity="1"/></linearGradient><linearGradient id="linearGradient4237-3"><stop id="stop4239-0" offset="0" stop-color="#ffcc6e" stop-opacity="1"/><stop id="stop4241-7" offset="1" stop-color="#ffe4a0" stop-opacity="1"/></linearGradient><linearGradient id="linearGradient8311-31"><stop id="stop8313-2" offset="0" stop-color="#f089ff" stop-opacity="1"/><stop id="stop8315-6" offset="1" stop-color="#ffadea" stop-opacity="1"/></linearGradient><linearGradient id="linearGradient4237-6"><stop id="stop4239-22" offset="0" stop-color="#f18bfe" stop-opacity="1"/><stop id="stop4241-0" offset="1" stop-color="#fcc3ff" stop-opacity="1"/></linearGradient><linearGradient id="linearGradient8467"><stop id="stop8469" offset="0" stop-color="#b9b9b9" stop-opacity="1"/><stop id="stop8471" offset="1" stop-color="#d1d1d1" stop-opacity="1"/></linearGradient><linearGradient id="linearGradient8311-5"><stop id="stop8313-7" offset="0" stop-color="#b9b9b9" stop-opacity="1"/><stop id="stop8315-3" offset="1" stop-color="#d2d2d2" stop-opacity="1"/></linearGradient><linearGradient id="linearGradient4237-4"><stop id="stop4239-9" offset="0" stop-color="#bababa" stop-opacity="1"/><stop id="stop4241-37" offset="1" stop-color="#c8c8c8" stop-opacity="1"/></linearGradient><linearGradient id="linearGradient8467-7"><stop id="stop8469-4" offset="0" stop-color="#3ec896" stop-opacity="1"/><stop id="stop8471-7" offset="1" stop-color="#66d9af" stop-opacity="1"/></linearGradient><linearGradient id="linearGradient8311-1"><stop id="stop8313-9" offset="0" stop-color="#494949" stop-opacity="1"/><stop id="stop8315-5" offset="1" stop-color="#616774" stop-opacity="1"/></linearGradient><linearGradient id="linearGradient-1" x1="209.957" x2="209.957" y1="0" y2="116.694" gradientTransform="scale(1.1288018,0.8858951)" gradientUnits="userSpaceOnUse"><stop id="stop4884" offset="0%" stop-color="#A7A7A7"/><stop id="stop4886" offset="100%" stop-color="#8D8D8D"/></linearGradient><linearGradient id="linearGradient-2" x1="193" x2="193" y1="411.584" y2="105.4" gradientTransform="scale(1.2279807,0.81434507)" gradientUnits="userSpaceOnUse"><stop id="stop4889" offset="0%" stop-color="#707070"/><stop id="stop4891" offset="100%" stop-color="#ABABAB"/></linearGradient><linearGradient id="linearGradient-3" x1="193" x2="193" y1="70.609" y2="457.423" gradientTransform="scale(1.2279807,0.81434507)" gradientUnits="userSpaceOnUse"><stop id="stop4894" offset="0%" stop-color="#000" stop-opacity="0"/><stop id="stop4896" offset="100%" stop-color="#000" stop-opacity=".19"/></linearGradient><linearGradient id="linearGradient4232-7"><stop id="stop4234" offset="0" stop-color="#333" stop-opacity="1"/><stop id="stop4236-2" offset="1" stop-color="#353535" stop-opacity="1"/></linearGradient><linearGradient id="linearGradient4172"><stop id="stop4174" offset="0" stop-color="#3dc796" stop-opacity="1"/><stop id="stop4176" offset="1" stop-color="#57d68d" stop-opacity="1"/></linearGradient><linearGradient id="linearGradient4233"><stop id="stop4235" offset="0" stop-color="#212121" stop-opacity="1"/><stop id="stop4237" offset="1" stop-color="#1d2022" stop-opacity="0"/></linearGradient><linearGradient id="linearGradient8467-6"><stop id="stop8469-5" offset="0" stop-color="#56d8d1" stop-opacity="1"/><stop id="stop8471-8" offset="1" stop-color="#9df7ee" stop-opacity="1"/></linearGradient><linearGradient id="linearGradient8311-10"><stop id="stop8313-3" offset="0" stop-color="#55d8d1" stop-opacity="1"/><stop id="stop8315-8" offset="1" stop-color="#66efe7" stop-opacity="1"/></linearGradient><linearGradient id="linearGradient8467-8"><stop id="stop8469-9" offset="0" stop-color="#dea679" stop-opacity="1"/><stop id="stop8471-2" offset="1" stop-color="#f7d19d" stop-opacity="1"/></linearGradient><linearGradient id="linearGradient8311-0"><stop id="stop8313-90" offset="0" stop-color="#dda579" stop-opacity="1"/><stop id="stop8315-88" offset="1" stop-color="#f3bc87" stop-opacity="1"/></linearGradient><linearGradient id="linearGradient8467-2"><stop id="stop8469-6" offset="0" stop-color="#5fa4d5" stop-opacity="1"/><stop id="stop8471-5" offset="1" stop-color="#9dc9f7" stop-opacity="1"/></linearGradient><linearGradient id="linearGradient8311-06"><stop id="stop8313-6" offset="0" stop-color="#5fa3d4" stop-opacity="1"/><stop id="stop8315-2" offset="1" stop-color="#6bb9ff" stop-opacity="1"/></linearGradient><linearGradient id="linearGradient4422-9"><stop id="stop4424-5" offset="0" stop-color="#2971c3" stop-opacity="1"/><stop id="stop4426-7" offset="1" stop-color="#83bbff" stop-opacity="1"/></linearGradient><linearGradient id="linearGradient4513" x1="399.571" x2="399.571" y1="545.798" y2="517.798" gradientUnits="userSpaceOnUse" xlink:href="#linearGradient4232"/><clipPath id="clipPath4458-6"><path id="use4460-0" d="m 69.626,12.145 -0.052,0 c -22.727,-0.292 -46.472,4.077 -46.709,4.122 -2.424,0.451 -4.946,2.974 -5.397,5.397 -0.044,0.237 -4.414,23.983 -4.122,46.71 -0.292,22.777 4.078,46.523 4.122,46.761 0.451,2.423 2.974,4.945 5.398,5.398 0.237,0.044 23.982,4.413 46.709,4.121 22.779,0.292 46.524,-4.077 46.761,-4.121 2.423,-0.452 4.946,-2.976 5.398,-5.399 0.044,-0.236 4.413,-23.981 4.121,-46.709 0.292,-22.777 -4.077,-46.523 -4.121,-46.761 -0.453,-2.423 -2.976,-4.946 -5.398,-5.397 -0.238,-0.045 -23.984,-4.414 -46.71,-4.122 z"/></clipPath><linearGradient id="linearGradient4271"><stop id="stop4273" offset="0" stop-color="#e3e3e3" stop-opacity="1"/><stop id="stop4275" offset="1" stop-color="#fffcff" stop-opacity="1"/></linearGradient><linearGradient id="linearGradient4519" x1="399.571" x2="399.571" y1="545.798" y2="517.798" gradientUnits="userSpaceOnUse" xlink:href="#linearGradient4232"/><clipPath id="clipPath4458-9"><path id="use4460-4" d="m 69.626,12.145 -0.052,0 c -22.727,-0.292 -46.472,4.077 -46.709,4.122 -2.424,0.451 -4.946,2.974 -5.397,5.397 -0.044,0.237 -4.414,23.983 -4.122,46.71 -0.292,22.777 4.078,46.523 4.122,46.761 0.451,2.423 2.974,4.945 5.398,5.398 0.237,0.044 23.982,4.413 46.709,4.121 22.779,0.292 46.524,-4.077 46.761,-4.121 2.423,-0.452 4.946,-2.976 5.398,-5.399 0.044,-0.236 4.413,-23.981 4.121,-46.709 0.292,-22.777 -4.077,-46.523 -4.121,-46.761 -0.453,-2.423 -2.976,-4.946 -5.398,-5.397 -0.238,-0.045 -23.984,-4.414 -46.71,-4.122 z"/></clipPath><linearGradient id="linearGradient4431" x1="282.375" x2="281.839" y1="644.85" y2="10.592" gradientUnits="userSpaceOnUse" xlink:href="#linearGradient4271"/><linearGradient id="linearGradient4433" x1="282.375" x2="281.839" y1="644.85" y2="10.592" gradientUnits="userSpaceOnUse" xlink:href="#linearGradient4271"/><linearGradient id="linearGradient4435" x1="282.375" x2="281.839" y1="644.85" y2="10.592" gradientUnits="userSpaceOnUse" xlink:href="#linearGradient4271"/><linearGradient id="linearGradient4437" x1="282.375" x2="281.839" y1="644.85" y2="10.592" gradientUnits="userSpaceOnUse" xlink:href="#linearGradient4271"/><linearGradient id="linearGradient4439" x1="282.375" x2="281.839" y1="644.85" y2="10.592" gradientUnits="userSpaceOnUse" xlink:href="#linearGradient4271"/><linearGradient id="linearGradient4441" x1="282.375" x2="281.839" y1="644.85" y2="10.592" gradientUnits="userSpaceOnUse" xlink:href="#linearGradient4271"/><linearGradient id="linearGradient4443" x1="282.375" x2="281.839" y1="644.85" y2="10.592" gradientUnits="userSpaceOnUse" xlink:href="#linearGradient4271"/><linearGradient id="linearGradient4445" x1="282.375" x2="281.839" y1="644.85" y2="10.592" gradientUnits="userSpaceOnUse" xlink:href="#linearGradient4271"/><linearGradient id="linearGradient4447" x1="282.375" x2="281.839" y1="644.85" y2="10.592" gradientUnits="userSpaceOnUse" xlink:href="#linearGradient4271"/><linearGradient id="linearGradient4449" x1="282.375" x2="281.839" y1="644.85" y2="10.592" gradientUnits="userSpaceOnUse" xlink:href="#linearGradient4271"/><linearGradient id="linearGradient4451" x1="282.375" x2="281.839" y1="644.85" y2="10.592" gradientUnits="userSpaceOnUse" xlink:href="#linearGradient4271"/><linearGradient id="linearGradient4453" x1="282.375" x2="281.839" y1="644.85" y2="10.592" gradientUnits="userSpaceOnUse" xlink:href="#linearGradient4271"/><linearGradient id="linearGradient4455" x1="282.375" x2="281.839" y1="644.85" y2="10.592" gradientUnits="userSpaceOnUse" xlink:href="#linearGradient4271"/><linearGradient id="linearGradient4457" x1="282.375" x2="281.839" y1="644.85" y2="10.592" gradientUnits="userSpaceOnUse" xlink:href="#linearGradient4271"/><linearGradient id="linearGradient4459" x1="282.375" x2="281.839" y1="644.85" y2="10.592" gradientUnits="userSpaceOnUse" xlink:href="#linearGradient4271"/><linearGradient id="linearGradient4461" x1="282.375" x2="281.839" y1="644.85" y2="10.592" gradientUnits="userSpaceOnUse" xlink:href="#linearGradient4271"/><linearGradient id="linearGradient4463" x1="282.375" x2="281.839" y1="644.85" y2="10.592" gradientUnits="userSpaceOnUse" xlink:href="#linearGradient4271"/><linearGradient id="linearGradient4465" x1="282.375" x2="281.839" y1="644.85" y2="10.592" gradientUnits="userSpaceOnUse" xlink:href="#linearGradient4271"/><linearGradient id="linearGradient4467" x1="282.375" x2="281.839" y1="644.85" y2="10.592" gradientUnits="userSpaceOnUse" xlink:href="#linearGradient4271"/><linearGradient id="linearGradient4469" x1="282.375" x2="281.839" y1="644.85" y2="10.592" gradientUnits="userSpaceOnUse" xlink:href="#linearGradient4271"/></defs><metadata id="metadata5458"/><g id="layer1" transform="translate(-384.57143,-515.798)"><ellipse id="ellipse4233" cx="400.571" cy="531.798" r="14" fill="url(#linearGradient3426)" fill-opacity="1" stroke="none" stroke-dasharray="none" stroke-dashoffset="0" stroke-miterlimit="4" stroke-opacity="1" stroke-width="4" opacity="1"/><g id="g4265" transform="matrix(1.0753113,0,0,1.0753113,-30.117002,-39.985805)"><g id="g4277" transform="matrix(1.039268,0,0,1.039268,-15.714789,-20.900341)"><circle id="path3377" cx="400.571" cy="531.798" r="14" fill="url(#linearGradient4181)" fill-opacity="1" stroke="none" stroke-dasharray="none" stroke-dashoffset="0" stroke-miterlimit="4" stroke-opacity="1" stroke-width="1.2" opacity="1"/><circle id="circle4174" cx="400.571" cy="531.798" r="14" fill="#5ea5fb" fill-opacity="0" stroke="none" stroke-dasharray="none" stroke-dashoffset="0" stroke-miterlimit="4" stroke-opacity="1" stroke-width="4" opacity="1"/><g id="g4404" fill="url(#linearGradient4431)" fill-opacity="1" transform="matrix(0.01679572,-0.01733723,0.01733723,0.01679572,390.31811,532.21167)"><g id="g4361" fill="url(#linearGradient4439)" fill-opacity="1"><g id="Fan" fill="url(#linearGradient4437)" fill-opacity="1"><path id="path4364" fill="url(#linearGradient4433)" fill-opacity="1" d="M 562.041,0 C 391.347,0 220.653,0 49.959,0 22.368,0 0,22.368 0,49.959 0,220.653 0,391.346 0,562.041 0,589.632 22.368,612 49.959,612 c 170.694,0 341.387,0 512.082,0 C 589.632,612 612,589.632 612,562.041 612,391.347 612,220.654 612,49.959 612,22.368 589.632,0 562.041,0 Z M 49.959,37.469 c 6.898,0 12.49,5.592 12.49,12.49 0,6.898 -5.592,12.49 -12.49,12.49 -6.898,0 -12.49,-5.592 -12.49,-12.49 0,-6.898 5.592,-12.49 12.49,-12.49 z m 0,537.062 c -6.898,0 -12.49,-5.592 -12.49,-12.49 0,-6.898 5.592,-12.49 12.49,-12.49 6.898,0 12.49,5.592 12.49,12.49 0,6.898 -5.592,12.49 -12.49,12.49 z M 306,554.547 C 168.731,554.547 57.453,443.269 57.453,306 57.453,168.731 168.731,57.453 306,57.453 443.269,57.453 554.547,168.731 554.547,306 554.547,443.269 443.269,554.547 306,554.547 Z m 256.041,19.984 c -6.898,0 -12.49,-5.592 -12.49,-12.49 0,-6.898 5.592,-12.49 12.49,-12.49 6.898,0 12.49,5.592 12.49,12.49 0,6.898 -5.592,12.49 -12.49,12.49 z m 0,-512.082 c -6.898,0 -12.49,-5.592 -12.49,-12.49 0,-6.898 5.592,-12.49 12.49,-12.49 6.898,0 12.49,5.592 12.49,12.49 0,6.898 -5.592,12.49 -12.49,12.49 z"/><path id="path4366" fill="url(#linearGradient4435)" fill-opacity="1" d="m 524.976,260.924 c -1.238,-6.015 -3.819,-10.307 -8.554,-14.218 -37.84,-31.272 -90.317,-29.17 -157.433,6.305 -4.38,-4.38 -9.121,-8.082 -14.434,-11.27 46.257,-41.499 88.423,-58.921 126.495,-52.269 11.225,1.961 18.998,-10.901 12.043,-19.926 -15.437,-20.035 -33.006,-36.347 -54.128,-50.259 -5.13,-3.378 -9.989,-4.586 -16.103,-4.005 -48.869,4.645 -84.49,43.238 -106.863,115.78 -6.195,0 -12.165,0.734 -18.175,2.237 3.365,-62.052 20.86,-104.187 52.486,-126.405 9.324,-6.55 5.725,-21.141 -5.574,-22.607 -25.083,-3.251 -49.04,-2.363 -73.813,2.737 -6.015,1.238 -10.307,3.819 -14.218,8.554 -31.272,37.84 -29.17,90.317 6.305,157.433 -4.38,4.38 -8.082,9.121 -11.27,14.434 -41.499,-46.257 -58.921,-88.423 -52.269,-126.495 1.961,-11.225 -10.901,-18.998 -19.926,-12.044 -20.035,15.437 -36.347,33.006 -50.259,54.128 -3.378,5.13 -4.586,9.989 -4.005,16.103 4.645,48.869 43.238,84.49 115.78,106.863 0,6.195 0.734,12.165 2.237,18.175 -62.052,-3.365 -104.187,-20.86 -126.405,-52.486 -6.55,-9.324 -21.141,-5.725 -22.607,5.574 -3.251,25.083 -2.363,49.04 2.737,73.813 1.238,6.015 3.819,10.307 8.554,14.218 37.84,31.272 90.317,29.17 157.433,-6.305 4.38,4.38 9.121,8.082 14.434,11.27 -46.257,41.499 -88.423,58.921 -126.495,52.269 -11.225,-1.961 -18.998,10.901 -12.043,19.926 15.437,20.035 33.006,36.347 54.128,50.259 5.13,3.378 9.989,4.586 16.103,4.005 48.869,-4.645 84.49,-43.238 106.863,-115.78 6.195,0 12.165,-0.734 18.175,-2.238 -3.365,62.052 -20.86,104.187 -52.486,126.405 -9.324,6.55 -5.725,21.141 5.574,22.607 25.083,3.251 49.04,2.363 73.813,-2.737 6.015,-1.238 10.307,-3.819 14.218,-8.554 31.272,-37.84 29.17,-90.317 -6.305,-157.433 4.38,-4.38 8.082,-9.121 11.27,-14.434 41.499,46.257 58.921,88.423 52.269,126.495 -1.961,11.225 10.901,18.998 19.926,12.043 20.035,-15.437 36.347,-33.006 50.259,-54.128 3.378,-5.13 4.586,-9.989 4.005,-16.103 -4.645,-48.869 -43.238,-84.49 -115.78,-106.863 0,-6.195 -0.734,-12.165 -2.237,-18.175 62.052,3.365 104.187,20.86 126.405,52.486 6.55,9.324 21.141,5.725 22.607,-5.574 3.251,-25.082 2.363,-49.037 -2.737,-73.811 z M 306,368.449 c -34.489,0 -62.449,-27.96 -62.449,-62.449 0,-34.489 27.96,-62.449 62.449,-62.449 34.489,0 62.449,27.96 62.449,62.449 0,34.489 -27.96,62.449 -62.449,62.449 z"/></g></g></g></g></g></g></svg>