<svg xmlns="http://www.w3.org/2000/svg" xmlns:svg="http://www.w3.org/2000/svg" xmlns:xlink="http://www.w3.org/1999/xlink" id="svg5453" width="32" height="32" version="1.1" viewBox="0 0 32 32"><defs id="defs5455"><linearGradient id="linearGradient4308"><stop id="stop4310" offset="0" stop-color="#e8e8e8" stop-opacity=".925"/><stop id="stop4312" offset="1" stop-color="#fffcff" stop-opacity="1"/></linearGradient><linearGradient id="linearGradient4288"><stop id="stop4290" offset="0" stop-color="#f3f3f3" stop-opacity="1"/><stop id="stop4292" offset="1" stop-color="#fffcff" stop-opacity="1"/></linearGradient><linearGradient id="linearGradient4422"><stop id="stop4424" offset="0" stop-color="#74cb32" stop-opacity="1"/><stop id="stop4426" offset="1" stop-color="#abeb6b" stop-opacity="1"/></linearGradient><linearGradient id="linearGradient4256"><stop id="stop4258" offset="0" stop-color="#8cbdf8" stop-opacity="1"/><stop id="stop4260" offset="1" stop-color="#d5e8ff" stop-opacity="1"/></linearGradient><linearGradient id="linearGradient4232"><stop id="stop4234-0" offset="0" stop-color="#3889e9" stop-opacity="1"/><stop id="stop4236" offset="1" stop-color="#5ea5fb" stop-opacity="1"/></linearGradient><linearGradient id="linearGradient3426" x1="399.571" x2="399.571" y1="545.798" y2="517.798" gradientUnits="userSpaceOnUse" xlink:href="#linearGradient4232"/><linearGradient id="linearGradient4181" x1="400.512" x2="400.699" y1="546.074" y2="517.773" gradientUnits="userSpaceOnUse" xlink:href="#linearGradient4422"/><linearGradient id="linearGradient5263"><stop id="stop5265" offset="0" stop-color="#a0d5ff" stop-opacity="1"/><stop id="stop5267" offset="1" stop-color="#a0d5ff" stop-opacity="1"/></linearGradient><clipPath id="clipPath4458"><path id="use4460" d="m 69.626,12.145 -0.052,0 c -22.727,-0.292 -46.472,4.077 -46.709,4.122 -2.424,0.451 -4.946,2.974 -5.397,5.397 -0.044,0.237 -4.414,23.983 -4.122,46.71 -0.292,22.777 4.078,46.523 4.122,46.761 0.451,2.423 2.974,4.945 5.398,5.398 0.237,0.044 23.982,4.413 46.709,4.121 22.779,0.292 46.524,-4.077 46.761,-4.121 2.423,-0.452 4.946,-2.976 5.398,-5.399 0.044,-0.236 4.413,-23.981 4.121,-46.709 0.292,-22.777 -4.077,-46.523 -4.121,-46.761 -0.453,-2.423 -2.976,-4.946 -5.398,-5.397 -0.238,-0.045 -23.984,-4.414 -46.71,-4.122 z"/></clipPath><linearGradient id="linearGradient4237"><stop id="stop4239" offset="0" stop-color="#ff594d" stop-opacity="1"/><stop id="stop4241" offset="1" stop-color="#ff7f76" stop-opacity="1"/></linearGradient><linearGradient id="linearGradient4210"><stop id="stop4212" offset="0" stop-color="#ff584c" stop-opacity="1"/><stop id="stop4214" offset="1" stop-color="#ff8077" stop-opacity="1"/></linearGradient><linearGradient id="linearGradient4179"><stop id="stop4181" offset="0" stop-color="#ffee5e" stop-opacity="1"/><stop id="stop4183" offset="1" stop-color="#feff8b" stop-opacity="1"/></linearGradient><linearGradient id="linearGradient4210-3"><stop id="stop4212-1" offset="0" stop-color="#ffce69" stop-opacity="1"/><stop id="stop4214-6" offset="1" stop-color="#ffce54" stop-opacity="1"/></linearGradient><linearGradient id="linearGradient4237-0"><stop id="stop4239-8" offset="0" stop-color="#ffee5e" stop-opacity="1"/><stop id="stop4241-9" offset="1" stop-color="#feff9f" stop-opacity="1"/></linearGradient><linearGradient id="linearGradient4237-2"><stop id="stop4239-7" offset="0" stop-color="#ffa0a6" stop-opacity="1"/><stop id="stop4241-2" offset="1" stop-color="#ffa0a5" stop-opacity="1"/></linearGradient><linearGradient id="linearGradient8311"><stop id="stop8313" offset="0" stop-color="#ce89ff" stop-opacity="1"/><stop id="stop8315" offset="1" stop-color="#e898ff" stop-opacity="1"/></linearGradient><linearGradient id="linearGradient4237-8"><stop id="stop4239-2" offset="0" stop-color="#cf8aff" stop-opacity="1"/><stop id="stop4241-3" offset="1" stop-color="#eaa0ff" stop-opacity="1"/></linearGradient><linearGradient id="linearGradient8311-3"><stop id="stop8313-0" offset="0" stop-color="#ffcc6b" stop-opacity="1"/><stop id="stop8315-1" offset="1" stop-color="#ffcf98" stop-opacity="1"/></linearGradient><linearGradient id="linearGradient4237-3"><stop id="stop4239-0" offset="0" stop-color="#ffcc6e" stop-opacity="1"/><stop id="stop4241-7" offset="1" stop-color="#ffe4a0" stop-opacity="1"/></linearGradient><linearGradient id="linearGradient8311-31"><stop id="stop8313-2" offset="0" stop-color="#f089ff" stop-opacity="1"/><stop id="stop8315-6" offset="1" stop-color="#ffadea" stop-opacity="1"/></linearGradient><linearGradient id="linearGradient4237-6"><stop id="stop4239-22" offset="0" stop-color="#f18bfe" stop-opacity="1"/><stop id="stop4241-0" offset="1" stop-color="#fcc3ff" stop-opacity="1"/></linearGradient><linearGradient id="linearGradient8467"><stop id="stop8469" offset="0" stop-color="#b9b9b9" stop-opacity="1"/><stop id="stop8471" offset="1" stop-color="#d1d1d1" stop-opacity="1"/></linearGradient><linearGradient id="linearGradient8311-5"><stop id="stop8313-7" offset="0" stop-color="#b9b9b9" stop-opacity="1"/><stop id="stop8315-3" offset="1" stop-color="#d2d2d2" stop-opacity="1"/></linearGradient><linearGradient id="linearGradient4237-4"><stop id="stop4239-9" offset="0" stop-color="#bababa" stop-opacity="1"/><stop id="stop4241-37" offset="1" stop-color="#c8c8c8" stop-opacity="1"/></linearGradient><linearGradient id="linearGradient8467-7"><stop id="stop8469-4" offset="0" stop-color="#3ec896" stop-opacity="1"/><stop id="stop8471-7" offset="1" stop-color="#66d9af" stop-opacity="1"/></linearGradient><linearGradient id="linearGradient8311-1"><stop id="stop8313-9" offset="0" stop-color="#494949" stop-opacity="1"/><stop id="stop8315-5" offset="1" stop-color="#616774" stop-opacity="1"/></linearGradient><linearGradient id="linearGradient-1" x1="209.957" x2="209.957" y1="0" y2="116.694" gradientTransform="scale(1.1288018,0.8858951)" gradientUnits="userSpaceOnUse"><stop id="stop4884" offset="0%" stop-color="#A7A7A7"/><stop id="stop4886" offset="100%" stop-color="#8D8D8D"/></linearGradient><linearGradient id="linearGradient-2" x1="193" x2="193" y1="411.584" y2="105.4" gradientTransform="scale(1.2279807,0.81434507)" gradientUnits="userSpaceOnUse"><stop id="stop4889" offset="0%" stop-color="#707070"/><stop id="stop4891" offset="100%" stop-color="#ABABAB"/></linearGradient><linearGradient id="linearGradient-3" x1="193" x2="193" y1="70.609" y2="457.423" gradientTransform="scale(1.2279807,0.81434507)" gradientUnits="userSpaceOnUse"><stop id="stop4894" offset="0%" stop-color="#000" stop-opacity="0"/><stop id="stop4896" offset="100%" stop-color="#000" stop-opacity=".19"/></linearGradient><linearGradient id="linearGradient4232-7"><stop id="stop4234" offset="0" stop-color="#333" stop-opacity="1"/><stop id="stop4236-2" offset="1" stop-color="#353535" stop-opacity="1"/></linearGradient><linearGradient id="linearGradient4172"><stop id="stop4174" offset="0" stop-color="#3dc796" stop-opacity="1"/><stop id="stop4176" offset="1" stop-color="#57d68d" stop-opacity="1"/></linearGradient><linearGradient id="linearGradient4233"><stop id="stop4235" offset="0" stop-color="#212121" stop-opacity="1"/><stop id="stop4237" offset="1" stop-color="#1d2022" stop-opacity="0"/></linearGradient><linearGradient id="linearGradient8467-6"><stop id="stop8469-5" offset="0" stop-color="#56d8d1" stop-opacity="1"/><stop id="stop8471-8" offset="1" stop-color="#9df7ee" stop-opacity="1"/></linearGradient><linearGradient id="linearGradient8311-10"><stop id="stop8313-3" offset="0" stop-color="#55d8d1" stop-opacity="1"/><stop id="stop8315-8" offset="1" stop-color="#66efe7" stop-opacity="1"/></linearGradient><linearGradient id="linearGradient8467-8"><stop id="stop8469-9" offset="0" stop-color="#dea679" stop-opacity="1"/><stop id="stop8471-2" offset="1" stop-color="#f7d19d" stop-opacity="1"/></linearGradient><linearGradient id="linearGradient8311-0"><stop id="stop8313-90" offset="0" stop-color="#dda579" stop-opacity="1"/><stop id="stop8315-88" offset="1" stop-color="#f3bc87" stop-opacity="1"/></linearGradient><linearGradient id="linearGradient8467-2"><stop id="stop8469-6" offset="0" stop-color="#5fa4d5" stop-opacity="1"/><stop id="stop8471-5" offset="1" stop-color="#9dc9f7" stop-opacity="1"/></linearGradient><linearGradient id="linearGradient8311-06"><stop id="stop8313-6" offset="0" stop-color="#5fa3d4" stop-opacity="1"/><stop id="stop8315-2" offset="1" stop-color="#6bb9ff" stop-opacity="1"/></linearGradient><linearGradient id="linearGradient4422-9"><stop id="stop4424-5" offset="0" stop-color="#2971c3" stop-opacity="1"/><stop id="stop4426-7" offset="1" stop-color="#83bbff" stop-opacity="1"/></linearGradient><linearGradient id="linearGradient4513" x1="399.571" x2="399.571" y1="545.798" y2="517.798" gradientUnits="userSpaceOnUse" xlink:href="#linearGradient4232"/><clipPath id="clipPath4458-6"><path id="use4460-0" d="m 69.626,12.145 -0.052,0 c -22.727,-0.292 -46.472,4.077 -46.709,4.122 -2.424,0.451 -4.946,2.974 -5.397,5.397 -0.044,0.237 -4.414,23.983 -4.122,46.71 -0.292,22.777 4.078,46.523 4.122,46.761 0.451,2.423 2.974,4.945 5.398,5.398 0.237,0.044 23.982,4.413 46.709,4.121 22.779,0.292 46.524,-4.077 46.761,-4.121 2.423,-0.452 4.946,-2.976 5.398,-5.399 0.044,-0.236 4.413,-23.981 4.121,-46.709 0.292,-22.777 -4.077,-46.523 -4.121,-46.761 -0.453,-2.423 -2.976,-4.946 -5.398,-5.397 -0.238,-0.045 -23.984,-4.414 -46.71,-4.122 z"/></clipPath><linearGradient id="linearGradient4271"><stop id="stop4273" offset="0" stop-color="#e3e3e3" stop-opacity="1"/><stop id="stop4275" offset="1" stop-color="#fffcff" stop-opacity="1"/></linearGradient><linearGradient id="linearGradient4519" x1="399.571" x2="399.571" y1="545.798" y2="517.798" gradientUnits="userSpaceOnUse" xlink:href="#linearGradient4232"/><clipPath id="clipPath4458-9"><path id="use4460-4" d="m 69.626,12.145 -0.052,0 c -22.727,-0.292 -46.472,4.077 -46.709,4.122 -2.424,0.451 -4.946,2.974 -5.397,5.397 -0.044,0.237 -4.414,23.983 -4.122,46.71 -0.292,22.777 4.078,46.523 4.122,46.761 0.451,2.423 2.974,4.945 5.398,5.398 0.237,0.044 23.982,4.413 46.709,4.121 22.779,0.292 46.524,-4.077 46.761,-4.121 2.423,-0.452 4.946,-2.976 5.398,-5.399 0.044,-0.236 4.413,-23.981 4.121,-46.709 0.292,-22.777 -4.077,-46.523 -4.121,-46.761 -0.453,-2.423 -2.976,-4.946 -5.398,-5.397 -0.238,-0.045 -23.984,-4.414 -46.71,-4.122 z"/></clipPath><linearGradient id="linearGradient4384" x1="226.909" x2="205.127" y1="358.155" y2="7.441" gradientUnits="userSpaceOnUse" xlink:href="#linearGradient4288"/><linearGradient id="linearGradient4388" x1="173.095" x2="205.127" y1="358.155" y2="7.441" gradientUnits="userSpaceOnUse" xlink:href="#linearGradient4271"/><linearGradient id="linearGradient4305" x1="238.073" x2="205.127" y1="372.358" y2="7.441" gradientUnits="userSpaceOnUse" xlink:href="#linearGradient4308"/><linearGradient id="linearGradient4520" x1="238.073" x2="205.127" y1="372.358" y2="7.441" gradientUnits="userSpaceOnUse" xlink:href="#linearGradient4308"/><linearGradient id="linearGradient4522" x1="238.073" x2="205.127" y1="372.358" y2="7.441" gradientUnits="userSpaceOnUse" xlink:href="#linearGradient4308"/><linearGradient id="linearGradient4524" x1="238.073" x2="205.127" y1="372.358" y2="7.441" gradientUnits="userSpaceOnUse" xlink:href="#linearGradient4308"/><linearGradient id="linearGradient4526" x1="238.073" x2="205.127" y1="372.358" y2="7.441" gradientUnits="userSpaceOnUse" xlink:href="#linearGradient4308"/><linearGradient id="linearGradient4528" x1="238.073" x2="205.127" y1="372.358" y2="7.441" gradientUnits="userSpaceOnUse" xlink:href="#linearGradient4308"/><linearGradient id="linearGradient4530" x1="238.073" x2="205.127" y1="372.358" y2="7.441" gradientUnits="userSpaceOnUse" xlink:href="#linearGradient4308"/><linearGradient id="linearGradient4532" x1="238.073" x2="205.127" y1="372.358" y2="7.441" gradientUnits="userSpaceOnUse" xlink:href="#linearGradient4308"/><linearGradient id="linearGradient4534" x1="238.073" x2="205.127" y1="372.358" y2="7.441" gradientUnits="userSpaceOnUse" xlink:href="#linearGradient4308"/><linearGradient id="linearGradient4536" x1="238.073" x2="205.127" y1="372.358" y2="7.441" gradientUnits="userSpaceOnUse" xlink:href="#linearGradient4308"/><linearGradient id="linearGradient4538" x1="238.073" x2="205.127" y1="372.358" y2="7.441" gradientUnits="userSpaceOnUse" xlink:href="#linearGradient4308"/><linearGradient id="linearGradient4540" x1="238.073" x2="205.127" y1="372.358" y2="7.441" gradientUnits="userSpaceOnUse" xlink:href="#linearGradient4308"/><linearGradient id="linearGradient4542" x1="238.073" x2="205.127" y1="372.358" y2="7.441" gradientUnits="userSpaceOnUse" xlink:href="#linearGradient4308"/><linearGradient id="linearGradient4544" x1="238.073" x2="205.127" y1="372.358" y2="7.441" gradientUnits="userSpaceOnUse" xlink:href="#linearGradient4308"/><linearGradient id="linearGradient4546" x1="238.073" x2="205.127" y1="372.358" y2="7.441" gradientUnits="userSpaceOnUse" xlink:href="#linearGradient4308"/><linearGradient id="linearGradient4548" x1="238.073" x2="205.127" y1="372.358" y2="7.441" gradientUnits="userSpaceOnUse" xlink:href="#linearGradient4308"/><linearGradient id="linearGradient4550" x1="238.073" x2="205.127" y1="372.358" y2="7.441" gradientUnits="userSpaceOnUse" xlink:href="#linearGradient4308"/><linearGradient id="linearGradient4904" x1="24.444" x2="25.086" y1="54.574" y2="0" gradientUnits="userSpaceOnUse" xlink:href="#linearGradient4271"/><linearGradient id="linearGradient4906" x1="24.444" x2="25.086" y1="54.574" y2="0" gradientUnits="userSpaceOnUse" xlink:href="#linearGradient4271"/><linearGradient id="linearGradient4908" x1="24.444" x2="25.086" y1="54.574" y2="0" gradientUnits="userSpaceOnUse" xlink:href="#linearGradient4271"/><linearGradient id="linearGradient4910" x1="24.444" x2="25.086" y1="54.574" y2="0" gradientUnits="userSpaceOnUse" xlink:href="#linearGradient4271"/><linearGradient id="linearGradient4912" x1="24.444" x2="25.086" y1="54.574" y2="0" gradientUnits="userSpaceOnUse" xlink:href="#linearGradient4271"/><linearGradient id="linearGradient4914" x1="24.444" x2="25.086" y1="54.574" y2="0" gradientUnits="userSpaceOnUse" xlink:href="#linearGradient4271"/><linearGradient id="linearGradient4916" x1="24.444" x2="25.086" y1="54.574" y2="0" gradientUnits="userSpaceOnUse" xlink:href="#linearGradient4271"/><linearGradient id="linearGradient4918" x1="24.444" x2="25.086" y1="54.574" y2="0" gradientUnits="userSpaceOnUse" xlink:href="#linearGradient4271"/><linearGradient id="linearGradient4920" x1="24.444" x2="25.086" y1="54.574" y2="0" gradientUnits="userSpaceOnUse" xlink:href="#linearGradient4271"/><linearGradient id="linearGradient4922" x1="24.444" x2="25.086" y1="54.574" y2="0" gradientUnits="userSpaceOnUse" xlink:href="#linearGradient4271"/><linearGradient id="linearGradient4924" x1="24.444" x2="25.086" y1="54.574" y2="0" gradientUnits="userSpaceOnUse" xlink:href="#linearGradient4271"/><linearGradient id="linearGradient4926" x1="24.444" x2="25.086" y1="54.574" y2="0" gradientUnits="userSpaceOnUse" xlink:href="#linearGradient4271"/><linearGradient id="linearGradient4928" x1="24.444" x2="25.086" y1="54.574" y2="0" gradientUnits="userSpaceOnUse" xlink:href="#linearGradient4271"/><linearGradient id="linearGradient4930" x1="24.444" x2="25.086" y1="54.574" y2="0" gradientUnits="userSpaceOnUse" xlink:href="#linearGradient4271"/><linearGradient id="linearGradient4932" x1="24.444" x2="25.086" y1="54.574" y2="0" gradientUnits="userSpaceOnUse" xlink:href="#linearGradient4271"/><linearGradient id="linearGradient4934" x1="24.444" x2="25.086" y1="54.574" y2="0" gradientUnits="userSpaceOnUse" xlink:href="#linearGradient4271"/><linearGradient id="linearGradient4936" x1="24.444" x2="25.086" y1="54.574" y2="0" gradientUnits="userSpaceOnUse" xlink:href="#linearGradient4271"/><linearGradient id="linearGradient4938" x1="24.444" x2="25.086" y1="54.574" y2="0" gradientUnits="userSpaceOnUse" xlink:href="#linearGradient4271"/><linearGradient id="linearGradient4940" x1="24.444" x2="25.086" y1="54.574" y2="0" gradientUnits="userSpaceOnUse" xlink:href="#linearGradient4271"/><linearGradient id="linearGradient4942" x1="24.444" x2="25.086" y1="54.574" y2="0" gradientUnits="userSpaceOnUse" xlink:href="#linearGradient4271"/></defs><metadata id="metadata5458"/><g id="layer1" transform="translate(-384.57143,-515.798)"><ellipse id="ellipse4233" cx="400.571" cy="531.798" r="14" fill="url(#linearGradient3426)" fill-opacity="1" stroke="none" stroke-dasharray="none" stroke-dashoffset="0" stroke-miterlimit="4" stroke-opacity="1" stroke-width="4" opacity="1"/><g id="g4265" transform="matrix(1.0753113,0,0,1.0753113,-30.117002,-39.985805)"><g id="g4277" transform="matrix(1.039268,0,0,1.039268,-15.714789,-20.900341)"><circle id="path3377" cx="400.571" cy="531.798" r="14" fill="url(#linearGradient4181)" fill-opacity="1" stroke="none" stroke-dasharray="none" stroke-dashoffset="0" stroke-miterlimit="4" stroke-opacity="1" stroke-width="1.2" opacity="1"/><circle id="circle4174" cx="400.571" cy="531.798" r="14" fill="#5ea5fb" fill-opacity="0" stroke="none" stroke-dasharray="none" stroke-dashoffset="0" stroke-miterlimit="4" stroke-opacity="1" stroke-width="4" opacity="1"/><g id="g4358" transform="matrix(0.05980652,0,0,0.05980652,827.80532,529.59768)"><g id="g4316" fill="url(#linearGradient4384)" fill-opacity="1" transform="matrix(0.70352523,0,0,0.70352523,-6823.1423,-40.250169)"><g id="g4318" fill="url(#linearGradient4388)" fill-opacity="1" transform="translate(-654.86022,-88.216742)"><g id="g4489" fill="url(#linearGradient4305)" fill-opacity="1" transform="matrix(1.0300607,0,0,1.0300607,-2.8241962,-15.709526)"><g id="g4500" fill="url(#linearGradient4550)" transform="matrix(0.94110643,0,0,0.94110643,1.9732298,7.0303056)"><g id="g4837" fill="url(#linearGradient4904)" fill-opacity="1" opacity=".9" transform="matrix(8.6085981,0,0,8.6085981,-12.865394,6.1303291)"><g id="g4793" fill="url(#linearGradient4912)" fill-opacity="1"><g id="g4795" fill="url(#linearGradient4910)" fill-opacity="1"><path id="path4797" fill="url(#linearGradient4906)" fill-opacity="1" d="m 26.12,14.488 c 0.879,-1.468 2.27,-3.569 4.027,-5.585 l 0.002,0 C 31.637,7.192 34.551,4.996 34.551,4.996 34.989,4.665 34.942,4.204 34.444,3.972 L 30.922,2.326 c -0.498,-0.233 -1.175,-0.063 -1.505,0.376 0,0 -2.605,3.737 -5.671,11.692 -9.48,-4.288 -18.491,1.718 -18.491,12.162 0,10.909 8.393,27.48 19.743,22.478 11.954,5.173 19.749,-11.568 19.749,-22.478 0,-10.534 -8.1,-16.71 -18.627,-12.068 z"/><path id="path4799" fill="url(#linearGradient4908)" fill-opacity="1" d="m 23.997,10.955 c 0.548,-0.046 1.032,-0.531 1.076,-1.078 0,0 0.352,-4.266 -2.621,-7.242 -2.982,-2.977 -7.24,-2.622 -7.24,-2.622 -0.548,0.046 -1.032,0.531 -1.077,1.078 0,0 -0.358,4.268 2.619,7.245 2.975,2.974 7.243,2.619 7.243,2.619 z"/></g></g></g></g></g></g></g></g></g></g></g></svg>