<svg xmlns="http://www.w3.org/2000/svg" xmlns:svg="http://www.w3.org/2000/svg" xmlns:xlink="http://www.w3.org/1999/xlink" id="svg4242" width="48" height="48" version="1.1" viewBox="0 0 48 48"><defs id="defs4244"><linearGradient id="linearGradient4305" x1="408.571" x2="408.571" y1="505.798" y2="541.798" gradientTransform="translate(-384.57144,504.56422)" gradientUnits="userSpaceOnUse" xlink:href="#linearGradient3819"/><linearGradient id="linearGradient3819"><stop id="stop3821" offset="0" stop-color="#fffce4" stop-opacity="1"/><stop id="stop3823" offset="1" stop-color="#fafacd" stop-opacity="1"/></linearGradient><linearGradient id="linearGradient4165" x1="23.716" x2="24.284" y1="1047.516" y2="1012.155" gradientUnits="userSpaceOnUse" xlink:href="#linearGradient4377"/><linearGradient id="linearGradient8311-06"><stop id="stop8313-6" offset="0" stop-color="#a9a3d4" stop-opacity="1"/><stop id="stop4462" offset=".47" stop-color="#87baff" stop-opacity="1"/><stop id="stop8315-2" offset="1" stop-color="#89ec85" stop-opacity="1"/></linearGradient><linearGradient id="linearGradient4460" x1="0" x2="47" y1="23.5" y2="23.5" gradientUnits="userSpaceOnUse" xlink:href="#linearGradient8311-06"/><linearGradient id="linearGradient4305-1" x1="408.571" x2="408.571" y1="505.798" y2="541.798" gradientTransform="matrix(1.1718961,0,0,1.1718961,-454.61016,414.78719)" gradientUnits="userSpaceOnUse" xlink:href="#linearGradient3819"/><linearGradient id="linearGradient4489" x1="408.571" x2="408.571" y1="542.798" y2="503.798" gradientTransform="matrix(1.1718961,0,0,1.1718961,-454.5741,414.78732)" gradientUnits="userSpaceOnUse" xlink:href="#linearGradient4377"/><linearGradient id="linearGradient4377"><stop id="stop4379" offset="0" stop-color="#ff7a01" stop-opacity="1"/><stop id="stop4381" offset="1" stop-color="#feb600" stop-opacity="1"/></linearGradient></defs><metadata id="metadata4247"/><g id="layer1" transform="translate(0,-1004.3622)"><g id="g4248" transform="matrix(1.0239813,0,0,1.0239813,-0.71922348,-24.829691)"><circle id="path4173" cx="24.229" cy="1028.624" r="23.438" fill="url(#linearGradient4489)" fill-opacity="1" stroke="none" stroke-dasharray="none" stroke-linecap="butt" stroke-linejoin="round" stroke-miterlimit="4" stroke-opacity="1" stroke-width=".5" opacity="1"/><circle id="path4297-8" cx="24.193" cy="1028.624" r="21.094" fill="url(#linearGradient4305-1)" fill-opacity="1" stroke="none" stroke-dasharray="none" stroke-linecap="round" stroke-linejoin="round" stroke-miterlimit="4" stroke-opacity="1" stroke-width="2" opacity="1"/><g id="g4413" transform="matrix(1.1718961,0,0,1.1718961,-3.7980864,-176.44407)"><circle id="path4297" cx="24" cy="1028.362" r="0" fill="url(#linearGradient4305)" fill-opacity="1" stroke="none" stroke-dasharray="none" stroke-linecap="round" stroke-linejoin="round" stroke-miterlimit="4" stroke-opacity="1" stroke-width="2" opacity="1"/><path id="path4206" fill="url(#linearGradient4165)" fill-opacity="1" stroke="none" stroke-dasharray="none" stroke-linecap="round" stroke-linejoin="round" stroke-miterlimit="4" stroke-opacity="1" stroke-width="2" d="m 23.99999,1012.3622 c -3,0 -5,2 -5,2 0,0 1.19323,4.0523 2,6 0.85571,2.0659 3,6 3,6 0,0 2.14429,-3.9341 3,-6 0.80677,-1.9477 2,-6 2,-6 0,0 -2,-2 -5,-2 z m -6.363281,2.5645 c 0,0 -2.829852,-3e-4 -4.951172,2.121 -2.12132,2.1214 -2.121094,4.9512 -2.121094,4.9512 0,0 3.710492,2.0214 5.658203,2.8281 2.065862,0.8557 6.363282,2.1211 6.363282,2.1211 0,0 -1.265389,-4.2974 -2.121094,-6.3632 -0.806767,-1.9478 -2.828125,-5.6582 -2.828125,-5.6582 z m 12.726562,0 c 0,0 -2.021358,3.7104 -2.828125,5.6582 -0.855705,2.0658 -2.121094,6.3632 -2.121094,6.3632 0,0 4.29742,-1.2654 6.363282,-2.1211 1.947711,-0.8067 5.658203,-2.8281 5.658203,-2.8281 0,0 2.26e-4,-2.8298 -2.121094,-4.9512 -2.12132,-2.1213 -4.951172,-2.121 -4.951172,-2.121 z m -20.363281,8.4355 c 0,0 -2,2 -2,5 0,3 2,5 2,5 0,0 4.05229,-1.1932 6,-2 2.06586,-0.8557 6,-3 6,-3 0,0 -3.93414,-2.1443 -6,-3 -1.94771,-0.8068 -6,-2 -6,-2 z m 28,0 c 0,0 -4.05229,1.1932 -6,2 -2.06586,0.8557 -6,3 -6,3 0,0 3.93414,2.1443 6,3 1.94771,0.8068 6,2 6,2 0,0 2,-2 2,-5 0,-3 -2,-5 -2,-5 z m -15.414062,6.4141 c 0,0 -4.29742,1.2654 -6.363282,2.1211 -1.947711,0.8067 -5.658203,2.8281 -5.658203,2.8281 0,0 -2.26e-4,2.8298 2.121094,4.9512 2.12132,2.1213 4.951172,2.121 4.951172,2.121 0,0 2.021358,-3.7104 2.828125,-5.6582 0.855705,-2.0658 2.121094,-6.3632 2.121094,-6.3632 z m 2.828124,0 c 0,0 1.265389,4.2974 2.121094,6.3632 0.806767,1.9478 2.828125,5.6582 2.828125,5.6582 0,0 2.829852,3e-4 4.951172,-2.121 2.12132,-2.1214 2.121094,-4.9512 2.121094,-4.9512 0,0 -3.710492,-2.0214 -5.658203,-2.8281 -2.065862,-0.8557 -6.363282,-2.1211 -6.363282,-2.1211 z m -1.414062,0.5859 c 0,0 -2.14429,3.9341 -3,6 -0.80677,1.9477 -2,6 -2,6 0,0 2,2 5,2 3,0 5,-2 5,-2 0,0 -1.19323,-4.0523 -2,-6 -0.85571,-2.0659 -3,-6 -3,-6 z" opacity="1"/></g></g></g></svg>