<svg xmlns="http://www.w3.org/2000/svg" xmlns:svg="http://www.w3.org/2000/svg" xmlns:xlink="http://www.w3.org/1999/xlink" id="svg5453" width="32" height="32" version="1.1" viewBox="0 0 32 32"><defs id="defs5455"><linearGradient id="linearGradient4871"><stop id="stop4873" offset="0" stop-color="#faf7f7" stop-opacity="1"/><stop id="stop4875" offset="1" stop-color="#fcf9f9" stop-opacity="1"/></linearGradient><linearGradient id="linearGradient4329"><stop id="stop4331" offset="0" stop-color="#db50c8" stop-opacity="1"/><stop id="stop4333" offset="1" stop-color="#981fe7" stop-opacity="1"/></linearGradient><linearGradient id="linearGradient4776"><stop id="stop4778" offset="0" stop-color="#1d99f3" stop-opacity="1"/><stop id="stop4780" offset="1" stop-color="#2972a7" stop-opacity="1"/></linearGradient><linearGradient id="linearGradient5617"><stop id="stop5619" offset="0" stop-color="#e30efe" stop-opacity="1"/><stop id="stop5621" offset="1" stop-color="#10e3fd" stop-opacity="1"/></linearGradient><linearGradient id="linearGradient5263"><stop id="stop5265" offset="0" stop-color="#a0d5ff" stop-opacity="1"/><stop id="stop5267" offset="1" stop-color="#a0d5ff" stop-opacity="1"/></linearGradient><linearGradient id="linearGradient4333"><stop id="stop4335" offset="0" stop-color="#33383a" stop-opacity="1"/><stop id="stop4337" offset="1" stop-color="#747474" stop-opacity="1"/></linearGradient><linearGradient id="linearGradient4294"><stop id="stop4296" offset="0" stop-color="#797979" stop-opacity="1"/><stop id="stop4298" offset="1" stop-color="#2e3436"/></linearGradient><linearGradient id="linearGradient3052"><stop id="stop3054" offset="0" stop-color="#555753"/><stop id="stop3056" offset="1" stop-color="#2e3436"/></linearGradient><radialGradient id="radialGradient3082" cx="25.641" cy="3.684" r="17.995" fx="25.641" fy="3.684" gradientTransform="matrix(-0.09909444,0.5637063,-0.25300901,-0.04447686,405.8275,514.36395)" gradientUnits="userSpaceOnUse" xlink:href="#linearGradient3052"/><clipPath id="clipPath4458"><path id="use4460" d="m 69.626,12.145 -0.052,0 c -22.727,-0.292 -46.472,4.077 -46.709,4.122 -2.424,0.451 -4.946,2.974 -5.397,5.397 -0.044,0.237 -4.414,23.983 -4.122,46.71 -0.292,22.777 4.078,46.523 4.122,46.761 0.451,2.423 2.974,4.945 5.398,5.398 0.237,0.044 23.982,4.413 46.709,4.121 22.779,0.292 46.524,-4.077 46.761,-4.121 2.423,-0.452 4.946,-2.976 5.398,-5.399 0.044,-0.236 4.413,-23.981 4.121,-46.709 0.292,-22.777 -4.077,-46.523 -4.121,-46.761 -0.453,-2.423 -2.976,-4.946 -5.398,-5.397 -0.238,-0.045 -23.984,-4.414 -46.71,-4.122 z"/></clipPath><linearGradient id="linearGradient4237"><stop id="stop4239" offset="0" stop-color="#833cfc" stop-opacity="1"/><stop id="stop4241" offset="1" stop-color="#f461d4" stop-opacity="1"/></linearGradient><linearGradient id="linearGradient4210"><stop id="stop4212" offset="0" stop-color="#f23673" stop-opacity="1"/><stop id="stop4214" offset="1" stop-color="#fd8c60" stop-opacity="1"/></linearGradient><linearGradient id="linearGradient4179"><stop id="stop4181" offset="0" stop-color="#ffee5e" stop-opacity="1"/><stop id="stop4183" offset="1" stop-color="#feff8b" stop-opacity="1"/></linearGradient><linearGradient id="linearGradient4210-3"><stop id="stop4212-1" offset="0" stop-color="#ffce69" stop-opacity="1"/><stop id="stop4214-6" offset="1" stop-color="#ffce54" stop-opacity="1"/></linearGradient><linearGradient id="linearGradient4237-0"><stop id="stop4239-8" offset="0" stop-color="#ffee5e" stop-opacity="1"/><stop id="stop4241-9" offset="1" stop-color="#feff9f" stop-opacity="1"/></linearGradient><linearGradient id="linearGradient4237-2"><stop id="stop4239-7" offset="0" stop-color="#ffa0a6" stop-opacity="1"/><stop id="stop4241-2" offset="1" stop-color="#ffa0a5" stop-opacity="1"/></linearGradient><linearGradient id="linearGradient8311"><stop id="stop8313" offset="0" stop-color="#ce89ff" stop-opacity="1"/><stop id="stop8315" offset="1" stop-color="#e898ff" stop-opacity="1"/></linearGradient><linearGradient id="linearGradient4237-8"><stop id="stop4239-2" offset="0" stop-color="#cf8aff" stop-opacity="1"/><stop id="stop4241-3" offset="1" stop-color="#eaa0ff" stop-opacity="1"/></linearGradient><linearGradient id="linearGradient8311-3"><stop id="stop8313-0" offset="0" stop-color="#ffcc6b" stop-opacity="1"/><stop id="stop8315-1" offset="1" stop-color="#ffcf98" stop-opacity="1"/></linearGradient><linearGradient id="linearGradient4237-3"><stop id="stop4239-0" offset="0" stop-color="#ffcc6e" stop-opacity="1"/><stop id="stop4241-7" offset="1" stop-color="#ffe4a0" stop-opacity="1"/></linearGradient><linearGradient id="linearGradient8311-31"><stop id="stop8313-2" offset="0" stop-color="#f089ff" stop-opacity="1"/><stop id="stop8315-6" offset="1" stop-color="#ffadea" stop-opacity="1"/></linearGradient><linearGradient id="linearGradient4237-6"><stop id="stop4239-22" offset="0" stop-color="#f18bfe" stop-opacity="1"/><stop id="stop4241-0" offset="1" stop-color="#fcc3ff" stop-opacity="1"/></linearGradient><linearGradient id="linearGradient8467"><stop id="stop8469" offset="0" stop-color="#b9b9b9" stop-opacity="1"/><stop id="stop8471" offset="1" stop-color="#d1d1d1" stop-opacity="1"/></linearGradient><linearGradient id="linearGradient8311-5"><stop id="stop8313-7" offset="0" stop-color="#b9b9b9" stop-opacity="1"/><stop id="stop8315-3" offset="1" stop-color="#d2d2d2" stop-opacity="1"/></linearGradient><linearGradient id="linearGradient4237-4"><stop id="stop4239-9" offset="0" stop-color="#bababa" stop-opacity="1"/><stop id="stop4241-37" offset="1" stop-color="#c8c8c8" stop-opacity="1"/></linearGradient><linearGradient id="linearGradient8467-7"><stop id="stop8469-4" offset="0" stop-color="#3ec896" stop-opacity="1"/><stop id="stop8471-7" offset="1" stop-color="#66d9af" stop-opacity="1"/></linearGradient><linearGradient id="linearGradient8311-1"><stop id="stop8313-9" offset="0" stop-color="#494949" stop-opacity="1"/><stop id="stop8315-5" offset="1" stop-color="#616774" stop-opacity="1"/></linearGradient><linearGradient id="linearGradient-1" x1="209.957" x2="209.957" y1="0" y2="116.694" gradientTransform="scale(1.1288018,0.8858951)" gradientUnits="userSpaceOnUse"><stop id="stop4884" offset="0%" stop-color="#A7A7A7"/><stop id="stop4886" offset="100%" stop-color="#8D8D8D"/></linearGradient><linearGradient id="linearGradient-2" x1="193" x2="193" y1="411.584" y2="105.4" gradientTransform="scale(1.2279807,0.81434507)" gradientUnits="userSpaceOnUse"><stop id="stop4889" offset="0%" stop-color="#707070"/><stop id="stop4891" offset="100%" stop-color="#ABABAB"/></linearGradient><linearGradient id="linearGradient-3" x1="193" x2="193" y1="70.609" y2="457.423" gradientTransform="scale(1.2279807,0.81434507)" gradientUnits="userSpaceOnUse"><stop id="stop4894" offset="0%" stop-color="#000" stop-opacity="0"/><stop id="stop4896" offset="100%" stop-color="#000" stop-opacity=".19"/></linearGradient><linearGradient id="linearGradient4232"><stop id="stop4234" offset="0" stop-color="#333" stop-opacity="1"/><stop id="stop4236" offset="1" stop-color="#353535" stop-opacity="1"/></linearGradient><linearGradient id="linearGradient4172"><stop id="stop4174" offset="0" stop-color="#3dc796" stop-opacity="1"/><stop id="stop4176" offset="1" stop-color="#57d68d" stop-opacity="1"/></linearGradient><linearGradient id="linearGradient4233"><stop id="stop4235" offset="0" stop-color="#212121" stop-opacity="1"/><stop id="stop4237" offset="1" stop-color="#1d2022" stop-opacity="0"/></linearGradient><linearGradient id="linearGradient8467-6"><stop id="stop8469-5" offset="0" stop-color="#56d8d1" stop-opacity="1"/><stop id="stop8471-8" offset="1" stop-color="#9df7ee" stop-opacity="1"/></linearGradient><linearGradient id="linearGradient8311-10"><stop id="stop8313-3" offset="0" stop-color="#55d8d1" stop-opacity="1"/><stop id="stop8315-8" offset="1" stop-color="#66efe7" stop-opacity="1"/></linearGradient><linearGradient id="linearGradient8467-8"><stop id="stop8469-9" offset="0" stop-color="#dea679" stop-opacity="1"/><stop id="stop8471-2" offset="1" stop-color="#f7d19d" stop-opacity="1"/></linearGradient><linearGradient id="linearGradient8311-0"><stop id="stop8313-90" offset="0" stop-color="#dda579" stop-opacity="1"/><stop id="stop8315-88" offset="1" stop-color="#f3bc87" stop-opacity="1"/></linearGradient><linearGradient id="linearGradient8467-2"><stop id="stop8469-6" offset="0" stop-color="#5fa4d5" stop-opacity="1"/><stop id="stop8471-5" offset="1" stop-color="#9dc9f7" stop-opacity="1"/></linearGradient><linearGradient id="linearGradient8311-06"><stop id="stop8313-6" offset="0" stop-color="#5fa3d4" stop-opacity="1"/><stop id="stop8315-2" offset="1" stop-color="#6bb9ff" stop-opacity="1"/></linearGradient><clipPath id="clipPath4458-0"><path id="use4460-4" d="m 69.626,12.145 -0.052,0 c -22.727,-0.292 -46.472,4.077 -46.709,4.122 -2.424,0.451 -4.946,2.974 -5.397,5.397 -0.044,0.237 -4.414,23.983 -4.122,46.71 -0.292,22.777 4.078,46.523 4.122,46.761 0.451,2.423 2.974,4.945 5.398,5.398 0.237,0.044 23.982,4.413 46.709,4.121 22.779,0.292 46.524,-4.077 46.761,-4.121 2.423,-0.452 4.946,-2.976 5.398,-5.399 0.044,-0.236 4.413,-23.981 4.121,-46.709 0.292,-22.777 -4.077,-46.523 -4.121,-46.761 -0.453,-2.423 -2.976,-4.946 -5.398,-5.397 -0.238,-0.045 -23.984,-4.414 -46.71,-4.122 z"/></clipPath><linearGradient id="linearGradient4851"><stop id="stop4853" offset="0" stop-color="#474a4d" stop-opacity="1"/><stop id="stop4855" offset="1" stop-color="#a5aaae" stop-opacity="1"/></linearGradient><clipPath id="clipPath4458-48"><path id="use4460-97" d="m 69.626,12.145 -0.052,0 c -22.727,-0.292 -46.472,4.077 -46.709,4.122 -2.424,0.451 -4.946,2.974 -5.397,5.397 -0.044,0.237 -4.414,23.983 -4.122,46.71 -0.292,22.777 4.078,46.523 4.122,46.761 0.451,2.423 2.974,4.945 5.398,5.398 0.237,0.044 23.982,4.413 46.709,4.121 22.779,0.292 46.524,-4.077 46.761,-4.121 2.423,-0.452 4.946,-2.976 5.398,-5.399 0.044,-0.236 4.413,-23.981 4.121,-46.709 0.292,-22.777 -4.077,-46.523 -4.121,-46.761 -0.453,-2.423 -2.976,-4.946 -5.398,-5.397 -0.238,-0.045 -23.984,-4.414 -46.71,-4.122 z"/></clipPath><clipPath id="clipPath4458-7"><path id="use4460-2" fill="url(#linearGradient4580)" fill-opacity="1" d="m 69.626,12.145 -0.052,0 c -22.727,-0.292 -46.472,4.077 -46.709,4.122 -2.424,0.451 -4.946,2.974 -5.397,5.397 -0.044,0.237 -4.414,23.983 -4.122,46.71 -0.292,22.777 4.078,46.523 4.122,46.761 0.451,2.423 2.974,4.945 5.398,5.398 0.237,0.044 23.982,4.413 46.709,4.121 22.779,0.292 46.524,-4.077 46.761,-4.121 2.423,-0.452 4.946,-2.976 5.398,-5.399 0.044,-0.236 4.413,-23.981 4.121,-46.709 0.292,-22.777 -4.077,-46.523 -4.121,-46.761 -0.453,-2.423 -2.976,-4.946 -5.398,-5.397 -0.238,-0.045 -23.984,-4.414 -46.71,-4.122 z"/></clipPath><linearGradient id="linearGradient5263-5"><stop id="stop5265-4" offset="0" stop-color="#fff" stop-opacity="0"/><stop id="stop5267-0" offset="1" stop-color="#d5edff" stop-opacity="1"/></linearGradient><clipPath id="clipPath4458-4"><path id="use4460-26" d="m 69.626,12.145 -0.052,0 c -22.727,-0.292 -46.472,4.077 -46.709,4.122 -2.424,0.451 -4.946,2.974 -5.397,5.397 -0.044,0.237 -4.414,23.983 -4.122,46.71 -0.292,22.777 4.078,46.523 4.122,46.761 0.451,2.423 2.974,4.945 5.398,5.398 0.237,0.044 23.982,4.413 46.709,4.121 22.779,0.292 46.524,-4.077 46.761,-4.121 2.423,-0.452 4.946,-2.976 5.398,-5.399 0.044,-0.236 4.413,-23.981 4.121,-46.709 0.292,-22.777 -4.077,-46.523 -4.121,-46.761 -0.453,-2.423 -2.976,-4.946 -5.398,-5.397 -0.238,-0.045 -23.984,-4.414 -46.71,-4.122 z"/></clipPath><clipPath id="clipPath4458-7-1"><path id="use4460-2-2" d="m 69.626,12.145 -0.052,0 c -22.727,-0.292 -46.472,4.077 -46.709,4.122 -2.424,0.451 -4.946,2.974 -5.397,5.397 -0.044,0.237 -4.414,23.983 -4.122,46.71 -0.292,22.777 4.078,46.523 4.122,46.761 0.451,2.423 2.974,4.945 5.398,5.398 0.237,0.044 23.982,4.413 46.709,4.121 22.779,0.292 46.524,-4.077 46.761,-4.121 2.423,-0.452 4.946,-2.976 5.398,-5.399 0.044,-0.236 4.413,-23.981 4.121,-46.709 0.292,-22.777 -4.077,-46.523 -4.121,-46.761 -0.453,-2.423 -2.976,-4.946 -5.398,-5.397 -0.238,-0.045 -23.984,-4.414 -46.71,-4.122 z"/></clipPath><clipPath id="clipPath4458-7-5"><path id="use4460-2-5" d="m 69.626,12.145 -0.052,0 c -22.727,-0.292 -46.472,4.077 -46.709,4.122 -2.424,0.451 -4.946,2.974 -5.397,5.397 -0.044,0.237 -4.414,23.983 -4.122,46.71 -0.292,22.777 4.078,46.523 4.122,46.761 0.451,2.423 2.974,4.945 5.398,5.398 0.237,0.044 23.982,4.413 46.709,4.121 22.779,0.292 46.524,-4.077 46.761,-4.121 2.423,-0.452 4.946,-2.976 5.398,-5.399 0.044,-0.236 4.413,-23.981 4.121,-46.709 0.292,-22.777 -4.077,-46.523 -4.121,-46.761 -0.453,-2.423 -2.976,-4.946 -5.398,-5.397 -0.238,-0.045 -23.984,-4.414 -46.71,-4.122 z"/></clipPath><linearGradient id="linearGradient4422"><stop id="stop4424" offset="0" stop-color="#dd52c7" stop-opacity="1"/><stop id="stop4426" offset="1" stop-color="#981fe7" stop-opacity="1"/></linearGradient><linearGradient id="linearGradient4256"><stop id="stop4258" offset="0" stop-color="#8cbdf8" stop-opacity="1"/><stop id="stop4260" offset="1" stop-color="#d5e8ff" stop-opacity="1"/></linearGradient><linearGradient id="linearGradient4232-2"><stop id="stop4234-0" offset="0" stop-color="#3889e9" stop-opacity="1"/><stop id="stop4236-5" offset="1" stop-color="#5ea5fb" stop-opacity="1"/></linearGradient><clipPath id="clipPath4458-34"><path id="use4460-4-99" d="m 69.626,12.145 -0.052,0 c -22.727,-0.292 -46.472,4.077 -46.709,4.122 -2.424,0.451 -4.946,2.974 -5.397,5.397 -0.044,0.237 -4.414,23.983 -4.122,46.71 -0.292,22.777 4.078,46.523 4.122,46.761 0.451,2.423 2.974,4.945 5.398,5.398 0.237,0.044 23.982,4.413 46.709,4.121 22.779,0.292 46.524,-4.077 46.761,-4.121 2.423,-0.452 4.946,-2.976 5.398,-5.399 0.044,-0.236 4.413,-23.981 4.121,-46.709 0.292,-22.777 -4.077,-46.523 -4.121,-46.761 -0.453,-2.423 -2.976,-4.946 -5.398,-5.397 -0.238,-0.045 -23.984,-4.414 -46.71,-4.122 z"/></clipPath><linearGradient id="linearGradient8467-5"><stop id="stop8469-7" offset="0" stop-color="#eaeaea" stop-opacity="1"/><stop id="stop8471-0" offset="1" stop-color="#fcf9f9" stop-opacity="1"/></linearGradient><linearGradient id="linearGradient4232-7"><stop id="stop4234-6" offset="0" stop-color="#373a3d" stop-opacity="1"/><stop id="stop4236-2" offset="1" stop-color="#727273" stop-opacity="1"/></linearGradient><linearGradient id="linearGradient4422-5"><stop id="stop4424-7" offset="0" stop-color="#2971c3" stop-opacity="1"/><stop id="stop4426-6" offset="1" stop-color="#5ea5fb" stop-opacity="1"/></linearGradient><clipPath id="clipPath4458-3"><path id="use4460-7" d="m 69.626,12.145 -0.052,0 c -22.727,-0.292 -46.472,4.077 -46.709,4.122 -2.424,0.451 -4.946,2.974 -5.397,5.397 -0.044,0.237 -4.414,23.983 -4.122,46.71 -0.292,22.777 4.078,46.523 4.122,46.761 0.451,2.423 2.974,4.945 5.398,5.398 0.237,0.044 23.982,4.413 46.709,4.121 22.779,0.292 46.524,-4.077 46.761,-4.121 2.423,-0.452 4.946,-2.976 5.398,-5.399 0.044,-0.236 4.413,-23.981 4.121,-46.709 0.292,-22.777 -4.077,-46.523 -4.121,-46.761 -0.453,-2.423 -2.976,-4.946 -5.398,-5.397 -0.238,-0.045 -23.984,-4.414 -46.71,-4.122 z"/></clipPath><clipPath id="clipPath4458-6"><path id="use4460-3" d="m 69.626,12.145 -0.052,0 c -22.727,-0.292 -46.472,4.077 -46.709,4.122 -2.424,0.451 -4.946,2.974 -5.397,5.397 -0.044,0.237 -4.414,23.983 -4.122,46.71 -0.292,22.777 4.078,46.523 4.122,46.761 0.451,2.423 2.974,4.945 5.398,5.398 0.237,0.044 23.982,4.413 46.709,4.121 22.779,0.292 46.524,-4.077 46.761,-4.121 2.423,-0.452 4.946,-2.976 5.398,-5.399 0.044,-0.236 4.413,-23.981 4.121,-46.709 0.292,-22.777 -4.077,-46.523 -4.121,-46.761 -0.453,-2.423 -2.976,-4.946 -5.398,-5.397 -0.238,-0.045 -23.984,-4.414 -46.71,-4.122 z"/></clipPath><clipPath id="clipPath4458-7-18"><path id="use4460-2-3" fill="url(#linearGradient4580)" fill-opacity="1" d="m 69.626,12.145 -0.052,0 c -22.727,-0.292 -46.472,4.077 -46.709,4.122 -2.424,0.451 -4.946,2.974 -5.397,5.397 -0.044,0.237 -4.414,23.983 -4.122,46.71 -0.292,22.777 4.078,46.523 4.122,46.761 0.451,2.423 2.974,4.945 5.398,5.398 0.237,0.044 23.982,4.413 46.709,4.121 22.779,0.292 46.524,-4.077 46.761,-4.121 2.423,-0.452 4.946,-2.976 5.398,-5.399 0.044,-0.236 4.413,-23.981 4.121,-46.709 0.292,-22.777 -4.077,-46.523 -4.121,-46.761 -0.453,-2.423 -2.976,-4.946 -5.398,-5.397 -0.238,-0.045 -23.984,-4.414 -46.71,-4.122 z"/></clipPath><linearGradient id="linearGradient4580" x1="398.31" x2="409.334" y1="538.997" y2="538.997" gradientUnits="userSpaceOnUse" xlink:href="#linearGradient8467"/><clipPath id="clipPath4458-4-2"><path id="use4460-26-4" d="m 69.626,12.145 -0.052,0 c -22.727,-0.292 -46.472,4.077 -46.709,4.122 -2.424,0.451 -4.946,2.974 -5.397,5.397 -0.044,0.237 -4.414,23.983 -4.122,46.71 -0.292,22.777 4.078,46.523 4.122,46.761 0.451,2.423 2.974,4.945 5.398,5.398 0.237,0.044 23.982,4.413 46.709,4.121 22.779,0.292 46.524,-4.077 46.761,-4.121 2.423,-0.452 4.946,-2.976 5.398,-5.399 0.044,-0.236 4.413,-23.981 4.121,-46.709 0.292,-22.777 -4.077,-46.523 -4.121,-46.761 -0.453,-2.423 -2.976,-4.946 -5.398,-5.397 -0.238,-0.045 -23.984,-4.414 -46.71,-4.122 z"/></clipPath><clipPath id="clipPath4458-7-1-5"><path id="use4460-2-2-8" d="m 69.626,12.145 -0.052,0 c -22.727,-0.292 -46.472,4.077 -46.709,4.122 -2.424,0.451 -4.946,2.974 -5.397,5.397 -0.044,0.237 -4.414,23.983 -4.122,46.71 -0.292,22.777 4.078,46.523 4.122,46.761 0.451,2.423 2.974,4.945 5.398,5.398 0.237,0.044 23.982,4.413 46.709,4.121 22.779,0.292 46.524,-4.077 46.761,-4.121 2.423,-0.452 4.946,-2.976 5.398,-5.399 0.044,-0.236 4.413,-23.981 4.121,-46.709 0.292,-22.777 -4.077,-46.523 -4.121,-46.761 -0.453,-2.423 -2.976,-4.946 -5.398,-5.397 -0.238,-0.045 -23.984,-4.414 -46.71,-4.122 z"/></clipPath><clipPath id="clipPath4458-7-5-6"><path id="use4460-2-5-7" d="m 69.626,12.145 -0.052,0 c -22.727,-0.292 -46.472,4.077 -46.709,4.122 -2.424,0.451 -4.946,2.974 -5.397,5.397 -0.044,0.237 -4.414,23.983 -4.122,46.71 -0.292,22.777 4.078,46.523 4.122,46.761 0.451,2.423 2.974,4.945 5.398,5.398 0.237,0.044 23.982,4.413 46.709,4.121 22.779,0.292 46.524,-4.077 46.761,-4.121 2.423,-0.452 4.946,-2.976 5.398,-5.399 0.044,-0.236 4.413,-23.981 4.121,-46.709 0.292,-22.777 -4.077,-46.523 -4.121,-46.761 -0.453,-2.423 -2.976,-4.946 -5.398,-5.397 -0.238,-0.045 -23.984,-4.414 -46.71,-4.122 z"/></clipPath><linearGradient id="linearGradient4588" x1="400.571" x2="400.571" y1="548.798" y2="543.798" gradientUnits="userSpaceOnUse" xlink:href="#linearGradient4851"/><clipPath id="clipPath4458-34-3"><path id="use4460-4-9" d="m 69.626,12.145 -0.052,0 c -22.727,-0.292 -46.472,4.077 -46.709,4.122 -2.424,0.451 -4.946,2.974 -5.397,5.397 -0.044,0.237 -4.414,23.983 -4.122,46.71 -0.292,22.777 4.078,46.523 4.122,46.761 0.451,2.423 2.974,4.945 5.398,5.398 0.237,0.044 23.982,4.413 46.709,4.121 22.779,0.292 46.524,-4.077 46.761,-4.121 2.423,-0.452 4.946,-2.976 5.398,-5.399 0.044,-0.236 4.413,-23.981 4.121,-46.709 0.292,-22.777 -4.077,-46.523 -4.121,-46.761 -0.453,-2.423 -2.976,-4.946 -5.398,-5.397 -0.238,-0.045 -23.984,-4.414 -46.71,-4.122 z"/></clipPath><clipPath id="clipPath4458-3-8"><path id="use4460-7-3" d="m 69.626,12.145 -0.052,0 c -22.727,-0.292 -46.472,4.077 -46.709,4.122 -2.424,0.451 -4.946,2.974 -5.397,5.397 -0.044,0.237 -4.414,23.983 -4.122,46.71 -0.292,22.777 4.078,46.523 4.122,46.761 0.451,2.423 2.974,4.945 5.398,5.398 0.237,0.044 23.982,4.413 46.709,4.121 22.779,0.292 46.524,-4.077 46.761,-4.121 2.423,-0.452 4.946,-2.976 5.398,-5.399 0.044,-0.236 4.413,-23.981 4.121,-46.709 0.292,-22.777 -4.077,-46.523 -4.121,-46.761 -0.453,-2.423 -2.976,-4.946 -5.398,-5.397 -0.238,-0.045 -23.984,-4.414 -46.71,-4.122 z"/></clipPath><clipPath id="clipPath4458-8"><path id="use4460-9" d="m 69.626,12.145 -0.052,0 c -22.727,-0.292 -46.472,4.077 -46.709,4.122 -2.424,0.451 -4.946,2.974 -5.397,5.397 -0.044,0.237 -4.414,23.983 -4.122,46.71 -0.292,22.777 4.078,46.523 4.122,46.761 0.451,2.423 2.974,4.945 5.398,5.398 0.237,0.044 23.982,4.413 46.709,4.121 22.779,0.292 46.524,-4.077 46.761,-4.121 2.423,-0.452 4.946,-2.976 5.398,-5.399 0.044,-0.236 4.413,-23.981 4.121,-46.709 0.292,-22.777 -4.077,-46.523 -4.121,-46.761 -0.453,-2.423 -2.976,-4.946 -5.398,-5.397 -0.238,-0.045 -23.984,-4.414 -46.71,-4.122 z"/></clipPath><linearGradient id="linearGradient4227"><stop id="stop4229" offset="0" stop-color="#2e3436" stop-opacity="1"/><stop id="stop4231" offset="1" stop-color="#555753" stop-opacity="1"/></linearGradient><clipPath id="clipPath4458-73"><path id="use4460-0" d="m 69.626,12.145 -0.052,0 c -22.727,-0.292 -46.472,4.077 -46.709,4.122 -2.424,0.451 -4.946,2.974 -5.397,5.397 -0.044,0.237 -4.414,23.983 -4.122,46.71 -0.292,22.777 4.078,46.523 4.122,46.761 0.451,2.423 2.974,4.945 5.398,5.398 0.237,0.044 23.982,4.413 46.709,4.121 22.779,0.292 46.524,-4.077 46.761,-4.121 2.423,-0.452 4.946,-2.976 5.398,-5.399 0.044,-0.236 4.413,-23.981 4.121,-46.709 0.292,-22.777 -4.077,-46.523 -4.121,-46.761 -0.453,-2.423 -2.976,-4.946 -5.398,-5.397 -0.238,-0.045 -23.984,-4.414 -46.71,-4.122 z"/></clipPath><clipPath id="clipPath4458-7-50"><path id="use4460-2-24" d="m 69.626,12.145 -0.052,0 c -22.727,-0.292 -46.472,4.077 -46.709,4.122 -2.424,0.451 -4.946,2.974 -5.397,5.397 -0.044,0.237 -4.414,23.983 -4.122,46.71 -0.292,22.777 4.078,46.523 4.122,46.761 0.451,2.423 2.974,4.945 5.398,5.398 0.237,0.044 23.982,4.413 46.709,4.121 22.779,0.292 46.524,-4.077 46.761,-4.121 2.423,-0.452 4.946,-2.976 5.398,-5.399 0.044,-0.236 4.413,-23.981 4.121,-46.709 0.292,-22.777 -4.077,-46.523 -4.121,-46.761 -0.453,-2.423 -2.976,-4.946 -5.398,-5.397 -0.238,-0.045 -23.984,-4.414 -46.71,-4.122 z"/></clipPath><clipPath id="clipPath4458-7-5-5"><path id="use4460-2-5-75" d="m 69.626,12.145 -0.052,0 c -22.727,-0.292 -46.472,4.077 -46.709,4.122 -2.424,0.451 -4.946,2.974 -5.397,5.397 -0.044,0.237 -4.414,23.983 -4.122,46.71 -0.292,22.777 4.078,46.523 4.122,46.761 0.451,2.423 2.974,4.945 5.398,5.398 0.237,0.044 23.982,4.413 46.709,4.121 22.779,0.292 46.524,-4.077 46.761,-4.121 2.423,-0.452 4.946,-2.976 5.398,-5.399 0.044,-0.236 4.413,-23.981 4.121,-46.709 0.292,-22.777 -4.077,-46.523 -4.121,-46.761 -0.453,-2.423 -2.976,-4.946 -5.398,-5.397 -0.238,-0.045 -23.984,-4.414 -46.71,-4.122 z"/></clipPath><linearGradient id="linearGradient4342" x1="403.437" x2="402.485" y1="544.989" y2="518.344" gradientTransform="matrix(1.0624791,0,0,1.0624791,-24.979704,-33.286509)" gradientUnits="userSpaceOnUse" xlink:href="#linearGradient4210"/></defs><metadata id="metadata5458"/><g id="layer1" transform="translate(-384.57143,-515.798)"><g id="g5011" transform="matrix(1.0508504,0,0,1.0508504,-20.380166,-26.903903)"><circle id="path3377" cx="400.619" cy="531.729" r="14.875" fill="url(#linearGradient4342)" fill-opacity="1" stroke="none" stroke-dasharray="none" stroke-dashoffset="0" stroke-miterlimit="4" stroke-opacity="1" stroke-width="1.524" opacity="1"/><g id="layer1-5" fill="#fff" fill-opacity=".85" transform="matrix(0.5190601,0,0,0.5190601,188.50872,259.78381)"><g id="g3" fill="#fff" fill-opacity=".85" transform="matrix(0.07988381,0,0,0.07988381,386.57151,501.79796)"><path id="path5" fill="#fff" fill-opacity=".85" d="m 541.951,272.337 c -12.381,0 -24.646,0 -37.217,0 -3.379,0 -9.014,-0.202 -9.014,-3.58 0,-12.583 0,-24.958 0,-37.565 0,-3.378 0.158,-7.815 -3.221,-7.815 -12.594,0 -24.883,0 -37.387,0 -3.385,0 -8.354,-1.047 -8.354,-4.425 0,-12.503 0,-24.786 0,-37.363 0,-3.384 -0.502,-7.172 -3.881,-7.172 -12.562,0 -24.889,0 -37.281,0 -3.379,0 -7.797,-1.702 -7.797,-5.08 0,-12.754 0,-25.172 0,-37.546 0,-3.378 -1.898,-6.089 -5.275,-6.059 -12.211,0.098 -24.719,0.11 -37.395,0.11 -3.377,0 -6.285,2.742 -6.285,6.12 0,12.668 0,24.976 0,37.216 -0.006,3.39 -1.561,5.239 -4.945,5.239 -45.941,0 -91.365,0 -137.301,0 -3.378,0 -4.639,-1.849 -4.639,-5.227 0,-12.442 0,-24.762 0,-37.252 0,-3.378 -3.476,-6.12 -6.854,-6.12 -12.552,0 -24.333,-0.012 -36.42,-0.11 -3.391,-0.024 -5.686,2.687 -5.686,6.065 0,12.491 0,25.031 0,37.895 0,3.385 -4.352,4.75 -7.736,4.75 -12.625,0 -25.006,0 -37.589,0 -3.378,0 -3.635,4.106 -3.635,7.484 0,12.589 0,24.884 0,37.412 0,3.384 -5.227,4.064 -8.605,4.064 -12.577,0 -24.939,0 -37.46,0 -3.378,0 -9.015,4.792 -9.015,8.176 0,12.546 0,24.859 0,37.46 0,3.378 0.153,3.323 -3.225,3.323 -12.436,0 -24.688,0 -36.885,0 -3.378,0 -8.85,5.532 -8.85,8.91 0,45.606 0,90.668 0,135.729 0,3.385 5.471,8.36 8.85,8.36 12.289,0 24.461,0 36.867,0 3.378,0 3.244,-4.988 3.244,-8.366 0,-28.966 0,-57.632 0,-86.384 0,-3.385 5.618,-3.17 8.997,-3.17 12.656,0 25.098,0 37.833,0 3.378,0 8.25,-0.208 8.25,3.17 0,29.021 0,57.84 0,86.935 0,3.378 1.67,6.114 5.055,6.114 12.558,0 25.239,0.018 37.332,0.109 3.378,0.031 6.573,-2.68 6.573,-6.059 0,-12.423 0,-24.853 0,-37.325 0,-3.379 0.759,-3.984 4.143,-3.984 79.125,0 157.75,0 236.544,0 3.379,0 6.119,1.677 6.119,5.055 0,12.559 -0.018,25.227 -0.115,37.455 -0.025,3.384 2.68,6.45 6.059,6.45 12.312,0 24.664,0 37.271,0 3.371,0 3.738,-4.468 3.738,-7.846 0,-29.241 0,-57.957 0,-86.818 0,-3.379 5.117,-3.256 8.5,-3.256 12.762,0 25.295,0 38.037,0 3.377,0 8.543,-0.123 8.543,3.256 0,28.953 0,57.626 0,86.298 0,3.378 0.324,8.366 3.703,8.366 12.338,0 24.418,0 36.4,0 3.379,0 8.857,-4.981 8.857,-8.36 0,-45.416 0,-90.509 0,-135.98 0.002,-3.383 -5.471,-8.659 -8.848,-8.659 z M 201.96,268.475 c 0,3.379 -3.831,3.862 -7.209,3.862 -12.405,0 -24.811,0 -37.387,0 -3.384,0 -4.363,-0.478 -4.363,-3.855 0,-12.356 0,-24.701 0,-37.326 0,-3.378 0.985,-7.778 4.37,-7.778 12.546,0 24.896,0 37.375,0 3.378,0 7.215,4.4 7.215,7.785 -0.001,12.441 -0.001,24.785 -0.001,37.312 z m 195.841,0.099 c 0,3.378 -1.023,3.764 -4.4,3.764 -12.369,0 -24.713,0 -37.32,0 -3.385,0 -7.24,-0.386 -7.24,-3.771 0,-12.509 0,-24.853 0,-37.344 0,-3.372 3.861,-7.846 7.24,-7.846 12.453,0 24.791,0 37.32,0 3.377,0 4.4,4.467 4.4,7.846 0,12.393 0,24.792 0,37.351 z"/><path id="path7" fill="#fff" fill-opacity=".85" d="m 244.341,424.071 c -9.21,0.006 -18.5,0.018 -27.558,-0.007 -19.805,-0.061 -39.725,-0.146 -59.529,-0.227 -3.378,-0.012 -6.151,2.718 -6.12,6.103 0.098,12.239 0.08,25.275 0.085,37.521 0,3.378 2.711,6.842 6.09,6.842 29.425,0 58.011,0 86.567,0 3.378,-0.006 7.044,-4.204 7.044,-7.582 0,-12.204 0,-24.26 0,-36.524 0,-3.385 -3.201,-6.133 -6.579,-6.126 z"/><path id="path9" fill="#fff" fill-opacity=".85" d="m 395.836,423.936 c -0.949,0.073 -1.463,0.753 -2.43,0.753 -29.139,0.018 -57.816,0.648 -86.953,0.648 -0.93,0 -1.861,0 -2.773,0 -1.529,0 -3.799,1.469 -3.799,4.847 0,12.491 0,24.566 0,36.616 0,3.378 3.77,7.497 7.154,7.497 28.793,0 57.367,0 86.486,0 3.379,0 4.279,-4.125 4.279,-7.503 0,-12.454 0,-24.768 0,-37.063 10e-4,-3.378 -0.366,-5.918 -1.964,-5.795 z"/><path id="path11" fill="#fff" fill-opacity=".85" d="m 108.214,125.458 c 12.454,0 24.761,0 37.057,0 3.378,0 6.083,-2.644 6.059,-6.022 -0.098,-12.24 -0.11,-24.56 -0.116,-36.806 0,-3.378 -2.742,-6.126 -6.126,-6.126 -12.687,0 -24.811,0 -36.873,0 -3.378,-0.006 -4.174,2.846 -4.174,6.23 0,12.24 0,24.352 0,36.806 -10e-4,3.377 0.794,5.918 4.173,5.918 z"/><path id="path13" fill="#fff" fill-opacity=".85" d="m 404.844,125.788 c 12.24,-0.098 24.053,-0.11 36.299,-0.116 3.383,0 5.617,-2.748 5.617,-6.126 0,-12.693 0,-24.816 0,-36.885 0,-3.378 -0.82,-6.163 -4.197,-6.163 -12.229,0 -24.34,0 -36.795,0 -3.377,0 -7.967,2.796 -7.967,6.175 0,12.454 0,24.768 0,37.062 0,3.378 3.664,6.083 7.043,6.053 z"/></g></g></g></g></svg>