<svg xmlns="http://www.w3.org/2000/svg" xmlns:svg="http://www.w3.org/2000/svg" xmlns:xlink="http://www.w3.org/1999/xlink" id="svg5453" width="48" height="48" version="1.1"><defs id="defs5455"><linearGradient id="linearGradient5041"><stop id="stop5043" offset="0" stop-color="#e00c1e" stop-opacity="1"/><stop id="stop5045" offset="1" stop-color="#ff5f5f" stop-opacity="1"/></linearGradient><linearGradient id="linearGradient5047" x1="408.889" x2="409.245" y1="546.305" y2="500.486" gradientTransform="matrix(0.78659718,0,0,0.78659718,47.854053,169.85836)" gradientUnits="userSpaceOnUse" xlink:href="#linearGradient4304"/><linearGradient id="linearGradient5247" x1="369.157" x2="369.248" y1="611.673" y2="552.127" gradientUnits="userSpaceOnUse" xlink:href="#linearGradient5041"/><linearGradient id="linearGradient5247-5" x1="369.157" x2="369.248" y1="611.673" y2="552.127" gradientTransform="translate(52.532492,-0.52790697)" gradientUnits="userSpaceOnUse" xlink:href="#linearGradient4304"/><linearGradient id="linearGradient4304"><stop id="stop4306" offset="0" stop-color="#dbdada" stop-opacity="1"/><stop id="stop4308" offset="1" stop-color="#f8f5f5" stop-opacity="1"/></linearGradient></defs><metadata id="metadata5458"/><g id="layer1" transform="translate(-384.57143,-499.798)"><g id="g5283" transform="matrix(0.71923663,0,0,0.71923663,106.52936,105.10989)"><g id="g5279" transform="matrix(0.9937916,-0.1112576,0.1112576,0.9937916,-10.200249,44.225215)"><g id="g4304" transform="matrix(1.0190713,0,0,1.0190713,-7.905956,-11.136684)"><rect id="rect5236-2" width="48.658" height="60.602" x="396.984" y="551.916" fill="url(#linearGradient5247-5)" fill-opacity="1" stroke="none" stroke-dasharray="none" stroke-linecap="round" stroke-linejoin="round" stroke-miterlimit="4" stroke-opacity="1" stroke-width="1.5" opacity="1" ry="2.5" transform="matrix(0.9937916,0.1112576,-0.1112576,0.9937916,15.057313,-42.815792)"/><rect id="rect5236" width="48.658" height="60.602" x="344.451" y="552.443" fill="url(#linearGradient5247)" fill-opacity="1" stroke="none" stroke-dasharray="none" stroke-linecap="round" stroke-linejoin="round" stroke-miterlimit="4" stroke-opacity="1" stroke-width="1.5" opacity="1" ry="2.5"/><path id="path4176" fill="url(#linearGradient5047)" fill-opacity="1" fill-rule="evenodd" stroke="none" stroke-linecap="butt" stroke-linejoin="miter" stroke-opacity="1" stroke-width="1" d="m 351.86133,600.03807 c 20.89423,-21.6453 14.44496,-0.75276 34.57914,0.59119 2.34292,0.41616 1.68081,-0.84411 0.72244,-2.71295 l -17.08459,-34.13758 c 0,0 -0.4224,-0.95203 -0.9085,-0.004 l -18.36434,35.81044 c -1.50642,2.45715 1.05585,0.453 1.05585,0.453 z"/></g></g></g></g></svg>