<svg xmlns="http://www.w3.org/2000/svg" xmlns:svg="http://www.w3.org/2000/svg" xmlns:xlink="http://www.w3.org/1999/xlink" id="svg5453" width="48" height="48" version="1.1"><defs id="defs5455"><linearGradient id="linearGradient4201"><stop id="stop4203" offset="0" stop-color="#31d145" stop-opacity="1"/><stop id="stop4205" offset="1" stop-color="#4bf082" stop-opacity="1"/></linearGradient><linearGradient id="linearGradient4403" x1="409.571" x2="409.571" y1="543.798" y2="503.798" gradientTransform="matrix(1.125,0,0,1,-51.071442,0)" gradientUnits="userSpaceOnUse" xlink:href="#linearGradient4201"/><linearGradient id="linearGradient4159"><stop id="stop4161" offset="0" stop-color="#1c6b2a" stop-opacity="1"/><stop id="stop4163" offset="1" stop-color="#468e5e" stop-opacity="1"/></linearGradient><linearGradient id="linearGradient4225-2" x1="408.571" x2="408.571" y1="543.798" y2="503.798" gradientTransform="matrix(0.67023571,0,0,0.4163618,135.45176,294.03576)" gradientUnits="userSpaceOnUse" xlink:href="#linearGradient4159"/><linearGradient id="linearGradient4338" x1="409.571" x2="409.571" y1="525.798" y2="503.798" gradientTransform="matrix(1.0189573,0,0,1.1696424,-8.4721,-91.365096)" gradientUnits="userSpaceOnUse" xlink:href="#linearGradient4159"/></defs><metadata id="metadata5458"/><g id="layer1" transform="translate(-384.57143,-499.798)"><g id="g4174" transform="matrix(1.1666667,0,0,1.1666667,-68.044265,-87.212987)"><rect id="rect4319" width="36" height="40" x="390.571" y="503.798" fill="url(#linearGradient4403)" fill-opacity="1" stroke="none" stroke-dasharray="none" stroke-miterlimit="4" stroke-opacity=".55" stroke-width="2.8" opacity="1" ry="2"/><path id="path4330" fill="url(#linearGradient4338)" fill-opacity="1" fill-rule="evenodd" stroke="none" stroke-linecap="butt" stroke-linejoin="miter" stroke-opacity="1" stroke-width="1" d="m 405.87816,518.10603 0,4.67857 c -0.30673,3.0134 5.69327,3.0134 5.375,0 l 0,-4.67857 z"/><g id="layer1-7" transform="translate(-0.71741557,0.01714041)"><rect id="rect4149-4" width="5.362" height="16.654" x="406.61" y="503.798" fill="url(#linearGradient4225-2)" fill-opacity="1" stroke="none" stroke-dasharray="none" stroke-miterlimit="4" stroke-opacity=".55" stroke-width="2.8" opacity="1"/><rect id="rect4199" width="4" height="2" x="407.361" y="504.892" fill="#fff" fill-opacity="1" stroke="none" stroke-dasharray="none" stroke-linecap="round" stroke-linejoin="round" stroke-miterlimit="4" stroke-opacity="1" stroke-width="1.026" opacity=".929" ry=".889"/><rect id="rect4199-5" width="4" height="2" x="407.352" y="507.785" fill="#fff" fill-opacity="1" stroke="none" stroke-dasharray="none" stroke-linecap="round" stroke-linejoin="round" stroke-miterlimit="4" stroke-opacity="1" stroke-width="1.026" opacity=".929" ry=".889"/><rect id="rect4199-5-3" width="4" height="2" x="407.327" y="510.643" fill="#fff" fill-opacity="1" stroke="none" stroke-dasharray="none" stroke-linecap="round" stroke-linejoin="round" stroke-miterlimit="4" stroke-opacity="1" stroke-width="1.026" opacity=".929" ry=".889"/><rect id="rect4199-5-3-9" width="4" height="2" x="407.371" y="513.618" fill="#fff" fill-opacity="1" stroke="none" stroke-dasharray="none" stroke-linecap="round" stroke-linejoin="round" stroke-miterlimit="4" stroke-opacity="1" stroke-width="1.026" opacity=".929" ry=".889"/><rect id="rect4199-5-3-9-2" width="4" height="2" x="407.371" y="516.54" fill="#fff" fill-opacity="1" stroke="none" stroke-dasharray="none" stroke-linecap="round" stroke-linejoin="round" stroke-miterlimit="4" stroke-opacity="1" stroke-width="1.026" opacity=".929" ry=".889"/></g><rect id="rect4199-5-3-9-8" width="4" height="2" x="406.654" y="519.549" fill="#fff" fill-opacity="1" stroke="none" stroke-dasharray="none" stroke-linecap="round" stroke-linejoin="round" stroke-miterlimit="4" stroke-opacity="1" stroke-width="1.026" opacity=".929" ry=".889"/><path id="path7" fill="#f0f5f1" fill-opacity="1" d="m 410.11783,524.47214 0,-1.26212 c 0,-0.35164 -0.28416,-0.63683 -0.63453,-0.63683 l -1.76295,0 c -0.35037,0 -0.6346,0.28526 -0.6346,0.63683 l 0,1.2615 -0.98056,2.89118 c -0.27435,0.80579 -0.14271,1.70105 0.35164,2.39489 0.49436,0.69257 1.29597,1.10622 2.14496,1.10622 0.84916,0 1.65084,-0.41365 2.14519,-1.10622 0.49435,-0.69384 0.62583,-1.5891 0.35156,-2.39426 z m -0.40955,4.53977 c -0.50867,0.71448 -1.70431,0.71448 -2.21306,0 -0.25497,-0.35792 -0.32285,-0.8196 -0.18195,-1.23564 l 0.32909,-0.96974 1.91878,0 0.32918,0.97037 c 0.14096,0.41541 0.0729,0.87709 -0.18204,1.23501 z" opacity="1"/></g></g></svg>