<svg xmlns="http://www.w3.org/2000/svg" xmlns:osb="http://www.openswatchbook.org/uri/2009/osb" xmlns:svg="http://www.w3.org/2000/svg" xmlns:xlink="http://www.w3.org/1999/xlink" id="svg5453" width="48" height="48" version="1.1"><defs id="defs5455"><linearGradient id="linearGradient4174" x1="409.571" x2="409.571" y1="543.798" y2="503.798" gradientTransform="matrix(1.0310974,0,0,1.0310974,-12.770795,-16.481135)" gradientUnits="userSpaceOnUse" xlink:href="#linearGradient4191"/><linearGradient id="linearGradient4207" osb:paint="gradient"><stop id="stop3371" offset="0" stop-color="#3498db" stop-opacity="1"/><stop id="stop3373" offset="1" stop-color="#3498db" stop-opacity="0"/></linearGradient><style id="current-color-scheme" type="text/css"/><style id="current-color-scheme-8" type="text/css"/><style id="current-color-scheme-7" type="text/css"/><style id="current-color-scheme-0" type="text/css"/><style id="current-color-scheme-8-6" type="text/css"/><style id="current-color-scheme-7-6" type="text/css"/><style id="current-color-scheme-4" type="text/css"/><style id="current-color-scheme-8-0" type="text/css"/><style id="current-color-scheme-7-7" type="text/css"/><clipPath id="clipPath-097322657"><g id="g4210" transform="translate(0,-1004.3622)"><path id="path4212" fill="#1890d0" d="m -24 13 c 0 1.105 -0.672 2 -1.5 2 -0.828 0 -1.5 -0.895 -1.5 -2 0 -1.105 0.672 -2 1.5 -2 0.828 0 1.5 0.895 1.5 2 z" transform="matrix(15.333333,0,0,11.5,414.99999,878.8622)"/></g></clipPath><linearGradient id="linearGradient4191"><stop id="stop4193" offset="0" stop-color="#2e3e46" stop-opacity="1"/><stop id="stop4195" offset="1" stop-color="#435a64" stop-opacity="1"/></linearGradient></defs><metadata id="metadata5458"/><g id="layer1" transform="translate(-384.57143,-499.798)"><g id="g4441" transform="matrix(1.1638089,0,0,1.1638089,-66.814664,-85.463857)"><rect id="rect4166" width="41.244" height="41.244" x="387.884" y="502.984" fill="url(#linearGradient4174)" fill-opacity="1" stroke="none" stroke-dasharray="none" stroke-miterlimit="4" stroke-opacity=".55" stroke-width="2.8" opacity="1" ry="20.622"/><g id="g4273" transform="matrix(0.91665299,0,0,0.91665299,334.82764,501.50895)"><g id="g4244" transform="translate(-9.0982133,-7.9808891)"><g id="g4246" clip-path="url(#clipPath-097322657)" transform="translate(65.443291,7.9808891)"><g id="g4248"><path id="path4250" fill="#ffce02" fill-opacity=".847" fill-rule="nonzero" stroke="none" d="M 24,9 C 15.715,9 9,15.715 9,24 9,32.281 15.715,38.996 24,38.996 32.281,38.996 38.996,32.281 38.996,24 38.996,15.715 32.281,9 24,9 m 0.027,0.84 c 7.816,0 14.15,6.336 14.15,14.15 0,7.816 -6.336,14.15 -14.15,14.15 -7.816,0 -14.15,-6.336 -14.15,-14.15 0,-7.813 6.336,-14.15 14.15,-14.15 m 0,0"/><path id="path4252" fill="#b9d543" fill-opacity=".388" fill-rule="nonzero" stroke="none" d="m 24.03,9.84 c -7.816,0 -14.15,6.336 -14.15,14.15 0,7.816 6.336,14.15 14.15,14.15 7.816,0 14.15,-6.336 14.15,-14.15 0,-7.813 -6.336,-14.15 -14.15,-14.15 m -0.082,7.539 c 3.629,0 6.574,2.941 6.574,6.574 0,3.629 -2.941,6.574 -6.574,6.574 -3.629,0 -6.574,-2.945 -6.574,-6.574 0,-3.629 2.945,-6.574 6.574,-6.574 m 0,0"/><path id="path4254" fill="#ffca02" fill-opacity=".85" fill-rule="nonzero" stroke="none" d="m 24.03,14.395 c -5.277,0 -9.559,4.277 -9.559,9.555 0,5.277 4.281,9.555 9.559,9.555 5.277,0 9.551,-4.277 9.551,-9.555 0,-5.277 -4.273,-9.555 -9.551,-9.555 m 0,1.047 c 4.719,0 8.547,3.828 8.547,8.551 0,4.719 -3.828,8.547 -8.547,8.547 -4.719,0 -8.551,-3.828 -8.551,-8.547 0,-4.719 3.828,-8.551 8.551,-8.551 m 0,0"/></g></g></g></g></g></g></svg>