<svg xmlns="http://www.w3.org/2000/svg" xmlns:osb="http://www.openswatchbook.org/uri/2009/osb" xmlns:svg="http://www.w3.org/2000/svg" xmlns:xlink="http://www.w3.org/1999/xlink" id="svg5453" width="48" height="48" version="1.1"><defs id="defs5455"><linearGradient id="linearGradient4207" osb:paint="gradient"><stop id="stop3371" offset="0" stop-color="#3498db" stop-opacity="1"/><stop id="stop3373" offset="1" stop-color="#3498db" stop-opacity="0"/></linearGradient><linearGradient id="linearGradient4182" x1="373.61" x2="373.571" y1="544.495" y2="507.798" gradientTransform="matrix(1.1355498,0,0,1.1355498,-68.51828,-71.302446)" gradientUnits="userSpaceOnUse" xlink:href="#linearGradient4488"/><linearGradient id="linearGradient4182-3" x1="374.543" x2="374.543" y1="507.154" y2="548.646" gradientTransform="matrix(-0.56777405,0,0,0.61822428,579.27321,212.13023)" gradientUnits="userSpaceOnUse" xlink:href="#linearGradient4496"/><linearGradient id="linearGradient4496"><stop id="stop4498" offset="0" stop-color="#fdcc59" stop-opacity="1"/><stop id="stop4500" offset="1" stop-color="#f5a844" stop-opacity="1"/></linearGradient><linearGradient id="linearGradient4488"><stop id="stop4490" offset="0" stop-color="#1297ca" stop-opacity="1"/><stop id="stop4492" offset="1" stop-color="#70e2ec" stop-opacity="1"/></linearGradient></defs><metadata id="metadata5458"/><g id="layer1" transform="translate(-384.57143,-499.798)"><g id="g5919"><g id="g4388" transform="matrix(0.97459608,0,0,0.97459608,62.267446,10.486879)"><path id="path3" fill="url(#linearGradient4182)" fill-opacity="1" d="m 372.72396,511.00526 c -4.64376,-3.77923 -10.8097,-5.86043 -17.36188,-5.86043 -6.5523,0 -12.71825,2.08134 -17.3619,5.86043 -4.68415,3.81204 -7.26383,8.89248 -7.26383,14.30562 0,5.1665 2.35146,10.0291 6.6381,13.77566 -0.0773,0.17385 -0.13864,0.35675 -0.1778,0.54904 l -1.40852,6.92833 c -0.16748,0.8234 0.0576,1.31439 0.27567,1.58146 0.25214,0.30847 0.62586,0.47846 1.05242,0.47846 l 0,0 c 0.32207,0 0.66821,-0.095 1.02889,-0.28251 l 8.19253,-4.25611 c 2.83641,0.91297 5.88571,1.3917 9.02427,1.3917 6.55233,0 12.71811,-2.0813 17.36192,-5.8604 4.68401,-3.81192 7.26369,-8.89237 7.26369,-14.3055 0,-5.41327 -2.57956,-10.49371 -7.26357,-14.30575 z"/><g id="layer1-1" fill="#fff" fill-opacity="1" transform="matrix(1.0260661,0,0,1.0260661,-154.00823,-9.7401482)"><g id="g4604" fill="#fff" fill-opacity="1" transform="matrix(0.57032869,0,0,0.57032869,112.73382,218.17346)"><g id="g4340" fill="#fff" fill-opacity="1" transform="matrix(0.14754583,0,0,0.14754583,466.329,483.82704)"><g id="g4440" fill="#fff" fill-opacity="1" transform="matrix(12.102395,0,0,12.102395,126.57873,93.770597)"><g id="layer1-47-4" fill="#fff" fill-opacity="1" transform="matrix(0.56001768,0,0,0.56001768,-149.37208,-281.51199)"><g id="text4600-4" fill="#fff" fill-opacity="1" stroke="none" stroke-linecap="butt" stroke-linejoin="miter" stroke-opacity="1" stroke-width="1" font-family="sans-serif" font-size="24.416" font-style="normal" font-weight="normal" letter-spacing="0" opacity=".8" transform="matrix(1.9826025,0,0,1.9826025,-197.50943,-519.09473)" word-spacing="0" style="line-height:125%"><path style="-inkscape-font-specification:'Product Sans'" id="path4378-4" fill="#fff" fill-opacity="1" d="m 325.55443,521.87526 2.00286,0.47687 q -0.28612,0.76299 -0.66762,1.43061 l 9.63281,0 0,7.53458 -14.30615,0 0,1.23986 16.88126,0 0,1.52599 -16.88126,0 0,1.23987 17.07201,0 q -0.28612,6.19933 -0.95374,7.4392 -0.57225,1.33524 -2.19361,1.33524 -0.763,0 -2.38436,-0.28612 l -0.3815,-1.90749 q 1.81211,0.28612 2.57511,0.28612 0.57224,0 0.76299,-0.57224 0.28612,-0.66762 0.47687,-4.67335 l -16.88126,0 0,-13.16166 4.4826,0 q 0.47687,-0.95374 0.76299,-1.90748 z m -3.3381,3.43347 0,1.52599 12.39867,0 0,-1.52599 -12.39867,0 z m 0,2.95661 0,1.52599 12.39867,0 0,-1.52599 -12.39867,0 z m 4.1011,9.25131 1.90748,0 0,2.57511 4.67335,0 0,-2.38436 1.81211,0 0,3.91035 -12.97091,0 0,1.62136 -1.90749,0 0,-5.43634 1.90749,0 0,2.28899 4.57797,0 0,-2.57511 z" font-family="Product Sans" font-stretch="normal" font-style="normal" font-variant="normal" font-weight="normal"/></g></g></g></g></g></g><path id="path3-6" fill="url(#linearGradient4182-3)" fill-opacity="1" d="m 358.65242,529.1544 c 2.32189,-2.05752 5.40486,-3.19058 8.68093,-3.19058 3.27614,0 6.35912,1.13313 8.68094,3.19058 2.34206,2.07537 3.63191,4.8413 3.63191,7.78837 0,2.81279 -1.17574,5.46009 -3.31906,7.49984 0.0388,0.0947 0.0694,0.19423 0.0889,0.29891 l 0.70425,3.77197 c 0.0837,0.44829 -0.0287,0.7156 -0.13788,0.861 -0.12614,0.16793 -0.31294,0.26049 -0.52621,0.26049 l 0,0 c -0.16104,0 -0.3341,-0.0517 -0.51444,-0.15382 l -4.09627,-2.31712 c -1.4182,0.49704 -2.94284,0.75766 -4.51213,0.75766 -3.27614,0 -6.35905,-1.13311 -8.68093,-3.19056 -2.342,-2.07531 -3.63185,-4.84125 -3.63185,-7.7883 0,-2.94714 1.28978,-5.71307 3.63178,-7.78844 z"/></g></g><g id="layer1-9" fill="#fff" fill-opacity=".85" transform="matrix(0.88690884,0,0,0.88690884,64.930626,64.109158)"><g id="g4300" fill="#fff" fill-opacity=".85" transform="translate(189.06654,331.78791)"><g id="g4248" fill="#fff" fill-opacity=".85"><g id="g4250" fill="#fff" fill-opacity=".85" transform="matrix(0.08537198,0,0,0.08537198,194.52599,178.92036)"><g id="g4252" fill="#fff" fill-opacity=".85"><g id="g4337" fill="#fff" fill-opacity=".85" transform="matrix(1.1098657,0,0,1.1098657,-21.935083,-20.142357)"><path id="path4256" fill="#fff" fill-opacity=".85" d="m 120.31878,192.70649 59.117,0 c -1.666,10.675 -7.326,22.046 -16.84,33.827 -6.064,-9.714 -9.964,-19.135 -12.188,-25.408 -0.562,-1.583 -2.058,-2.641 -3.736,-2.641 l -9.728,0 c -1.264,0 -2.453,0.603 -3.2,1.623 -0.746,1.021 -0.961,2.335 -0.579,3.542 2.305,7.258 7.614,21.507 17.429,35.986 -11.594,11.271 -23.143,19.394 -27.611,22.387 -1.778,1.192 -2.289,3.581 -1.153,5.396 l 4.882,7.808 c 0.565,0.903 1.473,1.542 2.515,1.771 0.28,0.063 0.564,0.093 0.846,0.093 0.769,0 1.527,-0.224 2.178,-0.651 4.601,-3.024 16.538,-11.28 29.038,-23.255 4.625,4.82 15.499,13.268 21.942,17.954 0.983,0.715 2.242,0.938 3.415,0.607 1.172,-0.334 2.124,-1.188 2.586,-2.312 l 3.642,-8.903 c 0.732,-1.789 0.065,-3.85 -1.579,-4.867 -4.198,-2.604 -12.101,-7.952 -18.552,-14.902 14.163,-16.575 22.24,-32.734 24.018,-48.049 l 3.121,0 c 2.189,0 3.964,-1.775 3.964,-3.965 l 0,-10.567 c 0,-2.189 -1.774,-3.964 -3.964,-3.964 l -30.872,0 0,-5.426 c 0,-2.19 -1.774,-3.965 -3.964,-3.965 l -9.89,0 c -2.189,0 -3.964,1.774 -3.964,3.965 l 0,5.426 -30.872,0 c -2.189,0 -3.964,1.774 -3.964,3.964 l 0,10.567 c -10e-4,2.184 1.774,3.959 3.963,3.959 z"/><path id="path4258" fill="#fff" fill-opacity=".85" d="m 256.10311,180.09731 c -0.516,-1.66 -2.049,-2.791 -3.787,-2.791 l -22.026,0 c -1.743,0 -3.281,1.139 -3.791,2.805 l -26.318,86.05 c -0.369,1.202 -0.145,2.508 0.604,3.521 0.748,1.009 1.93,1.604 3.188,1.604 l 13.664,0 c 1.779,0 3.342,-1.188 3.819,-2.901 l 5.9,-21.229 26.923,0 6.389,21.307 c 0.502,1.678 2.047,2.825 3.797,2.825 l 14.523,0 c 1.262,0 2.444,-0.599 3.19,-1.61 0.748,-1.015 0.969,-2.323 0.594,-3.526 l -26.669,-86.055 z m -25.697,51.186 9.917,-38.067 0.27,0 10.604,38.067 -20.791,0 z"/></g></g></g></g></g></g></g></svg>