<svg xmlns="http://www.w3.org/2000/svg" xmlns:osb="http://www.openswatchbook.org/uri/2009/osb" xmlns:svg="http://www.w3.org/2000/svg" xmlns:xlink="http://www.w3.org/1999/xlink" id="svg5453" width="48" height="48" version="1.1"><defs id="defs5455"><linearGradient id="linearGradient4345" x1="401.175" x2="401.175" y1="546.802" y2="516.928" gradientUnits="userSpaceOnUse" xlink:href="#linearGradient4288-0"/><linearGradient id="linearGradient4379" x1="401.175" x2="401.175" y1="546.802" y2="516.928" gradientUnits="userSpaceOnUse" xlink:href="#linearGradient4288-0"/><clipPath id="clipPath-440877745"><g id="g17" transform="translate(0 -1004.4)"><path id="path19" fill="#1890d0" d="m-24 13c0 1.105-0.672 2-1.5 2s-1.5-0.895-1.5-2 0.672-2 1.5-2 1.5 0.895 1.5 2z" transform="matrix(15.333 0 0 11.5 415 878.86)"/></g></clipPath><linearGradient id="linearGradient4207" osb:paint="gradient"><stop id="stop3371" offset="0" stop-color="#3498db" stop-opacity="1"/><stop id="stop3373" offset="1" stop-color="#3498db" stop-opacity="0"/></linearGradient><linearGradient id="linearGradient4288-0"><stop id="stop4290-7" offset="0" stop-color="#00a199" stop-opacity="1"/><stop id="stop4292-0" offset="1" stop-color="#00f89a" stop-opacity=".988"/></linearGradient><linearGradient id="linearGradient5023" x1="401.175" x2="401.175" y1="546.802" y2="516.928" gradientUnits="userSpaceOnUse" xlink:href="#linearGradient4288-0"/><linearGradient id="linearGradient5025" x1="401.175" x2="401.175" y1="546.802" y2="516.928" gradientUnits="userSpaceOnUse" xlink:href="#linearGradient4288-0"/><linearGradient id="linearGradient5027" x1="401.175" x2="401.175" y1="546.802" y2="516.928" gradientUnits="userSpaceOnUse" xlink:href="#linearGradient4288-0"/><linearGradient id="linearGradient5029" x1="401.175" x2="401.175" y1="546.802" y2="516.928" gradientUnits="userSpaceOnUse" xlink:href="#linearGradient4288-0"/><linearGradient id="linearGradient5031" x1="401.175" x2="401.175" y1="546.802" y2="516.928" gradientUnits="userSpaceOnUse" xlink:href="#linearGradient4288-0"/><linearGradient id="linearGradient5033" x1="401.175" x2="401.175" y1="546.802" y2="516.928" gradientUnits="userSpaceOnUse" xlink:href="#linearGradient4288-0"/><linearGradient id="linearGradient5035" x1="401.175" x2="401.175" y1="546.802" y2="516.928" gradientUnits="userSpaceOnUse" xlink:href="#linearGradient4288-0"/><linearGradient id="linearGradient5037" x1="401.175" x2="401.175" y1="546.802" y2="516.928" gradientUnits="userSpaceOnUse" xlink:href="#linearGradient4288-0"/><linearGradient id="linearGradient5039" x1="401.175" x2="401.175" y1="546.802" y2="516.928" gradientUnits="userSpaceOnUse" xlink:href="#linearGradient4288-0"/><linearGradient id="linearGradient5041" x1="401.175" x2="401.175" y1="546.802" y2="516.928" gradientUnits="userSpaceOnUse" xlink:href="#linearGradient4288-0"/></defs><metadata id="metadata5458"/><g id="layer1" transform="translate(-384.57143,-499.798)"><g id="g4338" transform="matrix(1.1124629,0,0,1.1124629,-46.05517,-58.717878)"><g id="g4764" transform="matrix(0.89890638,0,0,0.89890638,333.89701,500.74482)"><g id="g5011" transform="matrix(1.016661,0,0,1.016661,-1.3935855,-0.41766688)"><g id="layer1-4" fill="url(#linearGradient4345)" fill-opacity="1" stroke="url(#linearGradient4379)" transform="matrix(1.6067317,0,0,1.6067317,-560.40219,-829.10827)"><g id="layer1-39" fill="url(#linearGradient5039)" fill-opacity="1" stroke="url(#linearGradient5041)" stroke-dasharray="none" stroke-miterlimit="4" stroke-width="1.385" transform="translate(-0.11123528,0.03124873)"><g id="layer1-3" fill="url(#linearGradient5035)" fill-opacity="1" stroke="url(#linearGradient5037)" stroke-dasharray="none" stroke-miterlimit="4" stroke-opacity="1" stroke-width="1.385" transform="translate(0.13524268,0.04517549)"><circle id="path3377" cx="400.571" cy="531.798" r="14" fill="url(#linearGradient5023)" fill-opacity="1" stroke="url(#linearGradient5025)" stroke-dasharray="none" stroke-dashoffset="0" stroke-miterlimit="4" stroke-opacity="1" stroke-width="1.385" opacity="1"/><circle id="circle4174" cx="400.571" cy="531.798" r="14" fill="url(#linearGradient5027)" fill-opacity="1" stroke="url(#linearGradient5029)" stroke-dasharray="none" stroke-dashoffset="0" stroke-miterlimit="4" stroke-opacity="1" stroke-width="1.385" opacity="1"/><circle id="ellipse4233" cx="400.571" cy="531.798" r="0" fill="url(#linearGradient5031)" fill-opacity="1" stroke="url(#linearGradient5033)" stroke-dasharray="none" stroke-dashoffset="0" stroke-miterlimit="4" stroke-opacity="1" stroke-width="1.385" opacity="1"/></g></g></g><g id="g49" fill="#fff" fill-opacity=".85" clip-path="url(#clipPath-440877745)" opacity=".9" transform="matrix(1.2973665,0,0,1.2973665,51.984858,-5.4952177)"><g id="g51" fill="#fff" fill-opacity=".85"><path id="path53" fill="#fff" fill-opacity=".85" d="m 28.418,35.957 c -1.973,-0.324 -4.535,-2.586 -6.875,-6.06 -0.98,-1.457 -1.984,-3.258 -2.641,-4.734 -0.129,-0.297 -0.18,-0.367 -0.219,-0.324 -0.078,0.082 -0.652,1.324 -0.953,2.066 -0.508,1.25 -0.863,2.438 -1.066,3.582 -0.133,0.719 -0.141,2.109 -0.02,2.543 0.281,1 0.895,1.422 1.852,1.258 0.691,-0.117 1.523,-0.492 2.41,-1.094 0.391,-0.266 0.496,-0.313 0.648,-0.313 0.234,0 0.406,0.125 0.488,0.352 0.055,0.152 0.055,0.199 0,0.344 -0.055,0.145 -0.145,0.227 -0.559,0.504 -0.574,0.391 -1.559,0.891 -2.055,1.051 -1.316,0.422 -2.34,0.266 -3.066,-0.461 -0.664,-0.668 -0.938,-1.746 -0.852,-3.254 0.105,-1.957 0.977,-4.633 2.336,-7.258 l 0.34,-0.656 -0.258,-0.699 c -0.25,-0.668 -0.734,-2.215 -0.734,-2.332 0,-0.086 -0.148,-0.066 -0.805,0.094 -1.5,0.367 -2.613,0.84 -3.41,1.438 -1.57,1.18 -1.156,2.508 1.195,3.832 0.375,0.215 0.461,0.328 0.461,0.609 0,0.145 -0.027,0.203 -0.148,0.324 -0.258,0.258 -0.496,0.203 -1.293,-0.289 -1.148,-0.715 -1.875,-1.523 -2.133,-2.383 -0.094,-0.313 -0.094,-0.941 0,-1.258 0.133,-0.457 0.363,-0.82 0.777,-1.234 0.922,-0.93 2.457,-1.645 4.559,-2.125 0.43,-0.098 0.527,-0.133 0.512,-0.188 -0.012,-0.039 -0.063,-0.281 -0.113,-0.547 -0.285,-1.531 -0.293,-3.289 -0.02,-4.266 0.316,-1.121 0.887,-1.793 1.797,-2.105 0.371,-0.125 1.117,-0.105 1.625,0.047 0.516,0.152 1.148,0.465 1.711,0.844 0.672,0.449 0.871,0.637 0.898,0.855 0.063,0.5 -0.449,0.77 -0.871,0.453 -1.32,-0.98 -2.262,-1.359 -3.02,-1.199 -0.551,0.117 -0.969,0.68 -1.18,1.586 -0.086,0.359 -0.098,0.531 -0.098,1.426 0,1.02 0.016,1.18 0.199,2.246 l 0.094,0.535 0.219,-0.027 c 1.012,-0.121 1.883,-0.207 2.418,-0.238 l 0.637,-0.035 0.105,-0.125 c 1.078,-1.383 2.641,-3 3.828,-3.953 2.27,-1.82 4.215,-2.453 5.555,-1.805 0.758,0.363 1.234,1.113 1.422,2.223 0.121,0.723 0.023,2.438 -0.164,2.922 -0.063,0.164 -0.273,0.285 -0.5,0.285 -0.141,0 -0.215,-0.027 -0.324,-0.129 -0.133,-0.113 -0.141,-0.148 -0.141,-0.379 0,-0.137 0.035,-0.535 0.078,-0.879 0.129,-1 0.039,-1.938 -0.23,-2.473 -0.137,-0.262 -0.406,-0.539 -0.645,-0.652 -0.176,-0.09 -0.273,-0.102 -0.68,-0.102 -0.438,0 -0.523,0.016 -0.945,0.164 -1.324,0.453 -2.84,1.539 -4.473,3.199 -0.316,0.32 -0.777,0.82 -1.035,1.121 l -0.48,0.539 0.41,0.012 c 5.742,0.137 10.582,1.457 12.863,3.504 0.512,0.461 0.957,1.148 1.082,1.684 0.066,0.273 0.07,0.801 0.004,1.082 -0.234,1.039 -1.379,2.066 -3.051,2.727 -0.266,0.105 -0.316,0.113 -0.465,0.07 -0.23,-0.07 -0.383,-0.266 -0.383,-0.5 0,-0.277 0.129,-0.41 0.609,-0.613 1.035,-0.434 1.84,-1.043 2.145,-1.629 0.109,-0.199 0.121,-0.277 0.121,-0.602 0,-0.332 -0.012,-0.398 -0.145,-0.648 -0.184,-0.359 -0.797,-0.973 -1.305,-1.309 -2.492,-1.645 -7.191,-2.719 -11.938,-2.719 l -0.781,0 -0.297,0.398 c -0.441,0.598 -1.398,2.055 -1.777,2.707 l -0.336,0.574 0.23,0.531 c 2.316,5.313 5.91,9.805 8.563,10.703 0.578,0.188 1.016,0.191 1.363,0.02 0.66,-0.324 1.01,-1.164 1.063,-2.563 0.086,-2.348 -0.758,-5.594 -2.332,-8.949 -0.164,-0.348 -0.262,-0.613 -0.262,-0.711 0,-0.281 0.234,-0.504 0.523,-0.5 0.258,0 0.371,0.102 0.57,0.52 1.277,2.672 2.129,5.355 2.449,7.695 0.105,0.785 0.105,2.391 0,2.965 -0.172,0.918 -0.477,1.578 -0.938,2.047 -0.566,0.566 -1.297,0.781 -2.164,0.641 m -9.16,-14.281 c 0.164,-0.27 0.48,-0.746 0.703,-1.07 0.223,-0.328 0.402,-0.605 0.402,-0.625 0,-0.059 -2.047,0.152 -2.105,0.211 -0.035,0.039 0.082,0.492 0.355,1.332 0.191,0.609 0.254,0.734 0.297,0.688 0.031,-0.035 0.188,-0.273 0.348,-0.535"/><path id="path55" fill="#fff" fill-opacity=".85" d="M 26,24.5 C 26,25.328 25.328,26 24.5,26 23.672,26 23,25.328 23,24.5 c 0,-0.828 0.672,-1.504 1.5,-1.504 0.828,0 1.5,0.676 1.5,1.504"/></g></g></g></g></g></g></svg>