<svg xmlns="http://www.w3.org/2000/svg" xmlns:svg="http://www.w3.org/2000/svg" xmlns:xlink="http://www.w3.org/1999/xlink" id="svg5453" width="48" height="48" version="1.1"><defs id="defs5455"><linearGradient id="linearGradient4355"><stop id="stop4357" offset="0" stop-color="#d5dbff" stop-opacity="1"/><stop id="stop4359" offset="1" stop-color="#f9ffff" stop-opacity="1"/></linearGradient><linearGradient id="linearGradient4345" x1="401.175" x2="401.175" y1="549.914" y2="516.928" gradientUnits="userSpaceOnUse" xlink:href="#linearGradient4355"/><linearGradient id="linearGradient4379" x1="401.175" x2="401.175" y1="549.914" y2="516.928" gradientUnits="userSpaceOnUse" xlink:href="#linearGradient4355"/><linearGradient id="linearGradient4228" x1="401.175" x2="401.175" y1="549.914" y2="516.928" gradientUnits="userSpaceOnUse" xlink:href="#linearGradient4355"/><linearGradient id="linearGradient4230" x1="401.175" x2="401.175" y1="549.914" y2="516.928" gradientUnits="userSpaceOnUse" xlink:href="#linearGradient4355"/><linearGradient id="linearGradient4232" x1="401.175" x2="401.175" y1="549.914" y2="516.928" gradientUnits="userSpaceOnUse" xlink:href="#linearGradient4355"/><linearGradient id="linearGradient4234" x1="401.175" x2="401.175" y1="549.914" y2="516.928" gradientUnits="userSpaceOnUse" xlink:href="#linearGradient4355"/><linearGradient id="linearGradient4236" x1="401.175" x2="401.175" y1="549.914" y2="516.928" gradientUnits="userSpaceOnUse" xlink:href="#linearGradient4355"/><linearGradient id="linearGradient4238" x1="401.175" x2="401.175" y1="549.914" y2="516.928" gradientUnits="userSpaceOnUse" xlink:href="#linearGradient4355"/><linearGradient id="linearGradient4240" x1="401.175" x2="401.175" y1="549.914" y2="516.928" gradientUnits="userSpaceOnUse" xlink:href="#linearGradient4355"/><linearGradient id="linearGradient4242" x1="401.175" x2="401.175" y1="549.914" y2="516.928" gradientUnits="userSpaceOnUse" xlink:href="#linearGradient4355"/><linearGradient id="linearGradient4244" x1="401.175" x2="401.175" y1="549.914" y2="516.928" gradientUnits="userSpaceOnUse" xlink:href="#linearGradient4355"/><linearGradient id="linearGradient4246" x1="401.175" x2="401.175" y1="549.914" y2="516.928" gradientUnits="userSpaceOnUse" xlink:href="#linearGradient4355"/></defs><metadata id="metadata5458"/><g id="layer1" transform="translate(-384.57143,-499.798)"><g id="g4338" transform="matrix(1.1124629,0,0,1.1124629,-46.05517,-58.717878)"><g id="g4203" transform="matrix(1.016661,0,0,1.016661,-6.8157744,-8.6284792)"><g id="layer1-4" fill="url(#linearGradient4345)" fill-opacity="1" stroke="url(#linearGradient4379)" transform="matrix(1.4443014,0,0,1.4443014,-169.85209,-244.54589)"><g id="layer1-39" fill="url(#linearGradient4244)" fill-opacity="1" stroke="url(#linearGradient4246)" stroke-dasharray="none" stroke-miterlimit="4" stroke-width="1.385" transform="translate(-0.11123528,0.03124873)"><g id="layer1-3" fill="url(#linearGradient4240)" fill-opacity="1" stroke="url(#linearGradient4242)" stroke-dasharray="none" stroke-miterlimit="4" stroke-opacity="1" stroke-width="1.385" transform="translate(0.13524268,0.04517549)"><circle id="path3377" cx="400.571" cy="531.798" r="14" fill="url(#linearGradient4228)" fill-opacity="1" stroke="url(#linearGradient4230)" stroke-dasharray="none" stroke-dashoffset="0" stroke-miterlimit="4" stroke-opacity="1" stroke-width="1.385" opacity="1"/><circle id="circle4174" cx="400.571" cy="531.798" r="14" fill="url(#linearGradient4232)" fill-opacity="1" stroke="url(#linearGradient4234)" stroke-dasharray="none" stroke-dashoffset="0" stroke-miterlimit="4" stroke-opacity="1" stroke-width="1.385" opacity="1"/><circle id="ellipse4233" cx="400.571" cy="531.798" r="0" fill="url(#linearGradient4236)" fill-opacity="1" stroke="url(#linearGradient4238)" stroke-dasharray="none" stroke-dashoffset="0" stroke-miterlimit="4" stroke-opacity="1" stroke-width="1.385" opacity="1"/></g></g></g><g id="g5284" fill="#2d2d2d" fill-opacity=".85" transform="matrix(0.16865138,0,0,0.16865138,391.15566,506.22078)"><path id="path5246" fill="#2d2d2d" fill-opacity=".85" d="m 192.259,135.903 c -0.503,-0.072 -1.013,-0.106 -1.52,-0.118 l -5.12,-12.738 c 1.649,-1.827 2.792,-4.13 3.158,-6.7 0.989,-6.95 -3.861,-13.409 -10.811,-14.398 -0.597,-0.085 -1.204,-0.128 -1.804,-0.128 -4.53,0 -8.595,2.445 -10.853,6.136 l -13.474,-1.918 c -1.288,-4.77 -5.306,-8.565 -10.499,-9.305 -0.398,-0.057 -0.8,-0.088 -1.202,-0.107 L 135.98,86.292 c 1.832,-1.88 3.1,-4.325 3.491,-7.069 0.477,-3.347 -0.374,-6.677 -2.389,-9.388 l 8.386,-10.696 c 0.388,0.093 0.783,0.173 1.186,0.231 0.597,0.085 1.204,0.128 1.803,0.128 4.531,0 8.596,-2.444 10.854,-6.136 l 13.302,1.894 c 1.288,4.771 5.306,8.565 10.499,9.304 0.597,0.085 1.204,0.128 1.804,0.128 6.292,0 11.707,-4.703 12.595,-10.938 0.479,-3.367 -0.381,-6.719 -2.423,-9.438 -2.042,-2.719 -5.021,-4.48 -8.386,-4.96 -0.598,-0.085 -1.205,-0.128 -1.806,-0.128 -4.53,0 -8.594,2.444 -10.853,6.136 l -13.302,-1.893 c -1.288,-4.77 -5.306,-8.565 -10.499,-9.304 -0.503,-0.072 -1.012,-0.106 -1.519,-0.118 l -5.32,-13.234 c 1.452,-1.756 2.451,-3.908 2.79,-6.285 C 147.182,7.576 142.332,1.117 135.382,0.128 134.784,0.043 134.177,0 133.578,0 c -6.293,0 -11.708,4.703 -12.595,10.939 -0.479,3.366 0.381,6.718 2.423,9.438 2.042,2.719 5.021,4.48 8.387,4.96 0.597,0.085 1.204,0.128 1.804,0.128 0.297,0 0.589,-0.02 0.881,-0.041 l 4.973,12.37 c -1.893,1.895 -3.21,4.38 -3.608,7.18 -0.403,2.832 0.176,5.574 1.458,7.906 l -9.311,11.875 c -0.378,-0.034 -0.757,-0.057 -1.134,-0.057 -3.818,0 -7.305,1.738 -9.661,4.492 l -15.404,-2.192 c -0.384,-0.85 -0.853,-1.668 -1.427,-2.432 -2.042,-2.72 -5.021,-4.48 -8.387,-4.96 -0.174,-0.025 -0.35,-0.038 -0.526,-0.056 L 85.608,45.016 c 1.667,-1.833 2.823,-4.149 3.191,-6.737 0.479,-3.367 -0.381,-6.719 -2.423,-9.438 -2.042,-2.719 -5.021,-4.48 -8.387,-4.96 -0.597,-0.085 -1.204,-0.128 -1.804,-0.128 -4.53,0 -8.595,2.444 -10.853,6.136 L 52.993,28.132 C 51.705,23.362 47.687,19.567 42.494,18.828 41.897,18.743 41.29,18.7 40.69,18.7 c -6.292,0 -11.707,4.703 -12.595,10.939 -0.403,2.831 0.176,5.573 1.458,7.905 l -8.086,10.312 c -0.488,-0.129 -0.983,-0.24 -1.49,-0.313 -0.597,-0.085 -1.204,-0.128 -1.803,-0.128 -6.293,0 -11.708,4.703 -12.595,10.939 -0.479,3.366 0.381,6.718 2.423,9.438 2.042,2.719 5.021,4.48 8.387,4.96 0.597,0.085 1.204,0.128 1.804,0.128 6.293,0 11.708,-4.702 12.595,-10.938 0.394,-2.764 -0.13,-5.511 -1.454,-7.913 l 8.081,-10.305 c 0.486,0.13 0.98,0.24 1.49,0.313 0.597,0.085 1.204,0.128 1.804,0.128 4.53,0 8.595,-2.444 10.853,-6.136 L 63.9,39.785 c 1.288,4.771 5.306,8.565 10.499,9.304 0.503,0.072 1.012,0.106 1.519,0.118 l 5.537,13.773 c -2.037,1.924 -3.462,4.507 -3.879,7.437 -0.353,2.479 0.049,4.891 1.012,7.019 l -7.353,9.378 c -0.346,-0.079 -0.695,-0.154 -1.053,-0.205 -0.597,-0.085 -1.204,-0.128 -1.804,-0.128 -6.293,0 -11.708,4.703 -12.595,10.939 -0.989,6.948 3.86,13.408 10.811,14.398 0.355,0.051 0.713,0.081 1.071,0.102 l 4.868,12.109 c -1.893,1.895 -3.209,4.38 -3.608,7.179 -0.394,2.764 0.13,5.511 1.454,7.913 l -8.126,10.364 c -0.623,-0.188 -1.258,-0.345 -1.914,-0.438 -0.597,-0.085 -1.204,-0.128 -1.804,-0.128 -4.53,0 -8.595,2.444 -10.854,6.137 l -12.5,-1.78 c -1.288,-4.771 -5.306,-8.565 -10.5,-9.304 -0.597,-0.085 -1.204,-0.128 -1.803,-0.128 -6.293,0 -11.708,4.703 -12.595,10.939 -0.989,6.948 3.86,13.408 10.811,14.398 0.597,0.085 1.204,0.128 1.804,0.128 4.53,0 8.595,-2.445 10.853,-6.137 l 12.497,1.779 c 0.416,1.549 1.124,3.022 2.116,4.344 2.042,2.719 5.021,4.48 8.387,4.96 0.597,0.085 1.204,0.128 1.804,0.128 0.2,0 0.396,-0.018 0.594,-0.028 l 5.628,13.999 c -1.232,1.655 -2.085,3.615 -2.391,5.764 -0.479,3.366 0.381,6.718 2.423,9.438 2.042,2.719 5.021,4.48 8.387,4.96 0.597,0.085 1.204,0.128 1.804,0.128 6.292,0 11.707,-4.702 12.595,-10.938 0.479,-3.367 -0.381,-6.719 -2.423,-9.438 -2.042,-2.72 -5.021,-4.481 -8.387,-4.961 -0.597,-0.085 -1.204,-0.128 -1.804,-0.128 -0.496,0 -0.985,0.039 -1.468,0.096 l -5.354,-13.318 c 1.559,-1.797 2.638,-4.029 2.991,-6.511 0.35,-2.459 -0.022,-4.907 -1.039,-7.11 l 8.572,-10.932 c 0.348,0.079 0.698,0.152 1.055,0.203 0.597,0.085 1.204,0.128 1.803,0.128 4.531,0 8.596,-2.444 10.854,-6.136 l 13.522,1.925 c 0.416,1.55 1.123,3.022 2.116,4.344 2.042,2.719 5.021,4.48 8.387,4.96 0.476,0.068 0.957,0.101 1.436,0.115 l 4.885,12.152 c -1.893,1.895 -3.21,4.381 -3.608,7.181 -0.989,6.949 3.861,13.408 10.811,14.397 0.597,0.085 1.204,0.128 1.804,0.128 4.53,0 8.595,-2.444 10.854,-6.136 l 12.37,1.76 c 0.416,1.55 1.124,3.022 2.116,4.344 2.042,2.72 5.021,4.481 8.388,4.961 0.597,0.085 1.204,0.128 1.803,0.128 6.293,0 11.708,-4.703 12.595,-10.939 0.989,-6.949 -3.861,-13.408 -10.81,-14.397 -0.598,-0.085 -1.205,-0.128 -1.806,-0.128 -4.53,0 -8.594,2.444 -10.852,6.136 l -12.374,-1.761 c -1.288,-4.771 -5.306,-8.565 -10.5,-9.304 -0.475,-0.068 -0.957,-0.101 -1.436,-0.115 l -4.884,-12.151 c 1.893,-1.895 3.21,-4.38 3.608,-7.18 0.403,-2.832 -0.176,-5.574 -1.458,-7.906 l 8.027,-10.237 c 0.121,0.021 0.239,0.052 0.362,0.07 0.597,0.085 1.204,0.128 1.803,0.128 4.53,0 8.595,-2.444 10.854,-6.136 l 13.471,1.917 c 0.416,1.55 1.124,3.022 2.116,4.344 2.042,2.72 5.021,4.48 8.387,4.96 0.597,0.085 1.204,0.128 1.804,0.128 0.12,0 0.237,-0.013 0.357,-0.017 l 4.93,12.265 c -1.893,1.895 -3.209,4.38 -3.608,7.181 -0.989,6.95 3.861,13.409 10.811,14.398 0.597,0.085 1.204,0.128 1.804,0.128 6.292,0 11.707,-4.703 12.595,-10.938 0.984,-6.95 -3.866,-13.409 -10.816,-14.401 z m -65.323,-28.357 c -0.446,3.135 0.283,6.249 2.031,8.86 l -7.471,9.527 c -0.486,-0.13 -0.981,-0.24 -1.491,-0.313 -0.597,-0.085 -1.204,-0.128 -1.804,-0.128 -4.53,0 -8.595,2.445 -10.854,6.137 l -13.526,-1.925 c -1.288,-4.77 -5.306,-8.565 -10.499,-9.304 -0.503,-0.072 -1.012,-0.106 -1.519,-0.118 l -4.74,-11.791 c 2.064,-1.929 3.508,-4.53 3.928,-7.483 0.426,-2.99 -0.235,-5.886 -1.673,-8.298 l 6.654,-8.486 c 0.77,0.27 1.576,0.472 2.414,0.591 0.597,0.085 1.204,0.128 1.804,0.128 5.191,0 9.778,-3.204 11.725,-7.827 l 12.308,1.752 c 0.25,2.231 1.076,4.365 2.459,6.208 2.042,2.719 5.021,4.48 8.387,4.96 0.557,0.079 1.123,0.118 1.684,0.124 l 4.017,9.992 c -2.012,1.919 -3.419,4.485 -3.834,7.394 z"/></g></g></g></g></svg>