<svg xmlns="http://www.w3.org/2000/svg" xmlns:svg="http://www.w3.org/2000/svg" xmlns:xlink="http://www.w3.org/1999/xlink" id="svg5453" width="48" height="48" version="1.1"><defs id="defs5455"><linearGradient id="linearGradient4600"><stop id="stop4602" offset="0" stop-color="#016ed4" stop-opacity="1"/><stop id="stop4604" offset="1" stop-color="#00aefd" stop-opacity="1"/></linearGradient><linearGradient id="linearGradient4355"><stop id="stop4357" offset="0" stop-color="#d5dbff" stop-opacity="1"/><stop id="stop4359" offset="1" stop-color="#f9ffff" stop-opacity="1"/></linearGradient><linearGradient id="linearGradient4345" x1="401.175" x2="401.175" y1="549.914" y2="516.928" gradientUnits="userSpaceOnUse" xlink:href="#linearGradient4355"/><linearGradient id="linearGradient4379" x1="401.175" x2="401.175" y1="549.914" y2="516.928" gradientUnits="userSpaceOnUse" xlink:href="#linearGradient4355"/><linearGradient id="linearGradient4598" x1="17.917" x2="24.713" y1="39.034" y2=".523" gradientUnits="userSpaceOnUse" xlink:href="#linearGradient4600"/><linearGradient id="linearGradient4287" x1="17.917" x2="24.713" y1="39.034" y2=".523" gradientUnits="userSpaceOnUse" xlink:href="#linearGradient4309-6"/><linearGradient id="linearGradient4289" x1="17.917" x2="24.713" y1="39.034" y2=".523" gradientUnits="userSpaceOnUse" xlink:href="#linearGradient4600"/><linearGradient id="linearGradient4291" x1="17.917" x2="24.713" y1="39.034" y2=".523" gradientUnits="userSpaceOnUse" xlink:href="#linearGradient4600"/><linearGradient id="linearGradient4293" x1="17.917" x2="24.713" y1="39.034" y2=".523" gradientUnits="userSpaceOnUse" xlink:href="#linearGradient4600"/><linearGradient id="linearGradient4295" x1="17.917" x2="24.713" y1="39.034" y2=".523" gradientUnits="userSpaceOnUse" xlink:href="#linearGradient4600"/><linearGradient id="linearGradient4297" x1="17.917" x2="24.713" y1="39.034" y2=".523" gradientUnits="userSpaceOnUse" xlink:href="#linearGradient4600"/><linearGradient id="linearGradient4299" x1="17.917" x2="24.713" y1="39.034" y2=".523" gradientUnits="userSpaceOnUse" xlink:href="#linearGradient4600"/><linearGradient id="linearGradient4301" x1="17.917" x2="24.713" y1="39.034" y2=".523" gradientUnits="userSpaceOnUse" xlink:href="#linearGradient4600"/><linearGradient id="linearGradient4303" x1="17.917" x2="24.713" y1="39.034" y2=".523" gradientUnits="userSpaceOnUse" xlink:href="#linearGradient4600"/><linearGradient id="linearGradient4305" x1="17.917" x2="24.713" y1="39.034" y2=".523" gradientUnits="userSpaceOnUse" xlink:href="#linearGradient4600"/><linearGradient id="linearGradient4307" x1="17.917" x2="24.713" y1="39.034" y2=".523" gradientUnits="userSpaceOnUse" xlink:href="#linearGradient4600"/><linearGradient id="linearGradient4309" x1="17.917" x2="24.713" y1="39.034" y2=".523" gradientUnits="userSpaceOnUse" xlink:href="#linearGradient4600"/><linearGradient id="linearGradient4311" x1="17.917" x2="24.713" y1="39.034" y2=".523" gradientUnits="userSpaceOnUse" xlink:href="#linearGradient4600"/><linearGradient id="linearGradient4313" x1="17.917" x2="24.713" y1="39.034" y2=".523" gradientUnits="userSpaceOnUse" xlink:href="#linearGradient4600"/><linearGradient id="linearGradient4315" x1="17.917" x2="24.713" y1="39.034" y2=".523" gradientUnits="userSpaceOnUse" xlink:href="#linearGradient4600"/><linearGradient id="linearGradient4317" x1="17.917" x2="24.713" y1="39.034" y2=".523" gradientUnits="userSpaceOnUse" xlink:href="#linearGradient4600"/><linearGradient id="linearGradient4319" x1="17.917" x2="24.713" y1="39.034" y2=".523" gradientUnits="userSpaceOnUse" xlink:href="#linearGradient4600"/><linearGradient id="linearGradient4304" x1="401.175" x2="401.175" y1="549.914" y2="516.928" gradientUnits="userSpaceOnUse" xlink:href="#linearGradient4355"/><linearGradient id="linearGradient4306" x1="401.175" x2="401.175" y1="549.914" y2="516.928" gradientUnits="userSpaceOnUse" xlink:href="#linearGradient4355"/><linearGradient id="linearGradient4308" x1="401.175" x2="401.175" y1="549.914" y2="516.928" gradientUnits="userSpaceOnUse" xlink:href="#linearGradient4355"/><linearGradient id="linearGradient4310" x1="401.175" x2="401.175" y1="549.914" y2="516.928" gradientUnits="userSpaceOnUse" xlink:href="#linearGradient4355"/><linearGradient id="linearGradient4312" x1="401.175" x2="401.175" y1="549.914" y2="516.928" gradientUnits="userSpaceOnUse" xlink:href="#linearGradient4355"/><linearGradient id="linearGradient4314" x1="401.175" x2="401.175" y1="549.914" y2="516.928" gradientUnits="userSpaceOnUse" xlink:href="#linearGradient4355"/><linearGradient id="linearGradient4316" x1="401.175" x2="401.175" y1="549.914" y2="516.928" gradientUnits="userSpaceOnUse" xlink:href="#linearGradient4355"/><linearGradient id="linearGradient4318" x1="401.175" x2="401.175" y1="549.914" y2="516.928" gradientUnits="userSpaceOnUse" xlink:href="#linearGradient4355"/><linearGradient id="linearGradient4320" x1="401.175" x2="401.175" y1="549.914" y2="516.928" gradientUnits="userSpaceOnUse" xlink:href="#linearGradient4355"/><linearGradient id="linearGradient4322" x1="401.175" x2="401.175" y1="549.914" y2="516.928" gradientUnits="userSpaceOnUse" xlink:href="#linearGradient4355"/><linearGradient id="linearGradient4309-6"><stop id="stop4311" offset="0" stop-color="#00cafe" stop-opacity="1"/><stop id="stop4313" offset="1" stop-color="#1460f3" stop-opacity="1"/></linearGradient></defs><metadata id="metadata5458"/><g id="layer1" transform="translate(-384.57143,-499.798)"><g id="g4338" transform="matrix(1.1124629,0,0,1.1124629,-46.05517,-58.717878)"><g id="g4340" transform="matrix(0.89890638,0,0,0.89890638,72.361623,329.14436)"><g id="g4264"><g id="g4266"><g id="g4268" transform="matrix(0.13978724,0,0,0.13978724,320.16661,197.81106)"><g id="g4277" transform="matrix(1.016661,0,0,1.016661,-6.4869576,-2.1642199)"><g id="layer1-4" fill="url(#linearGradient4345)" fill-opacity="1" stroke="url(#linearGradient4379)" transform="matrix(11.494123,0,0,11.494123,-4217.9843,-5980.6616)"><g id="layer1-39" fill="url(#linearGradient4320)" fill-opacity="1" stroke="url(#linearGradient4322)" stroke-dasharray="none" stroke-miterlimit="4" stroke-width="1.385" transform="translate(-0.11123528,0.03124873)"><g id="layer1-3" fill="url(#linearGradient4316)" fill-opacity="1" stroke="url(#linearGradient4318)" stroke-dasharray="none" stroke-miterlimit="4" stroke-opacity="1" stroke-width="1.385" transform="translate(0.13524268,0.04517549)"><circle id="path3377" cx="400.571" cy="531.798" r="14" fill="url(#linearGradient4304)" fill-opacity="1" stroke="url(#linearGradient4306)" stroke-dasharray="none" stroke-dashoffset="0" stroke-miterlimit="4" stroke-opacity="1" stroke-width="1.385" opacity="1"/><circle id="circle4174" cx="400.571" cy="531.798" r="14" fill="url(#linearGradient4308)" fill-opacity="1" stroke="url(#linearGradient4310)" stroke-dasharray="none" stroke-dashoffset="0" stroke-miterlimit="4" stroke-opacity="1" stroke-width="1.385" opacity="1"/><circle id="ellipse4233" cx="400.571" cy="531.798" r="0" fill="url(#linearGradient4312)" fill-opacity="1" stroke="url(#linearGradient4314)" stroke-dasharray="none" stroke-dashoffset="0" stroke-miterlimit="4" stroke-opacity="1" stroke-width="1.385" opacity="1"/></g></g></g><g id="g4418" fill="url(#linearGradient4598)" fill-opacity="1" transform="matrix(6.3157549,0,0,6.3157549,271.42775,15.609621)"><g id="g4378" fill="url(#linearGradient4289)" fill-opacity="1"><path id="path4380" fill="url(#linearGradient4287)" fill-opacity="1" d="m 34.054,17.222 c -0.211,0.189 -0.522,0.199 -0.747,0.028 l -7.443,-5.664 -3.526,21.095 c -0.013,0.08 -0.042,0.153 -0.083,0.219 -0.707,3.024 -4.566,5.278 -9.104,5.278 -5.087,0 -9.226,-2.817 -9.226,-6.28 0,-3.463 4.138,-6.281 9.226,-6.281 2.089,0 4.075,0.467 5.689,1.324 L 23.504,0.488 c 0.042,-0.241 0.231,-0.434 0.476,-0.479 0.236,-0.041 0.484,0.067 0.61,0.28 l 9.58,16.191 c 0.145,0.246 0.096,0.553 -0.116,0.742 z"/></g></g></g></g></g></g></g></g></g></svg>