<svg xmlns="http://www.w3.org/2000/svg" xmlns:osb="http://www.openswatchbook.org/uri/2009/osb" xmlns:svg="http://www.w3.org/2000/svg" xmlns:xlink="http://www.w3.org/1999/xlink" id="svg2" version="1.1" viewBox="0 0 48 48"><metadata id="metadata69"/><defs id="defs4"><linearGradient id="linearGradient4232"><stop id="stop4234-0" offset="0" stop-color="#3889e9" stop-opacity="1"/><stop id="stop4236" offset="1" stop-color="#5ea5fb" stop-opacity="1"/></linearGradient><linearGradient id="linearGradient3426" x1="399.571" x2="399.571" y1="545.798" y2="517.798" gradientUnits="userSpaceOnUse" xlink:href="#linearGradient4232"/><linearGradient id="linearGradient4181" x1="399.994" x2="399.994" y1="545.139" y2="518.139" gradientUnits="userSpaceOnUse" xlink:href="#linearGradient4422-7"/><linearGradient id="linearGradient4422-7"><stop id="stop4424-7" offset="0" stop-color="#4c93dd" stop-opacity="1"/><stop id="stop4426-5" offset="1" stop-color="#56c5fd" stop-opacity="1"/></linearGradient><linearGradient id="linearGradient4207" osb:paint="gradient"><stop id="stop3371" offset="0" stop-color="#3498db" stop-opacity="1"/><stop id="stop3373" offset="1" stop-color="#3498db" stop-opacity="0"/></linearGradient><clipPath id="clipPath-779429932-7"><g id="g17-5-6" transform="translate(0,-1004.3622)"><rect id="rect19-3" width="46" height="46" x="1" y="1005.36" fill="#1890d0" rx="4"/></g></clipPath></defs><g id="layer1" transform="translate(-432.97821,-501.42512)"><g id="g4238" display="inline" transform="translate(225.81911,462.44565)"><g id="layer1-8" display="inline" transform="matrix(0.22655187,0,0,0.22655187,106.94841,54.31088)"><g id="g4370" transform="matrix(4.4140002,0,0,4.4140002,59.275211,39.357303)"><g id="g4182" transform="matrix(1.6428571,0,0,1.6428571,-26.955355,-11.937516)"><g id="layer1-1" display="inline" transform="translate(-316.73143,-524.68257)"><g id="layer1-9" transform="matrix(0.87499998,0,0,0.87499998,50.025937,66.450093)"><g id="g4284" transform="matrix(1.1428581,0,0,1.1428581,-57.327415,-75.995025)"><g id="layer1-3" stroke="none" stroke-dasharray="none" stroke-miterlimit="4" stroke-opacity="1" stroke-width="1.3" transform="translate(0.13524268,0.04517549)"><circle id="path3377" cx="400.571" cy="531.798" r="14" fill="url(#linearGradient4181)" fill-opacity="1" stroke="none" stroke-dasharray="none" stroke-dashoffset="0" stroke-miterlimit="4" stroke-opacity="1" stroke-width="1.3" opacity="1"/><circle id="circle4174" cx="400.571" cy="531.798" r="14" fill="#5ea5fb" fill-opacity="0" stroke="none" stroke-dasharray="none" stroke-dashoffset="0" stroke-miterlimit="4" stroke-opacity="1" stroke-width="1.3" opacity="1"/><circle id="ellipse4233" cx="400.571" cy="531.798" r="0" fill="url(#linearGradient3426)" fill-opacity="1" stroke="none" stroke-dasharray="none" stroke-dashoffset="0" stroke-miterlimit="4" stroke-opacity="1" stroke-width="1.3" opacity="1"/></g></g></g></g><g id="g4824" fill="#fff" fill-opacity=".855" transform="matrix(2.5166024,0,0,2.5166024,53.820337,5.0163147)"><g id="layer3" fill="#fff" fill-opacity=".855" transform="translate(-0.14504733,0.14512319)"><g id="g61" fill="#fff" fill-opacity=".855" display="inline" transform="matrix(0.28222222,0,0,0.28222222,5.4376763,-5.6574626)"><g id="g63" fill="#fff" fill-opacity=".855" clip-path="url(#clipPath-779429932-7)"><g id="g65" fill="#fff" fill-opacity=".855" transform="translate(0,-1)"><g id="g67" fill="#fff" fill-opacity=".855"><path id="path69" fill="#fff" fill-opacity=".855" fill-rule="nonzero" stroke="none" d="m 33.12,13.91 c -0.992,2.637 -2.809,5.449 -4.891,7.93 0,0 0.875,0.625 0.879,0.715 1.98,-2.68 3.512,-5.684 4.01,-8.645 m 0,0"/><path id="path71" fill="#fff" fill-opacity=".855" fill-rule="nonzero" stroke="none" d="m 27.348,36 c -1.805,-2.16 -3.355,-5.129 -4.488,-8.16 0,0 -0.977,0.449 -1.055,0.41 1.355,3.043 3.215,5.859 5.543,7.75 m 0,0"/><path id="path73" fill="#fff" fill-opacity=".855" fill-rule="nonzero" stroke="none" d="m 26.68,18.809 c 6.945,5.691 -3.828,13.758 -5.484,12.699 -0.625,-0.445 0.195,-1.742 0.426,-2.672 -0.875,1.01 -2.309,2.852 -1.508,3.867 2.516,2.875 15.395,-8.938 6.566,-13.895 m 0,0"/><path id="path75" fill="#fff" fill-opacity=".855" fill-rule="nonzero" stroke="none" d="m 26.21,28.15 c -8.441,3.059 -9.844,-10.336 -8.09,-11.215 0.703,-0.309 1.395,1.059 2.074,1.73 -0.414,-1.27 -1.266,-3.445 -2.547,-3.277 -3.75,0.691 -0.211,17.816 8.559,12.762 m 0,0"/><path id="path77" fill="#fff" fill-opacity=".855" fill-rule="nonzero" stroke="none" d="m 18.523,22.867 c 1.645,-8.836 13.891,-3.25 13.754,-1.289 -0.09,0.762 -1.617,0.668 -2.543,0.914 1.305,0.281 3.609,0.656 4.113,-0.539 1.309,-3.586 -15.23,-9.219 -15.324,0.914 m 0,0"/><path id="path79" fill="#fff" fill-opacity=".855" fill-rule="nonzero" stroke="none" d="m 22.406,26.785 c -1.848,-5.539 -2.223,-11.234 -0.141,-12 1.402,-0.43 2.82,2.906 4.363,3.57 -0.449,-1.621 -2.914,-6.574 -5.496,-6.344 -2.816,0.426 -2.578,8.254 0.281,15.266 0,0 1.07,-0.488 0.992,-0.488 m 0,0"/><path id="path81" fill="#fff" fill-opacity=".855" fill-rule="nonzero" stroke="none" d="m 27.535,22.75 c -3.91,4.332 -8.676,7.465 -10.371,6.03 -1.063,-1.01 1.141,-3.891 0.957,-5.559 -1.188,1.188 -4.281,5.77 -2.809,7.91 1.754,2.242 8.445,-1.813 13.13,-7.754 0,0 -0.949,-0.695 -0.91,-0.625 m 0,0"/><path id="path83" fill="#fff" fill-opacity=".855" fill-rule="nonzero" stroke="none" d="m 11,20.18 c 2.77,-0.504 6.113,-0.383 9.305,0.133 0,0 0.09,-1.074 0.164,-1.121 C 17.156,18.864 13.793,19.09 11,20.18 m 0,0"/><path id="path85" fill="#fff" fill-opacity=".855" fill-rule="nonzero" stroke="none" d="m 21.441,20.445 c 5.723,1.133 10.855,3.621 10.492,5.816 -0.324,1.43 -3.922,1.016 -5.258,2.031 1.625,0.41 7.145,0.715 8.223,-1.648 1.023,-2.656 -5.887,-6.324 -13.387,-7.305 0,0 -0.109,1.172 -0.07,1.105 m 0,0"/></g></g></g></g></g></g></g></g></g></g></g></svg>