<svg xmlns="http://www.w3.org/2000/svg" xmlns:osb="http://www.openswatchbook.org/uri/2009/osb" xmlns:svg="http://www.w3.org/2000/svg" xmlns:xlink="http://www.w3.org/1999/xlink" id="svg5453" width="48" height="48" version="1.1"><defs id="defs5455"><linearGradient id="linearGradient4316"><stop id="stop4318" offset="0" stop-color="#e3e3e3" stop-opacity="1"/><stop id="stop4320" offset="1" stop-color="#fcf9f9" stop-opacity="1"/></linearGradient><linearGradient id="linearGradient4475"><stop id="stop4477" offset="0" stop-color="#333538" stop-opacity="1"/><stop id="stop4479" offset="1" stop-color="#566069" stop-opacity="1"/></linearGradient><linearGradient id="linearGradient8467"><stop id="stop8469" offset="0" stop-color="#d3d3d3" stop-opacity="1"/><stop id="stop8471" offset="1" stop-color="#fcf9f9" stop-opacity="1"/></linearGradient><linearGradient id="linearGradient4481" x1="400.954" x2="400.954" y1="545.223" y2="517.223" gradientUnits="userSpaceOnUse" xlink:href="#linearGradient4475"/><linearGradient id="linearGradient6205" x1="2.819" x2="11.758" y1="1044.298" y2="1044.298" gradientUnits="userSpaceOnUse" xlink:href="#linearGradient4475"/><linearGradient id="linearGradient4424" x1="400.396" x2="400.396" y1="545.619" y2="517.619" gradientUnits="userSpaceOnUse" xlink:href="#linearGradient8467"/><linearGradient id="linearGradient4432" x1="404.714" x2="404.714" y1="546.298" y2="517.298" gradientUnits="userSpaceOnUse" xlink:href="#linearGradient4395"/><linearGradient id="linearGradient4261" x1="400.396" x2="400.396" y1="545.619" y2="517.619" gradientUnits="userSpaceOnUse" xlink:href="#linearGradient4316"/><linearGradient id="linearGradient4252" x1="401.208" x2="401.208" y1="545.811" y2="518.422" gradientUnits="userSpaceOnUse" xlink:href="#linearGradient4422-1"/><linearGradient id="linearGradient4254" x1="400.396" x2="400.396" y1="545.619" y2="517.619" gradientUnits="userSpaceOnUse" xlink:href="#linearGradient8467"/><linearGradient id="linearGradient4256" x1="2.819" x2="11.758" y1="1044.298" y2="1044.298" gradientUnits="userSpaceOnUse" xlink:href="#linearGradient4475"/><linearGradient id="linearGradient4395"><stop id="stop4397" offset="0" stop-color="#00cafe" stop-opacity="1"/><stop id="stop4399" offset="1" stop-color="#1460f3" stop-opacity="1"/></linearGradient><linearGradient id="linearGradient4183" x1="401.208" x2="401.208" y1="545.811" y2="518.422" gradientUnits="userSpaceOnUse" xlink:href="#linearGradient4422-1"/><linearGradient id="linearGradient4232"><stop id="stop4234-0" offset="0" stop-color="#3889e9" stop-opacity="1"/><stop id="stop4236" offset="1" stop-color="#5ea5fb" stop-opacity="1"/></linearGradient><style id="current-color-scheme" type="text/css"/><style id="current-color-scheme-8" type="text/css"/><style id="current-color-scheme-7" type="text/css"/><linearGradient id="linearGradient4207" osb:paint="gradient"><stop id="stop3371" offset="0" stop-color="#3498db" stop-opacity="1"/><stop id="stop3373" offset="1" stop-color="#3498db" stop-opacity="0"/></linearGradient><linearGradient id="linearGradient4422"><stop id="stop4424" offset="0" stop-color="#ff9300" stop-opacity="1"/><stop id="stop4426" offset="1" stop-color="#ffd702" stop-opacity="1"/></linearGradient><linearGradient id="linearGradient3764" x1="1" x2="47" gradientTransform="matrix(0,-1,1,0,-1.5e-6,47.999998)" gradientUnits="userSpaceOnUse"><stop id="stop4279" stop-color="#ec9b28" stop-opacity="1"/><stop id="stop4281" offset="1" stop-color="#eea53a" stop-opacity="1"/></linearGradient><clipPath id="clipPath-768031706"><g id="g4284" transform="translate(0,-1004.3622)"><path id="path4286" fill="#1890d0" d="m -24 13 c 0 1.105 -0.672 2 -1.5 2 -0.828 0 -1.5 -0.895 -1.5 -2 0 -1.105 0.672 -2 1.5 -2 0.828 0 1.5 0.895 1.5 2 z" transform="matrix(15.333333,0,0,11.5,414.99999,878.8622)"/></g></clipPath><clipPath id="clipPath-775271860"><g id="g4289" transform="translate(0,-1004.3622)"><path id="path4291" fill="#1890d0" d="m -24 13 c 0 1.105 -0.672 2 -1.5 2 -0.828 0 -1.5 -0.895 -1.5 -2 0 -1.105 0.672 -2 1.5 -2 0.828 0 1.5 0.895 1.5 2 z" transform="matrix(15.333333,0,0,11.5,414.99999,878.8622)"/></g></clipPath><linearGradient id="linearGradient4422-1"><stop id="stop4424-7" offset="0" stop-color="#f15f19" stop-opacity="1"/><stop id="stop4426-2" offset="1" stop-color="#fbb521" stop-opacity="1"/></linearGradient><linearGradient id="linearGradient3764-4" x1="1" x2="47" gradientTransform="matrix(0,-1,1,0,-1.5e-6,47.999998)" gradientUnits="userSpaceOnUse"><stop id="stop4269" stop-color="#e77301" stop-opacity="1"/><stop id="stop4271" offset="1" stop-color="#fc7b01" stop-opacity="1"/></linearGradient><clipPath id="clipPath-513567425"><g id="g4274" transform="translate(0,-1004.3622)"><path id="path4276" fill="#1890d0" d="m -24 13 c 0 1.105 -0.672 2 -1.5 2 -0.828 0 -1.5 -0.895 -1.5 -2 0 -1.105 0.672 -2 1.5 -2 0.828 0 1.5 0.895 1.5 2 z" transform="matrix(15.333333,0,0,11.5,414.99999,878.8622)"/></g></clipPath><clipPath id="clipPath-524116196"><g id="g4279" transform="translate(0,-1004.3622)"><path id="path4281" fill="#1890d0" d="m -24 13 c 0 1.105 -0.672 2 -1.5 2 -0.828 0 -1.5 -0.895 -1.5 -2 0 -1.105 0.672 -2 1.5 -2 0.828 0 1.5 0.895 1.5 2 z" transform="matrix(15.333333,0,0,11.5,414.99999,878.8622)"/></g></clipPath></defs><metadata id="metadata5458"/><g id="layer1" transform="translate(-384.57143,-499.798)"><g id="layer1-4" transform="matrix(1.626036,0,0,1.626036,-242.77204,-340.9246)"><g id="layer1-6" transform="matrix(0.96552004,0,0,0.96552004,13.642627,18.164012)"><g id="layer1-7" fill="url(#linearGradient4481)" fill-opacity="1" stroke="none" transform="translate(0.03984275,0.13336787)"><g id="layer1-3-5" fill="url(#linearGradient4424)" fill-opacity="1" stroke="none" stroke-dasharray="none" stroke-miterlimit="4" stroke-opacity="1" stroke-width="1.3" transform="translate(0.13524268,0.04517549)"><circle id="path3377" cx="400.571" cy="531.798" r="14" fill="url(#linearGradient4252)" fill-opacity="1" stroke="url(#linearGradient4183)" stroke-dasharray="none" stroke-dashoffset="0" stroke-miterlimit="4" stroke-opacity="1" stroke-width="1.3" opacity="1"/><circle id="circle4174" cx="400.571" cy="531.798" r="0" fill="url(#linearGradient4261)" fill-opacity="1" stroke="url(#linearGradient4432)" stroke-dasharray="none" stroke-dashoffset="0" stroke-miterlimit="4" stroke-opacity="1" stroke-width="1" opacity="1"/><circle id="ellipse4233" cx="400.571" cy="531.798" r="0" fill="url(#linearGradient4254)" fill-opacity="1" stroke="none" stroke-dasharray="none" stroke-dashoffset="0" stroke-miterlimit="4" stroke-opacity="1" stroke-width="1.3" opacity="1"/></g><path id="path4315-0" fill="#fff" fill-opacity=".85" fill-rule="nonzero" stroke="none" d="m 400.38951,524.20419 c -0.33313,-0.003 -0.74651,0 -1.27136,0.005 -1.95291,0.0172 -1.95291,0.0172 -2.40578,0.13949 -0.9255,0.24905 -1.90067,0.89301 -2.50069,1.59748 -0.66179,0.77645 -1.1497,1.65736 -1.1497,2.71725 0,0.50256 0,3.53828 0,5.44151 0.10446,4.11026 2.50068,5.28481 4.45868,5.38672 0.41785,0 5.7326,0 6.36955,0 2.43572,-0.19682 4.39626,-2.46565 4.45868,-4.10071 l 0,-2.27903 c 0.008,-1.88857 0.008,-2.54017 -0.20637,-2.79432 -0.22421,-0.26624 -0.393,-0.39045 -1.07008,-0.39045 -0.65925,0 -0.89556,0.0299 -1.11213,-0.1344 -0.27389,-0.20637 -0.34332,-0.3879 -0.3879,-0.97772 -0.14905,-2.11023 -1.46054,-3.79944 -3.41854,-4.4141 -0.48026,-0.15159 -0.7688,-0.19937 -1.76882,-0.20637 m -2.48094,3.83446 2.80387,0 c 0.56244,0 1.02041,0.45288 1.02041,1.02041 0,0.56497 -0.45543,0.89046 -1.02041,0.89046 l -2.80387,0 c -0.56498,0 -1.0204,-0.32612 -1.0204,-0.89046 0,-0.56498 0.45287,-1.02041 1.0204,-1.02041 m 0,5.7326 5.60584,0 c 0.56498,0 1.0204,0.32867 1.0204,0.89046 0,0.56498 -0.45287,1.0204 -1.0204,1.0204 l -5.60584,0 c -0.56498,0 -1.0204,-0.45287 -1.0204,-1.0204 0,-0.56243 0.45287,-0.89046 1.0204,-0.89046 m 0,0"/></g></g></g></g></svg>