<svg xmlns="http://www.w3.org/2000/svg" xmlns:osb="http://www.openswatchbook.org/uri/2009/osb" xmlns:svg="http://www.w3.org/2000/svg" xmlns:xlink="http://www.w3.org/1999/xlink" id="svg5453" width="48" height="48" version="1.1"><defs id="defs5455"><linearGradient id="linearGradient4143"><stop id="stop4145" offset="0" stop-color="#197cf1" stop-opacity="1"/><stop id="stop4147" offset="1" stop-color="#20bcfa" stop-opacity="1"/></linearGradient><linearGradient id="linearGradient4224" x1="400.571" x2="400.571" y1="545.798" y2="517.798" gradientTransform="matrix(1.4285729,0,0,1.4285729,-163.67403,-235.91408)" gradientUnits="userSpaceOnUse" xlink:href="#linearGradient4143"/><linearGradient id="linearGradient4207" osb:paint="gradient"><stop id="stop3371" offset="0" stop-color="#3498db" stop-opacity="1"/><stop id="stop3373" offset="1" stop-color="#3498db" stop-opacity="0"/></linearGradient></defs><metadata id="metadata5458"/><g id="layer1" transform="translate(-384.57143,-499.798)"><g id="layer1-4"><g id="g4280" transform="matrix(1.15,0,0,1.15,-61.285728,-78.569705)"><rect id="rect4222" width="40" height="40" x="388.571" y="503.798" fill="url(#linearGradient4224)" fill-opacity="1" stroke="none" opacity="1" ry="20"/></g></g><g id="g3" fill="#fff" fill-opacity=".847" transform="matrix(1.011437,0,0,1.011437,393.36751,509.14809)"><path id="path5" fill="#fff" fill-opacity=".847" d="M 16.963,7.376 C 16.681,4.58 14.228,2.178 11.622,2.178 8.96,2.178 6.513,3.099 4.565,4.629 4.048,4.613 3.457,4.67 2.84,4.818 1.103,5.233 -0.161,6.175 0.017,6.922 0.135,7.417 0.861,7.696 1.836,7.712 0.786,9.442 0.17,11.463 0.17,13.63 c 0,4.196 2.277,7.855 5.652,9.846 -0.336,0.364 -0.645,0.874 -0.861,1.484 -0.48,1.355 -0.318,2.646 0.359,2.885 0.677,0.24 1.613,-0.664 2.093,-2.018 0.102,-0.292 0.17,-0.579 0.215,-0.855 0.266,0.088 0.551,0.162 0.857,0.206 1.422,0.205 2.657,-0.205 2.76,-0.916 0.102,-0.71 -0.966,-1.454 -2.389,-1.659 C 8.247,22.515 7.677,22.545 7.211,22.659 7.19,22.585 6.353,21.063 6.28,19.882 6.186,18.345 6.644,16.827 7.641,15.655 8.031,15.199 8.5,14.832 9,14.52 c -0.09,1.204 0.189,2.143 0.757,2.285 0.745,0.187 1.701,-1.068 2.135,-2.799 0.037,-0.149 0.064,-0.295 0.091,-0.441 l 0.396,-0.069 c 2.811,-0.597 4.881,-3.182 4.584,-6.12 z"/><path id="path7" fill="#fff" fill-opacity=".847" d="m 13.1,22.686 c 0.282,2.796 2.735,5.198 5.341,5.198 2.662,0 5.109,-0.921 7.057,-2.451 0.518,0.016 1.108,-0.041 1.726,-0.188 1.737,-0.415 3.001,-1.358 2.823,-2.105 -0.118,-0.495 -0.844,-0.774 -1.819,-0.79 1.05,-1.73 1.666,-3.75 1.666,-5.917 0,-4.196 -2.277,-7.855 -5.652,-9.846 C 24.578,6.223 24.888,5.713 25.103,5.103 25.582,3.748 25.421,2.457 24.744,2.218 24.067,1.978 23.131,2.882 22.651,4.236 22.549,4.528 22.481,4.815 22.436,5.09 22.17,5.002 21.885,4.928 21.579,4.884 20.157,4.679 18.922,5.089 18.819,5.8 c -0.102,0.71 0.966,1.454 2.389,1.659 0.609,0.088 1.179,0.058 1.646,-0.056 0.021,0.074 0.858,1.596 0.931,2.777 0.094,1.537 -0.364,3.055 -1.361,4.227 -0.39,0.457 -0.858,0.825 -1.358,1.137 0.09,-1.204 -0.188,-2.143 -0.757,-2.285 -0.745,-0.186 -1.701,1.068 -2.135,2.799 -0.037,0.149 -0.064,0.295 -0.091,0.441 l -0.396,0.069 c -2.815,0.595 -4.884,3.181 -4.587,6.118 z"/></g></g></svg>