<svg xmlns="http://www.w3.org/2000/svg" xmlns:osb="http://www.openswatchbook.org/uri/2009/osb" xmlns:svg="http://www.w3.org/2000/svg" xmlns:xlink="http://www.w3.org/1999/xlink" id="svg5453" width="48" height="48" version="1.1"><defs id="defs5455"><linearGradient id="linearGradient4465" x1="1" x2="47" gradientTransform="matrix(0,-1,1,0,-1.5e-6,47.999998)" gradientUnits="userSpaceOnUse"><stop id="stop4467" stop-color="#2e2e2e" stop-opacity="1"/><stop id="stop4469" offset="1" stop-color="#505050" stop-opacity="1"/></linearGradient><linearGradient id="linearGradient4226"><stop id="stop4228" offset="0" stop-color="#197cf1" stop-opacity="1"/><stop id="stop4230" offset="1" stop-color="#20bcfa" stop-opacity="1"/></linearGradient><linearGradient id="linearGradient4224" x1="197.886" x2="183.327" y1="364.757" y2="12.946" gradientUnits="userSpaceOnUse" xlink:href="#linearGradient4226"/><linearGradient id="linearGradient4234" x1="172.174" x2="172.174" y1="352.174" y2="12.946" gradientUnits="userSpaceOnUse" xlink:href="#linearGradient4465"/><linearGradient id="linearGradient4236" x1="197.886" x2="183.327" y1="364.757" y2="12.946" gradientUnits="userSpaceOnUse" xlink:href="#linearGradient4465"/><linearGradient id="linearGradient4238" x1="197.886" x2="183.327" y1="364.757" y2="12.946" gradientUnits="userSpaceOnUse" xlink:href="#linearGradient4465"/><linearGradient id="linearGradient4207" osb:paint="gradient"><stop id="stop3371" offset="0" stop-color="#3498db" stop-opacity="1"/><stop id="stop3373" offset="1" stop-color="#3498db" stop-opacity="0"/></linearGradient><linearGradient id="linearGradient3764" x1="1" x2="47" gradientTransform="matrix(0,-1,1,0,-1.5e-6,47.999998)" gradientUnits="userSpaceOnUse"><stop id="stop4379" stop-color="#333" stop-opacity="1"/><stop id="stop4381" offset="1" stop-color="#3d3d3d" stop-opacity="1"/></linearGradient><clipPath id="clipPath-271313322"><g id="g4384" transform="translate(0,-1004.3622)"><path id="path4386" fill="#1890d0" d="m -24 13 c 0 1.105 -0.672 2 -1.5 2 -0.828 0 -1.5 -0.895 -1.5 -2 0 -1.105 0.672 -2 1.5 -2 0.828 0 1.5 0.895 1.5 2 z" transform="matrix(15.333333,0,0,11.5,414.99999,878.8622)"/></g></clipPath><clipPath id="clipPath-276814500"><g id="g4389" transform="translate(0,-1004.3622)"><path id="path4391" fill="#1890d0" d="m -24 13 c 0 1.105 -0.672 2 -1.5 2 -0.828 0 -1.5 -0.895 -1.5 -2 0 -1.105 0.672 -2 1.5 -2 0.828 0 1.5 0.895 1.5 2 z" transform="matrix(15.333333,0,0,11.5,414.99999,878.8622)"/></g></clipPath></defs><metadata id="metadata5458"/><g id="layer1" transform="translate(-384.57143,-499.798)"><ellipse id="path4182" cx="408.571" cy="524.86" fill="#fff" fill-opacity="1" fill-rule="evenodd" stroke="none" stroke-dasharray="none" stroke-dashoffset="0" stroke-linecap="round" stroke-linejoin="round" stroke-miterlimit="4" stroke-opacity="1" stroke-width="1.2" opacity="1" rx="11.625" ry="17.188"/><g id="g3" fill="url(#linearGradient4224)" fill-opacity="1" opacity="1" transform="matrix(0.12777778,0,0,0.12777778,385.57143,500.798)"><path id="path5" fill="url(#linearGradient4234)" fill-opacity="1" d="M 180.003,0 C 113.723,0 60,53.723 60,120 l 0,120 c 0,66.277 53.723,120 120.003,120 C 246.277,360 300,306.277 300,240 l 0,-120 C 300,53.723 246.277,0 180.003,0 Z m 69.364,224.128 c 2.705,2.168 4.279,5.448 4.279,8.915 0,3.467 -1.574,6.746 -4.279,8.915 l -71.652,57.439 c -2.067,1.657 -4.597,2.511 -7.148,2.511 -1.68,0 -3.369,-0.371 -4.942,-1.125 -3.961,-1.901 -6.481,-5.906 -6.481,-10.3 l 0,-82.024 -34.182,27.632 c -2.114,1.709 -4.653,2.541 -7.176,2.541 -3.331,0 -6.634,-1.45 -8.892,-4.243 -3.967,-4.907 -3.204,-12.101 1.703,-16.068 l 47.385,-38.306 -47.385,-38.306 c -4.907,-3.967 -5.67,-11.161 -1.703,-16.068 3.967,-4.908 11.162,-5.669 16.068,-1.703 l 34.182,27.632 0,-82.051 c 0,-4.394 2.52,-8.399 6.481,-10.3 3.962,-1.901 8.663,-1.362 12.091,1.386 l 71.652,57.441 c 2.705,2.168 4.279,5.448 4.279,8.914 0,3.466 -1.574,6.746 -4.279,8.915 L 194.322,180 l 55.045,44.128 z"/><polygon id="polygon7" fill="url(#linearGradient4236)" fill-opacity="1" points="223.954 126.959 181.994 93.321 181.994 160.596"/><polygon id="polygon9" fill="url(#linearGradient4238)" fill-opacity="1" points="223.954 233.042 181.994 199.404 181.994 266.679"/></g></g></svg>