<svg xmlns="http://www.w3.org/2000/svg" xmlns:svg="http://www.w3.org/2000/svg" xmlns:xlink="http://www.w3.org/1999/xlink" id="svg2985" width="48" height="48" version="1.1"><defs id="defs2987"><linearGradient id="linearGradient4286"><stop id="stop4288" offset="0" stop-color="#2574a8" stop-opacity="1"/><stop id="stop4290" offset="1" stop-color="#329ee4" stop-opacity="1"/></linearGradient><linearGradient id="linearGradient4278"><stop id="stop4280" offset="0" stop-color="#ff4c39" stop-opacity="1"/><stop id="stop4282" offset="1" stop-color="#c0392b" stop-opacity="1"/></linearGradient><linearGradient id="linearGradient4270"><stop id="stop4272" offset="0" stop-color="#c99adb" stop-opacity="1"/><stop id="stop4274" offset="1" stop-color="#763e8c" stop-opacity="1"/></linearGradient><linearGradient id="linearGradient4262"><stop id="stop4264" offset="0" stop-color="#ffa452" stop-opacity="1"/><stop id="stop4266" offset="1" stop-color="#d96905" stop-opacity="1"/></linearGradient><linearGradient id="linearGradient4254"><stop id="stop4256" offset="0" stop-color="#258e52" stop-opacity="1"/><stop id="stop4258" offset="1" stop-color="#009f44" stop-opacity=".784"/></linearGradient><linearGradient id="linearGradient4246"><stop id="stop4248" offset="0" stop-color="#1c7865" stop-opacity="1"/><stop id="stop4250" offset="1" stop-color="#00b993" stop-opacity="1"/></linearGradient><linearGradient id="linearGradient4178"><stop id="stop4180" offset="0" stop-color="#95a5a6" stop-opacity="1"/><stop id="stop4182" offset="1" stop-color="#b3bdbe" stop-opacity="1"/></linearGradient><linearGradient id="linearGradient5144" x1="23.782" x2="23.641" y1="46.374" y2="37.257" gradientUnits="userSpaceOnUse" xlink:href="#linearGradient4458"/><linearGradient id="linearGradient5235" x1="20" x2="20" y1="38" y2="13" gradientUnits="userSpaceOnUse" xlink:href="#linearGradient4298"/><linearGradient id="linearGradient4458"><stop id="stop4460" offset="0" stop-color="#95a5a6" stop-opacity="1"/><stop id="stop4462" offset="1" stop-color="#eff0f1" stop-opacity="1"/></linearGradient><linearGradient id="linearGradient5446" x1="12.322" x2="14.045" y1="49.613" y2="39.601" gradientTransform="translate(11.727699,-5.2911391)" gradientUnits="userSpaceOnUse" xlink:href="#linearGradient4178"/><linearGradient id="linearGradient5448" x1="12.347" x2="11.415" y1="50.474" y2="42.399" gradientTransform="translate(11.396674,-4.7042579)" gradientUnits="userSpaceOnUse" xlink:href="#linearGradient4178"/><linearGradient id="linearGradient4329-5" x1="23.544" x2="24" y1="33.452" y2="17" gradientTransform="translate(0,1)" gradientUnits="userSpaceOnUse" xlink:href="#linearGradient4159"/><linearGradient id="linearGradient4298"><stop id="stop4300" offset="0" stop-color="#e4bd27" stop-opacity="1"/><stop id="stop4302" offset="1" stop-color="#fff360" stop-opacity="1"/></linearGradient><linearGradient id="linearGradient4159"><stop id="stop4161" offset="0" stop-color="#2a2c2f" stop-opacity="1"/><stop id="stop4163" offset="1" stop-color="#424649" stop-opacity="1"/></linearGradient><linearGradient id="linearGradient4244" x1="22" x2="26" y1="42.5" y2="42.5" gradientUnits="userSpaceOnUse" xlink:href="#linearGradient4159"/><linearGradient id="linearGradient4252" x1="35.738" x2="31.304" y1="-4.943" y2="-12.292" gradientUnits="userSpaceOnUse" xlink:href="#linearGradient4246"/><linearGradient id="linearGradient4260" x1="6.348" x2="10.433" y1="20.151" y2="10.818" gradientUnits="userSpaceOnUse" xlink:href="#linearGradient4254"/><linearGradient id="linearGradient4268" x1="19" x2="29" y1="-7" y2="-7" gradientUnits="userSpaceOnUse" xlink:href="#linearGradient4262"/><linearGradient id="linearGradient4276" x1="19.025" x2="28.975" y1="-41.025" y2="-41.025" gradientUnits="userSpaceOnUse" xlink:href="#linearGradient4270"/><linearGradient id="linearGradient4284" x1="29.455" x2="33.57" y1="23.505" y2="30.432" gradientUnits="userSpaceOnUse" xlink:href="#linearGradient4278"/><linearGradient id="linearGradient4292" x1="7.565" x2="10.922" y1="54.103" y2="48.488" gradientUnits="userSpaceOnUse" xlink:href="#linearGradient4286"/></defs><metadata id="metadata2990"/><g id="layer1"><rect id="rect5106" width="4" height="3" x="22" y="41" fill="url(#linearGradient4244)" fill-opacity="1" stroke="none" stroke-dasharray="none" stroke-linecap="round" stroke-linejoin="bevel" stroke-miterlimit="4" stroke-opacity="1" stroke-width="6.2" opacity="1"/><circle id="path5020" cx="8.584" cy="15.644" r="5.256" fill="url(#linearGradient4260)" fill-opacity="1" stroke="none" stroke-dasharray="none" stroke-linecap="round" stroke-linejoin="bevel" stroke-miterlimit="4" stroke-opacity="1" stroke-width="6.2" opacity="1" transform="matrix(0.8660254,-0.5,0.5,0.8660254,0,0)"/><circle id="path5020-9" cx="9.245" cy="50.963" r="3.488" fill="url(#linearGradient4292)" fill-opacity="1" stroke="none" stroke-dasharray="none" stroke-linecap="round" stroke-linejoin="bevel" stroke-miterlimit="4" stroke-opacity="1" stroke-width="6.2" opacity="1" transform="matrix(0.8660254,-0.5,0.5,0.8660254,0,0)"/><circle id="path5020-4" cx="33.429" cy="-8.612" r="4.256" fill="url(#linearGradient4252)" fill-opacity="1" stroke="none" stroke-dasharray="none" stroke-linecap="round" stroke-linejoin="bevel" stroke-miterlimit="4" stroke-opacity="1" stroke-width="6.2" opacity="1" transform="matrix(0.8660254,0.5,-0.5,0.8660254,0,0)"/><circle id="path5020-9-7" cx="31.629" cy="26.758" r="4.012" fill="url(#linearGradient4284)" fill-opacity="1" stroke="none" stroke-dasharray="none" stroke-linecap="round" stroke-linejoin="bevel" stroke-miterlimit="4" stroke-opacity="1" stroke-width="6.2" opacity="1" transform="matrix(0.8660254,0.5,-0.5,0.8660254,0,0)"/><circle id="path5020-4-2" cx="24" cy="-41.025" r="4.975" fill="url(#linearGradient4276)" fill-opacity="1" stroke="none" stroke-dasharray="none" stroke-linecap="round" stroke-linejoin="bevel" stroke-miterlimit="4" stroke-opacity="1" stroke-width="6.2" opacity="1" transform="matrix(0,1,-1,0,0,0)"/><circle id="path5020-9-7-1" cx="24" cy="-7" r="5" fill="url(#linearGradient4268)" fill-opacity="1" stroke="none" stroke-dasharray="none" stroke-linecap="round" stroke-linejoin="bevel" stroke-miterlimit="4" stroke-opacity="1" stroke-width="6.2" opacity="1" transform="matrix(0,1,-1,0,0,0)"/><path id="path5099" fill="url(#linearGradient5235)" fill-opacity="1" stroke="none" stroke-dasharray="none" stroke-linecap="round" stroke-linejoin="bevel" stroke-miterlimit="4" stroke-opacity="1" stroke-width="6.2" d="m 24,14 c -5.522847,0 -10,4.477153 -10,10 0.002,3.974408 2,6.320312 4,8.160156 C 20,34 19,37 20,38 l 8,0 c 1,-1 0,-4 2,-5.847656 C 32,30.304688 33.994912,27.971572 34,24 34,18.477153 29.522847,14 24,14 Z" opacity="1"/><path id="rect5104" fill="url(#linearGradient5144)" fill-opacity="1" stroke="none" stroke-dasharray="none" stroke-linecap="round" stroke-linejoin="bevel" stroke-miterlimit="4" stroke-opacity="1" stroke-width="6.2" d="m 20,38 8,0 -1,1 0,3 -1,1 -4,0 -1,-1 0,-3 z" opacity="1"/><rect id="rect5150" width="8" height="1" x="19.838" y="41.093" fill="url(#linearGradient5448)" fill-opacity="1" stroke="none" stroke-dasharray="none" stroke-linecap="round" stroke-linejoin="bevel" stroke-miterlimit="4" stroke-opacity="1" stroke-width="6.2" opacity="1" ry=".5" transform="matrix(0.99999239,-0.00390154,0.00390154,0.99999239,0,0)"/><rect id="rect5150-0" width="8" height="1" x="20.687" y="38.575" fill="url(#linearGradient5446)" fill-opacity="1" stroke="none" stroke-dasharray="none" stroke-linecap="round" stroke-linejoin="bevel" stroke-miterlimit="4" stroke-opacity="1" stroke-width="6.2" opacity="1" ry=".5" transform="matrix(0.99984731,0.0174742,-0.0174742,0.99984731,0,0)"/><path id="path4324-1" fill="url(#linearGradient4329-5)" fill-opacity="1" fill-rule="evenodd" stroke="none" stroke-linecap="butt" stroke-linejoin="miter" stroke-opacity="1" stroke-width="1" d="m 25,18 -5,8 3,0 0,6 5,-8 -3,0 0,-6 z" display="inline"/></g></svg>