<svg xmlns="http://www.w3.org/2000/svg" xmlns:svg="http://www.w3.org/2000/svg" xmlns:xlink="http://www.w3.org/1999/xlink" id="svg2985" width="48" height="48" version="1.1"><defs id="defs2987"><linearGradient id="linearGradient4371-1" x1="17.483" x2="37.758" y1="4.716" y2="39.833" gradientTransform="matrix(-0.99376025,-0.00423137,0.00423137,0.98887429,47.822674,2.340235)" gradientUnits="userSpaceOnUse" xlink:href="#linearGradient4320"/><linearGradient id="linearGradient4371-1-7" x1="17.483" x2="37.758" y1="4.716" y2="39.833" gradientTransform="matrix(-0.99376025,-0.00423137,0.00423137,0.98887429,47.822674,31.340235)" gradientUnits="userSpaceOnUse" xlink:href="#linearGradient4320"/><linearGradient id="linearGradient4371-1-7-6" x1="17.483" x2="37.758" y1="4.716" y2="39.833" gradientTransform="matrix(-0.99376025,-0.00423137,0.00423137,0.98887429,47.822674,16.340235)" gradientUnits="userSpaceOnUse" xlink:href="#linearGradient4320"/><linearGradient id="linearGradient4419"><stop id="stop4421" offset="0" stop-color="#178b6f" stop-opacity="1"/><stop id="stop4423" offset="1" stop-color="#3cad9d" stop-opacity="1"/></linearGradient><linearGradient id="linearGradient4413"><stop id="stop4415" offset="0" stop-color="#178b6f" stop-opacity="1"/><stop id="stop4417" offset="1" stop-color="#4dd7c4" stop-opacity="1"/></linearGradient><linearGradient id="linearGradient4300-2" x1="17" x2="17" y1="1036.362" y2="1012.362" gradientTransform="matrix(1.0309825,0,0,1,-0.512598,0)" gradientUnits="userSpaceOnUse" xlink:href="#linearGradient4413"/><linearGradient id="linearGradient4308" x1="33.462" x2="34.117" y1="1013.622" y2="1037.208" gradientTransform="matrix(0.68964436,0,0,1,10.82717,0)" gradientUnits="userSpaceOnUse" xlink:href="#linearGradient4320"/><linearGradient id="linearGradient4286" x1="28" x2="28" y1="1037.362" y2="1011.362" gradientTransform="translate(-0.199659,0)" gradientUnits="userSpaceOnUse" xlink:href="#linearGradient4419"/><linearGradient id="linearGradient4320"><stop id="stop4322" offset="0" stop-color="#f6fbff" stop-opacity="1"/><stop id="stop4324" offset="1" stop-color="#eaeff2" stop-opacity="1"/></linearGradient></defs><metadata id="metadata2990"/><g id="layer1"><g id="g4163" transform="matrix(1.1526351,0,0,1.1526351,-3.6063387,-3.8472464)"><g id="layer1-4" transform="translate(0.24974411,-0.18030063)"><g id="g4389" transform="translate(-39.084616,0)"><g id="layer1-9" transform="matrix(-1,0,0,1,473.37783,-499.49967)"><g id="g4414" transform="matrix(-1.5263052,0,0,1.5263052,444.81962,-1040.1735)"><path id="path4248" fill="url(#linearGradient4300-2)" fill-opacity="1" fill-rule="evenodd" stroke="none" stroke-linecap="butt" stroke-linejoin="miter" stroke-opacity="1" stroke-width="1" d="m 11.563303,1036.9442 11.636697,0 -3.21e-4,-24.4983 -11.533282,3e-4 c -1.268259,-0.094 -1.782566,0.023 -1.782566,1.1721 l 0,22.0916 c -0.07966,1.261 0.446208,1.2343 1.679472,1.2343 z" opacity="1"/><path id="path4248-6" fill="url(#linearGradient4308)" fill-opacity="1" fill-rule="evenodd" stroke="none" stroke-linecap="butt" stroke-linejoin="miter" stroke-opacity="1" stroke-width="1" d="m 33.959911,1036.9362 -7.990815,0 0,-24.498 7.990815,0 c 0.848365,-0.094 0.916631,0.023 0.916631,1.1721 l 0,22.0916 c 0.05328,1.261 -0.09168,1.2343 -0.916631,1.2343 z" opacity="1"/><path id="path4248-6-0" fill="url(#linearGradient4286)" fill-opacity="1" fill-rule="evenodd" stroke="none" stroke-linecap="butt" stroke-linejoin="miter" stroke-opacity="1" stroke-width="1" d="M 31.957586,1038.1035 21.928,1036.932 l -2e-5,-24.4861 9.945926,-0.9324 c 1.230149,-0.094 1.296492,0.2446 1.296492,1.3937 l -0.08368,23.3688 c 0.07726,1.261 0.06707,1.8275 -1.129132,1.8275 z" opacity="1"/></g></g></g></g><g id="g4344" transform="translate(1.522843,-0.60913721)"><g id="g4298" transform="matrix(0.45503172,0,0,0.45503172,10.709812,14.500895)"><path id="rect4174-4-7-7-6" fill="#1c7160" fill-opacity="1" stroke="none" stroke-dasharray="none" stroke-linecap="round" stroke-linejoin="bevel" stroke-miterlimit="4" stroke-opacity="1" stroke-width="2" d="m 42,18 -35.9999999,0 -2,-2 L 44,16 Z" opacity="1"/><path id="rect4174-4-7-7" fill="#1c7160" fill-opacity="1" stroke="none" stroke-dasharray="none" stroke-linecap="round" stroke-linejoin="bevel" stroke-miterlimit="4" stroke-opacity="1" stroke-width="2" d="m 6,30 36,0 2,2 -39.9999999,0 z" opacity="1"/><path id="rect4174-4-7" fill="url(#linearGradient4371-1)" fill-opacity="1" stroke="none" stroke-dasharray="none" stroke-linecap="round" stroke-linejoin="bevel" stroke-miterlimit="4" stroke-opacity="1" stroke-width="2" d="M 4,4 44,4 44,16 4.0000001,16 Z" opacity="1"/><path id="rect4174-4-7-2" fill="url(#linearGradient4371-1-7)" fill-opacity="1" stroke="none" stroke-dasharray="none" stroke-linecap="round" stroke-linejoin="bevel" stroke-miterlimit="4" stroke-opacity="1" stroke-width="2" d="m 4,32 40,0 0,12 -39.9999999,0 z" opacity="1"/><path id="rect4174-4-7-2-8" fill="url(#linearGradient4371-1-7-6)" fill-opacity="1" stroke="none" stroke-dasharray="none" stroke-linecap="round" stroke-linejoin="bevel" stroke-miterlimit="4" stroke-opacity="1" stroke-width="2" d="M 4,18 35.636187,18 44,18 44,30 4.0000001,30 Z" opacity="1"/></g></g></g></g></svg>