<svg xmlns="http://www.w3.org/2000/svg" xmlns:svg="http://www.w3.org/2000/svg" xmlns:xlink="http://www.w3.org/1999/xlink" id="svg5453" width="48" height="48" version="1.1"><defs id="defs5455"><linearGradient id="linearGradient4246"><stop id="stop4248" offset="0" stop-color="#3e474d" stop-opacity="1"/><stop id="stop4250" offset="1" stop-color="#6a767c" stop-opacity="1"/></linearGradient><linearGradient id="linearGradient4320"><stop id="stop4322" offset="0" stop-color="#f6fbff" stop-opacity="1"/><stop id="stop4324" offset="1" stop-color="#eaeff2" stop-opacity="1"/></linearGradient><linearGradient id="linearGradient4537" x1="17" x2="17" y1="1036.362" y2="1012.362" gradientTransform="matrix(1.0309825,0,0,1,-0.512598,0)" gradientUnits="userSpaceOnUse" xlink:href="#linearGradient4246"/><linearGradient id="linearGradient4308-5" x1="33.462" x2="34.117" y1="1013.622" y2="1037.208" gradientTransform="matrix(0.65797542,0,0,1,11.931983,0)" gradientUnits="userSpaceOnUse" xlink:href="#linearGradient4320"/><linearGradient id="linearGradient4539" x1="28" x2="28" y1="1037.362" y2="1011.362" gradientTransform="translate(-0.199659,0)" gradientUnits="userSpaceOnUse" xlink:href="#linearGradient4300-7"/><linearGradient id="linearGradient4300-7"><stop id="stop4302-2" offset="0" stop-color="#3a4247" stop-opacity="1"/><stop id="stop4304-4" offset="1" stop-color="#4b545a" stop-opacity="1"/></linearGradient></defs><metadata id="metadata5458"/><g id="layer1" transform="translate(-384.57143,-499.798)"><g id="layer1-9" transform="matrix(1.1526352,0,0,1.1526352,-62.79174,-80.052953)"><g id="g4231" transform="matrix(1.5263052,0,0,1.5263052,376.31698,-1040.1258)"><g id="g4176" transform="translate(-1.048506,0)"><path id="path4248-6-8" fill="url(#linearGradient4308-5)" fill-opacity="1" fill-rule="evenodd" stroke="none" stroke-linecap="butt" stroke-linejoin="miter" stroke-opacity="1" stroke-width="1" d="m 34.002453,1036.9362 -7.623872,0 0,-24.498 7.623872,0 c 0.809407,-0.094 0.874539,0.023 0.874539,1.1721 l 0,22.0916 c 0.05083,1.261 -0.08747,1.2343 -0.874539,1.2343 z" opacity="1"/><path id="path4248-0" fill="url(#linearGradient4537)" fill-opacity="1" fill-rule="evenodd" stroke="none" stroke-linecap="butt" stroke-linejoin="miter" stroke-opacity="1" stroke-width="1" d="m 11.563303,1036.9442 11.636697,0 0,-24.498 -11.533603,0 c -1.268259,-0.094 -1.782566,0.023 -1.782566,1.1721 l 0,22.0916 c -0.07966,1.261 0.446208,1.2343 1.679472,1.2343 z" opacity="1"/><path id="path4248-6-0-3" fill="url(#linearGradient4539)" fill-opacity="1" fill-rule="evenodd" stroke="none" stroke-linecap="butt" stroke-linejoin="miter" stroke-opacity="1" stroke-width="1" d="M 31.957586,1038.1035 21.928,1036.932 l 0,-24.4859 9.945906,-0.9326 c 1.230149,-0.094 1.296492,0.2446 1.296492,1.3937 l -0.08368,23.3688 c 0.07726,1.261 0.06707,1.8275 -1.129132,1.8275 z" opacity="1"/><g id="layer1-5" fill="#d6d6d6" fill-opacity="1" transform="matrix(0.65517696,0,0,0.65517696,-279.53432,677.82191)"><g id="layer1-54" fill="#d6d6d6" fill-opacity="1" transform="translate(10.087706,2.8126936)"><path id="rect4151" fill="#d6d6d6" fill-opacity="1" stroke="none" stroke-opacity="1" d="m 460.96881,517.80386 -11.38614,0.006 -6.32132,10.94692 -2.21272,-3.83614 -0.006,0 -2.84653,0 0,1.42326 2.03204,0 3.03556,5.25664 0.82005,-1.42049 6.32409,-10.95248 9.13728,0 0,1.42326 1.42326,0 0,-2.84653 z m -7.11634,4.27537 c -2.36547,0 -4.2698,1.90433 -4.2698,4.2698 0,2.36547 1.90433,4.2698 4.2698,4.2698 1.10062,0 2.09097,-0.42441 2.84654,-1.1036 l 0,1.1036 1.42327,0 0,-4.2698 0,-4.2698 -1.42327,0 0,1.10359 c -0.75557,-0.67919 -1.74592,-1.10359 -2.84654,-1.10359 z m 0,1.42327 c 1.57698,0 2.84654,1.26955 2.84654,2.84653 0,1.57698 -1.26956,2.84654 -2.84654,2.84654 -1.57698,0 -2.84653,-1.26956 -2.84653,-2.84654 0,-1.57698 1.26955,-2.84653 2.84653,-2.84653 z m -15.64204,8.5257 c -0.009,0 -0.0142,0.31739 -0.0142,0.71163 0,0.39425 0.006,0.71163 0.0142,0.71163 l 22.74449,0 c 0.009,0 0.0142,-0.31738 0.0142,-0.71163 0,-0.39424 -0.006,-0.71163 -0.0142,-0.71163 l -22.74447,0 z m 9.96288,2.84653 c -0.009,0 -0.0142,0.31741 -0.0142,0.71164 0,0.39423 0.006,0.71163 0.0142,0.71163 l 2.81874,0 c 0.009,0 0.0142,-0.3174 0.0142,-0.71163 0,-0.39423 -0.006,-0.71164 -0.0142,-0.71164 l -2.81873,0 z" opacity="1"/></g></g></g></g></g></g></svg>