<svg xmlns="http://www.w3.org/2000/svg" xmlns:osb="http://www.openswatchbook.org/uri/2009/osb" xmlns:svg="http://www.w3.org/2000/svg" xmlns:xlink="http://www.w3.org/1999/xlink" id="svg5453" width="48" height="48" version="1.1"><defs id="defs5455"><linearGradient id="linearGradient4422"><stop id="stop4424" offset="0" stop-color="#197ff1" stop-opacity="1"/><stop id="stop4426" offset="1" stop-color="#21c6fb" stop-opacity="1"/></linearGradient><linearGradient id="linearGradient4232"><stop id="stop4234-0" offset="0" stop-color="#3889e9" stop-opacity="1"/><stop id="stop4236" offset="1" stop-color="#5ea5fb" stop-opacity="1"/></linearGradient><linearGradient id="linearGradient3426" x1="399.571" x2="399.571" y1="545.798" y2="517.798" gradientUnits="userSpaceOnUse" xlink:href="#linearGradient4232"/><linearGradient id="linearGradient4181" x1="399.994" x2="399.994" y1="545.139" y2="518.139" gradientUnits="userSpaceOnUse" xlink:href="#linearGradient4422"/><linearGradient id="linearGradient8311-06"><stop id="stop8313-6" offset="0" stop-color="#a9a3d4" stop-opacity="1"/><stop id="stop4462" offset=".47" stop-color="#87baff" stop-opacity="1"/><stop id="stop8315-2" offset="1" stop-color="#89ec85" stop-opacity="1"/></linearGradient><linearGradient id="linearGradient4207" osb:paint="gradient"><stop id="stop3371" offset="0" stop-color="#3498db" stop-opacity="1"/><stop id="stop3373" offset="1" stop-color="#3498db" stop-opacity="0"/></linearGradient><linearGradient id="linearGradient4422-0"><stop id="stop4424-8" offset="0" stop-color="#ff9300" stop-opacity="1"/><stop id="stop4426-5" offset="1" stop-color="#ffd702" stop-opacity="1"/></linearGradient><clipPath id="clipPath16" clipPathUnits="userSpaceOnUse"><path id="path18" d="m 0,706.465 1490.926,0 L 1490.926,0 0,0 0,706.465 Z"/></clipPath><clipPath id="clipPath24" clipPathUnits="userSpaceOnUse"><path id="path26" d="m 22.1953,686.117 1447.7347,0 0,-667.1902 -1447.7347,0 0,667.1902 z"/></clipPath><clipPath id="clipPath4534" clipPathUnits="userSpaceOnUse"><rect id="rect4536" width="32" height="32" x="8" y="8" fill="url(#linearGradient4538)" fill-opacity="1" stroke="none" ry="16"/></clipPath><clipPath id="clipPath4584" clipPathUnits="userSpaceOnUse"><rect id="rect4586" width="32" height="32" x="392.571" y="507.798" fill="url(#linearGradient4588)" fill-opacity="1" stroke="none" ry="16"/></clipPath><clipPath id="clipPath4550" clipPathUnits="userSpaceOnUse"><rect id="rect4552" width="32" height="32" x="392.571" y="507.798" fill="url(#linearGradient4554)" fill-opacity="1" stroke="none" ry="16"/></clipPath><clipPath id="clipPath4568" clipPathUnits="userSpaceOnUse"><rect id="rect4570" width="32" height="32" x="392.571" y="507.798" fill="url(#linearGradient4572)" fill-opacity="1" stroke="none" ry="16"/></clipPath><clipPath id="clipPath4528" clipPathUnits="userSpaceOnUse"><rect id="rect4530" width="32" height="32" x="8" y="8" fill="url(#linearGradient4532)" fill-opacity="1" stroke="none" ry="16"/></clipPath><clipPath id="clipPath4578" clipPathUnits="userSpaceOnUse"><rect id="rect4580" width="32" height="32" x="392.571" y="507.798" fill="url(#linearGradient4582)" fill-opacity="1" stroke="none" ry="16"/></clipPath><clipPath id="clipPath4562" clipPathUnits="userSpaceOnUse"><rect id="rect4564" width="32" height="32" x="392.571" y="507.798" fill="url(#linearGradient4566)" fill-opacity="1" stroke="none" ry="16"/></clipPath><clipPath id="clipPath4544" clipPathUnits="userSpaceOnUse"><rect id="rect4546" width="32" height="32" x="392.571" y="507.798" fill="url(#linearGradient4548)" fill-opacity="1" stroke="none" ry="16"/></clipPath><clipPath id="clipPath4390" clipPathUnits="userSpaceOnUse"><rect id="rect4392" width="32" height="32" x="8" y="8" fill="url(#linearGradient4532)" fill-opacity="1" stroke="none" ry="16"/></clipPath><clipPath id="clipPath4407" clipPathUnits="userSpaceOnUse"><rect id="rect4409" width="32" height="32" x="392.571" y="507.798" fill="url(#linearGradient4582)" fill-opacity="1" stroke="none" ry="16"/></clipPath><clipPath id="clipPath4424" clipPathUnits="userSpaceOnUse"><rect id="rect4426" width="32" height="32" x="392.571" y="507.798" fill="url(#linearGradient4566)" fill-opacity="1" stroke="none" ry="16"/></clipPath><clipPath id="clipPath4441" clipPathUnits="userSpaceOnUse"><rect id="rect4443" width="32" height="32" x="392.571" y="507.798" fill="url(#linearGradient4548)" fill-opacity="1" stroke="none" ry="16"/></clipPath><clipPath id="clipPath4528-1" clipPathUnits="userSpaceOnUse"><rect id="rect4530-7" width="32" height="32" x="8" y="8" fill="url(#linearGradient4532)" fill-opacity="1" stroke="none" ry="16"/></clipPath><clipPath id="clipPath4578-8" clipPathUnits="userSpaceOnUse"><rect id="rect4580-7" width="32" height="32" x="392.571" y="507.798" fill="url(#linearGradient4582)" fill-opacity="1" stroke="none" ry="16"/></clipPath><clipPath id="clipPath4562-8" clipPathUnits="userSpaceOnUse"><rect id="rect4564-8" width="32" height="32" x="392.571" y="507.798" fill="url(#linearGradient4566)" fill-opacity="1" stroke="none" ry="16"/></clipPath><clipPath id="clipPath4544-1" clipPathUnits="userSpaceOnUse"><rect id="rect4546-1" width="32" height="32" x="392.571" y="507.798" fill="url(#linearGradient4548)" fill-opacity="1" stroke="none" ry="16"/></clipPath></defs><metadata id="metadata5458"/><g id="layer1" transform="translate(-384.57143,-499.798)"><g id="layer1-9" transform="matrix(1.4375,0,0,1.4375,-167.32475,-240.70215)"><g id="g4284" transform="matrix(1.1428581,0,0,1.1428581,-57.327415,-75.995025)"><g id="layer1-3" stroke="none" stroke-dasharray="none" stroke-miterlimit="4" stroke-opacity="1" stroke-width="1.3" transform="translate(0.13524268,0.04517549)"><circle id="path3377" cx="400.571" cy="531.798" r="14" fill="url(#linearGradient4181)" fill-opacity="1" stroke="none" stroke-dasharray="none" stroke-dashoffset="0" stroke-miterlimit="4" stroke-opacity="1" stroke-width="1.3" opacity="1"/><circle id="circle4174" cx="400.571" cy="531.798" r="14" fill="#5ea5fb" fill-opacity="0" stroke="none" stroke-dasharray="none" stroke-dashoffset="0" stroke-miterlimit="4" stroke-opacity="1" stroke-width="1.3" opacity="1"/><circle id="ellipse4233" cx="400.571" cy="531.798" r="0" fill="url(#linearGradient3426)" fill-opacity="1" stroke="none" stroke-dasharray="none" stroke-dashoffset="0" stroke-miterlimit="4" stroke-opacity="1" stroke-width="1.3" opacity="1"/></g></g></g><g id="layer1-1" fill="#fff" fill-opacity=".851" transform="translate(-3.1518786e-6,1.7367089e-6)"><g id="layer1-4" fill="#fff" fill-opacity=".851" transform="translate(392.24401,-502.51656)"><g id="g4413" fill="#fff" fill-opacity=".851" stroke-dasharray="none" stroke-miterlimit="4" stroke-width="1.317" transform="matrix(1.138587,0,0,1.138587,-3.4562036,-142.80276)"><g id="g4312" fill="#fff" fill-opacity=".851" transform="matrix(1.0539376,0,0,1.0539376,-0.91298719,-55.411661)"><g id="layer1-0" fill="#fff" fill-opacity=".851" transform="matrix(0.83333358,0,0,0.83333358,-408.28112,587.90224)"><g id="layer1-65" fill="#fff" fill-opacity=".851" transform="matrix(0.6553178,0,0,0.6553178,243.01621,183.47168)"><g id="star60" fill="#fff" fill-opacity=".851" transform="matrix(0.30685481,0,0,0.30685481,387.70515,503.85228)"><path id="path2034" fill="#fff" fill-opacity=".851" d="m 135.785,50.457 c 0,-2.01 -1.52,-3.259 -4.564,-3.748 L 90.324,40.762 71.993,3.692 c -1.031,-2.227 -2.363,-3.34 -3.992,-3.34 -1.629,0 -2.96,1.113 -3.992,3.34 L 45.677,40.762 4.778,46.709 c -3.041,0.489 -4.562,1.738 -4.562,3.748 0,1.141 0.679,2.445 2.037,3.911 l 29.656,28.841 -7.006,40.736 c -0.109,0.761 -0.163,1.305 -0.163,1.63 0,1.141 0.285,2.104 0.855,2.893 0.57,0.788 1.425,1.181 2.566,1.181 0.978,0 2.064,-0.324 3.259,-0.977 L 68,109.443 l 36.583,19.229 c 1.142,0.652 2.228,0.977 3.258,0.977 1.089,0 1.916,-0.392 2.486,-1.181 0.569,-0.788 0.854,-1.752 0.854,-2.893 0,-0.706 -0.027,-1.249 -0.082,-1.63 l -7.007,-40.736 29.574,-28.841 c 1.414,-1.412 2.119,-2.716 2.119,-3.911 l 0,0 z"/></g></g></g></g></g></g></g></g></svg>