<svg xmlns="http://www.w3.org/2000/svg" xmlns:svg="http://www.w3.org/2000/svg" xmlns:xlink="http://www.w3.org/1999/xlink" id="svg5453" width="48" height="48" version="1.1"><defs id="defs5455"><linearGradient id="linearGradient4580"><stop id="stop4582" offset="0" stop-color="#51a3e4" stop-opacity="1"/><stop id="stop4584" offset="1" stop-color="#abdcec" stop-opacity="1"/></linearGradient><linearGradient id="linearGradient4189"><stop id="stop4191" offset="0" stop-color="#51a3e4" stop-opacity="1"/><stop id="stop4193" offset="1" stop-color="#acddee" stop-opacity="1"/></linearGradient><linearGradient id="linearGradient4188"><stop id="stop4190" offset="0" stop-color="#dfe3e4" stop-opacity="1"/><stop id="stop4192" offset="1" stop-color="#f5f9fa" stop-opacity="1"/></linearGradient><linearGradient id="linearGradient4257"><stop id="stop4259" offset="0" stop-color="#337ed4" stop-opacity="1"/><stop id="stop4261" offset="1" stop-color="#5ab8f2" stop-opacity="1"/></linearGradient><linearGradient id="linearGradient4249"><stop id="stop4251" offset="0" stop-color="#79a8ca" stop-opacity="1"/><stop id="stop4253" offset="1" stop-color="#9ecbda" stop-opacity="1"/></linearGradient><linearGradient id="linearGradient4230"><stop id="stop4232" offset="0" stop-color="#3d88e1" stop-opacity="1"/><stop id="stop4234" offset="1" stop-color="#7abbe5" stop-opacity="1"/></linearGradient><linearGradient id="linearGradient4236" x1="37.663" x2="37.663" y1="34.217" y2="15.367" gradientUnits="userSpaceOnUse" xlink:href="#linearGradient4230"/><linearGradient id="linearGradient4255" x1="9" x2="8.531" y1="37.938" y2="13.591" gradientTransform="translate(384.57143,499.8605)" gradientUnits="userSpaceOnUse" xlink:href="#linearGradient4189"/><linearGradient id="linearGradient4263" x1="23.004" x2="23.101" y1="18" y2="3.371" gradientTransform="translate(384.56752,499.798)" gradientUnits="userSpaceOnUse" xlink:href="#linearGradient4257"/><linearGradient id="linearGradient4407" x1="408.525" x2="408.571" y1="530.588" y2="514.798" gradientUnits="userSpaceOnUse" xlink:href="#linearGradient4580"/><linearGradient id="linearGradient4161" x1="409.571" x2="409.571" y1="543.798" y2="502.798" gradientTransform="matrix(0.95,0,0,0.95,20.428574,26.189901)" gradientUnits="userSpaceOnUse" xlink:href="#linearGradient4249"/><linearGradient id="linearGradient4194" x1="408.571" x2="408.571" y1="532.798" y2="514.798" gradientUnits="userSpaceOnUse" xlink:href="#linearGradient4188"/></defs><metadata id="metadata5458"/><g id="layer1" transform="translate(-384.57143,-499.798)"><g id="g4178" transform="matrix(1.2,0,0,1.2,-81.602286,-104.7416)"><rect id="rect4145" width="38" height="38" x="389.571" y="504.798" fill="url(#linearGradient4161)" fill-opacity="1" stroke="none" opacity="1" ry="19"/><path id="rect3345" fill="#649cc1" fill-opacity="1" d="M 24.472656,14.699219 C 24.211041,14.699219 24,14.91026 24,15.171875 c 0,0.261615 0.211041,0.472656 0.472656,0.472656 l 17.054688,0 c 0.03442,0 0.06536,-0.0126 0.09766,-0.01953 L 41.857,15 41,14.699219 Z" opacity=".8" transform="translate(384.57143,499.798)"/><path id="path4217" fill="url(#linearGradient4255)" fill-opacity="1" fill-rule="evenodd" stroke="none" stroke-linecap="butt" stroke-linejoin="miter" stroke-opacity="1" stroke-width="1" d="m 392.57534,511.798 c -2.50446,3.34009 -4.00391,7.54795 -4.00391,12.0625 0,11.08 8.92001,19.9375 20,19.9375 l 7,-14.3375 -13,-2.6625 z" opacity="1"/><path id="path4209" fill="url(#linearGradient4236)" fill-opacity="1" fill-rule="evenodd" stroke="none" stroke-linecap="butt" stroke-linejoin="miter" stroke-opacity="1" stroke-width="1" d="M 25,15 31,29.6 24,44 c 11.079995,0 20,-8.920005 20,-20 0,-3.245276 -0.781986,-6.295183 -2.142578,-9 z" transform="translate(384.57143,499.798)"/><path id="path4219" fill="url(#linearGradient4263)" fill-opacity="1" fill-rule="evenodd" stroke="none" stroke-linecap="butt" stroke-linejoin="miter" stroke-opacity="1" stroke-width="1" d="m 408.56752,503.798 c -6.56544,0 -12.3539,3.14646 -15.99609,8.00391 l 9.99609,14.99609 13,2.6 -6,-14.6 16.85743,0 c -3.28473,-6.52995 -10.02271,-11 -17.85743,-11 z"/><rect id="rect4211" width="18" height="18" x="399.571" y="514.798" fill="url(#linearGradient4194)" fill-opacity="1" stroke="none" opacity="1" ry="9"/><rect id="rect4213" width="14" height="14" x="401.571" y="516.798" fill="url(#linearGradient4407)" fill-opacity="1" stroke="none" opacity="1" ry="7"/></g></g></svg>