<svg xmlns="http://www.w3.org/2000/svg" xmlns:osb="http://www.openswatchbook.org/uri/2009/osb" xmlns:svg="http://www.w3.org/2000/svg" xmlns:xlink="http://www.w3.org/1999/xlink" id="svg5453" width="48" height="48" version="1.1"><defs id="defs5455"><linearGradient id="linearGradient4149" x1="400.571" x2="400.571" y1="545.798" y2="517.798" gradientUnits="userSpaceOnUse" xlink:href="#linearGradient4422"/><linearGradient id="linearGradient4207" osb:paint="gradient"><stop id="stop3371" offset="0" stop-color="#3498db" stop-opacity="1"/><stop id="stop3373" offset="1" stop-color="#3498db" stop-opacity="0"/></linearGradient><linearGradient id="linearGradient4422"><stop id="stop4424" offset="0" stop-color="#ff9300" stop-opacity="1"/><stop id="stop4426" offset="1" stop-color="#ffd702" stop-opacity="1"/></linearGradient></defs><metadata id="metadata5458"/><g id="layer1" transform="translate(-384.57143,-499.798)"><g id="g3" transform="matrix(0.13843294,0,0,0.13843294,416.5917,530.60461)"><g id="layer1-07" transform="matrix(7.2237142,0,0,7.2237142,-2235.4188,-3907.0815)"><g id="g4227" transform="translate(-18.529541,0.82112905)"><g id="g4164" transform="matrix(1.6428556,0,0,1.6428556,-192.54839,-355.93981)"><rect id="rect4130" width="28" height="28" x="386.571" y="517.798" fill="url(#linearGradient4149)" fill-opacity="1" stroke="none" opacity="1" ry="14" transform="translate(-88.606563,9.4430399)"/></g><g id="text4164" fill="#342500" fill-opacity="1" stroke="none" stroke-linecap="butt" stroke-linejoin="miter" stroke-opacity="1" stroke-width="1" font-family="sans-serif" font-size="25" font-style="normal" font-weight="normal" letter-spacing="0" transform="matrix(1.3604328,0,0,1.3604328,22.915015,-216.10104)" word-spacing="0" style="line-height:125%"><path id="path4169" fill="#342500" fill-opacity="1" d="m 219.91153,559.33575 6.375,-13.975 c 0.85,-2.075 -2.05,-3.275 -3.05,-1.375 l -2.225,5.025 -2.825,6.6 -2.875,-6.6 -2.225,-5.025 c -1.1,-2.075 -4.05,-0.45 -3.075,1.525 l 6.6,13.825 c 0.95,1.95 2.725,1.575 3.3,0 z" font-family="Multicolore" font-stretch="normal" font-style="normal" font-variant="normal" font-weight="bold" style="-inkscape-font-specification:'Multicolore Bold'"/></g></g></g></g></g></svg>