<svg xmlns="http://www.w3.org/2000/svg" xmlns:svg="http://www.w3.org/2000/svg" xmlns:xlink="http://www.w3.org/1999/xlink" id="svg5453" width="48" height="48" version="1.1"><defs id="defs5455"><linearGradient id="linearGradient5263"><stop id="stop5265" offset="0" stop-color="#a0d5ff" stop-opacity="1"/><stop id="stop5267" offset="1" stop-color="#a0d5ff" stop-opacity="1"/></linearGradient><linearGradient id="linearGradient3786"><stop id="stop3788" offset="0" stop-color="#646464" stop-opacity="1"/><stop id="stop3790" offset="1" stop-color="#8c8c8c" stop-opacity="1"/></linearGradient><linearGradient id="linearGradient3776"><stop id="stop3778" offset="0" stop-color="#e7f0f4" stop-opacity="1"/><stop id="stop3780" offset="1" stop-color="#f4faff" stop-opacity="1"/></linearGradient><linearGradient id="linearGradient6227" x1="-989.666" x2="-1003.636" y1="433.284" y2="317.355" gradientUnits="userSpaceOnUse" xlink:href="#linearGradient5263"/><linearGradient id="linearGradient6235" x1="-1092.912" x2="-1060.255" y1="203.099" y2="104.853" gradientTransform="matrix(0.99785327,0,0,0.98074826,-3.6883867,11.350053)" gradientUnits="userSpaceOnUse" xlink:href="#linearGradient3776"/><linearGradient id="linearGradient4656" x1="215.66" x2="576.341" y1="396" y2="396" gradientUnits="userSpaceOnUse" xlink:href="#linearGradient3776"/><linearGradient id="linearGradient4662" x1="215.66" x2="576.341" y1="396" y2="396" gradientUnits="userSpaceOnUse" xlink:href="#linearGradient3786"/><linearGradient id="linearGradient4664" x1="215.66" x2="576.341" y1="396" y2="396" gradientUnits="userSpaceOnUse" xlink:href="#linearGradient3786"/><linearGradient id="linearGradient4666" x1="215.66" x2="576.341" y1="396" y2="396" gradientUnits="userSpaceOnUse" xlink:href="#linearGradient3786"/><linearGradient id="linearGradient4668" x1="215.66" x2="576.341" y1="396" y2="396" gradientUnits="userSpaceOnUse" xlink:href="#linearGradient3786"/><linearGradient id="linearGradient4670" x1="215.66" x2="576.341" y1="396" y2="396" gradientUnits="userSpaceOnUse" xlink:href="#linearGradient3786"/><linearGradient id="linearGradient4672" x1="215.66" x2="576.341" y1="396" y2="396" gradientUnits="userSpaceOnUse" xlink:href="#linearGradient3786"/><linearGradient id="linearGradient4674" x1="215.66" x2="576.341" y1="396" y2="396" gradientUnits="userSpaceOnUse" xlink:href="#linearGradient3786"/><linearGradient id="linearGradient4676" x1="215.66" x2="576.341" y1="396" y2="396" gradientUnits="userSpaceOnUse" xlink:href="#linearGradient3786"/><linearGradient id="linearGradient4678" x1="215.66" x2="576.341" y1="396" y2="396" gradientUnits="userSpaceOnUse" xlink:href="#linearGradient3786"/><linearGradient id="linearGradient4680" x1="215.66" x2="576.341" y1="396" y2="396" gradientUnits="userSpaceOnUse" xlink:href="#linearGradient3786"/><linearGradient id="linearGradient4682" x1="215.66" x2="576.341" y1="396" y2="396" gradientUnits="userSpaceOnUse" xlink:href="#linearGradient3786"/><linearGradient id="linearGradient4684" x1="215.66" x2="576.341" y1="396" y2="396" gradientUnits="userSpaceOnUse" xlink:href="#linearGradient3786"/><linearGradient id="linearGradient4686" x1="215.66" x2="576.341" y1="396" y2="396" gradientUnits="userSpaceOnUse" xlink:href="#linearGradient3786"/><linearGradient id="linearGradient4688" x1="215.66" x2="576.341" y1="396" y2="396" gradientUnits="userSpaceOnUse" xlink:href="#linearGradient3786"/><linearGradient id="linearGradient4690" x1="215.66" x2="576.341" y1="396" y2="396" gradientUnits="userSpaceOnUse" xlink:href="#linearGradient3786"/><linearGradient id="linearGradient4257" x1="215.66" x2="576.341" y1="396" y2="396" gradientUnits="userSpaceOnUse" xlink:href="#linearGradient3776"/><linearGradient id="linearGradient4218" x1="215.66" x2="576.341" y1="396" y2="396" gradientUnits="userSpaceOnUse" xlink:href="#linearGradient3776"/><linearGradient id="linearGradient4220" x1="215.66" x2="576.341" y1="396" y2="396" gradientUnits="userSpaceOnUse" xlink:href="#linearGradient3776"/><linearGradient id="linearGradient4230" x1="215.66" x2="576.341" y1="396" y2="396" gradientUnits="userSpaceOnUse" xlink:href="#linearGradient3776"/></defs><metadata id="metadata5458"/><g id="layer1" transform="translate(-384.57143,-499.798)"><flowRoot id="flowRoot4567" fill="#000" fill-opacity="1" stroke="none" stroke-linecap="butt" stroke-linejoin="miter" stroke-opacity="1" stroke-width="1" font-family="sans-serif" font-size="10" font-style="normal" font-weight="normal" letter-spacing="0" word-spacing="0" xml:space="preserve" style="line-height:125%"><flowRegion id="flowRegion4569"><rect id="rect4571" width="135.55" height="166.64" x="-1370.425" y="-469.329"/></flowRegion><flowPara id="flowPara4573"/></flowRoot><g id="g5280" fill="url(#linearGradient4656)" fill-opacity="1" transform="matrix(0.03118649,0.01147538,-0.01147538,0.03118649,403.39045,508.41917)"><g id="g4211" fill="url(#linearGradient4220)" transform="matrix(1.0300127,0,0,1.0300127,4.7396004,-32.870465)"><g id="g4224" fill="url(#linearGradient4230)" transform="matrix(0.99998442,0,0,0.99998442,-0.00138445,0.01999388)"><rect id="rect6189-3" width="89.573" height="112.43" x="-1101.888" y="121.729" fill="url(#linearGradient6235)" fill-opacity="1" stroke="none" stroke-dasharray="none" stroke-dashoffset="0" stroke-linecap="round" stroke-linejoin="round" stroke-miterlimit="4" stroke-opacity="1" stroke-width=".3" opacity="1" ry="2.744" transform="matrix(8.1448921,-6.4726732,6.4301474,8.1785065,7713.6743,-7881.8571)"/><rect id="rect6189" width="99.825" height="122.919" x="-1045.699" y="316.3" fill="url(#linearGradient6227)" fill-opacity="1" stroke="none" stroke-dasharray="none" stroke-dashoffset="0" stroke-linecap="round" stroke-linejoin="round" stroke-miterlimit="4" stroke-opacity="1" stroke-width=".3" opacity="1" ry="3" transform="matrix(9.2275174,-4.8049646,4.8864291,9.184638,7713.6743,-7881.8571)"/><g id="g5240" fill="#6b8fab" fill-opacity="1"><path id="path5242" fill="#6b8fab" fill-opacity="1" d="m 507.4253,185.73451 c -13.46503,2.44385 -22.43355,14.8397 -19.98792,28.31456 l 64.09391,353.14172 c 6.5442,36.05694 -1.12472,67.95519 -21.74885,97.72577 -20.62412,29.77057 -48.22779,48.23887 -84.71077,54.86039 -35.62204,6.46527 -68.31213,-0.61071 -98.08155,-21.23403 -29.76923,-20.62234 -47.88192,-48.7418 -54.34719,-84.36384 L 268.44014,480.82764 255.51139,409.5934 223.65953,234.09747 l -15.29349,-84.26339 -0.15822,-0.87175 -0.15804,-0.87078 c -4.33589,-23.8897 0.69435,-46.22502 14.4375,-66.332469 13.91809,-20.35873 32.97218,-33.351235 57.74251,-37.846957 24.76147,-4.494115 47.1759,0.972007 67.34986,15.143159 19.93269,13.995411 32.49208,33.138273 36.82797,57.027977 l 0.15804,0.87077 0.31466,1.73368 71.50779,393.99038 c 4.49232,24.75163 -11.14671,47.33749 -35.9072,51.83142 -23.89069,4.33608 -47.06948,-12.0948 -51.40538,-35.98451 L 331.62612,322.18793 c -2.44385,-13.46503 -14.76157,-21.9975 -28.22561,-19.55382 -13.46403,2.44367 -21.99767,14.76058 -19.55382,28.2256 l 37.44941,206.33708 c 4.65037,25.6224 17.28468,45.76598 38.31966,60.34696 21.04365,14.57838 43.90586,19.39815 69.5381,14.746 25.62241,-4.65037 45.51372,-17.45944 60.34598,-38.31948 14.48194,-20.36553 19.47825,-43.47016 14.66966,-69.96432 l -71.82244,-395.72406 -0.15804,-0.87077 C 425.40928,70.056395 406.01872,40.484792 374.80697,18.667856 343.33151,-3.3309101 308.83363,-11.082928 271.47889,-4.3031825 234.1153,2.47817 204.54191,21.858884 182.80569,53.515372 161.25247,84.908954 153.49061,119.40862 160.27035,156.76334 l 0.15805,0.87077 15.45171,85.13515 31.85185,175.49592 12.92875,71.23425 24.20243,133.34947 c 8.90912,49.08706 33.85279,87.63428 74.39612,115.72057 40.54333,28.08629 85.39696,37.89505 134.48402,28.98593 49.08707,-8.90912 88.65343,-33.13729 117.0973,-74.19677 28.44324,-41.05733 37.65852,-86.69458 28.90584,-134.91972 L 535.65269,205.29817 c -2.44564,-13.47486 -14.76336,-22.00733 -28.22739,-19.56366 z"/></g></g></g></g></g></svg>