<svg xmlns="http://www.w3.org/2000/svg" xmlns:osb="http://www.openswatchbook.org/uri/2009/osb" xmlns:svg="http://www.w3.org/2000/svg" xmlns:xlink="http://www.w3.org/1999/xlink" id="svg5453" width="48" height="48" version="1.1"><defs id="defs5455"><linearGradient id="linearGradient4290"><stop id="stop4292-2" offset="0" stop-color="#7cbaf8" stop-opacity="1"/><stop id="stop4294-7" offset="1" stop-color="#f4fcff" stop-opacity="1"/></linearGradient><linearGradient id="linearGradient4207" osb:paint="gradient"><stop id="stop3371" offset="0" stop-color="#3498db" stop-opacity="1"/><stop id="stop3373" offset="1" stop-color="#3498db" stop-opacity="0"/></linearGradient><linearGradient id="linearGradient4303-3"><stop id="stop4305-6" offset="0" stop-color="#197cf1" stop-opacity="1"/><stop id="stop4307-4" offset="1" stop-color="#21c9fb" stop-opacity="1"/></linearGradient><linearGradient id="linearGradient4232"><stop id="stop4234" offset="0" stop-color="#333" stop-opacity="1"/><stop id="stop4236" offset="1" stop-color="#515151" stop-opacity="1"/></linearGradient><linearGradient id="linearGradient4699" x1="392.152" x2="392.152" y1="555.299" y2="507.299" gradientUnits="userSpaceOnUse" xlink:href="#linearGradient4232"/><linearGradient id="linearGradient4707" x1="367.684" x2="414.681" y1="531.394" y2="531.394" gradientUnits="userSpaceOnUse" xlink:href="#linearGradient4303-3"/><linearGradient id="linearGradient4715" x1="412.846" x2="412.846" y1="545.521" y2="500.808" gradientUnits="userSpaceOnUse" xlink:href="#linearGradient4290"/><linearGradient id="linearGradient4388" x1="392.152" x2="392.152" y1="555.299" y2="507.299" gradientUnits="userSpaceOnUse" xlink:href="#linearGradient4303-3"/><linearGradient id="linearGradient4390" x1="387.181" x2="387.181" y1="555.637" y2="507.637" gradientUnits="userSpaceOnUse" xlink:href="#linearGradient4303-3"/><linearGradient id="linearGradient4404" x1="392.152" x2="392.152" y1="555.299" y2="507.299" gradientUnits="userSpaceOnUse" xlink:href="#linearGradient4232"/><linearGradient id="linearGradient4406" x1="367.684" x2="414.681" y1="531.394" y2="531.394" gradientUnits="userSpaceOnUse" xlink:href="#linearGradient4303-3"/><linearGradient id="linearGradient4408" x1="392.152" x2="392.152" y1="555.299" y2="507.299" gradientUnits="userSpaceOnUse" xlink:href="#linearGradient4232"/><linearGradient id="linearGradient4410" x1="367.684" x2="414.681" y1="531.394" y2="531.394" gradientUnits="userSpaceOnUse" xlink:href="#linearGradient4303-3"/><linearGradient id="linearGradient4412" x1="392.152" x2="392.152" y1="555.299" y2="507.299" gradientUnits="userSpaceOnUse" xlink:href="#linearGradient4232"/><linearGradient id="linearGradient4414" x1="367.684" x2="414.681" y1="531.394" y2="531.394" gradientUnits="userSpaceOnUse" xlink:href="#linearGradient4303-3"/><linearGradient id="linearGradient4416" x1="412.846" x2="412.846" y1="545.521" y2="500.808" gradientUnits="userSpaceOnUse" xlink:href="#linearGradient4290"/><linearGradient id="linearGradient4420" x1="412.846" x2="412.846" y1="545.521" y2="500.808" gradientUnits="userSpaceOnUse" xlink:href="#linearGradient4290"/><linearGradient id="linearGradient4422" x1="412.846" x2="412.846" y1="545.521" y2="500.808" gradientUnits="userSpaceOnUse" xlink:href="#linearGradient4290"/><linearGradient id="linearGradient4424" x1="412.846" x2="412.846" y1="545.521" y2="500.808" gradientUnits="userSpaceOnUse" xlink:href="#linearGradient4290"/><linearGradient id="linearGradient4426" x1="412.846" x2="412.846" y1="545.521" y2="500.808" gradientUnits="userSpaceOnUse" xlink:href="#linearGradient4290"/><linearGradient id="linearGradient4428" x1="412.846" x2="412.846" y1="545.521" y2="500.808" gradientUnits="userSpaceOnUse" xlink:href="#linearGradient4290"/></defs><metadata id="metadata5458"/><g id="layer1" transform="translate(-384.57143,-499.798)"><g id="g4540" transform="translate(71.678321,-5.4684736)"><g id="g4390" transform="matrix(1.0213371,0,0,1.0213371,-7.1875824,-11.296418)"><g id="layer1-1" fill="url(#linearGradient4699)" fill-opacity="1" stroke="url(#linearGradient4707)" transform="translate(-54.258545,-2.0327626)"><g id="g4571" fill="url(#linearGradient4412)" fill-opacity="1" stroke="url(#linearGradient4414)" transform="translate(49.048438,-3.2132208)"><g id="layer1-3" fill="url(#linearGradient4408)" fill-opacity="1" stroke="url(#linearGradient4410)" transform="translate(-49.078091,2.8757704)"><circle id="path4515" cx="391.212" cy="531.731" r="22.498" fill="url(#linearGradient4388)" fill-opacity="1" stroke="url(#linearGradient4390)" stroke-dasharray="none" stroke-linecap="round" stroke-linejoin="round" stroke-miterlimit="4" stroke-opacity="1" stroke-width="2" opacity="1"/></g></g></g><g id="g4511" fill="url(#linearGradient4715)" fill-opacity="1" transform="matrix(0.6709518,0,0,0.6709518,60.893212,177.24832)"><path id="path4168" fill="url(#linearGradient4416)" fill-opacity="1" fill-rule="evenodd" stroke="none" stroke-linecap="butt" stroke-linejoin="miter" stroke-opacity="1" stroke-width="1" d="m 428.57143,503.798 -10,20 5,1 z m -34,14 -9,8 10,-4 7,22 5,-3 23,2 -8,-15 -4,-1 -13,9 -7,-17 z"/><path id="path4170" fill="url(#linearGradient4420)" fill-opacity="1" fill-rule="evenodd" stroke="none" stroke-linecap="butt" stroke-linejoin="miter" stroke-opacity="1" stroke-width="1" d="m 403.57143,527.798 3,5 11,-6 -8,-2 z"/><path id="path4174" fill="url(#linearGradient4422)" fill-opacity="1" fill-rule="evenodd" stroke="none" stroke-linecap="butt" stroke-linejoin="miter" stroke-opacity="1" stroke-width="1" d="m 394.57143,517.798 -1.41992,4.9668 2.41992,-0.9668 -1,-4 z"/><path id="path4176" fill="url(#linearGradient4424)" fill-opacity="1" fill-rule="evenodd" stroke="none" stroke-linecap="butt" stroke-linejoin="miter" stroke-opacity="1" stroke-width="1" d="m 405.42299,535.43862 -1.77929,7.7168 3.92773,-2.35742 0.14648,0.0137 -1.85937,-5.21094 -0.28711,0.19727 -0.14844,-0.35938 z"/><path id="path4180" fill="url(#linearGradient4426)" fill-opacity="1" fill-rule="evenodd" stroke="none" stroke-linecap="butt" stroke-linejoin="miter" stroke-opacity="1" stroke-width="1" d="m 409.57143,524.798 -6,3 3,5 0.4082,-0.22266 2.5918,-7.77734 z"/><path id="path4191" fill="url(#linearGradient4428)" fill-opacity="1" fill-rule="evenodd" stroke="none" stroke-linecap="butt" stroke-linejoin="miter" stroke-opacity="1" stroke-width="1" d="m 418.57143,526.798 -4.68359,3.24219 16.64062,12.67773 -7.95703,-14.91992 -4,-1 z"/></g></g></g></g></svg>