<svg xmlns="http://www.w3.org/2000/svg" xmlns:svg="http://www.w3.org/2000/svg" xmlns:xlink="http://www.w3.org/1999/xlink" id="svg5453" width="48" height="48" version="1.1"><defs id="defs5455"><linearGradient id="linearGradient4181" x1="399.994" x2="399.994" y1="545.139" y2="518.139" gradientUnits="userSpaceOnUse" xlink:href="#linearGradient4231"/><linearGradient id="linearGradient4231"><stop id="stop4233" offset="0" stop-color="#1a85f2" stop-opacity="1"/><stop id="stop4235-7" offset="1" stop-color="#20bafa" stop-opacity="1"/></linearGradient></defs><metadata id="metadata5458"/><g id="layer1" transform="translate(-384.57143,-499.798)"><g id="g4902" stroke="none" stroke-dasharray="none" stroke-miterlimit="4" stroke-opacity="1" stroke-width="1.3" transform="matrix(1.7142909,0,0,1.7142909,-278.03144,-387.80532)"><circle id="path3377" cx="400.571" cy="531.798" r="14" fill="url(#linearGradient4181)" fill-opacity="1" stroke="none" stroke-dasharray="none" stroke-dashoffset="0" stroke-miterlimit="4" stroke-opacity="1" stroke-width=".941" opacity="1"/><g id="g3771" fill="#fff" fill-opacity=".85" fill-rule="nonzero" stroke="none" stroke-miterlimit="4" transform="matrix(0.15891447,0,0,0.15891447,392.33064,523.1461)"><g id="g3773" fill="#fff" fill-opacity=".85"><path id="path3775" fill="#fff" fill-opacity=".85" d="M 86.068,0 C 61.466,0 56.851,35.041 70.691,35.041 84.529,35.041 110.671,0 86.068,0 Z"/><path id="path3777" fill="#fff" fill-opacity=".85" d="M 45.217,30.699 C 52.586,31.149 60.671,2.577 46.821,4.374 32.976,6.171 37.845,30.249 45.217,30.699 Z"/><path id="path3779" fill="#fff" fill-opacity=".85" d="M 11.445,48.453 C 16.686,46.146 12.12,23.581 3.208,29.735 -5.7,35.89 6.204,50.759 11.445,48.453 Z"/><path id="path3781" fill="#fff" fill-opacity=".85" d="M 26.212,36.642 C 32.451,35.37 32.793,9.778 21.667,14.369 10.539,18.961 19.978,37.916 26.212,36.642 l 0,0 z"/><path id="path3783" fill="#fff" fill-opacity=".85" d="m 58.791,93.913 c 1.107,8.454 -6.202,12.629 -13.36,7.179 C 22.644,83.743 83.16,75.088 79.171,51.386 75.86,31.712 15.495,37.769 8.621,68.553 3.968,89.374 27.774,118.26 52.614,118.26 c 12.22,0 26.315,-11.034 28.952,-25.012 C 83.58,82.589 57.867,86.86 58.791,93.913 l 0,0 z"/></g></g></g></g></svg>