<svg xmlns="http://www.w3.org/2000/svg" xmlns:svg="http://www.w3.org/2000/svg" xmlns:xlink="http://www.w3.org/1999/xlink" id="svg5453" width="32" height="32" version="1.1"><defs id="defs5455"><linearGradient id="linearGradient4429"><stop id="stop4431" offset="0" stop-color="#e6e6e6" stop-opacity="1"/><stop id="stop4433" offset="1" stop-color="#fff" stop-opacity="1"/></linearGradient><linearGradient id="linearGradient4851"><stop id="stop4853" offset="0" stop-color="#474a4d" stop-opacity="1"/><stop id="stop4855" offset="1" stop-color="#a5aaae" stop-opacity="1"/></linearGradient><linearGradient id="linearGradient5263"><stop id="stop5265" offset="0" stop-color="#a0d5ff" stop-opacity="1"/><stop id="stop5267" offset="1" stop-color="#a0d5ff" stop-opacity="1"/></linearGradient><clipPath id="clipPath4458"><path id="use4460" d="m 69.626,12.145 -0.052,0 c -22.727,-0.292 -46.472,4.077 -46.709,4.122 -2.424,0.451 -4.946,2.974 -5.397,5.397 -0.044,0.237 -4.414,23.983 -4.122,46.71 -0.292,22.777 4.078,46.523 4.122,46.761 0.451,2.423 2.974,4.945 5.398,5.398 0.237,0.044 23.982,4.413 46.709,4.121 22.779,0.292 46.524,-4.077 46.761,-4.121 2.423,-0.452 4.946,-2.976 5.398,-5.399 0.044,-0.236 4.413,-23.981 4.121,-46.709 0.292,-22.777 -4.077,-46.523 -4.121,-46.761 -0.453,-2.423 -2.976,-4.946 -5.398,-5.397 -0.238,-0.045 -23.984,-4.414 -46.71,-4.122 z"/></clipPath><linearGradient id="linearGradient4237"><stop id="stop4239" offset="0" stop-color="#ff594d" stop-opacity="1"/><stop id="stop4241" offset="1" stop-color="#ff7f76" stop-opacity="1"/></linearGradient><linearGradient id="linearGradient4210"><stop id="stop4212" offset="0" stop-color="#ff584c" stop-opacity="1"/><stop id="stop4214" offset="1" stop-color="#ff8077" stop-opacity="1"/></linearGradient><linearGradient id="linearGradient4179"><stop id="stop4181" offset="0" stop-color="#ffee5e" stop-opacity="1"/><stop id="stop4183" offset="1" stop-color="#feff8b" stop-opacity="1"/></linearGradient><linearGradient id="linearGradient4210-3"><stop id="stop4212-1" offset="0" stop-color="#ffce69" stop-opacity="1"/><stop id="stop4214-6" offset="1" stop-color="#ffce54" stop-opacity="1"/></linearGradient><linearGradient id="linearGradient4237-0"><stop id="stop4239-8" offset="0" stop-color="#ffee5e" stop-opacity="1"/><stop id="stop4241-9" offset="1" stop-color="#feff9f" stop-opacity="1"/></linearGradient><linearGradient id="linearGradient4237-2"><stop id="stop4239-7" offset="0" stop-color="#ffa0a6" stop-opacity="1"/><stop id="stop4241-2" offset="1" stop-color="#ffa0a5" stop-opacity="1"/></linearGradient><linearGradient id="linearGradient8311"><stop id="stop8313" offset="0" stop-color="#ce89ff" stop-opacity="1"/><stop id="stop8315" offset="1" stop-color="#e898ff" stop-opacity="1"/></linearGradient><linearGradient id="linearGradient4237-8"><stop id="stop4239-2" offset="0" stop-color="#cf8aff" stop-opacity="1"/><stop id="stop4241-3" offset="1" stop-color="#eaa0ff" stop-opacity="1"/></linearGradient><linearGradient id="linearGradient8311-3"><stop id="stop8313-0" offset="0" stop-color="#ffcc6b" stop-opacity="1"/><stop id="stop8315-1" offset="1" stop-color="#ffcf98" stop-opacity="1"/></linearGradient><linearGradient id="linearGradient4237-3"><stop id="stop4239-0" offset="0" stop-color="#ffcc6e" stop-opacity="1"/><stop id="stop4241-7" offset="1" stop-color="#ffe4a0" stop-opacity="1"/></linearGradient><linearGradient id="linearGradient8311-31"><stop id="stop8313-2" offset="0" stop-color="#f089ff" stop-opacity="1"/><stop id="stop8315-6" offset="1" stop-color="#ffadea" stop-opacity="1"/></linearGradient><linearGradient id="linearGradient4237-6"><stop id="stop4239-22" offset="0" stop-color="#f18bfe" stop-opacity="1"/><stop id="stop4241-0" offset="1" stop-color="#fcc3ff" stop-opacity="1"/></linearGradient><linearGradient id="linearGradient8467"><stop id="stop8469" offset="0" stop-color="#b9b9b9" stop-opacity="1"/><stop id="stop8471" offset="1" stop-color="#d1d1d1" stop-opacity="1"/></linearGradient><linearGradient id="linearGradient8311-5"><stop id="stop8313-7" offset="0" stop-color="#b9b9b9" stop-opacity="1"/><stop id="stop8315-3" offset="1" stop-color="#d2d2d2" stop-opacity="1"/></linearGradient><linearGradient id="linearGradient4237-4"><stop id="stop4239-9" offset="0" stop-color="#bababa" stop-opacity="1"/><stop id="stop4241-37" offset="1" stop-color="#c8c8c8" stop-opacity="1"/></linearGradient><linearGradient id="linearGradient8467-7"><stop id="stop8469-4" offset="0" stop-color="#3ec896" stop-opacity="1"/><stop id="stop8471-7" offset="1" stop-color="#66d9af" stop-opacity="1"/></linearGradient><linearGradient id="linearGradient8311-1"><stop id="stop8313-9" offset="0" stop-color="#494949" stop-opacity="1"/><stop id="stop8315-5" offset="1" stop-color="#616774" stop-opacity="1"/></linearGradient><linearGradient id="linearGradient-1" x1="209.957" x2="209.957" y1="0" y2="116.694" gradientTransform="scale(1.1288018,0.8858951)" gradientUnits="userSpaceOnUse"><stop id="stop4884" offset="0%" stop-color="#A7A7A7"/><stop id="stop4886" offset="100%" stop-color="#8D8D8D"/></linearGradient><linearGradient id="linearGradient-2" x1="193" x2="193" y1="411.584" y2="105.4" gradientTransform="scale(1.2279807,0.81434507)" gradientUnits="userSpaceOnUse"><stop id="stop4889" offset="0%" stop-color="#707070"/><stop id="stop4891" offset="100%" stop-color="#ABABAB"/></linearGradient><linearGradient id="linearGradient-3" x1="193" x2="193" y1="70.609" y2="457.423" gradientTransform="scale(1.2279807,0.81434507)" gradientUnits="userSpaceOnUse"><stop id="stop4894" offset="0%" stop-color="#000" stop-opacity="0"/><stop id="stop4896" offset="100%" stop-color="#000" stop-opacity=".19"/></linearGradient><linearGradient id="linearGradient4232"><stop id="stop4234" offset="0" stop-color="#333" stop-opacity="1"/><stop id="stop4236" offset="1" stop-color="#353535" stop-opacity="1"/></linearGradient><linearGradient id="linearGradient4172"><stop id="stop4174" offset="0" stop-color="#3dc796" stop-opacity="1"/><stop id="stop4176" offset="1" stop-color="#57d68d" stop-opacity="1"/></linearGradient><linearGradient id="linearGradient4233"><stop id="stop4235" offset="0" stop-color="#212121" stop-opacity="1"/><stop id="stop4237" offset="1" stop-color="#1d2022" stop-opacity="0"/></linearGradient><linearGradient id="linearGradient8467-6"><stop id="stop8469-5" offset="0" stop-color="#56d8d1" stop-opacity="1"/><stop id="stop8471-8" offset="1" stop-color="#9df7ee" stop-opacity="1"/></linearGradient><linearGradient id="linearGradient8311-10"><stop id="stop8313-3" offset="0" stop-color="#55d8d1" stop-opacity="1"/><stop id="stop8315-8" offset="1" stop-color="#66efe7" stop-opacity="1"/></linearGradient><linearGradient id="linearGradient8467-8"><stop id="stop8469-9" offset="0" stop-color="#dea679" stop-opacity="1"/><stop id="stop8471-2" offset="1" stop-color="#f7d19d" stop-opacity="1"/></linearGradient><linearGradient id="linearGradient8311-0"><stop id="stop8313-90" offset="0" stop-color="#dda579" stop-opacity="1"/><stop id="stop8315-88" offset="1" stop-color="#f3bc87" stop-opacity="1"/></linearGradient><linearGradient id="linearGradient8467-2"><stop id="stop8469-6" offset="0" stop-color="#5fa4d5" stop-opacity="1"/><stop id="stop8471-5" offset="1" stop-color="#9dc9f7" stop-opacity="1"/></linearGradient><linearGradient id="linearGradient8311-06"><stop id="stop8313-6" offset="0" stop-color="#5fa3d4" stop-opacity="1"/><stop id="stop8315-2" offset="1" stop-color="#6bb9ff" stop-opacity="1"/></linearGradient><clipPath id="clipPath4458-7"><path id="use4460-2" fill="url(#linearGradient4580)" fill-opacity="1" d="m 69.626,12.145 -0.052,0 c -22.727,-0.292 -46.472,4.077 -46.709,4.122 -2.424,0.451 -4.946,2.974 -5.397,5.397 -0.044,0.237 -4.414,23.983 -4.122,46.71 -0.292,22.777 4.078,46.523 4.122,46.761 0.451,2.423 2.974,4.945 5.398,5.398 0.237,0.044 23.982,4.413 46.709,4.121 22.779,0.292 46.524,-4.077 46.761,-4.121 2.423,-0.452 4.946,-2.976 5.398,-5.399 0.044,-0.236 4.413,-23.981 4.121,-46.709 0.292,-22.777 -4.077,-46.523 -4.121,-46.761 -0.453,-2.423 -2.976,-4.946 -5.398,-5.397 -0.238,-0.045 -23.984,-4.414 -46.71,-4.122 z"/></clipPath><linearGradient id="linearGradient5263-5"><stop id="stop5265-4" offset="0" stop-color="#fff" stop-opacity="0"/><stop id="stop5267-0" offset="1" stop-color="#d5edff" stop-opacity="1"/></linearGradient><clipPath id="clipPath4458-4"><path id="use4460-26" d="m 69.626,12.145 -0.052,0 c -22.727,-0.292 -46.472,4.077 -46.709,4.122 -2.424,0.451 -4.946,2.974 -5.397,5.397 -0.044,0.237 -4.414,23.983 -4.122,46.71 -0.292,22.777 4.078,46.523 4.122,46.761 0.451,2.423 2.974,4.945 5.398,5.398 0.237,0.044 23.982,4.413 46.709,4.121 22.779,0.292 46.524,-4.077 46.761,-4.121 2.423,-0.452 4.946,-2.976 5.398,-5.399 0.044,-0.236 4.413,-23.981 4.121,-46.709 0.292,-22.777 -4.077,-46.523 -4.121,-46.761 -0.453,-2.423 -2.976,-4.946 -5.398,-5.397 -0.238,-0.045 -23.984,-4.414 -46.71,-4.122 z"/></clipPath><clipPath id="clipPath4458-7-1"><path id="use4460-2-2" d="m 69.626,12.145 -0.052,0 c -22.727,-0.292 -46.472,4.077 -46.709,4.122 -2.424,0.451 -4.946,2.974 -5.397,5.397 -0.044,0.237 -4.414,23.983 -4.122,46.71 -0.292,22.777 4.078,46.523 4.122,46.761 0.451,2.423 2.974,4.945 5.398,5.398 0.237,0.044 23.982,4.413 46.709,4.121 22.779,0.292 46.524,-4.077 46.761,-4.121 2.423,-0.452 4.946,-2.976 5.398,-5.399 0.044,-0.236 4.413,-23.981 4.121,-46.709 0.292,-22.777 -4.077,-46.523 -4.121,-46.761 -0.453,-2.423 -2.976,-4.946 -5.398,-5.397 -0.238,-0.045 -23.984,-4.414 -46.71,-4.122 z"/></clipPath><linearGradient id="linearGradient4288"><stop id="stop4290" offset="0" stop-color="#6c6d6e" stop-opacity="1"/><stop id="stop4292" offset="1" stop-color="#9b9c9e" stop-opacity="1"/></linearGradient><clipPath id="clipPath4458-7-5"><path id="use4460-2-5" d="m 69.626,12.145 -0.052,0 c -22.727,-0.292 -46.472,4.077 -46.709,4.122 -2.424,0.451 -4.946,2.974 -5.397,5.397 -0.044,0.237 -4.414,23.983 -4.122,46.71 -0.292,22.777 4.078,46.523 4.122,46.761 0.451,2.423 2.974,4.945 5.398,5.398 0.237,0.044 23.982,4.413 46.709,4.121 22.779,0.292 46.524,-4.077 46.761,-4.121 2.423,-0.452 4.946,-2.976 5.398,-5.399 0.044,-0.236 4.413,-23.981 4.121,-46.709 0.292,-22.777 -4.077,-46.523 -4.121,-46.761 -0.453,-2.423 -2.976,-4.946 -5.398,-5.397 -0.238,-0.045 -23.984,-4.414 -46.71,-4.122 z"/></clipPath><linearGradient id="linearGradient4422"><stop id="stop4424" offset="0" stop-color="#197ff1" stop-opacity="1"/><stop id="stop4426" offset="1" stop-color="#21c6fb" stop-opacity="1"/></linearGradient><linearGradient id="linearGradient4256"><stop id="stop4258" offset="0" stop-color="#8cbdf8" stop-opacity="1"/><stop id="stop4260" offset="1" stop-color="#d5e8ff" stop-opacity="1"/></linearGradient><linearGradient id="linearGradient4232-2"><stop id="stop4234-0" offset="0" stop-color="#3889e9" stop-opacity="1"/><stop id="stop4236-5" offset="1" stop-color="#5ea5fb" stop-opacity="1"/></linearGradient><clipPath id="clipPath4458-34"><path id="use4460-4" d="m 69.626,12.145 -0.052,0 c -22.727,-0.292 -46.472,4.077 -46.709,4.122 -2.424,0.451 -4.946,2.974 -5.397,5.397 -0.044,0.237 -4.414,23.983 -4.122,46.71 -0.292,22.777 4.078,46.523 4.122,46.761 0.451,2.423 2.974,4.945 5.398,5.398 0.237,0.044 23.982,4.413 46.709,4.121 22.779,0.292 46.524,-4.077 46.761,-4.121 2.423,-0.452 4.946,-2.976 5.398,-5.399 0.044,-0.236 4.413,-23.981 4.121,-46.709 0.292,-22.777 -4.077,-46.523 -4.121,-46.761 -0.453,-2.423 -2.976,-4.946 -5.398,-5.397 -0.238,-0.045 -23.984,-4.414 -46.71,-4.122 z"/></clipPath><linearGradient id="linearGradient8467-5"><stop id="stop8469-7" offset="0" stop-color="#d3d3d3" stop-opacity="1"/><stop id="stop8471-0" offset="1" stop-color="#fcf9f9" stop-opacity="1"/></linearGradient><linearGradient id="linearGradient4232-7"><stop id="stop4234-6" offset="0" stop-color="#373a3d" stop-opacity="1"/><stop id="stop4236-2" offset="1" stop-color="#727273" stop-opacity="1"/></linearGradient><linearGradient id="linearGradient4422-5"><stop id="stop4424-7" offset="0" stop-color="#2971c3" stop-opacity="1"/><stop id="stop4426-6" offset="1" stop-color="#5ea5fb" stop-opacity="1"/></linearGradient><clipPath id="clipPath4458-3"><path id="use4460-7" d="m 69.626,12.145 -0.052,0 c -22.727,-0.292 -46.472,4.077 -46.709,4.122 -2.424,0.451 -4.946,2.974 -5.397,5.397 -0.044,0.237 -4.414,23.983 -4.122,46.71 -0.292,22.777 4.078,46.523 4.122,46.761 0.451,2.423 2.974,4.945 5.398,5.398 0.237,0.044 23.982,4.413 46.709,4.121 22.779,0.292 46.524,-4.077 46.761,-4.121 2.423,-0.452 4.946,-2.976 5.398,-5.399 0.044,-0.236 4.413,-23.981 4.121,-46.709 0.292,-22.777 -4.077,-46.523 -4.121,-46.761 -0.453,-2.423 -2.976,-4.946 -5.398,-5.397 -0.238,-0.045 -23.984,-4.414 -46.71,-4.122 z"/></clipPath><clipPath id="clipPath4458-6"><path id="use4460-3" d="m 69.626,12.145 -0.052,0 c -22.727,-0.292 -46.472,4.077 -46.709,4.122 -2.424,0.451 -4.946,2.974 -5.397,5.397 -0.044,0.237 -4.414,23.983 -4.122,46.71 -0.292,22.777 4.078,46.523 4.122,46.761 0.451,2.423 2.974,4.945 5.398,5.398 0.237,0.044 23.982,4.413 46.709,4.121 22.779,0.292 46.524,-4.077 46.761,-4.121 2.423,-0.452 4.946,-2.976 5.398,-5.399 0.044,-0.236 4.413,-23.981 4.121,-46.709 0.292,-22.777 -4.077,-46.523 -4.121,-46.761 -0.453,-2.423 -2.976,-4.946 -5.398,-5.397 -0.238,-0.045 -23.984,-4.414 -46.71,-4.122 z"/></clipPath><clipPath id="clipPath4458-7-18"><path id="use4460-2-3" fill="url(#linearGradient4580)" fill-opacity="1" d="m 69.626,12.145 -0.052,0 c -22.727,-0.292 -46.472,4.077 -46.709,4.122 -2.424,0.451 -4.946,2.974 -5.397,5.397 -0.044,0.237 -4.414,23.983 -4.122,46.71 -0.292,22.777 4.078,46.523 4.122,46.761 0.451,2.423 2.974,4.945 5.398,5.398 0.237,0.044 23.982,4.413 46.709,4.121 22.779,0.292 46.524,-4.077 46.761,-4.121 2.423,-0.452 4.946,-2.976 5.398,-5.399 0.044,-0.236 4.413,-23.981 4.121,-46.709 0.292,-22.777 -4.077,-46.523 -4.121,-46.761 -0.453,-2.423 -2.976,-4.946 -5.398,-5.397 -0.238,-0.045 -23.984,-4.414 -46.71,-4.122 z"/></clipPath><linearGradient id="linearGradient4580" x1="398.31" x2="409.334" y1="538.997" y2="538.997" gradientUnits="userSpaceOnUse" xlink:href="#linearGradient8467"/><clipPath id="clipPath4458-4-2"><path id="use4460-26-4" d="m 69.626,12.145 -0.052,0 c -22.727,-0.292 -46.472,4.077 -46.709,4.122 -2.424,0.451 -4.946,2.974 -5.397,5.397 -0.044,0.237 -4.414,23.983 -4.122,46.71 -0.292,22.777 4.078,46.523 4.122,46.761 0.451,2.423 2.974,4.945 5.398,5.398 0.237,0.044 23.982,4.413 46.709,4.121 22.779,0.292 46.524,-4.077 46.761,-4.121 2.423,-0.452 4.946,-2.976 5.398,-5.399 0.044,-0.236 4.413,-23.981 4.121,-46.709 0.292,-22.777 -4.077,-46.523 -4.121,-46.761 -0.453,-2.423 -2.976,-4.946 -5.398,-5.397 -0.238,-0.045 -23.984,-4.414 -46.71,-4.122 z"/></clipPath><clipPath id="clipPath4458-7-1-5"><path id="use4460-2-2-8" d="m 69.626,12.145 -0.052,0 c -22.727,-0.292 -46.472,4.077 -46.709,4.122 -2.424,0.451 -4.946,2.974 -5.397,5.397 -0.044,0.237 -4.414,23.983 -4.122,46.71 -0.292,22.777 4.078,46.523 4.122,46.761 0.451,2.423 2.974,4.945 5.398,5.398 0.237,0.044 23.982,4.413 46.709,4.121 22.779,0.292 46.524,-4.077 46.761,-4.121 2.423,-0.452 4.946,-2.976 5.398,-5.399 0.044,-0.236 4.413,-23.981 4.121,-46.709 0.292,-22.777 -4.077,-46.523 -4.121,-46.761 -0.453,-2.423 -2.976,-4.946 -5.398,-5.397 -0.238,-0.045 -23.984,-4.414 -46.71,-4.122 z"/></clipPath><clipPath id="clipPath4458-7-5-6"><path id="use4460-2-5-7" d="m 69.626,12.145 -0.052,0 c -22.727,-0.292 -46.472,4.077 -46.709,4.122 -2.424,0.451 -4.946,2.974 -5.397,5.397 -0.044,0.237 -4.414,23.983 -4.122,46.71 -0.292,22.777 4.078,46.523 4.122,46.761 0.451,2.423 2.974,4.945 5.398,5.398 0.237,0.044 23.982,4.413 46.709,4.121 22.779,0.292 46.524,-4.077 46.761,-4.121 2.423,-0.452 4.946,-2.976 5.398,-5.399 0.044,-0.236 4.413,-23.981 4.121,-46.709 0.292,-22.777 -4.077,-46.523 -4.121,-46.761 -0.453,-2.423 -2.976,-4.946 -5.398,-5.397 -0.238,-0.045 -23.984,-4.414 -46.71,-4.122 z"/></clipPath><linearGradient id="linearGradient4588" x1="400.571" x2="400.571" y1="548.798" y2="543.798" gradientUnits="userSpaceOnUse" xlink:href="#linearGradient4851"/><clipPath id="clipPath4458-34-3"><path id="use4460-4-9" d="m 69.626,12.145 -0.052,0 c -22.727,-0.292 -46.472,4.077 -46.709,4.122 -2.424,0.451 -4.946,2.974 -5.397,5.397 -0.044,0.237 -4.414,23.983 -4.122,46.71 -0.292,22.777 4.078,46.523 4.122,46.761 0.451,2.423 2.974,4.945 5.398,5.398 0.237,0.044 23.982,4.413 46.709,4.121 22.779,0.292 46.524,-4.077 46.761,-4.121 2.423,-0.452 4.946,-2.976 5.398,-5.399 0.044,-0.236 4.413,-23.981 4.121,-46.709 0.292,-22.777 -4.077,-46.523 -4.121,-46.761 -0.453,-2.423 -2.976,-4.946 -5.398,-5.397 -0.238,-0.045 -23.984,-4.414 -46.71,-4.122 z"/></clipPath><clipPath id="clipPath4458-3-8"><path id="use4460-7-3" d="m 69.626,12.145 -0.052,0 c -22.727,-0.292 -46.472,4.077 -46.709,4.122 -2.424,0.451 -4.946,2.974 -5.397,5.397 -0.044,0.237 -4.414,23.983 -4.122,46.71 -0.292,22.777 4.078,46.523 4.122,46.761 0.451,2.423 2.974,4.945 5.398,5.398 0.237,0.044 23.982,4.413 46.709,4.121 22.779,0.292 46.524,-4.077 46.761,-4.121 2.423,-0.452 4.946,-2.976 5.398,-5.399 0.044,-0.236 4.413,-23.981 4.121,-46.709 0.292,-22.777 -4.077,-46.523 -4.121,-46.761 -0.453,-2.423 -2.976,-4.946 -5.398,-5.397 -0.238,-0.045 -23.984,-4.414 -46.71,-4.122 z"/></clipPath><clipPath id="clipPath4458-8"><path id="use4460-9" d="m 69.626,12.145 -0.052,0 c -22.727,-0.292 -46.472,4.077 -46.709,4.122 -2.424,0.451 -4.946,2.974 -5.397,5.397 -0.044,0.237 -4.414,23.983 -4.122,46.71 -0.292,22.777 4.078,46.523 4.122,46.761 0.451,2.423 2.974,4.945 5.398,5.398 0.237,0.044 23.982,4.413 46.709,4.121 22.779,0.292 46.524,-4.077 46.761,-4.121 2.423,-0.452 4.946,-2.976 5.398,-5.399 0.044,-0.236 4.413,-23.981 4.121,-46.709 0.292,-22.777 -4.077,-46.523 -4.121,-46.761 -0.453,-2.423 -2.976,-4.946 -5.398,-5.397 -0.238,-0.045 -23.984,-4.414 -46.71,-4.122 z"/></clipPath><linearGradient id="linearGradient4227"><stop id="stop4229" offset="0" stop-color="#2e3436" stop-opacity="1"/><stop id="stop4231" offset="1" stop-color="#555753" stop-opacity="1"/></linearGradient><clipPath id="clipPath4458-73"><path id="use4460-0" d="m 69.626,12.145 -0.052,0 c -22.727,-0.292 -46.472,4.077 -46.709,4.122 -2.424,0.451 -4.946,2.974 -5.397,5.397 -0.044,0.237 -4.414,23.983 -4.122,46.71 -0.292,22.777 4.078,46.523 4.122,46.761 0.451,2.423 2.974,4.945 5.398,5.398 0.237,0.044 23.982,4.413 46.709,4.121 22.779,0.292 46.524,-4.077 46.761,-4.121 2.423,-0.452 4.946,-2.976 5.398,-5.399 0.044,-0.236 4.413,-23.981 4.121,-46.709 0.292,-22.777 -4.077,-46.523 -4.121,-46.761 -0.453,-2.423 -2.976,-4.946 -5.398,-5.397 -0.238,-0.045 -23.984,-4.414 -46.71,-4.122 z"/></clipPath><clipPath id="clipPath4458-7-50"><path id="use4460-2-24" d="m 69.626,12.145 -0.052,0 c -22.727,-0.292 -46.472,4.077 -46.709,4.122 -2.424,0.451 -4.946,2.974 -5.397,5.397 -0.044,0.237 -4.414,23.983 -4.122,46.71 -0.292,22.777 4.078,46.523 4.122,46.761 0.451,2.423 2.974,4.945 5.398,5.398 0.237,0.044 23.982,4.413 46.709,4.121 22.779,0.292 46.524,-4.077 46.761,-4.121 2.423,-0.452 4.946,-2.976 5.398,-5.399 0.044,-0.236 4.413,-23.981 4.121,-46.709 0.292,-22.777 -4.077,-46.523 -4.121,-46.761 -0.453,-2.423 -2.976,-4.946 -5.398,-5.397 -0.238,-0.045 -23.984,-4.414 -46.71,-4.122 z"/></clipPath><clipPath id="clipPath4458-7-5-5"><path id="use4460-2-5-75" d="m 69.626,12.145 -0.052,0 c -22.727,-0.292 -46.472,4.077 -46.709,4.122 -2.424,0.451 -4.946,2.974 -5.397,5.397 -0.044,0.237 -4.414,23.983 -4.122,46.71 -0.292,22.777 4.078,46.523 4.122,46.761 0.451,2.423 2.974,4.945 5.398,5.398 0.237,0.044 23.982,4.413 46.709,4.121 22.779,0.292 46.524,-4.077 46.761,-4.121 2.423,-0.452 4.946,-2.976 5.398,-5.399 0.044,-0.236 4.413,-23.981 4.121,-46.709 0.292,-22.777 -4.077,-46.523 -4.121,-46.761 -0.453,-2.423 -2.976,-4.946 -5.398,-5.397 -0.238,-0.045 -23.984,-4.414 -46.71,-4.122 z"/></clipPath><linearGradient id="linearGradient4320"><stop id="stop4322" offset="0" stop-color="#f6fbff" stop-opacity="1"/><stop id="stop4324" offset="1" stop-color="#eaeff2" stop-opacity="1"/></linearGradient><linearGradient id="linearGradient4941" x1="33.462" x2="34.117" y1="1013.622" y2="1037.208" gradientUnits="userSpaceOnUse" xlink:href="#linearGradient4320"/><linearGradient id="linearGradient4740" x1="400.571" x2="400.571" y1="546.798" y2="516.798" gradientTransform="matrix(1.0366665,0,0,1.0366665,-14.651148,-19.553372)" gradientUnits="userSpaceOnUse" xlink:href="#linearGradient4288"/><linearGradient id="linearGradient4393" x1="240.881" x2="246.869" y1="426.14" y2="-20.82" gradientUnits="userSpaceOnUse" xlink:href="#linearGradient4429"/><linearGradient id="linearGradient4395" x1="240.881" x2="240.881" y1="426.14" y2="-86.63" gradientUnits="userSpaceOnUse" xlink:href="#linearGradient8467-5"/><linearGradient id="linearGradient4397" x1="240.881" x2="240.881" y1="426.14" y2="-86.63" gradientUnits="userSpaceOnUse" xlink:href="#linearGradient8467-5"/><linearGradient id="linearGradient4399" x1="240.881" x2="240.881" y1="426.14" y2="-86.63" gradientUnits="userSpaceOnUse" xlink:href="#linearGradient8467-5"/><linearGradient id="linearGradient4401" x1="240.881" x2="240.881" y1="426.14" y2="-86.63" gradientUnits="userSpaceOnUse" xlink:href="#linearGradient8467-5"/><linearGradient id="linearGradient4403" x1="240.881" x2="240.881" y1="426.14" y2="-86.63" gradientUnits="userSpaceOnUse" xlink:href="#linearGradient8467-5"/><linearGradient id="linearGradient4405" x1="240.881" x2="240.881" y1="426.14" y2="-86.63" gradientUnits="userSpaceOnUse" xlink:href="#linearGradient8467-5"/><linearGradient id="linearGradient4407" x1="240.881" x2="240.881" y1="426.14" y2="-86.63" gradientUnits="userSpaceOnUse" xlink:href="#linearGradient8467-5"/><linearGradient id="linearGradient4409" x1="240.881" x2="240.881" y1="426.14" y2="-86.63" gradientUnits="userSpaceOnUse" xlink:href="#linearGradient8467-5"/><linearGradient id="linearGradient4411" x1="240.881" x2="240.881" y1="426.14" y2="-86.63" gradientUnits="userSpaceOnUse" xlink:href="#linearGradient8467-5"/><linearGradient id="linearGradient4413" x1="240.881" x2="240.881" y1="426.14" y2="-86.63" gradientUnits="userSpaceOnUse" xlink:href="#linearGradient8467-5"/><linearGradient id="linearGradient4415" x1="240.881" x2="240.881" y1="426.14" y2="-86.63" gradientUnits="userSpaceOnUse" xlink:href="#linearGradient8467-5"/><linearGradient id="linearGradient4417" x1="240.881" x2="240.881" y1="426.14" y2="-86.63" gradientUnits="userSpaceOnUse" xlink:href="#linearGradient8467-5"/><linearGradient id="linearGradient4419" x1="240.881" x2="240.881" y1="426.14" y2="-86.63" gradientUnits="userSpaceOnUse" xlink:href="#linearGradient8467-5"/><linearGradient id="linearGradient4421" x1="240.881" x2="240.881" y1="426.14" y2="-86.63" gradientUnits="userSpaceOnUse" xlink:href="#linearGradient8467-5"/><linearGradient id="linearGradient4423" x1="240.881" x2="240.881" y1="426.14" y2="-86.63" gradientUnits="userSpaceOnUse" xlink:href="#linearGradient8467-5"/><linearGradient id="linearGradient4425" x1="240.881" x2="240.881" y1="426.14" y2="-86.63" gradientUnits="userSpaceOnUse" xlink:href="#linearGradient8467-5"/><linearGradient id="linearGradient4427" x1="240.881" x2="240.881" y1="426.14" y2="-86.63" gradientUnits="userSpaceOnUse" xlink:href="#linearGradient8467-5"/></defs><metadata id="metadata5458"/><g id="layer1" transform="translate(-384.57143,-515.798)"><g id="g4358" transform="translate(-0.40013592,0)"><circle id="path4175" cx="400.993" cy="531.874" r="15.55" fill="url(#linearGradient4740)" fill-opacity="1" stroke="none" stroke-dasharray="none" stroke-linecap="round" stroke-linejoin="round" stroke-miterlimit="4" stroke-opacity="1" stroke-width="1.5" opacity="1"/><g id="g4368" fill="url(#linearGradient4393)" fill-opacity="1" transform="matrix(0.03340947,0,0,0.03340947,392.72381,523.49358)"><g id="g4328" fill="url(#linearGradient4397)" fill-opacity="1" opacity=".9" transform="matrix(1.1352639,0,0,1.1352639,-26.05049,-27.272204)"><path id="path4330" fill="url(#linearGradient4395)" fill-opacity="1" d="M 453.584,405.715 298.332,250.457 c -1.454,-1.46 -3.009,-2.755 -4.61,-3.967 l 27.497,-28.954 c 1.406,-1.416 2.736,-2.905 3.96,-4.436 36.505,13.77 79.34,6.029 108.682,-23.309 21.402,-21.409 32.195,-51.013 29.583,-81.226 -0.283,-3.419 -2.548,-6.375 -5.769,-7.542 -3.228,-1.179 -6.845,-0.375 -9.274,2.045 L 398.644,152.822 348.267,140.123 333.98,88.156 383.725,38.408 c 2.441,-2.433 3.239,-6.053 2.063,-9.277 -1.171,-3.233 -4.126,-5.479 -7.555,-5.78 -30.21,-2.604 -59.816,8.183 -81.226,29.592 -29.317,29.317 -37.078,72.129 -23.323,108.619 -1.496,1.265 -2.985,2.61 -4.445,4.049 l -40.471,38.869 -74.319,-74.312 c -0.928,-0.931 -1.918,-1.75 -2.938,-2.519 0.872,-1.53 1.72,-3.105 2.512,-4.74 15.696,3.021 44.39,-27.544 68.76,-51.905 L 151.787,0 C 120.04,31.752 96.858,53.061 99.867,68.757 92.609,72.303 86.139,76.639 81.541,81.243 L 71.54,91.241 c -6.493,6.502 -10.409,14.588 -11.807,23.014 -0.97,1.108 -1.957,2.275 -2.938,3.523 l -3.727,4.684 c -0.104,0.115 -0.425,0.576 -0.514,0.694 l -3.378,4.729 c -2.113,2.819 -3.96,5.881 -5.746,8.836 -0.659,1.097 -1.33,2.196 -2.015,3.292 -0.109,0.189 -0.216,0.375 -0.313,0.562 l -1.501,2.828 c -1.814,3.402 -3.697,6.924 -5.308,10.799 l -0.26,0.617 c -1.9,4.513 -3.869,9.186 -5.243,14.139 l -0.665,2.143 c -0.544,1.762 -1.097,3.52 -1.605,5.621 l -1.38,6.833 c -1.029,4.273 -1.375,8.488 -1.676,12.221 l -0.201,2.453 c -0.508,3.871 -0.36,7.521 -0.222,10.742 0.047,1.079 0.089,2.137 0.121,3.564 0.036,0.594 0.042,1.173 0.06,1.744 0.035,1.439 0.074,3.074 0.352,4.793 l 0.866,5.545 c 0.186,1.072 0.343,2.113 0.491,3.111 0.331,2.252 0.671,4.581 1.342,6.792 l 3.632,12.602 c 1.12,3.83 4.758,6.366 8.739,6.088 2.107,-0.147 4.001,-1.058 5.411,-2.471 1.259,-1.259 2.131,-2.914 2.397,-4.781 l 1.883,-12.812 c 0.139,-1.017 0.576,-2.506 1.028,-4.082 0.322,-1.093 0.635,-2.208 0.877,-3.159 l 1.339,-4.782 c 0.163,-0.647 0.479,-1.277 0.757,-1.924 0.266,-0.6 0.532,-1.218 0.769,-1.827 0.449,-1.017 0.872,-2.033 1.288,-3.076 0.825,-2.045 1.605,-3.969 2.796,-5.858 0.518,-0.872 0.999,-1.738 1.49,-2.622 1.241,-2.222 2.42,-4.32 3.821,-6.059 0.088,-0.103 0.168,-0.218 0.26,-0.34 l 3.159,-4.356 c 0.647,-0.819 1.374,-1.593 2.081,-2.373 0.502,-0.55 1.005,-1.103 1.64,-1.83 1.865,-2.243 4.055,-4.199 6.168,-6.124 l 1.132,-1.017 c 1.566,-1.454 3.378,-2.822 5.284,-4.268 0.78,-0.583 1.543,-1.162 2.293,-1.732 0.963,-0.624 1.895,-1.247 2.813,-1.865 1.72,-1.162 3.209,-2.167 4.93,-3.062 l 3.745,-2.131 3.789,-1.858 c 1.321,-0.683 2.622,-1.209 3.821,-1.693 0.712,-0.296 1.416,-0.583 2.069,-0.866 0.665,-0.23 1.306,-0.479 1.912,-0.703 0.812,-0.296 1.513,-0.58 2.465,-0.828 l 1.022,-0.23 c 1.114,1.803 2.42,3.517 3.987,5.083 l 73.515,73.518 -156.938,150.74 c -0.062,0.059 -0.121,0.124 -0.178,0.178 -19.529,19.529 -22.709,48.131 -3.177,67.666 19.532,19.529 46.316,14.522 65.84,-5 0.086,-0.083 0.16,-0.16 0.236,-0.249 L 232.816,310.635 c 0.812,0.957 1.616,1.92 2.518,2.824 l 155.24,155.253 c 17.396,17.401 45.613,17.401 63.009,0 17.391,-17.39 17.391,-45.608 10e-4,-62.997 z M 73.871,440.564 c -7.191,7.199 -18.855,7.199 -26.052,0 -7.19,-7.193 -7.19,-18.85 0,-26.043 7.19,-7.188 18.855,-7.193 26.052,0 7.184,7.194 7.184,18.85 0,26.043 z"/></g></g></g></g></svg>