<svg xmlns="http://www.w3.org/2000/svg" xmlns:osb="http://www.openswatchbook.org/uri/2009/osb" xmlns:svg="http://www.w3.org/2000/svg" xmlns:xlink="http://www.w3.org/1999/xlink" id="svg5453" width="48" height="48" version="1.1"><defs id="defs5455"><linearGradient id="linearGradient4207" osb:paint="gradient"><stop id="stop3371" offset="0" stop-color="#3498db" stop-opacity="1"/><stop id="stop3373" offset="1" stop-color="#3498db" stop-opacity="0"/></linearGradient><linearGradient id="linearGradient4422-5"><stop id="stop4424-7" offset="0" stop-color="#3676ad" stop-opacity="1"/><stop id="stop4426-6" offset="1" stop-color="#1dbbfa" stop-opacity="1"/></linearGradient><linearGradient id="linearGradient4870" x1="362.062" x2="361.147" y1="550.131" y2="518.28" gradientUnits="userSpaceOnUse" xlink:href="#linearGradient4422-5"/></defs><metadata id="metadata5458"/><g id="layer1" transform="translate(-384.57143,-499.798)"><g id="layer1-29" transform="matrix(1.0520189,0,0,1.0520189,-2.22122,-27.871326)"><g id="g5168" transform="matrix(1.3023508,0,0,1.3023508,-81.14687,-172.85761)"><g id="g5151" transform="matrix(1.0328158,0,0,1.0328158,-11.337503,-17.831884)"><g id="g4513"><g id="g4270" fill="url(#linearGradient4870)" fill-opacity="1" stroke="none" stroke-opacity="1" transform="matrix(0.96822689,0,0,0.96822689,10.977276,17.265308)"><path id="path4268" fill="url(#linearGradient4870)" fill-opacity="1" fill-rule="evenodd" stroke="none" stroke-linecap="butt" stroke-linejoin="miter" stroke-opacity="1" stroke-width=".951" d="m 358.58638,540.86322 -3.268,7.43142 6.10381,0 -0.14193,4.01913 6.67062,-7.71013 -4.96629,0 1.8935,-3.92798 z"/><rect id="rect4255" width="33.578" height="23.631" x="345.393" y="518.903" fill="url(#linearGradient4870)" fill-opacity="1" stroke="none" stroke-dasharray="none" stroke-linecap="round" stroke-linejoin="round" stroke-miterlimit="4" stroke-opacity="1" stroke-width="1" opacity="1" ry="1.987"/></g><g id="text4346" fill="#fff" fill-opacity="1" stroke="none" stroke-linecap="butt" stroke-linejoin="miter" stroke-opacity="1" stroke-width="1" font-family="sans-serif" font-size="9.117" font-style="normal" font-weight="normal" letter-spacing="0" opacity=".9" word-spacing="0" style="line-height:125%"><path style="-inkscape-font-specification:'Product Sans'" id="path4509" fill="#fff" fill-opacity="1" d="m 365.19595,536.52507 q -0.18235,0.18234 -0.43763,0.18234 -0.25529,0 -0.43763,-0.18234 -0.18235,-0.18235 -0.18235,-0.43763 0,-0.25528 0.18235,-0.43763 0.18234,-0.18234 0.43763,-0.18234 0.25528,0 0.43763,0.18234 0.18234,0.18235 0.18234,0.43763 0,0.25528 -0.18234,0.43763 z" font-family="Product Sans" font-stretch="normal" font-style="normal" font-variant="normal" font-weight="normal"/><path style="-inkscape-font-specification:'Product Sans'" id="path4511" fill="#fff" fill-opacity="1" d="m 367.24206,531.06383 q -0.17323,0.17323 -0.4194,0.17323 -0.24616,0 -0.41939,-0.17323 -0.17323,-0.17323 -0.17323,-0.4194 0,-0.24616 0.17323,-0.41939 0.17323,-0.17323 0.41939,-0.17323 0.24617,0 0.4194,0.17323 0.17323,0.17323 0.17323,0.41939 0,0.24617 -0.17323,0.4194 z m 0,5.58888 -0.83879,0 0,-4.46746 0.83879,0 0,4.46746 z" font-family="Product Sans" font-stretch="normal" font-style="normal" font-variant="normal" font-weight="normal"/><path style="-inkscape-font-specification:'Product Sans'" id="path4513" fill="#fff" fill-opacity="1" d="m 368.68116,532.72317 q 0.64733,-0.68379 1.65023,-0.68379 1.00289,0 1.65022,0.68379 0.64733,0.67468 0.64733,1.69581 0,1.02113 -0.64733,1.70493 -0.64733,0.67468 -1.65022,0.67468 -1.0029,0 -1.65023,-0.67468 -0.64732,-0.6838 -0.64732,-1.70493 0,-1.02113 0.64732,-1.69581 z m 0.61997,2.87194 q 0.43763,0.43763 1.03026,0.43763 0.59262,0 1.02113,-0.43763 0.43763,-0.44675 0.43763,-1.17613 0,-0.72938 -0.43763,-1.16701 -0.42851,-0.44674 -1.02113,-0.44674 -0.59263,0 -1.03026,0.44674 -0.42851,0.43763 -0.42851,1.16701 0,0.72938 0.42851,1.17613 z" font-family="Product Sans" font-stretch="normal" font-style="normal" font-variant="normal" font-weight="normal"/></g><g id="g5145" opacity=".9" transform="matrix(0.62925539,0,0,0.62925539,105.02963,175.94852)"><circle id="path4891" cx="400.274" cy="564.219" r="9.506" fill="#279fdb" fill-opacity="1" stroke="#fff" stroke-dasharray="none" stroke-linecap="round" stroke-linejoin="round" stroke-miterlimit="4" stroke-opacity="1" stroke-width="1.806" opacity="1"/><g id="layer1-6" fill="#000" fill-opacity="1" transform="matrix(1.1652195,0,0,1.2680411,387.9483,-756.84841)"><g id="g3" fill="#000" fill-opacity="1" transform="matrix(0.03271224,1.1827033e-4,1.1827033e-4,-0.03271224,3.487702,1049.1311)"><path id="path5" fill="#fff" fill-opacity="1" d="M 345.441,248.292 151.154,442.573 c -12.359,12.365 -32.397,12.365 -44.75,0 -12.354,-12.354 -12.354,-32.391 0,-44.744 L 278.318,225.92 106.409,54.017 c -12.354,-12.359 -12.354,-32.394 0,-44.748 12.354,-12.359 32.391,-12.359 44.75,0 l 194.287,194.284 c 6.177,6.18 9.262,14.271 9.262,22.366 0,8.099 -3.091,16.196 -9.267,22.373 z"/></g></g></g></g></g></g></g></g></svg>