<svg xmlns="http://www.w3.org/2000/svg" xmlns:svg="http://www.w3.org/2000/svg" xmlns:xlink="http://www.w3.org/1999/xlink" id="svg5453" width="48" height="48" version="1.1"><defs id="defs5455"><linearGradient id="linearGradient4240"><stop id="stop4242" offset="0" stop-color="#2a2c2f" stop-opacity="1"/><stop id="stop4244" offset="1" stop-color="#54595d" stop-opacity="1"/></linearGradient><linearGradient id="linearGradient4350" x1="24" x2="24" y1="34" y2="13" gradientTransform="translate(383.87143,499.798)" gradientUnits="userSpaceOnUse" xlink:href="#linearGradient4240"/><linearGradient id="linearGradient4298"><stop id="stop4300" offset="0" stop-color="#e4bd27" stop-opacity="1"/><stop id="stop4302" offset="1" stop-color="#fff360" stop-opacity="1"/></linearGradient><linearGradient id="linearGradient4230" x1="448.571" x2="447.571" y1="540.798" y2="505.798" gradientTransform="matrix(1.0710892,0,0,1.0710892,-70.967092,-36.775843)" gradientUnits="userSpaceOnUse" xlink:href="#linearGradient4298"/><linearGradient id="linearGradient4238" x1="451.571" x2="450.571" y1="541.798" y2="506.798" gradientTransform="matrix(1.0710892,0,0,1.0710892,-70.967092,-36.775843)" gradientUnits="userSpaceOnUse" xlink:href="#linearGradient4240"/></defs><metadata id="metadata5458"/><g id="layer1" transform="translate(-384.57143,-499.798)"><g id="g4171" transform="matrix(1.1597905,0,0,1.1597905,-65.162026,-83.590311)"><path id="Public" fill="url(#linearGradient4230)" fill-opacity="1" stroke="url(#linearGradient4238)" stroke-dasharray="none" stroke-miterlimit="4" stroke-width="1.5" d="m 389.77394,522.71124 c -0.6845,0.68459 -0.68386,1.79526 0,2.47912 l 17.6095,17.60951 c 0.68459,0.68451 1.79526,0.68386 2.47914,0 l 17.60949,-17.60951 c 0.68449,-0.6846 0.68387,-1.79525 0,-2.47912 l -17.60949,-17.6095 c -0.68461,-0.68451 -1.79527,-0.68387 -2.47914,0 z"/><path id="rect4206" fill="url(#linearGradient4350)" fill-opacity="1" stroke="none" stroke-dasharray="none" stroke-miterlimit="4" stroke-opacity=".55" stroke-width="2.8" d="m 408.87143,512.798 0,6.98633 -4,4 0.0137,0.0137 -0.0137,0 0,10 2,0 0,-9.18555 2,-2 0,11.18555 2,0 0,-13.18555 0,-2.82812 0,-4.98633 -2,0 z" opacity="1"/></g></g></svg>