<svg xmlns="http://www.w3.org/2000/svg" xmlns:osb="http://www.openswatchbook.org/uri/2009/osb" xmlns:svg="http://www.w3.org/2000/svg" xmlns:xlink="http://www.w3.org/1999/xlink" id="svg5453" width="48" height="48" version="1.1"><defs id="defs5455"><linearGradient id="linearGradient4793"><stop id="stop4795" offset="0" stop-color="#54b60f" stop-opacity="1"/><stop id="stop4797" offset="1" stop-color="#92dc41" stop-opacity="1"/></linearGradient><linearGradient id="linearGradient4232"><stop id="stop4234-0" offset="0" stop-color="#3889e9" stop-opacity="1"/><stop id="stop4236" offset="1" stop-color="#5ea5fb" stop-opacity="1"/></linearGradient><linearGradient id="linearGradient3426" x1="399.571" x2="399.571" y1="545.798" y2="517.798" gradientUnits="userSpaceOnUse" xlink:href="#linearGradient4232"/><linearGradient id="linearGradient4181" x1="399.994" x2="399.994" y1="545.139" y2="518.139" gradientUnits="userSpaceOnUse" xlink:href="#linearGradient4793"/><style id="current-color-scheme" type="text/css"/><style id="current-color-scheme-8" type="text/css"/><style id="current-color-scheme-7" type="text/css"/><linearGradient id="linearGradient4833" x1="25.425" x2="23.119" y1="1043.017" y2="1015.555" gradientUnits="userSpaceOnUse" xlink:href="#linearGradient5092"/><linearGradient id="linearGradient5092"><stop id="stop5094" offset="0" stop-color="#dfe2e3" stop-opacity="1"/><stop id="stop5096" offset="1" stop-color="#fdfdfe" stop-opacity="1"/></linearGradient><style id="current-color-scheme-5" type="text/css"/><style id="current-color-scheme-8-2" type="text/css"/><style id="current-color-scheme-7-4" type="text/css"/><linearGradient id="linearGradient5752" x1="-533.216" x2="-523.597" y1="554.585" y2="367.841" gradientUnits="userSpaceOnUse" xlink:href="#linearGradient5092"/><linearGradient id="linearGradient4207" osb:paint="gradient"><stop id="stop3371" offset="0" stop-color="#3498db" stop-opacity="1"/><stop id="stop3373" offset="1" stop-color="#3498db" stop-opacity="0"/></linearGradient></defs><metadata id="metadata5458"/><g id="layer1" transform="translate(-384.57143,-499.798)"><g id="g4188" transform="matrix(1.0320907,0,0,1.0320907,-13.372621,-16.960263)"><g id="g4471" transform="matrix(1.0931221,0,0,1.0931221,33.310366,-50.486049)"><g id="g4320" stroke="none" transform="matrix(0.98381885,0,0,0.98381885,5.5651187,8.3948576)"><g id="layer1-3" stroke="none" stroke-dasharray="none" stroke-miterlimit="4" stroke-opacity="1" stroke-width="1.3" transform="matrix(1.5444819,0,0,1.5444819,-275.17538,-295.73877)"><circle id="path3377" cx="400.571" cy="531.798" r="14" fill="url(#linearGradient4181)" fill-opacity="1" stroke="none" stroke-dasharray="none" stroke-dashoffset="0" stroke-miterlimit="4" stroke-opacity="1" stroke-width=".941" opacity="1"/><circle id="ellipse4233" cx="400.571" cy="531.798" r="0" fill="url(#linearGradient3426)" fill-opacity="1" stroke="none" stroke-dasharray="none" stroke-dashoffset="0" stroke-miterlimit="4" stroke-opacity="1" stroke-width="1.3" opacity="1"/></g></g></g><g id="g4259" fill="url(#linearGradient5752)" fill-opacity="1" transform="matrix(0.14866499,0,0,0.14866499,487.45632,457.09311)"><path id="path2445" fill="#fff" fill-opacity=".85" d="m -529.04784,334.71153 c -65.00774,0 -117.71433,52.70071 -117.71433,117.71433 0,65.01363 52.70659,117.71434 117.71433,117.71434 65.00774,0 117.71434,-52.70071 117.71434,-117.71434 0,-65.01362 -52.7066,-117.71433 -117.71434,-117.71433 z m 0.56385,16.30225 c 56.01143,0 101.45799,45.40654 101.45799,101.4109 0,56.01143 -45.44951,101.41091 -101.45799,101.41091 -30.24434,0 -57.38279,-13.25523 -75.96106,-34.25193 7.63907,-5.92869 20.41991,-4.48239 36.15949,-2.68813 7.54314,0.85814 16.14158,1.83976 25.01724,2.03775 24.79535,0.1442 51.47413,-4.38132 67.93883,-11.57602 10.6455,-4.66861 17.46116,-7.74325 21.72183,-11.61959 1.53623,-1.26013 2.34292,-3.36533 3.16504,-5.54964 l 0.56385,-1.47413 c 0.6901,-1.76425 1.68043,-5.56059 2.12445,-7.63084 0.19776,-0.90616 0.29547,-1.8806 -0.34667,-2.38465 l -2.2979,0.43377 c -7.2253,4.3326 -25.27621,12.58426 -42.18646,12.92033 -20.95492,0.4379 -63.18906,-21.095 -67.59157,-23.36924 l -0.43378,-0.5203 c -1.05613,-2.52032 -7.37657,-17.52472 -8.71498,-20.68123 30.40031,20.0185 55.60413,31.09895 74.91929,32.82111 21.47698,1.90827 38.23008,-9.81737 45.39477,-14.82788 1.39821,-0.95414 2.46688,-1.70233 2.90495,-1.86436 l 0.47674,-0.78045 c -1.1948,-7.55137 -12.46006,-44.07813 -20.94726,-52.85374 -2.35429,-2.40725 -4.22006,-4.74388 -8.02224,-6.98046 -30.71167,-17.89846 -103.62981,-28.68109 -107.04941,-29.17549 l -0.56385,0.17345 -0.2166,0.47692 c 0,0 -0.27368,15.14218 -0.3037,16.82256 -2.50231,-0.82812 -10.26175,-3.3684 -21.37516,-6.41661 14.50064,-17.94261 36.72334,-33.86171 75.6138,-33.86171 z m 26.79473,53.67598 c 0.51735,-0.008 1.03989,-0.0171 1.56083,0 17.20454,0.61805 30.72109,15.10863 30.13311,32.30081 -0.30606,8.31711 -3.81259,16.0015 -9.88565,21.67827 -6.09054,5.70679 -14.00683,8.68143 -22.3722,8.41128 -17.17452,-0.64207 -30.69107,-15.13277 -30.13311,-32.30081 0.29429,-8.32888 3.81995,-16.0633 9.92862,-21.72183 5.70455,-5.35012 13.00567,-8.25119 20.76834,-8.36772 z m -0.82377,9.19172 c -5.01057,0.30464 -9.73909,2.3391 -13.44062,5.80985 -4.21859,3.96056 -6.70795,9.32297 -6.89394,15.13159 -0.39611,12.00156 8.99514,22.10145 20.98494,22.54583 5.8268,0.1801 11.35413,-1.8613 15.60833,-5.80985 4.24254,-3.97857 6.71384,-9.39008 6.89394,-15.17515 0.40199,-12.01981 -9.03222,-22.08203 -21.0279,-22.50227 -0.72612,-0.0271 -1.40875,-0.0435 -2.12451,0 z m 5.7231,10.88269 c 5.32875,0 9.6255,2.89571 9.6255,6.46016 0,3.5465 -4.29651,6.46017 -9.6255,6.46017 -5.3467,0 -9.66847,-2.91973 -9.66847,-6.46017 0,-3.56451 4.32188,-6.46016 9.66847,-6.46016 z"/></g></g></g></svg>