<svg xmlns="http://www.w3.org/2000/svg" xmlns:svg="http://www.w3.org/2000/svg" xmlns:xlink="http://www.w3.org/1999/xlink" id="svg5453" width="48" height="48" version="1.1"><defs id="defs5455"><linearGradient id="linearGradient4232"><stop id="stop4234-0" offset="0" stop-color="#3889e9" stop-opacity="1"/><stop id="stop4236" offset="1" stop-color="#5ea5fb" stop-opacity="1"/></linearGradient><linearGradient id="linearGradient3426" x1="399.571" x2="399.571" y1="545.798" y2="517.798" gradientUnits="userSpaceOnUse" xlink:href="#linearGradient4232"/><linearGradient id="linearGradient4181" x1="399.994" x2="399.994" y1="545.139" y2="518.139" gradientUnits="userSpaceOnUse" xlink:href="#linearGradient4965"/><style id="current-color-scheme" type="text/css"/><style id="current-color-scheme-8" type="text/css"/><style id="current-color-scheme-7" type="text/css"/><linearGradient id="linearGradient4965"><stop id="stop4967" offset="0" stop-color="#007aac" stop-opacity="1"/><stop id="stop4969" offset="1" stop-color="#00a8ee" stop-opacity="1"/></linearGradient></defs><metadata id="metadata5458"/><g id="layer1" transform="translate(-384.57143,-499.798)"><g id="g4471" transform="matrix(1.0931221,0,0,1.0931221,33.310366,-50.486049)"><g id="layer1-2" fill="#fff" fill-opacity="1" transform="matrix(0.91481089,0,0,0.91481089,-162.89312,-245.51061)"><g id="g4192" transform="matrix(1.0320907,0,0,1.0320907,-18.017807,-27.192689)"><g id="g4320" stroke="none" transform="matrix(1.0754341,0,0,1.0754341,184.14542,277.54968)"><g id="layer1-3" stroke="none" stroke-dasharray="none" stroke-miterlimit="4" stroke-opacity="1" stroke-width="1.3" transform="matrix(1.5444819,0,0,1.5444819,-275.17538,-295.73877)"><circle id="path3377" cx="400.571" cy="531.798" r="14" fill="url(#linearGradient4181)" fill-opacity="1" stroke="none" stroke-dasharray="none" stroke-dashoffset="0" stroke-miterlimit="4" stroke-opacity="1" stroke-width=".941" opacity="1"/><circle id="ellipse4233" cx="400.571" cy="531.798" r="0" fill="url(#linearGradient3426)" fill-opacity="1" stroke="none" stroke-dasharray="none" stroke-dashoffset="0" stroke-miterlimit="4" stroke-opacity="1" stroke-width="1.3" opacity="1"/></g></g><g id="layer1-6" fill="#fff" fill-opacity=".85" transform="translate(-120.10595,41.912995)"><g id="g3015" fill="#fff" fill-opacity=".85" transform="matrix(0.33581,0,0,0.33171,652.809,780.11275)"><g id="g7930" fill="#fff" fill-opacity=".85" transform="translate(19.557,19.715)"><g id="g4190" fill="#fff" fill-opacity=".85" transform="matrix(0.44546023,0,0,0.4509662,-43.43067,-240.40198)"><g id="g4202" fill="#fff" fill-opacity=".85" transform="translate(-0.20836,7.0001)"><path id="path4194" fill="#fff" fill-opacity=".85" d="m 177.89,597.13 -0.01,0 c -6.6729,0 -12.107,-5.4267 -12.114,-12.095 -0.01,-6.6905 5.4251,-12.125 12.104,-12.132 6.683,0 12.116,5.4267 12.124,12.095 0,6.6905 -5.4251,12.126 -12.104,12.133 z"/><path id="path4196" fill="#fff" fill-opacity=".85" d="m 210.61,588.24 c -6.2309,0 -11.302,-5.0662 -11.307,-11.292 -0.01,-6.242 5.0612,-11.316 11.296,-11.321 6.2392,0 11.311,5.0651 11.317,11.291 0,6.242 -5.0622,11.316 -11.296,11.323 l -0.01,0 z"/><circle id="path4198" cx="-17" cy="-15.701" r="7" fill="#fff" fill-opacity=".85" transform="matrix(1.4422,0,0,1.4422,215.72,578.6)"/><circle id="path4200-1" cx="82.5" cy="-16.522" r="11.5" fill="#fff" fill-opacity=".85" transform="matrix(0.80761,0,0,0.80761,140.73,552.34)"/><circle id="path4202-3" cx="0" cy="-37.522" r="10.5" fill="#fff" fill-opacity=".85" transform="matrix(0.76915,0,0,0.76915,187.19,551.3)"/></g><path id="path4204-7" fill="#fff" fill-opacity=".85" d="M 143.93,615.04 C 133.48,628.59 125,643.82 125,662.28 c 0,40.006 30.358,73 68,73 37.64,0 68,-32.993 68,-73 0,-18.461 -8.4889,-33.212 -19.53,-47.238 -4.1402,-4.3446 -10.118,-3.6986 -14.469,-0.91856 -12.733,6.5886 -19.606,9.2209 -34.001,9.1565 -13.922,-0.0624 -21.237,-2.336 -33.97,-9.2774 -4.3514,-2.6592 -10.964,-3.3052 -15.104,1.0394 z m 9.07,11.24 c 13.198,7.2975 24.969,11 40,11 15.044,0 26.795,-3.7025 40,-11 7.2055,10.16 14,22.758 14,36 0,32.801 -24.175,59 -54,59 -29.826,0 -54,-26.199 -54,-59 0,-13.225 6.7788,-25.832 14,-36 z" color="#000" enable-background="accumulate" text-decoration="none" style="text-indent:0;text-decoration-line:none;text-transform:none;block-progression:tb"/></g></g></g></g></g></g><g id="layer1-23" transform="matrix(0.91481089,0,0,0.91481089,-114.4218,-211.60344)"><rect id="rect3024-5" width="20" height="60" x="864" y="543" fill-opacity="0" ry="10" transform="translate(0,52.362)"/></g></g></g></svg>