<svg xmlns="http://www.w3.org/2000/svg" xmlns:osb="http://www.openswatchbook.org/uri/2009/osb" xmlns:svg="http://www.w3.org/2000/svg" xmlns:xlink="http://www.w3.org/1999/xlink" id="svg5453" width="48" height="48" version="1.1"><defs id="defs5455"><linearGradient id="linearGradient4581"><stop id="stop4583" offset="0" stop-color="#3985dd" stop-opacity="1"/><stop id="stop4585" offset="1" stop-color="#5cc4ff" stop-opacity="1"/></linearGradient><linearGradient id="linearGradient4232"><stop id="stop4234-0" offset="0" stop-color="#3889e9" stop-opacity="1"/><stop id="stop4236" offset="1" stop-color="#5ea5fb" stop-opacity="1"/></linearGradient><linearGradient id="linearGradient3426" x1="399.571" x2="399.571" y1="545.798" y2="517.798" gradientUnits="userSpaceOnUse" xlink:href="#linearGradient4232"/><linearGradient id="linearGradient4181" x1="399.994" x2="399.994" y1="545.139" y2="518.139" gradientUnits="userSpaceOnUse" xlink:href="#linearGradient4581"/><style id="current-color-scheme" type="text/css"/><style id="current-color-scheme-8" type="text/css"/><style id="current-color-scheme-7" type="text/css"/><linearGradient id="linearGradient4207" osb:paint="gradient"><stop id="stop3371" offset="0" stop-color="#3498db" stop-opacity="1"/><stop id="stop3373" offset="1" stop-color="#3498db" stop-opacity="0"/></linearGradient></defs><metadata id="metadata5458"/><g id="layer1" transform="translate(-384.57143,-499.798)"><g id="g4178" transform="matrix(1.0320907,0,0,1.0320907,-13.372621,-16.960263)"><g id="g4471" transform="matrix(1.0931221,0,0,1.0931221,33.310366,-50.486049)"><g id="g4320" stroke="none" transform="matrix(0.98381885,0,0,0.98381885,5.5651187,8.3948576)"><g id="layer1-3" stroke="none" stroke-dasharray="none" stroke-miterlimit="4" stroke-opacity="1" stroke-width="1.3" transform="matrix(1.5444819,0,0,1.5444819,-275.17538,-295.73877)"><circle id="path3377" cx="400.571" cy="531.798" r="14" fill="url(#linearGradient4181)" fill-opacity="1" stroke="none" stroke-dasharray="none" stroke-dashoffset="0" stroke-miterlimit="4" stroke-opacity="1" stroke-width=".941" opacity="1"/><circle id="ellipse4233" cx="400.571" cy="531.798" r="0" fill="url(#linearGradient3426)" fill-opacity="1" stroke="none" stroke-dasharray="none" stroke-dashoffset="0" stroke-miterlimit="4" stroke-opacity="1" stroke-width="1.3" opacity="1"/></g></g></g><path id="path4348" fill="#fff" fill-opacity=".85" stroke="none" stroke-dasharray="none" stroke-miterlimit="4" stroke-opacity="1" stroke-width="1.3" d="m 405.78188,509.4131 c -0.31248,0.0341 -0.58887,0.28972 -0.64636,0.59883 l -0.62131,3.15542 c -1.11881,0.43646 -2.1698,1.03639 -3.09256,1.77342 l -3.06866,-1.03626 c -0.31884,-0.11012 -0.7054,0.0324 -0.87669,0.32208 l -2.95383,5.11347 c -0.16635,0.29408 -0.0939,0.70091 0.16261,0.92127 l 2.44574,2.14179 c -0.0862,0.57414 -0.13969,1.15197 -0.13969,1.75042 0,0.59847 0.0535,1.1763 0.13969,1.75043 l -2.44574,2.1418 c -0.25647,0.22036 -0.32899,0.6272 -0.16261,0.92128 l 2.95383,5.11345 c 0.17129,0.28967 0.55785,0.43189 0.87669,0.32209 l 3.06866,-1.03626 c 0.92276,0.73701 1.97375,1.33696 3.09256,1.77329 l 0.62131,3.15593 c 0.0634,0.33017 0.37882,0.59403 0.71564,0.59845 l 5.90797,0 c 0.33683,-0.005 0.65227,-0.26828 0.71565,-0.59845 l 0.62131,-3.15593 c 1.11879,-0.43633 2.1698,-1.03628 3.09254,-1.77329 l 3.06898,1.03626 c 0.31838,0.10979 0.70532,-0.0324 0.87632,-0.32209 l 2.95399,-5.11345 c 0.16654,-0.29408 0.0937,-0.70092 -0.16295,-0.92128 l -2.44544,-2.1418 c 0.0862,-0.57413 0.13936,-1.15196 0.13936,-1.75043 0,-0.59845 -0.0532,-1.17628 -0.13936,-1.75042 l 2.44544,-2.14179 c 0.25649,-0.22036 0.32944,-0.62719 0.16295,-0.92127 l -2.95399,-5.11347 c -0.171,-0.28964 -0.55794,-0.43219 -0.87632,-0.32208 l -3.06898,1.03626 c -0.92274,-0.73703 -1.97375,-1.33696 -3.09254,-1.77342 l -0.62131,-3.15542 c -0.0634,-0.33025 -0.37882,-0.59426 -0.71565,-0.59883 l -5.90797,0 c -0.0229,-7.3e-4 -0.0457,-7.3e-4 -0.0693,0 z m 3.02326,7.37022 a 7.3702244,7.3702244 0 0 1 7.37022,7.37022 7.3702244,7.3702244 0 0 1 -7.37022,7.37022 7.3702244,7.3702244 0 0 1 -7.37022,-7.37022 7.3702244,7.3702244 0 0 1 7.37022,-7.37022 z" enable-background="new"/></g></g></svg>