<svg xmlns="http://www.w3.org/2000/svg" xmlns:osb="http://www.openswatchbook.org/uri/2009/osb" xmlns:svg="http://www.w3.org/2000/svg" xmlns:xlink="http://www.w3.org/1999/xlink" id="svg5453" width="48" height="48" version="1.1"><defs id="defs5455"><linearGradient id="linearGradient4232"><stop id="stop4234-0" offset="0" stop-color="#3889e9" stop-opacity="1"/><stop id="stop4236" offset="1" stop-color="#5ea5fb" stop-opacity="1"/></linearGradient><linearGradient id="linearGradient3426" x1="399.571" x2="399.571" y1="545.798" y2="517.798" gradientUnits="userSpaceOnUse" xlink:href="#linearGradient4232"/><linearGradient id="linearGradient4181" x1="399.994" x2="399.994" y1="545.139" y2="518.139" gradientUnits="userSpaceOnUse" xlink:href="#linearGradient4264"/><style id="current-color-scheme" type="text/css"/><style id="current-color-scheme-8" type="text/css"/><style id="current-color-scheme-7" type="text/css"/><linearGradient id="linearGradient4264"><stop id="stop4266" offset="0" stop-color="#0a80fd" stop-opacity="1"/><stop id="stop4268" offset="1" stop-color="#56c5fa" stop-opacity="1"/></linearGradient><linearGradient id="linearGradient4207" osb:paint="gradient"><stop id="stop3371" offset="0" stop-color="#3498db" stop-opacity="1"/><stop id="stop3373" offset="1" stop-color="#3498db" stop-opacity="0"/></linearGradient></defs><metadata id="metadata5458"/><g id="layer1" transform="translate(-384.57143,-499.798)"><g id="g4471" transform="matrix(1.1282012,0,0,1.1282012,21.006689,-69.066463)"><g id="g4320" stroke="none" transform="matrix(0.98381885,0,0,0.98381885,5.5651187,8.3948576)"><g id="layer1-3" stroke="none" stroke-dasharray="none" stroke-miterlimit="4" stroke-opacity="1" stroke-width="1.3" transform="matrix(1.5444819,0,0,1.5444819,-275.17538,-295.73877)"><circle id="path3377" cx="400.571" cy="531.798" r="14" fill="url(#linearGradient4181)" fill-opacity="1" stroke="none" stroke-dasharray="none" stroke-dashoffset="0" stroke-miterlimit="4" stroke-opacity="1" stroke-width=".941" opacity="1"/><circle id="ellipse4233" cx="400.571" cy="531.798" r="0" fill="url(#linearGradient3426)" fill-opacity="1" stroke="none" stroke-dasharray="none" stroke-dashoffset="0" stroke-miterlimit="4" stroke-opacity="1" stroke-width="1.3" opacity="1"/></g></g><g id="layer1-2" fill="#fff" fill-opacity=".85" transform="matrix(0.91481089,0,0,0.91481089,-162.9846,-245.51061)"><g id="layer1-6" fill="#fff" fill-opacity=".85" transform="translate(-120.10595,41.912995)"><path id="path4071" fill="#fff" fill-opacity=".85" fill-rule="evenodd" d="m 673.99096,786.06661 c -1.20204,2.94701 -1.92701,4.87468 -3.26527,7.73381 0.82049,0.86979 1.82767,1.88264 3.46336,3.02662 -1.75849,-0.72364 -2.95796,-1.4501 -3.85435,-2.20396 -1.71272,3.57396 -4.39615,8.66484 -9.84162,18.44905 4.27996,-2.47084 7.59744,-3.99415 10.6896,-4.57546 -0.13276,-0.57103 -0.20827,-1.18872 -0.20314,-1.83321 l 0.004,-0.13713 c 0.0679,-2.74205 1.4943,-4.85066 3.18399,-4.70747 1.6897,0.14313 3.00312,2.48339 2.9352,5.22544 -0.0127,0.51602 -0.071,1.01231 -0.17264,1.4727 3.05841,0.5983 6.34064,2.11771 10.56267,4.55513 -0.83252,-1.53265 -1.57559,-2.91428 -2.28517,-4.23012 -1.11779,-0.86634 -2.28362,-1.99383 -4.66176,-3.21451 1.63461,0.42475 2.80496,0.91477 3.71723,1.46252 -7.21462,-13.43273 -7.79862,-15.21782 -10.27303,-21.02409 z" enable-background="new"/></g></g></g></g></svg>