<svg xmlns="http://www.w3.org/2000/svg" xmlns:osb="http://www.openswatchbook.org/uri/2009/osb" xmlns:svg="http://www.w3.org/2000/svg" xmlns:xlink="http://www.w3.org/1999/xlink" id="svg5453" width="48" height="48" version="1.1"><defs id="defs5455"><linearGradient id="linearGradient4180"><stop id="stop4182" offset="0" stop-color="#007aac" stop-opacity="1"/><stop id="stop4184" offset="1" stop-color="#00a0e2" stop-opacity="1"/></linearGradient><linearGradient id="linearGradient4232"><stop id="stop4234-0" offset="0" stop-color="#3889e9" stop-opacity="1"/><stop id="stop4236" offset="1" stop-color="#5ea5fb" stop-opacity="1"/></linearGradient><linearGradient id="linearGradient3426" x1="399.571" x2="399.571" y1="545.798" y2="517.798" gradientUnits="userSpaceOnUse" xlink:href="#linearGradient4232"/><linearGradient id="linearGradient4181" x1="399.994" x2="399.994" y1="545.139" y2="518.139" gradientUnits="userSpaceOnUse" xlink:href="#linearGradient4180"/><style id="current-color-scheme" type="text/css"/><style id="current-color-scheme-8" type="text/css"/><style id="current-color-scheme-7" type="text/css"/><linearGradient id="linearGradient4207" osb:paint="gradient"><stop id="stop3371" offset="0" stop-color="#3498db" stop-opacity="1"/><stop id="stop3373" offset="1" stop-color="#3498db" stop-opacity="0"/></linearGradient></defs><metadata id="metadata5458"/><g id="layer1" transform="translate(-384.57143,-499.798)"><g id="g4471" transform="matrix(1.0931221,0,0,1.0931221,33.310366,-50.486049)"><g id="g4180" transform="matrix(1.0320907,0,0,1.0320907,-11.255524,-16.997542)"><g id="g4320" stroke="none" transform="matrix(0.98381885,0,0,0.98381885,5.5651187,8.3948576)"><g id="layer1-3" stroke="none" stroke-dasharray="none" stroke-miterlimit="4" stroke-opacity="1" stroke-width="1.3" transform="matrix(1.5444819,0,0,1.5444819,-275.17538,-295.73877)"><circle id="path3377" cx="400.571" cy="531.798" r="14" fill="url(#linearGradient4181)" fill-opacity="1" stroke="none" stroke-dasharray="none" stroke-dashoffset="0" stroke-miterlimit="4" stroke-opacity="1" stroke-width=".941" opacity="1"/><circle id="ellipse4233" cx="400.571" cy="531.798" r="0" fill="url(#linearGradient3426)" fill-opacity="1" stroke="none" stroke-dasharray="none" stroke-dashoffset="0" stroke-miterlimit="4" stroke-opacity="1" stroke-width="1.3" opacity="1"/></g></g><g id="layer1-2" fill="#fff" fill-opacity=".85" transform="matrix(0.91481089,0,0,0.91481089,-162.89312,-245.87653)"><g id="layer1-6" fill="#fff" fill-opacity=".85" transform="translate(-120.10595,41.912995)"><path id="path7811" fill="#fff" fill-opacity=".85" fill-rule="evenodd" d="m 674.86424,786.86016 c -3.34274,0.10837 8.90473,17.00542 -0.528,15.92622 7.86598,2.17939 9.66748,-7.97286 8.06098,-12.93986 -1.59075,-4.91939 -2.41799,-1.84971 -7.15948,-2.94241 -0.14175,-0.0326 -0.26625,-0.0475 -0.3735,-0.0439 z m -9.37273,2.35534 c -5.17026,-0.007 -2.50626,1.72911 -5.01088,5.90176 -2.39197,3.98455 18.8947,-3.1521 14.82671,5.76346 4.50299,-6.80666 -4.59599,-11.65817 -9.81598,-11.66492 z m 3.6375,7.62787 c -4.13699,-0.01 -8.30023,4.69102 -9.46423,8.2571 -1.6044,4.91526 0.86917,2.91885 4.06349,6.58992 3.05024,3.50683 2.84249,-18.94556 10.06497,-12.32114 -1.42949,-1.79616 -3.04499,-2.52138 -4.66423,-2.52588 z m 17.7817,0.79834 c -2.79284,0.26727 -12.98097,13.21735 -14.68646,4.81326 0.35829,8.1536 10.57272,6.73025 14.79896,3.66777 4.18716,-3.03367 1.01077,-2.87303 0.58447,-7.72087 -0.0509,-0.57873 -0.29829,-0.79841 -0.69726,-0.76024 z m -15.02321,2.69957 c -7.64398,2.86043 -3.13327,12.13515 1.08547,15.2085 4.17899,3.04477 3.04469,0.0739 7.52323,-1.82954 4.27739,-1.81783 -17.14045,-8.55708 -8.60923,-13.37934 z"/></g></g></g></g></g></svg>