<svg xmlns="http://www.w3.org/2000/svg" xmlns:svg="http://www.w3.org/2000/svg" xmlns:xlink="http://www.w3.org/1999/xlink" id="svg5453" width="48" height="48" version="1.1"><defs id="defs5455"><linearGradient id="linearGradient4232"><stop id="stop4234-0" offset="0" stop-color="#3889e9" stop-opacity="1"/><stop id="stop4236" offset="1" stop-color="#5ea5fb" stop-opacity="1"/></linearGradient><linearGradient id="linearGradient3426" x1="399.571" x2="399.571" y1="545.798" y2="517.798" gradientUnits="userSpaceOnUse" xlink:href="#linearGradient4232"/><linearGradient id="linearGradient4181" x1="396.123" x2="395.638" y1="544.26" y2="518.267" gradientUnits="userSpaceOnUse" xlink:href="#linearGradient4965"/><style id="current-color-scheme" type="text/css"/><style id="current-color-scheme-8" type="text/css"/><style id="current-color-scheme-7" type="text/css"/><linearGradient id="linearGradient4965"><stop id="stop4967" offset="0" stop-color="#007aac" stop-opacity="1"/><stop id="stop4969" offset="1" stop-color="#35cc95" stop-opacity="1"/></linearGradient><style id="current-color-scheme-55" type="text/css"/><style id="current-color-scheme-8-9" type="text/css"/><style id="current-color-scheme-7-8" type="text/css"/><style id="current-color-scheme-5" type="text/css"/><style id="current-color-scheme-8-2" type="text/css"/><style id="current-color-scheme-7-4" type="text/css"/></defs><metadata id="metadata5458"/><g id="layer1" transform="translate(-384.57143,-499.798)"><g id="g4471" transform="matrix(1.0931221,0,0,1.0931221,33.310366,-50.486049)"><g id="layer1-2" fill="#fff" fill-opacity="1" transform="matrix(0.91481089,0,0,0.91481089,-162.89312,-245.51061)"><g id="g4192" transform="matrix(1.0320907,0,0,1.0320907,-18.017807,-27.192689)"><g id="g4320" stroke="none" transform="matrix(1.0754341,0,0,1.0754341,184.14542,277.54968)"><g id="layer1-3" stroke="none" stroke-dasharray="none" stroke-miterlimit="4" stroke-opacity="1" stroke-width="1.3" transform="matrix(1.5444819,0,0,1.5444819,-275.17538,-295.73877)"><circle id="path3377" cx="400.571" cy="531.798" r="14" fill="url(#linearGradient4181)" fill-opacity="1" stroke="none" stroke-dasharray="none" stroke-dashoffset="0" stroke-miterlimit="4" stroke-opacity="1" stroke-width=".941" opacity="1"/><circle id="ellipse4233" cx="400.571" cy="531.798" r="0" fill="url(#linearGradient3426)" fill-opacity="1" stroke="none" stroke-dasharray="none" stroke-dashoffset="0" stroke-miterlimit="4" stroke-opacity="1" stroke-width="1.3" opacity="1"/></g></g></g></g><path id="path4241" fill="#fff" fill-opacity=".851" d="m 351.01655,511.85256 c 3.20865,1.50588 4.65994,5.11141 3.24339,8.07419 -1.0304,2.15519 -2.95671,3.16103 -4.83697,3.00493 -2.02765,-0.16834 -3.43763,-1.66939 -3.73708,-3.04075 -0.47845,-2.19109 1.77587,-4.48797 3.5301,-3.2147 0.29001,0.21059 0.8526,0.89559 0.3468,1.52569 -0.40216,0.50095 -0.89705,-0.23036 -1.32339,0.29608 -0.3999,0.4937 -0.0949,1.18769 0.3046,1.50044 0.8229,0.64414 1.69181,0.40079 2.24265,0.0826 1.80542,-1.04273 1.59604,-3.47573 0.56131,-4.7638 -2.08848,-2.59974 -6.15422,-1.74464 -7.70472,1.28718 -1.16932,2.28645 -0.65182,4.56978 0.72974,6.33936 0.77156,0.98827 1.89922,1.82476 3.18002,2.24867 1.17725,0.38956 2.40593,0.53058 3.56712,1.21982 2.21791,1.31646 3.19243,2.95639 3.68758,4.55827 0.59688,1.93071 0.61093,4.36055 -1.04038,6.7116 -1.53079,2.17929 -4.14015,3.07303 -6.42227,2.68574 -3.8733,-0.65727 -5.99414,-4.6465 -4.17049,-7.77005 1.31505,-2.25244 4.45591,-3.0424 6.17898,-0.94037 0.55565,0.67791 0.74533,1.6953 0.49921,2.41924 -0.55655,1.63747 -2.22308,1.52819 -2.52861,0.77752 -0.25363,-0.62331 0.58709,-0.64814 0.47116,-1.265 -0.18448,-0.98203 -1.71599,-0.75088 -2.3015,0.11133 -0.74286,1.09404 -0.23858,2.37173 0.19609,2.92532 0.88694,1.12949 2.2997,1.28964 3.1961,1.16947 0.99294,-0.13304 2.09765,-0.7231 2.77245,-1.66289 1.04372,-1.45343 1.05444,-3.08809 0.67978,-4.29173 -0.40821,-1.31099 -1.22702,-2.4974 -2.91951,-3.35323 -2.49625,-1.26225 -5.21089,-0.50992 -6.92936,0.94939 -1.14005,0.96812 -1.81325,1.87455 -2.94887,2.53138 -2.82555,1.63424 -7.50549,1.93642 -10.3712,-1.91455 -1.27339,-1.71112 -2.03171,-4.41386 -0.77235,-6.93787 1.27994,-2.56541 3.70101,-3.67149 5.79777,-3.46089 2.83476,0.28472 4.47738,2.61539 4.4801,4.57456 0.002,1.48913 -1.18853,3.31318 -2.70355,3.65248 -1.14547,0.25653 -2.33135,-0.29353 -2.8251,-1.11917 -0.5631,-0.94146 0.0985,-2.43982 0.95944,-2.17585 0.67851,0.20806 0.19104,0.73239 0.78479,0.98582 0.99188,0.42327 1.57945,-1.37468 0.92567,-2.31073 -1.18738,-1.69997 -3.59699,-1.06784 -4.57775,0.18046 -1.07201,1.3645 -0.94637,2.86445 -0.562,3.90381 0.31885,0.86219 0.95108,1.8492 2.05892,2.49399 2.65852,1.54735 6.23579,0.56664 7.90597,-2.77117 1.00836,-2.01516 0.58315,-3.67598 0.08,-5.68235 -0.43282,-1.72573 -0.54356,-3.72748 0.45942,-5.74169 1.13068,-2.27055 2.76138,-3.43915 4.36411,-4.0331 1.56269,-0.57904 3.58892,-0.64319 5.47175,0.24052 z"/></g></g></svg>