<svg xmlns="http://www.w3.org/2000/svg" xmlns:osb="http://www.openswatchbook.org/uri/2009/osb" xmlns:svg="http://www.w3.org/2000/svg" xmlns:xlink="http://www.w3.org/1999/xlink" id="svg5453" width="48" height="48" version="1.1"><defs id="defs5455"><linearGradient id="linearGradient4581"><stop id="stop4583" offset="0" stop-color="#4469b9" stop-opacity="1"/><stop id="stop4585" offset="1" stop-color="#5d91ff" stop-opacity="1"/></linearGradient><linearGradient id="linearGradient4232"><stop id="stop4234-0" offset="0" stop-color="#3889e9" stop-opacity="1"/><stop id="stop4236" offset="1" stop-color="#5ea5fb" stop-opacity="1"/></linearGradient><linearGradient id="linearGradient3426" x1="399.571" x2="399.571" y1="545.798" y2="517.798" gradientUnits="userSpaceOnUse" xlink:href="#linearGradient4232"/><linearGradient id="linearGradient4181" x1="399.994" x2="399.994" y1="545.139" y2="518.139" gradientUnits="userSpaceOnUse" xlink:href="#linearGradient4581"/><style id="current-color-scheme" type="text/css"/><style id="current-color-scheme-8" type="text/css"/><style id="current-color-scheme-7" type="text/css"/><linearGradient id="linearGradient4207" osb:paint="gradient"><stop id="stop3371" offset="0" stop-color="#3498db" stop-opacity="1"/><stop id="stop3373" offset="1" stop-color="#3498db" stop-opacity="0"/></linearGradient></defs><metadata id="metadata5458"/><g id="layer1" transform="translate(-384.57143,-499.798)"><g id="g4471" transform="matrix(1.0931221,0,0,1.0931221,33.310366,-50.486049)"><g id="layer1-2" transform="matrix(0.91481089,0,0,0.91481089,-163.16748,-245.05342)"><g id="layer1-6" transform="translate(-120.10595,41.912995)"><g id="g5657" stroke="none" stroke-dasharray="none" stroke-miterlimit="4" stroke-opacity="1" stroke-width="1.3" transform="matrix(1.4798576,0,0,1.4798576,22.783781,14.417625)"><g id="g4186" transform="matrix(1.0320907,0,0,1.0320907,-14.292309,-17.14284)"><g id="g4320" stroke="none" transform="matrix(0.72671458,0,0,0.72671458,190.40177,149.14901)"><g id="layer1-3" stroke="none" stroke-dasharray="none" stroke-miterlimit="4" stroke-opacity="1" stroke-width="1.3" transform="matrix(1.5444819,0,0,1.5444819,-275.17538,-295.73877)"><circle id="path3377" cx="400.571" cy="531.798" r="14" fill="url(#linearGradient4181)" fill-opacity="1" stroke="none" stroke-dasharray="none" stroke-dashoffset="0" stroke-miterlimit="4" stroke-opacity="1" stroke-width=".941" opacity="1"/><circle id="ellipse4233" cx="400.571" cy="531.798" r="0" fill="url(#linearGradient3426)" fill-opacity="1" stroke="none" stroke-dasharray="none" stroke-dashoffset="0" stroke-miterlimit="4" stroke-opacity="1" stroke-width="1.3" opacity="1"/></g></g><path id="path4070" fill="#fff" fill-opacity="1" d="m 444.2361,521.26551 c -3.18888,0 -5.77373,2.58503 -5.77373,5.77379 l 0,3.06191 -3.04722,0 c -3.18882,0 -5.77367,2.57239 -5.77367,5.76103 0,3.18906 2.58497,5.77397 5.77367,5.77397 3.18841,0 5.77337,-2.58491 5.77337,-5.77397 l 0,-3.07456 3.04758,0 c 3.18841,0 5.77337,-2.5598 5.77337,-5.74838 0,-3.18876 -2.58496,-5.77379 -5.77337,-5.77379 z m -5.77373,14.60034 c -0.002,1.68021 -1.36611,3.04235 -3.04722,3.04235 -1.68291,0 -3.0598,-1.36437 -3.0598,-3.04729 0,-1.68351 1.37689,-3.07317 3.0598,-3.07317 l 2.61712,0 c 0.23772,0 0.4305,0.19242 0.4305,0.42975 0,4.2e-4 -3e-4,4.2e-4 -3e-4,0 l 0,2.64734 -9e-5,0 z m 5.77343,-5.76644 -2.61729,0 c -0.23773,0 -0.43001,-0.1923 -0.43001,-0.43023 l 0,-2.63464 c 0.003,-1.68122 1.36611,-3.04282 3.04734,-3.04282 1.68291,0 3.0601,1.36443 3.0601,3.0477 0,1.68303 -1.37719,3.05999 -3.0601,3.05999 z" opacity=".2"/><path id="path4072" fill="#fff" fill-opacity=".85" d="m 438.46243,530.11566 0,-3.06203 c 0,-3.18883 2.58485,-5.77385 5.77373,-5.77385 0.48374,0 0.82746,0.0548 1.27521,0.1717 0.65298,0.17129 1.18628,0.70621 1.18658,1.32891 2.9e-4,0.75281 -0.54614,1.30001 -1.3628,1.30001 -0.38906,0 -0.52966,-0.0745 -1.09929,-0.0745 -1.68122,0 -3.04451,1.36159 -3.04734,3.04282 l 0,2.63452 c 0,0.23793 0.19228,0.43022 0.43001,0.43022 l 2.0026,0 c 0.74576,0 1.34794,0.59706 1.34854,1.34474 0,0.74805 -0.60308,1.34372 -1.34854,1.34372 l -2.43264,0 0,3.07462 c 0,3.18846 -2.58497,5.77337 -5.77337,5.77337 -0.48384,0 -0.82758,-0.0548 -1.27533,-0.17177 -0.65298,-0.17116 -1.18646,-0.70639 -1.18676,-1.32891 0,-0.75256 0.54605,-1.3 1.36304,-1.3 0.38867,0 0.52966,0.0746 1.09899,0.0746 1.68122,0 3.04487,-1.36172 3.04752,-3.04235 l 0,-2.6483 c 0,-0.23739 -0.19278,-0.42968 -0.4305,-0.42968 l -2.00206,0 c -0.74594,0 -1.34865,-0.59513 -1.34865,-1.34336 -2e-4,-0.75238 0.60891,-1.34504 1.3628,-1.34504 l 2.41808,0 0,-6e-5 z"/></g></g></g></g></g></g></svg>