<svg xmlns="http://www.w3.org/2000/svg" xmlns:svg="http://www.w3.org/2000/svg" xmlns:xlink="http://www.w3.org/1999/xlink" id="svg5453" width="48" height="48" version="1.1"><defs id="defs5455"><linearGradient id="linearGradient4232"><stop id="stop4234-0" offset="0" stop-color="#3889e9" stop-opacity="1"/><stop id="stop4236" offset="1" stop-color="#5ea5fb" stop-opacity="1"/></linearGradient><linearGradient id="linearGradient3426" x1="399.571" x2="399.571" y1="545.798" y2="517.798" gradientUnits="userSpaceOnUse" xlink:href="#linearGradient4232"/><linearGradient id="linearGradient4181" x1="399.994" x2="399.994" y1="545.139" y2="518.139" gradientUnits="userSpaceOnUse" xlink:href="#linearGradient4215"/><style id="current-color-scheme" type="text/css"/><style id="current-color-scheme-8" type="text/css"/><style id="current-color-scheme-7" type="text/css"/><linearGradient id="linearGradient4833" x1="25.425" x2="23.119" y1="1043.017" y2="1015.555" gradientUnits="userSpaceOnUse" xlink:href="#linearGradient5092"/><linearGradient id="linearGradient5092"><stop id="stop5094" offset="0" stop-color="#dfe2e3" stop-opacity="1"/><stop id="stop5096" offset="1" stop-color="#fdfdfe" stop-opacity="1"/></linearGradient><style id="current-color-scheme-5" type="text/css"/><style id="current-color-scheme-8-2" type="text/css"/><style id="current-color-scheme-7-4" type="text/css"/><linearGradient id="linearGradient4215"><stop id="stop4217" offset="0" stop-color="#00a661" stop-opacity="1"/><stop id="stop4219" offset="1" stop-color="#37ce97" stop-opacity="1"/></linearGradient></defs><metadata id="metadata5458"/><g id="layer1" transform="translate(-384.57143,-499.798)"><g id="g4183" transform="matrix(1.0320907,0,0,1.0320907,-13.372621,-16.960263)"><g id="g4471" transform="matrix(1.0931221,0,0,1.0931221,33.310366,-50.486049)"><g id="g4320" stroke="none" transform="matrix(0.98381885,0,0,0.98381885,5.5651187,8.3948576)"><g id="layer1-3" stroke="none" stroke-dasharray="none" stroke-miterlimit="4" stroke-opacity="1" stroke-width="1.3" transform="matrix(1.5444819,0,0,1.5444819,-275.17538,-295.73877)"><circle id="path3377" cx="400.571" cy="531.798" r="14" fill="url(#linearGradient4181)" fill-opacity="1" stroke="none" stroke-dasharray="none" stroke-dashoffset="0" stroke-miterlimit="4" stroke-opacity="1" stroke-width=".941" opacity="1"/><circle id="ellipse4233" cx="400.571" cy="531.798" r="0" fill="url(#linearGradient3426)" fill-opacity="1" stroke="none" stroke-dasharray="none" stroke-dashoffset="0" stroke-miterlimit="4" stroke-opacity="1" stroke-width="1.3" opacity="1"/></g></g></g><path id="path3895" fill="#fff" fill-opacity=".86" d="m 397.84443,511.85767 0,10.31614 6.44758,0 0,-3.86855 7.7371,0 0,-6.44759 -9.02662,0 z m 15.47419,0 0,25.79033 6.44758,0 0,-25.79033 z m -7.7371,7.73711 0,18.05322 6.44759,0 0,-18.05322 z m -7.73709,3.86854 0,14.18468 6.44758,0 0,-14.18468 z" color="#000" enable-background="new"/></g></g></svg>