<svg xmlns="http://www.w3.org/2000/svg" xmlns:osb="http://www.openswatchbook.org/uri/2009/osb" xmlns:svg="http://www.w3.org/2000/svg" xmlns:xlink="http://www.w3.org/1999/xlink" id="svg5453" width="48" height="48" version="1.1"><defs id="defs5455"><linearGradient id="linearGradient4207" osb:paint="gradient"><stop id="stop3371" offset="0" stop-color="#3498db" stop-opacity="1"/><stop id="stop3373" offset="1" stop-color="#3498db" stop-opacity="0"/></linearGradient><linearGradient id="linearGradient4182" x1="373.61" x2="373.571" y1="544.495" y2="507.798" gradientTransform="matrix(1.1355498,0,0,1.1355498,-68.51828,-71.302446)" gradientUnits="userSpaceOnUse" xlink:href="#linearGradient4272"/><linearGradient id="linearGradient4182-3" x1="373.445" x2="373.445" y1="546.795" y2="507.866" gradientTransform="matrix(-0.56777405,0,0,0.61822428,579.27321,212.13023)" gradientUnits="userSpaceOnUse" xlink:href="#linearGradient4258"/><linearGradient id="linearGradient4258"><stop id="stop4260" offset="0" stop-color="#b1d7fc" stop-opacity="1"/><stop id="stop4262" offset="1" stop-color="#f4fcff" stop-opacity="1"/></linearGradient><linearGradient id="linearGradient4272"><stop id="stop4274" offset="0" stop-color="#2f74c8" stop-opacity="1"/><stop id="stop4276" offset="1" stop-color="#4aa2e4" stop-opacity="1"/></linearGradient></defs><metadata id="metadata5458"/><g id="layer1" transform="translate(-384.57143,-499.798)"><g id="g4388" transform="matrix(0.97459608,0,0,0.97459608,62.267446,10.486879)"><path id="path3" fill="url(#linearGradient4182)" fill-opacity="1" d="m 372.72396,511.00526 c -4.64376,-3.77923 -10.8097,-5.86043 -17.36188,-5.86043 -6.5523,0 -12.71825,2.08134 -17.3619,5.86043 -4.68415,3.81204 -7.26383,8.89248 -7.26383,14.30562 0,5.1665 2.35146,10.0291 6.6381,13.77566 -0.0773,0.17385 -0.13864,0.35675 -0.1778,0.54904 l -1.40852,6.92833 c -0.16748,0.8234 0.0576,1.31439 0.27567,1.58146 0.25214,0.30847 0.62586,0.47846 1.05242,0.47846 l 0,0 c 0.32207,0 0.66821,-0.095 1.02889,-0.28251 l 8.19253,-4.25611 c 2.83641,0.91297 5.88571,1.3917 9.02427,1.3917 6.55233,0 12.71811,-2.0813 17.36192,-5.8604 4.68401,-3.81192 7.26369,-8.89237 7.26369,-14.3055 0,-5.41327 -2.57956,-10.49371 -7.26357,-14.30575 z"/><g id="layer1-91" fill="#fff" fill-opacity=".85" transform="matrix(1.0663245,0,0,1.0663245,-134.19043,-27.623275)"><g id="g4313" fill="#fff" fill-opacity=".85" transform="translate(42.688261,5.2633756)"><g id="layer1-9" fill="#fff" fill-opacity=".85" transform="translate(-42.527256,-5.8883759)"><g id="g4414" fill="#fff" fill-opacity=".85" transform="matrix(0.83374987,0,0,0.83374987,123.84645,78.751136)"><path id="path5" fill="#fff" fill-opacity=".85" d="m 391.16596,520.8313 c 0,-1.79082 1.45598,-3.24421 3.25118,-3.24421 1.7947,0 3.25069,1.45287 3.25069,3.24421 0,1.7924 -1.45599,3.24525 -3.25069,3.24525 -1.7952,-5.2e-4 -3.25118,-1.45285 -3.25118,-3.24525 z m 14.74178,0 c 0,-1.79082 1.45756,-3.24421 3.25226,-3.24421 1.79467,0 3.25118,1.45287 3.25118,3.24421 0,1.7924 -1.45597,3.24525 -3.25118,3.24525 -1.79417,-5.2e-4 -3.25226,-1.45285 -3.25226,-3.24525 z m 7.68679,13.28759 c -2.01488,4.64945 -6.7336,7.65352 -12.02171,7.65352 -5.40083,0 -10.14734,-3.01924 -12.09249,-7.69223 -0.33347,-0.80046 0.0467,-1.71916 0.84937,-2.0519 0.19713,-0.0811 0.4016,-0.1198 0.60294,-0.1198 0.61658,0 1.20171,0.36412 1.45285,0.96838 1.45598,3.49743 5.06213,5.75703 9.18733,5.75703 4.03188,0 7.61705,-2.26116 9.13386,-5.7612 0.34499,-0.79575 1.27091,-1.1625 2.06732,-0.8172 0.79851,0.34373 1.16553,1.26765 0.82053,2.0634 z"/></g></g></g></g><path id="path3-6" fill="url(#linearGradient4182-3)" fill-opacity="1" d="m 358.65242,529.1544 c 2.32189,-2.05752 5.40486,-3.19058 8.68093,-3.19058 3.27614,0 6.35912,1.13313 8.68094,3.19058 2.34206,2.07537 3.63191,4.8413 3.63191,7.78837 0,2.81279 -1.17574,5.46009 -3.31906,7.49984 0.0388,0.0947 0.0694,0.19423 0.0889,0.29891 l 0.70425,3.77197 c 0.0837,0.44829 -0.0287,0.7156 -0.13788,0.861 -0.12614,0.16793 -0.31294,0.26049 -0.52621,0.26049 l 0,0 c -0.16104,0 -0.3341,-0.0517 -0.51444,-0.15382 l -4.09627,-2.31712 c -1.4182,0.49704 -2.94284,0.75766 -4.51213,0.75766 -3.27614,0 -6.35905,-1.13311 -8.68093,-3.19056 -2.342,-2.07531 -3.63185,-4.84125 -3.63185,-7.7883 0,-2.94714 1.28978,-5.71307 3.63178,-7.78844 z"/><g id="g4359" fill="#3c8bd6" fill-opacity="1" transform="matrix(1.0732672,0,0,1.0732672,-59.631031,-48.551177)"><circle id="path4279" cx="393.037" cy="545.5" r="2.084" fill="#3c8bd6" fill-opacity="1" stroke="none" stroke-dasharray="none" stroke-linecap="round" stroke-linejoin="round" stroke-miterlimit="4" stroke-opacity="1" stroke-width=".5" opacity=".837"/><circle id="path4279-4" cx="397.789" cy="545.5" r="2.084" fill="#3c8bd6" fill-opacity="1" stroke="none" stroke-dasharray="none" stroke-linecap="round" stroke-linejoin="round" stroke-miterlimit="4" stroke-opacity="1" stroke-width=".5" opacity=".837"/><circle id="path4279-4-7" cx="402.783" cy="545.5" r="2.084" fill="#3c8bd6" fill-opacity="1" stroke="none" stroke-dasharray="none" stroke-linecap="round" stroke-linejoin="round" stroke-miterlimit="4" stroke-opacity="1" stroke-width=".5" opacity=".837"/></g></g></g></svg>