<svg xmlns="http://www.w3.org/2000/svg" xmlns:osb="http://www.openswatchbook.org/uri/2009/osb" xmlns:svg="http://www.w3.org/2000/svg" xmlns:xlink="http://www.w3.org/1999/xlink" id="svg5453" width="48" height="48" version="1.1"><defs id="defs5455"><linearGradient id="linearGradient8311-06"><stop id="stop8313-6" offset="0" stop-color="#a9a3d4" stop-opacity="1"/><stop id="stop4462" offset=".47" stop-color="#87baff" stop-opacity="1"/><stop id="stop8315-2" offset="1" stop-color="#89ec85" stop-opacity="1"/></linearGradient><linearGradient id="linearGradient4460" x1="0" x2="47" y1="23.5" y2="23.5" gradientUnits="userSpaceOnUse" xlink:href="#linearGradient8311-06"/><linearGradient id="linearGradient4207" osb:paint="gradient"><stop id="stop3371" offset="0" stop-color="#3498db" stop-opacity="1"/><stop id="stop3373" offset="1" stop-color="#3498db" stop-opacity="0"/></linearGradient><linearGradient id="linearGradient8467-5"><stop id="stop8469-7" offset="0" stop-color="#d3d3d3" stop-opacity="1"/><stop id="stop8471-0" offset="1" stop-color="#fcf9f9" stop-opacity="1"/></linearGradient><linearGradient id="linearGradient4740" x1="400.571" x2="400.571" y1="546.798" y2="516.798" gradientTransform="matrix(1.0366665,0,0,1.0366665,-14.651148,-19.553372)" gradientUnits="userSpaceOnUse" xlink:href="#linearGradient8467-7-3"/><style id="current-color-scheme" type="text/css"/><style id="current-color-scheme-8" type="text/css"/><style id="current-color-scheme-7" type="text/css"/><style id="current-color-scheme-0" type="text/css"/><style id="current-color-scheme-8-6" type="text/css"/><style id="current-color-scheme-7-6" type="text/css"/><style id="current-color-scheme-4" type="text/css"/><style id="current-color-scheme-8-0" type="text/css"/><style id="current-color-scheme-7-7" type="text/css"/><linearGradient id="linearGradient8467-7-3"><stop id="stop8469-4-0" offset="0" stop-color="#0bac83" stop-opacity="1"/><stop id="stop8471-7-5" offset="1" stop-color="#10da96" stop-opacity="1"/></linearGradient></defs><metadata id="metadata5458"/><g id="layer1" transform="translate(-384.57143,-499.798)"><g id="layer1-4" transform="translate(392.24401,-502.51656)"><g id="g4413" stroke-dasharray="none" stroke-miterlimit="4" stroke-width="1.317" transform="matrix(1.138587,0,0,1.138587,-3.4562036,-142.80276)"><g id="g4312" transform="matrix(1.0539376,0,0,1.0539376,-0.91298719,-55.411661)"><g id="layer1-0" transform="matrix(0.83333358,0,0,0.83333358,-408.28112,587.90224)"><g id="layer1-8" transform="matrix(1.4790997,0,0,1.4790997,-147.18469,-273.01526)"><g id="g4358" transform="translate(43.835491,8.8204897)"><circle id="path4175" cx="400.993" cy="531.874" r="15.55" fill="url(#linearGradient4740)" fill-opacity="1" stroke="none" stroke-dasharray="none" stroke-linecap="round" stroke-linejoin="round" stroke-miterlimit="4" stroke-opacity="1" stroke-width="1.5" opacity="1"/><path id="Music" fill="#fff" fill-opacity=".848" d="m 398.51804,525.61064 c -0.56004,0.15717 -1.01086,0.78214 -1.01086,1.38928 l 0,9.62532 c -0.56789,-0.31135 -1.29721,-0.43725 -2.05334,-0.23149 -1.36441,0.37118 -2.21944,1.57085 -1.92697,2.67922 0.29249,1.1083 1.63658,1.72735 3.00104,1.35608 1.08851,-0.29612 1.83888,-1.13406 1.95852,-2.01765 l 0.0319,-9.09613 7.07607,-1.98462 0,7.1777 c -0.56789,-0.31137 -1.2972,-0.43726 -2.05335,-0.23157 -1.3644,0.3712 -2.21941,1.57093 -1.92695,2.67923 0.2925,1.10836 1.63659,1.72733 3.00101,1.35614 1.08853,-0.29612 1.83889,-1.13404 1.95855,-2.01764 l 0.032,-11.84156 c 0,-0.45528 -0.26874,-0.7959 -0.63178,-0.85997 l -7.45514,2.01766 z" opacity=".9"/></g></g></g></g></g></g></g></svg>