<svg xmlns="http://www.w3.org/2000/svg" xmlns:osb="http://www.openswatchbook.org/uri/2009/osb" xmlns:svg="http://www.w3.org/2000/svg" xmlns:xlink="http://www.w3.org/1999/xlink" id="svg5453" width="48" height="48" version="1.1"><defs id="defs5455"><linearGradient id="linearGradient4207" osb:paint="gradient"><stop id="stop3371" offset="0" stop-color="#3498db" stop-opacity="1"/><stop id="stop3373" offset="1" stop-color="#3498db" stop-opacity="0"/></linearGradient><linearGradient id="linearGradient4182-3" x1="374.543" x2="374.543" y1="507.154" y2="548.646" gradientTransform="matrix(-0.56777405,0,0,0.61822428,579.27321,212.13023)" gradientUnits="userSpaceOnUse" xlink:href="#linearGradient4496"/><linearGradient id="linearGradient4496"><stop id="stop4498" offset="0" stop-color="#fdcc59" stop-opacity="1"/><stop id="stop4500" offset="1" stop-color="#f5a844" stop-opacity="1"/></linearGradient></defs><metadata id="metadata5458"/><g id="layer1" transform="translate(-384.57143,-499.798)"><g id="g4206" transform="matrix(0.63218236,0,0,0.63218236,390.20772,511.19976)"><g id="g4166"><g id="g4236"><g id="g5919" transform="matrix(3.1636398,0,0,3.1636398,-1300.3802,-1671.2856)"><g id="g4388" transform="matrix(0.97459608,0,0,0.97459608,62.267446,10.486879)"><path id="path3-6" fill="url(#linearGradient4182-3)" fill-opacity="1" d="m 358.65242,529.1544 c 2.32189,-2.05752 5.40486,-3.19058 8.68093,-3.19058 3.27614,0 6.35912,1.13313 8.68094,3.19058 2.34206,2.07537 3.63191,4.8413 3.63191,7.78837 0,2.81279 -1.17574,5.46009 -3.31906,7.49984 0.0388,0.0947 0.0694,0.19423 0.0889,0.29891 l 0.70425,3.77197 c 0.0837,0.44829 -0.0287,0.7156 -0.13788,0.861 -0.12614,0.16793 -0.31294,0.26049 -0.52621,0.26049 l 0,0 c -0.16104,0 -0.3341,-0.0517 -0.51444,-0.15382 l -4.09627,-2.31712 c -1.4182,0.49704 -2.94284,0.75766 -4.51213,0.75766 -3.27614,0 -6.35905,-1.13311 -8.68093,-3.19056 -2.342,-2.07531 -3.63185,-4.84125 -3.63185,-7.7883 0,-2.94714 1.28978,-5.71307 3.63178,-7.78844 z"/></g></g><path id="path4168" d="m 6.711,6.1971089 c 0,-3.2569752 2.6415363,-5.89851151 5.899462,-5.89851151 3.256025,0 5.897561,2.64153631 5.897561,5.89851151 0,3.2588776 -2.641536,5.9004141 -5.897561,5.9004141 C 9.3525363,12.097523 6.711,9.4550353 6.711,6.1971089 Z m 26.745436,0 c 0,-3.2569752 2.64439,-5.89851151 5.900414,-5.89851151 3.256023,0 5.898511,2.64153631 5.898511,5.89851151 0,3.2588776 -2.641536,5.9004141 -5.898511,5.9004141 -3.256024,0 -5.900414,-2.6424877 -5.900414,-5.9004141 z"/><g id="text4225" fill="#000" fill-opacity="1" stroke="none" stroke-linecap="butt" stroke-linejoin="miter" stroke-opacity="1" stroke-width="1" font-family="sans-serif" font-size="27.723" font-style="normal" font-weight="normal" letter-spacing="0" transform="scale(-1,1)" word-spacing="0" style="line-height:125%"><path style="-inkscape-font-specification:'Product Sans'" id="path4230" d="m -24.805194,39.496431 q -1.912866,0 -3.714842,-1.192076 -1.801975,-1.192076 -2.495043,-3.548505 l 2.328707,-0.970295 q 0.443563,1.552471 1.469303,2.411875 1.02574,0.859404 2.411875,0.859404 1.552471,0 2.661379,-0.970295 1.13663,-0.970294 1.13663,-2.411875 0,-1.413857 -1.164353,-2.384152 -1.136631,-0.970294 -2.744547,-0.970294 l -1.635639,0 0,-2.384152 1.44158,0 q 1.497026,0 2.46732,-0.831681 0.998017,-0.831681 0.998017,-2.217816 0,-1.302967 -0.970294,-2.05148 -0.942572,-0.748512 -2.35643,-0.748512 -2.439597,0 -3.299001,2.46732 l -2.356429,-0.998017 q 0.554454,-1.524749 1.968312,-2.716825 1.413857,-1.192076 3.687118,-1.192076 2.550489,0 4.241573,1.497026 1.691085,1.469303 1.691085,3.742564 0,2.744547 -2.550488,4.075237 l 0,0.110891 q 1.386135,0.582176 2.273261,1.774252 0.914849,1.192076 0.914849,2.827715 0,2.522766 -1.857421,4.186128 -1.857421,1.635639 -4.546522,1.635639 z" font-family="Product Sans" font-stretch="normal" font-style="normal" font-variant="normal" font-weight="normal"/></g></g></g></g></g></svg>