<svg xmlns="http://www.w3.org/2000/svg" xmlns:osb="http://www.openswatchbook.org/uri/2009/osb" xmlns:svg="http://www.w3.org/2000/svg" xmlns:xlink="http://www.w3.org/1999/xlink" id="svg5453" width="48" height="48" version="1.1"><defs id="defs5455"><linearGradient id="linearGradient4222" x1="409.571" x2="409.571" y1="542.798" y2="507.798" gradientTransform="matrix(1.1131785,0,0,1.4405839,-27.025544,-245.98389)" gradientUnits="userSpaceOnUse" xlink:href="#linearGradient8467-7-3"/><linearGradient id="linearGradient4207" osb:paint="gradient"><stop id="stop3371" offset="0" stop-color="#3498db" stop-opacity="1"/><stop id="stop3373" offset="1" stop-color="#3498db" stop-opacity="0"/></linearGradient><style id="current-color-scheme" type="text/css"/><style id="current-color-scheme-8" type="text/css"/><style id="current-color-scheme-7" type="text/css"/><style id="current-color-scheme-0" type="text/css"/><style id="current-color-scheme-8-6" type="text/css"/><style id="current-color-scheme-7-6" type="text/css"/><style id="current-color-scheme-4" type="text/css"/><style id="current-color-scheme-8-0" type="text/css"/><style id="current-color-scheme-7-7" type="text/css"/><linearGradient id="linearGradient8467-7-3"><stop id="stop8469-4-0" offset="0" stop-color="#0bac83" stop-opacity="1"/><stop id="stop8471-7-5" offset="1" stop-color="#10da96" stop-opacity="1"/></linearGradient></defs><metadata id="metadata5458"/><g id="layer1" transform="translate(-384.57143,-499.798)"><g id="g4403" transform="translate(51.385479,-6.0099446)"><g id="layer1-1" transform="translate(-117.48432,12.127178)"><g id="layer1-2" transform="translate(-44.851169,1.8910219)"><g id="g4256" transform="matrix(0.90595131,0,0,0.90595131,131.92314,54.175376)"><g id="g4247" transform="matrix(1.036658,0,0,1.036658,-15.633529,-19.192846)"><rect id="rect4195" width="48.98" height="48.98" x="403.297" y="485.542" fill="url(#linearGradient4222)" fill-opacity="1" stroke="none" stroke-dasharray="none" stroke-linecap="round" stroke-linejoin="round" stroke-miterlimit="4" stroke-opacity="1" stroke-width=".2" opacity="1" ry="2.305"/></g></g><g id="g3" fill="#fff" fill-opacity=".851" transform="matrix(0.70112399,0,0,0.70112399,503.52171,499.78974)"><path id="path5" fill="#fff" fill-opacity=".851" d="m 43.183,37.582 -11.974,-22.153 0,-13.197 C 31.209,0.99 30.17,0 28.929,0 L 16.707,0 c -1.242,0 -2.264,0.99 -2.264,2.232 l 0,13.197 -11.984,22.153 c -0.914,1.689 -0.868,3.74 0.115,5.391 0.983,1.649 2.766,2.668 4.686,2.668 l 31.115,0 c 1.92,0 3.707,-1.019 4.69,-2.668 0.982,-1.651 1.032,-3.702 0.118,-5.391 z M 24.797,28.314 c 1.073,0 1.942,0.869 1.942,1.942 0,1.072 -0.871,1.942 -1.942,1.942 -1.072,0 -1.942,-0.87 -1.942,-1.942 0,-1.07 0.869,-1.942 1.942,-1.942 z M 19.336,16.637 c 1.073,0 1.942,0.87 1.942,1.943 0,1.072 -0.869,1.942 -1.942,1.942 -1.073,0 -1.942,-0.87 -1.942,-1.942 0.001,-1.073 0.869,-1.943 1.942,-1.943 z m 0,6.78 c 1.738,0 3.148,1.41 3.148,3.147 0,1.738 -1.41,3.147 -3.148,3.147 -1.739,0 -3.148,-1.409 -3.148,-3.147 0,-1.738 1.409,-3.147 3.148,-3.147 z m 18.078,16.145 c -0.404,0.688 -1.143,1.094 -1.938,1.094 l -25.317,0 C 9.363,40.656 8.625,40.25 8.221,39.562 7.817,38.874 7.806,38.034 8.193,37.336 l 3.043,-5.47 c 0.434,-0.782 1.29,-1.23 2.18,-1.145 4.041,0.385 8.583,3.842 12.642,3.688 2.174,-0.083 4.192,-0.875 6.114,-1.934 1.085,-0.6 2.45,-0.207 3.052,0.877 l 2.219,3.982 c 0.385,0.699 0.375,1.541 -0.029,2.228 z"/></g></g></g></g></g></svg>