<svg xmlns="http://www.w3.org/2000/svg" xmlns:svg="http://www.w3.org/2000/svg" xmlns:xlink="http://www.w3.org/1999/xlink" id="svg5453" width="48" height="48" version="1.1"><defs id="defs5455"><linearGradient id="linearGradient4675"><stop id="stop4677" offset="0" stop-color="#1f2121" stop-opacity="1"/><stop id="stop4679" offset="1" stop-color="#404447" stop-opacity="1"/></linearGradient><linearGradient id="linearGradient4409" x1="429.141" x2="386.837" y1="545.859" y2="501.855" gradientTransform="matrix(1.0375234,0,0,1.0375237,-15.374581,-20.019143)" gradientUnits="userSpaceOnUse" xlink:href="#linearGradient8467-5"/><linearGradient id="linearGradient4681" x1="408.024" x2="408.558" y1="545.259" y2="503.421" gradientTransform="matrix(1.0375234,0,0,1.0397255,-15.374581,-21.221079)" gradientUnits="userSpaceOnUse" xlink:href="#linearGradient4675"/><linearGradient id="linearGradient8467-5"><stop id="stop8469-7" offset="0" stop-color="#d3d3d3" stop-opacity="1"/><stop id="stop8471-0" offset="1" stop-color="#fcf9f9" stop-opacity="1"/></linearGradient></defs><metadata id="metadata5458"/><g id="layer1" transform="translate(-384.57143,-499.798)"><g id="g4547" transform="matrix(1.0280851,0,0,1.0280851,-11.417943,-14.772696)"><ellipse id="path4384" cx="408.529" cy="524.017" fill="url(#linearGradient4409)" fill-opacity="1" stroke="none" stroke-dasharray="none" stroke-linecap="round" stroke-linejoin="round" stroke-miterlimit="4" stroke-opacity="1" stroke-width="2" opacity="1" rx="23.344" ry="23.344"/><path id="Github" fill="url(#linearGradient4681)" fill-opacity="1" d="m 428.74104,512.25919 c -2.08734,-3.59427 -4.91897,-6.43983 -8.49524,-8.53747 -3.57702,-2.09761 -7.48198,-3.14623 -11.71747,-3.14623 -4.23512,0 -8.14118,1.049 -11.71746,3.14623 -3.57665,2.09764 -6.40827,4.9432 -8.49562,8.53747 -2.08734,3.59426 -3.13082,7.51919 -3.13082,11.7748 0,5.11153 1.48408,9.70831 4.453,13.79108 2.96853,4.08277 6.80335,6.90809 11.50444,8.47597 0.5473,0.102 0.95245,0.0304 1.21584,-0.21333 0.26339,-0.24443 0.39508,-0.54999 0.39508,-0.91628 0,-0.0611 -0.005,-0.61072 -0.0152,-1.64923 -0.0105,-1.03887 -0.0152,-1.94502 -0.0152,-2.71809 l -0.69914,0.12147 c -0.44582,0.0822 -1.00804,0.11697 -1.68703,0.10685 -0.67862,-0.009 -1.38298,-0.081 -2.11233,-0.21371 -0.72974,-0.13196 -1.40836,-0.43713 -2.03661,-0.91552 -0.62788,-0.47877 -1.0737,-1.10524 -1.3371,-1.87868 l -0.30405,-0.70295 c -0.20258,-0.46788 -0.52156,-0.98752 -0.95731,-1.55738 -0.43575,-0.57024 -0.87634,-0.95715 -1.32217,-1.16072 l -0.21265,-0.15259 c -0.14176,-0.102 -0.27346,-0.22457 -0.39508,-0.36704 -0.12162,-0.14247 -0.21265,-0.28493 -0.27347,-0.42776 -0.0608,-0.14248 -0.0105,-0.25982 0.15185,-0.35168 0.16229,-0.0918 0.45589,-0.13683 0.88157,-0.13683 l 0.60774,0.0915 c 0.40515,0.0814 0.90657,0.32541 1.50459,0.73294 0.59767,0.40715 1.08901,0.93653 1.47401,1.58774 0.46635,0.83531 1.0282,1.47153 1.68704,1.90942 0.65847,0.43789 1.32218,0.65646 1.99071,0.65646 0.66855,0 1.24607,-0.0509 1.73255,-0.15257 0.48613,-0.10158 0.94201,-0.25457 1.36769,-0.45815 0.18244,-1.36467 0.679,-2.41329 1.48931,-3.14625 -1.15503,-0.12222 -2.19329,-0.30592 -3.11554,-0.54999 -0.92186,-0.24444 -1.87431,-0.64148 -2.85698,-1.19184 -0.98305,-0.54961 -1.79858,-1.23195 -2.44698,-2.04626 -0.64841,-0.81468 -1.18041,-1.88392 -1.59564,-3.20736 -0.41523,-1.32381 -0.62303,-2.8508 -0.62303,-4.58178 0,-2.46429 0.80061,-4.56153 2.40147,-6.29249 -0.74988,-1.85281 -0.679,-3.92981 0.21265,-6.23101 0.58759,-0.18333 1.45909,-0.0458 2.61412,0.4124 1.15504,0.45814 2.00079,0.85067 2.53802,1.17609 0.53722,0.32543 0.96774,0.60099 1.29194,0.82481 1.88476,-0.52937 3.82997,-0.79407 5.83598,-0.79407 2.00602,0 3.95159,0.2647 5.83672,0.79407 l 1.15503,-0.73295 c 0.78981,-0.48888 1.72248,-0.9369 2.79582,-1.34406 1.07407,-0.40715 1.8952,-0.51925 2.46264,-0.33591 0.9118,2.30119 0.99275,4.3782 0.24287,6.23101 1.60086,1.73096 2.40148,3.82857 2.40148,6.29248 0,1.73098 -0.20818,3.26285 -0.62304,4.5968 -0.4156,1.33429 -0.95208,2.40278 -1.61055,3.20735 -0.65885,0.80455 -1.47961,1.48164 -2.46229,2.03126 -0.98304,0.54998 -1.9355,0.94702 -2.85736,1.19146 -0.92223,0.24445 -1.96049,0.42815 -3.11552,0.55037 1.05355,0.91629 1.58033,2.36193 1.58033,4.33733 l 0,6.44434 c 0,0.36628 0.12685,0.67183 0.38016,0.9159 0.25332,0.24407 0.65326,0.31568 1.20055,0.2137 4.70146,-1.56787 8.53628,-4.3932 11.50482,-8.47635 2.96853,-4.08241 4.45299,-8.67919 4.45299,-13.79109 -0.001,-4.25486 -1.04535,-8.17942 -3.13195,-11.77368 l 0,0 z"/></g></g></svg>