<svg xmlns="http://www.w3.org/2000/svg" xmlns:osb="http://www.openswatchbook.org/uri/2009/osb" xmlns:svg="http://www.w3.org/2000/svg" xmlns:xlink="http://www.w3.org/1999/xlink" id="svg5453" width="48" height="48" version="1.1"><defs id="defs5455"><linearGradient id="linearGradient4207" osb:paint="gradient"><stop id="stop3371" offset="0" stop-color="#3498db" stop-opacity="1"/><stop id="stop3373" offset="1" stop-color="#3498db" stop-opacity="0"/></linearGradient><linearGradient id="linearGradient4303-3"><stop id="stop4305-6" offset="0" stop-color="#197cf1" stop-opacity="1"/><stop id="stop4307-4" offset="1" stop-color="#21c9fb" stop-opacity="1"/></linearGradient><linearGradient id="linearGradient4232"><stop id="stop4234" offset="0" stop-color="#333" stop-opacity="1"/><stop id="stop4236" offset="1" stop-color="#515151" stop-opacity="1"/></linearGradient><linearGradient id="linearGradient4699" x1="392.152" x2="392.152" y1="555.299" y2="507.299" gradientUnits="userSpaceOnUse" xlink:href="#linearGradient4232"/><linearGradient id="linearGradient4707" x1="367.684" x2="414.681" y1="531.394" y2="531.394" gradientUnits="userSpaceOnUse" xlink:href="#linearGradient4303-3"/><linearGradient id="linearGradient4388" x1="392.152" x2="392.152" y1="555.299" y2="507.299" gradientUnits="userSpaceOnUse" xlink:href="#linearGradient4303-3"/><linearGradient id="linearGradient4390" x1="387.181" x2="387.181" y1="555.637" y2="507.637" gradientUnits="userSpaceOnUse" xlink:href="#linearGradient4303-3"/><linearGradient id="linearGradient4404" x1="392.152" x2="392.152" y1="555.299" y2="507.299" gradientUnits="userSpaceOnUse" xlink:href="#linearGradient4232"/><linearGradient id="linearGradient4406" x1="367.684" x2="414.681" y1="531.394" y2="531.394" gradientUnits="userSpaceOnUse" xlink:href="#linearGradient4303-3"/><linearGradient id="linearGradient4408" x1="392.152" x2="392.152" y1="555.299" y2="507.299" gradientUnits="userSpaceOnUse" xlink:href="#linearGradient4232"/><linearGradient id="linearGradient4410" x1="367.684" x2="414.681" y1="531.394" y2="531.394" gradientUnits="userSpaceOnUse" xlink:href="#linearGradient4303-3"/><linearGradient id="linearGradient4412" x1="392.152" x2="392.152" y1="555.299" y2="507.299" gradientUnits="userSpaceOnUse" xlink:href="#linearGradient4232"/><linearGradient id="linearGradient4414" x1="367.684" x2="414.681" y1="531.394" y2="531.394" gradientUnits="userSpaceOnUse" xlink:href="#linearGradient4303-3"/><linearGradient id="linearGradient3764" x1="1" x2="47" gradientTransform="matrix(0,-1,1,0,-1.5e-6,47.999998)" gradientUnits="userSpaceOnUse"><stop id="stop4202" stop-color="#8d9ba1" stop-opacity="1"/><stop id="stop4204" offset="1" stop-color="#98a5aa" stop-opacity="1"/></linearGradient><clipPath id="clipPath-514939900"><g id="g4207" transform="translate(0,-1004.3622)"><path id="path4209" fill="#1890d0" d="m -24 13 c 0 1.105 -0.672 2 -1.5 2 -0.828 0 -1.5 -0.895 -1.5 -2 0 -1.105 0.672 -2 1.5 -2 0.828 0 1.5 0.895 1.5 2 z" transform="matrix(15.333333,0,0,11.5,414.99999,878.8622)"/></g></clipPath><clipPath id="clipPath-525937098"><g id="g4212" transform="translate(0,-1004.3622)"><path id="path4214" fill="#1890d0" d="m -24 13 c 0 1.105 -0.672 2 -1.5 2 -0.828 0 -1.5 -0.895 -1.5 -2 0 -1.105 0.672 -2 1.5 -2 0.828 0 1.5 0.895 1.5 2 z" transform="matrix(15.333333,0,0,11.5,414.99999,878.8622)"/></g></clipPath></defs><metadata id="metadata5458"/><g id="layer1" transform="translate(-384.57143,-499.798)"><g id="g4540" transform="translate(71.678321,-5.4684736)"><g id="g4390" transform="matrix(1.0213371,0,0,1.0213371,-7.1875824,-11.296418)"><g id="layer1-1" fill="url(#linearGradient4699)" fill-opacity="1" stroke="url(#linearGradient4707)" transform="translate(-54.258545,-2.0327626)"><g id="g4571" fill="url(#linearGradient4412)" fill-opacity="1" stroke="url(#linearGradient4414)" transform="translate(49.048438,-3.2132208)"><g id="layer1-3" fill="url(#linearGradient4408)" fill-opacity="1" stroke="url(#linearGradient4410)" transform="translate(-49.078091,2.8757704)"><circle id="path4515" cx="391.212" cy="531.731" r="22.498" fill="url(#linearGradient4388)" fill-opacity="1" stroke="url(#linearGradient4390)" stroke-dasharray="none" stroke-linecap="round" stroke-linejoin="round" stroke-miterlimit="4" stroke-opacity="1" stroke-width="2" opacity="1"/></g></g></g></g><g id="layer1-98" fill="#fff" fill-opacity=".855" transform="matrix(0.88574534,0,0,0.88574534,263.28015,507.82407)"><g id="g4257" fill="#fff" fill-opacity=".855" transform="matrix(1.1526351,0,0,1.1526351,-3.7402432,-3.841136)"><g id="g3" fill="#fff" fill-opacity=".855" transform="matrix(0.52100445,0,0,0.52100445,62.015187,12.592959)"><g id="Layer_1_157_" fill="#fff" fill-opacity=".855"><path id="path6" fill="#fff" fill-opacity=".855" d="M 47,14.955 47,2.136 C 47,0.956 46.043,0 44.863,0 L 32.046,0 c -1.181,0 -2.137,0.957 -2.137,2.136 l 0,5.341 C 19.473,7.477 10.705,14.65 8.211,24.318 L 5.99,23.927 c -0.399,-0.069 -0.803,0.091 -1.044,0.416 -0.24,0.325 -0.278,0.759 -0.095,1.12 l 2.314,4.569 C 3.109,30.693 0,34.213 0,38.455 0,43.167 3.834,47 8.546,47 c 4.35,0 7.942,-3.27 8.471,-7.477 l 7.551,0 0,2.136 c 0,0.405 0.229,0.774 0.591,0.956 0.362,0.18 0.795,0.142 1.12,-0.102 l 3.734,-2.802 c 0.61,4.116 4.158,7.288 8.44,7.288 C 43.166,47 47,43.167 47,38.455 c 0,-4.35 -3.27,-7.943 -7.479,-8.471 l 0,-7.552 2.138,0 c 0.403,0 0.774,-0.229 0.954,-0.59 0.182,-0.361 0.144,-0.795 -0.1,-1.119 l -2.725,-3.631 5.072,0 C 46.043,17.091 47,16.134 47,14.955 Z m -12.705,6.886 c 0.182,0.362 0.551,0.59 0.955,0.59 l 2.137,0 0,7.551 c -3.794,0.478 -6.814,3.447 -7.373,7.215 l -3.736,-2.803 c -0.323,-0.242 -0.756,-0.28 -1.118,-0.101 -0.361,0.183 -0.591,0.551 -0.591,0.956 l 0,2.136 -7.551,0 C 16.534,33.523 13.465,30.458 9.6,29.98 9.603,29.956 9.615,29.935 9.615,29.909 l 0,-0.011 3.233,-3.027 c 0.295,-0.276 0.408,-0.696 0.294,-1.084 -0.117,-0.389 -0.44,-0.678 -0.839,-0.748 L 10.32,24.689 C 12.632,16.024 20.526,9.613 29.91,9.613 l 0,5.341 c 0,1.18 0.956,2.136 2.137,2.136 l 5.073,0 -2.724,3.632 c -0.244,0.324 -0.283,0.757 -0.101,1.119 z"/></g></g></g></g></g></g></svg>