<svg xmlns="http://www.w3.org/2000/svg" xmlns:svg="http://www.w3.org/2000/svg" xmlns:xlink="http://www.w3.org/1999/xlink" id="svg5453" width="48" height="48" version="1.1"><defs id="defs5455"><linearGradient id="linearGradient4320"><stop id="stop4322" offset="0" stop-color="#e42238" stop-opacity="1"/><stop id="stop4324" offset="1" stop-color="#fd6820" stop-opacity="1"/></linearGradient><linearGradient id="linearGradient4489" x1="408.571" x2="408.571" y1="542.798" y2="503.798" gradientTransform="translate(-391.18465,503.07091)" gradientUnits="userSpaceOnUse" xlink:href="#linearGradient4320"/><linearGradient id="linearGradient8311-06"><stop id="stop8313-6" offset="0" stop-color="#a9a3d4" stop-opacity="1"/><stop id="stop4462" offset=".47" stop-color="#87baff" stop-opacity="1"/><stop id="stop8315-2" offset="1" stop-color="#89ec85" stop-opacity="1"/></linearGradient><linearGradient id="linearGradient4460" x1="0" x2="47" y1="23.5" y2="23.5" gradientUnits="userSpaceOnUse" xlink:href="#linearGradient8311-06"/><linearGradient id="linearGradient4316"><stop id="stop4318" offset="0" stop-color="#e3e3e3" stop-opacity="1"/><stop id="stop4320" offset="1" stop-color="#fcf9f9" stop-opacity="1"/></linearGradient><linearGradient id="linearGradient8467"><stop id="stop8469" offset="0" stop-color="#d3d3d3" stop-opacity="1"/><stop id="stop8471" offset="1" stop-color="#fcf9f9" stop-opacity="1"/></linearGradient></defs><metadata id="metadata5458"/><g id="layer1" transform="translate(-384.57143,-499.798)"><g id="layer1-4" transform="translate(392.24401,-502.51656)"><g id="g4413" stroke-dasharray="none" stroke-miterlimit="4" stroke-width="1.317" transform="matrix(1.138587,0,0,1.138587,-3.4562036,-142.80276)"><g id="g4312" transform="matrix(1.0539376,0,0,1.0539376,-0.91298719,-55.411661)"><circle id="path4173" cx="17.387" cy="1026.869" r="20" fill="url(#linearGradient4489)" fill-opacity="1" stroke="none" stroke-dasharray="none" stroke-linecap="butt" stroke-linejoin="round" stroke-miterlimit="4" stroke-opacity="1" stroke-width="1.317" opacity="1"/><g id="layer1-9" fill="#fff" fill-opacity=".851" transform="matrix(0.86219219,0,0,0.86219219,-454.4916,568.51187)"><g id="layer1-4-8" fill="#fff" fill-opacity=".851" transform="matrix(1.626036,0,0,1.626036,-242.77204,-340.9246)"><g id="layer1-6" fill="#fff" fill-opacity=".851" transform="matrix(0.96552004,0,0,0.96552004,13.642627,18.164012)"><g id="layer1-7" fill="#fff" fill-opacity=".851" stroke="none" transform="translate(0.03984275,0.13336787)"><g id="layer1-43" fill="#fff" fill-opacity=".851" stroke="none" stroke-dasharray="none" stroke-miterlimit="4" stroke-width="1.317" transform="matrix(0.87200322,0,0,0.87200322,115.02597,72.593593)"><g id="g4358" fill="#fff" fill-opacity=".851" transform="translate(-2.4330678,1.1490485)"><path id="Music-0" fill="#fff" fill-opacity=".851" d="m 428.92363,524.46159 c -0.56004,0.15717 -1.01086,0.78214 -1.01086,1.38928 l 0,9.62532 c -0.56789,-0.31135 -1.29721,-0.43725 -2.05334,-0.23149 -1.36441,0.37118 -2.21944,1.57085 -1.92697,2.67922 0.29249,1.1083 1.63658,1.72735 3.00104,1.35608 1.08851,-0.29612 1.83888,-1.13406 1.95852,-2.01765 l 0.0319,-9.09613 7.07607,-1.98462 0,7.1777 c -0.56789,-0.31137 -1.2972,-0.43726 -2.05335,-0.23157 -1.3644,0.3712 -2.21941,1.57093 -1.92695,2.67923 0.2925,1.10836 1.63659,1.72733 3.00101,1.35614 1.08853,-0.29612 1.83889,-1.13404 1.95855,-2.01764 l 0.032,-11.84156 c 0,-0.45528 -0.26874,-0.7959 -0.63178,-0.85997 l -7.45514,2.01766 z" opacity=".9"/></g></g></g></g></g></g></g></g></g></g></svg>