<svg xmlns="http://www.w3.org/2000/svg" xmlns:osb="http://www.openswatchbook.org/uri/2009/osb" xmlns:svg="http://www.w3.org/2000/svg" xmlns:xlink="http://www.w3.org/1999/xlink" id="svg5453" width="48" height="48" version="1.1"><defs id="defs5455"><linearGradient id="linearGradient4222" x1="409.571" x2="409.571" y1="542.798" y2="507.798" gradientTransform="matrix(1.0523327,0,0,1.0276135,-21.151387,-14.039869)" gradientUnits="userSpaceOnUse" xlink:href="#linearGradient4143"/><linearGradient id="linearGradient4207" osb:paint="gradient"><stop id="stop3371" offset="0" stop-color="#3498db" stop-opacity="1"/><stop id="stop3373" offset="1" stop-color="#3498db" stop-opacity="0"/></linearGradient><linearGradient id="linearGradient4227-2"><stop id="stop4229-9" offset="0" stop-color="#566069" stop-opacity="1"/><stop id="stop4231-4" offset="1" stop-color="#6c7884" stop-opacity="1"/></linearGradient><linearGradient id="linearGradient4227-1"><stop id="stop4229-4" offset="0" stop-color="#566069" stop-opacity="1"/><stop id="stop4231-6" offset="1" stop-color="#636e79" stop-opacity="1"/></linearGradient><linearGradient id="linearGradient4143"><stop id="stop4145" offset="0" stop-color="#197cf1" stop-opacity="1"/><stop id="stop4147" offset="1" stop-color="#20bcfa" stop-opacity="1"/></linearGradient></defs><metadata id="metadata5458"/><g id="layer1" transform="translate(-384.57143,-499.798)"><g id="layer1-37" transform="translate(0.01805765,0.00238029)"><g id="g4447" transform="matrix(0.65762761,0,0,0.65762761,163.45346,180.49688)"><g id="g4172" transform="matrix(1.5106785,0,0,1.5106785,-171.9542,-284.96478)"><rect id="rect4195" width="46.303" height="34.939" x="385.65" y="507.78" fill="url(#linearGradient4222)" fill-opacity="1" stroke="none" stroke-dasharray="none" stroke-linecap="round" stroke-linejoin="round" stroke-miterlimit="4" stroke-opacity="1" stroke-width=".2" opacity="1" ry="1.644" transform="translate(-48.263451,8.9413364)"/><g id="g4247" fill="#fff" fill-opacity=".847" transform="matrix(0.83317883,0,0,0.83317883,69.00953,88.18103)"><circle id="path4224" cx="373.366" cy="518.737" r="2.25" fill="#fff" fill-opacity=".847" stroke="none" stroke-dasharray="none" stroke-linecap="round" stroke-linejoin="round" stroke-miterlimit="4" stroke-opacity="1" stroke-width=".2" opacity="1"/><circle id="path4224-4" cx="367.839" cy="518.785" r="2.25" fill="#fff" fill-opacity=".847" stroke="none" stroke-dasharray="none" stroke-linecap="round" stroke-linejoin="round" stroke-miterlimit="4" stroke-opacity="1" stroke-width=".2" opacity="1"/><circle id="path4224-8" cx="362.405" cy="518.838" r="2.25" fill="#fff" fill-opacity=".847" stroke="none" stroke-dasharray="none" stroke-linecap="round" stroke-linejoin="round" stroke-miterlimit="4" stroke-opacity="1" stroke-width=".2" opacity="1"/></g><g id="layer1-66" fill="#fff" fill-opacity=".847" transform="matrix(1.5206174,0,0,1.5206174,-302.66502,-281.34008)"><g id="layer1-0" fill="#fff" fill-opacity=".847" transform="translate(-0.86098561,-2.0807143)"><g id="trello" fill="#fff" fill-opacity=".847" transform="matrix(0.11986343,0,0,0.11986343,429.63077,532.36817)"><path id="path1319" fill="#fff" fill-opacity=".847" d="m 124.023,1.977 c -1.032,-1.032 -2.254,-1.548 -3.666,-1.548 l -114.714,0 C 4.23,0.429 3.008,0.945 1.976,1.977 0.944,3.009 0.428,4.231 0.428,5.643 l 0,114.714 c 0,1.412 0.516,2.635 1.548,3.666 1.033,1.032 2.255,1.549 3.667,1.549 l 114.714,0 c 1.412,0 2.634,-0.517 3.666,-1.549 1.031,-1.031 1.547,-2.254 1.547,-3.666 l 0,-114.714 c 0,-1.413 -0.515,-2.634 -1.547,-3.666 l 0,0 z M 57.786,99.5 c 0,0.761 -0.244,1.385 -0.733,1.874 -0.489,0.488 -1.114,0.733 -1.874,0.733 l -39.107,0 c -0.761,0 -1.385,-0.245 -1.874,-0.733 -0.488,-0.489 -0.733,-1.113 -0.733,-1.874 l 0,-83.429 c 0,-0.761 0.244,-1.385 0.733,-1.874 0.489,-0.488 1.113,-0.733 1.874,-0.733 l 39.107,0 c 0.76,0 1.385,0.245 1.874,0.733 0.489,0.489 0.733,1.113 0.733,1.874 l 0,83.429 0,0 z m 54.75,-31.286 c 0,0.761 -0.244,1.386 -0.733,1.874 -0.488,0.489 -1.113,0.733 -1.873,0.733 l -39.106,0 c -0.763,0 -1.386,-0.244 -1.875,-0.733 -0.488,-0.488 -0.732,-1.113 -0.732,-1.874 l 0,-52.143 c 0,-0.761 0.244,-1.385 0.732,-1.874 0.489,-0.488 1.112,-0.733 1.875,-0.733 l 39.106,0 c 0.76,0 1.385,0.245 1.873,0.733 0.489,0.489 0.733,1.113 0.733,1.874 l 0,52.143 0,0 z"/></g></g></g></g></g></g></g></svg>