<svg xmlns="http://www.w3.org/2000/svg" xmlns:svg="http://www.w3.org/2000/svg" xmlns:xlink="http://www.w3.org/1999/xlink" id="svg5453" width="48" height="48" version="1.1"><defs id="defs5455"><linearGradient id="linearGradient4350"><stop id="stop4352" offset="0" stop-color="#f0a23a" stop-opacity="1"/><stop id="stop4354" offset="1" stop-color="#fde46a" stop-opacity="1"/></linearGradient><linearGradient id="linearGradient4309"><stop id="stop4311" offset="0" stop-color="#ffee97" stop-opacity="1"/><stop id="stop4313" offset="1" stop-color="#ffe76b" stop-opacity="1"/></linearGradient><linearGradient id="linearGradient4237-0"><stop id="stop4239-8" offset="0" stop-color="#fed45b" stop-opacity="1"/><stop id="stop4241-9" offset="1" stop-color="#ffcc54" stop-opacity="1"/></linearGradient><linearGradient id="linearGradient4315" x1="859.999" x2="842.729" y1="525.969" y2="507.215" gradientUnits="userSpaceOnUse" xlink:href="#linearGradient4309"/><linearGradient id="linearGradient4348" x1="858.806" x2="860.022" y1="529.209" y2="517.047" gradientTransform="translate(0,0.27058258)" gradientUnits="userSpaceOnUse" xlink:href="#linearGradient4237-0"/><linearGradient id="linearGradient4356" x1="859.237" x2="864.142" y1="526.265" y2="531.152" gradientUnits="userSpaceOnUse" xlink:href="#linearGradient4350"/></defs><metadata id="metadata5458"/><g id="layer1" transform="translate(-384.57143,-499.798)"><g id="layer1-75" transform="translate(-45.094638,-4.5941823)"><g id="g4816" transform="translate(49.044051,-24.616705)"><g id="g5112" transform="translate(45.121104,5.0503102)"><g id="g4581" transform="matrix(0.73914669,0,0,0.73914669,145.33197,144.69716)"><g id="g4330" transform="matrix(1.1428571,0,0,1.1428571,-41.40155,-77.999282)"><g id="g4698" transform="matrix(1.6168609,0,0,1.6168609,-1083.4999,-289.40898)"><rect id="rect4303" width="35.035" height="34.793" x="831.905" y="499.127" fill="url(#linearGradient4356)" fill-opacity="1" stroke="none" stroke-dasharray="none" stroke-dashoffset="0" stroke-linecap="round" stroke-linejoin="round" stroke-miterlimit="4" stroke-opacity="1" stroke-width="1.5" opacity="1" ry="1.5"/><path id="path4305" fill="url(#linearGradient4315)" fill-opacity="1" fill-rule="evenodd" stroke="none" stroke-linecap="butt" stroke-linejoin="miter" stroke-opacity="1" stroke-width="1.353" d="m 831.79963,501.31463 0,30.90945 c 0,0 0.29172,1.72327 2.04543,1.72327 l 13.00006,0 c 11.6503,-2.05695 18.5526,-8.41046 20.0815,-19.6253 l 0,-13.37555 c 0.0839,-1.86568 -1.56253,-1.95162 -1.56253,-1.95162 l -31.39741,0.10959 c -2.33705,-0.16082 -2.16705,2.21016 -2.16705,2.21016 z" opacity="1"/><path id="path4307" fill="url(#linearGradient4348)" fill-opacity="1" fill-rule="evenodd" stroke="none" stroke-dasharray="none" stroke-linecap="butt" stroke-linejoin="miter" stroke-miterlimit="4" stroke-opacity="1" stroke-width=".406" d="m 846.06743,534.25446 c 6.65638,-1.38481 10.15878,-5.0846 12.41635,-9.50949 5.99429,-1.74052 7.52638,-6.27185 8.40235,-11.21401 0.12844,12.62171 -9.62351,18.83447 -20.8187,20.7235 z" opacity=".9"/></g><g id="g4375" stroke="#cb8034" stroke-dasharray="none" stroke-linecap="round" stroke-linejoin="round" stroke-miterlimit="4" stroke-opacity="1" stroke-width="2.051" transform="matrix(0.06595757,0,0,0.06595757,273.12408,530.27445)"><g id="g4326" stroke="#cb8034" stroke-dasharray="none" stroke-linecap="round" stroke-linejoin="round" stroke-miterlimit="4" stroke-opacity="1" stroke-width="2.051"><g id="g4328" fill="#efac50" fill-opacity="1" stroke="#cb8034" stroke-dasharray="none" stroke-linecap="round" stroke-linejoin="round" stroke-miterlimit="4" stroke-opacity="1" stroke-width="2.051"><g id="Icons_9_" fill="#efac50" fill-opacity="1" stroke="#cb8034" stroke-dasharray="none" stroke-linecap="round" stroke-linejoin="round" stroke-miterlimit="4" stroke-opacity="1" stroke-width="2.051"><g id="g4331" fill="#efac50" fill-opacity="1" stroke="#cb8034" stroke-dasharray="none" stroke-linecap="round" stroke-linejoin="round" stroke-miterlimit="4" stroke-opacity="1" stroke-width="2.051"><path id="path4333" fill="#efac50" fill-opacity="1" stroke="#cb8034" stroke-dasharray="none" stroke-linecap="round" stroke-linejoin="round" stroke-miterlimit="4" stroke-opacity="1" stroke-width="2.051" d="m 306.545,367.594 -121.542,0 c -9.041,0 -16.382,7.338 -16.382,16.385 0,9.05 7.341,16.384 16.382,16.384 l 121.542,0 c 9.041,0 16.389,-7.334 16.389,-16.384 0,-9.047 -7.348,-16.385 -16.389,-16.385 z"/><path id="path4335" fill="#efac50" fill-opacity="1" stroke="#cb8034" stroke-dasharray="none" stroke-linecap="round" stroke-linejoin="round" stroke-miterlimit="4" stroke-opacity="1" stroke-width="2.051" d="m 213.917,464.367 0,8.926 c 0,10.076 8.157,18.242 18.239,18.242 l 27.233,0 c 10.062,0 18.239,-8.166 18.239,-18.242 l 0,-8.926 c 20.642,-1.467 36.981,-18.498 36.981,-39.506 l -137.689,0 c 0.001,21.008 16.357,38.039 36.997,39.506 z"/><path id="path4337" fill="#efac50" fill-opacity="1" stroke="#cb8034" stroke-dasharray="none" stroke-linecap="round" stroke-linejoin="round" stroke-miterlimit="4" stroke-opacity="1" stroke-width="2.051" d="M 245.777,0 C 155.084,0 81.561,73.516 81.561,164.207 c 0,38.268 13.164,73.396 35.152,101.287 19.444,24.647 37.874,51.592 53.76,78.688 l 150.583,0 c 16.049,-27.353 34.146,-53.793 53.78,-78.707 21.968,-27.878 35.139,-63.011 35.139,-101.27 C 409.975,73.517 336.451,0 245.777,0 Z"/></g></g></g></g></g></g></g></g></g></g></g></svg>