<svg xmlns="http://www.w3.org/2000/svg" xmlns:svg="http://www.w3.org/2000/svg" xmlns:xlink="http://www.w3.org/1999/xlink" id="svg5453" width="48" height="48" version="1.1"><defs id="defs5455"><linearGradient id="linearGradient4243"><stop id="stop4245" offset="0" stop-color="#e3203a" stop-opacity="1"/><stop id="stop4247" offset="1" stop-color="#fd5420" stop-opacity="1"/></linearGradient><linearGradient id="linearGradient4479"><stop id="stop4481" offset="0" stop-color="#cdd7dc" stop-opacity="1"/><stop id="stop4483" offset="1" stop-color="#ecf0f3" stop-opacity="1"/></linearGradient><linearGradient id="linearGradient4155" x1="371.476" x2="371.476" y1="473.938" y2="253.929" gradientTransform="matrix(0.26231459,0,0,0.26155514,-44.879062,141.03167)" gradientUnits="userSpaceOnUse" xlink:href="#linearGradient4479"/><linearGradient id="linearGradient4378" x1="0" x2="459" y1="229.5" y2="229.5" gradientUnits="userSpaceOnUse" xlink:href="#linearGradient4243"/><linearGradient id="linearGradient4380" x1="0" x2="459" y1="229.5" y2="229.5" gradientUnits="userSpaceOnUse" xlink:href="#linearGradient4243"/><linearGradient id="linearGradient4382" x1="0" x2="459" y1="229.5" y2="229.5" gradientUnits="userSpaceOnUse" xlink:href="#linearGradient4243"/><linearGradient id="linearGradient4384" x1="0" x2="459" y1="229.5" y2="229.5" gradientUnits="userSpaceOnUse" xlink:href="#linearGradient4243"/><linearGradient id="linearGradient4386" x1="0" x2="459" y1="229.5" y2="229.5" gradientUnits="userSpaceOnUse" xlink:href="#linearGradient4243"/><linearGradient id="linearGradient4388" x1="0" x2="459" y1="229.5" y2="229.5" gradientUnits="userSpaceOnUse" xlink:href="#linearGradient4243"/><linearGradient id="linearGradient4390" x1="0" x2="459" y1="229.5" y2="229.5" gradientUnits="userSpaceOnUse" xlink:href="#linearGradient4243"/><linearGradient id="linearGradient4392" x1="0" x2="459" y1="229.5" y2="229.5" gradientUnits="userSpaceOnUse" xlink:href="#linearGradient4243"/><linearGradient id="linearGradient4394" x1="0" x2="459" y1="229.5" y2="229.5" gradientUnits="userSpaceOnUse" xlink:href="#linearGradient4243"/><linearGradient id="linearGradient4396" x1="0" x2="459" y1="229.5" y2="229.5" gradientUnits="userSpaceOnUse" xlink:href="#linearGradient4243"/><linearGradient id="linearGradient4398" x1="0" x2="459" y1="229.5" y2="229.5" gradientUnits="userSpaceOnUse" xlink:href="#linearGradient4243"/><linearGradient id="linearGradient4400" x1="0" x2="459" y1="229.5" y2="229.5" gradientUnits="userSpaceOnUse" xlink:href="#linearGradient4243"/><linearGradient id="linearGradient4402" x1="0" x2="459" y1="229.5" y2="229.5" gradientUnits="userSpaceOnUse" xlink:href="#linearGradient4243"/><linearGradient id="linearGradient4404" x1="0" x2="459" y1="229.5" y2="229.5" gradientUnits="userSpaceOnUse" xlink:href="#linearGradient4243"/><linearGradient id="linearGradient4406" x1="0" x2="459" y1="229.5" y2="229.5" gradientUnits="userSpaceOnUse" xlink:href="#linearGradient4243"/><linearGradient id="linearGradient4408" x1="0" x2="459" y1="229.5" y2="229.5" gradientUnits="userSpaceOnUse" xlink:href="#linearGradient4243"/><linearGradient id="linearGradient4212" x1="-112.525" x2="-111.092" y1="260.254" y2="154.581" gradientTransform="translate(131.12523,1.0073915)" gradientUnits="userSpaceOnUse" xlink:href="#linearGradient4243"/></defs><metadata id="metadata5458"/><g id="layer1" transform="translate(-384.57143,-499.798)"><g id="g4470" transform="matrix(1.3382274,-0.31961128,0.31961128,1.3382274,-356.73681,-37.003194)"><g id="g7486" transform="matrix(0.26208427,0.02583472,-0.02583472,0.26208427,404.04667,465.90142)"><g id="g4236" transform="matrix(0.98797581,0.13461765,-0.13501288,0.99084384,25.550446,-23.969633)"><g id="g5130" transform="matrix(1.080707,0,0,1.080707,160.14549,-15.529907)"><g id="g4195" transform="matrix(1.0444444,0,0,1.0444444,-2.0432023,-11.964225)"><rect id="rect4204" width="110.713" height="110.051" x="-31.273" y="154.679" fill="url(#linearGradient4212)" fill-opacity="1" stroke="none" stroke-dasharray="none" stroke-dashoffset="0" stroke-linecap="round" stroke-linejoin="round" stroke-miterlimit="4" stroke-opacity="1" stroke-width=".6" opacity="1" ry="8.63" transform="matrix(0.99999971,7.591955e-4,-7.5919486e-4,0.99999971,0,0)"/><g id="g4254" fill="url(#linearGradient4378)" fill-opacity="1" transform="matrix(-0.07548745,-5.7309815e-5,-5.7143812e-5,0.0752689,11.602706,223.12247)"><rect id="rect4327" width="601.911" height="527.255" x="-275.336" y="-362.033" fill="none" fill-opacity="1" stroke="#e5eaee" stroke-dasharray="none" stroke-dashoffset="0" stroke-linecap="round" stroke-linejoin="round" stroke-miterlimit="4" stroke-opacity="1" stroke-width="81.469" opacity="1" ry="35.332"/><circle id="path4325" cx="-354.659" cy="-320.038" r="307.934" fill="none" fill-opacity="1" stroke="#e5eaee" stroke-dasharray="none" stroke-dashoffset="0" stroke-linecap="round" stroke-linejoin="round" stroke-miterlimit="4" stroke-opacity="1" stroke-width="81.469" opacity="1"/></g><g id="g4202"><ellipse id="path3340" cx="51.669" cy="236.944" fill="url(#linearGradient4155)" fill-opacity="1" stroke="none" stroke-dasharray="none" stroke-dashoffset="0" stroke-linecap="butt" stroke-linejoin="miter" stroke-miterlimit="4" stroke-opacity="1" stroke-width="5.238" opacity="1" rx="32.31" ry="32.216" transform="matrix(0.99999971,7.591956e-4,-7.5919311e-4,0.99999971,0,0)"/><g id="create" fill="#e92c34" fill-opacity="1" transform="matrix(0.07859272,5.9667259e-5,-5.9494464e-5,0.07836519,34.29111,220.16815)"><path id="path4257" fill="#e92c34" fill-opacity="1" d="M 0,362.1 0,459 96.9,459 377.4,175.95 280.5,79.05 0,362.1 Z M 451.35,102 c 10.2,-10.2 10.2,-25.5 0,-35.7 L 392.7,7.649 c -10.2,-10.2 -25.5,-10.2 -35.7,0 l -45.9,45.9 96.9,96.9 L 451.35,102 Z"/></g></g></g></g></g></g></g></g></svg>