<svg xmlns="http://www.w3.org/2000/svg" xmlns:svg="http://www.w3.org/2000/svg" xmlns:xlink="http://www.w3.org/1999/xlink" id="svg5453" width="48" height="48" version="1.1"><defs id="defs5455"><linearGradient id="linearGradient4362"><stop id="stop4364" offset="0" stop-color="#279a2d" stop-opacity="1"/><stop id="stop4366" offset="1" stop-color="#6fe135" stop-opacity="1"/></linearGradient><linearGradient id="linearGradient3819"><stop id="stop3821" offset="0" stop-color="#cdddf3" stop-opacity="1"/><stop id="stop3823" offset="1" stop-color="#fbfdf8" stop-opacity="1"/></linearGradient><linearGradient id="linearGradient8311-06"><stop id="stop8313-6" offset="0" stop-color="#a9a3d4" stop-opacity="1"/><stop id="stop4462" offset=".47" stop-color="#87baff" stop-opacity="1"/><stop id="stop8315-2" offset="1" stop-color="#89ec85" stop-opacity="1"/></linearGradient><linearGradient id="linearGradient4460" x1="0" x2="47" y1="23.5" y2="23.5" gradientUnits="userSpaceOnUse" xlink:href="#linearGradient8311-06"/><clipPath id="clipPath16" clipPathUnits="userSpaceOnUse"><path id="path18" d="m 73.338,184.027 c -0.086,-0.2 -0.248,-0.192 -0.405,-0.185 l 0,0 c -0.048,0.003 -0.097,0.006 -0.142,0.002 l 0,0 c -2.686,-0.239 -5.363,-0.543 -8.014,-1.046 l 0,0 C 45.39,179.124 29.47,169.606 17.146,154.229 l 0,0 C 7.01,141.584 1.428,127.078 0.222,110.904 l 0,0 C 0.077,108.957 0.003,107.014 0,105.076 l 0,0 0,-0.255 C 0.009,99.045 0.65,93.312 1.922,87.637 l 0,0 c 1.277,-5.7 3.182,-11.206 5.744,-16.47 l 0,0 c 0.225,-0.449 0.448,-0.898 0.676,-1.344 l 0,0 C 12.551,61.535 17.965,54.149 24.751,47.77 l 0,0 c 3.573,-3.358 7.389,-6.395 11.524,-9.02 l 0,0 C 48.939,30.712 62.763,26.497 77.781,26.308 l 0,0 c 0.92,-0.012 1.171,-0.24 1.167,-1.181 l 0,0 C 78.906,17.089 78.923,9.049 78.925,1.011 l 0,0 C 78.926,0.699 78.951,0.388 78.967,0 l 0,0 c 0.26,0.106 0.423,0.166 0.58,0.24 l 0,0 c 15.097,7.093 28.96,16.056 41.319,27.291 l 0,0 c 2.458,2.236 4.811,4.577 7.075,7.015 l 0,0 c 0.969,1.044 1.929,2.106 2.901,3.146 l 0,0 c 1.5,1.605 2.798,3.398 4.212,5.085 l 0,0 c 1.633,1.948 3.099,4.019 4.545,6.103 l 0,0 c 3.198,4.606 6.052,9.411 8.452,14.487 l 0,0 c 1.214,2.567 2.37,5.153 3.393,7.799 l 0,0 c 0.034,0.05 0.08,0.094 0.101,0.148 l 0,0 c 2.788,7.249 4.574,14.749 5.527,22.444 l 0,0 c 0.332,2.68 0.547,5.378 0.682,8.073 l 0,0 c 0.061,1.218 0.092,2.434 0.094,3.648 l 0,0 0,0.265 c -0.008,4.482 -0.415,8.942 -1.226,13.367 l 0,0 c -2.793,15.227 -9.461,28.529 -19.995,39.879 l 0,0 c -4.446,4.792 -9.426,8.956 -14.925,12.491 l 0,0 c -10.241,6.584 -21.399,10.618 -33.498,12.047 l 0,0 c -1.475,0.175 -2.971,0.153 -4.425,0.499 l 0,0 -10.441,0 z m 43.699,-53.638 c 2.435,0.004 4.453,-2.453 3.673,-4.856 l 0,0 c 0.185,-0.454 0.153,-0.932 0.153,-1.407 l 0,0 c 0,-10.335 0.004,-20.67 -0.003,-31.006 l 0,0 C 120.852,83.886 115.066,75.247 106.537,71.7 l 0,0 c -0.217,-0.09 -0.422,-0.208 -0.631,-0.315 l 0,0 c 0.146,-0.182 0.321,-0.237 0.505,-0.246 l 0,0 c 0.006,0 0.012,0 0.018,0 l 0,0 c -0.006,0 -0.012,0 -0.018,0 l 0,0 c -0.184,0.009 -0.36,0.064 -0.506,0.246 l 0,0 c -0.116,-0.031 -0.233,-0.065 -0.351,-0.097 l 0,0 c -0.066,-0.038 -0.132,-0.076 -0.199,-0.113 l 0,0 c -1.782,-0.504 -3.58,-0.922 -5.418,-1.192 l 0,0 c -1.403,-0.206 -2.462,0.586 -2.479,1.996 l 0,0 c -0.012,0.989 -0.02,1.978 -0.028,2.968 l 0,0 c 0.016,1.77 0.034,3.541 0.05,5.311 l 0,0 c -0.008,0.39 -0.024,0.78 -0.023,1.169 l 0,0 c 0.002,1.36 0.527,1.933 2.216,2.32 l 0,0 c 2.144,0.491 4.162,1.182 5.83,2.732 l 0,0 c 2.003,1.861 3.015,4.182 3.474,6.806 l 0,0 c -5.784,0.012 -11.567,0.022 -17.352,0.033 l 0,0 c -0.209,0 -0.42,-0.001 -0.63,-0.002 l 0,0 c -0.419,-0.001 -0.838,-0.002 -1.257,0.005 l 0,0 c -2.363,0.04 -3.98,1.672 -3.979,4.047 l 0,0 c 0.003,9.35 0.016,18.701 0.024,28.053 l 0,0 c 0,0.089 -0.01,0.179 -0.016,0.268 l 0,0 c -0.182,1.75 0.322,3.184 1.876,4.158 l 0,0 c 0.605,0.378 1.261,0.536 1.957,0.536 l 0,0 c 3.834,0.002 7.669,10e-4 11.504,10e-4 l 0,0 c 5.311,0 10.622,0 15.933,0.005 m -48.782,0 c 2.437,0.004 4.454,-2.453 3.674,-4.856 l 0,0 c 0.189,-0.454 0.154,-0.933 0.154,-1.408 l 0,0 c 0.002,-10.318 0.059,-20.638 -0.018,-30.955 l 0,0 C 72.014,86.324 69.348,80.564 64.337,75.894 l 0,0 C 64.076,75.651 63.823,75.398 63.566,75.15 l 0,0 c -2.601,-1.99 -5.412,-3.56 -8.597,-4.423 l 0,0 c -1.355,-0.368 -2.737,-0.578 -4.118,-0.781 l 0,0 c -1.068,-0.156 -1.763,0.437 -2.162,1.402 l 0,0 c 0.004,2.97 0.006,5.938 0.011,8.908 l 0,0 c 0.05,0.874 -0.3,1.81 0.4,2.582 l 0,0 c 0.347,0.381 0.74,0.642 1.271,0.777 l 0,0 c 1.555,0.391 3.131,0.704 4.548,1.549 l 0,0 c 2.609,1.556 4.232,3.804 4.951,6.733 l 0,0 c 0.113,0.461 0.219,0.925 0.327,1.388 l 0,0 c -6.262,0.012 -12.524,0.023 -18.785,0.031 l 0,0 c -0.542,10e-4 -1.077,0.02 -1.603,0.166 l 0,0 c -1.596,0.444 -2.818,1.9 -2.82,3.545 l 0,0 c -0.012,9.468 0.006,18.937 0.013,28.406 l 0,0 c -0.132,1.512 10e-4,2.93 1.274,4.011 l 0,0 c 0.691,0.585 1.45,0.941 2.358,0.941 l 0,0 c 3.187,0 6.374,0 9.561,0 l 0,0 c 2.128,-0.001 4.257,-0.001 6.385,-0.001 l 0,0 c 3.892,0 7.783,0.001 11.675,0.005"/></clipPath><linearGradient id="linearGradient4368" x1="72.592" x2="76.368" y1="4.607" y2="183.864" gradientUnits="userSpaceOnUse" xlink:href="#linearGradient4362"/><linearGradient id="linearGradient4378" x1="84.531" x2="85.19" y1="1041.309" y2="1016.945" gradientTransform="translate(-66.505028,-5.267725)" gradientUnits="userSpaceOnUse" xlink:href="#linearGradient3819"/><linearGradient id="linearGradient4292" x1="72.592" x2="76.368" y1="4.607" y2="183.864" gradientUnits="userSpaceOnUse" xlink:href="#linearGradient4362"/><linearGradient id="linearGradient4294" x1="72.592" x2="76.368" y1="4.607" y2="183.864" gradientUnits="userSpaceOnUse" xlink:href="#linearGradient4362"/></defs><metadata id="metadata5458"/><g id="layer1" transform="translate(-384.57143,-499.798)"><g id="layer1-4" transform="translate(392.24401,-502.51656)"><g id="g4413" stroke-dasharray="none" stroke-miterlimit="4" stroke-width="1.317" transform="matrix(1.138587,0,0,1.138587,-3.4562036,-142.80276)"><g id="g4284" transform="translate(-0.35131264,0)"><ellipse id="path4370" cx="19.179" cy="1023.859" fill="url(#linearGradient4378)" fill-opacity="1" stroke="none" stroke-dasharray="none" stroke-dashoffset="0" stroke-linecap="round" stroke-linejoin="round" stroke-miterlimit="4" stroke-opacity="1" stroke-width=".1" opacity="1" rx="13.992" ry="13.499"/><g id="g12" transform="matrix(0.22223522,0,0,-0.22223522,0.4774546,1047.3476)"><g id="g14" clip-path="url(#clipPath16)"><g id="g20" fill="url(#linearGradient4368)" fill-opacity="1"><g id="g22" fill="url(#linearGradient4294)" fill-opacity="1"><path id="path32" fill="url(#linearGradient4292)" fill-opacity="1" stroke="none" d="m 73.338,184.027 c -0.086,-0.2 -0.248,-0.192 -0.405,-0.185 l 0,0 c -0.048,0.003 -0.097,0.006 -0.142,0.002 l 0,0 c -2.686,-0.239 -5.363,-0.543 -8.014,-1.046 l 0,0 C 45.39,179.124 29.47,169.606 17.146,154.229 l 0,0 C 7.01,141.584 1.428,127.078 0.222,110.904 l 0,0 C 0.077,108.957 0.003,107.014 0,105.076 l 0,0 0,-0.255 C 0.009,99.045 0.65,93.312 1.922,87.637 l 0,0 c 1.277,-5.7 3.182,-11.206 5.744,-16.47 l 0,0 c 0.225,-0.449 0.448,-0.898 0.676,-1.344 l 0,0 C 12.551,61.535 17.965,54.149 24.751,47.77 l 0,0 c 3.573,-3.358 7.389,-6.395 11.524,-9.02 l 0,0 C 48.939,30.712 62.763,26.497 77.781,26.308 l 0,0 c 0.92,-0.012 1.171,-0.24 1.167,-1.181 l 0,0 C 78.906,17.089 78.923,9.049 78.925,1.011 l 0,0 C 78.926,0.699 78.951,0.388 78.967,0 l 0,0 c 0.26,0.106 0.423,0.166 0.58,0.24 l 0,0 c 15.097,7.093 28.96,16.056 41.319,27.291 l 0,0 c 2.458,2.236 4.811,4.577 7.075,7.015 l 0,0 c 0.969,1.044 1.929,2.106 2.901,3.146 l 0,0 c 1.5,1.605 2.798,3.398 4.212,5.085 l 0,0 c 1.633,1.948 3.099,4.019 4.545,6.103 l 0,0 c 3.198,4.606 6.052,9.411 8.452,14.487 l 0,0 c 1.214,2.567 2.37,5.153 3.393,7.799 l 0,0 c 0.034,0.05 0.08,0.094 0.101,0.148 l 0,0 c 2.788,7.249 4.574,14.749 5.527,22.444 l 0,0 c 0.332,2.68 0.547,5.378 0.682,8.073 l 0,0 c 0.061,1.218 0.092,2.434 0.094,3.648 l 0,0 0,0.265 c -0.008,4.482 -0.415,8.942 -1.226,13.367 l 0,0 c -2.793,15.227 -9.461,28.529 -19.995,39.879 l 0,0 c -4.446,4.792 -9.426,8.956 -14.925,12.491 l 0,0 c -10.241,6.584 -21.399,10.618 -33.498,12.047 l 0,0 c -1.475,0.175 -2.971,0.153 -4.425,0.499 l 0,0 -10.441,0 z m 43.699,-53.638 c 2.435,0.004 4.453,-2.453 3.673,-4.856 l 0,0 c 0.185,-0.454 0.153,-0.932 0.153,-1.407 l 0,0 c 0,-10.335 0.004,-20.67 -0.003,-31.006 l 0,0 C 120.852,83.886 115.066,75.247 106.537,71.7 l 0,0 c -0.217,-0.09 -0.422,-0.208 -0.631,-0.315 l 0,0 c 0.146,-0.182 0.321,-0.237 0.505,-0.246 l 0,0 c 0.006,0 0.012,0 0.018,0 l 0,0 c -0.006,0 -0.012,0 -0.018,0 l 0,0 c -0.184,0.009 -0.36,0.064 -0.506,0.246 l 0,0 c -0.116,-0.031 -0.233,-0.065 -0.351,-0.097 l 0,0 c -0.066,-0.038 -0.132,-0.076 -0.199,-0.113 l 0,0 c -1.782,-0.504 -3.58,-0.922 -5.418,-1.192 l 0,0 c -1.403,-0.206 -2.462,0.586 -2.479,1.996 l 0,0 c -0.012,0.989 -0.02,1.978 -0.028,2.968 l 0,0 c 0.016,1.77 0.034,3.541 0.05,5.311 l 0,0 c -0.008,0.39 -0.024,0.78 -0.023,1.169 l 0,0 c 0.002,1.36 0.527,1.933 2.216,2.32 l 0,0 c 2.144,0.491 4.162,1.182 5.83,2.732 l 0,0 c 2.003,1.861 3.015,4.182 3.474,6.806 l 0,0 c -5.784,0.012 -11.567,0.022 -17.352,0.033 l 0,0 c -0.209,0 -0.42,-0.001 -0.63,-0.002 l 0,0 c -0.419,-0.001 -0.838,-0.002 -1.257,0.005 l 0,0 c -2.363,0.04 -3.98,1.672 -3.979,4.047 l 0,0 c 0.003,9.35 0.016,18.701 0.024,28.053 l 0,0 c 0,0.089 -0.01,0.179 -0.016,0.268 l 0,0 c -0.182,1.75 0.322,3.184 1.876,4.158 l 0,0 c 0.605,0.378 1.261,0.536 1.957,0.536 l 0,0 c 3.834,0.002 7.669,10e-4 11.504,10e-4 l 0,0 c 5.311,0 10.622,0 15.933,0.005 m -48.782,0 c 2.437,0.004 4.454,-2.453 3.674,-4.856 l 0,0 c 0.189,-0.454 0.154,-0.933 0.154,-1.408 l 0,0 c 0.002,-10.318 0.059,-20.638 -0.018,-30.955 l 0,0 C 72.014,86.324 69.348,80.564 64.337,75.894 l 0,0 C 64.076,75.651 63.823,75.398 63.566,75.15 l 0,0 c -2.601,-1.99 -5.412,-3.56 -8.597,-4.423 l 0,0 c -1.355,-0.368 -2.737,-0.578 -4.118,-0.781 l 0,0 c -1.068,-0.156 -1.763,0.437 -2.162,1.402 l 0,0 c 0.004,2.97 0.006,5.938 0.011,8.908 l 0,0 c 0.05,0.874 -0.3,1.81 0.4,2.582 l 0,0 c 0.347,0.381 0.74,0.642 1.271,0.777 l 0,0 c 1.555,0.391 3.131,0.704 4.548,1.549 l 0,0 c 2.609,1.556 4.232,3.804 4.951,6.733 l 0,0 c 0.113,0.461 0.219,0.925 0.327,1.388 l 0,0 c -6.262,0.012 -12.524,0.023 -18.785,0.031 l 0,0 c -0.542,10e-4 -1.077,0.02 -1.603,0.166 l 0,0 c -1.596,0.444 -2.818,1.9 -2.82,3.545 l 0,0 c -0.012,9.468 0.006,18.937 0.013,28.406 l 0,0 c -0.132,1.512 10e-4,2.93 1.274,4.011 l 0,0 c 0.691,0.585 1.45,0.941 2.358,0.941 l 0,0 c 3.187,0 6.374,0 9.561,0 l 0,0 c 2.128,-0.001 4.257,-0.001 6.385,-0.001 l 0,0 c 3.892,0 7.783,0.001 11.675,0.005"/></g></g></g></g></g></g></g></g></svg>