<svg xmlns="http://www.w3.org/2000/svg" xmlns:svg="http://www.w3.org/2000/svg" xmlns:xlink="http://www.w3.org/1999/xlink" id="svg5453" width="48" height="48" version="1.1"><defs id="defs5455"><linearGradient id="linearGradient4455"><stop id="stop4457" offset="0" stop-color="#fed9a5" stop-opacity="1"/><stop id="stop4459" offset="1" stop-color="#fffdfb" stop-opacity="1"/></linearGradient><linearGradient id="linearGradient4389"><stop id="stop4391" offset="0" stop-color="#ef4e06" stop-opacity="1"/><stop id="stop4393" offset="1" stop-color="#f9841c" stop-opacity="1"/></linearGradient><linearGradient id="linearGradient4359"><stop id="stop4361" offset="0" stop-color="#ee6708" stop-opacity="1"/><stop id="stop4363" offset="1" stop-color="#f9aa2b" stop-opacity="1"/></linearGradient><linearGradient id="linearGradient4320"><stop id="stop4322" offset="0" stop-color="#f7891b" stop-opacity="1"/><stop id="stop4324" offset="1" stop-color="#fbc969" stop-opacity="1"/></linearGradient><linearGradient id="linearGradient4489" x1="408.571" x2="408.571" y1="542.798" y2="503.798" gradientTransform="translate(-391.18465,503.07091)" gradientUnits="userSpaceOnUse" xlink:href="#linearGradient4320"/><linearGradient id="linearGradient4333"><stop id="stop4335" offset="0" stop-color="#f7881a" stop-opacity="1"/><stop id="stop4337" offset="1" stop-color="#fbc967" stop-opacity="1"/></linearGradient><linearGradient id="linearGradient8311-06"><stop id="stop8313-6" offset="0" stop-color="#a9a3d4" stop-opacity="1"/><stop id="stop4462" offset=".47" stop-color="#87baff" stop-opacity="1"/><stop id="stop8315-2" offset="1" stop-color="#89ec85" stop-opacity="1"/></linearGradient><linearGradient id="linearGradient4460" x1="0" x2="47" y1="23.5" y2="23.5" gradientUnits="userSpaceOnUse" xlink:href="#linearGradient8311-06"/><linearGradient id="linearGradient4332" x1="22.645" x2="22.645" y1="1047.893" y2="1005.736" gradientUnits="userSpaceOnUse" xlink:href="#linearGradient4333"/><linearGradient id="linearGradient4489-1" x1="408.571" x2="408.571" y1="542.798" y2="503.798" gradientTransform="matrix(0.7801371,0,0,0.7801371,-301.33972,618.65359)" gradientUnits="userSpaceOnUse" xlink:href="#linearGradient4359"/><linearGradient id="linearGradient4489-1-3" x1="408.571" x2="408.571" y1="542.798" y2="503.798" gradientTransform="matrix(0.51879063,0,0,0.51879063,-194.82159,755.79101)" gradientUnits="userSpaceOnUse" xlink:href="#linearGradient4389"/><linearGradient id="linearGradient4461" x1="171.583" x2="173.982" y1="356.817" y2="-4.682" gradientUnits="userSpaceOnUse" xlink:href="#linearGradient4455"/><linearGradient id="linearGradient4463" x1="171.583" x2="173.982" y1="356.817" y2="-4.682" gradientUnits="userSpaceOnUse" xlink:href="#linearGradient4455"/><linearGradient id="linearGradient4465" x1="171.583" x2="173.982" y1="356.817" y2="-4.682" gradientUnits="userSpaceOnUse" xlink:href="#linearGradient4455"/><linearGradient id="linearGradient4467" x1="171.583" x2="173.982" y1="356.817" y2="-4.682" gradientUnits="userSpaceOnUse" xlink:href="#linearGradient4455"/><linearGradient id="linearGradient4469" x1="171.583" x2="173.982" y1="356.817" y2="-4.682" gradientUnits="userSpaceOnUse" xlink:href="#linearGradient4455"/><linearGradient id="linearGradient4471" x1="171.583" x2="173.982" y1="356.817" y2="-4.682" gradientUnits="userSpaceOnUse" xlink:href="#linearGradient4455"/><linearGradient id="linearGradient4473" x1="171.583" x2="173.982" y1="356.817" y2="-4.682" gradientUnits="userSpaceOnUse" xlink:href="#linearGradient4455"/><linearGradient id="linearGradient4475" x1="171.583" x2="173.982" y1="356.817" y2="-4.682" gradientUnits="userSpaceOnUse" xlink:href="#linearGradient4455"/><linearGradient id="linearGradient4477" x1="171.583" x2="173.982" y1="356.817" y2="-4.682" gradientUnits="userSpaceOnUse" xlink:href="#linearGradient4455"/><linearGradient id="linearGradient4479" x1="171.583" x2="173.982" y1="356.817" y2="-4.682" gradientUnits="userSpaceOnUse" xlink:href="#linearGradient4455"/><linearGradient id="linearGradient4481" x1="171.583" x2="173.982" y1="356.817" y2="-4.682" gradientUnits="userSpaceOnUse" xlink:href="#linearGradient4455"/><linearGradient id="linearGradient4483" x1="171.583" x2="173.982" y1="356.817" y2="-4.682" gradientUnits="userSpaceOnUse" xlink:href="#linearGradient4455"/><linearGradient id="linearGradient4485" x1="171.583" x2="173.982" y1="356.817" y2="-4.682" gradientUnits="userSpaceOnUse" xlink:href="#linearGradient4455"/><linearGradient id="linearGradient4487" x1="171.583" x2="173.982" y1="356.817" y2="-4.682" gradientUnits="userSpaceOnUse" xlink:href="#linearGradient4455"/><linearGradient id="linearGradient4490" x1="171.583" x2="173.982" y1="356.817" y2="-4.682" gradientUnits="userSpaceOnUse" xlink:href="#linearGradient4455"/><linearGradient id="linearGradient4492" x1="171.583" x2="173.982" y1="356.817" y2="-4.682" gradientUnits="userSpaceOnUse" xlink:href="#linearGradient4455"/><linearGradient id="linearGradient4495" x1="171.583" x2="173.982" y1="356.817" y2="-4.682" gradientUnits="userSpaceOnUse" xlink:href="#linearGradient4455"/><linearGradient id="linearGradient4497" x1="171.583" x2="173.982" y1="356.817" y2="-4.682" gradientUnits="userSpaceOnUse" xlink:href="#linearGradient4455"/></defs><metadata id="metadata5458"/><g id="layer1" transform="translate(-384.57143,-499.798)"><g id="layer1-4" transform="translate(392.24401,-502.51656)"><g id="g4413" stroke-dasharray="none" stroke-miterlimit="4" stroke-width="1.317" transform="matrix(1.138587,0,0,1.138587,-3.4562036,-142.80276)"><g id="g4325" transform="matrix(1.0203324,0,0,1.0203324,-0.28478646,-20.859612)"><circle id="path4173" cx="17.387" cy="1026.869" r="20" fill="url(#linearGradient4489)" fill-opacity="1" stroke="url(#linearGradient4332)" stroke-dasharray="none" stroke-linecap="butt" stroke-linejoin="round" stroke-miterlimit="4" stroke-opacity="1" stroke-width="1.317" opacity="1"/><circle id="path4173-0" cx="17.402" cy="1027.288" r="15.603" fill="url(#linearGradient4489-1)" fill-opacity="1" stroke="none" stroke-dasharray="none" stroke-linecap="butt" stroke-linejoin="round" stroke-miterlimit="4" stroke-opacity="1" stroke-width="1.317" opacity="1"/><circle id="path4173-0-5" cx="17.141" cy="1027.533" r="10.376" fill="url(#linearGradient4489-1-3)" fill-opacity="1" stroke="none" stroke-dasharray="none" stroke-linecap="butt" stroke-linejoin="round" stroke-miterlimit="4" stroke-opacity="1" stroke-width="1.317" opacity="1"/><g id="g4436" fill="url(#linearGradient4461)" fill-opacity="1" transform="matrix(0.06299069,0,0,0.06299069,6.458529,1015.677)"><g id="g4396" fill="url(#linearGradient4465)" fill-opacity="1"><path id="path4398" fill="url(#linearGradient4463)" fill-opacity="1" d="M 305.685,56.082 C 284.044,23.973 245.218,5.336 190.377,0.699 L 190.286,0.691 C 186.243,0.232 182.36,0 178.746,0 151.098,0 141.287,13.84 141.287,25.691 l 0,206.27 -0.001,0 c -10.874,-3.277 -22.538,-4.223 -34.057,-2.768 -20.073,2.533 -38.057,11.957 -50.637,26.537 -12.581,14.58 -18.252,32.57 -15.969,50.656 4.237,33.576 35.66,58.895 73.096,58.895 3.515,0 7.08,-0.225 10.599,-0.668 38.805,-4.898 66.969,-35.676 66.969,-73.18 l 0,-202.396 c 2.913,-0.195 5.831,-0.293 8.677,-0.293 34.213,0 65.668,14.313 90.966,41.389 10.428,11.162 17.748,22.262 22.054,29.609 1.058,1.803 3.12,2.764 5.186,2.396 2.058,-0.365 3.673,-1.971 4.047,-4.027 4.149,-22.786 7.522,-66.341 -16.532,-102.029 z"/></g></g></g></g></g></g></svg>