<svg xmlns="http://www.w3.org/2000/svg" xmlns:svg="http://www.w3.org/2000/svg" xmlns:xlink="http://www.w3.org/1999/xlink" id="svg5453" width="48" height="48" version="1.1"><defs id="defs5455"><linearGradient id="linearGradient4159"><stop id="stop4161" offset="0" stop-color="#2a2c2f" stop-opacity="1"/><stop id="stop4163" offset="1" stop-color="#424649" stop-opacity="1"/></linearGradient><linearGradient id="linearGradient4165" x1="409.571" x2="409.571" y1="543.798" y2="503.798" gradientTransform="translate(-1.7372437e-5,0)" gradientUnits="userSpaceOnUse" xlink:href="#linearGradient4159"/><linearGradient id="linearGradient4299" x1="25" x2="25" y1="40" y2="8" gradientUnits="userSpaceOnUse" xlink:href="#linearGradient4219"/><linearGradient id="linearGradient4219"><stop id="stop4221" offset="0" stop-color="#d5d5d6" stop-opacity="1"/><stop id="stop4223" offset="1" stop-color="#f4f5f5" stop-opacity="1"/></linearGradient><linearGradient id="linearGradient4379" x1="6" x2="32" y1="7" y2="33" gradientUnits="userSpaceOnUse" xlink:href="#linearGradient4227"/><linearGradient id="linearGradient4227"><stop id="stop4229" offset="0" stop-color="#292c2f" stop-opacity="1"/><stop id="stop4231" offset="1" stop-color="#000" stop-opacity="0"/></linearGradient></defs><metadata id="metadata5458"/><g id="layer1" transform="translate(-384.57143,-499.798)"><rect id="rect4146" width="40" height="40" x="388.571" y="503.798" fill="url(#linearGradient4165)" fill-opacity="1" stroke="none" opacity="1" ry="2"/><path id="path4368" fill="url(#linearGradient4379)" fill-opacity="1" fill-rule="evenodd" stroke="none" stroke-linecap="butt" stroke-linejoin="miter" stroke-opacity="1" stroke-width="1" d="M 40 8 L 40 40 L 8 40 L 11 43 L 12 44 L 44 44 L 44 12 L 40 8 z" opacity=".2" transform="translate(384.57143,499.798)"/><path id="rect4260" fill="url(#linearGradient4299)" fill-opacity="1" stroke="none" d="M 8 8 L 8 40 L 40 40 L 40 8 L 8 8 z M 9 9 L 39 9 L 39 30 L 9 30 L 9 9 z M 10 12 L 10 14 L 32 14 L 32 12 L 10 12 z M 9 31 L 39 31 L 39 39 L 9 39 L 9 31 z M 11 34 L 11 35 L 12 35 L 12 34 L 11 34 z M 13 34 L 13 35 L 14 35 L 14 34 L 13 34 z M 15 34 L 15 35 L 16 35 L 16 34 L 15 34 z M 31 34 L 31 35 L 32 35 L 32 34 L 31 34 z M 33 34 L 33 35 L 34 35 L 34 34 L 33 34 z M 35 34 L 35 35 L 36 35 L 36 34 L 35 34 z" opacity="1" transform="translate(384.57143,499.798)"/><text id="text4173" x="393.898" y="519.933" fill="#fff" fill-opacity="1" stroke="none" stroke-linecap="butt" stroke-linejoin="miter" stroke-opacity="1" stroke-width="1" font-family="sans-serif" font-size="7.787" font-style="normal" font-weight="normal" letter-spacing="0" word-spacing="0" xml:space="preserve" style="line-height:125%"><tspan id="tspan4175" x="393.898" y="519.933" fill="#fff" fill-opacity="1" font-family="Oxygen Mono" font-stretch="normal" font-style="normal" font-variant="normal" font-weight="normal" style="-inkscape-font-specification:'Oxygen Mono'">grub</tspan></text></g></svg>