<svg xmlns="http://www.w3.org/2000/svg" xmlns:svg="http://www.w3.org/2000/svg" xmlns:xlink="http://www.w3.org/1999/xlink" id="svg2" version="1.1" viewBox="0 0 48 48"><metadata id="metadata77"/><defs id="defs4"><linearGradient id="linearGradient3764" x1="1" x2="47" gradientTransform="matrix(0,-1,1,0,-1.5e-6,47.999998)" gradientUnits="userSpaceOnUse"><stop id="stop7" stop-color="#cb3131" stop-opacity="1"/><stop id="stop9" offset="1" stop-color="#d14040" stop-opacity="1"/></linearGradient><clipPath id="clipPath-533888948"><g id="g12" transform="translate(0,-1004.3622)"><path id="path14" fill="#1890d0" d="m -24 13 c 0 1.105 -0.672 2 -1.5 2 -0.828 0 -1.5 -0.895 -1.5 -2 0 -1.105 0.672 -2 1.5 -2 0.828 0 1.5 0.895 1.5 2 z" transform="matrix(15.333333,0,0,11.5,414.99999,878.8622)"/></g></clipPath><clipPath id="clipPath-543229327"><g id="g17" transform="translate(0,-1004.3622)"><path id="path19" fill="#1890d0" d="m -24 13 c 0 1.105 -0.672 2 -1.5 2 -0.828 0 -1.5 -0.895 -1.5 -2 0 -1.105 0.672 -2 1.5 -2 0.828 0 1.5 0.895 1.5 2 z" transform="matrix(15.333333,0,0,11.5,414.99999,878.8622)"/></g></clipPath><linearGradient id="linearGradient6229"><stop id="stop6231" offset="0" stop-color="#f2b333" stop-opacity="1"/><stop id="stop6233" offset="1" stop-color="#fcde3f" stop-opacity="1"/></linearGradient><linearGradient id="linearGradient3776"><stop id="stop3778" offset="0" stop-color="#e7f0f4" stop-opacity="1"/><stop id="stop3780" offset="1" stop-color="#f4faff" stop-opacity="1"/></linearGradient><linearGradient id="linearGradient6227" x1="-989.666" x2="-1003.636" y1="433.284" y2="317.355" gradientTransform="matrix(0.9997764,0,0,0.9863347,-0.83288226,5.9958688)" gradientUnits="userSpaceOnUse" xlink:href="#linearGradient4206"/><linearGradient id="linearGradient6235" x1="-1092.912" x2="-1060.255" y1="203.099" y2="104.853" gradientTransform="matrix(0.99833895,0,0,0.98513314,-2.169195,6.7017171)" gradientUnits="userSpaceOnUse" xlink:href="#linearGradient6229"/><linearGradient id="linearGradient4237-0"><stop id="stop4239-8" offset="0" stop-color="#fed45b" stop-opacity="1"/><stop id="stop4241-9" offset="1" stop-color="#ffcc54" stop-opacity="1"/></linearGradient><linearGradient id="linearGradient4206"><stop id="stop4208" offset="0" stop-color="#1584d8" stop-opacity="1"/><stop id="stop4210" offset="1" stop-color="#1cb2ff" stop-opacity="1"/></linearGradient></defs><g id="layer1" transform="translate(-384.89745,-499.8503)"><g id="g4779" transform="matrix(1.0428149,-0.13520447,0.13520447,1.0428149,-137.47144,45.714952)"><g id="g4903" transform="matrix(1.0300127,0,0,1.0300127,-13.194705,-14.404024)"><g id="g4541" transform="matrix(0.32603906,0.04227207,-0.04227207,0.32603906,784.98887,393.98281)"><rect id="rect6189-3" width="89.616" height="112.933" x="-1100.904" y="117.574" fill="url(#linearGradient6235)" fill-opacity="1" stroke="none" stroke-dasharray="none" stroke-dashoffset="0" stroke-linecap="round" stroke-linejoin="round" stroke-miterlimit="4" stroke-opacity="1" stroke-width=".3" opacity="1" ry="2.756" transform="matrix(0.94911544,-0.31492839,0.30720732,0.95164261,0,0)"/><rect id="rect6189" width="99.803" height="121.239" x="-1046.299" y="317.974" fill="url(#linearGradient6227)" fill-opacity="1" stroke="none" stroke-dasharray="none" stroke-dashoffset="0" stroke-linecap="round" stroke-linejoin="round" stroke-miterlimit="4" stroke-opacity="1" stroke-width=".3" opacity="1" ry="2.959" transform="matrix(0.99210439,-0.12541481,0.13781259,0.99045832,0,0)"/></g><g id="layer1-5" transform="matrix(0.9156097,0.11871189,-0.11871189,0.9156097,95.308477,-18.399557)"><g id="layer1-75" transform="translate(-45.094638,-4.5941823)"><g id="g4816" transform="translate(49.044051,-24.616705)"><g id="g5112" transform="translate(45.121104,5.0503102)"><g id="g4581" transform="matrix(0.73914669,0,0,0.73914669,145.33197,144.69716)"><g id="g4325" transform="matrix(1.0916349,0,0,1.0916349,-26.616307,-50.347878)"><g id="g4698" transform="matrix(1.6168609,0,0,1.6168609,-1083.4999,-289.40898)"><g id="g4679" fill="#e8923a" fill-opacity="1" stroke="#cb8034" stroke-dasharray="none" stroke-miterlimit="4" stroke-opacity="1" stroke-width="4.248" opacity=".7" transform="matrix(0.03500062,-0.00571168,0.00571168,0.03500062,883.10913,510.71524)"><g id="g4639" fill="#e8923a" fill-opacity="1" stroke="#cb8034" stroke-dasharray="none" stroke-miterlimit="4" stroke-opacity="1" stroke-width="4.248"><path id="path4641" fill="#fff" fill-opacity="1" stroke="none" stroke-dasharray="none" stroke-miterlimit="4" stroke-opacity="1" stroke-width="4.248" d="M 462.5,96.193 440.774,74.467 c -8.951,-8.95 -23.562,-8.95 -32.59,0 L 180.368,302.361 61.028,183.021 c -8.95,-8.951 -23.562,-8.951 -32.589,0 L 6.712,204.747 c -8.95,8.951 -8.95,23.562 0,32.589 L 163.997,394.62 c 4.514,4.514 10.327,6.809 16.218,6.809 5.891,0 11.781,-2.295 16.219,-6.809 L 462.27,128.783 c 9.18,-9.103 9.18,-23.638 0.23,-32.59 z"/></g></g></g></g></g></g></g></g></g></g></g><flowRoot id="flowRoot4567" fill="#000" fill-opacity="1" stroke="none" stroke-linecap="butt" stroke-linejoin="miter" stroke-opacity="1" stroke-width="1" font-family="sans-serif" font-size="10" font-style="normal" font-weight="normal" letter-spacing="0" word-spacing="0" xml:space="preserve" style="line-height:125%"><flowRegion id="flowRegion4569"><rect id="rect4571" width="135.55" height="166.64" x="-1370.425" y="-469.329"/></flowRegion><flowPara id="flowPara4573"/></flowRoot></g></svg>