<svg xmlns="http://www.w3.org/2000/svg" xmlns:osb="http://www.openswatchbook.org/uri/2009/osb" xmlns:svg="http://www.w3.org/2000/svg" xmlns:xlink="http://www.w3.org/1999/xlink" id="svg5453" width="48" height="48" version="1.1"><defs id="defs5455"><linearGradient id="linearGradient4227"><stop id="stop4229" offset="0" stop-color="#2e3436" stop-opacity="1"/><stop id="stop4231" offset="1" stop-color="#555753" stop-opacity="1"/></linearGradient><linearGradient id="linearGradient4222" x1="409.571" x2="409.571" y1="542.798" y2="507.798" gradientTransform="matrix(1.0523327,0,0,1.0276135,-21.151387,-14.039869)" gradientUnits="userSpaceOnUse" xlink:href="#linearGradient4227"/><linearGradient id="linearGradient4207" osb:paint="gradient"><stop id="stop3371" offset="0" stop-color="#3498db" stop-opacity="1"/><stop id="stop3373" offset="1" stop-color="#3498db" stop-opacity="0"/></linearGradient><linearGradient id="linearGradient8311-06"><stop id="stop8313-6" offset="0" stop-color="#a9a3d4" stop-opacity="1"/><stop id="stop4462" offset=".47" stop-color="#87baff" stop-opacity="1"/><stop id="stop8315-2" offset="1" stop-color="#89ec85" stop-opacity="1"/></linearGradient></defs><metadata id="metadata5458"/><g id="layer1" transform="translate(-384.57143,-499.798)"><g id="g4403" transform="translate(51.385479,-6.0099446)"><g id="layer1-1" transform="translate(-117.48432,12.127178)"><g id="layer1-2" transform="translate(-44.851169,1.8910219)"><g id="g4256" transform="matrix(0.90595131,0,0,0.90595131,131.92314,54.175376)"><g id="g4247" transform="matrix(1.036658,0,0,1.036658,-15.633529,-19.192846)"><rect id="rect4195" width="46.303" height="34.939" x="385.65" y="507.78" fill="url(#linearGradient4222)" fill-opacity="1" stroke="none" stroke-dasharray="none" stroke-linecap="round" stroke-linejoin="round" stroke-miterlimit="4" stroke-opacity="1" stroke-width=".2" opacity="1" ry="1.644" transform="matrix(1.1038121,0,0,1.1038121,-23.304884,-69.47145)"/><g id="g4250" fill="#353535" fill-opacity="1" transform="matrix(0.91967286,0,0,0.91967286,106.14246,17.994266)"><circle id="path4224" cx="373.366" cy="518.737" r="2.25" fill="#76e049" fill-opacity="1" stroke="none" stroke-dasharray="none" stroke-linecap="round" stroke-linejoin="round" stroke-miterlimit="4" stroke-opacity="1" stroke-width=".2" opacity="1"/><circle id="path4224-4" cx="367.839" cy="518.785" r="2.25" fill="#76e049" fill-opacity="1" stroke="none" stroke-dasharray="none" stroke-linecap="round" stroke-linejoin="round" stroke-miterlimit="4" stroke-opacity="1" stroke-width=".2" opacity="1"/><circle id="path4224-8" cx="362.405" cy="518.838" r="2.25" fill="#76e049" fill-opacity="1" stroke="none" stroke-dasharray="none" stroke-linecap="round" stroke-linejoin="round" stroke-miterlimit="4" stroke-opacity="1" stroke-width=".2" opacity="1"/></g></g></g><g id="layer1-01" fill="#76e049" fill-opacity="1" transform="matrix(1.125,0,0,1.125,-13.33661,-77.457143)"><g id="layer1-4-2" fill="#76e049" fill-opacity="1" transform="matrix(0.49999999,0,0,0.49999999,465.48789,16.217741)"><g id="g4413" fill="#76e049" fill-opacity="1" stroke-dasharray="none" stroke-miterlimit="4" stroke-width="1.317" transform="matrix(1.138587,0,0,1.138587,-3.4562036,-142.80276)"><g id="g4312" fill="#76e049" fill-opacity="1" transform="matrix(1.0539376,0,0,1.0539376,-0.91298719,-55.411661)"><g id="layer1-0" fill="#76e049" fill-opacity="1" transform="matrix(0.83333358,0,0,0.83333358,-408.28112,587.90224)"><g id="Settings" fill="#76e049" fill-opacity="1" transform="matrix(0.11906321,0,0,0.11906321,494.7604,510.72581)"><g id="g4" fill="#76e049" fill-opacity="1"><path id="path6" fill="#76e049" fill-opacity="1" fill-rule="evenodd" d="m 267.92,119.461 c -0.425,-3.778 -4.83,-6.617 -8.639,-6.617 -12.315,0 -23.243,-7.231 -27.826,-18.414 -4.682,-11.454 -1.663,-24.812 7.515,-33.231 2.889,-2.641 3.24,-7.062 0.817,-10.133 -6.303,-8.004 -13.467,-15.234 -21.289,-21.5 -3.063,-2.458 -7.557,-2.116 -10.213,0.825 -8.01,8.871 -22.398,12.168 -33.516,7.529 -11.57,-4.867 -18.866,-16.591 -18.152,-29.176 0.235,-3.953 -2.654,-7.39 -6.595,-7.849 -10.038,-1.161 -20.164,-1.197 -30.232,-0.08 -3.896,0.43 -6.785,3.786 -6.654,7.689 0.438,12.461 -6.946,23.98 -18.401,28.672 -10.985,4.487 -25.272,1.218 -33.266,-7.574 -2.642,-2.896 -7.063,-3.252 -10.141,-0.853 -8.054,6.319 -15.379,13.555 -21.74,21.493 -2.481,3.086 -2.116,7.559 0.802,10.214 9.353,8.47 12.373,21.944 7.514,33.53 -4.639,11.046 -16.109,18.165 -29.24,18.165 -4.261,-0.137 -7.296,2.723 -7.762,6.597 -1.182,10.096 -1.196,20.383 -0.058,30.561 0.422,3.794 4.961,6.608 8.812,6.608 11.702,-0.299 22.937,6.946 27.65,18.415 4.698,11.454 1.678,24.804 -7.514,33.23 -2.875,2.641 -3.24,7.055 -0.817,10.126 6.244,7.953 13.409,15.19 21.259,21.508 3.079,2.481 7.559,2.131 10.228,-0.81 8.04,-8.893 22.427,-12.184 33.501,-7.536 11.599,4.852 18.895,16.575 18.181,29.167 -0.233,3.955 2.67,7.398 6.595,7.85 5.135,0.599 10.301,0.898 15.481,0.898 4.917,0 9.835,-0.27 14.752,-0.817 3.897,-0.43 6.784,-3.786 6.653,-7.696 -0.451,-12.454 6.946,-23.973 18.386,-28.657 11.059,-4.517 25.286,-1.211 33.281,7.572 2.657,2.89 7.047,3.239 10.142,0.848 8.039,-6.304 15.349,-13.534 21.74,-21.494 2.48,-3.079 2.13,-7.559 -0.803,-10.213 -9.353,-8.47 -12.388,-21.946 -7.529,-33.524 4.568,-10.899 15.612,-18.217 27.491,-18.217 l 1.662,0.043 c 3.853,0.313 7.398,-2.655 7.865,-6.588 1.184,-10.105 1.198,-20.383 0.06,-30.561 z m -133.325,60.03 c -24.718,0 -44.824,-20.106 -44.824,-44.824 0,-24.717 20.106,-44.824 44.824,-44.824 24.717,0 44.823,20.107 44.823,44.824 0,24.718 -20.106,44.824 -44.823,44.824 z" clip-rule="evenodd"/></g></g></g></g></g></g></g></g></g></g></g></svg>