<svg xmlns="http://www.w3.org/2000/svg" xmlns:svg="http://www.w3.org/2000/svg" xmlns:xlink="http://www.w3.org/1999/xlink" id="svg2985" width="48" height="48" version="1.1"><defs id="defs2987"><linearGradient id="linearGradient4487"><stop id="stop4489" offset="0" stop-color="#fff" stop-opacity="1"/><stop id="stop4491" offset="1" stop-color="#e8e8e9" stop-opacity="1"/></linearGradient><linearGradient id="linearGradient4521"><stop id="stop4523" offset="0" stop-color="#178b6f" stop-opacity="1"/><stop id="stop4525" offset="1" stop-color="#489acf" stop-opacity="1"/></linearGradient><linearGradient id="linearGradient4273" x1="21.634" x2="21.614" y1="4.856" y2="44.899" gradientTransform="matrix(0.73473334,0,0,0.73473334,8.8616971,5.8352427)" gradientUnits="userSpaceOnUse" xlink:href="#linearGradient4487"/><linearGradient id="linearGradient4519" x1="418.536" x2="418.536" y1="544.315" y2="498.773" gradientUnits="userSpaceOnUse" xlink:href="#linearGradient4521"/><linearGradient id="linearGradient4534" x1="418.536" x2="418.536" y1="544.315" y2="498.773" gradientUnits="userSpaceOnUse" xlink:href="#linearGradient4521"/><linearGradient id="linearGradient4536" x1="418.536" x2="418.536" y1="544.315" y2="498.773" gradientUnits="userSpaceOnUse" xlink:href="#linearGradient4822"/><linearGradient id="linearGradient4538" x1="418.536" x2="418.536" y1="544.315" y2="498.773" gradientUnits="userSpaceOnUse" xlink:href="#linearGradient4521"/><linearGradient id="linearGradient4546" x1="422.748" x2="422.412" y1="544.886" y2="500.744" gradientUnits="userSpaceOnUse" xlink:href="#linearGradient4521"/><linearGradient id="linearGradient4232" x1="422.748" x2="422.412" y1="544.886" y2="500.744" gradientUnits="userSpaceOnUse" xlink:href="#linearGradient4521"/><linearGradient id="linearGradient4234" x1="422.748" x2="422.412" y1="544.886" y2="500.744" gradientUnits="userSpaceOnUse" xlink:href="#linearGradient4822"/><linearGradient id="linearGradient4236" x1="422.748" x2="422.412" y1="544.886" y2="500.744" gradientUnits="userSpaceOnUse" xlink:href="#linearGradient4521"/><linearGradient id="linearGradient8311-06"><stop id="stop8313-6" offset="0" stop-color="#a9a3d4" stop-opacity="1"/><stop id="stop4462" offset=".47" stop-color="#87baff" stop-opacity="1"/><stop id="stop8315-2" offset="1" stop-color="#89ec85" stop-opacity="1"/></linearGradient><linearGradient id="linearGradient4822"><stop id="stop4824" offset="0" stop-color="#118702" stop-opacity="1"/><stop id="stop4826" offset="1" stop-color="#80e950" stop-opacity="1"/></linearGradient></defs><metadata id="metadata2990"/><g id="layer1"><g id="g4527" transform="matrix(1.0688688,0,0,1.0688688,-2.2065236,-1.3849612)"><g id="layer1-3" fill="url(#linearGradient4546)" fill-opacity="1" stroke="url(#linearGradient4519)" stroke-dasharray="none" stroke-miterlimit="4" stroke-width="2.123" transform="matrix(0.9421423,0,0,0.9421423,-369.73401,-467.51903)"><path id="circle4309-6" cx="408.571" cy="519.798" r="10" fill="url(#linearGradient4232)" fill-opacity="1" stroke="url(#linearGradient4534)" stroke-dasharray="none" stroke-linecap="round" stroke-linejoin="round" stroke-miterlimit="4" stroke-opacity="1" stroke-width="2.123" opacity="1"/><g id="g4378" fill="url(#linearGradient4236)" fill-opacity="1" stroke="url(#linearGradient4538)" stroke-dasharray="none" stroke-miterlimit="4" stroke-width="1.791" transform="matrix(1.1849521,0,0,1.1849521,-124.25812,-101.31636)"><circle id="path4310" cx="458.072" cy="525.642" r="19.217" fill="url(#linearGradient4234)" fill-opacity="1" stroke="url(#linearGradient4536)" stroke-dasharray="none" stroke-linecap="round" stroke-linejoin="round" stroke-miterlimit="4" stroke-opacity="1" stroke-width="1.791" opacity="1"/></g></g><path id="path4206" fill="url(#linearGradient4273)" fill-opacity="1" fill-rule="evenodd" stroke="none" stroke-linecap="butt" stroke-linejoin="miter" stroke-opacity="1" stroke-width="1" d="m 24.757139,9.4031262 2.2042,0.7347338 c 0,0 0.912677,2.808346 1.64741,3.543079 1.161715,1.161716 5.699923,3.804254 5.699923,9.68212 0,4.408401 -2.938933,7.347334 -6.6126,9.551534 3.673667,-3.673667 5.143134,-5.143133 5.143134,-9.551534 0,-5.877866 -5.877867,-6.6126 -5.877867,-6.6126 l 0,15.999106 c 0,1.634494 -1.540625,4.348043 -4.055043,5.392419 -3.187132,1.320465 -6.52646,0.566754 -7.45783,-1.683286 -0.931033,-2.249192 0.896671,-5.142041 4.082648,-6.461921 1.903707,-0.788785 3.690919,-0.969738 5.226025,-0.306687 z"/></g></g></svg>