<svg xmlns="http://www.w3.org/2000/svg" xmlns:svg="http://www.w3.org/2000/svg" xmlns:xlink="http://www.w3.org/1999/xlink" id="svg5453" width="48" height="48" version="1.1"><defs id="defs5455"><linearGradient id="linearGradient4422"><stop id="stop4424" offset="0" stop-color="#197ff1" stop-opacity="1"/><stop id="stop4426" offset="1" stop-color="#21c6fb" stop-opacity="1"/></linearGradient><linearGradient id="linearGradient4232"><stop id="stop4234-0" offset="0" stop-color="#3889e9" stop-opacity="1"/><stop id="stop4236" offset="1" stop-color="#5ea5fb" stop-opacity="1"/></linearGradient><linearGradient id="linearGradient3426" x1="399.571" x2="399.571" y1="545.798" y2="517.798" gradientUnits="userSpaceOnUse" xlink:href="#linearGradient4232"/><linearGradient id="linearGradient4181" x1="399.994" x2="399.994" y1="545.139" y2="518.139" gradientUnits="userSpaceOnUse" xlink:href="#linearGradient4422"/></defs><metadata id="metadata5458"/><g id="layer1" transform="translate(-384.57143,-499.798)"><g id="layer1-2" transform="matrix(1.4375,0,0,1.4375,-167.30319,-240.77888)"><g id="g4340" transform="matrix(1.1428581,0,0,1.1428581,-57.215289,-75.977363)"><g id="layer1-39" stroke="none" transform="translate(-0.11123528,0.03124873)"><g id="layer1-3" stroke="none" stroke-dasharray="none" stroke-miterlimit="4" stroke-opacity="1" stroke-width="1.3" transform="translate(0.13524268,0.04517549)"><circle id="path3377" cx="400.571" cy="531.798" r="14" fill="url(#linearGradient4181)" fill-opacity="1" stroke="none" stroke-dasharray="none" stroke-dashoffset="0" stroke-miterlimit="4" stroke-opacity="1" stroke-width="1.3" opacity="1"/><circle id="circle4174" cx="400.571" cy="531.798" r="14" fill="#5ea5fb" fill-opacity="0" stroke="none" stroke-dasharray="none" stroke-dashoffset="0" stroke-miterlimit="4" stroke-opacity="1" stroke-width="1.3" opacity="1"/><circle id="ellipse4233" cx="400.571" cy="531.798" r="0" fill="url(#linearGradient3426)" fill-opacity="1" stroke="none" stroke-dasharray="none" stroke-dashoffset="0" stroke-miterlimit="4" stroke-opacity="1" stroke-width="1.3" opacity="1"/></g></g><g id="layer1-31" fill="#fff" fill-opacity=".852" transform="matrix(1.1883825,0,0,1.1883825,354.48616,-705.17925)"><g id="layer1-7" fill="#fff" fill-opacity=".852" stroke="#4d4d4d" stroke-dasharray="none" stroke-miterlimit="4" stroke-opacity="1" stroke-width=".3" transform="matrix(1.2821203,0,0,1.2821203,-418.17441,341.10436)"><g id="layer1-9" fill="#fff" fill-opacity=".852" stroke="none" stroke-dasharray="none" stroke-miterlimit="4" stroke-opacity="1" stroke-width=".97" transform="matrix(0.30924083,0,0,0.30924083,99.330471,486.10014)"><g id="g5257" fill="#fff" fill-opacity=".852" stroke="none" stroke-dasharray="none" stroke-miterlimit="4" stroke-opacity="1" stroke-width=".796" transform="matrix(1.219356,0,0,1.219356,779.29263,166.4101)"><g id="g5211" fill="#fff" fill-opacity=".852" stroke="none" stroke-dasharray="none" stroke-miterlimit="4" stroke-opacity="1" stroke-width=".916" transform="matrix(0.86821297,0,0,0.86821297,22.89117,3.3794412)"><g id="g5213" fill="#fff" fill-opacity=".852" stroke="none" stroke-dasharray="none" stroke-miterlimit="4" stroke-opacity="1" stroke-width=".916"><path id="path5215" fill="#fff" fill-opacity=".852" stroke="none" stroke-dasharray="none" stroke-miterlimit="4" stroke-opacity="1" stroke-width=".916" d="m 22.683,16.977 c -2.028,0 -3.465,1.646 -3.465,3.672 l 0,12.485 c 0,2.028 1.437,3.671 3.465,3.671 2.027,0 3.463,-1.643 3.463,-3.671 l 0,-12.485 c 0,-2.028 -1.436,-3.672 -3.463,-3.672 z"/><path id="path5217" fill="#fff" fill-opacity=".852" stroke="none" stroke-dasharray="none" stroke-miterlimit="4" stroke-opacity="1" stroke-width=".916" d="m 22.698,7.432 c -2.095,0 -3.795,1.699 -3.795,3.795 0,2.095 1.7,3.793 3.795,3.793 2.093,0 3.793,-1.698 3.793,-3.793 0,-2.096 -1.7,-3.795 -3.793,-3.795 z"/></g></g></g></g></g></g></g></g></g></svg>