<svg xmlns="http://www.w3.org/2000/svg" xmlns:osb="http://www.openswatchbook.org/uri/2009/osb" xmlns:svg="http://www.w3.org/2000/svg" xmlns:xlink="http://www.w3.org/1999/xlink" id="svg5453" width="48" height="48" version="1.1"><defs id="defs5455"><linearGradient id="linearGradient4174" x1="409.571" x2="409.571" y1="543.798" y2="503.798" gradientUnits="userSpaceOnUse" xlink:href="#linearGradient4143"/><linearGradient id="linearGradient4207" osb:paint="gradient"><stop id="stop3371" offset="0" stop-color="#3498db" stop-opacity="1"/><stop id="stop3373" offset="1" stop-color="#3498db" stop-opacity="0"/></linearGradient><linearGradient id="linearGradient4143"><stop id="stop4145" offset="0" stop-color="#197cf1" stop-opacity="1"/><stop id="stop4147" offset="1" stop-color="#20bcfa" stop-opacity="1"/></linearGradient></defs><metadata id="metadata5458"/><g id="layer1" transform="translate(-384.57143,-499.798)"><g id="g4441" transform="matrix(1.1638089,0,0,1.1638089,-66.814664,-85.463857)"><g id="g5039" transform="matrix(1.0310974,0,0,1.0310974,-12.770795,-16.481135)"><rect id="rect4166" width="40" height="40" x="388.571" y="503.798" fill="url(#linearGradient4174)" fill-opacity="1" stroke="none" stroke-dasharray="none" stroke-miterlimit="4" stroke-opacity=".55" stroke-width="2.8" opacity="1" ry="20"/><g id="g5026"><g id="layer1-8" fill="#fff" fill-opacity=".851" transform="matrix(2.4999993,0,0,2.4999993,380.6238,-2078.8693)"><g id="g846" fill="#fff" fill-opacity=".851" transform="translate(-61.043672,-14.648105)"><g id="layer1-9-3" fill="#fff" fill-opacity=".851" transform="translate(-265.95633,511.6481)"><g id="layer1-5" fill="#fff" fill-opacity=".851" transform="matrix(0.66666667,0,0,0.66666667,70.952371,189.83022)"><g id="text4304" fill="#fff" fill-opacity=".851" stroke="none" stroke-linecap="butt" stroke-linejoin="miter" stroke-opacity="1" stroke-width="1" font-family="sans-serif" font-size="11.25" font-style="normal" font-weight="normal" letter-spacing="0" transform="matrix(1.6792891,0,0,1.6260163,-208.63621,-323.83492)" word-spacing="0" style="line-height:125%"><path style="-inkscape-font-specification:'Product Sans'" id="path4309" fill="#fff" fill-opacity=".851" d="m 363.30019,530.14047 q -0.21375,0.225 -0.54,0.225 -0.32625,0 -0.55125,-0.225 -0.21375,-0.225 -0.21375,-0.54 0,-0.315 0.21375,-0.54 0.225,-0.225 0.55125,-0.225 0.32625,0 0.54,0.225 0.225,0.225 0.225,0.54 0,0.315 -0.225,0.54 z m -0.0112,-2.34 -1.0575,0 0,-0.52875 q 0,-0.50625 0.21375,-0.86625 0.21375,-0.37125 0.75375,-0.86625 0.30375,-0.28125 0.4275,-0.41625 0.135,-0.14625 0.25875,-0.39375 0.135,-0.25875 0.135,-0.52875 0,-0.5175 -0.3375,-0.8325 -0.32625,-0.315 -0.91125,-0.315 -0.9675,0 -1.3275,1.08 l -0.9675,-0.405 q 0.23625,-0.64125 0.81,-1.1475 0.585,-0.5175 1.485,-0.5175 1.02375,0 1.665,0.6075 0.64125,0.59625 0.64125,1.53 0,0.405 -0.21375,0.82125 -0.21375,0.41625 -0.3825,0.59625 -0.1575,0.16875 -0.45,0.43875 -0.0337,0.0337 -0.0562,0.0562 -0.68625,0.61875 -0.68625,1.2375 l 0,0.45 z" font-family="Product Sans" font-stretch="normal" font-style="normal" font-variant="normal" font-weight="normal"/></g></g></g></g></g></g></g></g></g></svg>