<svg xmlns="http://www.w3.org/2000/svg" xmlns:osb="http://www.openswatchbook.org/uri/2009/osb" xmlns:svg="http://www.w3.org/2000/svg" xmlns:xlink="http://www.w3.org/1999/xlink" id="svg5453" width="48" height="48" version="1.1"><defs id="defs5455"><linearGradient id="linearGradient4398"><stop id="stop4400" offset="0" stop-color="#97a9b1" stop-opacity="1"/><stop id="stop4402" offset="1" stop-color="#ebf9ff" stop-opacity="1"/></linearGradient><linearGradient id="linearGradient4174" x1="409.571" x2="409.571" y1="543.798" y2="503.798" gradientUnits="userSpaceOnUse" xlink:href="#linearGradient4180"/><linearGradient id="linearGradient4207" osb:paint="gradient"><stop id="stop3371" offset="0" stop-color="#3498db" stop-opacity="1"/><stop id="stop3373" offset="1" stop-color="#3498db" stop-opacity="0"/></linearGradient><linearGradient id="linearGradient3764" x1="1" x2="47" gradientTransform="matrix(0,-1,1,0,-1.5e-6,47.999998)" gradientUnits="userSpaceOnUse"><stop id="stop4180" stop-color="#015093" stop-opacity="1"/><stop id="stop4182" offset="1" stop-color="#015ca7" stop-opacity="1"/></linearGradient><clipPath id="clipPath-418602435"><g id="g4185" transform="translate(0,-1004.3622)"><path id="path4187" fill="#1890d0" d="m -24 13 c 0 1.105 -0.672 2 -1.5 2 -0.828 0 -1.5 -0.895 -1.5 -2 0 -1.105 0.672 -2 1.5 -2 0.828 0 1.5 0.895 1.5 2 z" transform="matrix(15.333333,0,0,11.5,414.99999,878.8622)"/></g></clipPath><clipPath id="clipPath-429948556"><g id="g4190" transform="translate(0,-1004.3622)"><path id="path4192" fill="#1890d0" d="m -24 13 c 0 1.105 -0.672 2 -1.5 2 -0.828 0 -1.5 -0.895 -1.5 -2 0 -1.105 0.672 -2 1.5 -2 0.828 0 1.5 0.895 1.5 2 z" transform="matrix(15.333333,0,0,11.5,414.99999,878.8622)"/></g></clipPath><linearGradient id="linearGradient8311-06"><stop id="stop8313-6" offset="0" stop-color="#a9a3d4" stop-opacity="1"/><stop id="stop4462" offset=".47" stop-color="#87baff" stop-opacity="1"/><stop id="stop8315-2" offset="1" stop-color="#89ec85" stop-opacity="1"/></linearGradient><linearGradient id="linearGradient4180"><stop id="stop4182-3" offset="0" stop-color="#97a9b1" stop-opacity="1"/><stop id="stop4184" offset="1" stop-color="#cfdce1" stop-opacity="1"/></linearGradient><linearGradient id="linearGradient4416" x1="94.889" x2="97.006" y1="478.39" y2="563.998" gradientUnits="userSpaceOnUse" xlink:href="#linearGradient4398"/><linearGradient id="linearGradient4424" x1="94.889" x2="97.006" y1="478.39" y2="563.998" gradientUnits="userSpaceOnUse" xlink:href="#linearGradient4398"/><linearGradient id="linearGradient4432" x1="94.889" x2="97.006" y1="478.39" y2="563.998" gradientUnits="userSpaceOnUse" xlink:href="#linearGradient4398"/><linearGradient id="linearGradient4440" x1="94.889" x2="97.006" y1="478.39" y2="563.998" gradientUnits="userSpaceOnUse" xlink:href="#linearGradient4398"/><linearGradient id="linearGradient4448" x1="94.889" x2="97.006" y1="478.39" y2="563.998" gradientUnits="userSpaceOnUse" xlink:href="#linearGradient4398"/><linearGradient id="linearGradient4578" x1="334.386" x2="374.386" y1="532.209" y2="532.209" gradientUnits="userSpaceOnUse" xlink:href="#linearGradient8311-06"/><linearGradient id="linearGradient4588" x1="334.386" x2="374.386" y1="532.209" y2="532.209" gradientUnits="userSpaceOnUse" xlink:href="#linearGradient8311-06"/><linearGradient id="linearGradient4598" x1="334.386" x2="374.386" y1="532.209" y2="532.209" gradientUnits="userSpaceOnUse" xlink:href="#linearGradient8311-06"/><linearGradient id="linearGradient4608" x1="334.386" x2="374.386" y1="532.209" y2="532.209" gradientUnits="userSpaceOnUse" xlink:href="#linearGradient8311-06"/><linearGradient id="linearGradient4618" x1="334.386" x2="374.386" y1="532.209" y2="532.209" gradientUnits="userSpaceOnUse" xlink:href="#linearGradient8311-06"/><linearGradient id="linearGradient4628" x1="334.386" x2="374.386" y1="532.209" y2="532.209" gradientUnits="userSpaceOnUse" xlink:href="#linearGradient8311-06"/><linearGradient id="linearGradient4638" x1="334.386" x2="374.386" y1="532.209" y2="532.209" gradientUnits="userSpaceOnUse" xlink:href="#linearGradient8311-06"/><linearGradient id="linearGradient4648" x1="334.386" x2="374.386" y1="532.209" y2="532.209" gradientUnits="userSpaceOnUse" xlink:href="#linearGradient8311-06"/><linearGradient id="linearGradient4658" x1="334.386" x2="374.386" y1="532.209" y2="532.209" gradientUnits="userSpaceOnUse" xlink:href="#linearGradient8311-06"/><linearGradient id="linearGradient4668" x1="334.386" x2="374.386" y1="532.209" y2="532.209" gradientUnits="userSpaceOnUse" xlink:href="#linearGradient8311-06"/><linearGradient id="linearGradient4678" x1="334.386" x2="374.386" y1="532.209" y2="532.209" gradientUnits="userSpaceOnUse" xlink:href="#linearGradient8311-06"/></defs><metadata id="metadata5458"/><g id="layer1" transform="translate(-384.57143,-499.798)"><g id="g4441" transform="matrix(1.1638089,0,0,1.1638089,-66.814664,-85.463857)"><g id="g5039" transform="matrix(1.0310974,0,0,1.0310974,-12.770795,-16.481135)"><rect id="rect4166" width="40" height="40" x="388.571" y="503.798" fill="url(#linearGradient4174)" fill-opacity="1" stroke="none" stroke-dasharray="none" stroke-miterlimit="4" stroke-opacity=".55" stroke-width="2.8" opacity="1" ry="20"/><g id="g5026-3-8" fill="none" fill-opacity="1" transform="translate(-5.6172003,-17.770598)"><g id="g3017-2-0" fill="none" fill-opacity="1" transform="matrix(0.50100186,0,0,-0.50100186,307.16295,793.70491)"><g id="g3061-4-8" fill="none" fill-opacity="1" transform="matrix(1.5180439,0,0,1.5180439,-28.149474,-249.71011)"><g id="g3021-4-5" fill="none" fill-opacity="1" transform="translate(106.93201,508.32201)"><path id="path3023-1-0" fill="none" fill-opacity="1" fill-rule="nonzero" stroke="none" d="m 0,0 c 0,14.524 -11.773,26.297 -26.297,26.297 -0.396,0 -0.79,-0.01 -1.182,-0.028 l -5.379,-14.784 4.685,0 c 2.787,0 4.289,-2.146 3.335,-4.767 l -6.635,-18.234 -5.571,10e-4 7.12,19.544 -4.189,0 -7.12,-19.544 -5.573,0 8.372,23 10e-4,0 5.036,13.841 C -44.471,22.228 -52.594,12.063 -52.594,0 c 0,-12.421 8.613,-22.83 20.192,-25.583 l 4.88,13.411 0.004,0 8.609,23.657 10.261,0 c 2.79,0 4.291,-2.146 3.337,-4.767 l -5.83,-16.015 c -0.444,-1.22 -1.869,-2.218 -3.167,-2.218 l -7.396,0 -5.374,-14.77 c 0.259,-0.007 0.52,-0.012 0.781,-0.012 C -11.773,-26.297 0,-14.523 0,0"/></g><g id="g3025-1-8" fill="none" fill-opacity="1" transform="translate(96.546997,516.36501)"><path id="path3027-1-0" fill="none" fill-opacity="1" fill-rule="nonzero" stroke="none" d="m 0,0 -4.187,0 -5.864,-16.089 4.187,0 L 0,0"/></g></g></g></g><g id="layer1-8" fill="#000" fill-opacity=".69" transform="matrix(1.2193553,0,0,1.2193553,9.8825743,5.8143074)"><g id="g2400" fill="#000" fill-opacity=".69" transform="translate(305.98769,411.72767)"><path id="path2388" fill="#000" fill-opacity=".69" d="m 24.959,16.771 -1.405,0 2.641,-7.415 1.406,0 -2.642,7.415 m 3.531,-8.934 -4.555,0 -6.461,18.143 2.799,0 2.753,-7.731 2.8,0 c 0.619,0 1.399,-0.185 1.723,-1.108 0.322,-0.924 2.072,-5.767 2.557,-7.222 C 30.59,8.462 29.433,7.837 28.49,7.837 Z"/><path id="path2390" fill="#000" fill-opacity=".69" d="m 21.447,10.151 -2.757,7.732 -2.774,0 3.033,-8.508 -1.429,0 -3.033,8.508 -2.799,0 6.375,-17.873 2.799,0 -2.807,7.871 1.885,0 c 1.357,0 1.914,1.064 1.507,2.27"/></g></g></g></g></g></svg>