<svg xmlns="http://www.w3.org/2000/svg" xmlns:osb="http://www.openswatchbook.org/uri/2009/osb" xmlns:svg="http://www.w3.org/2000/svg" xmlns:xlink="http://www.w3.org/1999/xlink" id="svg5453" width="48" height="48" version="1.1"><defs id="defs5455"><linearGradient id="linearGradient4298"><stop id="stop4300" offset="0" stop-color="#42a603" stop-opacity="1"/><stop id="stop4302" offset="1" stop-color="#78da06" stop-opacity="1"/></linearGradient><linearGradient id="linearGradient4222" x1="409.571" x2="409.571" y1="542.798" y2="507.798" gradientTransform="matrix(1.0523327,0,0,1.0276135,-21.151387,-14.039869)" gradientUnits="userSpaceOnUse" xlink:href="#linearGradient4298"/><linearGradient id="linearGradient4207" osb:paint="gradient"><stop id="stop3371" offset="0" stop-color="#3498db" stop-opacity="1"/><stop id="stop3373" offset="1" stop-color="#3498db" stop-opacity="0"/></linearGradient><linearGradient id="linearGradient8311-06"><stop id="stop8313-6" offset="0" stop-color="#a9a3d4" stop-opacity="1"/><stop id="stop4462" offset=".47" stop-color="#87baff" stop-opacity="1"/><stop id="stop8315-2" offset="1" stop-color="#89ec85" stop-opacity="1"/></linearGradient><linearGradient id="linearGradient4460" x1="0" x2="47" y1="23.5" y2="23.5" gradientUnits="userSpaceOnUse" xlink:href="#linearGradient8311-06"/><linearGradient id="linearGradient4736" x1="1" x2="47" gradientTransform="matrix(0,-1,1,0,-1.5e-6,47.999998)" gradientUnits="userSpaceOnUse"><stop id="stop4738" stop-color="#8e3456" stop-opacity="1"/><stop id="stop4740" offset="1" stop-color="#cc4c7c" stop-opacity="1"/></linearGradient><linearGradient id="linearGradient3764" x1="1" x2="47" gradientTransform="matrix(0,-1,1,0,-1.5e-6,47.999998)" gradientUnits="userSpaceOnUse"><stop id="stop7" stop-color="#a0a0a0" stop-opacity="1"/><stop id="stop9" offset="1" stop-color="#aaa" stop-opacity="1"/></linearGradient><clipPath id="clipPath-633633295"><g id="g12" transform="translate(0,-1004.3622)"><path id="path14" fill="#1890d0" d="m -24 13 c 0 1.105 -0.672 2 -1.5 2 -0.828 0 -1.5 -0.895 -1.5 -2 0 -1.105 0.672 -2 1.5 -2 0.828 0 1.5 0.895 1.5 2 z" transform="matrix(15.333333,0,0,11.5,414.99999,878.8622)"/></g></clipPath><clipPath id="clipPath-641825549"><g id="g17" transform="translate(0,-1004.3622)"><path id="path19" fill="#1890d0" d="m -24 13 c 0 1.105 -0.672 2 -1.5 2 -0.828 0 -1.5 -0.895 -1.5 -2 0 -1.105 0.672 -2 1.5 -2 0.828 0 1.5 0.895 1.5 2 z" transform="matrix(15.333333,0,0,11.5,414.99999,878.8622)"/></g></clipPath><linearGradient id="linearGradient4871"><stop id="stop4873" offset="0" stop-color="#faf7f7" stop-opacity="1"/><stop id="stop4875" offset="1" stop-color="#fcf9f9" stop-opacity="1"/></linearGradient><linearGradient id="linearGradient4329"><stop id="stop4331" offset="0" stop-color="#db50c8" stop-opacity="1"/><stop id="stop4333" offset="1" stop-color="#981fe7" stop-opacity="1"/></linearGradient><linearGradient id="linearGradient4776"><stop id="stop4778" offset="0" stop-color="#1d99f3" stop-opacity="1"/><stop id="stop4780" offset="1" stop-color="#2972a7" stop-opacity="1"/></linearGradient><linearGradient id="linearGradient5617"><stop id="stop5619" offset="0" stop-color="#e30efe" stop-opacity="1"/><stop id="stop5621" offset="1" stop-color="#10e3fd" stop-opacity="1"/></linearGradient><linearGradient id="linearGradient5263"><stop id="stop5265" offset="0" stop-color="#a0d5ff" stop-opacity="1"/><stop id="stop5267" offset="1" stop-color="#a0d5ff" stop-opacity="1"/></linearGradient><linearGradient id="linearGradient4333"><stop id="stop4335" offset="0" stop-color="#33383a" stop-opacity="1"/><stop id="stop4337" offset="1" stop-color="#747474" stop-opacity="1"/></linearGradient><linearGradient id="linearGradient4294"><stop id="stop4296" offset="0" stop-color="#797979" stop-opacity="1"/><stop id="stop4298" offset="1" stop-color="#2e3436"/></linearGradient><linearGradient id="linearGradient3052"><stop id="stop3054" offset="0" stop-color="#555753"/><stop id="stop3056" offset="1" stop-color="#2e3436"/></linearGradient><radialGradient id="radialGradient3082" cx="25.641" cy="3.684" r="17.995" fx="25.641" fy="3.684" gradientTransform="matrix(-0.09909444,0.5637063,-0.25300901,-0.04447686,405.8275,514.36395)" gradientUnits="userSpaceOnUse" xlink:href="#linearGradient3052"/><clipPath id="clipPath4458"><path id="use4460" d="m 69.626,12.145 -0.052,0 c -22.727,-0.292 -46.472,4.077 -46.709,4.122 -2.424,0.451 -4.946,2.974 -5.397,5.397 -0.044,0.237 -4.414,23.983 -4.122,46.71 -0.292,22.777 4.078,46.523 4.122,46.761 0.451,2.423 2.974,4.945 5.398,5.398 0.237,0.044 23.982,4.413 46.709,4.121 22.779,0.292 46.524,-4.077 46.761,-4.121 2.423,-0.452 4.946,-2.976 5.398,-5.399 0.044,-0.236 4.413,-23.981 4.121,-46.709 0.292,-22.777 -4.077,-46.523 -4.121,-46.761 -0.453,-2.423 -2.976,-4.946 -5.398,-5.397 -0.238,-0.045 -23.984,-4.414 -46.71,-4.122 z"/></clipPath><linearGradient id="linearGradient4237"><stop id="stop4239" offset="0" stop-color="#833cfc" stop-opacity="1"/><stop id="stop4241" offset="1" stop-color="#f461d4" stop-opacity="1"/></linearGradient><linearGradient id="linearGradient4210"><stop id="stop4212" offset="0" stop-color="#f23673" stop-opacity="1"/><stop id="stop4214" offset="1" stop-color="#fd8c60" stop-opacity="1"/></linearGradient><linearGradient id="linearGradient4179"><stop id="stop4181" offset="0" stop-color="#ffee5e" stop-opacity="1"/><stop id="stop4183" offset="1" stop-color="#feff8b" stop-opacity="1"/></linearGradient><linearGradient id="linearGradient4210-3"><stop id="stop4212-1" offset="0" stop-color="#ffce69" stop-opacity="1"/><stop id="stop4214-6" offset="1" stop-color="#ffce54" stop-opacity="1"/></linearGradient><linearGradient id="linearGradient4237-0"><stop id="stop4239-8" offset="0" stop-color="#ffee5e" stop-opacity="1"/><stop id="stop4241-9" offset="1" stop-color="#feff9f" stop-opacity="1"/></linearGradient><linearGradient id="linearGradient4237-2"><stop id="stop4239-7" offset="0" stop-color="#ffa0a6" stop-opacity="1"/><stop id="stop4241-2" offset="1" stop-color="#ffa0a5" stop-opacity="1"/></linearGradient><linearGradient id="linearGradient8311"><stop id="stop8313" offset="0" stop-color="#ce89ff" stop-opacity="1"/><stop id="stop8315" offset="1" stop-color="#e898ff" stop-opacity="1"/></linearGradient><linearGradient id="linearGradient4237-8"><stop id="stop4239-2" offset="0" stop-color="#cf8aff" stop-opacity="1"/><stop id="stop4241-3" offset="1" stop-color="#eaa0ff" stop-opacity="1"/></linearGradient><linearGradient id="linearGradient8311-3"><stop id="stop8313-0" offset="0" stop-color="#ffcc6b" stop-opacity="1"/><stop id="stop8315-1" offset="1" stop-color="#ffcf98" stop-opacity="1"/></linearGradient><linearGradient id="linearGradient4237-3"><stop id="stop4239-0" offset="0" stop-color="#ffcc6e" stop-opacity="1"/><stop id="stop4241-7" offset="1" stop-color="#ffe4a0" stop-opacity="1"/></linearGradient><linearGradient id="linearGradient8311-31"><stop id="stop8313-2" offset="0" stop-color="#f089ff" stop-opacity="1"/><stop id="stop8315-6" offset="1" stop-color="#ffadea" stop-opacity="1"/></linearGradient><linearGradient id="linearGradient4237-6"><stop id="stop4239-22" offset="0" stop-color="#f18bfe" stop-opacity="1"/><stop id="stop4241-0" offset="1" stop-color="#fcc3ff" stop-opacity="1"/></linearGradient><linearGradient id="linearGradient8467"><stop id="stop8469" offset="0" stop-color="#b9b9b9" stop-opacity="1"/><stop id="stop8471" offset="1" stop-color="#d1d1d1" stop-opacity="1"/></linearGradient><linearGradient id="linearGradient8311-5"><stop id="stop8313-7" offset="0" stop-color="#b9b9b9" stop-opacity="1"/><stop id="stop8315-3" offset="1" stop-color="#d2d2d2" stop-opacity="1"/></linearGradient><linearGradient id="linearGradient4237-4"><stop id="stop4239-9" offset="0" stop-color="#bababa" stop-opacity="1"/><stop id="stop4241-37" offset="1" stop-color="#c8c8c8" stop-opacity="1"/></linearGradient><linearGradient id="linearGradient8467-7"><stop id="stop8469-4" offset="0" stop-color="#3ec896" stop-opacity="1"/><stop id="stop8471-7" offset="1" stop-color="#66d9af" stop-opacity="1"/></linearGradient><linearGradient id="linearGradient8311-1"><stop id="stop8313-9" offset="0" stop-color="#494949" stop-opacity="1"/><stop id="stop8315-5" offset="1" stop-color="#616774" stop-opacity="1"/></linearGradient><linearGradient id="linearGradient-1" x1="209.957" x2="209.957" y1="0" y2="116.694" gradientTransform="scale(1.1288018,0.8858951)" gradientUnits="userSpaceOnUse"><stop id="stop4884" offset="0%" stop-color="#A7A7A7"/><stop id="stop4886" offset="100%" stop-color="#8D8D8D"/></linearGradient><linearGradient id="linearGradient-2" x1="193" x2="193" y1="411.584" y2="105.4" gradientTransform="scale(1.2279807,0.81434507)" gradientUnits="userSpaceOnUse"><stop id="stop4889" offset="0%" stop-color="#707070"/><stop id="stop4891" offset="100%" stop-color="#ABABAB"/></linearGradient><linearGradient id="linearGradient-3" x1="193" x2="193" y1="70.609" y2="457.423" gradientTransform="scale(1.2279807,0.81434507)" gradientUnits="userSpaceOnUse"><stop id="stop4894" offset="0%" stop-color="#000" stop-opacity="0"/><stop id="stop4896" offset="100%" stop-color="#000" stop-opacity=".19"/></linearGradient><linearGradient id="linearGradient4232"><stop id="stop4234" offset="0" stop-color="#333" stop-opacity="1"/><stop id="stop4236" offset="1" stop-color="#353535" stop-opacity="1"/></linearGradient><linearGradient id="linearGradient4172"><stop id="stop4174" offset="0" stop-color="#3dc796" stop-opacity="1"/><stop id="stop4176" offset="1" stop-color="#57d68d" stop-opacity="1"/></linearGradient><linearGradient id="linearGradient4233"><stop id="stop4235" offset="0" stop-color="#212121" stop-opacity="1"/><stop id="stop4237" offset="1" stop-color="#1d2022" stop-opacity="0"/></linearGradient><linearGradient id="linearGradient8467-6"><stop id="stop8469-5" offset="0" stop-color="#56d8d1" stop-opacity="1"/><stop id="stop8471-8" offset="1" stop-color="#9df7ee" stop-opacity="1"/></linearGradient><linearGradient id="linearGradient8311-10"><stop id="stop8313-3" offset="0" stop-color="#55d8d1" stop-opacity="1"/><stop id="stop8315-8" offset="1" stop-color="#66efe7" stop-opacity="1"/></linearGradient><linearGradient id="linearGradient8467-8"><stop id="stop8469-9" offset="0" stop-color="#dea679" stop-opacity="1"/><stop id="stop8471-2" offset="1" stop-color="#f7d19d" stop-opacity="1"/></linearGradient><linearGradient id="linearGradient8311-0"><stop id="stop8313-90" offset="0" stop-color="#dda579" stop-opacity="1"/><stop id="stop8315-88" offset="1" stop-color="#f3bc87" stop-opacity="1"/></linearGradient><linearGradient id="linearGradient8467-2"><stop id="stop8469-6" offset="0" stop-color="#5fa4d5" stop-opacity="1"/><stop id="stop8471-5" offset="1" stop-color="#9dc9f7" stop-opacity="1"/></linearGradient><linearGradient id="linearGradient8311-06-1"><stop id="stop8313-6-8" offset="0" stop-color="#5fa3d4" stop-opacity="1"/><stop id="stop8315-2-1" offset="1" stop-color="#6bb9ff" stop-opacity="1"/></linearGradient><clipPath id="clipPath4458-0"><path id="use4460-4" d="m 69.626,12.145 -0.052,0 c -22.727,-0.292 -46.472,4.077 -46.709,4.122 -2.424,0.451 -4.946,2.974 -5.397,5.397 -0.044,0.237 -4.414,23.983 -4.122,46.71 -0.292,22.777 4.078,46.523 4.122,46.761 0.451,2.423 2.974,4.945 5.398,5.398 0.237,0.044 23.982,4.413 46.709,4.121 22.779,0.292 46.524,-4.077 46.761,-4.121 2.423,-0.452 4.946,-2.976 5.398,-5.399 0.044,-0.236 4.413,-23.981 4.121,-46.709 0.292,-22.777 -4.077,-46.523 -4.121,-46.761 -0.453,-2.423 -2.976,-4.946 -5.398,-5.397 -0.238,-0.045 -23.984,-4.414 -46.71,-4.122 z"/></clipPath><linearGradient id="linearGradient4851"><stop id="stop4853" offset="0" stop-color="#474a4d" stop-opacity="1"/><stop id="stop4855" offset="1" stop-color="#a5aaae" stop-opacity="1"/></linearGradient><clipPath id="clipPath4458-48"><path id="use4460-97" d="m 69.626,12.145 -0.052,0 c -22.727,-0.292 -46.472,4.077 -46.709,4.122 -2.424,0.451 -4.946,2.974 -5.397,5.397 -0.044,0.237 -4.414,23.983 -4.122,46.71 -0.292,22.777 4.078,46.523 4.122,46.761 0.451,2.423 2.974,4.945 5.398,5.398 0.237,0.044 23.982,4.413 46.709,4.121 22.779,0.292 46.524,-4.077 46.761,-4.121 2.423,-0.452 4.946,-2.976 5.398,-5.399 0.044,-0.236 4.413,-23.981 4.121,-46.709 0.292,-22.777 -4.077,-46.523 -4.121,-46.761 -0.453,-2.423 -2.976,-4.946 -5.398,-5.397 -0.238,-0.045 -23.984,-4.414 -46.71,-4.122 z"/></clipPath><clipPath id="clipPath4458-7"><path id="use4460-2" fill="url(#linearGradient4580)" fill-opacity="1" d="m 69.626,12.145 -0.052,0 c -22.727,-0.292 -46.472,4.077 -46.709,4.122 -2.424,0.451 -4.946,2.974 -5.397,5.397 -0.044,0.237 -4.414,23.983 -4.122,46.71 -0.292,22.777 4.078,46.523 4.122,46.761 0.451,2.423 2.974,4.945 5.398,5.398 0.237,0.044 23.982,4.413 46.709,4.121 22.779,0.292 46.524,-4.077 46.761,-4.121 2.423,-0.452 4.946,-2.976 5.398,-5.399 0.044,-0.236 4.413,-23.981 4.121,-46.709 0.292,-22.777 -4.077,-46.523 -4.121,-46.761 -0.453,-2.423 -2.976,-4.946 -5.398,-5.397 -0.238,-0.045 -23.984,-4.414 -46.71,-4.122 z"/></clipPath><linearGradient id="linearGradient5263-5"><stop id="stop5265-4" offset="0" stop-color="#fff" stop-opacity="0"/><stop id="stop5267-0" offset="1" stop-color="#d5edff" stop-opacity="1"/></linearGradient><clipPath id="clipPath4458-4"><path id="use4460-26" d="m 69.626,12.145 -0.052,0 c -22.727,-0.292 -46.472,4.077 -46.709,4.122 -2.424,0.451 -4.946,2.974 -5.397,5.397 -0.044,0.237 -4.414,23.983 -4.122,46.71 -0.292,22.777 4.078,46.523 4.122,46.761 0.451,2.423 2.974,4.945 5.398,5.398 0.237,0.044 23.982,4.413 46.709,4.121 22.779,0.292 46.524,-4.077 46.761,-4.121 2.423,-0.452 4.946,-2.976 5.398,-5.399 0.044,-0.236 4.413,-23.981 4.121,-46.709 0.292,-22.777 -4.077,-46.523 -4.121,-46.761 -0.453,-2.423 -2.976,-4.946 -5.398,-5.397 -0.238,-0.045 -23.984,-4.414 -46.71,-4.122 z"/></clipPath><clipPath id="clipPath4458-7-1"><path id="use4460-2-2" d="m 69.626,12.145 -0.052,0 c -22.727,-0.292 -46.472,4.077 -46.709,4.122 -2.424,0.451 -4.946,2.974 -5.397,5.397 -0.044,0.237 -4.414,23.983 -4.122,46.71 -0.292,22.777 4.078,46.523 4.122,46.761 0.451,2.423 2.974,4.945 5.398,5.398 0.237,0.044 23.982,4.413 46.709,4.121 22.779,0.292 46.524,-4.077 46.761,-4.121 2.423,-0.452 4.946,-2.976 5.398,-5.399 0.044,-0.236 4.413,-23.981 4.121,-46.709 0.292,-22.777 -4.077,-46.523 -4.121,-46.761 -0.453,-2.423 -2.976,-4.946 -5.398,-5.397 -0.238,-0.045 -23.984,-4.414 -46.71,-4.122 z"/></clipPath><clipPath id="clipPath4458-7-5"><path id="use4460-2-5" d="m 69.626,12.145 -0.052,0 c -22.727,-0.292 -46.472,4.077 -46.709,4.122 -2.424,0.451 -4.946,2.974 -5.397,5.397 -0.044,0.237 -4.414,23.983 -4.122,46.71 -0.292,22.777 4.078,46.523 4.122,46.761 0.451,2.423 2.974,4.945 5.398,5.398 0.237,0.044 23.982,4.413 46.709,4.121 22.779,0.292 46.524,-4.077 46.761,-4.121 2.423,-0.452 4.946,-2.976 5.398,-5.399 0.044,-0.236 4.413,-23.981 4.121,-46.709 0.292,-22.777 -4.077,-46.523 -4.121,-46.761 -0.453,-2.423 -2.976,-4.946 -5.398,-5.397 -0.238,-0.045 -23.984,-4.414 -46.71,-4.122 z"/></clipPath><linearGradient id="linearGradient4422"><stop id="stop4424" offset="0" stop-color="#dd52c7" stop-opacity="1"/><stop id="stop4426" offset="1" stop-color="#981fe7" stop-opacity="1"/></linearGradient><linearGradient id="linearGradient4256"><stop id="stop4258" offset="0" stop-color="#8cbdf8" stop-opacity="1"/><stop id="stop4260" offset="1" stop-color="#d5e8ff" stop-opacity="1"/></linearGradient><linearGradient id="linearGradient4232-2"><stop id="stop4234-0" offset="0" stop-color="#3889e9" stop-opacity="1"/><stop id="stop4236-5" offset="1" stop-color="#5ea5fb" stop-opacity="1"/></linearGradient><clipPath id="clipPath4458-34"><path id="use4460-4-99" d="m 69.626,12.145 -0.052,0 c -22.727,-0.292 -46.472,4.077 -46.709,4.122 -2.424,0.451 -4.946,2.974 -5.397,5.397 -0.044,0.237 -4.414,23.983 -4.122,46.71 -0.292,22.777 4.078,46.523 4.122,46.761 0.451,2.423 2.974,4.945 5.398,5.398 0.237,0.044 23.982,4.413 46.709,4.121 22.779,0.292 46.524,-4.077 46.761,-4.121 2.423,-0.452 4.946,-2.976 5.398,-5.399 0.044,-0.236 4.413,-23.981 4.121,-46.709 0.292,-22.777 -4.077,-46.523 -4.121,-46.761 -0.453,-2.423 -2.976,-4.946 -5.398,-5.397 -0.238,-0.045 -23.984,-4.414 -46.71,-4.122 z"/></clipPath><linearGradient id="linearGradient8467-5"><stop id="stop8469-7" offset="0" stop-color="#eaeaea" stop-opacity="1"/><stop id="stop8471-0" offset="1" stop-color="#fcf9f9" stop-opacity="1"/></linearGradient><linearGradient id="linearGradient4232-7"><stop id="stop4234-6" offset="0" stop-color="#373a3d" stop-opacity="1"/><stop id="stop4236-2" offset="1" stop-color="#727273" stop-opacity="1"/></linearGradient><linearGradient id="linearGradient4422-5"><stop id="stop4424-7" offset="0" stop-color="#2971c3" stop-opacity="1"/><stop id="stop4426-6" offset="1" stop-color="#5ea5fb" stop-opacity="1"/></linearGradient><clipPath id="clipPath4458-3"><path id="use4460-7" d="m 69.626,12.145 -0.052,0 c -22.727,-0.292 -46.472,4.077 -46.709,4.122 -2.424,0.451 -4.946,2.974 -5.397,5.397 -0.044,0.237 -4.414,23.983 -4.122,46.71 -0.292,22.777 4.078,46.523 4.122,46.761 0.451,2.423 2.974,4.945 5.398,5.398 0.237,0.044 23.982,4.413 46.709,4.121 22.779,0.292 46.524,-4.077 46.761,-4.121 2.423,-0.452 4.946,-2.976 5.398,-5.399 0.044,-0.236 4.413,-23.981 4.121,-46.709 0.292,-22.777 -4.077,-46.523 -4.121,-46.761 -0.453,-2.423 -2.976,-4.946 -5.398,-5.397 -0.238,-0.045 -23.984,-4.414 -46.71,-4.122 z"/></clipPath><clipPath id="clipPath4458-6"><path id="use4460-3" d="m 69.626,12.145 -0.052,0 c -22.727,-0.292 -46.472,4.077 -46.709,4.122 -2.424,0.451 -4.946,2.974 -5.397,5.397 -0.044,0.237 -4.414,23.983 -4.122,46.71 -0.292,22.777 4.078,46.523 4.122,46.761 0.451,2.423 2.974,4.945 5.398,5.398 0.237,0.044 23.982,4.413 46.709,4.121 22.779,0.292 46.524,-4.077 46.761,-4.121 2.423,-0.452 4.946,-2.976 5.398,-5.399 0.044,-0.236 4.413,-23.981 4.121,-46.709 0.292,-22.777 -4.077,-46.523 -4.121,-46.761 -0.453,-2.423 -2.976,-4.946 -5.398,-5.397 -0.238,-0.045 -23.984,-4.414 -46.71,-4.122 z"/></clipPath><clipPath id="clipPath4458-7-18"><path id="use4460-2-3" fill="url(#linearGradient4580)" fill-opacity="1" d="m 69.626,12.145 -0.052,0 c -22.727,-0.292 -46.472,4.077 -46.709,4.122 -2.424,0.451 -4.946,2.974 -5.397,5.397 -0.044,0.237 -4.414,23.983 -4.122,46.71 -0.292,22.777 4.078,46.523 4.122,46.761 0.451,2.423 2.974,4.945 5.398,5.398 0.237,0.044 23.982,4.413 46.709,4.121 22.779,0.292 46.524,-4.077 46.761,-4.121 2.423,-0.452 4.946,-2.976 5.398,-5.399 0.044,-0.236 4.413,-23.981 4.121,-46.709 0.292,-22.777 -4.077,-46.523 -4.121,-46.761 -0.453,-2.423 -2.976,-4.946 -5.398,-5.397 -0.238,-0.045 -23.984,-4.414 -46.71,-4.122 z"/></clipPath><linearGradient id="linearGradient4580" x1="398.31" x2="409.334" y1="538.997" y2="538.997" gradientUnits="userSpaceOnUse" xlink:href="#linearGradient8467"/><clipPath id="clipPath4458-4-2"><path id="use4460-26-4" d="m 69.626,12.145 -0.052,0 c -22.727,-0.292 -46.472,4.077 -46.709,4.122 -2.424,0.451 -4.946,2.974 -5.397,5.397 -0.044,0.237 -4.414,23.983 -4.122,46.71 -0.292,22.777 4.078,46.523 4.122,46.761 0.451,2.423 2.974,4.945 5.398,5.398 0.237,0.044 23.982,4.413 46.709,4.121 22.779,0.292 46.524,-4.077 46.761,-4.121 2.423,-0.452 4.946,-2.976 5.398,-5.399 0.044,-0.236 4.413,-23.981 4.121,-46.709 0.292,-22.777 -4.077,-46.523 -4.121,-46.761 -0.453,-2.423 -2.976,-4.946 -5.398,-5.397 -0.238,-0.045 -23.984,-4.414 -46.71,-4.122 z"/></clipPath><clipPath id="clipPath4458-7-1-5"><path id="use4460-2-2-8" d="m 69.626,12.145 -0.052,0 c -22.727,-0.292 -46.472,4.077 -46.709,4.122 -2.424,0.451 -4.946,2.974 -5.397,5.397 -0.044,0.237 -4.414,23.983 -4.122,46.71 -0.292,22.777 4.078,46.523 4.122,46.761 0.451,2.423 2.974,4.945 5.398,5.398 0.237,0.044 23.982,4.413 46.709,4.121 22.779,0.292 46.524,-4.077 46.761,-4.121 2.423,-0.452 4.946,-2.976 5.398,-5.399 0.044,-0.236 4.413,-23.981 4.121,-46.709 0.292,-22.777 -4.077,-46.523 -4.121,-46.761 -0.453,-2.423 -2.976,-4.946 -5.398,-5.397 -0.238,-0.045 -23.984,-4.414 -46.71,-4.122 z"/></clipPath><clipPath id="clipPath4458-7-5-6"><path id="use4460-2-5-7" d="m 69.626,12.145 -0.052,0 c -22.727,-0.292 -46.472,4.077 -46.709,4.122 -2.424,0.451 -4.946,2.974 -5.397,5.397 -0.044,0.237 -4.414,23.983 -4.122,46.71 -0.292,22.777 4.078,46.523 4.122,46.761 0.451,2.423 2.974,4.945 5.398,5.398 0.237,0.044 23.982,4.413 46.709,4.121 22.779,0.292 46.524,-4.077 46.761,-4.121 2.423,-0.452 4.946,-2.976 5.398,-5.399 0.044,-0.236 4.413,-23.981 4.121,-46.709 0.292,-22.777 -4.077,-46.523 -4.121,-46.761 -0.453,-2.423 -2.976,-4.946 -5.398,-5.397 -0.238,-0.045 -23.984,-4.414 -46.71,-4.122 z"/></clipPath><linearGradient id="linearGradient4588" x1="400.571" x2="400.571" y1="548.798" y2="543.798" gradientUnits="userSpaceOnUse" xlink:href="#linearGradient4851"/><clipPath id="clipPath4458-34-3"><path id="use4460-4-9" d="m 69.626,12.145 -0.052,0 c -22.727,-0.292 -46.472,4.077 -46.709,4.122 -2.424,0.451 -4.946,2.974 -5.397,5.397 -0.044,0.237 -4.414,23.983 -4.122,46.71 -0.292,22.777 4.078,46.523 4.122,46.761 0.451,2.423 2.974,4.945 5.398,5.398 0.237,0.044 23.982,4.413 46.709,4.121 22.779,0.292 46.524,-4.077 46.761,-4.121 2.423,-0.452 4.946,-2.976 5.398,-5.399 0.044,-0.236 4.413,-23.981 4.121,-46.709 0.292,-22.777 -4.077,-46.523 -4.121,-46.761 -0.453,-2.423 -2.976,-4.946 -5.398,-5.397 -0.238,-0.045 -23.984,-4.414 -46.71,-4.122 z"/></clipPath><clipPath id="clipPath4458-3-8"><path id="use4460-7-3" d="m 69.626,12.145 -0.052,0 c -22.727,-0.292 -46.472,4.077 -46.709,4.122 -2.424,0.451 -4.946,2.974 -5.397,5.397 -0.044,0.237 -4.414,23.983 -4.122,46.71 -0.292,22.777 4.078,46.523 4.122,46.761 0.451,2.423 2.974,4.945 5.398,5.398 0.237,0.044 23.982,4.413 46.709,4.121 22.779,0.292 46.524,-4.077 46.761,-4.121 2.423,-0.452 4.946,-2.976 5.398,-5.399 0.044,-0.236 4.413,-23.981 4.121,-46.709 0.292,-22.777 -4.077,-46.523 -4.121,-46.761 -0.453,-2.423 -2.976,-4.946 -5.398,-5.397 -0.238,-0.045 -23.984,-4.414 -46.71,-4.122 z"/></clipPath><clipPath id="clipPath4458-8"><path id="use4460-9" d="m 69.626,12.145 -0.052,0 c -22.727,-0.292 -46.472,4.077 -46.709,4.122 -2.424,0.451 -4.946,2.974 -5.397,5.397 -0.044,0.237 -4.414,23.983 -4.122,46.71 -0.292,22.777 4.078,46.523 4.122,46.761 0.451,2.423 2.974,4.945 5.398,5.398 0.237,0.044 23.982,4.413 46.709,4.121 22.779,0.292 46.524,-4.077 46.761,-4.121 2.423,-0.452 4.946,-2.976 5.398,-5.399 0.044,-0.236 4.413,-23.981 4.121,-46.709 0.292,-22.777 -4.077,-46.523 -4.121,-46.761 -0.453,-2.423 -2.976,-4.946 -5.398,-5.397 -0.238,-0.045 -23.984,-4.414 -46.71,-4.122 z"/></clipPath><linearGradient id="linearGradient4227"><stop id="stop4229" offset="0" stop-color="#2e3436" stop-opacity="1"/><stop id="stop4231" offset="1" stop-color="#555753" stop-opacity="1"/></linearGradient><clipPath id="clipPath4458-73"><path id="use4460-0" d="m 69.626,12.145 -0.052,0 c -22.727,-0.292 -46.472,4.077 -46.709,4.122 -2.424,0.451 -4.946,2.974 -5.397,5.397 -0.044,0.237 -4.414,23.983 -4.122,46.71 -0.292,22.777 4.078,46.523 4.122,46.761 0.451,2.423 2.974,4.945 5.398,5.398 0.237,0.044 23.982,4.413 46.709,4.121 22.779,0.292 46.524,-4.077 46.761,-4.121 2.423,-0.452 4.946,-2.976 5.398,-5.399 0.044,-0.236 4.413,-23.981 4.121,-46.709 0.292,-22.777 -4.077,-46.523 -4.121,-46.761 -0.453,-2.423 -2.976,-4.946 -5.398,-5.397 -0.238,-0.045 -23.984,-4.414 -46.71,-4.122 z"/></clipPath><clipPath id="clipPath4458-7-50"><path id="use4460-2-24" d="m 69.626,12.145 -0.052,0 c -22.727,-0.292 -46.472,4.077 -46.709,4.122 -2.424,0.451 -4.946,2.974 -5.397,5.397 -0.044,0.237 -4.414,23.983 -4.122,46.71 -0.292,22.777 4.078,46.523 4.122,46.761 0.451,2.423 2.974,4.945 5.398,5.398 0.237,0.044 23.982,4.413 46.709,4.121 22.779,0.292 46.524,-4.077 46.761,-4.121 2.423,-0.452 4.946,-2.976 5.398,-5.399 0.044,-0.236 4.413,-23.981 4.121,-46.709 0.292,-22.777 -4.077,-46.523 -4.121,-46.761 -0.453,-2.423 -2.976,-4.946 -5.398,-5.397 -0.238,-0.045 -23.984,-4.414 -46.71,-4.122 z"/></clipPath><clipPath id="clipPath4458-7-5-5"><path id="use4460-2-5-75" d="m 69.626,12.145 -0.052,0 c -22.727,-0.292 -46.472,4.077 -46.709,4.122 -2.424,0.451 -4.946,2.974 -5.397,5.397 -0.044,0.237 -4.414,23.983 -4.122,46.71 -0.292,22.777 4.078,46.523 4.122,46.761 0.451,2.423 2.974,4.945 5.398,5.398 0.237,0.044 23.982,4.413 46.709,4.121 22.779,0.292 46.524,-4.077 46.761,-4.121 2.423,-0.452 4.946,-2.976 5.398,-5.399 0.044,-0.236 4.413,-23.981 4.121,-46.709 0.292,-22.777 -4.077,-46.523 -4.121,-46.761 -0.453,-2.423 -2.976,-4.946 -5.398,-5.397 -0.238,-0.045 -23.984,-4.414 -46.71,-4.122 z"/></clipPath><style id="current-color-scheme" type="text/css"/><style id="current-color-scheme-8" type="text/css"/><style id="current-color-scheme-7" type="text/css"/><style id="current-color-scheme-0" type="text/css"/><style id="current-color-scheme-8-6" type="text/css"/><style id="current-color-scheme-7-6" type="text/css"/><style id="current-color-scheme-4" type="text/css"/><style id="current-color-scheme-8-0" type="text/css"/><style id="current-color-scheme-7-7" type="text/css"/><linearGradient id="linearGradient4261" x1="399.571" x2="399.571" y1="545.798" y2="517.798" gradientUnits="userSpaceOnUse" xlink:href="#linearGradient4232-2"/><style id="current-color-scheme-86" type="text/css"/><style id="current-color-scheme-8-3" type="text/css"/><style id="current-color-scheme-7-2" type="text/css"/><style id="current-color-scheme-5" type="text/css"/><style id="current-color-scheme-8-2" type="text/css"/><style id="current-color-scheme-7-4" type="text/css"/><radialGradient id="radialGradient3082-1" cx="25.641" cy="3.684" r="17.995" fx="25.641" fy="3.684" gradientTransform="matrix(-0.09909444,0.5637063,-0.25300901,-0.04447686,405.8275,514.36395)" gradientUnits="userSpaceOnUse" xlink:href="#linearGradient3052"/><clipPath id="clipPath4458-1"><path id="use4460-8" d="m 69.626,12.145 -0.052,0 c -22.727,-0.292 -46.472,4.077 -46.709,4.122 -2.424,0.451 -4.946,2.974 -5.397,5.397 -0.044,0.237 -4.414,23.983 -4.122,46.71 -0.292,22.777 4.078,46.523 4.122,46.761 0.451,2.423 2.974,4.945 5.398,5.398 0.237,0.044 23.982,4.413 46.709,4.121 22.779,0.292 46.524,-4.077 46.761,-4.121 2.423,-0.452 4.946,-2.976 5.398,-5.399 0.044,-0.236 4.413,-23.981 4.121,-46.709 0.292,-22.777 -4.077,-46.523 -4.121,-46.761 -0.453,-2.423 -2.976,-4.946 -5.398,-5.397 -0.238,-0.045 -23.984,-4.414 -46.71,-4.122 z"/></clipPath><linearGradient id="linearGradient4210-35"><stop id="stop4212-3" offset="0" stop-color="#ff584c" stop-opacity="1"/><stop id="stop4214-0" offset="1" stop-color="#ff8077" stop-opacity="1"/></linearGradient><clipPath id="clipPath4458-0-4"><path id="use4460-4-3" d="m 69.626,12.145 -0.052,0 c -22.727,-0.292 -46.472,4.077 -46.709,4.122 -2.424,0.451 -4.946,2.974 -5.397,5.397 -0.044,0.237 -4.414,23.983 -4.122,46.71 -0.292,22.777 4.078,46.523 4.122,46.761 0.451,2.423 2.974,4.945 5.398,5.398 0.237,0.044 23.982,4.413 46.709,4.121 22.779,0.292 46.524,-4.077 46.761,-4.121 2.423,-0.452 4.946,-2.976 5.398,-5.399 0.044,-0.236 4.413,-23.981 4.121,-46.709 0.292,-22.777 -4.077,-46.523 -4.121,-46.761 -0.453,-2.423 -2.976,-4.946 -5.398,-5.397 -0.238,-0.045 -23.984,-4.414 -46.71,-4.122 z"/></clipPath><clipPath id="clipPath4458-48-8"><path id="use4460-97-1" d="m 69.626,12.145 -0.052,0 c -22.727,-0.292 -46.472,4.077 -46.709,4.122 -2.424,0.451 -4.946,2.974 -5.397,5.397 -0.044,0.237 -4.414,23.983 -4.122,46.71 -0.292,22.777 4.078,46.523 4.122,46.761 0.451,2.423 2.974,4.945 5.398,5.398 0.237,0.044 23.982,4.413 46.709,4.121 22.779,0.292 46.524,-4.077 46.761,-4.121 2.423,-0.452 4.946,-2.976 5.398,-5.399 0.044,-0.236 4.413,-23.981 4.121,-46.709 0.292,-22.777 -4.077,-46.523 -4.121,-46.761 -0.453,-2.423 -2.976,-4.946 -5.398,-5.397 -0.238,-0.045 -23.984,-4.414 -46.71,-4.122 z"/></clipPath><clipPath id="clipPath4458-7-2"><path id="use4460-2-9" fill="url(#linearGradient4580)" fill-opacity="1" d="m 69.626,12.145 -0.052,0 c -22.727,-0.292 -46.472,4.077 -46.709,4.122 -2.424,0.451 -4.946,2.974 -5.397,5.397 -0.044,0.237 -4.414,23.983 -4.122,46.71 -0.292,22.777 4.078,46.523 4.122,46.761 0.451,2.423 2.974,4.945 5.398,5.398 0.237,0.044 23.982,4.413 46.709,4.121 22.779,0.292 46.524,-4.077 46.761,-4.121 2.423,-0.452 4.946,-2.976 5.398,-5.399 0.044,-0.236 4.413,-23.981 4.121,-46.709 0.292,-22.777 -4.077,-46.523 -4.121,-46.761 -0.453,-2.423 -2.976,-4.946 -5.398,-5.397 -0.238,-0.045 -23.984,-4.414 -46.71,-4.122 z"/></clipPath><clipPath id="clipPath4458-4-5"><path id="use4460-26-2" d="m 69.626,12.145 -0.052,0 c -22.727,-0.292 -46.472,4.077 -46.709,4.122 -2.424,0.451 -4.946,2.974 -5.397,5.397 -0.044,0.237 -4.414,23.983 -4.122,46.71 -0.292,22.777 4.078,46.523 4.122,46.761 0.451,2.423 2.974,4.945 5.398,5.398 0.237,0.044 23.982,4.413 46.709,4.121 22.779,0.292 46.524,-4.077 46.761,-4.121 2.423,-0.452 4.946,-2.976 5.398,-5.399 0.044,-0.236 4.413,-23.981 4.121,-46.709 0.292,-22.777 -4.077,-46.523 -4.121,-46.761 -0.453,-2.423 -2.976,-4.946 -5.398,-5.397 -0.238,-0.045 -23.984,-4.414 -46.71,-4.122 z"/></clipPath><clipPath id="clipPath4458-7-1-4"><path id="use4460-2-2-7" d="m 69.626,12.145 -0.052,0 c -22.727,-0.292 -46.472,4.077 -46.709,4.122 -2.424,0.451 -4.946,2.974 -5.397,5.397 -0.044,0.237 -4.414,23.983 -4.122,46.71 -0.292,22.777 4.078,46.523 4.122,46.761 0.451,2.423 2.974,4.945 5.398,5.398 0.237,0.044 23.982,4.413 46.709,4.121 22.779,0.292 46.524,-4.077 46.761,-4.121 2.423,-0.452 4.946,-2.976 5.398,-5.399 0.044,-0.236 4.413,-23.981 4.121,-46.709 0.292,-22.777 -4.077,-46.523 -4.121,-46.761 -0.453,-2.423 -2.976,-4.946 -5.398,-5.397 -0.238,-0.045 -23.984,-4.414 -46.71,-4.122 z"/></clipPath><clipPath id="clipPath4458-7-5-3"><path id="use4460-2-5-9" d="m 69.626,12.145 -0.052,0 c -22.727,-0.292 -46.472,4.077 -46.709,4.122 -2.424,0.451 -4.946,2.974 -5.397,5.397 -0.044,0.237 -4.414,23.983 -4.122,46.71 -0.292,22.777 4.078,46.523 4.122,46.761 0.451,2.423 2.974,4.945 5.398,5.398 0.237,0.044 23.982,4.413 46.709,4.121 22.779,0.292 46.524,-4.077 46.761,-4.121 2.423,-0.452 4.946,-2.976 5.398,-5.399 0.044,-0.236 4.413,-23.981 4.121,-46.709 0.292,-22.777 -4.077,-46.523 -4.121,-46.761 -0.453,-2.423 -2.976,-4.946 -5.398,-5.397 -0.238,-0.045 -23.984,-4.414 -46.71,-4.122 z"/></clipPath><clipPath id="clipPath4458-34-0"><path id="use4460-4-99-2" d="m 69.626,12.145 -0.052,0 c -22.727,-0.292 -46.472,4.077 -46.709,4.122 -2.424,0.451 -4.946,2.974 -5.397,5.397 -0.044,0.237 -4.414,23.983 -4.122,46.71 -0.292,22.777 4.078,46.523 4.122,46.761 0.451,2.423 2.974,4.945 5.398,5.398 0.237,0.044 23.982,4.413 46.709,4.121 22.779,0.292 46.524,-4.077 46.761,-4.121 2.423,-0.452 4.946,-2.976 5.398,-5.399 0.044,-0.236 4.413,-23.981 4.121,-46.709 0.292,-22.777 -4.077,-46.523 -4.121,-46.761 -0.453,-2.423 -2.976,-4.946 -5.398,-5.397 -0.238,-0.045 -23.984,-4.414 -46.71,-4.122 z"/></clipPath><linearGradient id="linearGradient8467-5-4"><stop id="stop8469-7-2" offset="0" stop-color="#d3d3d3" stop-opacity="1"/><stop id="stop8471-0-2" offset="1" stop-color="#fcf9f9" stop-opacity="1"/></linearGradient><clipPath id="clipPath4458-3-84"><path id="use4460-7-7" d="m 69.626,12.145 -0.052,0 c -22.727,-0.292 -46.472,4.077 -46.709,4.122 -2.424,0.451 -4.946,2.974 -5.397,5.397 -0.044,0.237 -4.414,23.983 -4.122,46.71 -0.292,22.777 4.078,46.523 4.122,46.761 0.451,2.423 2.974,4.945 5.398,5.398 0.237,0.044 23.982,4.413 46.709,4.121 22.779,0.292 46.524,-4.077 46.761,-4.121 2.423,-0.452 4.946,-2.976 5.398,-5.399 0.044,-0.236 4.413,-23.981 4.121,-46.709 0.292,-22.777 -4.077,-46.523 -4.121,-46.761 -0.453,-2.423 -2.976,-4.946 -5.398,-5.397 -0.238,-0.045 -23.984,-4.414 -46.71,-4.122 z"/></clipPath><clipPath id="clipPath4458-6-3"><path id="use4460-3-5" d="m 69.626,12.145 -0.052,0 c -22.727,-0.292 -46.472,4.077 -46.709,4.122 -2.424,0.451 -4.946,2.974 -5.397,5.397 -0.044,0.237 -4.414,23.983 -4.122,46.71 -0.292,22.777 4.078,46.523 4.122,46.761 0.451,2.423 2.974,4.945 5.398,5.398 0.237,0.044 23.982,4.413 46.709,4.121 22.779,0.292 46.524,-4.077 46.761,-4.121 2.423,-0.452 4.946,-2.976 5.398,-5.399 0.044,-0.236 4.413,-23.981 4.121,-46.709 0.292,-22.777 -4.077,-46.523 -4.121,-46.761 -0.453,-2.423 -2.976,-4.946 -5.398,-5.397 -0.238,-0.045 -23.984,-4.414 -46.71,-4.122 z"/></clipPath><clipPath id="clipPath4458-7-18-8"><path id="use4460-2-3-5" fill="url(#linearGradient4580)" fill-opacity="1" d="m 69.626,12.145 -0.052,0 c -22.727,-0.292 -46.472,4.077 -46.709,4.122 -2.424,0.451 -4.946,2.974 -5.397,5.397 -0.044,0.237 -4.414,23.983 -4.122,46.71 -0.292,22.777 4.078,46.523 4.122,46.761 0.451,2.423 2.974,4.945 5.398,5.398 0.237,0.044 23.982,4.413 46.709,4.121 22.779,0.292 46.524,-4.077 46.761,-4.121 2.423,-0.452 4.946,-2.976 5.398,-5.399 0.044,-0.236 4.413,-23.981 4.121,-46.709 0.292,-22.777 -4.077,-46.523 -4.121,-46.761 -0.453,-2.423 -2.976,-4.946 -5.398,-5.397 -0.238,-0.045 -23.984,-4.414 -46.71,-4.122 z"/></clipPath><clipPath id="clipPath4458-4-2-4"><path id="use4460-26-4-4" d="m 69.626,12.145 -0.052,0 c -22.727,-0.292 -46.472,4.077 -46.709,4.122 -2.424,0.451 -4.946,2.974 -5.397,5.397 -0.044,0.237 -4.414,23.983 -4.122,46.71 -0.292,22.777 4.078,46.523 4.122,46.761 0.451,2.423 2.974,4.945 5.398,5.398 0.237,0.044 23.982,4.413 46.709,4.121 22.779,0.292 46.524,-4.077 46.761,-4.121 2.423,-0.452 4.946,-2.976 5.398,-5.399 0.044,-0.236 4.413,-23.981 4.121,-46.709 0.292,-22.777 -4.077,-46.523 -4.121,-46.761 -0.453,-2.423 -2.976,-4.946 -5.398,-5.397 -0.238,-0.045 -23.984,-4.414 -46.71,-4.122 z"/></clipPath><clipPath id="clipPath4458-7-1-5-7"><path id="use4460-2-2-8-2" d="m 69.626,12.145 -0.052,0 c -22.727,-0.292 -46.472,4.077 -46.709,4.122 -2.424,0.451 -4.946,2.974 -5.397,5.397 -0.044,0.237 -4.414,23.983 -4.122,46.71 -0.292,22.777 4.078,46.523 4.122,46.761 0.451,2.423 2.974,4.945 5.398,5.398 0.237,0.044 23.982,4.413 46.709,4.121 22.779,0.292 46.524,-4.077 46.761,-4.121 2.423,-0.452 4.946,-2.976 5.398,-5.399 0.044,-0.236 4.413,-23.981 4.121,-46.709 0.292,-22.777 -4.077,-46.523 -4.121,-46.761 -0.453,-2.423 -2.976,-4.946 -5.398,-5.397 -0.238,-0.045 -23.984,-4.414 -46.71,-4.122 z"/></clipPath><clipPath id="clipPath4458-7-5-6-9"><path id="use4460-2-5-7-2" d="m 69.626,12.145 -0.052,0 c -22.727,-0.292 -46.472,4.077 -46.709,4.122 -2.424,0.451 -4.946,2.974 -5.397,5.397 -0.044,0.237 -4.414,23.983 -4.122,46.71 -0.292,22.777 4.078,46.523 4.122,46.761 0.451,2.423 2.974,4.945 5.398,5.398 0.237,0.044 23.982,4.413 46.709,4.121 22.779,0.292 46.524,-4.077 46.761,-4.121 2.423,-0.452 4.946,-2.976 5.398,-5.399 0.044,-0.236 4.413,-23.981 4.121,-46.709 0.292,-22.777 -4.077,-46.523 -4.121,-46.761 -0.453,-2.423 -2.976,-4.946 -5.398,-5.397 -0.238,-0.045 -23.984,-4.414 -46.71,-4.122 z"/></clipPath><clipPath id="clipPath4458-34-3-9"><path id="use4460-4-9-4" d="m 69.626,12.145 -0.052,0 c -22.727,-0.292 -46.472,4.077 -46.709,4.122 -2.424,0.451 -4.946,2.974 -5.397,5.397 -0.044,0.237 -4.414,23.983 -4.122,46.71 -0.292,22.777 4.078,46.523 4.122,46.761 0.451,2.423 2.974,4.945 5.398,5.398 0.237,0.044 23.982,4.413 46.709,4.121 22.779,0.292 46.524,-4.077 46.761,-4.121 2.423,-0.452 4.946,-2.976 5.398,-5.399 0.044,-0.236 4.413,-23.981 4.121,-46.709 0.292,-22.777 -4.077,-46.523 -4.121,-46.761 -0.453,-2.423 -2.976,-4.946 -5.398,-5.397 -0.238,-0.045 -23.984,-4.414 -46.71,-4.122 z"/></clipPath><clipPath id="clipPath4458-3-8-3"><path id="use4460-7-3-8" d="m 69.626,12.145 -0.052,0 c -22.727,-0.292 -46.472,4.077 -46.709,4.122 -2.424,0.451 -4.946,2.974 -5.397,5.397 -0.044,0.237 -4.414,23.983 -4.122,46.71 -0.292,22.777 4.078,46.523 4.122,46.761 0.451,2.423 2.974,4.945 5.398,5.398 0.237,0.044 23.982,4.413 46.709,4.121 22.779,0.292 46.524,-4.077 46.761,-4.121 2.423,-0.452 4.946,-2.976 5.398,-5.399 0.044,-0.236 4.413,-23.981 4.121,-46.709 0.292,-22.777 -4.077,-46.523 -4.121,-46.761 -0.453,-2.423 -2.976,-4.946 -5.398,-5.397 -0.238,-0.045 -23.984,-4.414 -46.71,-4.122 z"/></clipPath><clipPath id="clipPath4458-8-8"><path id="use4460-9-1" d="m 69.626,12.145 -0.052,0 c -22.727,-0.292 -46.472,4.077 -46.709,4.122 -2.424,0.451 -4.946,2.974 -5.397,5.397 -0.044,0.237 -4.414,23.983 -4.122,46.71 -0.292,22.777 4.078,46.523 4.122,46.761 0.451,2.423 2.974,4.945 5.398,5.398 0.237,0.044 23.982,4.413 46.709,4.121 22.779,0.292 46.524,-4.077 46.761,-4.121 2.423,-0.452 4.946,-2.976 5.398,-5.399 0.044,-0.236 4.413,-23.981 4.121,-46.709 0.292,-22.777 -4.077,-46.523 -4.121,-46.761 -0.453,-2.423 -2.976,-4.946 -5.398,-5.397 -0.238,-0.045 -23.984,-4.414 -46.71,-4.122 z"/></clipPath><clipPath id="clipPath4458-73-4"><path id="use4460-0-3" d="m 69.626,12.145 -0.052,0 c -22.727,-0.292 -46.472,4.077 -46.709,4.122 -2.424,0.451 -4.946,2.974 -5.397,5.397 -0.044,0.237 -4.414,23.983 -4.122,46.71 -0.292,22.777 4.078,46.523 4.122,46.761 0.451,2.423 2.974,4.945 5.398,5.398 0.237,0.044 23.982,4.413 46.709,4.121 22.779,0.292 46.524,-4.077 46.761,-4.121 2.423,-0.452 4.946,-2.976 5.398,-5.399 0.044,-0.236 4.413,-23.981 4.121,-46.709 0.292,-22.777 -4.077,-46.523 -4.121,-46.761 -0.453,-2.423 -2.976,-4.946 -5.398,-5.397 -0.238,-0.045 -23.984,-4.414 -46.71,-4.122 z"/></clipPath><clipPath id="clipPath4458-7-50-2"><path id="use4460-2-24-8" d="m 69.626,12.145 -0.052,0 c -22.727,-0.292 -46.472,4.077 -46.709,4.122 -2.424,0.451 -4.946,2.974 -5.397,5.397 -0.044,0.237 -4.414,23.983 -4.122,46.71 -0.292,22.777 4.078,46.523 4.122,46.761 0.451,2.423 2.974,4.945 5.398,5.398 0.237,0.044 23.982,4.413 46.709,4.121 22.779,0.292 46.524,-4.077 46.761,-4.121 2.423,-0.452 4.946,-2.976 5.398,-5.399 0.044,-0.236 4.413,-23.981 4.121,-46.709 0.292,-22.777 -4.077,-46.523 -4.121,-46.761 -0.453,-2.423 -2.976,-4.946 -5.398,-5.397 -0.238,-0.045 -23.984,-4.414 -46.71,-4.122 z"/></clipPath><clipPath id="clipPath4458-7-5-5-7"><path id="use4460-2-5-75-5" d="m 69.626,12.145 -0.052,0 c -22.727,-0.292 -46.472,4.077 -46.709,4.122 -2.424,0.451 -4.946,2.974 -5.397,5.397 -0.044,0.237 -4.414,23.983 -4.122,46.71 -0.292,22.777 4.078,46.523 4.122,46.761 0.451,2.423 2.974,4.945 5.398,5.398 0.237,0.044 23.982,4.413 46.709,4.121 22.779,0.292 46.524,-4.077 46.761,-4.121 2.423,-0.452 4.946,-2.976 5.398,-5.399 0.044,-0.236 4.413,-23.981 4.121,-46.709 0.292,-22.777 -4.077,-46.523 -4.121,-46.761 -0.453,-2.423 -2.976,-4.946 -5.398,-5.397 -0.238,-0.045 -23.984,-4.414 -46.71,-4.122 z"/></clipPath><linearGradient id="linearGradient3764-0" x1="1" x2="47" gradientTransform="matrix(0,-1,1,0,-1.5e-6,47.999998)" gradientUnits="userSpaceOnUse"><stop id="stop4650" stop-color="#8e3456" stop-opacity="1"/><stop id="stop4652" offset="1" stop-color="#9c3a5f" stop-opacity="1"/></linearGradient><clipPath id="clipPath-775351855"><g id="g4655" transform="translate(0,-1004.3622)"><path id="path4657" fill="#1890d0" d="m -24 13 c 0 1.105 -0.672 2 -1.5 2 -0.828 0 -1.5 -0.895 -1.5 -2 0 -1.105 0.672 -2 1.5 -2 0.828 0 1.5 0.895 1.5 2 z" transform="matrix(15.333333,0,0,11.5,414.99999,878.8622)"/></g></clipPath><clipPath id="clipPath-784645582"><g id="g4660" transform="translate(0,-1004.3622)"><path id="path4662" fill="#1890d0" d="m -24 13 c 0 1.105 -0.672 2 -1.5 2 -0.828 0 -1.5 -0.895 -1.5 -2 0 -1.105 0.672 -2 1.5 -2 0.828 0 1.5 0.895 1.5 2 z" transform="matrix(15.333333,0,0,11.5,414.99999,878.8622)"/></g></clipPath></defs><metadata id="metadata5458"/><g id="layer1" transform="translate(-384.57143,-499.798)"><g id="g4158" transform="matrix(1.5106785,0,0,1.5106785,-196.56322,-279.5778)"><g id="layer1-2"><g id="layer1-49"><g id="layer1-37" transform="translate(0.01805765,0.00238029)"><g id="g4447" transform="matrix(0.65762761,0,0,0.65762761,163.45346,180.49688)"><g id="layer1-6" transform="translate(-48.123492,9.4954666)"><g id="g4403" transform="translate(51.385479,-6.0099446)"><rect id="rect4195" width="46.303" height="34.939" x="385.65" y="507.78" fill="url(#linearGradient4222)" fill-opacity="1" stroke="none" stroke-dasharray="none" stroke-linecap="round" stroke-linejoin="round" stroke-miterlimit="4" stroke-opacity="1" stroke-width=".2" opacity="1" ry="1.644" transform="translate(-51.52544,5.45582)"/></g></g></g></g></g></g></g><g id="layer1-42" transform="translate(-67.249998,-0.25000109)"><g id="layer1-4-4" transform="translate(392.24401,-502.51656)"><g id="g4413" stroke-dasharray="none" stroke-miterlimit="4" stroke-width="1.317" transform="matrix(1.138587,0,0,1.138587,-3.4562036,-142.80276)"><g id="g4312" transform="matrix(0.72458209,0,0,0.72458209,63.866629,283.00351)"><g id="layer1-0" transform="matrix(0.83333358,0,0,0.83333358,-408.28112,587.90224)"><g id="Settings" fill="#fff" fill-opacity=".847" transform="matrix(0.11906321,0,0,0.11906321,494.7604,510.72581)"><g id="g4" fill="#fff" fill-opacity=".847"><path id="path6" fill="#fff" fill-opacity=".847" fill-rule="evenodd" d="m 267.92,119.461 c -0.425,-3.778 -4.83,-6.617 -8.639,-6.617 -12.315,0 -23.243,-7.231 -27.826,-18.414 -4.682,-11.454 -1.663,-24.812 7.515,-33.231 2.889,-2.641 3.24,-7.062 0.817,-10.133 -6.303,-8.004 -13.467,-15.234 -21.289,-21.5 -3.063,-2.458 -7.557,-2.116 -10.213,0.825 -8.01,8.871 -22.398,12.168 -33.516,7.529 -11.57,-4.867 -18.866,-16.591 -18.152,-29.176 0.235,-3.953 -2.654,-7.39 -6.595,-7.849 -10.038,-1.161 -20.164,-1.197 -30.232,-0.08 -3.896,0.43 -6.785,3.786 -6.654,7.689 0.438,12.461 -6.946,23.98 -18.401,28.672 -10.985,4.487 -25.272,1.218 -33.266,-7.574 -2.642,-2.896 -7.063,-3.252 -10.141,-0.853 -8.054,6.319 -15.379,13.555 -21.74,21.493 -2.481,3.086 -2.116,7.559 0.802,10.214 9.353,8.47 12.373,21.944 7.514,33.53 -4.639,11.046 -16.109,18.165 -29.24,18.165 -4.261,-0.137 -7.296,2.723 -7.762,6.597 -1.182,10.096 -1.196,20.383 -0.058,30.561 0.422,3.794 4.961,6.608 8.812,6.608 11.702,-0.299 22.937,6.946 27.65,18.415 4.698,11.454 1.678,24.804 -7.514,33.23 -2.875,2.641 -3.24,7.055 -0.817,10.126 6.244,7.953 13.409,15.19 21.259,21.508 3.079,2.481 7.559,2.131 10.228,-0.81 8.04,-8.893 22.427,-12.184 33.501,-7.536 11.599,4.852 18.895,16.575 18.181,29.167 -0.233,3.955 2.67,7.398 6.595,7.85 5.135,0.599 10.301,0.898 15.481,0.898 4.917,0 9.835,-0.27 14.752,-0.817 3.897,-0.43 6.784,-3.786 6.653,-7.696 -0.451,-12.454 6.946,-23.973 18.386,-28.657 11.059,-4.517 25.286,-1.211 33.281,7.572 2.657,2.89 7.047,3.239 10.142,0.848 8.039,-6.304 15.349,-13.534 21.74,-21.494 2.48,-3.079 2.13,-7.559 -0.803,-10.213 -9.353,-8.47 -12.388,-21.946 -7.529,-33.524 4.568,-10.899 15.612,-18.217 27.491,-18.217 l 1.662,0.043 c 3.853,0.313 7.398,-2.655 7.865,-6.588 1.184,-10.105 1.198,-20.383 0.06,-30.561 z m -133.325,60.03 c -24.718,0 -44.824,-20.106 -44.824,-44.824 0,-24.717 20.106,-44.824 44.824,-44.824 24.717,0 44.823,20.107 44.823,44.824 0,24.718 -20.106,44.824 -44.823,44.824 z" clip-rule="evenodd"/></g></g></g></g></g></g></g></g></svg>