<svg xmlns="http://www.w3.org/2000/svg" xmlns:svg="http://www.w3.org/2000/svg" xmlns:xlink="http://www.w3.org/1999/xlink" id="svg5453" width="48" height="48" version="1.1"><defs id="defs5455"><linearGradient id="linearGradient4177"><stop id="stop4179" offset="0" stop-color="#2a2c2f" stop-opacity="1"/><stop id="stop4181" offset="1" stop-color="#5e6468" stop-opacity="1"/></linearGradient><linearGradient id="linearGradient4274"><stop id="stop4276" offset="0" stop-color="#ee643a" stop-opacity="1"/><stop id="stop4278" offset="1" stop-color="#fe9473" stop-opacity="1"/></linearGradient><linearGradient id="linearGradient4189" x1="409.571" x2="409.571" y1="540.798" y2="506.798" gradientTransform="matrix(1.1764708,0,0,1.1764708,-72.100932,-92.435052)" gradientUnits="userSpaceOnUse" xlink:href="#linearGradient4177"/><linearGradient id="linearGradient4190" x1="412.571" x2="412.571" y1="543.798" y2="503.798" gradientUnits="userSpaceOnUse" xlink:href="#linearGradient4274"/><linearGradient id="linearGradient4618" x1="444.385" x2="443.651" y1="538.057" y2="511.85" gradientTransform="translate(45.871533,-3.599724)" gradientUnits="userSpaceOnUse" xlink:href="#linearGradient4274"/></defs><metadata id="metadata5458"/><g id="layer1" transform="translate(-384.57143,-499.798)"><g id="g4172" transform="matrix(1.1566277,0,0,1.1566277,-63.943627,-81.991257)"><rect id="rect4146" width="40" height="40" x="388.571" y="503.798" fill="url(#linearGradient4189)" fill-opacity="1" stroke="url(#linearGradient4190)" stroke-dasharray="none" stroke-miterlimit="4" stroke-width="1.5" opacity="1" ry="20"/><path id="path4463" fill="#4c5053" fill-opacity=".198" stroke="none" d="m 425.02591,514.298 c -0.56048,-0.97078 -1.2067,-1.85668 -1.90084,-2.6869 l -7.68484,6.38089 c 0.33872,0.40258 0.65281,0.83382 0.92543,1.30601 0.27262,0.47219 0.48904,0.95982 0.66832,1.45444 l 9.36843,-3.46481 c -0.37191,-1.01625 -0.81602,-2.01884 -1.3765,-2.98963 z"/><g id="layer1-6" fill="none" fill-opacity="1" transform="matrix(0.86458244,0,0,0.86458244,57.912193,64.881325)"><g id="layer1-4" fill="none" fill-opacity="1" transform="translate(392.24401,-502.51656)"><g id="g4413" fill="none" fill-opacity="1" stroke-dasharray="none" stroke-miterlimit="4" stroke-width="1.317" transform="matrix(1.138587,0,0,1.138587,-3.4562036,-142.80276)"><g id="g4325" fill="none" fill-opacity="1" transform="matrix(1.0203324,0,0,1.0203324,-0.28478646,-20.859612)"><g id="g4436" fill="none" fill-opacity="1" transform="matrix(0.06299069,0,0,0.06299069,6.458529,1015.677)"><g id="g4396" fill="none" fill-opacity="1"><path id="path4398" fill="none" fill-opacity="1" d="M 305.685,56.082 C 284.044,23.973 245.218,5.336 190.377,0.699 L 190.286,0.691 C 186.243,0.232 182.36,0 178.746,0 151.098,0 141.287,13.84 141.287,25.691 l 0,206.27 -0.001,0 c -10.874,-3.277 -22.538,-4.223 -34.057,-2.768 -20.073,2.533 -38.057,11.957 -50.637,26.537 -12.581,14.58 -18.252,32.57 -15.969,50.656 4.237,33.576 35.66,58.895 73.096,58.895 3.515,0 7.08,-0.225 10.599,-0.668 38.805,-4.898 66.969,-35.676 66.969,-73.18 l 0,-202.396 c 2.913,-0.195 5.831,-0.293 8.677,-0.293 34.213,0 65.668,14.313 90.966,41.389 10.428,11.162 17.748,22.262 22.054,29.609 1.058,1.803 3.12,2.764 5.186,2.396 2.058,-0.365 3.673,-1.971 4.047,-4.027 4.149,-22.786 7.522,-66.341 -16.532,-102.029 z"/></g></g></g></g></g></g><g id="layer1-40" transform="matrix(0.90563453,0,0,0.90563453,-38.491081,50.479373)"><path id="path4398-5-4" fill="url(#linearGradient4618)" fill-opacity="1" fill-rule="evenodd" stroke-dasharray="none" stroke-miterlimit="4" stroke-width="1.317" d="m 502.60237,513.32847 c -1.58365,-2.3497 -4.42489,-3.71353 -8.43808,-4.05286 l -0.007,-5.8e-4 c -0.29582,-0.0336 -0.57997,-0.0506 -0.84444,-0.0506 -2.02324,0 -2.7412,1.01279 -2.7412,1.88003 l 0,15.09456 -7e-5,0 c -0.79574,-0.23981 -1.6493,-0.30903 -2.49224,-0.20256 -1.46892,0.18536 -2.78496,0.875 -3.70555,1.94194 -0.92066,1.06695 -1.33566,2.38343 -1.16859,3.70694 0.31006,2.45705 2.60955,4.30986 5.34907,4.30986 0.25722,0 0.5181,-0.0165 0.77562,-0.0489 2.83969,-0.35843 4.9007,-2.61073 4.9007,-5.35522 l 0,-14.81106 c 0.21317,-0.0143 0.4267,-0.0214 0.63497,-0.0214 2.50366,0 4.80549,1.04741 6.65676,3.02879 0.76311,0.81682 1.29878,1.6291 1.61389,2.16675 0.0774,0.13194 0.22831,0.20226 0.3795,0.17533 0.1506,-0.0267 0.26879,-0.14423 0.29615,-0.29469 0.30362,-1.66745 0.55045,-4.85474 -1.20979,-7.46634 z"/></g></g></g></svg>