<svg xmlns="http://www.w3.org/2000/svg" xmlns:svg="http://www.w3.org/2000/svg" xmlns:xlink="http://www.w3.org/1999/xlink" id="svg5453" width="48" height="48" version="1.1" viewBox="0 0 48 48"><defs id="defs5455"><linearGradient id="linearGradient4787"><stop id="stop4789" offset="0" stop-color="#ff433a" stop-opacity="1"/><stop id="stop4791" offset="1" stop-color="#ff9436" stop-opacity="1"/></linearGradient><linearGradient id="linearGradient4581"><stop id="stop4583" offset="0" stop-color="#2b2b2b" stop-opacity="1"/><stop id="stop4585" offset="1" stop-color="#353535" stop-opacity="1"/></linearGradient><linearGradient id="linearGradient4202"><stop id="stop4204" offset="0" stop-color="#e6c02a" stop-opacity="1"/><stop id="stop4206" offset="1" stop-color="#000" stop-opacity="0"/></linearGradient><linearGradient id="linearGradient4324" x1="395.124" x2="422.902" y1="510.351" y2="537.886" gradientTransform="matrix(0.70710678,0.70710678,-0.70710678,0.70710678,489.8702,-135.38908)" gradientUnits="userSpaceOnUse" xlink:href="#linearGradient4179"/><linearGradient id="linearGradient4208" x1="15.37" x2="14.99" y1="29.237" y2=".736" gradientUnits="userSpaceOnUse" xlink:href="#linearGradient4202"/><linearGradient id="linearGradient4179"><stop id="stop4181" offset="0" stop-color="#fef15e" stop-opacity="1"/><stop id="stop4183" offset="1" stop-color="#e6c12b" stop-opacity="1"/></linearGradient><linearGradient id="linearGradient4579" x1="15.37" x2="14.99" y1="29.237" y2=".736" gradientUnits="userSpaceOnUse" xlink:href="#linearGradient4581"/><linearGradient id="linearGradient4587" x1="15.37" x2="14.99" y1="29.237" y2=".736" gradientUnits="userSpaceOnUse" xlink:href="#linearGradient4202"/><linearGradient id="linearGradient4830-8" x1="389.958" x2="410.338" y1="509.784" y2="509.784" gradientTransform="matrix(0.9192596,-0.16588944,0.15463807,0.98614436,-51.069169,75.206756)" gradientUnits="userSpaceOnUse" xlink:href="#linearGradient4787"/><linearGradient id="linearGradient4822" x1="412.345" x2="413.206" y1="548.156" y2="505.353" gradientTransform="translate(-0.179346,0.0990012)" gradientUnits="userSpaceOnUse" xlink:href="#linearGradient4787"/></defs><metadata id="metadata5458"/><g id="layer1" display="inline" transform="translate(-384.57143,-499.798)"><g id="g4293" transform="matrix(1.0219304,0,0,1.0219304,-9.0469574,-11.37777)"><g id="g4768" transform="matrix(1.1062439,0,0,1.1062439,-41.753038,-55.510718)"><path id="path4680-8" fill="url(#linearGradient4830-8)" fill-opacity="1" fill-rule="evenodd" stroke="none" stroke-linecap="butt" stroke-linejoin="miter" stroke-opacity="1" stroke-width="1" d="m 405.93326,504.04412 c -9.31497,0.38154 -9.92746,1.45972 -11.07494,2.0406 -1.53659,0.77795 -3.42678,1.21606 -3.22935,-0.0428 -0.65383,0.23925 -1.40711,1.15021 -0.76887,2.28987 0.63823,1.13965 -0.63655,2.46768 -1.25049,1.74938 -1.17498,-1.37467 -4.05536,-0.29619 -3.63488,1.46262 0.41402,-0.41354 2.34149,-1.31886 2.07344,0.70138 -0.26807,2.02024 -0.40134,3.56801 1.65274,4.94511 2.05407,1.37711 10.0236,-0.0162 10.0236,-0.0162 z" display="inline"/><path id="rect4166-6" fill="url(#linearGradient4324)" fill-opacity="1" stroke="none" stroke-dasharray="none" stroke-miterlimit="4" stroke-opacity=".55" stroke-width="8.587" d="m 408.39272,504.87809 c -4.85676,0 -9.71405,1.86053 -13.43555,5.58203 -7.443,7.443 -7.443,19.4281 0,26.8711 7.443,7.443 19.4281,7.443 26.8711,0 7.443,-7.443 7.443,-19.4281 0,-26.8711 -3.7215,-3.7215 -8.57879,-5.58203 -13.43555,-5.58203 z" display="inline" opacity="1"/><g id="g3" fill="url(#linearGradient4208)" fill-opacity="1" transform="matrix(0.64872777,-1.1659445,1.1659445,0.64872777,381.19159,531.6494)"><g id="c59_radiactive" fill="url(#linearGradient4587)" fill-opacity="1"><path id="path6" fill="url(#linearGradient4579)" fill-opacity="1" d="M 22.685,2.124 C 15.578,-2.12 6.376,0.193 2.127,7.298 c -4.248,7.104 -1.932,16.309 5.171,20.555 7.108,4.248 16.307,1.93 20.555,-5.174 4.248,-7.104 1.932,-16.302 -5.168,-20.555 z m -7.553,12.782 5.724,10.94 c -0.908,0.486 -1.872,0.861 -2.868,1.115 -3.045,0.762 -6.36,0.381 -9.269,-1.332 L 15.124,14.916 2.627,14.416 C 2.718,12.442 3.276,10.459 4.366,8.637 5.508,6.727 7.085,5.243 8.891,4.224 L 15.132,14.9 21.396,4.426 c 2.882,1.757 4.792,4.493 5.557,7.538 0.221,0.876 0.343,1.776 0.367,2.683 l -12.188,0.259 z"/></g></g><path id="path4648" fill="url(#linearGradient4822)" fill-opacity="1" fill-rule="evenodd" stroke="none" stroke-linecap="butt" stroke-linejoin="miter" stroke-opacity="1" stroke-width="1" d="m 416.85889,505.78373 c 0.62613,0.57506 1.43753,1.40448 1.93945,2.30078 0.875,1.5625 0.75,4.28125 -1.9375,4.78125 -2.68755,0.5 -2.79025,-0.41542 -2.78125,-1.5 -1.42868,0.19667 -2.06762,3.36355 0.4375,4.46875 2.125,0.9375 2.90625,0.5625 6.90625,0.3125 4,-0.25 4.46875,4.625 2.59375,5.375 -1.875,0.75 -2.59096,-0.58688 -2.46875,-1.3125 -1.50279,0.58688 -1.68625,2.22422 -0.9375,3 5.84685,6.05797 3.04265,10.739 1.4375,11.21875 -1.98903,0.59449 -3.39124,-0.58395 -2.375,-2.15625 0.82813,-1.28125 0.11341,-3.39426 -0.89258,-4.14258 -1.00599,-0.74834 -2.9595,-0.56942 -3.79492,-0.0137 1.20417,0.45526 2.96875,1.15625 2.5,2.71875 -0.36198,1.2066 -1.54792,1.9665 -3.03125,1.9375 -3.37921,-0.0662 -2.30916,-3.11899 -1.84375,-3.46875 -1.8158,-0.22476 -3.02875,3.08852 -1.84375,4.21875 1.16611,1.11222 2.80505,1.73267 1.8125,3.4375 -1.04107,1.78818 -2.5,2.75 -5,2.25 -2.5,-0.5 -3.875,-2.09375 -3.5625,-3.5625 0.3125,-1.46875 1.0424,-1.6648 2.3125,-1.6875 -0.7924,-1.67893 -4.6875,-1.6875 -4.625,1.21875 0.0323,1.50128 -2.48101,1.74841 -3.53125,0.0625 -1.1875,-1.90625 -0.18328,-2.72171 1.15625,-2.40625 0.0895,-2.12204 -1.71875,-1.09375 -2.1875,-3.4375 -0.46875,-2.34375 1.1776,-2.99505 1.1776,-2.99505 -2.94435,0.89735 -3.57618,1.76959 -6.60624,0.86703 -1.07576,-0.32044 0.17093,-3.24575 -3.28815,-2.23917 0.58426,10.54819 9.26755,18.86719 19.96679,18.86719 11.07999,0 20,-8.92001 20,-20 0,-8.04571 -4.71468,-14.9338 -11.5332,-18.11328 z" clip-path="none" display="inline"/></g></g></g></svg>