<svg xmlns="http://www.w3.org/2000/svg" xmlns:svg="http://www.w3.org/2000/svg" xmlns:xlink="http://www.w3.org/1999/xlink" id="svg5453" width="48" height="48" version="1.1"><defs id="defs5455"><linearGradient id="linearGradient5078"><stop id="stop5080" offset="0" stop-color="#d73b00" stop-opacity="1"/><stop id="stop5082" offset="1" stop-color="#e05800" stop-opacity="1"/></linearGradient><linearGradient id="linearGradient5061"><stop id="stop5063" offset="0" stop-color="#f15400" stop-opacity="1"/><stop id="stop5065" offset="1" stop-color="#fa8c00" stop-opacity="1"/></linearGradient><linearGradient id="linearGradient4479"><stop id="stop4481" offset="0" stop-color="#cdd7dc" stop-opacity="1"/><stop id="stop4483" offset="1" stop-color="#ecf0f3" stop-opacity="1"/></linearGradient><linearGradient id="linearGradient7021"><stop id="stop7023" offset="0" stop-color="#dfe9f0" stop-opacity="1"/><stop id="stop7025" offset="1" stop-color="#ecf0f3" stop-opacity="1"/></linearGradient><linearGradient id="linearGradient7106"><stop id="stop7108" offset="0" stop-color="#fe9501" stop-opacity="1"/><stop id="stop7110" offset="1" stop-color="#feb600" stop-opacity="1"/></linearGradient><linearGradient id="linearGradient4155" x1="371.476" x2="371.476" y1="473.938" y2="253.929" gradientTransform="matrix(0.26231459,0,0,0.26155514,-44.879062,141.03167)" gradientUnits="userSpaceOnUse" xlink:href="#linearGradient4479"/><linearGradient id="linearGradient4466" x1="23.802" x2="23.892" y1="265.837" y2="146.964" gradientUnits="userSpaceOnUse" xlink:href="#linearGradient7106"/><linearGradient id="linearGradient5018" x1="95.462" x2="191.545" y1="143.525" y2="143.525" gradientUnits="userSpaceOnUse" xlink:href="#linearGradient7021"/><linearGradient id="linearGradient5031" x1="95.462" x2="191.545" y1="143.525" y2="143.525" gradientUnits="userSpaceOnUse" xlink:href="#linearGradient7021"/><linearGradient id="linearGradient5059" x1="22.548" x2="21.17" y1="266.997" y2="148.123" gradientUnits="userSpaceOnUse" xlink:href="#linearGradient5061"/><linearGradient id="linearGradient4991" x1=".967" x2="3.419" y1="204.548" y2="147.642" gradientTransform="matrix(1.0014519,3.7631821e-5,3.7631794e-5,0.95188387,0.29246943,11.945264)" gradientUnits="userSpaceOnUse" xlink:href="#linearGradient5078"/><linearGradient id="linearGradient5106" x1="148.619" x2="136.146" y1="409.577" y2="327.406" gradientUnits="userSpaceOnUse" xlink:href="#linearGradient7021"/><linearGradient id="linearGradient5108" x1="98.405" x2="188.643" y1="368.491" y2="368.491" gradientUnits="userSpaceOnUse" xlink:href="#linearGradient4479"/><linearGradient id="linearGradient5116" x1="455.962" x2="459.025" y1="150.231" y2="91.673" gradientUnits="userSpaceOnUse" xlink:href="#linearGradient7021"/><linearGradient id="linearGradient5118" x1="455.962" x2="459.025" y1="150.231" y2="91.673" gradientUnits="userSpaceOnUse" xlink:href="#linearGradient7021"/><linearGradient id="linearGradient5126" x1="363.384" x2="359.039" y1="400.943" y2="332.468" gradientUnits="userSpaceOnUse" xlink:href="#linearGradient5078"/><linearGradient id="linearGradient5128" x1="363.384" x2="359.039" y1="400.943" y2="332.468" gradientUnits="userSpaceOnUse" xlink:href="#linearGradient5078"/><linearGradient id="linearGradient5149" x1="22.548" x2="21.17" y1="266.997" y2="148.123" gradientUnits="userSpaceOnUse" xlink:href="#linearGradient5061"/><linearGradient id="linearGradient5151" x1="22.548" x2="21.17" y1="266.997" y2="148.123" gradientTransform="translate(-2.0346061e-4,0.26799518)" gradientUnits="userSpaceOnUse" xlink:href="#linearGradient5061"/><linearGradient id="linearGradient5153" x1="22.548" x2="21.17" y1="266.997" y2="148.123" gradientUnits="userSpaceOnUse" xlink:href="#linearGradient5061"/></defs><metadata id="metadata5458"/><g id="layer1" transform="translate(-384.57143,-499.798)"><g id="g4470" transform="matrix(1.3382274,-0.31961128,0.31961128,1.3382274,-356.73681,-37.003194)"><g id="g7486" transform="matrix(0.26208427,0.02583472,-0.02583472,0.26208427,404.04667,465.90142)"><g id="g4236" transform="matrix(0.98797581,0.13461765,-0.13501288,0.99084384,25.550446,-23.969633)"><g id="g5130" transform="matrix(1.080707,0,0,1.080707,160.14549,-15.529907)"><g id="g4198" transform="matrix(1.0444445,0,0,1.0444445,-2.1594817,-11.708972)"><path id="path4271-0" fill="url(#linearGradient4991)" fill-opacity="1" fill-rule="evenodd" stroke="none" stroke-linecap="butt" stroke-linejoin="miter" stroke-opacity="1" stroke-width="2.764" d="m -23.525211,154.66937 47.828584,0.0363 -0.0419,55.16792 -55.437374,-0.0422 0.0365,-48.05392 c 0.006,-7.63847 7.21097,-7.10853 7.61419,-7.10821 z" opacity="1"/><path id="path4271" fill="url(#linearGradient5149)" fill-opacity="1" fill-rule="evenodd" stroke="none" stroke-linecap="butt" stroke-linejoin="miter" stroke-opacity="1" stroke-width="2.764" d="m -23.87675,265.80577 47.759246,0.0362 0.044,-57.95657 -55.356996,-0.042 -0.03833,50.48297 c -0.0061,8.02458 7.189449,7.47907 7.59208,7.47936 z" opacity="1" transform="matrix(1.0014519,3.7631819e-5,3.7631809e-5,0.95188386,0.03653067,11.689948)"/><path id="path4271-0-9" fill="url(#linearGradient5151)" fill-opacity="1" fill-rule="evenodd" stroke="none" stroke-linecap="butt" stroke-linejoin="miter" stroke-opacity="1" stroke-width="2.764" d="m 71.568966,150.27986 -47.759241,-0.0362 -0.044,57.95657 55.356991,0.042 0.03835,-50.48297 c 0.0062,-8.02458 -7.189452,-7.47907 -7.592072,-7.47936 z" opacity="1" transform="matrix(1.0014519,3.7631819e-5,3.7631809e-5,0.95188386,0.03653067,11.689948)"/><path id="path4271-4" fill="url(#linearGradient5153)" fill-opacity="1" fill-rule="evenodd" stroke="none" stroke-linecap="butt" stroke-linejoin="miter" stroke-opacity="1" stroke-width="2.764" d="m 71.368015,265.8766 -47.75924,-0.0363 0.044,-57.95657 55.35699,0.0421 -0.0383,50.48297 c -0.006,8.02458 -7.2008,7.46814 -7.60343,7.46782 z" opacity="1" transform="matrix(1.0014519,3.7631819e-5,3.7631809e-5,0.95188386,0.03653067,11.689948)"/><ellipse id="path3340" cx="51.669" cy="236.944" fill="url(#linearGradient4155)" fill-opacity="1" stroke="none" stroke-dasharray="none" stroke-dashoffset="0" stroke-linecap="butt" stroke-linejoin="miter" stroke-miterlimit="4" stroke-opacity="1" stroke-width="5.238" opacity="1" rx="32.31" ry="32.216" transform="matrix(0.99999971,7.591956e-4,-7.5919311e-4,0.99999971,0,0)"/><g id="text4252" fill="url(#linearGradient5018)" fill-opacity="1" stroke="none" stroke-linecap="butt" stroke-linejoin="miter" stroke-opacity="1" stroke-width="5.233" font-family="Sans" font-size="153.494" font-stretch="normal" font-style="normal" font-variant="normal" font-weight="bold" letter-spacing="0" text-anchor="start" transform="matrix(0.26419577,2.0057633e-4,-1.9999046e-4,0.26342488,-41.138552,144.43714)" word-spacing="0" writing-mode="lr-tb" style="line-height:125%;-inkscape-font-specification:'Sans, Bold';text-align:start"><path id="path4201" fill="url(#linearGradient5031)" fill-opacity="1" stroke-width="5.233" d="m 152.4223,95.407954 0,39.272776 39.12288,0 0,17.68774 -39.12288,0 0,39.27278 -17.83764,0 0,-39.27278 -39.122882,0 0,-17.68774 39.122882,0 0,-39.272776 17.83764,0 z"/></g><g id="text4252-4" fill="url(#linearGradient5116)" fill-opacity="1" stroke="none" stroke-linecap="butt" stroke-linejoin="miter" stroke-opacity="1" stroke-width="4.331" font-family="Sans" font-size="127.029" font-stretch="normal" font-style="normal" font-variant="normal" font-weight="bold" letter-spacing="0" text-anchor="start" transform="matrix(0.21864388,1.6599352e-4,-2.4165613e-4,0.31830636,-49.449139,142.57978)" word-spacing="0" writing-mode="lr-tb" style="line-height:125%;-inkscape-font-specification:'Sans, Bold';text-align:start"><path id="path4204" fill="url(#linearGradient5118)" fill-opacity="1" stroke-width="4.331" d="m 403.56007,115.78436 113.38303,0 0,16.00263 -113.38303,0 0,-16.00263 z"/></g><g id="text4252-2" fill="url(#linearGradient5106)" fill-opacity="1" stroke="none" stroke-linecap="butt" stroke-linejoin="miter" stroke-opacity="1" stroke-width="5.233" font-family="Sans" font-size="153.494" font-stretch="normal" font-style="normal" font-variant="normal" font-weight="bold" letter-spacing="0" text-anchor="start" transform="matrix(0.26419577,2.0057633e-4,-1.9999046e-4,0.26342488,-41.412076,139.71007)" word-spacing="0" writing-mode="lr-tb" style="line-height:125%;-inkscape-font-specification:'Sans, Bold';text-align:start"><path id="path4210" fill="url(#linearGradient5108)" fill-opacity="1" stroke-width="5.233" d="m 188.64264,336.03888 -32.52745,32.52745 32.52745,32.37756 -12.59127,12.59127 -32.52745,-32.37756 -32.52746,32.37756 -12.591269,-12.59127 32.527459,-32.37756 -32.527459,-32.52745 12.591269,-12.59127 32.52746,32.52745 32.52745,-32.52745 12.59127,12.59127 z"/></g><g id="text4252-0" fill="url(#linearGradient5126)" fill-opacity="1" stroke="none" stroke-linecap="butt" stroke-linejoin="miter" stroke-opacity="1" stroke-width="5.233" font-family="Sans" font-size="153.494" font-stretch="normal" font-style="normal" font-variant="normal" font-weight="bold" letter-spacing="0" text-anchor="start" transform="matrix(0.26419577,2.0057633e-4,-1.9999046e-4,0.26342488,-45.687111,140.82366)" word-spacing="0" writing-mode="lr-tb" style="line-height:125%;-inkscape-font-specification:'Sans, Bold';text-align:start"><path id="path4207" fill="url(#linearGradient5128)" fill-opacity="1" stroke-width="5.233" d="m 320.01727,340.77341 96.0834,0 0,17.61279 -96.0834,0 0,-17.61279 z m 0,34.10136 96.0834,0 0,17.76269 -96.0834,0 0,-17.76269 z"/></g></g></g></g></g></g></g></svg>