<svg xmlns="http://www.w3.org/2000/svg" xmlns:svg="http://www.w3.org/2000/svg" xmlns:xlink="http://www.w3.org/1999/xlink" id="svg5453" width="48" height="48" version="1.1"><defs id="defs5455"><linearGradient id="linearGradient4535"><stop id="stop4537" offset="0" stop-color="#197cf1" stop-opacity="1"/><stop id="stop4539" offset="1" stop-color="#59d0ff" stop-opacity="1"/></linearGradient><linearGradient id="linearGradient4533" x1="408.571" x2="409.571" y1="552.798" y2="503.798" gradientUnits="userSpaceOnUse" xlink:href="#linearGradient4535"/><linearGradient id="linearGradient4619"><stop id="stop4621" offset="0" stop-color="#7ed6fb" stop-opacity="1"/><stop id="stop4623" offset="1" stop-color="#8edcfc" stop-opacity="1"/></linearGradient><linearGradient id="linearGradient4611"><stop id="stop4613" offset="0" stop-color="#7ed6fb" stop-opacity="1"/><stop id="stop4615" offset="1" stop-color="#8fdcfc" stop-opacity="1"/></linearGradient><linearGradient id="linearGradient4603"><stop id="stop4605" offset="0" stop-color="#62c8f7" stop-opacity="1"/><stop id="stop4607" offset="1" stop-color="#36aaf2" stop-opacity="1"/></linearGradient><linearGradient id="linearGradient4595"><stop id="stop4597" offset="0" stop-color="#1581ce" stop-opacity="1"/><stop id="stop4599" offset="1" stop-color="#32a9e0" stop-opacity="1"/></linearGradient><linearGradient id="linearGradient4570"><stop id="stop4572" offset="0" stop-color="#7ed6fb" stop-opacity="1"/><stop id="stop4574" offset="1" stop-color="#90ddfc" stop-opacity="1"/></linearGradient><linearGradient id="linearGradient4201" x1="138.929" x2="165.724" y1="880.934" y2="880.934" gradientTransform="matrix(1.1542731,0,0,1.1542731,-144.26891,-31.283062)" gradientUnits="userSpaceOnUse" xlink:href="#linearGradient4570"/><linearGradient id="linearGradient4593" x1="23.438" x2="40.234" y1="1010.175" y2="1009.393" gradientTransform="matrix(1.1542731,0,0,1.1542731,-7.4051082,-154.94607)" gradientUnits="userSpaceOnUse" xlink:href="#linearGradient4611"/><linearGradient id="linearGradient4601" x1="38.672" x2="44.922" y1="1020.149" y2="1022.675" gradientTransform="matrix(1.1542731,0,0,1.1542731,-7.4051082,-154.94607)" gradientUnits="userSpaceOnUse" xlink:href="#linearGradient4595"/><linearGradient id="linearGradient4609" x1="54.138" x2="57.452" y1="1022.255" y2="1020.598" gradientTransform="matrix(1.1542731,0,0,1.1542731,-7.4051082,-154.94607)" gradientUnits="userSpaceOnUse" xlink:href="#linearGradient4603"/><linearGradient id="linearGradient4617" x1="72.644" x2="58.281" y1="1009.273" y2="1008.997" gradientTransform="matrix(1.1542731,0,0,1.1542731,-7.4051082,-154.94607)" gradientUnits="userSpaceOnUse" xlink:href="#linearGradient4611"/><linearGradient id="linearGradient4625" x1="70.711" x2="56.624" y1="986.071" y2="988.557" gradientTransform="matrix(1.1542731,0,0,1.1542731,-7.4051082,-154.94607)" gradientUnits="userSpaceOnUse" xlink:href="#linearGradient4619"/></defs><metadata id="metadata5458"/><g id="layer1" transform="translate(-384.57143,-499.798)"><g id="g4571" transform="matrix(1.0503823,0,0,1.0503823,29.748238,-34.889411)"><g id="layer1-6" transform="matrix(0.95203432,0,0,0.95203432,261.24708,-510.4174)"><g id="g4659" transform="matrix(0.66666667,0,0,0.66666667,72.311815,425.55237)"><path id="path4040" fill="#7ed6fb" fill-opacity="1" fill-rule="nonzero" stroke="none" d="M 47.854262,984.1888 69.228802,997.41902 48,1010.7371 26.520698,997.41902 Z"/><path id="path4044" fill="url(#linearGradient4201)" fill-opacity="1" fill-rule="nonzero" stroke="none" d="M 12,985.43467 33.374552,972.2044 47.890691,984.15557 26.520698,997.41902 Z"/><path id="path4046" fill="url(#linearGradient4625)" fill-opacity="1" fill-rule="nonzero" stroke="none" d="m 47.857967,984.17912 21.420087,13.2576 14.62546,-11.89651 -21.479313,-13.31809 z"/><path id="path4050" fill="#62c8f7" fill-opacity="1" fill-rule="nonzero" stroke="none" d="m 47.854262,984.1888 -0.0011,22.7039 -21.228803,13.3181 -0.103196,-22.79178 z"/><path id="path4052" fill="#32a9e0" fill-opacity="1" fill-rule="nonzero" stroke="none" d="m 47.854262,984.1888 0.0011,22.7039 21.22879,13.3181 0.103197,-22.79178 z"/><path id="path4056" fill="url(#linearGradient4609)" fill-opacity="1" fill-rule="nonzero" stroke="none" d="m 69.187814,997.41902 -0.0011,25.76468 -21.228801,13.3181 -0.103197,-25.8526 z"/><path id="path4048" fill="url(#linearGradient4617)" fill-opacity="1" fill-rule="nonzero" stroke="none" d="M 48,1010.6671 69.374552,997.43672 84,1009.3333 62.520698,1022.6515 Z"/><path id="path4054" fill="url(#linearGradient4601)" fill-opacity="1" fill-rule="nonzero" stroke="none" d="m 26.520698,997.41902 0.0011,25.76468 21.429195,13.3363 -0.09719,-25.8708 z"/><path id="path4042" fill="url(#linearGradient4593)" fill-opacity="1" fill-rule="nonzero" stroke="none" d="M 12,1009.4033 33.374552,1022.6337 48,1010.7371 26.520698,997.41902 Z"/></g></g></g></g></svg>