<svg xmlns="http://www.w3.org/2000/svg" xmlns:osb="http://www.openswatchbook.org/uri/2009/osb" xmlns:svg="http://www.w3.org/2000/svg" xmlns:xlink="http://www.w3.org/1999/xlink" id="svg5453" width="48" height="48" version="1.1"><defs id="defs5455"><linearGradient id="linearGradient4667"><stop id="stop4669" offset="0" stop-color="#de4921" stop-opacity="1"/><stop id="stop4671" offset="1" stop-color="#ff8465" stop-opacity="1"/></linearGradient><linearGradient id="linearGradient4207" osb:paint="gradient"><stop id="stop3371" offset="0" stop-color="#3498db" stop-opacity="1"/><stop id="stop3373" offset="1" stop-color="#3498db" stop-opacity="0"/></linearGradient><filter id="filter3831" color-interpolation-filters="sRGB"><feGaussianBlur id="feGaussianBlur3833" stdDeviation=".637"/></filter><clipPath id="clipPath3823"><path id="path3825" fill="#fff" d="m108.81 58c-1.56 0-2.81 1.254-2.81 2.812v24.375c0 1.559 1.25 2.813 2.81 2.813h24.375c1.57 0 2.82-1.254 2.82-2.812v-24.375c0-1.559-1.25-2.813-2.81-2.813h-24.375zm7.1875 4.5h10v8.75h5l-10 13.75-10-13.75h5v-8.75z"/></clipPath><linearGradient id="linearGradient3812" x1="65.263" x2="65.263" y1="64.205" y2="50.069" gradientTransform="matrix(0.625,0,0,0.625,78.5,32.25)" gradientUnits="userSpaceOnUse"><stop id="stop3683" offset="0"/><stop id="stop3685" offset="1" stop-opacity="0"/></linearGradient><filter id="filter3806" color-interpolation-filters="sRGB"><feGaussianBlur id="feGaussianBlur3808" stdDeviation="1.2"/></filter><linearGradient id="linearGradient3788" x1="70" x2="70" y1="54" y2="75.095" gradientTransform="translate(0,4)" gradientUnits="userSpaceOnUse" xlink:href="#linearGradient3737"/><linearGradient id="linearGradient3773" x1="56" x2="88" y1="72" y2="72" gradientTransform="matrix(0.9375,0,0,0.9375,-140.5,3.5)" gradientUnits="userSpaceOnUse"><stop id="stop3780" offset="0" stop-color="#499119"/><stop id="stop3782" offset="1" stop-color="#8fd625"/></linearGradient><linearGradient id="linearGradient3832" x1="65.263" x2="65.263" y1="64.205" y2="50.069" gradientTransform="matrix(0.625,0,0,0.625,28.5,31.25)" gradientUnits="userSpaceOnUse" xlink:href="#linearGradient3737"/><filter id="filter3174" color-interpolation-filters="sRGB"><feGaussianBlur id="feGaussianBlur3176" stdDeviation="1.71"/></filter><linearGradient id="linearGradient3737"><stop id="stop3739" offset="0" stop-color="#fff"/><stop id="stop3741" offset="1" stop-color="#fff" stop-opacity="0"/></linearGradient><linearGradient id="ButtonShadow" x1="45.448" x2="45.448" y1="92.54" y2="7.016" gradientTransform="scale(1.0059,0.99417)" gradientUnits="userSpaceOnUse"><stop id="stop3750" offset="0"/><stop id="stop3752" offset="1" stop-opacity=".588"/></linearGradient><linearGradient id="linearGradient5226" x1="410.571" x2="408.571" y1="547.798" y2="499.798" gradientTransform="matrix(0.97872341,0,0,0.97872341,8.6930089,11.144636)" gradientUnits="userSpaceOnUse" xlink:href="#linearGradient4667"/><linearGradient id="linearGradient5228" x1="56" x2="88" y1="72" y2="72" gradientTransform="matrix(0.9375,0,0,0.9375,-140.5,3.5)" gradientUnits="userSpaceOnUse" xlink:href="#linearGradient3773"/></defs><metadata id="metadata5458"/><g id="layer1" transform="translate(-384.57143,-499.798)"><g id="g5479" transform="matrix(1.1107542,0,0,1.1107542,-41.726334,-59.128847)"><g id="layer1-6" transform="matrix(0.81372292,0,0,0.81372292,72.934263,98.576323)"><g id="g5342"><rect id="rect5218" width="50.894" height="50.894" x="383.125" y="498.351" fill="url(#linearGradient5226)" fill-opacity="1" fill-rule="evenodd" stroke="none" stroke-dasharray="none" stroke-dashoffset="0" stroke-linecap="round" stroke-linejoin="miter" stroke-miterlimit="4" stroke-opacity="1" stroke-width="3" opacity="1" ry="3"/><g id="g4528" transform="matrix(0.8,0,0,0.8,389.37144,504.59797)"><g id="layer2" display="none" transform="translate(-187.24,-33.656)"><path id="rect3745" fill="url(#ButtonShadow)" d="M 11,7 48,5 85,7 c 3.324,0 6,2.676 6,6 l 0,73 c 0,3.324 -2.676,6 -6,6 L 11,92 C 7.676,92 5,89.324 5,86 L 5,13 C 5,9.676 7.676,7 11,7 Z" filter="url(#filter3174)" opacity=".9"/></g><g id="layer4" display="none" transform="translate(-187.24,-33.656)"><rect id="rect3790" width="30" height="30" x="-86" y="56" filter="url(#filter3806)" opacity=".6" rx="2.813" ry="2.813" transform="matrix(0,-1,1,0,0,4)"/><rect id="rect2993" width="30" height="30" x="-88" y="56" fill="url(#linearGradient5228)" rx="2.813" ry="2.813" transform="matrix(0,-1,1,0,0,0)"/><path id="rect3775" fill="url(#linearGradient3788)" d="M 58.812,58 C 57.254,58 56,59.254 56,60.812 l 0,24.375 c 0,0.87307 0.41082,1.6412 1.0312,2.1562 -0.003,-0.053 -0.031,-0.101 -0.031,-0.155 l 0,-24.375 c 0,-1.559 1.171,-2.813 2.625,-2.813 l 22.75,0 c 1.454,0 2.625,1.254 2.625,2.812 l 0,24.375 c 0,0.05463 -0.02841,0.10241 -0.03125,0.15625 0.62,-0.514 1.031,-1.282 1.031,-2.155 l 0,-24.375 c 0,-1.559 -1.254,-2.813 -2.812,-2.813 l -24.375,0 z" opacity=".5"/><path id="path3810" fill="url(#linearGradient3812)" d="m 116,63.5 0,8.75 -5,0 10,13.75 10,-13.75 -5,0 0,-8.75 -10,0 z" clip-path="url(#clipPath3823)" display="inline" filter="url(#filter3831)" opacity=".6" transform="translate(-50,0)"/><path id="path4278" fill="url(#linearGradient3832)" d="m 66,62.5 0,8.75 -5,0 10,13.75 10,-13.75 -5,0 0,-8.75 -10,0 z" display="inline"/></g></g><g id="g4562" fill="none" fill-opacity="1" stroke="#fff" stroke-opacity=".797" transform="matrix(0.87214354,0,0,0.87214354,387.66484,502.84186)"><path id="path5473" fill="none" fill-opacity="1" stroke="#fff" stroke-linecap="round" stroke-linejoin="round" stroke-opacity=".797" stroke-width="8" d="m 9,39 0,-15 21,0 c 0,0 9,0 9,-7.5 C 39,9 30,9 30,9 L 9,9"/></g></g></g></g></g></svg>