<svg xmlns="http://www.w3.org/2000/svg" xmlns:svg="http://www.w3.org/2000/svg" xmlns:xlink="http://www.w3.org/1999/xlink" id="svg5453" width="48" height="48" version="1.1" viewBox="0 0 48 48"><defs id="defs5455"><linearGradient id="linearGradient4206"><stop id="stop4208" offset="0" stop-color="#1584d8" stop-opacity="1"/><stop id="stop4210" offset="1" stop-color="#1cb2ff" stop-opacity="1"/></linearGradient><linearGradient id="linearGradient4191"><stop id="stop4193" offset="0" stop-color="#2e3e46" stop-opacity="1"/><stop id="stop4195" offset="1" stop-color="#435a64" stop-opacity="1"/></linearGradient><linearGradient id="linearGradient4262" x1="387.744" x2="387.968" y1="520.062" y2="479.243" gradientTransform="matrix(0.96090326,0,0,0.96090326,-24.830361,41.140767)" gradientUnits="userSpaceOnUse" xlink:href="#linearGradient4191"/><linearGradient id="linearGradient4382" x1="353.102" x2="352.754" y1="543.113" y2="500.263" gradientUnits="userSpaceOnUse" xlink:href="#linearGradient4206"/><linearGradient id="linearGradient3058"><stop id="stop3060" offset="0" stop-color="#555" stop-opacity="1"/><stop id="stop3062" offset="1" stop-color="#4b4b4b" stop-opacity="1"/></linearGradient><linearGradient id="linearGradient3764" x1="1" x2="47" gradientTransform="matrix(0,-1,1,0,-1.5e-6,47.999998)" gradientUnits="userSpaceOnUse"><stop id="stop7" stop-color="#333" stop-opacity="1"/><stop id="stop9" offset="1" stop-color="#3d3d3d" stop-opacity="1"/></linearGradient><clipPath id="clipPath-799970715"><g id="g12" transform="translate(0,-1004.3622)"><path id="path14" fill="#1890d0" d="m -24 13 c 0 1.105 -0.672 2 -1.5 2 -0.828 0 -1.5 -0.895 -1.5 -2 0 -1.105 0.672 -2 1.5 -2 0.828 0 1.5 0.895 1.5 2 z" transform="matrix(15.333333,0,0,11.5,414.99999,878.8622)"/></g></clipPath><clipPath id="clipPath-808101755"><g id="g17" transform="translate(0,-1004.3622)"><path id="path19" fill="#1890d0" d="m -24 13 c 0 1.105 -0.672 2 -1.5 2 -0.828 0 -1.5 -0.895 -1.5 -2 0 -1.105 0.672 -2 1.5 -2 0.828 0 1.5 0.895 1.5 2 z" transform="matrix(15.333333,0,0,11.5,414.99999,878.8622)"/></g></clipPath><linearGradient id="linearGradient4266" x1="96.557" x2="96.791" y1="42.796" y2="11.206" gradientUnits="userSpaceOnUse" xlink:href="#linearGradient4206"/></defs><metadata id="metadata5458"/><g id="layer1" transform="translate(-384.57143,-499.798)"><g id="g4187" transform="matrix(1.1222273,0,0,1.1222273,-48.868971,-63.651074)"><g id="g4188" transform="matrix(1.0191313,0,0,1.0191313,-7.7538867,-9.9700742)"><g id="g4384" transform="matrix(1.050907,0,0,1.050907,41.359732,-23.487766)"><circle id="path4254" cx="348.549" cy="520.437" r="19.218" fill="url(#linearGradient4262)" fill-opacity="1" stroke="url(#linearGradient4382)" stroke-dasharray="none" stroke-linecap="round" stroke-linejoin="round" stroke-miterlimit="4" stroke-opacity="1" stroke-width="1.5" opacity="1"/></g></g><g id="g4230" transform="matrix(0.89108508,0,0,0.89108508,321.86433,498.93798)"><path id="path3042" fill="url(#linearGradient4266)" fill-opacity="1" stroke="none" d="m 96.235463,11.527252 -6.153846,6.153846 0,12.307693 12.307693,-12.307693 -6.153847,-6.153846 z m 9.846157,9.846154 -6.153849,6.153846 6.153849,6.153846 6.15384,-6.153846 -6.15384,-6.153846 z m -20.92308,1.230769 -4.923077,4.923077 4.923077,4.923077 0,-9.846154 z m 11.076923,8.615385 -6.153846,6.153846 6.153846,6.153846 6.153847,-6.153846 -6.153847,-6.153846 z"/></g></g></g></svg>