<svg xmlns="http://www.w3.org/2000/svg" xmlns:svg="http://www.w3.org/2000/svg" xmlns:xlink="http://www.w3.org/1999/xlink" id="svg2985" width="48" height="48" version="1.1"><defs id="defs2987"><linearGradient id="linearGradient4551"><stop id="stop4553" offset="0" stop-color="#fefffe" stop-opacity="1"/><stop id="stop4555" offset="1" stop-color="#f1f1f0" stop-opacity="1"/></linearGradient><linearGradient id="linearGradient4479"><stop id="stop4481" offset="0" stop-color="#6c7482" stop-opacity="1"/><stop id="stop4483" offset="1" stop-color="#868d97" stop-opacity="1"/></linearGradient><linearGradient id="linearGradient4469"><stop id="stop4471" offset="0" stop-color="#949ba7" stop-opacity="1"/><stop id="stop4473" offset="1" stop-color="#757f8f" stop-opacity="1"/></linearGradient><linearGradient id="linearGradient4475" x1="468.524" x2="465.199" y1="131.218" y2="5.037" gradientTransform="matrix(0.99883047,0,0,0.99883047,0.88417087,-0.7178006)" gradientUnits="userSpaceOnUse" xlink:href="#linearGradient4469"/><linearGradient id="linearGradient4485" x1="468.805" x2="469.164" y1="121.348" y2="38.706" gradientUnits="userSpaceOnUse" xlink:href="#linearGradient4479"/><linearGradient id="linearGradient4557" x1="470.969" x2="471.315" y1="81.193" y2="1.282" gradientTransform="translate(-0.15806056,-5.6297142)" gradientUnits="userSpaceOnUse" xlink:href="#linearGradient4551"/><linearGradient id="linearGradient4179" x1="470.969" x2="471.315" y1="81.193" y2="1.282" gradientTransform="translate(-0.15806056,-5.6297142)" gradientUnits="userSpaceOnUse" xlink:href="#linearGradient4551"/><linearGradient id="linearGradient4181" x1="470.969" x2="471.315" y1="81.193" y2="1.282" gradientTransform="translate(-0.15806056,-5.6297142)" gradientUnits="userSpaceOnUse" xlink:href="#linearGradient4551"/></defs><metadata id="metadata2990"/><g id="layer1"><g id="g4154" transform="matrix(1.073476,-0.00305812,0.00305812,1.073476,-1.8214625,-1.6074449)"><g id="g4397" transform="matrix(0.86413263,-0.00128877,0.00128877,0.86413263,8.0000845,-12.604254)"><g id="g4627" transform="matrix(0.24545625,0,0,0.24545625,-96.387322,32.480944)"><g id="g4166" transform="matrix(1.0641747,0,0,1.0641747,-31.118028,-2.7902756)"><rect id="rect4467" width="184.124" height="183.906" x="376.798" y="-53.559" fill="url(#linearGradient4475)" fill-opacity="1" stroke="none" stroke-dasharray="none" stroke-dashoffset="0" stroke-linecap="round" stroke-linejoin="round" stroke-miterlimit="4" stroke-opacity="1" stroke-width=".5" opacity="1" ry="11.359" transform="matrix(0.99999058,0.00434018,-0.00434018,0.99999058,0,0)"/><path id="path4477-2" fill="#575d68" fill-opacity="1" fill-rule="evenodd" stroke="none" stroke-linecap="butt" stroke-linejoin="miter" stroke-opacity="1" stroke-width="1.078" d="m 377.99004,39.711723 183.00252,0.794269 4.69943,70.610628 c 0,0 2.18806,11.54391 -10.98127,11.52293 l -170.4585,-0.26137 c -14.5271,0.19388 -12.26442,-12.18913 -12.26442,-12.18913 z" opacity="1"/><path id="path4477" fill="url(#linearGradient4485)" fill-opacity="1" fill-rule="evenodd" stroke="none" stroke-linecap="butt" stroke-linejoin="miter" stroke-opacity="1" stroke-width="1.078" d="m 376.75657,38.304923 184.2421,0.799648 4.69943,70.610639 c 0,0 2.18806,11.54391 -10.98127,11.52293 l -170.45851,-0.26137 c -14.5271,0.19388 -12.26442,-12.18913 -12.26442,-12.18913 z" opacity="1"/><g id="text4367-9-0" fill="url(#linearGradient4557)" fill-opacity="1" stroke="none" stroke-linecap="butt" stroke-linejoin="miter" stroke-opacity="1" stroke-width="1" font-family="sans-serif" font-size="111.296" font-style="normal" font-weight="normal" letter-spacing="0" word-spacing="0" style="line-height:125%"><path style="-inkscape-font-specification:'Product Sans'" id="path4172" fill="url(#linearGradient4179)" fill-opacity="1" d="m 445.18882,73.796806 -10.23924,0 0,-63.438784 -14.80238,6.455175 -3.89537,-8.6810968 22.37052,-10.4618345 6.56647,0 0,76.1265403 z" font-family="Product Sans" font-stretch="normal" font-style="normal" font-variant="normal" font-weight="normal"/><path style="-inkscape-font-specification:'Product Sans'" id="path4174" fill="url(#linearGradient4181)" fill-opacity="1" d="m 512.27429,64.114045 q -8.4585,11.463499 -22.14792,11.463499 -13.68943,0 -22.14793,-11.463499 -8.45851,-11.4635 -8.45851,-28.380509 0,-17.028305 8.45851,-28.3805086 8.4585,-11.4634995 22.14793,-11.4634995 13.68942,0 22.14792,11.4634995 8.45851,11.3522036 8.45851,28.3805086 0,16.917009 -8.45851,28.380509 z m -22.14792,1.669441 q 9.12628,0 14.57979,-8.5698 5.5648,-8.569801 5.5648,-21.48015 0,-13.021645 -5.5648,-21.48015 -5.45351,-8.5698002 -14.57979,-8.5698002 -9.23758,0 -14.69109,8.5698002 -5.45351,8.458505 -5.45351,21.48015 0,12.910349 5.45351,21.48015 5.45351,8.5698 14.69109,8.5698 z" font-family="Product Sans" font-stretch="normal" font-style="normal" font-variant="normal" font-weight="normal"/></g><g id="text4559" fill="#000" fill-opacity="1" stroke="none" stroke-linecap="butt" stroke-linejoin="miter" stroke-opacity="1" stroke-width="1" font-family="sans-serif" font-size="17.518" font-style="normal" font-weight="normal" letter-spacing="0" transform="matrix(0.99999058,0.00434018,-0.00434018,0.99999058,0,0)" word-spacing="0" style="line-height:125%"><path font-stretch="normal" style="-inkscape-font-specification:'SFNS Display';text-align:start" id="path4163" fill="#fff" fill-opacity="1" d="m 453.4041,95.697441 -1.45411,0 -3.36156,-12.342831 1.60808,0 2.47199,10.07613 0.0684,0 2.77992,-10.07613 1.55676,0 2.77991,10.07613 0.0684,0 2.47199,-10.07613 1.60807,0 -3.36156,12.342831 -1.45411,0 -2.84834,-9.793861 -0.0855,0 -2.84835,9.793861 z" font-family="SFNS Display" font-style="normal" font-variant="normal" font-weight="normal" text-anchor="start"/><path font-stretch="normal" style="-inkscape-font-specification:'SFNS Display';text-align:start" id="path4165" fill="#fff" fill-opacity="1" d="m 468.44132,95.782977 q -0.97511,0 -1.76204,-0.33359 -0.77838,-0.33359 -1.33436,-0.940895 -0.55599,-0.615859 -0.85536,-1.479771 -0.29938,-0.872466 -0.29938,-1.941665 0,-1.077753 0.29938,-1.941665 0.29937,-0.872467 0.85536,-1.479771 0.55598,-0.615859 1.33436,-0.940895 0.78693,-0.33359 1.76204,-0.33359 0.97511,0 1.75348,0.33359 0.78693,0.325036 1.34292,0.940895 0.55598,0.607304 0.85536,1.479771 0.29937,0.863912 0.29937,1.941665 0,1.069199 -0.29937,1.941665 -0.29938,0.863912 -0.85536,1.479771 -0.55599,0.607305 -1.34292,0.940895 -0.77837,0.33359 -1.75348,0.33359 z m 0,-1.325807 q 0.64152,0 1.14618,-0.230946 0.51321,-0.230947 0.86391,-0.658627 0.35925,-0.436233 0.53888,-1.060645 0.18818,-0.624412 0.18818,-1.419896 0,-0.795484 -0.18818,-1.419896 -0.17963,-0.624412 -0.53888,-1.060646 -0.3507,-0.436233 -0.86391,-0.658626 -0.50466,-0.230947 -1.14618,-0.230947 -0.64152,0 -1.15474,0.230947 -0.50466,0.230947 -0.86391,0.66718 -0.3507,0.42768 -0.53888,1.052092 -0.17962,0.624412 -0.17962,1.419896 0,0.795484 0.18818,1.419896 0.18818,0.624412 0.53887,1.060645 0.3507,0.42768 0.85536,0.658627 0.51322,0.230946 1.15474,0.230946 z" font-family="SFNS Display" font-style="normal" font-variant="normal" font-weight="normal" text-anchor="start"/><path font-stretch="normal" style="-inkscape-font-specification:'SFNS Display';text-align:start" id="path4167" fill="#fff" fill-opacity="1" d="m 474.25776,86.47667 1.40279,0 0,1.496879 0.0342,0 q 0.10265,-0.359251 0.30793,-0.650073 0.21384,-0.299376 0.50466,-0.504662 0.29083,-0.205286 0.65008,-0.316483 0.3678,-0.111196 0.76982,-0.111196 0.13686,0 0.30793,0.01711 0.17107,0.01711 0.26516,0.04277 l 0,1.471217 q -0.0941,-0.04277 -0.33359,-0.06843 -0.2395,-0.03421 -0.43623,-0.03421 -0.45334,0 -0.82115,0.162518 -0.35925,0.153965 -0.62441,0.436233 -0.25661,0.282269 -0.40202,0.684288 -0.13686,0.402018 -0.13686,0.889573 l 0,5.705245 -1.48832,0 0,-9.220771 z" font-family="SFNS Display" font-style="normal" font-variant="normal" font-weight="normal" text-anchor="start"/><path font-stretch="normal" style="-inkscape-font-specification:'SFNS Display';text-align:start" id="path4169" fill="#fff" fill-opacity="1" d="m 485.50573,86.47667 1.81336,0 -4.02874,3.985974 4.14849,5.234797 -1.72782,0 -3.46421,-4.319563 -0.87247,0.821145 0,3.498418 -1.48832,0 0,-12.881707 1.48832,0 0,7.783767 4.13139,-4.122831 z" font-family="SFNS Display" font-style="normal" font-variant="normal" font-weight="normal" text-anchor="start"/></g></g></g></g></g></g></svg>