<svg xmlns="http://www.w3.org/2000/svg" xmlns:osb="http://www.openswatchbook.org/uri/2009/osb" xmlns:svg="http://www.w3.org/2000/svg" xmlns:xlink="http://www.w3.org/1999/xlink" id="svg5453" width="48" height="48" version="1.1"><defs id="defs5455"><linearGradient id="linearGradient4207" osb:paint="gradient"><stop id="stop3371" offset="0" stop-color="#3498db" stop-opacity="1"/><stop id="stop3373" offset="1" stop-color="#3498db" stop-opacity="0"/></linearGradient><linearGradient id="linearGradient6088"><stop id="stop6090" offset="0" stop-color="#1365f4" stop-opacity="1"/><stop id="stop6092" offset="1" stop-color="#05b2fc" stop-opacity="1"/></linearGradient><linearGradient id="linearGradient4232-2"><stop id="stop4234-0" offset="0" stop-color="#3889e9" stop-opacity="1"/><stop id="stop4236-5" offset="1" stop-color="#5ea5fb" stop-opacity="1"/></linearGradient><style id="current-color-scheme" type="text/css"/><style id="current-color-scheme-8" type="text/css"/><style id="current-color-scheme-7" type="text/css"/><style id="current-color-scheme-71" type="text/css"/><style id="current-color-scheme-8-4" type="text/css"/><style id="current-color-scheme-7-2" type="text/css"/><style id="current-color-scheme-2" type="text/css"/><style id="current-color-scheme-8-48" type="text/css"/><style id="current-color-scheme-7-5" type="text/css"/><style id="current-color-scheme-71-1" type="text/css"/><style id="current-color-scheme-8-4-7" type="text/css"/><style id="current-color-scheme-7-2-0" type="text/css"/><linearGradient id="linearGradient4422"><stop id="stop4424" offset="0" stop-color="#ff9300" stop-opacity="1"/><stop id="stop4426" offset="1" stop-color="#ffd702" stop-opacity="1"/></linearGradient><style id="current-color-scheme-27" type="text/css"/><style id="current-color-scheme-8-7" type="text/css"/><style id="current-color-scheme-7-6" type="text/css"/><style id="current-color-scheme-71-7" type="text/css"/><style id="current-color-scheme-8-4-6" type="text/css"/><style id="current-color-scheme-7-2-4" type="text/css"/><style id="current-color-scheme-2-9" type="text/css"/><style id="current-color-scheme-8-48-5" type="text/css"/><style id="current-color-scheme-7-5-8" type="text/css"/><style id="current-color-scheme-71-1-6" type="text/css"/><style id="current-color-scheme-8-4-7-3" type="text/css"/><style id="current-color-scheme-7-2-0-8" type="text/css"/><linearGradient id="linearGradient4868" x1="43.517" x2="42.84" y1="8.883" y2="-16.977" gradientTransform="matrix(1.0714286,0,0,1.0714286,35.341987,-15.307945)" gradientUnits="userSpaceOnUse" xlink:href="#linearGradient6088"/><linearGradient id="linearGradient4288"><stop id="stop4290" offset="0" stop-color="#ff3069" stop-opacity="1"/><stop id="stop4292" offset="1" stop-color="#ffa548" stop-opacity="1"/></linearGradient><clipPath id="clipPath4458-7-5-5"><path id="use4460-2-5-75" d="m 69.626,12.145 -0.052,0 c -22.727,-0.292 -46.472,4.077 -46.709,4.122 -2.424,0.451 -4.946,2.974 -5.397,5.397 -0.044,0.237 -4.414,23.983 -4.122,46.71 -0.292,22.777 4.078,46.523 4.122,46.761 0.451,2.423 2.974,4.945 5.398,5.398 0.237,0.044 23.982,4.413 46.709,4.121 22.779,0.292 46.524,-4.077 46.761,-4.121 2.423,-0.452 4.946,-2.976 5.398,-5.399 0.044,-0.236 4.413,-23.981 4.121,-46.709 0.292,-22.777 -4.077,-46.523 -4.121,-46.761 -0.453,-2.423 -2.976,-4.946 -5.398,-5.397 -0.238,-0.045 -23.984,-4.414 -46.71,-4.122 z"/></clipPath><linearGradient id="linearGradient5048" x1="26.378" x2="26.032" y1="22.209" y2="-3.319" gradientTransform="matrix(1.0714286,0,0,1.0714286,91.181521,6.9991986)" gradientUnits="userSpaceOnUse" xlink:href="#linearGradient4288"/><linearGradient id="linearGradient4868-8" x1="43.517" x2="42.84" y1="8.883" y2="-16.977" gradientTransform="matrix(2.0928658,0,0,2.0928658,8.2551471,6.3482822)" gradientUnits="userSpaceOnUse" xlink:href="#linearGradient4177"/><linearGradient id="linearGradient4177"><stop id="stop4179" offset="0" stop-color="#b7b7b8" stop-opacity="1"/><stop id="stop4181" offset="1" stop-color="#f0f0f0" stop-opacity="1"/></linearGradient><linearGradient id="linearGradient4227"><stop id="stop4229" offset="0" stop-color="#566069" stop-opacity="1"/><stop id="stop4231" offset="1" stop-color="#6c7884" stop-opacity="1"/></linearGradient></defs><metadata id="metadata5458"/><g id="layer1" transform="translate(-384.57143,-499.798)"><g id="g4244" transform="matrix(0.97906429,0,0,0.97906429,8.6512645,11.463887)"><g id="g4267" transform="translate(34.73826,5.1450388)"><g id="g4833" transform="translate(1.8133763e-5,-0.71495139)"><g id="g4932" transform="matrix(0.85743591,-0.19669509,0.19669509,0.85743591,-6.9063724,134.72534)"><g id="g4408" transform="matrix(1.1316545,0.25960061,-0.25960061,1.1316545,255.13211,468.55929)"><g id="g5216" transform="matrix(0.68171787,0,0,0.68171787,-1.055999,32.434141)"><path id="rect5300-4" fill="url(#linearGradient4868-8)" fill-opacity="1" stroke="none" d="m 76.109255,-29.686724 50.228775,0 c 2.3189,0 4.18575,1.866836 4.18575,4.185729 l 0,50.228779 c 0,2.318896 -1.86685,4.185732 -4.18575,4.185732 l -50.228775,0 c -2.318895,0 -4.185731,-1.866836 -4.185731,-4.185732 l 0,-50.228777 c 0,-2.318895 1.866836,-4.185731 4.185731,-4.185731 z"/><path id="rect5302" fill="url(#linearGradient5048)" fill-opacity="1" stroke="none" d="m 107.55604,2.1188853 25.71429,0 c 1.18714,0 2.14285,0.9557143 2.14285,2.1428572 l 0,25.7142865 c 0,1.187143 -0.95571,2.142857 -2.14285,2.142857 l -25.71429,0 c -1.18714,0 -2.14286,-0.955714 -2.14286,-2.142857 l 0,-25.7142865 c 0,-1.1871429 0.95572,-2.1428572 2.14286,-2.1428572 z"/><path id="rect5300" fill="url(#linearGradient4868)" fill-opacity="1" stroke="none" d="m 70.079442,-33.755825 25.714287,0 c 1.187143,0 2.142857,0.955714 2.142857,2.142857 l 0,25.7142858 c 0,1.1871429 -0.955714,2.1428574 -2.142857,2.1428574 l -25.714287,0 c -1.187143,0 -2.142857,-0.9557145 -2.142857,-2.1428574 l 0,-25.7142858 c 0,-1.187143 0.955714,-2.142857 2.142857,-2.142857 z"/><g font-family="sans-serif" style="line-height:125%" id="text5202" fill="#fff" fill-opacity=".847" stroke="none" stroke-linecap="butt" stroke-linejoin="miter" stroke-opacity="1" stroke-width="1" font-size="7.5" font-style="normal" font-weight="normal" letter-spacing="0" transform="matrix(4.5977012,0,0,4.5977012,-221.15571,212.17928)" word-spacing="0"><path id="path5207" fill="#fff" fill-opacity=".847" d="m 65.766483,-48.324389 q -0.585,0 -0.9825,-0.3375 -0.39,-0.3375 -0.39,-0.8925 0,-0.6 0.465,-0.9375 0.465,-0.345 1.1475,-0.345 0.6075,0 0.9975,0.225 l 0,-0.105 q 0,-0.405 -0.2775,-0.645 -0.2775,-0.2475 -0.6825,-0.2475 -0.3,0 -0.5475,0.1425 -0.24,0.1425 -0.33,0.39 l -0.63,-0.27 q 0.1275,-0.33 0.5025,-0.6075 0.375,-0.285 0.99,-0.285 0.705,0 1.17,0.4125 0.465,0.4125 0.465,1.1625 l 0,2.22 -0.66,0 0,-0.51 -0.03,0 q -0.4125,0.63 -1.2075,0.63 z m 0.1125,-0.63 q 0.4275,0 0.7725,-0.315 0.3525,-0.3225 0.3525,-0.7575 -0.2925,-0.24 -0.8775,-0.24 -0.5025,0 -0.7575,0.2175 -0.255,0.2175 -0.255,0.51 0,0.27 0.2325,0.4275 0.2325,0.1575 0.5325,0.1575 z" font-family="Product Sans" font-stretch="normal" font-style="normal" font-variant="normal" font-weight="normal" style="-inkscape-font-specification:'Product Sans'"/></g><g font-family="sans-serif" style="line-height:125%" id="text5209" fill="#fff" fill-opacity=".847" stroke="none" stroke-linecap="butt" stroke-linejoin="miter" stroke-opacity="1" stroke-width="1" font-size="7.5" font-style="normal" font-weight="normal" letter-spacing="0" transform="matrix(4.007286,0,0,4.007286,7.2611365,84.593404)" word-spacing="0"><path id="path5214" fill="#fff" fill-opacity=".847" d="m 28.569112,-14.097868 q -0.42,0 -0.7575,-0.18 -0.33,-0.18 -0.495,-0.45 l -0.03,0 0,0.51 -0.66,0 0,-5.37 0.69,0 0,1.695 -0.03,0.51 0.03,0 q 0.165,-0.27 0.495,-0.45 0.3375,-0.18 0.7575,-0.18 0.7125,0 1.23,0.5625 0.5175,0.5625 0.5175,1.395 0,0.8325 -0.5175,1.395 -0.5175,0.5625 -1.23,0.5625 z m -0.1125,-0.63 q 0.48,0 0.825,-0.36 0.345,-0.3675 0.345,-0.9675 0,-0.6 -0.345,-0.96 -0.345,-0.3675 -0.825,-0.3675 -0.4875,0 -0.8325,0.36 -0.3375,0.36 -0.3375,0.9675 0,0.6075 0.3375,0.9675 0.345,0.36 0.8325,0.36 z" font-family="Product Sans" font-stretch="normal" font-style="normal" font-variant="normal" font-weight="normal" style="-inkscape-font-specification:'Product Sans'"/></g></g></g></g></g></g></g></g><style id="style26" type="text/css"/><style id="style26-7" type="text/css"/><style id="style26-9" type="text/css"/><style id="style26-5" type="text/css"/><style id="style26-7-6" type="text/css"/><style id="style26-9-6" type="text/css"/><style id="style26-52" type="text/css"/><style id="style26-7-3" type="text/css"/><style id="style26-9-0" type="text/css"/><style id="style26-5-1" type="text/css"/><style id="style26-7-6-1" type="text/css"/><style id="style26-9-6-5" type="text/css"/><style id="style26-28" type="text/css"/><style id="style26-7-5" type="text/css"/><style id="style26-2" type="text/css"/><style id="style26-7-3-1" type="text/css"/><style id="style26-77" type="text/css"/><style id="style26-7-7" type="text/css"/></svg>