<svg xmlns="http://www.w3.org/2000/svg" xmlns:osb="http://www.openswatchbook.org/uri/2009/osb" xmlns:svg="http://www.w3.org/2000/svg" xmlns:xlink="http://www.w3.org/1999/xlink" id="svg5453" width="48" height="48" version="1.1"><defs id="defs5455"><linearGradient id="linearGradient4276" x1="408.248" x2="407.935" y1="547.602" y2="498.894" gradientUnits="userSpaceOnUse" xlink:href="#linearGradient4237-67"/><linearGradient id="linearGradient4318" x1="408.248" x2="407.935" y1="547.602" y2="498.894" gradientUnits="userSpaceOnUse" xlink:href="#linearGradient4237-67"/><linearGradient id="linearGradient4207" osb:paint="gradient"><stop id="stop3371" offset="0" stop-color="#3498db" stop-opacity="1"/><stop id="stop3373" offset="1" stop-color="#3498db" stop-opacity="0"/></linearGradient><linearGradient id="linearGradient4237-67"><stop id="stop4239-85" offset="0" stop-color="#833cfc" stop-opacity="1"/><stop id="stop4241-07" offset="1" stop-color="#f461d4" stop-opacity="1"/></linearGradient></defs><metadata id="metadata5458"/><g id="layer1" transform="translate(-384.57143,-499.798)"><g id="g6289" transform="matrix(1.0115489,0,0,1.0115489,-4.7462411,-6.1241971)"><rect id="rect4166" width="45.192" height="45.192" x="386.123" y="501.28" fill="url(#linearGradient4318)" fill-opacity="1" stroke="url(#linearGradient4276)" stroke-dasharray="none" stroke-miterlimit="4" stroke-opacity="1" stroke-width="2.26" opacity="1" ry="22.596"/><g id="g3" fill="#fff" fill-opacity=".847" opacity="1" transform="matrix(0.07020267,0,0,0.07020267,391.18861,509.4648)"><g id="g5" fill="#fff" fill-opacity=".847"><path id="path7" fill="#fff" fill-opacity=".847" d="m 296.003,284.517 -52.542,-30.805 c -2.865,0.345 -5.734,0.913 -8.59,1.73 -13.717,3.937 -33.557,15.227 -50.186,46.668 -13.202,24.961 -8.33,46.331 -4.031,65.187 4.108,18.023 7.354,32.259 -4.718,46.5 -1.187,1.399 -1.511,3.336 -0.845,5.047 0.419,1.076 1.188,1.952 2.15,2.512 0.571,0.33 1.21,0.551 1.885,0.637 30.535,3.836 76.235,-14.17 104.421,-62.771 12.802,-22.074 18.3,-43.299 15.902,-61.38 -0.624,-4.717 -1.796,-9.17 -3.446,-13.325 z"/><path id="path9" fill="#fff" fill-opacity=".847" d="m 418.939,11.153 c -10.538,-6.111 -24.009,-3.033 -30.847,7.05 -4.299,6.338 -105.41,155.47 -118.428,177.916 -6.509,11.224 -13.845,29.443 -19.947,46.1 l 52.542,30.805 c 11.443,-13.576 23.674,-29.061 30.275,-40.443 13.17,-22.708 92.25,-184.284 95.609,-191.151 5.357,-10.945 1.337,-24.166 -9.204,-30.277 z"/><path id="path11" fill="#fff" fill-opacity=".847" d="m 166.592,341.074 c -4.498,-1.502 -8.881,-2.384 -13.327,-2.657 -0.747,-0.046 -1.549,-0.069 -2.383,-0.069 -6.69,0 -15.097,1.466 -23.227,2.884 -7.245,1.265 -14.089,2.457 -18.864,2.457 -3.359,0 -4.52,-0.616 -4.895,-0.936 -4.059,-5.095 1.807,-18.923 4.318,-24.849 0.642,-1.512 1.148,-2.706 1.44,-3.559 4.072,-11.981 7.063,-24.737 1.425,-36.843 -4.687,-10.065 -15.643,-18.076 -27.824,-20.391 -3.548,-0.838 -7.62,-1.228 -12.816,-1.228 -4.277,0 -8.854,0.271 -13.281,0.534 -4.54,0.27 -9.235,0.548 -13.731,0.548 -15.464,0 -24.366,-3.528 -29.749,-11.769 -9.992,-15.865 2.009,-44.283 14.332,-56.117 0.758,-0.728 0.823,-1.918 0.149,-2.725 -0.675,-0.807 -1.857,-0.955 -2.708,-0.337 -15.781,11.433 -26.229,32.205 -25.406,50.514 0.439,9.764 4.197,23.327 19.612,32.506 8.298,4.94 21.718,5.98 34.696,6.986 12.768,0.989 25.971,2.013 30.04,6.977 1.066,1.301 1.472,2.876 1.233,4.859 -0.888,9.078 -5.293,18.018 -9.554,26.661 -8.047,16.327 -16.368,33.209 -1.986,51.944 12.631,16.451 29.399,16.451 46.625,16.331 1.41,-0.01 2.823,-0.02 4.235,-0.02 7.515,0 16.196,0.23 24.068,2.972 5.602,2.171 8.419,6.662 9.737,15.571 1.009,5.462 3.436,9.762 6.657,13 0.471,-2.511 1.577,-4.904 3.29,-6.927 8.458,-9.986 6.803,-19.319 2.577,-37.812 -1.962,-8.595 -4.137,-18.122 -4.683,-28.505 z"/></g></g></g></g></svg>