<svg xmlns="http://www.w3.org/2000/svg" xmlns:osb="http://www.openswatchbook.org/uri/2009/osb" xmlns:svg="http://www.w3.org/2000/svg" xmlns:xlink="http://www.w3.org/1999/xlink" id="svg5453" width="48" height="48" version="1.1" viewBox="0 0 48 48"><defs id="defs5455"><linearGradient id="linearGradient4222" x1="409.571" x2="409.571" y1="542.798" y2="507.798" gradientTransform="matrix(1.0523327,0,0,0.99815296,-21.151387,1.9217774)" gradientUnits="userSpaceOnUse" xlink:href="#linearGradient4143"/><linearGradient id="linearGradient4143"><stop id="stop4145" offset="0" stop-color="#197cf1" stop-opacity="1"/><stop id="stop4147" offset="1" stop-color="#20bcfa" stop-opacity="1"/></linearGradient><linearGradient id="linearGradient4207" osb:paint="gradient"><stop id="stop3371" offset="0" stop-color="#3498db" stop-opacity="1"/><stop id="stop3373" offset="1" stop-color="#3498db" stop-opacity="0"/></linearGradient></defs><metadata id="metadata5458"/><g id="layer1" transform="translate(-384.57143,-499.798)"><g id="g4200" transform="matrix(1.036658,0,0,1.036658,-15.137133,-18.895058)"><g id="layer1-07-4-5" fill="#20bafa" fill-opacity="1" transform="matrix(3.2730278,0,0,3.2949021,382.44527,-2918.4338)"><g id="layer1-0-1-2" fill="#20bafa" fill-opacity="1" stroke="none" stroke-opacity=".8" transform="matrix(0.90537551,0,0,0.90537551,-365.91682,562.06022)"><g id="g4956-2-0-8" fill="#20bafa" fill-opacity="1" stroke="none" stroke-opacity=".904" transform="matrix(0.05349368,0,0,0.05349368,440.48894,510.84577)"><g id="layer1-7-5-6-1-6-7" fill="#20bafa" fill-opacity="1" stroke="none" stroke-dasharray="none" stroke-miterlimit="4" stroke-opacity=".904" stroke-width="7.16" transform="matrix(2.6108213,0,0,2.6108213,-768.22476,390.2786)"><path id="rect8678-4-5-5-1-2-2-2" fill="#20bafa" fill-opacity="1" fill-rule="nonzero" stroke="none" stroke-dasharray="none" stroke-miterlimit="4" stroke-opacity=".904" stroke-width="7.16" d="m 43.886832,-36.6986 c -1.108,0 -1.999909,0.892 -1.999909,2 l 0,81.609112 110.999917,0.239943 0,-70.041215 c 0,-1.108 -0.892,-2.000005 -2,-2.000005 l -60.173559,0 c -2.038523,0.180281 -2.301118,-0.09046 -3.308458,-1.435069 -1.428506,-1.911776 -3.585547,-7.064534 -4.99187,-8.929393 -1.128792,-1.632735 -1.311871,-1.443378 -3.183935,-1.443378 z" color="#000" display="inline" enable-background="accumulate" overflow="visible" visibility="visible" style="marker:none"/></g></g></g></g><rect id="rect4195" width="46.303" height="33.937" x="385.65" y="508.782" fill="url(#linearGradient4222)" fill-opacity="1" stroke="none" stroke-dasharray="none" stroke-linecap="round" stroke-linejoin="round" stroke-miterlimit="4" stroke-opacity="1" stroke-width=".2" opacity="1" ry="1.597"/><g id="g4247" fill="#fff" fill-opacity="1" transform="matrix(0.83317883,0,0,0.83317883,116.47255,80.839499)"><circle id="path4224" cx="373.366" cy="518.737" r="2.25" fill="#fff" fill-opacity="1" stroke="none" stroke-dasharray="none" stroke-linecap="round" stroke-linejoin="round" stroke-miterlimit="4" stroke-opacity="1" stroke-width=".2" opacity="1"/><circle id="path4224-4" cx="367.839" cy="518.785" r="2.25" fill="#fff" fill-opacity="1" stroke="none" stroke-dasharray="none" stroke-linecap="round" stroke-linejoin="round" stroke-miterlimit="4" stroke-opacity="1" stroke-width=".2" opacity="1"/><circle id="path4224-8" cx="362.405" cy="518.838" r="2.25" fill="#fff" fill-opacity="1" stroke="none" stroke-dasharray="none" stroke-linecap="round" stroke-linejoin="round" stroke-miterlimit="4" stroke-opacity="1" stroke-width=".2" opacity="1"/></g><g id="layer1-3" transform="translate(-35.255106,2.4832225)"><g id="g4313" transform="translate(42.688261,5.2633756)"><g id="layer1-9" transform="translate(-42.527256,-5.8883759)"><g id="g4414" transform="matrix(0.83374987,0,0,0.83374987,123.84645,78.751136)"><path id="path5" fill="#fff" fill-opacity="1" d="m 376.04128,529.65611 c 0,-1.29584 1.05355,-2.34751 2.35256,-2.34751 1.29864,0 2.3522,1.05129 2.3522,2.34751 0,1.29698 -1.05356,2.34826 -2.3522,2.34826 -1.29901,-3.7e-4 -2.35256,-1.05128 -2.35256,-2.34826 z m 10.66716,0 c 0,-1.29584 1.0547,-2.34751 2.35334,-2.34751 1.29862,0 2.35256,1.05129 2.35256,2.34751 0,1.29698 -1.05355,2.34826 -2.35256,2.34826 -1.29826,-3.7e-4 -2.35334,-1.05128 -2.35334,-2.34826 z m 5.56217,9.61491 c -1.45798,3.36434 -4.87244,5.53808 -8.69892,5.53808 -3.90805,0 -7.34261,-2.18472 -8.75013,-5.5661 -0.24129,-0.57921 0.0338,-1.24398 0.6146,-1.48475 0.14265,-0.0587 0.29061,-0.0867 0.43629,-0.0867 0.44616,0 0.86956,0.26348 1.05128,0.70073 1.05355,2.53073 3.66296,4.16578 6.64796,4.16578 2.91747,0 5.5117,-1.63618 6.60927,-4.16881 0.24963,-0.5758 0.91962,-0.84118 1.49591,-0.59132 0.5778,0.24872 0.84338,0.91727 0.59374,1.49308 z"/></g></g></g></g></g></g></svg>