<svg xmlns="http://www.w3.org/2000/svg" xmlns:svg="http://www.w3.org/2000/svg" xmlns:xlink="http://www.w3.org/1999/xlink" id="svg5453" width="48" height="48" version="1.1" viewBox="0 0 48 48"><defs id="defs5455"><linearGradient id="linearGradient4471"><stop id="stop4473" offset="0" stop-color="#eff0f1" stop-opacity="1"/><stop id="stop4475" offset="1" stop-color="#ccd2d7" stop-opacity="1"/></linearGradient><linearGradient id="linearGradient4425"><stop id="stop4427" offset="0" stop-color="#957d75" stop-opacity="1"/><stop id="stop4429" offset="1" stop-color="#d1b0a4" stop-opacity="1"/></linearGradient><linearGradient id="linearGradient4417"><stop id="stop4419" offset="0" stop-color="#8a695e" stop-opacity="1"/><stop id="stop4421" offset="1" stop-color="#ae8679" stop-opacity="1"/></linearGradient><linearGradient id="linearGradient4237"><stop id="stop4239-95" offset="0" stop-color="#ff594d" stop-opacity="1"/><stop id="stop4241" offset="1" stop-color="#ff7f76" stop-opacity="1"/></linearGradient><linearGradient id="linearGradient4237-0"><stop id="stop4239-8" offset="0" stop-color="#ffee5e" stop-opacity="1"/><stop id="stop4241-9" offset="1" stop-color="#feff9f" stop-opacity="1"/></linearGradient><linearGradient id="linearGradient4423" x1="-105.877" x2="-107.78" y1="615.603" y2="440.531" gradientTransform="translate(-5.0745317,10.149063)" gradientUnits="userSpaceOnUse" xlink:href="#linearGradient4417"/><linearGradient id="linearGradient4431" x1="-39.968" x2="-35.952" y1="617.39" y2="437.244" gradientTransform="matrix(1,0,0,1.0053018,-5.0745317,7.577031)" gradientUnits="userSpaceOnUse" xlink:href="#linearGradient4425"/><linearGradient id="linearGradient4469" x1="-322.179" x2="-320.91" y1="509.989" y2="594.987" gradientTransform="matrix(1,0,0,1.0568833,-140.18395,-43.582025)" gradientUnits="userSpaceOnUse" xlink:href="#linearGradient4471"/><linearGradient id="linearGradient4469-0" x1="-322.734" x2="-320.91" y1="595.622" y2="510.623" gradientTransform="matrix(1.1422018,0,0,1,-85.07884,-71.683396)" gradientUnits="userSpaceOnUse" xlink:href="#linearGradient4237"/><linearGradient id="linearGradient4469-4" x1="-303.149" x2="-301.881" y1="591.816" y2="515.064" gradientTransform="matrix(1,0,0,1.0243785,-140.18391,-55.797369)" gradientUnits="userSpaceOnUse" xlink:href="#linearGradient4237-0"/></defs><metadata id="metadata5458"/><g id="layer1" transform="translate(-384.57143,-499.798)"><g id="layer1-07" transform="translate(434.65119,-503.074)"><g id="layer1-00" transform="translate(-401.01229,510.63371)"><g id="g5601" transform="matrix(0.84522514,0,0,0.84522514,54.937663,82.911835)"><g id="g4439" transform="translate(-0.15850414,3.4870911)"><g id="g4399" transform="matrix(0.96710883,0.25436294,-0.25436294,0.96710883,142.6391,-89.276947)"><g id="g4536" transform="translate(638.00805,-163.2137)"><g id="g4545" transform="matrix(0.27191582,-0.00298335,-0.00298335,0.26135756,-235.17754,507.40793)"><rect id="rect4413" width="207.421" height="179.512" x="-202.927" y="450.363" fill="url(#linearGradient4423)" fill-opacity="1" stroke="none" stroke-dasharray="none" stroke-dashoffset="0" stroke-linecap="round" stroke-linejoin="round" stroke-miterlimit="4" stroke-opacity="1" stroke-width="5.2" opacity="1" ry="8.5" transform="matrix(0.96710884,-0.25436294,0.25436294,0.96710884,-115.97249,119.20991)"/><g id="g4525" transform="matrix(0.96710884,-0.25436294,0.25436294,0.96710884,225.27216,59.800146)"><rect id="rect4461-5" width="157.945" height="86.267" x="-527.697" y="439.574" fill="url(#linearGradient4469-0)" fill-opacity="1" stroke="none" stroke-dasharray="none" stroke-dashoffset="0" stroke-linecap="round" stroke-linejoin="round" stroke-miterlimit="4" stroke-opacity="1" stroke-width="6.152" opacity="1" ry="8"/><rect id="rect4461-3" width="138.281" height="88.37" x="-527.697" y="467.924" fill="url(#linearGradient4469-4)" fill-opacity="1" stroke="none" stroke-dasharray="none" stroke-dashoffset="0" stroke-linecap="round" stroke-linejoin="round" stroke-miterlimit="4" stroke-opacity="1" stroke-width="6.152" opacity="1" ry="8.195"/><rect id="rect4461" width="138.281" height="91.174" x="-527.697" y="496.758" fill="url(#linearGradient4469)" fill-opacity="1" stroke="none" stroke-dasharray="none" stroke-dashoffset="0" stroke-linecap="round" stroke-linejoin="round" stroke-miterlimit="4" stroke-opacity="1" stroke-width="6.152" opacity="1" ry="8.455"/></g><path id="path4415" fill="url(#linearGradient4431)" fill-opacity="1" fill-rule="evenodd" stroke="none" stroke-linecap="butt" stroke-linejoin="miter" stroke-opacity="1" stroke-width="1.179" d="m -173.1716,629.76403 150.972511,-179.279 15.2240993,0 c 15.054825,-0.10479 12.052449,12.03635 12.052449,12.03635 l 0,153.30573 c 0.04658,17.095 -13.321125,13.93695 -13.321125,13.93695 z" transform="matrix(0.96710884,-0.25436294,0.25436294,0.96710884,-115.97249,119.20991)"/><path id="path5692_1_" fill="#7e6056" fill-opacity="1" stroke="none" stroke-opacity=".8" d="m 1.6784095,689.64468 -5.6128884,2.02096 6.1333959,24.21543 5.4719425,-2.31917 -2.614964,-10.32421 10.5637735,9.51701 5.509019,-3.46449 -10.636955,-9.03077 5.277618,-12.38684 -6.487726,0.11697 -4.9701322,12.30908 -2.6329586,-10.65376 z m -11.5544588,9.203 c -0.063576,0.0219 -0.1297567,0.0574 -0.1657727,0.12168 l -1.677732,2.88327 c -0.07017,0.12148 -0.04438,0.27335 0.05268,0.37405 l 3.7736807,3.79012 c -0.2653635,0.92475 -0.427686,1.88582 -0.4638911,2.87031 l -4.5973836,2.25846 c -0.127717,0.0631 -0.19343,0.21896 -0.157625,0.36033 l 0.827125,3.26559 c 0.03492,0.13789 0.16771,0.23017 0.307125,0.22991 l 5.0064721,-0.0231 c 0.5208059,0.99756 1.167138,1.91468 1.9164837,2.70944 l -1.6551947,4.93568 c -0.046195,0.13815 0.00909,0.29239 0.1349575,0.36676 l 2.8484162,1.73876 c 0.1200301,0.0727 0.2694481,0.0479 0.3667535,-0.0498 l 3.60897135,-3.7324 c 0.96493015,0.28274 1.97418765,0.4493 2.99853325,0.47126 l 2.2369436,4.64641 c 0.063363,0.13131 0.2049929,0.2017 0.3434234,0.1667 l 3.1978148,-0.80863 c 0.1344773,-0.034 0.2276338,-0.15516 0.2257865,-0.29775 l -0.066289,-5.22203 c 0.9186208,-0.52146 1.7473718,-1.16064 2.4774418,-1.89607 l 4.934447,1.75925 c 0.135977,0.0478 0.286443,-0.006 0.358717,-0.1337 l 1.665474,-2.88016 c 0.07078,-0.12166 0.05666,-0.27709 -0.04135,-0.37693 l -2.192759,-2.19855 -0.46263,0.29073 c -0.06703,0.0415 -0.156052,0.0271 -0.215772,-0.0259 -5.6e-5,2e-5 -1.340696,-1.21329 -3.087883,-2.78743 -0.748569,3.41189 -3.3151415,6.26416 -6.8752391,7.1644 -5.05888514,1.27922 -10.2246164,-1.87403 -11.5330929,-7.04006 -0.9624803,-3.79999 0.4361411,-7.62643 3.2517345,-9.89661 l -0.6107871,-2.41151 c -0.5275192,0.35379 -1.0243503,0.74586 -1.4818706,1.17663 -0.00111,-4e-4 -0.00198,-0.0118 -0.00289,-0.0115 l -5.0488168,-1.79711 c -0.068433,-0.0258 -0.1309297,-0.0161 -0.194986,0.006 z" display="inline"/></g></g></g></g></g></g></g></g></svg>