<svg xmlns="http://www.w3.org/2000/svg" xmlns:osb="http://www.openswatchbook.org/uri/2009/osb" xmlns:svg="http://www.w3.org/2000/svg" xmlns:xlink="http://www.w3.org/1999/xlink" id="svg5453" width="48" height="48" version="1.1"><defs id="defs5455"><linearGradient id="linearGradient4300-2" x1="17" x2="17" y1="1036.362" y2="1012.362" gradientTransform="matrix(1.0309825,0,0,1,-0.512598,0)" gradientUnits="userSpaceOnUse" xlink:href="#linearGradient4294"/><linearGradient id="linearGradient4294"><stop id="stop4296" offset="0" stop-color="#2f74c8" stop-opacity="1"/><stop id="stop4298" offset="1" stop-color="#50aff7" stop-opacity="1"/></linearGradient><linearGradient id="linearGradient4308" x1="33.462" x2="34.117" y1="1013.622" y2="1037.208" gradientTransform="matrix(0.68964436,0,0,1,10.82717,0)" gradientUnits="userSpaceOnUse" xlink:href="#linearGradient4320"/><linearGradient id="linearGradient4286" x1="28" x2="28" y1="1037.362" y2="1011.362" gradientTransform="translate(-0.199659,0)" gradientUnits="userSpaceOnUse" xlink:href="#linearGradient4288"/><linearGradient id="linearGradient4288"><stop id="stop4290" offset="0" stop-color="#2862a6" stop-opacity="1"/><stop id="stop4292" offset="1" stop-color="#4192da" stop-opacity="1"/></linearGradient><linearGradient id="linearGradient4320"><stop id="stop4322" offset="0" stop-color="#f6fbff" stop-opacity="1"/><stop id="stop4324" offset="1" stop-color="#eaeff2" stop-opacity="1"/></linearGradient><linearGradient id="linearGradient4207" osb:paint="gradient"><stop id="stop3371" offset="0" stop-color="#3498db" stop-opacity="1"/><stop id="stop3373" offset="1" stop-color="#3498db" stop-opacity="0"/></linearGradient></defs><metadata id="metadata5458"/><g id="layer1" transform="translate(-384.57143,-499.798)"><g id="g4191" transform="matrix(1.1526351,0,0,1.1526351,-63.860194,-81.062641)"><g id="g4289" fill="none" stroke="#000" stroke-opacity="1" transform="translate(-0.39992119,0.79950441)"><g id="g4496" transform="translate(48.790367,2.4748737)"><g id="layer1-6" transform="translate(-49.245446,-2.3506483)"><g id="g4414" transform="matrix(1.5263052,0,0,1.5263052,376.49864,-1040.1735)"><path id="path4248" fill="url(#linearGradient4300-2)" fill-opacity="1" fill-rule="evenodd" stroke="none" stroke-linecap="butt" stroke-linejoin="miter" stroke-opacity="1" stroke-width="1" d="m 11.563303,1036.9442 11.636697,0 -3.21e-4,-24.4983 -11.533282,3e-4 c -1.268259,-0.094 -1.782566,0.023 -1.782566,1.1721 l 0,22.0916 c -0.07966,1.261 0.446208,1.2343 1.679472,1.2343 z" opacity="1"/><path id="path4248-6" fill="url(#linearGradient4308)" fill-opacity="1" fill-rule="evenodd" stroke="none" stroke-linecap="butt" stroke-linejoin="miter" stroke-opacity="1" stroke-width="1" d="m 33.959911,1036.9362 -7.990815,0 0,-24.498 7.990815,0 c 0.848365,-0.094 0.916631,0.023 0.916631,1.1721 l 0,22.0916 c 0.05328,1.261 -0.09168,1.2343 -0.916631,1.2343 z" opacity="1"/><path id="path4248-6-0" fill="url(#linearGradient4286)" fill-opacity="1" fill-rule="evenodd" stroke="none" stroke-linecap="butt" stroke-linejoin="miter" stroke-opacity="1" stroke-width="1" d="M 31.957586,1038.1035 21.928,1036.932 l -2e-5,-24.4861 9.945926,-0.9324 c 1.230149,-0.094 1.296492,0.2446 1.296492,1.3937 l -0.08368,23.3688 c 0.07726,1.261 0.06707,1.8275 -1.129132,1.8275 z" opacity="1"/></g></g><g id="g4300" stroke="#fff" stroke-dasharray="none" stroke-miterlimit="4" stroke-opacity="1" stroke-width="1.872" transform="matrix(0.57380653,0,0,0.57380653,125.0066,221.75671)"><path id="path3079-0" fill="none" stroke="#fff" stroke-dasharray="none" stroke-linecap="butt" stroke-linejoin="miter" stroke-miterlimit="4" stroke-opacity="1" stroke-width="1.394" d="m 389.57143,524.29002 c 13.00545,0 15.77175,14.97339 21.511,15.01587 5.73924,0.0423 5.48353,-15.01587 18.489,-15.01587"/><path id="path4572" fill="none" stroke="#fff" stroke-dasharray="none" stroke-linecap="butt" stroke-linejoin="miter" stroke-miterlimit="4" stroke-opacity="1" stroke-width="1.394" d="m 389.57143,523.30598 c 13.00545,0 15.77175,-10.2735 21.511,-10.31598 5.73924,-0.0423 5.48353,10.31598 18.489,10.31598"/><path id="path4566" fill="none" stroke="#fff" stroke-dasharray="none" stroke-linecap="butt" stroke-linejoin="miter" stroke-miterlimit="4" stroke-opacity="1" stroke-width="1.394" d="m 389.57143,522.08521 c 13.00545,0 15.77175,-14.97339 21.511,-15.01587 5.73924,-0.0423 5.48353,15.01587 18.489,15.01587"/><path id="path4298" fill="none" fill-rule="evenodd" stroke="#fff" stroke-dasharray="none" stroke-linecap="butt" stroke-linejoin="miter" stroke-miterlimit="4" stroke-opacity="1" stroke-width="1.394" d="m 387.04988,523.78239 44.92372,0"/></g></g></g></g></g></svg>