<svg xmlns="http://www.w3.org/2000/svg" xmlns:svg="http://www.w3.org/2000/svg" xmlns:xlink="http://www.w3.org/1999/xlink" id="svg5453" width="48" height="48" version="1.1"><defs id="defs5455"><linearGradient id="linearGradient5363"><stop id="stop5365" offset="0" stop-color="#8e44ad" stop-opacity="1"/><stop id="stop5367" offset="1" stop-color="#c370e5" stop-opacity="1"/></linearGradient><linearGradient id="linearGradient5232"><stop id="stop5234" offset="0" stop-color="#84499f" stop-opacity="1"/><stop id="stop5236" offset="1" stop-color="#a85ccb" stop-opacity="1"/></linearGradient><linearGradient id="linearGradient4320"><stop id="stop4322" offset="0" stop-color="#f6fbff" stop-opacity="1"/><stop id="stop4324" offset="1" stop-color="#eaeff2" stop-opacity="1"/></linearGradient><linearGradient id="linearGradient4537" x1="17" x2="17" y1="1036.362" y2="1012.362" gradientTransform="matrix(1.0309825,0,0,1,-0.512598,0)" gradientUnits="userSpaceOnUse" xlink:href="#linearGradient5363"/><linearGradient id="linearGradient4308-5" x1="33.462" x2="34.117" y1="1013.622" y2="1037.208" gradientTransform="matrix(0.75298225,0,0,1,8.6175433,0)" gradientUnits="userSpaceOnUse" xlink:href="#linearGradient4320"/><linearGradient id="linearGradient4539" x1="28" x2="28" y1="1037.362" y2="1011.362" gradientTransform="translate(-0.199659,0)" gradientUnits="userSpaceOnUse" xlink:href="#linearGradient5232"/><linearGradient id="linearGradient5387" x1="15.891" x2="25.063" y1="1031.199" y2="1020.061" gradientTransform="matrix(1.1546659,0,0,1.1546659,-3.1173661,-158.14781)" gradientUnits="userSpaceOnUse" xlink:href="#linearGradient4320"/></defs><metadata id="metadata5458"/><g id="layer1" transform="translate(-384.57143,-499.798)"><g id="g4231" transform="matrix(1.5263052,0,0,1.5263052,376.31698,-1040.1258)"><g id="g5458" transform="translate(-1.048506,0)"><g id="g4179" transform="matrix(1.1526351,0,0,1.1526351,-3.6668875,-156.46452)"><path id="path4248-6-8" fill="url(#linearGradient4308-5)" fill-opacity="1" fill-rule="evenodd" stroke="none" stroke-linecap="butt" stroke-linejoin="miter" stroke-opacity="1" stroke-width="1" d="m 33.874827,1036.9362 -8.724702,0 0,-24.498 8.724702,0 c 0.92628,-0.094 1.000816,0.023 1.000816,1.1721 l 0,22.0916 c 0.05818,1.261 -0.100097,1.2343 -1.000816,1.2343 z" opacity="1"/><path id="path4248-0" fill="url(#linearGradient4537)" fill-opacity="1" fill-rule="evenodd" stroke="none" stroke-linecap="butt" stroke-linejoin="miter" stroke-opacity="1" stroke-width="1" d="m 11.563303,1036.9442 11.636697,0 0,-24.498 -11.533603,0 c -1.268259,-0.094 -1.782566,0.023 -1.782566,1.1721 l 0,22.0916 c -0.07966,1.261 0.446208,1.2343 1.679472,1.2343 z" opacity="1"/><path id="path4248-6-0-3" fill="url(#linearGradient4539)" fill-opacity="1" fill-rule="evenodd" stroke="none" stroke-linecap="butt" stroke-linejoin="miter" stroke-opacity="1" stroke-width="1" d="M 31.957586,1038.1035 21.928,1036.932 l 0,-24.4859 9.945906,-0.9326 c 1.230149,-0.094 1.296492,0.2446 1.296492,1.3937 l -0.08368,23.3688 c 0.07726,1.261 0.06707,1.8275 -1.129132,1.8275 z" opacity="1"/><path id="path11" fill="url(#linearGradient5387)" fill-opacity="1" d="m 26.70051,1020.9822 c 0.03298,-0.091 0.05629,-0.1835 0.05629,-0.2818 0,-1.2057 -2.605286,-1.8561 -5.057176,-1.8561 -2.449464,0 -5.054052,0.6504 -5.054052,1.8561 0,0.099 0.02287,0.1916 0.0562,0.2826 l -0.01305,0.024 c -0.112072,0.2032 -0.167476,0.4084 -0.167476,0.6104 l 0,1.4918 c 0,0.2297 0.07226,0.4502 0.200413,0.6587 l -0.01674,0.029 c -0.122191,0.2119 -0.18357,0.4265 -0.18357,0.6387 l 0,1.4914 c 0,0.2224 0.06821,0.4359 0.18939,0.6386 l -0.0061,0.013 c -0.122191,0.2115 -0.18357,0.4265 -0.18357,0.6382 l 0,1.4917 c 0,1.3259 2.274708,2.3641 5.178398,2.3641 2.906823,0 5.181523,-1.0382 5.181523,-2.3641 l 0,-1.4917 c 0,-0.212 -0.06147,-0.4274 -0.185091,-0.6386 l -0.0051,-0.013 c 0.120254,-0.2031 0.190157,-0.4164 0.190157,-0.6393 l 0,-1.4916 c 0,-0.2122 -0.06147,-0.4277 -0.185089,-0.6392 l -0.01606,-0.028 c 0.128028,-0.2087 0.201113,-0.4289 0.201113,-0.6594 l 0,-1.4917 c 0,-0.2019 -0.05629,-0.4076 -0.167478,-0.611 l -0.0132,-0.024 z m -0.37441,7.7211 c 0,0.8565 -1.89877,1.8096 -4.626391,1.8096 -2.725049,0 -4.624163,-0.9531 -4.624163,-1.8096 l 0,-1.4029 c 0.850425,0.7788 2.60002,1.2758 4.624163,1.2758 2.026924,0 3.77645,-0.4972 4.626391,-1.2766 l 0,1.4037 z m 0,-2.7775 c 0,0.8557 -1.89877,1.8094 -4.626391,1.8094 -2.725049,0 -4.624163,-0.9537 -4.624163,-1.8094 l 0,-1.4033 c 0.850425,0.7785 2.60002,1.2758 4.624163,1.2758 2.026924,0 3.77645,-0.4973 4.626391,-1.2766 l 0,1.4041 z m 0,-2.8178 c 0,0.8557 -1.89877,1.8095 -4.626391,1.8095 -2.725049,0 -4.624163,-0.9533 -4.624163,-1.8095 l 0,-1.2414 c 0.831077,0.7044 2.75813,1.0696 4.624163,1.0696 1.868527,0 3.794761,-0.3652 4.626391,-1.0696 l 0,1.2414 z"/></g></g></g></g></svg>