<svg xmlns="http://www.w3.org/2000/svg" xmlns:osb="http://www.openswatchbook.org/uri/2009/osb" xmlns:svg="http://www.w3.org/2000/svg" xmlns:xlink="http://www.w3.org/1999/xlink" id="svg3070" width="48" height="48" version="1.1"><defs id="defs3072"><linearGradient id="linearGradient4207" osb:paint="gradient"><stop id="stop3371" offset="0" stop-color="#3498db" stop-opacity="1"/><stop id="stop3373" offset="1" stop-color="#3498db" stop-opacity="0"/></linearGradient><linearGradient id="linearGradient5237" x1="423.61" x2="422.89" y1="577.754" y2="530.684" gradientTransform="matrix(1.0110355,0,0,1.0110355,-4.6745045,-6.1248043)" gradientUnits="userSpaceOnUse" xlink:href="#linearGradient4335"/><linearGradient id="linearGradient3040"><stop id="stop3042" offset="0" stop-color="#ffebeb" stop-opacity="1"/><stop id="stop3044" offset="1" stop-color="#ffd7d7" stop-opacity="1"/></linearGradient><linearGradient id="linearGradient3764" x1="1" x2="47" gradientTransform="matrix(0,-1,1,0,-1.5e-6,47.999998)" gradientUnits="userSpaceOnUse"><stop id="stop7" stop-color="#1791d1" stop-opacity="1"/><stop id="stop9" offset="1" stop-color="#19a0e3" stop-opacity="1"/></linearGradient><clipPath id="clipPath-617306126"><g id="g12" transform="translate(0,-1004.3622)"><path id="path14" fill="#1890d0" d="m -24 13 c 0 1.105 -0.672 2 -1.5 2 -0.828 0 -1.5 -0.895 -1.5 -2 0 -1.105 0.672 -2 1.5 -2 0.828 0 1.5 0.895 1.5 2 z" transform="matrix(15.333333,0,0,11.5,414.99999,878.8622)"/></g></clipPath><clipPath id="clipPath-626667287"><g id="g17" transform="translate(0,-1004.3622)"><path id="path19" fill="#1890d0" d="m -24 13 c 0 1.105 -0.672 2 -1.5 2 -0.828 0 -1.5 -0.895 -1.5 -2 0 -1.105 0.672 -2 1.5 -2 0.828 0 1.5 0.895 1.5 2 z" transform="matrix(15.333333,0,0,11.5,414.99999,878.8622)"/></g></clipPath><linearGradient id="linearGradient8467-5"><stop id="stop8469-7" offset="0" stop-color="#d3d3d3" stop-opacity="1"/><stop id="stop8471-0" offset="1" stop-color="#fcf9f9" stop-opacity="1"/></linearGradient><clipPath id="clipPath16" clipPathUnits="userSpaceOnUse"><path id="path18" d="m 0,706.465 1490.926,0 L 1490.926,0 0,0 0,706.465 Z"/></clipPath><clipPath id="clipPath24" clipPathUnits="userSpaceOnUse"><path id="path26" d="m 22.1953,686.117 1447.7347,0 0,-667.1902 -1447.7347,0 0,667.1902 z"/></clipPath><clipPath id="clipPath4534" clipPathUnits="userSpaceOnUse"><rect id="rect4536" width="32" height="32" x="8" y="8" fill="url(#linearGradient4538)" fill-opacity="1" stroke="none" ry="16"/></clipPath><clipPath id="clipPath4584" clipPathUnits="userSpaceOnUse"><rect id="rect4586" width="32" height="32" x="392.571" y="507.798" fill="url(#linearGradient4588)" fill-opacity="1" stroke="none" ry="16"/></clipPath><clipPath id="clipPath4550" clipPathUnits="userSpaceOnUse"><rect id="rect4552" width="32" height="32" x="392.571" y="507.798" fill="url(#linearGradient4554)" fill-opacity="1" stroke="none" ry="16"/></clipPath><clipPath id="clipPath4568" clipPathUnits="userSpaceOnUse"><rect id="rect4570" width="32" height="32" x="392.571" y="507.798" fill="url(#linearGradient4572)" fill-opacity="1" stroke="none" ry="16"/></clipPath><clipPath id="clipPath4528" clipPathUnits="userSpaceOnUse"><rect id="rect4530" width="32" height="32" x="8" y="8" fill="url(#linearGradient4532)" fill-opacity="1" stroke="none" ry="16"/></clipPath><clipPath id="clipPath4578" clipPathUnits="userSpaceOnUse"><rect id="rect4580" width="32" height="32" x="392.571" y="507.798" fill="url(#linearGradient4582)" fill-opacity="1" stroke="none" ry="16"/></clipPath><clipPath id="clipPath4562" clipPathUnits="userSpaceOnUse"><rect id="rect4564" width="32" height="32" x="392.571" y="507.798" fill="url(#linearGradient4566)" fill-opacity="1" stroke="none" ry="16"/></clipPath><clipPath id="clipPath4544" clipPathUnits="userSpaceOnUse"><rect id="rect4546" width="32" height="32" x="392.571" y="507.798" fill="url(#linearGradient4548)" fill-opacity="1" stroke="none" ry="16"/></clipPath><clipPath id="clipPath4390" clipPathUnits="userSpaceOnUse"><rect id="rect4392" width="32" height="32" x="8" y="8" fill="url(#linearGradient4532)" fill-opacity="1" stroke="none" ry="16"/></clipPath><clipPath id="clipPath4407" clipPathUnits="userSpaceOnUse"><rect id="rect4409" width="32" height="32" x="392.571" y="507.798" fill="url(#linearGradient4582)" fill-opacity="1" stroke="none" ry="16"/></clipPath><clipPath id="clipPath4424" clipPathUnits="userSpaceOnUse"><rect id="rect4426" width="32" height="32" x="392.571" y="507.798" fill="url(#linearGradient4566)" fill-opacity="1" stroke="none" ry="16"/></clipPath><clipPath id="clipPath4441" clipPathUnits="userSpaceOnUse"><rect id="rect4443" width="32" height="32" x="392.571" y="507.798" fill="url(#linearGradient4548)" fill-opacity="1" stroke="none" ry="16"/></clipPath><clipPath id="clipPath4528-1" clipPathUnits="userSpaceOnUse"><rect id="rect4530-7" width="32" height="32" x="8" y="8" fill="url(#linearGradient4532)" fill-opacity="1" stroke="none" ry="16"/></clipPath><clipPath id="clipPath4578-8" clipPathUnits="userSpaceOnUse"><rect id="rect4580-7" width="32" height="32" x="392.571" y="507.798" fill="url(#linearGradient4582)" fill-opacity="1" stroke="none" ry="16"/></clipPath><clipPath id="clipPath4562-8" clipPathUnits="userSpaceOnUse"><rect id="rect4564-8" width="32" height="32" x="392.571" y="507.798" fill="url(#linearGradient4566)" fill-opacity="1" stroke="none" ry="16"/></clipPath><clipPath id="clipPath4544-1" clipPathUnits="userSpaceOnUse"><rect id="rect4546-1" width="32" height="32" x="392.571" y="507.798" fill="url(#linearGradient4548)" fill-opacity="1" stroke="none" ry="16"/></clipPath><linearGradient id="linearGradient4232"><stop id="stop4234-0" offset="0" stop-color="#3889e9" stop-opacity="1"/><stop id="stop4236" offset="1" stop-color="#5ea5fb" stop-opacity="1"/></linearGradient><linearGradient id="linearGradient4335"><stop id="stop4338" offset="0" stop-color="#981fe7" stop-opacity="1"/><stop id="stop4340" offset="1" stop-color="#db50c8" stop-opacity="1"/></linearGradient></defs><metadata id="metadata3075"/><g id="layer1" transform="translate(0,-1004.3622)"><g id="g4834" transform="matrix(0.92825149,-0.00399164,0.00399164,0.92825149,-1.6884203,74.696618)"><g id="g4300" transform="matrix(0.9493552,-0.31420489,0.31420489,0.9493552,-322.17252,59.718675)"><g id="g4366" transform="translate(61.478649,17.667143)"><g id="g4375" transform="matrix(0.23687962,-0.0242292,0.0242292,0.23687962,-39.613973,771.51877)"><g id="g4384" transform="matrix(0.99977561,-0.02118335,0.02118335,0.99977561,-21.155468,-1.6912184)"><g id="g4305" transform="matrix(0.9990508,0.04356037,-0.04356037,0.9990508,41.345981,3.1860924)"><g id="g5310" transform="translate(296.78591,-127.65861)"><g id="layer1-7" transform="matrix(4.1609505,1.7762185,-1.7762185,4.1609505,-740.24273,-1766.5135)"><g id="g9071" transform="matrix(0.99781204,0,0,0.99781204,-46.020998,3.4402238)"><g id="g9288" transform="matrix(0.90653719,0,0,0.90653719,-14.679025,51.872558)"><g id="g9538" fill="#fff" fill-opacity=".855" transform="matrix(0.618661,0,0,0.618661,161.6658,243.04786)"><g id="g5572" fill="#fff" fill-opacity=".855" transform="matrix(0.4441238,0,0,0.4441238,261.44216,227.63922)"><g id="g4332" transform="matrix(1.0434783,0,0,1.0434783,-15.852122,-27.079212)"><circle id="path4834" cx="423.588" cy="555.008" r="25.427" fill="url(#linearGradient5237)" fill-opacity="1" fill-rule="evenodd" stroke="none" stroke-dasharray="none" stroke-dashoffset="0" stroke-linecap="round" stroke-linejoin="round" stroke-miterlimit="4" stroke-opacity="1" stroke-width=".555" opacity="1" transform="matrix(3.6395125,0,0,3.6395125,-1177.0543,-1397.1338)"/></g><g id="g4462" transform="matrix(4.0235448,0,0,4.0235448,67.040221,551.95877)"><g id="g4486" transform="matrix(1.1095785,0,0,1.1095785,47.453812,-8.7143221)"><circle id="path3249" cx="23.884" cy="23.907" r="16.222" fill="#fff" fill-opacity=".847" stroke="none"/></g><path id="path3247" fill="#b836d8" fill-opacity="1" stroke="#b836d8" stroke-linecap="round" stroke-linejoin="round" stroke-opacity="1" d="m 68.054623,11.012429 13,7 -13,7 z"/></g></g><g id="layer1-72" fill="#fff" fill-opacity=".855" transform="matrix(3.6933757,0,0,3.6933757,-831.37221,-1173.1561)"><g id="layer1-6" fill="#fff" fill-opacity=".855" transform="matrix(0.74074058,0,0,0.74074058,40.280481,151.43784)"><rect id="rect4035" width="0" height="16.5" x="327.869" y="522.229" fill="#fff" fill-opacity=".855" stroke="none"/><rect id="rect4035-5" width="0" height="16.5" x="354.93" y="519.152" fill="#fff" fill-opacity=".855" stroke="none"/><rect id="rect4035-8" width="0" height="16.5" x="327.869" y="522.229" fill="#fff" fill-opacity=".855" stroke="none"/><rect id="rect4035-59" width="0" height="16.5" x="327.869" y="522.229" fill="#fff" fill-opacity=".855" stroke="none"/><rect id="rect4035-6" width="0" height="16.5" x="316.907" y="514.977" fill="#fff" fill-opacity=".855" stroke="none"/><rect id="rect4035-5-1" width="0" height="16.5" x="343.968" y="511.9" fill="#fff" fill-opacity=".855" stroke="none"/><rect id="rect4035-8-3" width="0" height="16.5" x="316.907" y="514.977" fill="#fff" fill-opacity=".855" stroke="none"/><rect id="rect4035-59-4" width="0" height="16.5" x="316.907" y="514.977" fill="#fff" fill-opacity=".855" stroke="none"/><rect id="rect4035-1" width="0" height="16.5" x="325.93" y="521.301" fill="#fff" fill-opacity=".855" stroke="none"/><rect id="rect4035-5-0" width="0" height="16.5" x="352.991" y="518.224" fill="#fff" fill-opacity=".855" stroke="none"/><rect id="rect4035-8-1" width="0" height="16.5" x="325.93" y="521.301" fill="#fff" fill-opacity=".855" stroke="none"/><rect id="rect4035-59-1" width="0" height="16.5" x="325.93" y="521.301" fill="#fff" fill-opacity=".855" stroke="none"/><rect id="rect4035-7" width="0" height="16.5" x="327.869" y="522.229" fill="#fff" fill-opacity=".855" stroke="none"/><rect id="rect4035-5-7" width="0" height="16.5" x="354.93" y="519.152" fill="#fff" fill-opacity=".855" stroke="none"/><rect id="rect4035-8-16" width="0" height="16.5" x="327.869" y="522.229" fill="#fff" fill-opacity=".855" stroke="none"/><rect id="rect4035-59-18" width="0" height="16.5" x="327.869" y="522.229" fill="#fff" fill-opacity=".855" stroke="none"/><rect id="rect4035-6-5" width="0" height="16.5" x="316.907" y="514.977" fill="#fff" fill-opacity=".855" stroke="none"/><rect id="rect4035-5-1-8" width="0" height="16.5" x="343.968" y="511.9" fill="#fff" fill-opacity=".855" stroke="none"/><rect id="rect4035-8-3-8" width="0" height="16.5" x="316.907" y="514.977" fill="#fff" fill-opacity=".855" stroke="none"/><rect id="rect4035-59-4-7" width="0" height="16.5" x="316.907" y="514.977" fill="#fff" fill-opacity=".855" stroke="none"/><rect id="rect4035-1-7" width="0" height="16.5" x="325.93" y="521.301" fill="#fff" fill-opacity=".855" stroke="none"/><rect id="rect4035-5-0-8" width="0" height="16.5" x="352.991" y="518.224" fill="#fff" fill-opacity=".855" stroke="none"/><rect id="rect4035-8-1-0" width="0" height="16.5" x="325.93" y="521.301" fill="#fff" fill-opacity=".855" stroke="none"/><rect id="rect4035-59-1-3" width="0" height="16.5" x="325.93" y="521.301" fill="#fff" fill-opacity=".855" stroke="none"/><rect id="rect4035-0" width="0" height="16.5" x="324.071" y="527.298" fill="#fff" fill-opacity=".855" stroke="none"/><rect id="rect4035-5-5" width="0" height="16.5" x="351.133" y="524.221" fill="#fff" fill-opacity=".855" stroke="none"/><rect id="rect4035-8-6" width="0" height="16.5" x="324.071" y="527.298" fill="#fff" fill-opacity=".855" stroke="none"/><rect id="rect4035-59-11" width="0" height="16.5" x="324.071" y="527.298" fill="#fff" fill-opacity=".855" stroke="none"/><rect id="rect4035-9" width="0" height="16.5" x="300.089" y="521.847" fill="#fff" fill-opacity=".855" stroke="none"/><rect id="rect4035-5-8" width="0" height="16.5" x="327.15" y="518.77" fill="#fff" fill-opacity=".855" stroke="none"/><rect id="rect4035-8-0" width="0" height="16.5" x="300.089" y="521.847" fill="#fff" fill-opacity=".855" stroke="none"/><rect id="rect4035-59-1-8" width="0" height="16.5" x="300.089" y="521.847" fill="#fff" fill-opacity=".855" stroke="none"/><rect id="rect4035-3" width="0" height="16.5" x="327.869" y="522.229" fill="#fff" fill-opacity=".855" stroke="none"/><rect id="rect4035-5-2" width="0" height="16.5" x="354.93" y="519.152" fill="#fff" fill-opacity=".855" stroke="none"/><rect id="rect4035-8-7" width="0" height="16.5" x="327.869" y="522.229" fill="#fff" fill-opacity=".855" stroke="none"/><rect id="rect4035-59-43" width="0" height="16.5" x="327.869" y="522.229" fill="#fff" fill-opacity=".855" stroke="none"/><rect id="rect4035-6-2" width="0" height="16.5" x="316.907" y="514.977" fill="#fff" fill-opacity=".855" stroke="none"/><rect id="rect4035-5-1-6" width="0" height="16.5" x="343.968" y="511.9" fill="#fff" fill-opacity=".855" stroke="none"/><rect id="rect4035-8-3-4" width="0" height="16.5" x="316.907" y="514.977" fill="#fff" fill-opacity=".855" stroke="none"/><rect id="rect4035-59-4-8" width="0" height="16.5" x="316.907" y="514.977" fill="#fff" fill-opacity=".855" stroke="none"/><rect id="rect4035-1-8" width="0" height="16.5" x="325.93" y="521.301" fill="#fff" fill-opacity=".855" stroke="none"/><rect id="rect4035-5-0-0" width="0" height="16.5" x="352.991" y="518.224" fill="#fff" fill-opacity=".855" stroke="none"/><rect id="rect4035-8-1-3" width="0" height="16.5" x="325.93" y="521.301" fill="#fff" fill-opacity=".855" stroke="none"/><rect id="rect4035-59-1-1" width="0" height="16.5" x="325.93" y="521.301" fill="#fff" fill-opacity=".855" stroke="none"/><rect id="rect4035-89" width="0" height="11" x="362.491" y="541.725" fill="#fff" fill-opacity=".855" stroke="none"/><rect id="rect4035-5-9" width="0" height="11" x="380.532" y="539.673" fill="#fff" fill-opacity=".855" stroke="none"/><rect id="rect4035-8-8" width="0" height="11" x="362.491" y="541.725" fill="#fff" fill-opacity=".855" stroke="none"/><rect id="rect4035-59-7" width="0" height="11" x="362.491" y="541.725" fill="#fff" fill-opacity=".855" stroke="none"/><rect id="rect4035-6-6" width="0" height="11" x="355.183" y="536.89" fill="#fff" fill-opacity=".855" stroke="none"/><rect id="rect4035-5-1-0" width="0" height="11" x="373.224" y="534.839" fill="#fff" fill-opacity=".855" stroke="none"/><rect id="rect4035-8-3-7" width="0" height="11" x="355.183" y="536.89" fill="#fff" fill-opacity=".855" stroke="none"/><rect id="rect4035-59-4-84" width="0" height="11" x="355.183" y="536.89" fill="#fff" fill-opacity=".855" stroke="none"/><rect id="rect4035-1-3" width="0" height="11" x="361.198" y="541.106" fill="#fff" fill-opacity=".855" stroke="none"/><rect id="rect4035-5-0-1" width="0" height="11" x="379.239" y="539.055" fill="#fff" fill-opacity=".855" stroke="none"/><rect id="rect4035-8-1-01" width="0" height="11" x="361.198" y="541.106" fill="#fff" fill-opacity=".855" stroke="none"/><rect id="rect4035-59-1-7" width="0" height="11" x="361.198" y="541.106" fill="#fff" fill-opacity=".855" stroke="none"/><rect id="rect4035-2" width="0" height="16.5" x="327.909" y="522.353" fill="#fff" fill-opacity=".855" stroke="none"/><rect id="rect4035-5-6" width="0" height="16.5" x="354.97" y="519.276" fill="#fff" fill-opacity=".855" stroke="none"/><rect id="rect4035-8-9" width="0" height="16.5" x="327.909" y="522.353" fill="#fff" fill-opacity=".855" stroke="none"/><rect id="rect4035-59-6" width="0" height="16.5" x="327.909" y="522.353" fill="#fff" fill-opacity=".855" stroke="none"/><rect id="rect4035-6-7" width="0" height="16.5" x="316.947" y="515.101" fill="#fff" fill-opacity=".855" stroke="none"/><rect id="rect4035-5-1-5" width="0" height="16.5" x="344.008" y="512.024" fill="#fff" fill-opacity=".855" stroke="none"/><rect id="rect4035-8-3-1" width="0" height="16.5" x="316.947" y="515.101" fill="#fff" fill-opacity=".855" stroke="none"/><rect id="rect4035-59-4-844" width="0" height="16.5" x="316.947" y="515.101" fill="#fff" fill-opacity=".855" stroke="none"/><rect id="rect4035-1-9" width="0" height="16.5" x="325.969" y="521.426" fill="#fff" fill-opacity=".855" stroke="none"/><rect id="rect4035-5-0-15" width="0" height="16.5" x="353.031" y="518.349" fill="#fff" fill-opacity=".855" stroke="none"/><rect id="rect4035-8-1-5" width="0" height="16.5" x="325.969" y="521.426" fill="#fff" fill-opacity=".855" stroke="none"/><rect id="rect4035-59-1-18" width="0" height="16.5" x="325.969" y="521.426" fill="#fff" fill-opacity=".855" stroke="none"/><rect id="rect4035-7-5" width="0" height="16.5" x="327.909" y="522.353" fill="#fff" fill-opacity=".855" stroke="none"/><rect id="rect4035-5-7-6" width="0" height="16.5" x="354.97" y="519.276" fill="#fff" fill-opacity=".855" stroke="none"/><rect id="rect4035-8-16-3" width="0" height="16.5" x="327.909" y="522.353" fill="#fff" fill-opacity=".855" stroke="none"/><rect id="rect4035-59-18-6" width="0" height="16.5" x="327.909" y="522.353" fill="#fff" fill-opacity=".855" stroke="none"/><rect id="rect4035-6-5-6" width="0" height="16.5" x="316.947" y="515.101" fill="#fff" fill-opacity=".855" stroke="none"/><rect id="rect4035-5-1-8-5" width="0" height="16.5" x="344.008" y="512.024" fill="#fff" fill-opacity=".855" stroke="none"/><rect id="rect4035-8-3-8-1" width="0" height="16.5" x="316.947" y="515.101" fill="#fff" fill-opacity=".855" stroke="none"/><rect id="rect4035-59-4-7-8" width="0" height="16.5" x="316.947" y="515.101" fill="#fff" fill-opacity=".855" stroke="none"/><rect id="rect4035-1-7-6" width="0" height="16.5" x="325.969" y="521.426" fill="#fff" fill-opacity=".855" stroke="none"/><rect id="rect4035-5-0-8-0" width="0" height="16.5" x="353.031" y="518.349" fill="#fff" fill-opacity=".855" stroke="none"/><rect id="rect4035-8-1-0-4" width="0" height="16.5" x="325.969" y="521.426" fill="#fff" fill-opacity=".855" stroke="none"/><rect id="rect4035-59-1-3-1" width="0" height="16.5" x="325.969" y="521.426" fill="#fff" fill-opacity=".855" stroke="none"/><rect id="rect4035-0-8" width="0" height="16.5" x="324.111" y="527.423" fill="#fff" fill-opacity=".855" stroke="none"/><rect id="rect4035-5-5-6" width="0" height="16.5" x="351.172" y="524.346" fill="#fff" fill-opacity=".855" stroke="none"/><rect id="rect4035-8-6-4" width="0" height="16.5" x="324.111" y="527.423" fill="#fff" fill-opacity=".855" stroke="none"/><rect id="rect4035-59-11-1" width="0" height="16.5" x="324.111" y="527.423" fill="#fff" fill-opacity=".855" stroke="none"/><rect id="rect4035-9-4" width="0" height="16.5" x="300.129" y="521.972" fill="#fff" fill-opacity=".855" stroke="none"/><rect id="rect4035-5-8-6" width="0" height="16.5" x="327.19" y="518.895" fill="#fff" fill-opacity=".855" stroke="none"/><rect id="rect4035-8-0-9" width="0" height="16.5" x="300.129" y="521.972" fill="#fff" fill-opacity=".855" stroke="none"/><rect id="rect4035-59-1-8-2" width="0" height="16.5" x="300.129" y="521.972" fill="#fff" fill-opacity=".855" stroke="none"/><rect id="rect4035-3-1" width="0" height="16.5" x="327.909" y="522.353" fill="#fff" fill-opacity=".855" stroke="none"/><rect id="rect4035-5-2-0" width="0" height="16.5" x="354.97" y="519.276" fill="#fff" fill-opacity=".855" stroke="none"/><rect id="rect4035-8-7-2" width="0" height="16.5" x="327.909" y="522.353" fill="#fff" fill-opacity=".855" stroke="none"/><rect id="rect4035-59-43-5" width="0" height="16.5" x="327.909" y="522.353" fill="#fff" fill-opacity=".855" stroke="none"/><rect id="rect4035-6-2-5" width="0" height="16.5" x="316.947" y="515.101" fill="#fff" fill-opacity=".855" stroke="none"/><rect id="rect4035-5-1-6-4" width="0" height="16.5" x="344.008" y="512.024" fill="#fff" fill-opacity=".855" stroke="none"/><rect id="rect4035-8-3-4-6" width="0" height="16.5" x="316.947" y="515.101" fill="#fff" fill-opacity=".855" stroke="none"/><rect id="rect4035-59-4-8-2" width="0" height="16.5" x="316.947" y="515.101" fill="#fff" fill-opacity=".855" stroke="none"/><rect id="rect4035-1-8-9" width="0" height="16.5" x="325.969" y="521.426" fill="#fff" fill-opacity=".855" stroke="none"/><rect id="rect4035-5-0-0-9" width="0" height="16.5" x="353.031" y="518.349" fill="#fff" fill-opacity=".855" stroke="none"/><rect id="rect4035-8-1-3-0" width="0" height="16.5" x="325.969" y="521.426" fill="#fff" fill-opacity=".855" stroke="none"/><rect id="rect4035-59-1-1-4" width="0" height="16.5" x="325.969" y="521.426" fill="#fff" fill-opacity=".855" stroke="none"/><rect id="rect4035-89-8" width="0" height="11" x="362.531" y="541.849" fill="#fff" fill-opacity=".855" stroke="none"/><rect id="rect4035-5-9-5" width="0" height="11" x="380.571" y="539.798" fill="#fff" fill-opacity=".855" stroke="none"/><rect id="rect4035-8-8-2" width="0" height="11" x="362.531" y="541.849" fill="#fff" fill-opacity=".855" stroke="none"/><rect id="rect4035-59-7-6" width="0" height="11" x="362.531" y="541.849" fill="#fff" fill-opacity=".855" stroke="none"/><rect id="rect4035-6-6-0" width="0" height="11" x="355.223" y="537.015" fill="#fff" fill-opacity=".855" stroke="none"/><rect id="rect4035-5-1-0-3" width="0" height="11" x="373.263" y="534.963" fill="#fff" fill-opacity=".855" stroke="none"/><rect id="rect4035-8-3-7-4" width="0" height="11" x="355.223" y="537.015" fill="#fff" fill-opacity=".855" stroke="none"/><rect id="rect4035-59-4-84-8" width="0" height="11" x="355.223" y="537.015" fill="#fff" fill-opacity=".855" stroke="none"/><rect id="rect4035-1-3-3" width="0" height="11" x="361.238" y="541.231" fill="#fff" fill-opacity=".855" stroke="none"/><rect id="rect4035-5-0-1-9" width="0" height="11" x="379.278" y="539.18" fill="#fff" fill-opacity=".855" stroke="none"/><rect id="rect4035-8-1-01-9" width="0" height="11" x="361.238" y="541.231" fill="#fff" fill-opacity=".855" stroke="none"/><rect id="rect4035-59-1-7-4" width="0" height="11" x="361.238" y="541.231" fill="#fff" fill-opacity=".855" stroke="none"/></g></g></g></g></g></g></g></g></g></g></g></g></g></g></svg>