<svg xmlns="http://www.w3.org/2000/svg" xmlns:svg="http://www.w3.org/2000/svg" xmlns:xlink="http://www.w3.org/1999/xlink" id="svg5453" width="48" height="48" version="1.1"><defs id="defs5455"><linearGradient id="linearGradient4316"><stop id="stop4318" offset="0" stop-color="#e3e3e3" stop-opacity="1"/><stop id="stop4320" offset="1" stop-color="#fcf9f9" stop-opacity="1"/></linearGradient><linearGradient id="linearGradient4475"><stop id="stop4477" offset="0" stop-color="#333538" stop-opacity="1"/><stop id="stop4479" offset="1" stop-color="#566069" stop-opacity="1"/></linearGradient><linearGradient id="linearGradient8467"><stop id="stop8469" offset="0" stop-color="#d3d3d3" stop-opacity="1"/><stop id="stop8471" offset="1" stop-color="#fcf9f9" stop-opacity="1"/></linearGradient><linearGradient id="linearGradient4481" x1="400.954" x2="400.954" y1="545.223" y2="517.223" gradientUnits="userSpaceOnUse" xlink:href="#linearGradient4475"/><linearGradient id="linearGradient6205" x1="2.819" x2="11.758" y1="1044.298" y2="1044.298" gradientUnits="userSpaceOnUse" xlink:href="#linearGradient4475"/><linearGradient id="linearGradient4424" x1="400.396" x2="400.396" y1="545.619" y2="517.619" gradientUnits="userSpaceOnUse" xlink:href="#linearGradient8467"/><linearGradient id="linearGradient4432" x1="404.714" x2="404.714" y1="546.298" y2="517.298" gradientUnits="userSpaceOnUse" xlink:href="#linearGradient4395"/><linearGradient id="linearGradient4261" x1="400.396" x2="400.396" y1="545.619" y2="517.619" gradientUnits="userSpaceOnUse" xlink:href="#linearGradient4316"/><linearGradient id="linearGradient4252" x1="398.024" x2="398.024" y1="515.237" y2="545.811" gradientUnits="userSpaceOnUse" xlink:href="#linearGradient4395"/><linearGradient id="linearGradient4254" x1="400.396" x2="400.396" y1="545.619" y2="517.619" gradientUnits="userSpaceOnUse" xlink:href="#linearGradient8467"/><linearGradient id="linearGradient4256" x1="2.819" x2="11.758" y1="1044.298" y2="1044.298" gradientUnits="userSpaceOnUse" xlink:href="#linearGradient4475"/><linearGradient id="linearGradient4258" x1="400.954" x2="400.954" y1="545.223" y2="517.223" gradientUnits="userSpaceOnUse" xlink:href="#linearGradient4475"/><linearGradient id="linearGradient4260" x1="400.954" x2="400.954" y1="545.223" y2="517.223" gradientUnits="userSpaceOnUse" xlink:href="#linearGradient4475"/><linearGradient id="linearGradient4395"><stop id="stop4397" offset="0" stop-color="#00cafe" stop-opacity="1"/><stop id="stop4399" offset="1" stop-color="#1460f3" stop-opacity="1"/></linearGradient><linearGradient id="linearGradient4183" x1="398.024" x2="398.024" y1="515.237" y2="545.811" gradientUnits="userSpaceOnUse" xlink:href="#linearGradient4395"/></defs><metadata id="metadata5458"/><g id="layer1" transform="translate(-384.57143,-499.798)"><g id="layer1-4" transform="matrix(1.626036,0,0,1.626036,-242.77204,-340.9246)"><g id="layer1-6" transform="matrix(0.96552004,0,0,0.96552004,13.642627,18.164012)"><g id="layer1-7" fill="url(#linearGradient4481)" fill-opacity="1" stroke="none" transform="translate(0.03984275,0.13336787)"><g id="layer1-3-5" fill="url(#linearGradient4424)" fill-opacity="1" stroke="none" stroke-dasharray="none" stroke-miterlimit="4" stroke-opacity="1" stroke-width="1.3" transform="translate(0.13524268,0.04517549)"><circle id="path3377" cx="400.571" cy="531.798" r="14" fill="url(#linearGradient4252)" fill-opacity="1" stroke="url(#linearGradient4183)" stroke-dasharray="none" stroke-dashoffset="0" stroke-miterlimit="4" stroke-opacity="1" stroke-width="1.3" opacity="1"/><circle id="circle4174" cx="400.571" cy="531.798" r="0" fill="url(#linearGradient4261)" fill-opacity="1" stroke="url(#linearGradient4432)" stroke-dasharray="none" stroke-dashoffset="0" stroke-miterlimit="4" stroke-opacity="1" stroke-width="1" opacity="1"/><circle id="ellipse4233" cx="400.571" cy="531.798" r="0" fill="url(#linearGradient4254)" fill-opacity="1" stroke="none" stroke-dasharray="none" stroke-dashoffset="0" stroke-miterlimit="4" stroke-opacity="1" stroke-width="1.3" opacity="1"/></g><g id="layer1-43" fill="url(#linearGradient4260)" transform="matrix(0.87200319,0,0,0.87200319,26.745479,67.871206)"><g id="g4358" fill="url(#linearGradient4258)" transform="translate(-2.4330678,1.1490485)"><path id="Music-0" fill="#fff" fill-opacity=".851" d="m 428.92363,524.46159 c -0.56004,0.15717 -1.01086,0.78214 -1.01086,1.38928 l 0,9.62532 c -0.56789,-0.31135 -1.29721,-0.43725 -2.05334,-0.23149 -1.36441,0.37118 -2.21944,1.57085 -1.92697,2.67922 0.29249,1.1083 1.63658,1.72735 3.00104,1.35608 1.08851,-0.29612 1.83888,-1.13406 1.95852,-2.01765 l 0.0319,-9.09613 7.07607,-1.98462 0,7.1777 c -0.56789,-0.31137 -1.2972,-0.43726 -2.05335,-0.23157 -1.3644,0.3712 -2.21941,1.57093 -1.92695,2.67923 0.2925,1.10836 1.63659,1.72733 3.00101,1.35614 1.08853,-0.29612 1.83889,-1.13404 1.95855,-2.01764 l 0.032,-11.84156 c 0,-0.45528 -0.26874,-0.7959 -0.63178,-0.85997 l -7.45514,2.01766 z" opacity="1"/></g></g></g></g></g></g></svg>