<svg xmlns="http://www.w3.org/2000/svg" xmlns:svg="http://www.w3.org/2000/svg" xmlns:xlink="http://www.w3.org/1999/xlink" id="svg5453" width="48" height="48" version="1.1"><defs id="defs5455"><linearGradient id="linearGradient8311-06"><stop id="stop8313-6" offset="0" stop-color="#a9a3d4" stop-opacity="1"/><stop id="stop4462" offset=".47" stop-color="#87baff" stop-opacity="1"/><stop id="stop8315-2" offset="1" stop-color="#89ec85" stop-opacity="1"/></linearGradient><linearGradient id="linearGradient4460" x1="0" x2="47" y1="23.5" y2="23.5" gradientUnits="userSpaceOnUse" xlink:href="#linearGradient8311-06"/><linearGradient id="linearGradient4915"><stop id="stop4917" offset="0" stop-color="#8645a3" stop-opacity="1"/><stop id="stop4919" offset="1" stop-color="#d164ff" stop-opacity="1"/></linearGradient><linearGradient id="linearGradient3687-2"><stop id="stop3689-6" offset="0" stop-color="#1a1a1a" stop-opacity="1"/><stop id="stop3691-8" offset=".111" stop-color="#2c2c2e" stop-opacity="1"/><stop id="stop3693-8" offset=".29" stop-color="#2b2b2d" stop-opacity="1"/><stop id="stop3695-4" offset=".512" stop-color="#2a2b2d" stop-opacity="1"/><stop id="stop3699-86" offset=".752" stop-color="#2b2b2d" stop-opacity="1"/><stop id="stop3701-8" offset=".897" stop-color="#323232" stop-opacity="1"/><stop id="stop3703-9" offset="1" stop-color="#171717" stop-opacity="1"/></linearGradient><linearGradient id="linearGradient4642"><stop id="stop4644" offset="0" stop-color="#0bac83" stop-opacity="1"/><stop id="stop4646" offset="1" stop-color="#13ffaf" stop-opacity="1"/></linearGradient><linearGradient id="linearGradient4179-7"><stop id="stop4181-2" offset="0" stop-color="#e8d800" stop-opacity="1"/><stop id="stop4183-1" offset="1" stop-color="#feff68" stop-opacity="1"/></linearGradient><linearGradient id="linearGradient4422"><stop id="stop4424" offset="0" stop-color="#ff9300" stop-opacity="1"/><stop id="stop4426" offset="1" stop-color="#ffd702" stop-opacity="1"/></linearGradient><linearGradient id="linearGradient8467-7"><stop id="stop8469-4" offset="0" stop-color="#3ec896" stop-opacity="1"/><stop id="stop8471-7" offset="1" stop-color="#66d9af" stop-opacity="1"/></linearGradient><linearGradient id="linearGradient5845"><stop id="stop5847" offset="0" stop-color="#974eb7" stop-opacity="1"/><stop id="stop5849" offset="1" stop-color="#d164ff" stop-opacity="1"/></linearGradient><linearGradient id="linearGradient4298"><stop id="stop4300" offset="0" stop-color="#ea3c53" stop-opacity="1"/><stop id="stop4302" offset="1" stop-color="#fc593d" stop-opacity="1"/></linearGradient><linearGradient id="linearGradient4232"><stop id="stop4234-0" offset="0" stop-color="#3889e9" stop-opacity="1"/><stop id="stop4236" offset="1" stop-color="#5ea5fb" stop-opacity="1"/></linearGradient><linearGradient id="linearGradient4290-1"><stop id="stop4292-9" offset="0" stop-color="#a5a5a5" stop-opacity="1"/><stop id="stop4294-1" offset="1" stop-color="#f5f2f5" stop-opacity="1"/></linearGradient><linearGradient id="linearGradient4992"><stop id="stop4994" offset="0" stop-color="#b6b9bf" stop-opacity="1"/><stop id="stop4996" offset="1" stop-color="#dddfe2" stop-opacity="1"/></linearGradient><linearGradient id="linearGradient4957"><stop id="stop4959" offset="0" stop-color="#040404" stop-opacity="1"/><stop id="stop4961" offset="1" stop-color="#121212" stop-opacity=".908"/></linearGradient><linearGradient id="linearGradient4998-7" x1="449.428" x2="449.549" y1="540.746" y2="518.407" gradientUnits="userSpaceOnUse" xlink:href="#linearGradient4992"/><linearGradient id="linearGradient4735-9" x1="451.021" x2="451.021" y1="544.15" y2="543.088" gradientTransform="matrix(0.50539571,0,0,1,229.14839,2.1665552)" gradientUnits="userSpaceOnUse" xlink:href="#linearGradient8311-06-5"/><linearGradient id="linearGradient8311-06-5"><stop id="stop8313-6-2" offset="0" stop-color="#5fa3d4" stop-opacity="1"/><stop id="stop8315-2-7" offset="1" stop-color="#6bb9ff" stop-opacity="1"/></linearGradient><linearGradient id="linearGradient4963-3" x1="467.175" x2="467.175" y1="546.847" y2="544.724" gradientTransform="translate(0,0.10639487)" gradientUnits="userSpaceOnUse" xlink:href="#linearGradient4957"/><linearGradient id="linearGradient8294" x1="10.094" x2="122.719" y1="107.361" y2="107.361" gradientTransform="matrix(0.24841536,0,0,0.24427878,433.38377,517.17091)" gradientUnits="userSpaceOnUse" xlink:href="#linearGradient3687-2"/></defs><metadata id="metadata5458"/><g id="layer1" transform="translate(-384.57143,-499.798)"><g id="layer1-4" transform="translate(392.24401,-502.51656)"><g id="g4413" stroke-dasharray="none" stroke-miterlimit="4" stroke-width="1.317" transform="matrix(1.138587,0,0,1.138587,-3.4562036,-142.80276)"><g id="g4312" transform="matrix(1.0539376,0,0,1.0539376,-0.91298719,-55.411661)"><g id="g3449" fill="#a1a7ae" fill-opacity="1" stroke="#909296" stroke-dasharray="none" stroke-miterlimit="4" stroke-opacity="1" stroke-width=".101" transform="matrix(1.037179,0.75012648,-1.0448367,0.75181565,1105.4893,269.74611)"><path id="rect3001-4-7" fill="url(#linearGradient8294)" fill-opacity="1" stroke="none" d="m 435.89128,541.07281 0.24841,3.91531 c 0,0.40601 0.33238,0.73288 0.74525,0.73288 l 25.99045,0 c 0.41287,0 0.74526,-0.32687 0.74526,-0.73288 l 0.24841,-3.91531 -27.97778,0 z" transform="matrix(0.67305966,-0.67154743,0.93538548,0.92852992,-817.64202,832.4877)"/><path id="path3778-2" fill="url(#linearGradient4998-7)" fill-opacity="1" stroke="none" d="m 438.12877,518.12187 23.25963,0 c 0.41287,0 0.74526,0.32687 0.74526,0.73287 l 1.739,22.0998 c 0,0.406 -0.33237,0.73288 -0.74524,0.73288 l -26.48903,0 c -0.41287,0 -0.74524,-0.32688 -0.74524,-0.73288 l 1.49038,-22.09974 c 0,-0.406 0.33238,-0.73293 0.74524,-0.73293 z" transform="matrix(0.67305966,-0.67154743,0.93538548,0.92852992,-817.64202,832.4877)"/><rect id="rect4727-4-4" width="11.463" height=".769" x="450.873" y="545.613" fill="url(#linearGradient4735-9)" fill-opacity="1" stroke="none" stroke-dasharray="none" stroke-linecap="round" stroke-linejoin="round" stroke-miterlimit="4" stroke-opacity="1" stroke-width=".2" opacity="1" ry=".384" transform="matrix(0.67305966,-0.67154743,0.93538548,0.92852992,-824.11469,835.01094)"/><ellipse id="path4955-9" cx="467.089" cy="546.024" fill="url(#linearGradient4963-3)" fill-opacity="1" stroke="none" stroke-dasharray="none" stroke-linecap="round" stroke-linejoin="round" stroke-miterlimit="4" stroke-opacity="1" stroke-width="1.7" opacity=".452" rx="1.061" ry="1.061" transform="matrix(0.67305966,-0.67154743,0.93538548,0.92852992,-824.11469,835.01094)"/><path id="path955-0" fill="#e3e8ea" fill-opacity="1" d="m 63,73.215 c 2.824,0 5.27,-1.031 7.332,-3.096 2.064,-2.063 3.098,-4.508 3.098,-7.332 l 0,-52.144 C 73.43,7.818 72.397,5.374 70.332,3.311 68.27,1.246 65.825,0.214 63,0.214 c -2.825,0 -5.269,1.033 -7.333,3.097 -2.064,2.063 -3.096,4.508 -3.096,7.332 l 0,52.144 c 0,2.824 1.032,5.269 3.096,7.332 2.064,2.065 4.509,3.096 7.333,3.096 l 0,0 z" opacity=".668" transform="matrix(0.00570796,-0.00569513,0.00793264,0.0078745,0.09149556,1028.1478)"/><path id="path957-2" fill="#e3e8ea" fill-opacity="1" d="M 119.014,45.269 C 114.641,36.525 108.491,29.192 100.561,23.272 98.28,21.534 95.7,20.855 92.821,21.235 c -2.879,0.38 -5.16,1.738 -6.844,4.073 -1.738,2.281 -2.403,4.847 -1.996,7.699 0.406,2.853 1.752,5.147 4.033,6.885 5.321,4.019 9.438,8.935 12.342,14.747 2.906,5.811 4.358,12.004 4.358,18.575 0,5.65 -1.1,11.04 -3.299,16.173 -2.2,5.133 -5.174,9.573 -8.922,13.321 -3.748,3.747 -8.187,6.721 -13.32,8.921 -5.133,2.2 -10.524,3.301 -16.173,3.301 -5.648,0 -11.039,-1.101 -16.172,-3.301 -5.133,-2.2 -9.573,-5.174 -13.321,-8.921 -3.747,-3.748 -6.721,-8.188 -8.921,-13.321 -2.2,-5.133 -3.3,-10.523 -3.3,-16.173 0,-6.571 1.453,-12.763 4.359,-18.575 2.906,-5.811 7.02,-10.727 12.343,-14.747 2.281,-1.739 3.625,-4.033 4.033,-6.885 0.407,-2.851 -0.258,-5.418 -1.996,-7.699 -1.684,-2.335 -3.951,-3.693 -6.803,-4.073 -2.852,-0.38 -5.446,0.299 -7.781,2.037 -7.931,5.92 -14.081,13.253 -18.454,21.997 -4.373,8.745 -6.559,18.06 -6.559,27.945 0,8.474 1.657,16.566 4.97,24.279 3.314,7.713 7.767,14.366 13.362,19.961 5.594,5.594 12.248,10.049 19.961,13.36 7.713,3.314 15.806,4.972 24.279,4.972 8.473,0 16.566,-1.658 24.279,-4.972 7.713,-3.312 14.367,-7.766 19.961,-13.36 5.594,-5.594 10.047,-12.248 13.361,-19.961 3.313,-7.713 4.969,-15.806 4.969,-24.279 0,-9.885 -2.183,-19.2 -6.556,-27.945 l 0,0 z" opacity=".668" transform="matrix(0.00570796,-0.00569513,0.00793264,0.0078745,0.09149556,1028.1478)"/><rect id="rect5144" width="5.666" height="5.666" x="-26.065" y="1015.621" fill="#a1a7ae" fill-opacity="1" stroke="#909296" stroke-dasharray="none" stroke-linecap="round" stroke-linejoin="round" stroke-miterlimit="4" stroke-opacity="1" stroke-width=".101" opacity="1" ry=".5"/><rect id="rect5144-8" width="5.666" height="5.666" x="-19.267" y="1015.621" fill="#a1a7ae" fill-opacity="1" stroke="#909296" stroke-dasharray="none" stroke-linecap="round" stroke-linejoin="round" stroke-miterlimit="4" stroke-opacity="1" stroke-width=".101" opacity="1" ry=".5"/><rect id="rect5144-7" width="5.666" height="5.666" x="-19.266" y="1022.419" fill="#a1a7ae" fill-opacity="1" stroke="#909296" stroke-dasharray="none" stroke-linecap="round" stroke-linejoin="round" stroke-miterlimit="4" stroke-opacity="1" stroke-width=".101" opacity="1" ry=".5"/><rect id="rect5144-7-0" width="5.666" height="5.666" x="-26.039" y="1022.357" fill="#a1a7ae" fill-opacity="1" stroke="#909296" stroke-dasharray="none" stroke-linecap="round" stroke-linejoin="round" stroke-miterlimit="4" stroke-opacity="1" stroke-width=".101" opacity="1" ry=".5"/></g></g></g></g></g></svg>