<svg xmlns="http://www.w3.org/2000/svg" xmlns:svg="http://www.w3.org/2000/svg" xmlns:xlink="http://www.w3.org/1999/xlink" id="svg3070" width="48" height="48" version="1.1"><defs id="defs3072"><linearGradient id="linearGradient4179"><stop id="stop4181" offset="0" stop-color="#e02d2d" stop-opacity="1"/><stop id="stop4183" offset="1" stop-color="#f75151" stop-opacity="1"/></linearGradient><linearGradient id="linearGradient4320"><stop id="stop4322" offset="0" stop-color="#f6fbff" stop-opacity="1"/><stop id="stop4324" offset="1" stop-color="#eaeff2" stop-opacity="1"/></linearGradient><linearGradient id="linearGradient4537" x1="17" x2="16.049" y1="1036.362" y2="1010.814" gradientTransform="matrix(1.0309825,0,0,1,-0.512598,0)" gradientUnits="userSpaceOnUse" xlink:href="#linearGradient4294-8"/><linearGradient id="linearGradient4294-8"><stop id="stop4296-9" offset="0" stop-color="#e53838" stop-opacity="1"/><stop id="stop4298-4" offset="1" stop-color="#f77" stop-opacity="1"/></linearGradient><linearGradient id="linearGradient4308-5" x1="33.462" x2="34.117" y1="1013.622" y2="1037.208" gradientTransform="matrix(0.84231232,0,0,1,5.5011448,0)" gradientUnits="userSpaceOnUse" xlink:href="#linearGradient4320"/><linearGradient id="linearGradient4539" x1="29.336" x2="29.336" y1="1037.021" y2="1010.814" gradientTransform="translate(-0.199659,0)" gradientUnits="userSpaceOnUse" xlink:href="#linearGradient4179"/><linearGradient id="linearGradient4714" x1="14.987" x2="28.745" y1="1023.755" y2="1023.755" gradientTransform="translate(0.13592883,0.95150181)" gradientUnits="userSpaceOnUse" xlink:href="#linearGradient4320"/></defs><metadata id="metadata3075"/><g id="layer1" transform="translate(0,-1004.3622)"><g id="layer1-8" transform="translate(-384.28833,504.67735)"><g id="g4231" transform="matrix(1.5263052,0,0,1.5263052,376.31698,-1040.1258)"><g id="g4178" transform="translate(-1.1140237,0)"><g id="g4179" transform="matrix(1.1526351,0,0,1.1526351,-3.7868504,-156.53865)"><path id="path4248-6-8" fill="url(#linearGradient4308-5)" fill-opacity="1" fill-rule="evenodd" stroke="none" stroke-linecap="butt" stroke-linejoin="miter" stroke-opacity="1" stroke-width="1" d="m 33.754827,1036.9362 -9.759758,0 0,-24.498 9.759758,0 c 1.03617,-0.094 1.119548,0.023 1.119548,1.1721 l 0,22.0916 c 0.06508,1.261 -0.111972,1.2343 -1.119548,1.2343 z" opacity="1"/><path id="path4248-0" fill="url(#linearGradient4537)" fill-opacity="1" fill-rule="evenodd" stroke="none" stroke-linecap="butt" stroke-linejoin="miter" stroke-opacity="1" stroke-width="1" d="m 11.563303,1036.9442 11.636697,0 0,-24.498 -11.533603,0 c -1.268259,-0.094 -1.782566,0.023 -1.782566,1.1721 l 0,22.0916 c -0.07966,1.261 0.446208,1.2343 1.679472,1.2343 z" opacity="1"/><path id="path4248-6-0-3" fill="url(#linearGradient4539)" fill-opacity="1" fill-rule="evenodd" stroke="none" stroke-linecap="butt" stroke-linejoin="miter" stroke-opacity="1" stroke-width="1" d="M 31.957586,1038.1035 21.928,1036.932 l 0,-24.498 9.945906,-0.9205 c 1.230149,-0.094 1.296492,0.2446 1.296492,1.3937 l -0.08368,23.3688 c 0.07726,1.261 0.06707,1.8275 -1.129132,1.8275 z" opacity="1"/><path id="path5" fill="url(#linearGradient4714)" fill-opacity="1" d="m 28.658546,1026.2703 c -0.275024,-0.2709 -0.884974,-0.4144 -1.813137,-0.4266 -0.628288,-0.01 -1.3845,0.048 -2.179905,0.1597 -0.35616,-0.2055 -0.723197,-0.4291 -1.011383,-0.6984 -0.775127,-0.7238 -1.422147,-1.7285 -1.825324,-2.8333 0.02627,-0.1032 0.04863,-0.1939 0.06945,-0.2864 0,0 0.436607,-2.48 0.321032,-3.3184 -0.0159,-0.115 -0.02569,-0.1484 -0.05661,-0.2378 l -0.03792,-0.097 c -0.118748,-0.2739 -0.3516,-0.5641 -0.716665,-0.5483 l -0.214086,-0.01 -0.0059,-10e-5 c -0.407085,0 -0.738874,0.2082 -0.825971,0.5194 -0.264735,0.976 0.0084,2.4362 0.503468,4.3274 l -0.126718,0.3081 c -0.354463,0.864 -0.798654,1.7343 -1.190571,2.502 l -0.05096,0.1 c -0.412309,0.8069 -0.786427,1.4919 -1.125568,2.0721 l -0.350168,0.1852 c -0.0255,0.013 -0.625622,0.3308 -0.766385,0.416 -1.194131,0.713 -1.985434,1.5224 -2.116718,2.1647 -0.04179,0.2049 -0.01068,0.4672 0.201782,0.5887 l 0.338677,0.1704 c 0.146915,0.074 0.30184,0.1109 0.460557,0.1109 0.850503,0 1.8379,-1.0595 3.1981,-3.4333 1.570456,-0.5113 3.358477,-0.9362 4.925529,-1.1706 1.194211,0.6724 2.66298,1.1394 3.590016,1.1394 0.1646,0 0.306485,-0.016 0.42179,-0.046 0.177795,-0.047 0.327647,-0.1485 0.419005,-0.286 0.17984,-0.2707 0.216327,-0.6435 0.167496,-1.0253 -0.01455,-0.1132 -0.105051,-0.2533 -0.202941,-0.3489 z m -12.703365,4.5256 c 0.15508,-0.4241 0.769015,-1.2624 1.676744,-2.0063 0.05707,-0.046 0.197642,-0.178 0.326372,-0.3003 -0.949245,1.514 -1.584926,2.1174 -2.003116,2.3066 z m 5.376416,-12.3809 c 0.273402,0 0.428908,0.6892 0.441831,1.3352 0.01289,0.6461 -0.13821,1.0995 -0.325637,1.435 -0.155235,-0.4967 -0.23026,-1.2796 -0.23026,-1.7916 0,0 -0.01141,-0.9786 0.114066,-0.9786 z m -1.603809,8.8229 c 0.190445,-0.3409 0.38859,-0.7004 0.591069,-1.0817 0.493562,-0.9334 0.80527,-1.6637 1.037426,-2.2641 0.461719,0.8401 1.03673,1.5542 1.712693,2.1264 0.08431,0.071 0.173648,0.1431 0.267476,0.2146 -1.374591,0.272 -2.562648,0.6028 -3.608664,1.0048 z m 8.666643,-0.077 c -0.08373,0.052 -0.323546,0.083 -0.477814,0.083 -0.497856,0 -1.113847,-0.2276 -1.97739,-0.5978 0.331789,-0.025 0.636033,-0.037 0.908855,-0.037 0.499363,0 0.647289,0 1.135586,0.1223 0.488303,0.1246 0.494455,0.3776 0.410763,0.4299 z"/></g></g></g></g></g></svg>