<svg xmlns="http://www.w3.org/2000/svg" xmlns:svg="http://www.w3.org/2000/svg" xmlns:xlink="http://www.w3.org/1999/xlink" id="svg5453" width="48" height="48" version="1.1"><defs id="defs5455"><linearGradient id="linearGradient8311-06"><stop id="stop8313-6" offset="0" stop-color="#a9a3d4" stop-opacity="1"/><stop id="stop4462" offset=".47" stop-color="#87baff" stop-opacity="1"/><stop id="stop8315-2" offset="1" stop-color="#89ec85" stop-opacity="1"/></linearGradient><linearGradient id="linearGradient4460" x1="0" x2="47" y1="23.5" y2="23.5" gradientUnits="userSpaceOnUse" xlink:href="#linearGradient8311-06"/><linearGradient id="linearGradient4915"><stop id="stop4917" offset="0" stop-color="#8645a3" stop-opacity="1"/><stop id="stop4919" offset="1" stop-color="#d164ff" stop-opacity="1"/></linearGradient><linearGradient id="linearGradient3687-2"><stop id="stop3689-6" offset="0" stop-color="#1a1a1a" stop-opacity="1"/><stop id="stop3691-8" offset=".111" stop-color="#2c2c2e" stop-opacity="1"/><stop id="stop3693-8" offset=".29" stop-color="#2b2b2d" stop-opacity="1"/><stop id="stop3695-4" offset=".512" stop-color="#2a2b2d" stop-opacity="1"/><stop id="stop3699-86" offset=".752" stop-color="#2b2b2d" stop-opacity="1"/><stop id="stop3701-8" offset=".897" stop-color="#323232" stop-opacity="1"/><stop id="stop3703-9" offset="1" stop-color="#171717" stop-opacity="1"/></linearGradient><linearGradient id="linearGradient4642"><stop id="stop4644" offset="0" stop-color="#0bac83" stop-opacity="1"/><stop id="stop4646" offset="1" stop-color="#13ffaf" stop-opacity="1"/></linearGradient><linearGradient id="linearGradient4179-7"><stop id="stop4181-2" offset="0" stop-color="#e8d800" stop-opacity="1"/><stop id="stop4183-1" offset="1" stop-color="#feff68" stop-opacity="1"/></linearGradient><linearGradient id="linearGradient4422"><stop id="stop4424" offset="0" stop-color="#ff9300" stop-opacity="1"/><stop id="stop4426" offset="1" stop-color="#ffd702" stop-opacity="1"/></linearGradient><linearGradient id="linearGradient8467-7"><stop id="stop8469-4" offset="0" stop-color="#3ec896" stop-opacity="1"/><stop id="stop8471-7" offset="1" stop-color="#66d9af" stop-opacity="1"/></linearGradient><linearGradient id="linearGradient5845"><stop id="stop5847" offset="0" stop-color="#974eb7" stop-opacity="1"/><stop id="stop5849" offset="1" stop-color="#d164ff" stop-opacity="1"/></linearGradient><linearGradient id="linearGradient4298"><stop id="stop4300" offset="0" stop-color="#ea3c53" stop-opacity="1"/><stop id="stop4302" offset="1" stop-color="#fc593d" stop-opacity="1"/></linearGradient><linearGradient id="linearGradient4232"><stop id="stop4234-0" offset="0" stop-color="#3889e9" stop-opacity="1"/><stop id="stop4236" offset="1" stop-color="#5ea5fb" stop-opacity="1"/></linearGradient><linearGradient id="linearGradient4290-1"><stop id="stop4292-9" offset="0" stop-color="#a5a5a5" stop-opacity="1"/><stop id="stop4294-1" offset="1" stop-color="#f5f2f5" stop-opacity="1"/></linearGradient><linearGradient id="linearGradient4181" x1="399.994" x2="399.994" y1="545.139" y2="518.139" gradientUnits="userSpaceOnUse" xlink:href="#linearGradient5076"/><linearGradient id="linearGradient5076"><stop id="stop5078" offset="0" stop-color="#c52828" stop-opacity="1"/><stop id="stop5080" offset="1" stop-color="#ff5454" stop-opacity="1"/></linearGradient></defs><metadata id="metadata5458"/><g id="layer1" transform="translate(-384.57143,-499.798)"><g id="layer1-4" transform="translate(392.24401,-502.51656)"><g id="g4413" stroke-dasharray="none" stroke-miterlimit="4" stroke-width="1.317" transform="matrix(1.138587,0,0,1.138587,-3.4562036,-142.80276)"><g id="g4312" transform="matrix(1.0539376,0,0,1.0539376,-0.91298719,-55.411661)"><g id="g3554" fill="#fff" fill-opacity=".855" transform="matrix(0.93641636,0,0,0.93641636,-297.43167,515.48015)"><circle id="path3377" cx="400.571" cy="531.798" r="14" fill="url(#linearGradient4181)" fill-opacity="1" stroke="none" stroke-dasharray="none" stroke-dashoffset="0" stroke-miterlimit="4" stroke-opacity="1" stroke-width="1.3" opacity="1" transform="matrix(1.462009,0,0,1.462009,-249.48049,-231.41102)"/><path id="path5" fill="#fff" fill-opacity=".855" d="m 344.72742,547.77108 c -0.3393,-0.33429 -1.09181,-0.51134 -2.23689,-0.52638 -0.77514,-0.009 -1.70808,0.0598 -2.68939,0.19711 -0.43941,-0.25353 -0.89223,-0.52944 -1.24777,-0.86168 -0.95628,-0.893 -1.75452,-2.1325 -2.25193,-3.4955 0.0324,-0.12731 0.06,-0.23921 0.0857,-0.35339 0,0 0.53865,-3.05952 0.39606,-4.09396 -0.0196,-0.14187 -0.0317,-0.18302 -0.0698,-0.29329 l -0.0468,-0.1202 c -0.14651,-0.33792 -0.43378,-0.69599 -0.88416,-0.67646 l -0.26412,-0.008 -0.008,-1.4e-4 c -0.50223,0 -0.91157,0.25686 -1.01902,0.64081 -0.32661,1.20418 0.0104,3.00563 0.62114,5.33886 l -0.15633,0.38002 c -0.43731,1.06603 -0.98532,2.13966 -1.46884,3.08683 l -0.0629,0.12321 c -0.50867,0.99548 -0.97023,1.84055 -1.38863,2.55644 l -0.432,0.22842 c -0.0315,0.0166 -0.77185,0.40818 -0.94551,0.51325 -1.47321,0.87962 -2.44946,1.87821 -2.61143,2.67062 -0.0516,0.25286 -0.0132,0.57641 0.24895,0.72626 l 0.41782,0.21027 c 0.18125,0.0908 0.37239,0.13681 0.5682,0.13681 1.04928,0 2.26745,-1.3071 3.94555,-4.23569 1.9375,-0.63078 4.14341,-1.15506 6.07672,-1.44425 1.47331,0.82961 3.28536,1.40578 4.42906,1.40578 0.20307,0 0.37812,-0.0194 0.52037,-0.057 0.21935,-0.058 0.40422,-0.1832 0.51693,-0.35295 0.22187,-0.33391 0.26689,-0.79389 0.20665,-1.26486 -0.018,-0.13972 -0.1296,-0.31252 -0.25037,-0.43052 z m -15.67236,5.58327 c 0.19132,-0.52318 0.94875,-1.55747 2.06863,-2.47519 0.0704,-0.0571 0.24383,-0.21963 0.40265,-0.37053 -1.1711,1.86781 -1.95535,2.61225 -2.47128,2.84572 z m 6.63297,-15.27448 c 0.33731,0 0.52915,0.85018 0.5451,1.64722 0.0159,0.79709 -0.17051,1.3565 -0.40174,1.77042 -0.19152,-0.61283 -0.28407,-1.57877 -0.28407,-2.21036 0,0 -0.0141,-1.20728 0.14071,-1.20728 z m -1.97864,10.88494 c 0.23496,-0.42059 0.47941,-0.86416 0.72921,-1.33455 0.60892,-1.15153 0.99348,-2.05259 1.27989,-2.7932 0.56964,1.03634 1.27903,1.9174 2.11298,2.62332 0.10402,0.088 0.21423,0.17652 0.33,0.26478 -1.69587,0.33554 -3.1616,0.74363 -4.45208,1.23965 z m 10.69219,-0.0955 c -0.1033,0.0646 -0.39916,0.10192 -0.58949,0.10192 -0.61422,0 -1.37417,-0.28083 -2.43954,-0.73757 0.40934,-0.0303 0.78468,-0.0457 1.12127,-0.0457 0.61608,0 0.79857,-0.003 1.401,0.151 0.60242,0.15366 0.61001,0.46575 0.50676,0.53034 z m 5.99564,-2.78694 a 14.238686,14.238686 0 0 1 -14.23869,14.23868 14.238686,14.238686 0 0 1 -14.23868,-14.23868 14.238686,14.238686 0 0 1 14.23868,-14.23869 14.238686,14.238686 0 0 1 14.23869,14.23869 z"/></g></g></g></g></g></svg>