<svg xmlns="http://www.w3.org/2000/svg" xmlns:svg="http://www.w3.org/2000/svg" xmlns:xlink="http://www.w3.org/1999/xlink" id="svg5453" width="48" height="48" version="1.1"><defs id="defs5455"><linearGradient id="linearGradient8311-06"><stop id="stop8313-6" offset="0" stop-color="#a9a3d4" stop-opacity="1"/><stop id="stop4462" offset=".47" stop-color="#87baff" stop-opacity="1"/><stop id="stop8315-2" offset="1" stop-color="#89ec85" stop-opacity="1"/></linearGradient><linearGradient id="linearGradient4460" x1="0" x2="47" y1="23.5" y2="23.5" gradientUnits="userSpaceOnUse" xlink:href="#linearGradient8311-06"/><linearGradient id="linearGradient4915"><stop id="stop4917" offset="0" stop-color="#8645a3" stop-opacity="1"/><stop id="stop4919" offset="1" stop-color="#d164ff" stop-opacity="1"/></linearGradient><linearGradient id="linearGradient3687-2"><stop id="stop3689-6" offset="0" stop-color="#1a1a1a" stop-opacity="1"/><stop id="stop3691-8" offset=".111" stop-color="#2c2c2e" stop-opacity="1"/><stop id="stop3693-8" offset=".29" stop-color="#2b2b2d" stop-opacity="1"/><stop id="stop3695-4" offset=".512" stop-color="#2a2b2d" stop-opacity="1"/><stop id="stop3699-86" offset=".752" stop-color="#2b2b2d" stop-opacity="1"/><stop id="stop3701-8" offset=".897" stop-color="#323232" stop-opacity="1"/><stop id="stop3703-9" offset="1" stop-color="#171717" stop-opacity="1"/></linearGradient><linearGradient id="linearGradient4642"><stop id="stop4644" offset="0" stop-color="#0bac83" stop-opacity="1"/><stop id="stop4646" offset="1" stop-color="#13ffaf" stop-opacity="1"/></linearGradient><linearGradient id="linearGradient4179-7"><stop id="stop4181-2" offset="0" stop-color="#e8d800" stop-opacity="1"/><stop id="stop4183-1" offset="1" stop-color="#feff68" stop-opacity="1"/></linearGradient><linearGradient id="linearGradient4422"><stop id="stop4424" offset="0" stop-color="#ff9300" stop-opacity="1"/><stop id="stop4426" offset="1" stop-color="#ffd702" stop-opacity="1"/></linearGradient><linearGradient id="linearGradient8467-7"><stop id="stop8469-4" offset="0" stop-color="#3ec896" stop-opacity="1"/><stop id="stop8471-7" offset="1" stop-color="#66d9af" stop-opacity="1"/></linearGradient><linearGradient id="linearGradient5845"><stop id="stop5847" offset="0" stop-color="#974eb7" stop-opacity="1"/><stop id="stop5849" offset="1" stop-color="#d164ff" stop-opacity="1"/></linearGradient><linearGradient id="linearGradient4298"><stop id="stop4300" offset="0" stop-color="#ea3c53" stop-opacity="1"/><stop id="stop4302" offset="1" stop-color="#fc593d" stop-opacity="1"/></linearGradient><linearGradient id="linearGradient4232"><stop id="stop4234-0" offset="0" stop-color="#3889e9" stop-opacity="1"/><stop id="stop4236" offset="1" stop-color="#5ea5fb" stop-opacity="1"/></linearGradient><linearGradient id="linearGradient4181" x1="399.994" x2="399.994" y1="545.139" y2="518.139" gradientUnits="userSpaceOnUse" xlink:href="#linearGradient4531"/><linearGradient id="linearGradient4531"><stop id="stop4533" offset="0" stop-color="#ac5dd3" stop-opacity="1"/><stop id="stop4535" offset="1" stop-color="#c972eb" stop-opacity="1"/></linearGradient></defs><metadata id="metadata5458"/><g id="layer1" transform="translate(-384.57143,-499.798)"><g id="layer1-4" transform="translate(392.24401,-502.51656)"><g id="g4413" stroke-dasharray="none" stroke-miterlimit="4" stroke-width="1.317" transform="matrix(1.138587,0,0,1.138587,-3.4562036,-142.80276)"><g id="g4312" transform="matrix(1.0539376,0,0,1.0539376,-0.91298719,-55.411661)"><g id="g3390" fill="#fff" fill-opacity=".85" transform="matrix(0.14137633,0,0,0.14137633,10.707915,1017.227)"><circle id="path3377" cx="400.571" cy="531.798" r="14" fill="url(#linearGradient4181)" fill-opacity="1" stroke="none" stroke-dasharray="none" stroke-dashoffset="0" stroke-miterlimit="4" stroke-opacity="1" stroke-width="1.3" opacity="1" transform="matrix(9.6837221,0,0,9.6837221,-3832.0218,-5081.7835)"/><path id="path4989" fill="#fff" fill-opacity=".85" d="m 47,94.07 c 7.17,0 13.307,-2.553 18.412,-7.657 C 70.517,81.309 73.07,75.17 73.07,68 l 0,-41.714 C 73.07,19.116 70.519,12.979 65.412,7.873 60.307,2.768 54.17,0.214 47,0.214 c -7.17,0 -13.307,2.554 -18.413,7.659 -5.106,5.105 -7.659,11.243 -7.659,18.413 l 0,41.714 c 0,7.17 2.554,13.309 7.659,18.413 C 33.692,91.517 39.83,94.07 47,94.07 l 0,0 z"/><path id="path4991" fill="#fff" fill-opacity=".85" d="m 92.38,53.905 c -1.03,-1.032 -2.254,-1.548 -3.666,-1.548 -1.412,0 -2.634,0.516 -3.666,1.548 -1.032,1.032 -1.548,2.254 -1.548,3.666 L 83.5,68 C 83.5,78.049 79.928,86.643 72.786,93.786 65.645,100.929 57.049,104.5 47,104.5 36.951,104.5 28.356,100.929 21.213,93.786 14.071,86.645 10.5,78.049 10.5,68 l 0,-10.429 C 10.5,56.159 9.984,54.937 8.952,53.905 7.92,52.873 6.699,52.357 5.286,52.357 c -1.413,0 -2.635,0.516 -3.667,1.548 -1.032,1.032 -1.548,2.254 -1.548,3.666 l 0,10.429 c 0,12.004 4.006,22.446 12.017,31.326 8.011,8.88 17.91,13.972 29.697,15.275 l 0,10.756 -20.857,0 c -1.412,0 -2.634,0.516 -3.666,1.548 -1.032,1.032 -1.548,2.254 -1.548,3.666 0,1.411 0.516,2.635 1.548,3.666 1.032,1.032 2.254,1.549 3.666,1.549 l 52.142,0 c 1.412,0 2.636,-0.517 3.666,-1.549 1.033,-1.031 1.55,-2.255 1.55,-3.666 0,-1.412 -0.517,-2.634 -1.55,-3.666 -1.03,-1.032 -2.254,-1.548 -3.666,-1.548 l -20.855,0 0,-10.756 C 64,113.298 73.899,108.206 81.911,99.326 89.923,90.446 93.93,80.004 93.93,68 l 0,-10.429 c 0,-1.412 -0.517,-2.633 -1.55,-3.666 l 0,0 z"/></g></g></g></g></g></svg>