<svg xmlns="http://www.w3.org/2000/svg" xmlns:svg="http://www.w3.org/2000/svg" xmlns:xlink="http://www.w3.org/1999/xlink" id="svg5453" width="48" height="48" version="1.1"><defs id="defs5455"><linearGradient id="linearGradient4756"><stop id="stop4758" offset="0" stop-color="#eaeaea" stop-opacity="1"/><stop id="stop4760" offset="1" stop-color="#fff" stop-opacity="1"/></linearGradient><linearGradient id="linearGradient4700"><stop id="stop4702" offset="0" stop-color="#e7ddd5" stop-opacity="1"/><stop id="stop4704" offset="1" stop-color="#f1e9e0" stop-opacity="1"/></linearGradient><linearGradient id="linearGradient4694"><stop id="stop4696" offset="0" stop-color="#d81d00" stop-opacity="1"/><stop id="stop4698" offset="1" stop-color="#da4831" stop-opacity="1"/></linearGradient><linearGradient id="linearGradient4686"><stop id="stop4688" offset="0" stop-color="#e3e3e3" stop-opacity="1"/><stop id="stop4690" offset="1" stop-color="#f8f8f8" stop-opacity="1"/></linearGradient><linearGradient id="linearGradient4678"><stop id="stop4680" offset="0" stop-color="#e1e1e1" stop-opacity="1"/><stop id="stop4682" offset="1" stop-color="#f9f9f9" stop-opacity="1"/></linearGradient><linearGradient id="linearGradient4630"><stop id="stop4632" offset="0" stop-color="#d22900" stop-opacity="1"/><stop id="stop4634" offset="1" stop-color="#ff6443" stop-opacity="1"/></linearGradient><linearGradient id="linearGradient4418"><stop id="stop4420" offset="0" stop-color="#2c2e31" stop-opacity="1"/><stop id="stop4422" offset="1" stop-color="#40464d" stop-opacity="1"/></linearGradient><linearGradient id="linearGradient4523" x1="405.571" x2="404.974" y1="543.798" y2="502.121" gradientTransform="matrix(2.9019715,0,0,2.9019715,-1808.8505,-993.69135)" gradientUnits="userSpaceOnUse" xlink:href="#linearGradient4206"/><linearGradient id="linearGradient216" x1="0" x2="1" y1="0" y2="0" gradientTransform="matrix(0,-100,-100,0,96,146)" gradientUnits="userSpaceOnUse" spreadMethod="pad"><stop id="stop218" offset="0" stop-color="#fafafa" stop-opacity="1"/><stop id="stop220" offset="1" stop-color="#e0e0e0" stop-opacity="1"/></linearGradient><linearGradient id="linearGradient4206"><stop id="stop4208" offset="0" stop-color="#1584d8" stop-opacity="1"/><stop id="stop4210" offset="1" stop-color="#1cb2ff" stop-opacity="1"/></linearGradient><linearGradient id="linearGradient4636" x1="-411.012" x2="-411.405" y1="569.617" y2="530.082" gradientUnits="userSpaceOnUse" xlink:href="#linearGradient4630"/><linearGradient id="linearGradient4644" x1="-391.231" x2="-388.253" y1="568.708" y2="529.755" gradientUnits="userSpaceOnUse" xlink:href="#linearGradient4630"/><linearGradient id="linearGradient4652" x1="-433.012" x2="-435.266" y1="569.866" y2="529.75" gradientUnits="userSpaceOnUse" xlink:href="#linearGradient4630"/><linearGradient id="linearGradient4660" x1="-567.926" x2="-567.013" y1="551.277" y2="541.888" gradientUnits="userSpaceOnUse" xlink:href="#linearGradient4694"/><linearGradient id="linearGradient4668" x1="-377.213" x2="-381.875" y1="526.346" y2="569.37" gradientUnits="userSpaceOnUse" xlink:href="#linearGradient216"/><linearGradient id="linearGradient4676" x1="-398.519" x2="-401.114" y1="529.983" y2="569.227" gradientTransform="translate(-0.20021,0)" gradientUnits="userSpaceOnUse" xlink:href="#linearGradient216"/><linearGradient id="linearGradient4684" x1="-421.421" x2="-423.435" y1="568.35" y2="530.85" gradientUnits="userSpaceOnUse" xlink:href="#linearGradient4678"/><linearGradient id="linearGradient4692" x1="-442.879" x2="-446.668" y1="567.62" y2="526.632" gradientUnits="userSpaceOnUse" xlink:href="#linearGradient4686"/><linearGradient id="linearGradient4706" x1="-412.102" x2="-408.323" y1="535.994" y2="462.859" gradientUnits="userSpaceOnUse" xlink:href="#linearGradient4700"/><linearGradient id="linearGradient4714" x1="-591.369" x2="-580.187" y1="535.056" y2="522.822" gradientUnits="userSpaceOnUse" xlink:href="#linearGradient4418"/><linearGradient id="linearGradient4722" x1="-553.436" x2="-538.458" y1="535.695" y2="525.571" gradientUnits="userSpaceOnUse" xlink:href="#linearGradient4418"/><linearGradient id="linearGradient4754" x1="-509.233" x2="-510.978" y1="613.574" y2="466.218" gradientTransform="translate(-123.29828,-23.794405)" gradientUnits="userSpaceOnUse" xlink:href="#linearGradient4756"/></defs><metadata id="metadata5458"/><g id="layer1" transform="translate(-384.57143,-499.798)"><g id="g4773" transform="matrix(0.36055872,0,0,0.36055872,635.65957,336.20665)"><g id="g4312" transform="matrix(1.0222398,0,0,1.0222398,13.779312,-11.640102)"><circle id="path4515" cx="-630.617" cy="522.867" r="62.515" fill="url(#linearGradient4523)" fill-opacity="1" stroke="none" stroke-dasharray="none" stroke-linecap="round" stroke-linejoin="round" stroke-miterlimit="4" stroke-opacity="1" stroke-width="1.436" opacity="1"/><path id="path4564" fill="url(#linearGradient4706)" fill-opacity="1" fill-rule="evenodd" stroke="none" stroke-linecap="butt" stroke-linejoin="miter" stroke-opacity="1" stroke-width=".958" d="m -449.36992,526.00777 c 19.21202,18.02163 60.18942,11.93771 75.35611,0.6202 6.62792,-6.41239 4.34432,-15.64854 -1.66031,-17.87573 17.61103,-39.10589 -42.72944,-63.53712 -55.39999,-19.13701 -7.44338,-13.87381 -35.5539,-0.12963 -17.98576,18.006 -8.69599,1.39617 -11.20672,14.7292 -0.31005,18.38654 z" opacity="1" transform="translate(-216.67067,16.415884)"/><path id="path4442-4" fill="url(#linearGradient4684)" fill-opacity="1" fill-rule="evenodd" stroke="none" stroke-linecap="butt" stroke-linejoin="miter" stroke-opacity="1" stroke-width=".958" d="m -428.10584,564.9502 10.75695,0.40044 -0.61769,-30.39103 c -0.0211,-5.65172 -9.85702,-7.42098 -11.30341,-1.35827 z" opacity="1" transform="translate(-216.67067,16.415884)"/><path id="path4442-4-1" fill="url(#linearGradient4676)" fill-opacity="1" fill-rule="evenodd" stroke="none" stroke-linecap="butt" stroke-linejoin="miter" stroke-opacity="1" stroke-width=".958" d="m -396.15642,565.37411 -10.12077,-0.0725 0.92738,-30.62749 c 0.0211,-5.65172 9.85702,-7.42098 11.30342,-1.35828 z" opacity="1" transform="translate(-216.67067,16.415884)"/><circle id="path4566" cx="-585.145" cy="535.056" r="6.224" fill="url(#linearGradient4714)" fill-opacity="1" stroke="none" stroke-dasharray="none" stroke-dashoffset="0" stroke-linecap="round" stroke-linejoin="round" stroke-miterlimit="4" stroke-opacity="1" stroke-width=".6" opacity="1" transform="matrix(1.0443826,0,0,1.0443826,-36.989453,-34.259662)"/><circle id="path4566-1" cx="-547.212" cy="535.695" r="6.224" fill="url(#linearGradient4722)" fill-opacity="1" stroke="none" stroke-dasharray="none" stroke-dashoffset="0" stroke-linecap="round" stroke-linejoin="round" stroke-miterlimit="4" stroke-opacity="1" stroke-width=".6" opacity="1" transform="matrix(1.0443826,0,0,1.0443826,-36.989453,-34.259662)"/><path id="path4589" fill="url(#linearGradient4660)" fill-opacity="1" fill-rule="evenodd" stroke="none" stroke-linecap="butt" stroke-linejoin="miter" stroke-opacity="1" stroke-width=".958" d="m -556.81221,542.83567 c -1.47453,11.30987 -17.85679,10.65795 -18.58539,-0.13982 -0.12844,-1.06233 0.094,-0.97034 1.12492,-0.976 l 16.13171,-0.0886 c 1.41368,-0.13111 1.43846,0.022 1.32876,1.20446 z" opacity=".848" transform="matrix(1.0443826,0,0,1.0443826,-36.989453,-34.259662)"/><path id="path4442-0-6" fill="url(#linearGradient4636)" fill-opacity="1" fill-rule="evenodd" stroke="none" stroke-linecap="butt" stroke-linejoin="miter" stroke-opacity="1" stroke-width=".958" d="m -417.56994,565.33917 11.44159,-0.18466 0.82836,-29.17359 c -0.0706,-8.11549 -12.65213,-8.14302 -12.689,-0.13145 z" opacity="1" transform="translate(-216.67067,16.415884)"/><path id="path4442-0-0" fill="url(#linearGradient4644)" fill-opacity="1" fill-rule="evenodd" stroke="none" stroke-linecap="butt" stroke-linejoin="miter" stroke-opacity="1" stroke-width=".958" d="m -386.44769,563.18717 -10.01599,1.83517 1.83553,-31.93678 c 0.15345,-5.64982 10.25462,-7.19911 11.60788,-1.10535 z" opacity="1" transform="translate(-216.67067,16.415884)"/><path id="path4442-43" fill="url(#linearGradient4668)" fill-opacity="1" fill-rule="evenodd" stroke="none" stroke-linecap="butt" stroke-linejoin="miter" stroke-opacity="1" stroke-width=".958" d="m -376.31715,558.03841 -10.06991,4.70035 3.41418,-31.67486 c 0.43448,-5.63504 10.27381,-6.68724 11.27276,-0.53497 z" opacity="1" transform="translate(-216.67067,16.415884)"/><path id="path4442-0" fill="url(#linearGradient4652)" fill-opacity="1" fill-rule="evenodd" stroke="none" stroke-linecap="butt" stroke-linejoin="miter" stroke-opacity="1" stroke-width=".958" d="m -438.87536,558.97843 11.36473,5.44393 -1.7423,-31.05131 c -0.15344,-5.64982 -10.25462,-7.19911 -11.60786,-1.10534 z" opacity="1" transform="translate(-216.67067,16.415884)"/><path id="path4442" fill="url(#linearGradient4692)" fill-opacity="1" fill-rule="evenodd" stroke="none" stroke-linecap="butt" stroke-linejoin="miter" stroke-opacity="1" stroke-width=".958" d="m -447.69377,557.43793 9.11633,1.45065 -2.33079,-27.53918 c -0.43447,-5.63504 -10.27381,-6.68725 -11.27276,-0.53498 z" opacity="1" transform="translate(-216.67067,16.415884)"/><circle id="path4515-8" cx="-629.288" cy="520.629" r="62.515" fill="none" fill-opacity="1" stroke="url(#linearGradient4754)" stroke-dasharray="none" stroke-linecap="round" stroke-linejoin="round" stroke-miterlimit="4" stroke-opacity="1" stroke-width="5.2" opacity="1"/></g></g></g></svg>