<svg xmlns="http://www.w3.org/2000/svg" xmlns:svg="http://www.w3.org/2000/svg" xmlns:xlink="http://www.w3.org/1999/xlink" id="svg5453" width="48" height="48" version="1.1"><defs id="defs5455"><linearGradient id="linearGradient4226"><stop id="stop4228" offset="0" stop-color="#197cf1" stop-opacity="1"/><stop id="stop4230" offset="1" stop-color="#20bcfa" stop-opacity="1"/></linearGradient><linearGradient id="linearGradient4224" x1="197.886" x2="183.327" y1="364.757" y2="12.946" gradientUnits="userSpaceOnUse" xlink:href="#linearGradient4226"/><linearGradient id="linearGradient4234" x1="197.886" x2="183.327" y1="364.757" y2="12.946" gradientUnits="userSpaceOnUse" xlink:href="#linearGradient4226"/><linearGradient id="linearGradient4236" x1="197.886" x2="183.327" y1="364.757" y2="12.946" gradientUnits="userSpaceOnUse" xlink:href="#linearGradient4226"/><linearGradient id="linearGradient4238" x1="197.886" x2="183.327" y1="364.757" y2="12.946" gradientUnits="userSpaceOnUse" xlink:href="#linearGradient4226"/></defs><metadata id="metadata5458"/><g id="layer1" transform="translate(-384.57143,-499.798)"><ellipse id="path4182" cx="408.571" cy="524.86" fill="#fff" fill-opacity="1" fill-rule="evenodd" stroke="none" stroke-dasharray="none" stroke-dashoffset="0" stroke-linecap="round" stroke-linejoin="round" stroke-miterlimit="4" stroke-opacity="1" stroke-width="1.2" opacity="1" rx="11.625" ry="17.188"/><g id="g3" fill="url(#linearGradient4224)" fill-opacity="1" opacity="1" transform="matrix(0.12777778,0,0,0.12777778,385.57143,500.798)"><path id="path5" fill="url(#linearGradient4234)" fill-opacity="1" d="M 180.003,0 C 113.723,0 60,53.723 60,120 l 0,120 c 0,66.277 53.723,120 120.003,120 C 246.277,360 300,306.277 300,240 l 0,-120 C 300,53.723 246.277,0 180.003,0 Z m 69.364,224.128 c 2.705,2.168 4.279,5.448 4.279,8.915 0,3.467 -1.574,6.746 -4.279,8.915 l -71.652,57.439 c -2.067,1.657 -4.597,2.511 -7.148,2.511 -1.68,0 -3.369,-0.371 -4.942,-1.125 -3.961,-1.901 -6.481,-5.906 -6.481,-10.3 l 0,-82.024 -34.182,27.632 c -2.114,1.709 -4.653,2.541 -7.176,2.541 -3.331,0 -6.634,-1.45 -8.892,-4.243 -3.967,-4.907 -3.204,-12.101 1.703,-16.068 l 47.385,-38.306 -47.385,-38.306 c -4.907,-3.967 -5.67,-11.161 -1.703,-16.068 3.967,-4.908 11.162,-5.669 16.068,-1.703 l 34.182,27.632 0,-82.051 c 0,-4.394 2.52,-8.399 6.481,-10.3 3.962,-1.901 8.663,-1.362 12.091,1.386 l 71.652,57.441 c 2.705,2.168 4.279,5.448 4.279,8.914 0,3.466 -1.574,6.746 -4.279,8.915 L 194.322,180 l 55.045,44.128 z"/><polygon id="polygon7" fill="url(#linearGradient4236)" fill-opacity="1" points="223.954 126.959 181.994 93.321 181.994 160.596"/><polygon id="polygon9" fill="url(#linearGradient4238)" fill-opacity="1" points="223.954 233.042 181.994 199.404 181.994 266.679"/></g></g></svg>