<svg xmlns="http://www.w3.org/2000/svg" xmlns:svg="http://www.w3.org/2000/svg" xmlns:xlink="http://www.w3.org/1999/xlink" id="svg5453" width="48" height="48" version="1.1"><defs id="defs5455"><linearGradient id="linearGradient4366"><stop id="stop4368" offset="0" stop-color="#ff857d" stop-opacity="1"/><stop id="stop4370" offset="1" stop-color="#da4756" stop-opacity="1"/></linearGradient><linearGradient id="linearGradient4372" x1="474.015" x2="474.015" y1="-4.222" y2="977.109" gradientUnits="userSpaceOnUse" xlink:href="#linearGradient4366"/><linearGradient id="linearGradient4277" x1="474.015" x2="474.015" y1="-4.222" y2="977.109" gradientUnits="userSpaceOnUse" xlink:href="#linearGradient4366"/><linearGradient id="linearGradient4279" x1="474.015" x2="474.015" y1="-4.222" y2="977.109" gradientUnits="userSpaceOnUse" xlink:href="#linearGradient4366"/><linearGradient id="linearGradient4281" x1="474.015" x2="474.015" y1="-4.222" y2="977.109" gradientUnits="userSpaceOnUse" xlink:href="#linearGradient4366"/><linearGradient id="linearGradient4283" x1="474.015" x2="474.015" y1="-4.222" y2="977.109" gradientUnits="userSpaceOnUse" xlink:href="#linearGradient4366"/><linearGradient id="linearGradient4285" x1="474.015" x2="474.015" y1="-4.222" y2="977.109" gradientUnits="userSpaceOnUse" xlink:href="#linearGradient4366"/><linearGradient id="linearGradient4287" x1="474.015" x2="474.015" y1="-4.222" y2="977.109" gradientUnits="userSpaceOnUse" xlink:href="#linearGradient4366"/><linearGradient id="linearGradient4289" x1="474.015" x2="474.015" y1="-4.222" y2="977.109" gradientUnits="userSpaceOnUse" xlink:href="#linearGradient4366"/><linearGradient id="linearGradient4291" x1="474.015" x2="474.015" y1="-4.222" y2="977.109" gradientUnits="userSpaceOnUse" xlink:href="#linearGradient4366"/><linearGradient id="linearGradient4293" x1="474.015" x2="474.015" y1="-4.222" y2="977.109" gradientUnits="userSpaceOnUse" xlink:href="#linearGradient4366"/><linearGradient id="linearGradient4295" x1="474.015" x2="474.015" y1="-4.222" y2="977.109" gradientUnits="userSpaceOnUse" xlink:href="#linearGradient4366"/><linearGradient id="linearGradient4297" x1="474.015" x2="474.015" y1="-4.222" y2="977.109" gradientUnits="userSpaceOnUse" xlink:href="#linearGradient4366"/><linearGradient id="linearGradient4299" x1="474.015" x2="474.015" y1="-4.222" y2="977.109" gradientUnits="userSpaceOnUse" xlink:href="#linearGradient4366"/><linearGradient id="linearGradient4301" x1="474.015" x2="474.015" y1="-4.222" y2="977.109" gradientUnits="userSpaceOnUse" xlink:href="#linearGradient4366"/><linearGradient id="linearGradient4303" x1="474.015" x2="474.015" y1="-4.222" y2="977.109" gradientUnits="userSpaceOnUse" xlink:href="#linearGradient4366"/><linearGradient id="linearGradient4305" x1="474.015" x2="474.015" y1="-4.222" y2="977.109" gradientUnits="userSpaceOnUse" xlink:href="#linearGradient4366"/><linearGradient id="linearGradient4307" x1="474.015" x2="474.015" y1="-4.222" y2="977.109" gradientUnits="userSpaceOnUse" xlink:href="#linearGradient4366"/><linearGradient id="linearGradient4309" x1="474.015" x2="474.015" y1="-4.222" y2="977.109" gradientUnits="userSpaceOnUse" xlink:href="#linearGradient4366"/></defs><metadata id="metadata5458"/><g id="layer1" transform="translate(-384.57143,-499.798)"><g id="layer1-2" transform="matrix(1.0000816,0,0,1.0000816,0.28424748,0.00774184)"><g id="g4390" transform="matrix(1.6428572,0,0,1.6428572,-196.41213,-341.9024)"><g id="layer1-5" transform="matrix(0.55677325,0,0,0.54283059,-60.902843,428.17349)"><g id="g4206" fill="url(#linearGradient4372)" fill-opacity="1" stroke="none" stroke-dasharray="none" stroke-miterlimit="4" stroke-opacity="1" stroke-width="9.512" transform="matrix(0.05256276,0,0,0.05256276,744.65139,156.1168)"><g id="g4166" fill="url(#linearGradient4279)" fill-opacity="1" stroke="none" stroke-dasharray="none" stroke-miterlimit="4" stroke-opacity="1" stroke-width="9.512"><path id="path4168" fill="url(#linearGradient4277)" fill-opacity="1" stroke="none" stroke-dasharray="none" stroke-miterlimit="4" stroke-opacity="1" stroke-width="9.512" d="m 946.23,206.651 c -0.3,-23 -18,-42 -40.899,-44.101 -190.3,-17.8 -345.601,-119.5 -396.8,-156.7 -10.7,-7.8 -25.2,-7.8 -35.9,0 -51.1,37.2 -206.4,138.9 -396.7,156.7 -22.9,2.101 -40.5,21.101 -40.9,44.101 -2.3,150.1 21.8,659.699 444.1,773.1 7.5,2 15.4,2 22.9,0 422.3,-113.3 446.399,-623.001 444.199,-773.1 z"/></g></g></g><g id="g3" fill="#fff" fill-opacity="1" opacity="1" transform="matrix(0.49561435,0,0,0.49561435,360.90675,520.91582)"><circle id="circle5" cx="21.732" cy="5.5" r="1.5" fill="#fff" fill-opacity="1"/><circle id="circle7" cx="17.732" cy="2.5" r="1.5" fill="#fff" fill-opacity="1"/><circle id="circle9" cx="13.732" cy="1.5" r="1.5" fill="#fff" fill-opacity="1"/><circle id="circle11" cx="9.732" cy="3.5" r="1.5" fill="#fff" fill-opacity="1"/><path id="path13" fill="#fff" fill-opacity="1" d="m 20.232,5.5 0,6.5 c 0,0.276 -0.224,0.5 -0.5,0.5 -0.276,0 -0.5,-0.224 -0.5,-0.5 l 0,-9.5 -3,0 0,8.5 c 0,0.276 -0.224,0.5 -0.5,0.5 -0.276,0 -0.5,-0.224 -0.5,-0.5 l 0,-9.5 -3,0 0,9.5 c 0,0.276 -0.224,0.5 -0.5,0.5 -0.276,0 -0.5,-0.224 -0.5,-0.5 l 0,-7.5 -3,0 0,12.5 -2.025,-2.771 c -0.6,-0.925 -1.771,-1.235 -2.629,-0.705 -0.855,0.542 -1.067,1.724 -0.475,2.646 0,0 3.266,4.943 4.658,7.059 1.392,2.116 3.647,3.771 7.864,3.771 6.982,0 7.607,-5.392 7.607,-7 0,-1.608 0,-13.5 0,-13.5 l -3,0 z"/></g></g></g></g></svg>