<svg xmlns="http://www.w3.org/2000/svg" xmlns:svg="http://www.w3.org/2000/svg" xmlns:xlink="http://www.w3.org/1999/xlink" id="svg5453" width="48" height="48" version="1.1"><defs id="defs5455"><linearGradient id="linearGradient8311-06"><stop id="stop8313-6" offset="0" stop-color="#a9a3d4" stop-opacity="1"/><stop id="stop4462" offset=".47" stop-color="#87baff" stop-opacity="1"/><stop id="stop8315-2" offset="1" stop-color="#89ec85" stop-opacity="1"/></linearGradient><linearGradient id="linearGradient4460" x1="0" x2="47" y1="23.5" y2="23.5" gradientUnits="userSpaceOnUse" xlink:href="#linearGradient8311-06"/><linearGradient id="linearGradient4915"><stop id="stop4917" offset="0" stop-color="#8645a3" stop-opacity="1"/><stop id="stop4919" offset="1" stop-color="#d164ff" stop-opacity="1"/></linearGradient><linearGradient id="linearGradient3687-2"><stop id="stop3689-6" offset="0" stop-color="#1a1a1a" stop-opacity="1"/><stop id="stop3691-8" offset=".111" stop-color="#2c2c2e" stop-opacity="1"/><stop id="stop3693-8" offset=".29" stop-color="#2b2b2d" stop-opacity="1"/><stop id="stop3695-4" offset=".512" stop-color="#2a2b2d" stop-opacity="1"/><stop id="stop3699-86" offset=".752" stop-color="#2b2b2d" stop-opacity="1"/><stop id="stop3701-8" offset=".897" stop-color="#323232" stop-opacity="1"/><stop id="stop3703-9" offset="1" stop-color="#171717" stop-opacity="1"/></linearGradient><linearGradient id="linearGradient4642"><stop id="stop4644" offset="0" stop-color="#0bac83" stop-opacity="1"/><stop id="stop4646" offset="1" stop-color="#13ffaf" stop-opacity="1"/></linearGradient><linearGradient id="linearGradient4179-7"><stop id="stop4181-2" offset="0" stop-color="#e8d800" stop-opacity="1"/><stop id="stop4183-1" offset="1" stop-color="#feff68" stop-opacity="1"/></linearGradient><linearGradient id="linearGradient4422"><stop id="stop4424" offset="0" stop-color="#ff9300" stop-opacity="1"/><stop id="stop4426" offset="1" stop-color="#ffd702" stop-opacity="1"/></linearGradient><linearGradient id="linearGradient8467-7"><stop id="stop8469-4" offset="0" stop-color="#3ec896" stop-opacity="1"/><stop id="stop8471-7" offset="1" stop-color="#66d9af" stop-opacity="1"/></linearGradient><linearGradient id="linearGradient5845"><stop id="stop5847" offset="0" stop-color="#974eb7" stop-opacity="1"/><stop id="stop5849" offset="1" stop-color="#d164ff" stop-opacity="1"/></linearGradient><linearGradient id="linearGradient4298"><stop id="stop4300" offset="0" stop-color="#ea3c53" stop-opacity="1"/><stop id="stop4302" offset="1" stop-color="#fc593d" stop-opacity="1"/></linearGradient><linearGradient id="linearGradient4232"><stop id="stop4234-0" offset="0" stop-color="#3889e9" stop-opacity="1"/><stop id="stop4236" offset="1" stop-color="#5ea5fb" stop-opacity="1"/></linearGradient><linearGradient id="linearGradient4272" x1="220.538" x2="220.538" y1="502.543" y2="82.95" gradientUnits="userSpaceOnUse" xlink:href="#linearGradient4179-7"/><linearGradient id="linearGradient4348-8" x1="401.571" x2="401.571" y1="546.798" y2="517.798" gradientUnits="userSpaceOnUse" xlink:href="#linearGradient4422"/></defs><metadata id="metadata5458"/><g id="layer1" transform="translate(-384.57143,-499.798)"><g id="layer1-4" transform="translate(392.24401,-502.51656)"><g id="g4413" stroke-dasharray="none" stroke-miterlimit="4" stroke-width="1.317" transform="matrix(1.138587,0,0,1.138587,-3.4562036,-142.80276)"><g id="g4312" transform="matrix(1.0539376,0,0,1.0539376,-0.91298719,-55.411661)"><g id="g3444" fill="url(#linearGradient4272)" fill-opacity="1" transform="matrix(0.0344391,0,0,0.0344391,8.1101048,1018.0023)"><rect id="rect4160-4" width="28" height="28" x="386.572" y="517.798" fill="url(#linearGradient4348-8)" fill-opacity="1" stroke="none" ry="14" transform="matrix(39.752722,0,0,39.752722,-15655.434,-20883.783)"/><path id="path4331" fill="#342300" fill-opacity="1" d="M 139.165,51.421 103.389,15.557 C 43.413,61.202 3.742,132.185 0,212.402 l 50.174,0 C 53.916,145.992 88.051,87.766 139.165,51.421 Z m 335.814,160.981 50.174,0 C 521.411,132.185 481.74,61.202 421.567,15.557 l -35.863,35.864 c 51.398,36.345 85.533,94.571 89.275,160.981 z m -49.387,12.582 c 0,-77 -53.391,-141.463 -125.424,-158.487 l 0,-17.089 c 0,-20.787 -16.761,-37.614 -37.592,-37.614 -20.831,0 -37.592,16.827 -37.592,37.614 l 0,17.089 C 152.951,83.521 99.56,148.005 99.56,224.984 l 0,137.918 -50.152,50.108 0,25.076 426.336,0 0,-25.076 -50.152,-50.108 c 0,0 0,-137.918 0,-137.918 z M 262.576,513.358 c 3.523,0 6.761,-0.219 10.065,-1.007 16.236,-3.238 29.824,-14.529 36.06,-29.627 2.516,-5.952 4.048,-12.494 4.048,-19.54 l -100.347,0 c 0,27.593 22.582,50.174 50.174,50.174 z"/></g></g></g></g></g></svg>