<svg xmlns="http://www.w3.org/2000/svg" xmlns:svg="http://www.w3.org/2000/svg" xmlns:xlink="http://www.w3.org/1999/xlink" id="svg5453" width="48" height="48" version="1.1"><defs id="defs5455"><linearGradient id="linearGradient8311-06"><stop id="stop8313-6" offset="0" stop-color="#a9a3d4" stop-opacity="1"/><stop id="stop4462" offset=".47" stop-color="#87baff" stop-opacity="1"/><stop id="stop8315-2" offset="1" stop-color="#89ec85" stop-opacity="1"/></linearGradient><linearGradient id="linearGradient4460" x1="0" x2="47" y1="23.5" y2="23.5" gradientUnits="userSpaceOnUse" xlink:href="#linearGradient8311-06"/><linearGradient id="linearGradient4915"><stop id="stop4917" offset="0" stop-color="#8645a3" stop-opacity="1"/><stop id="stop4919" offset="1" stop-color="#d164ff" stop-opacity="1"/></linearGradient><linearGradient id="linearGradient3687-2"><stop id="stop3689-6" offset="0" stop-color="#1a1a1a" stop-opacity="1"/><stop id="stop3691-8" offset=".111" stop-color="#2c2c2e" stop-opacity="1"/><stop id="stop3693-8" offset=".29" stop-color="#2b2b2d" stop-opacity="1"/><stop id="stop3695-4" offset=".512" stop-color="#2a2b2d" stop-opacity="1"/><stop id="stop3699-86" offset=".752" stop-color="#2b2b2d" stop-opacity="1"/><stop id="stop3701-8" offset=".897" stop-color="#323232" stop-opacity="1"/><stop id="stop3703-9" offset="1" stop-color="#171717" stop-opacity="1"/></linearGradient><linearGradient id="linearGradient4642"><stop id="stop4644" offset="0" stop-color="#0bac83" stop-opacity="1"/><stop id="stop4646" offset="1" stop-color="#13ffaf" stop-opacity="1"/></linearGradient><linearGradient id="linearGradient4222" x1="409.571" x2="409.571" y1="542.798" y2="507.798" gradientTransform="matrix(1.0523327,0,0,1.0276135,-21.151387,-14.039869)" gradientUnits="userSpaceOnUse" xlink:href="#linearGradient4288"/><linearGradient id="linearGradient4288"><stop id="stop4290" offset="0" stop-color="#ff3069" stop-opacity="1"/><stop id="stop4292-6" offset="1" stop-color="#ffa548" stop-opacity="1"/></linearGradient></defs><metadata id="metadata5458"/><g id="layer1" transform="translate(-384.57143,-499.798)"><g id="layer1-4" transform="translate(392.24401,-502.51656)"><g id="g4413" stroke-dasharray="none" stroke-miterlimit="4" stroke-width="1.317" transform="matrix(1.138587,0,0,1.138587,-3.4562036,-142.80276)"><g id="g4312" transform="matrix(1.0539376,0,0,1.0539376,-0.91298719,-55.411661)"><g id="g3378" fill="#fff" fill-opacity=".852" transform="matrix(1.0268753,0,0,1.0268753,6.1046355,-41.571044)"><rect id="rect4195" width="46.303" height="34.939" x="385.65" y="507.78" fill="url(#linearGradient4222)" fill-opacity="1" stroke="none" stroke-dasharray="none" stroke-linecap="round" stroke-linejoin="round" stroke-miterlimit="4" stroke-opacity="1" stroke-width=".2" opacity="1" ry="1.644" transform="matrix(0.80621946,0,0,0.80621946,-318.63029,616.98274)"/><circle id="path4224" cx="373.366" cy="518.737" r="2.25" fill="#fff" fill-opacity=".852" stroke="none" stroke-dasharray="none" stroke-linecap="round" stroke-linejoin="round" stroke-miterlimit="4" stroke-opacity="1" stroke-width=".2" opacity="1" transform="matrix(0.67172498,0,0,0.67172498,-224.08252,680.86731)"/><circle id="path4224-4" cx="367.839" cy="518.785" r="2.25" fill="#fff" fill-opacity=".852" stroke="none" stroke-dasharray="none" stroke-linecap="round" stroke-linejoin="round" stroke-miterlimit="4" stroke-opacity="1" stroke-width=".2" opacity="1" transform="matrix(0.67172498,0,0,0.67172498,-224.08252,680.86731)"/><circle id="path4224-8" cx="362.405" cy="518.838" r="2.25" fill="#fff" fill-opacity=".852" stroke="none" stroke-dasharray="none" stroke-linecap="round" stroke-linejoin="round" stroke-miterlimit="4" stroke-opacity="1" stroke-width=".2" opacity="1" transform="matrix(0.67172498,0,0,0.67172498,-224.08252,680.86731)"/><path id="path3" fill="#fff" fill-opacity=".852" d="m 16.507441,1040.1505 0,-2.2304 c 0,-3.0269 -2.462746,-5.4903 -5.489918,-5.4903 -3.0271667,0 -5.4899168,2.4634 -5.4899168,5.4903 l 0,2.2304 c -0.4326359,0.09 -0.7586062,0.4753 -0.7586062,0.9348 l 0,8.3578 c 0,0.5263 0.4283869,0.9549 0.9549429,0.9549 l 10.5871141,0 c 0.526555,0 0.954943,-0.4286 0.954943,-0.9549 l 0,-8.3578 c 0,-0.4595 -0.32592,-0.8437 -0.758559,-0.9348 z m -4.207332,7.1247 c 0.01947,0.1048 -0.05052,0.1877 -0.155561,0.1877 l -2.2286935,0 c -0.1050401,0 -0.175041,-0.083 -0.1555596,-0.1877 l 0.3548591,-1.8806 c -0.268628,-0.2449 -0.4372225,-0.5975 -0.4372225,-0.9898 0,-0.7402 0.5997505,-1.34 1.3395915,-1.34 0.739845,0 1.339596,0.5998 1.339596,1.34 0,0.3815 -0.159764,0.7253 -0.415733,0.9694 z m 2.29745,-7.1449 -7.160067,0 0,-2.2102 c 0,-1.9741 1.6059748,-3.58 3.580031,-3.58 1.974059,0 3.580036,1.606 3.580036,3.58 z"/></g></g></g></g></g></svg>