<svg xmlns="http://www.w3.org/2000/svg" xmlns:svg="http://www.w3.org/2000/svg" xmlns:xlink="http://www.w3.org/1999/xlink" id="svg5453" width="48" height="48" version="1.1" viewBox="0 0 48 48"><defs id="defs5455"><linearGradient id="linearGradient4339"><stop id="stop4341" offset="0" stop-color="#ffeb96" stop-opacity="1"/><stop id="stop4343" offset="1" stop-color="#fff1b7" stop-opacity="1"/></linearGradient><clipPath id="clipPath76" clipPathUnits="userSpaceOnUse"><path id="path78" d="m 606.529,445.912 c 0,-6.133 4.972,-11.106 11.106,-11.106 l 0,0 c 6.133,0 11.106,4.973 11.106,11.106 l 0,0 c 0,6.134 -4.973,11.106 -11.106,11.106 l 0,0 c -6.134,0 -11.106,-4.972 -11.106,-11.106"/></clipPath><radialGradient id="radialGradient84" cx="0" cy="0" r="1" fx="0" fy="0" gradientTransform="matrix(11.105911,0,0,-11.105911,617.63513,445.91251)" gradientUnits="userSpaceOnUse" spreadMethod="pad"><stop id="stop86" offset="0" stop-color="#f77669" stop-opacity="1"/><stop id="stop88" offset=".202" stop-color="#f77669" stop-opacity="1"/><stop id="stop90" offset="1" stop-color="#ffd86a" stop-opacity="1"/></radialGradient><clipPath id="clipPath98" clipPathUnits="userSpaceOnUse"><path id="path100" d="m 666.815,463.137 c 0,-6.133 4.972,-11.106 11.106,-11.106 l 0,0 c 6.134,0 11.106,4.973 11.106,11.106 l 0,0 c 0,6.134 -4.972,11.106 -11.106,11.106 l 0,0 c -6.134,0 -11.106,-4.972 -11.106,-11.106"/></clipPath><radialGradient id="radialGradient106" cx="0" cy="0" r="1" fx="0" fy="0" gradientTransform="matrix(11.105911,0,0,-11.105911,677.92108,463.13705)" gradientUnits="userSpaceOnUse" spreadMethod="pad"><stop id="stop108" offset="0" stop-color="#f77669" stop-opacity="1"/><stop id="stop110" offset=".202" stop-color="#f77669" stop-opacity="1"/><stop id="stop112" offset="1" stop-color="#ffd86a" stop-opacity="1"/></radialGradient><clipPath id="clipPath120" clipPathUnits="userSpaceOnUse"><path id="path122" d="M 0,600 800,600 800,0 0,0 0,600 Z"/></clipPath><linearGradient id="linearGradient4345" x1="480.694" x2="480.601" y1="555.866" y2="545.798" gradientTransform="translate(7.5104682,-8.1220085)" gradientUnits="userSpaceOnUse" xlink:href="#linearGradient4339"/></defs><metadata id="metadata5458"/><g id="layer1" transform="translate(-384.57143,-499.798)"><g id="g4401" transform="translate(-97.808975,18.359024)"><g id="g4389" transform="matrix(2.5454545,0,0,2.5454545,-748.58794,-815.133)"><g id="g4180" transform="matrix(1.6428572,0,0,1.6428572,-311.7803,-338.6751)"><g id="g4368" transform="translate(1.6119974,-20.41299)"><circle id="path4337" cx="488.268" cy="542.352" r="5.5" fill="url(#linearGradient4345)" fill-opacity="1" fill-rule="nonzero" stroke="none" stroke-dasharray="none" stroke-dashoffset="0" stroke-linecap="round" stroke-linejoin="round" stroke-miterlimit="4" stroke-opacity="1" stroke-width="1.05" opacity="1"/><g id="g4364"><circle id="path4347" cx="485.183" cy="542.298" r=".6" fill="#414141" fill-opacity="1" fill-rule="nonzero" stroke="none" stroke-dasharray="none" stroke-dashoffset="0" stroke-linecap="round" stroke-linejoin="round" stroke-miterlimit="4" stroke-opacity="1" stroke-width="1.05" opacity="1"/><circle id="path4347-0" cx="491.345" cy="542.298" r=".6" fill="#414141" fill-opacity="1" fill-rule="nonzero" stroke="none" stroke-dasharray="none" stroke-dashoffset="0" stroke-linecap="round" stroke-linejoin="round" stroke-miterlimit="4" stroke-opacity="1" stroke-width="1.05" opacity="1"/></g></g><g id="g4385" transform="translate(-6.81814,-0.40000189)"><path id="path4378" fill="#f7aa86" fill-opacity="1" fill-rule="nonzero" stroke="none" stroke-dasharray="none" stroke-dashoffset="0" stroke-linecap="round" stroke-linejoin="miter" stroke-miterlimit="4" stroke-opacity="1" stroke-width=".337" d="m 499.04677,523.9624 c 0,0.0697 0.78328,0.13891 0.7785,0.20747 -0.10987,1.57513 -1.46142,2.82136 -3.1162,2.82711 -1.64847,0.006 -3.00505,-1.22186 -3.13541,-2.78762 -0.006,-0.0744 0.3045,-0.14957 0.304,-0.2254 l 2.82029,-0.0216 z" opacity="1"/><path id="rect4383" fill="#f3f3f3" fill-opacity="1" fill-rule="nonzero" stroke="none" stroke-dasharray="none" stroke-dashoffset="0" stroke-linecap="round" stroke-linejoin="miter" stroke-miterlimit="4" stroke-opacity="1" stroke-width=".3" d="m 493.65983,523.64038 6.07747,0 c 0.049,0 0.0884,0.0394 0.0884,0.0884 l 0,0.38477 c 0,0.049 -0.01,0.20628 -0.01,0.20628 l -6.23426,0 c 0,0 -0.01,-0.15728 -0.01,-0.20628 l 0,-0.38477 c 0,-0.049 0.0394,-0.0884 0.0884,-0.0884 z" opacity="1"/></g></g></g></g></g></svg>