<svg xmlns="http://www.w3.org/2000/svg" xmlns:svg="http://www.w3.org/2000/svg" xmlns:xlink="http://www.w3.org/1999/xlink" id="svg5453" width="48" height="48" version="1.1"><defs id="defs5455"><linearGradient id="linearGradient4232" x1="400.571" x2="400.571" y1="545.798" y2="517.798" gradientUnits="userSpaceOnUse" xlink:href="#linearGradient4191"/><linearGradient id="linearGradient4191"><stop id="stop4193" offset="0" stop-color="#2e3e46" stop-opacity="1"/><stop id="stop4195" offset="1" stop-color="#435a64" stop-opacity="1"/></linearGradient></defs><metadata id="metadata5458"/><g id="layer1" transform="translate(-384.57143,-499.798)"><g id="layer1-4" transform="matrix(1.6428587,0,0,1.6428587,-249.51083,-349.87091)"><rect id="rect4179-1" width="28" height="28" x="386.571" y="517.798" fill="url(#linearGradient4232)" fill-opacity="1" stroke="none" opacity="1" ry="14"/><g id="text4181" fill="#fff" fill-opacity="1" stroke="none" stroke-linecap="butt" stroke-linejoin="miter" stroke-opacity="1" stroke-width="1" font-family="sans-serif" font-size="16.612" font-style="normal" font-weight="normal" letter-spacing="0" word-spacing="0" style="line-height:125%"><path style="-inkscape-font-specification:'Product Sans'" id="path4177" fill="#fff" fill-opacity=".856" d="m 391.13144,537.11224 4.48525,-11.8942 1.72765,0 4.48525,11.8942 -1.69443,0 -1.14623,-3.22273 -5.00022,0 -1.16284,3.22273 -1.69443,0 z m 3.37224,-4.65136 3.95366,0 -1.9436,-5.36569 -0.0664,0 -1.94361,5.36569 z" font-family="Product Sans" font-stretch="normal" font-style="normal" font-variant="normal" font-weight="normal"/><path style="-inkscape-font-specification:'Product Sans'" id="path4179" fill="#fff" fill-opacity=".856" d="m 405.53355,537.37804 q -1.29574,0 -2.17618,-0.74754 -0.86382,-0.74755 -0.86382,-1.97684 0,-1.32896 1.02994,-2.0765 1.02995,-0.76415 2.54164,-0.76415 1.34558,0 2.2094,0.49836 l 0,-0.23257 q 0,-0.89705 -0.61464,-1.42863 -0.61465,-0.5482 -1.5117,-0.5482 -0.66448,0 -1.21268,0.31563 -0.53158,0.31563 -0.73093,0.86382 l -1.3954,-0.59803 q 0.2824,-0.73093 1.113,-1.34557 0.8306,-0.63126 2.19279,-0.63126 1.56153,0 2.59147,0.91366 1.02995,0.91366 1.02995,2.57487 l 0,4.91715 -1.46186,0 0,-1.12961 -0.0665,0 q -0.91366,1.39541 -2.67453,1.39541 z m 0.24918,-1.39541 q 0.94688,0 1.71104,-0.69771 0.78076,-0.71432 0.78076,-1.67781 -0.64787,-0.53159 -1.94361,-0.53159 -1.113,0 -1.67781,0.48175 -0.56481,0.48175 -0.56481,1.12962 0,0.59803 0.51497,0.94688 0.51498,0.34886 1.17946,0.34886 z" font-family="Product Sans" font-stretch="normal" font-style="normal" font-variant="normal" font-weight="normal"/></g></g></g></svg>