<svg xmlns="http://www.w3.org/2000/svg" xmlns:osb="http://www.openswatchbook.org/uri/2009/osb" xmlns:svg="http://www.w3.org/2000/svg" xmlns:xlink="http://www.w3.org/1999/xlink" id="svg5453" width="48" height="48" version="1.1"><defs id="defs5455"><linearGradient id="linearGradient4303-6-0"><stop id="stop4305-7-7" offset="0" stop-color="#d6d6d6" stop-opacity="1"/><stop id="stop4307-0-5" offset="1" stop-color="#fff" stop-opacity="1"/></linearGradient><linearGradient id="linearGradient4227-1"><stop id="stop4229-4" offset="0" stop-color="#566069" stop-opacity="1"/><stop id="stop4231-6" offset="1" stop-color="#636e79" stop-opacity="1"/></linearGradient><linearGradient id="linearGradient4222" x1="409.571" x2="409.571" y1="542.798" y2="507.798" gradientTransform="matrix(1.0523327,0,0,1.0276135,-21.151387,-14.039869)" gradientUnits="userSpaceOnUse" xlink:href="#linearGradient4227-1"/><linearGradient id="linearGradient4207" osb:paint="gradient"><stop id="stop3371" offset="0" stop-color="#3498db" stop-opacity="1"/><stop id="stop3373" offset="1" stop-color="#3498db" stop-opacity="0"/></linearGradient><linearGradient id="linearGradient4385" x1="367.942" x2="367.942" y1="521.637" y2="516.836" gradientUnits="userSpaceOnUse" xlink:href="#linearGradient4303-6-0"/></defs><metadata id="metadata5458"/><g id="layer1" transform="translate(-384.57143,-499.798)"><g id="layer1-0" transform="matrix(1.5106785,0,0,1.5106785,-196.53594,-279.57421)"><g id="g4447" transform="matrix(0.65762761,0,0,0.65762761,163.45346,180.49688)"><g id="layer1-6" transform="translate(-48.123492,9.4954666)"><g id="g4403" transform="translate(51.385479,-6.0099446)"><rect id="rect4195" width="46.303" height="34.939" x="385.65" y="507.78" fill="url(#linearGradient4222)" fill-opacity="1" stroke="none" stroke-dasharray="none" stroke-linecap="round" stroke-linejoin="round" stroke-miterlimit="4" stroke-opacity="1" stroke-width=".2" opacity="1" ry="1.644" transform="translate(-51.52544,5.45582)"/><g id="g4247" fill="url(#linearGradient4385)" fill-opacity="1" transform="matrix(0.83317883,0,0,0.83317883,65.74755,84.6955)"><circle id="path4224" cx="373.366" cy="518.737" r="2.25" fill="#fff" fill-opacity=".847" stroke="none" stroke-dasharray="none" stroke-linecap="round" stroke-linejoin="round" stroke-miterlimit="4" stroke-opacity="1" stroke-width=".2" opacity="1"/><circle id="path4224-4" cx="367.839" cy="518.785" r="2.25" fill="#fff" fill-opacity=".847" stroke="none" stroke-dasharray="none" stroke-linecap="round" stroke-linejoin="round" stroke-miterlimit="4" stroke-opacity="1" stroke-width=".2" opacity="1"/><circle id="path4224-8" cx="362.405" cy="518.838" r="2.25" fill="#fff" fill-opacity=".847" stroke="none" stroke-dasharray="none" stroke-linecap="round" stroke-linejoin="round" stroke-miterlimit="4" stroke-opacity="1" stroke-width=".2" opacity="1"/></g></g></g><g id="layer1-66" transform="matrix(1.5206174,0,0,1.5206174,-302.66502,-281.34008)"><g id="g4206" fill="#e6e6e6" fill-opacity="1" transform="matrix(0.04537207,0,0,0.04537207,429.53384,532.07809)"><path id="path4168" fill="#fff" fill-opacity=".847" d="m 261.866,205.825 c 0,1.989 -0.79,3.896 -2.196,5.304 l -47.961,47.96 c -1.465,1.464 -3.385,2.196 -5.304,2.196 -1.92,0 -3.839,-0.732 -5.304,-2.196 L 144.3,202.287 93.052,253.537 c -1.838,1.837 -4.493,2.592 -7.024,1.996 -2.528,-0.596 -4.569,-2.458 -5.393,-4.923 L 0.387,10.458 C -0.514,7.762 0.187,4.788 2.197,2.777 4.208,0.768 7.178,0.064 9.878,0.967 L 250.03,81.216 c 2.465,0.823 4.327,2.864 4.923,5.393 0.597,2.529 -0.159,5.187 -1.996,7.024 l -50.089,50.088 56.802,56.801 c 1.406,1.407 2.196,3.314 2.196,5.303 z"/></g></g></g></g></g></svg>