<svg xmlns="http://www.w3.org/2000/svg" xmlns:svg="http://www.w3.org/2000/svg" xmlns:xlink="http://www.w3.org/1999/xlink" id="svg3209" width="48" height="48" version="1.1"><defs id="defs3211"><linearGradient id="linearGradient4853"><stop id="stop4855" offset="0" stop-color="#6a82d4" stop-opacity="1"/><stop id="stop4857" offset="1" stop-color="#90b0e0" stop-opacity="1"/></linearGradient><linearGradient id="linearGradient4859" x1="9.531" x2="9" y1="44.374" y2="9" gradientTransform="translate(62.561754,-1.7239424)" gradientUnits="userSpaceOnUse" xlink:href="#linearGradient4853"/></defs><metadata id="metadata3214"/><g id="layer1" transform="translate(0,-1004.3622)"><g id="g4416" transform="matrix(1.0574229,0,0,1.0574229,-1.3818846,-59.033964)"><g id="layer1-7" transform="matrix(1.2093215,0,0,1.3053519,-12.069313,1009.1204)"><g id="g5481" transform="matrix(0.77761806,-0.01071721,0.01071721,0.77761806,30.946456,-1.6787268)"><g id="g4942" transform="matrix(0.99989043,0.01480318,-0.01480318,0.99989043,-73.27595,-4.8876133)"><rect id="rect4851" width="48.232" height="36.296" x="47.936" y="7.164" fill="url(#linearGradient4859)" fill-opacity="1" stroke="none" stroke-dasharray="none" stroke-linecap="round" stroke-linejoin="round" stroke-miterlimit="4" stroke-opacity="1" stroke-width="1.5" opacity="1" ry="1.5"/></g></g></g><path id="rect6279" fill="#fff" fill-opacity="1" fill-rule="evenodd" stroke="none" stroke-width="2" d="m 19.471161,1017.4693 c -1.765265,0 -3.228659,1.301 -3.46875,3 l -0.03125,0 -0.6875,0 -4.3125,0 -1.0000036,0 0,8 -1.9999998,0 0,1 5.0000034,0 0,-1 -2,0 0,-7 4.3125,0 0.6875,0 0.03125,0 c 0.240091,1.699 1.703485,3 3.46875,3 1.765265,0 3.228659,-1.301 3.46875,-3 l 0.03125,0 0.3125,0 3.6875,0 0,2 9,0 0,-2 2,0 0,16 -3.03125,0 c -0.24009,-1.699 -1.70348,-3 -3.46875,-3 -1.76527,0 -3.22866,1.301 -3.46875,3 l -3.125,0 c -0.20384,-0.5864 -0.75041,-1 -1.40625,-1 -0.82843,0 -1.5,0.6716 -1.5,1.5 0,0.8284 0.67157,1.5 1.5,1.5 0.65584,0 1.20241,-0.4136 1.40625,-1 l 3.125,0 c 0.24009,1.699 1.70348,3 3.46875,3 1.76527,0 3.22866,-1.301 3.46875,-3 l 3.03125,0 1,0 0,-18 -3,0 0,-2 -9,0 0,2 -3.6875,0 -0.3125,0 -0.03125,0 c -0.240091,-1.699 -1.703485,-3 -3.46875,-3 z m 0,1 c 0.503163,0 0.982791,0.1505 1.375,0.4063 l -1.375,1.375 -1.375,-1.375 c 0.392209,-0.2559 0.871837,-0.4063 1.375,-0.4063 z m -2.09375,1.125 1.375,1.375 -1.375,1.375 c -0.255774,-0.3922 -0.40625,-0.8718 -0.40625,-1.375 0,-0.5032 0.150476,-0.9828 0.40625,-1.375 z m 4.1875,0 c 0.255774,0.3922 0.40625,0.8718 0.40625,1.375 0,0.5032 -0.150476,0.9828 -0.40625,1.375 l -1.375,-1.375 1.375,-1.375 z m -2.09375,2.0938 1.375,1.375 c -0.392209,0.2557 -0.871837,0.4062 -1.375,0.4062 -0.503163,0 -0.982791,-0.1505 -1.375,-0.4062 l 1.375,-1.375 z m -10.5000034,8.7812 0,1 0.9999998,0 0,7 1.0000036,0 3.09375,0 c 0.20384,0.5864 0.75041,1 1.40625,1 0.82843,0 1.5,-0.6716 1.5,-1.5 0,-0.1035 -0.01135,-0.2148 -0.03125,-0.3125 l 5.3125,-3.0625 -0.5,-0.875 -5.34375,3.0938 c -0.25793,-0.2096 -0.57933,-0.3438 -0.9375,-0.3438 -0.65584,0 -1.20241,0.4136 -1.40625,1 l -3.09375,0 0,-6 1,0 0,-1 -3.0000034,0 z m 22.5000034,5 c 1.38071,0 2.5,1.1193 2.5,2.5 0,1.3807 -1.11929,2.5 -2.5,2.5 -1.38071,0 -2.5,-1.1193 -2.5,-2.5 0,-1.3807 1.11929,-2.5 2.5,-2.5 z m -16,2 c 0.27614,0 0.5,0.2239 0.5,0.5 0,0.2761 -0.22386,0.5 -0.5,0.5 -0.27614,0 -0.5,-0.2239 -0.5,-0.5 0,-0.2761 0.22386,-0.5 0.5,-0.5 z m 8,0 c 0.27614,0 0.5,0.2239 0.5,0.5 0,0.2761 -0.22386,0.5 -0.5,0.5 -0.27614,0 -0.5,-0.2239 -0.5,-0.5 0,-0.2761 0.22386,-0.5 0.5,-0.5 z" color="#000" display="inline" enable-background="accumulate" opacity=".851" overflow="visible" visibility="visible" style="marker:none"/></g></g></svg>