<svg xmlns="http://www.w3.org/2000/svg" xmlns:osb="http://www.openswatchbook.org/uri/2009/osb" xmlns:svg="http://www.w3.org/2000/svg" xmlns:xlink="http://www.w3.org/1999/xlink" id="svg5453" width="48" height="48" version="1.1"><defs id="defs5455"><linearGradient id="linearGradient8311-06"><stop id="stop8313-6" offset="0" stop-color="#a9a3d4" stop-opacity="1"/><stop id="stop4462" offset=".47" stop-color="#87baff" stop-opacity="1"/><stop id="stop8315-2" offset="1" stop-color="#89ec85" stop-opacity="1"/></linearGradient><linearGradient id="linearGradient4460" x1="0" x2="47" y1="23.5" y2="23.5" gradientUnits="userSpaceOnUse" xlink:href="#linearGradient8311-06"/><linearGradient id="linearGradient4915"><stop id="stop4917" offset="0" stop-color="#8645a3" stop-opacity="1"/><stop id="stop4919" offset="1" stop-color="#d164ff" stop-opacity="1"/></linearGradient><linearGradient id="linearGradient3687-2"><stop id="stop3689-6" offset="0" stop-color="#1a1a1a" stop-opacity="1"/><stop id="stop3691-8" offset=".111" stop-color="#2c2c2e" stop-opacity="1"/><stop id="stop3693-8" offset=".29" stop-color="#2b2b2d" stop-opacity="1"/><stop id="stop3695-4" offset=".512" stop-color="#2a2b2d" stop-opacity="1"/><stop id="stop3699-86" offset=".752" stop-color="#2b2b2d" stop-opacity="1"/><stop id="stop3701-8" offset=".897" stop-color="#323232" stop-opacity="1"/><stop id="stop3703-9" offset="1" stop-color="#171717" stop-opacity="1"/></linearGradient><linearGradient id="linearGradient4642"><stop id="stop4644" offset="0" stop-color="#0bac83" stop-opacity="1"/><stop id="stop4646" offset="1" stop-color="#13ffaf" stop-opacity="1"/></linearGradient><linearGradient id="linearGradient4179-7"><stop id="stop4181-2" offset="0" stop-color="#e8d800" stop-opacity="1"/><stop id="stop4183-1" offset="1" stop-color="#feff68" stop-opacity="1"/></linearGradient><linearGradient id="linearGradient4422"><stop id="stop4424" offset="0" stop-color="#ff9300" stop-opacity="1"/><stop id="stop4426" offset="1" stop-color="#ffd702" stop-opacity="1"/></linearGradient><linearGradient id="linearGradient8467-7"><stop id="stop8469-4" offset="0" stop-color="#3ec896" stop-opacity="1"/><stop id="stop8471-7" offset="1" stop-color="#66d9af" stop-opacity="1"/></linearGradient><linearGradient id="linearGradient5845"><stop id="stop5847" offset="0" stop-color="#974eb7" stop-opacity="1"/><stop id="stop5849" offset="1" stop-color="#d164ff" stop-opacity="1"/></linearGradient><linearGradient id="linearGradient4298"><stop id="stop4300" offset="0" stop-color="#ea3c53" stop-opacity="1"/><stop id="stop4302" offset="1" stop-color="#fc593d" stop-opacity="1"/></linearGradient><linearGradient id="linearGradient4232"><stop id="stop4234-0" offset="0" stop-color="#3889e9" stop-opacity="1"/><stop id="stop4236" offset="1" stop-color="#5ea5fb" stop-opacity="1"/></linearGradient><linearGradient id="linearGradient4290-1"><stop id="stop4292-9" offset="0" stop-color="#a5a5a5" stop-opacity="1"/><stop id="stop4294-1" offset="1" stop-color="#f5f2f5" stop-opacity="1"/></linearGradient><linearGradient id="linearGradient8311-06-5"><stop id="stop8313-6-2" offset="0" stop-color="#5fa3d4" stop-opacity="1"/><stop id="stop8315-2-7" offset="1" stop-color="#6bb9ff" stop-opacity="1"/></linearGradient><linearGradient id="linearGradient4207" osb:paint="gradient"><stop id="stop3371" offset="0" stop-color="#3498db" stop-opacity="1"/><stop id="stop3373" offset="1" stop-color="#3498db" stop-opacity="0"/></linearGradient><filter id="filter3831" color-interpolation-filters="sRGB"><feGaussianBlur id="feGaussianBlur3833" stdDeviation=".637"/></filter><clipPath id="clipPath3823"><path id="path3825" fill="#fff" d="m108.81 58c-1.56 0-2.81 1.254-2.81 2.812v24.375c0 1.559 1.25 2.813 2.81 2.813h24.375c1.57 0 2.82-1.254 2.82-2.812v-24.375c0-1.559-1.25-2.813-2.81-2.813h-24.375zm7.1875 4.5h10v8.75h5l-10 13.75-10-13.75h5v-8.75z"/></clipPath><linearGradient id="linearGradient3812" x1="65.263" x2="65.263" y1="64.205" y2="50.069" gradientTransform="matrix(0.625,0,0,0.625,78.5,32.25)" gradientUnits="userSpaceOnUse"><stop id="stop3683" offset="0"/><stop id="stop3685" offset="1" stop-opacity="0"/></linearGradient><filter id="filter3806" color-interpolation-filters="sRGB"><feGaussianBlur id="feGaussianBlur3808" stdDeviation="1.2"/></filter><linearGradient id="linearGradient3788" x1="70" x2="70" y1="54" y2="75.095" gradientTransform="translate(0,4)" gradientUnits="userSpaceOnUse" xlink:href="#linearGradient3737"/><linearGradient id="linearGradient3773" x1="56" x2="88" y1="72" y2="72" gradientTransform="matrix(0.9375,0,0,0.9375,-140.5,3.5)" gradientUnits="userSpaceOnUse"><stop id="stop3780" offset="0" stop-color="#499119"/><stop id="stop3782" offset="1" stop-color="#8fd625"/></linearGradient><linearGradient id="linearGradient3832" x1="65.263" x2="65.263" y1="64.205" y2="50.069" gradientTransform="matrix(0.625,0,0,0.625,28.5,31.25)" gradientUnits="userSpaceOnUse" xlink:href="#linearGradient3737"/><filter id="filter3174" color-interpolation-filters="sRGB"><feGaussianBlur id="feGaussianBlur3176" stdDeviation="1.71"/></filter><linearGradient id="linearGradient3737"><stop id="stop3739" offset="0" stop-color="#fff"/><stop id="stop3741" offset="1" stop-color="#fff" stop-opacity="0"/></linearGradient><linearGradient id="ButtonShadow" x1="45.448" x2="45.448" y1="92.54" y2="7.016" gradientTransform="scale(1.0059,0.99417)" gradientUnits="userSpaceOnUse"><stop id="stop3750" offset="0"/><stop id="stop3752" offset="1" stop-opacity=".588"/></linearGradient><linearGradient id="linearGradient4422-9"><stop id="stop4424-3" offset="0" stop-color="#2971c3" stop-opacity="1"/><stop id="stop4426-1" offset="1" stop-color="#83bbff" stop-opacity="1"/></linearGradient><linearGradient id="linearGradient5263-00"><stop id="stop5265-5" offset="0" stop-color="#fff" stop-opacity="0"/><stop id="stop5267-8" offset="1" stop-color="#d5edff" stop-opacity="1"/></linearGradient><linearGradient id="linearGradient4181" x1="399.994" x2="399.994" y1="545.139" y2="518.139" gradientUnits="userSpaceOnUse" xlink:href="#linearGradient5076"/><linearGradient id="linearGradient5076"><stop id="stop5078" offset="0" stop-color="#c52828" stop-opacity="1"/><stop id="stop5080" offset="1" stop-color="#ff5454" stop-opacity="1"/></linearGradient></defs><metadata id="metadata5458"/><g id="layer1" transform="translate(-384.57143,-499.798)"><g id="layer1-4" transform="translate(392.24401,-502.51656)"><g id="g4413" stroke-dasharray="none" stroke-miterlimit="4" stroke-width="1.317" transform="matrix(1.138587,0,0,1.138587,-3.4562036,-142.80276)"><g id="g4312" transform="matrix(1.0539376,0,0,1.0539376,-0.91298719,-55.411661)"><g id="g3555" fill="#fff" fill-opacity=".891" transform="matrix(-0.4618275,0,0,0.4618275,27.205207,1015.9884)"><circle id="path3377-8" cx="400.571" cy="531.798" r="14" fill="url(#linearGradient4181)" fill-opacity="1" stroke="none" stroke-dasharray="none" stroke-dashoffset="0" stroke-miterlimit="4" stroke-opacity="1" stroke-width="1.3" opacity="1" transform="matrix(-2.9644167,0,0,2.9644167,1208.7944,-1552.9724)"/><path id="path7" fill="#fff" fill-opacity=".891" d="m 1.558,3.814 c 0.353,0.353 0.815,0.528 1.278,0.528 0.462,0 0.925,-0.177 1.278,-0.528 0.706,-0.706 0.706,-1.852 0,-2.558 L 3.688,0.832 c -0.706,-0.706 -1.85,-0.706 -2.556,0 -0.706,0.706 -0.706,1.851 0,2.557 l 0.426,0.425 z"/><path id="path9" fill="#fff" fill-opacity=".891" d="m 3.627,5.135 c 0,0.482 0.193,0.94 0.53,1.276 l 3.254,3.255 0.65,0.65 c 0.337,0.338 0.795,0.529 1.278,0.529 0.482,0 0.939,-0.191 1.277,-0.529 0.337,-0.337 0.53,-0.796 0.53,-1.277 0,-0.481 -0.193,-0.939 -0.53,-1.277 L 9.965,7.112 6.712,3.857 C 6.037,3.181 4.844,3.181 4.157,3.857 3.82,4.194 3.627,4.652 3.627,5.135 Z"/><path id="path11" fill="#fff" fill-opacity=".891" d="m 42.332,35.941 c -1.655,-0.847 -3.715,-1.899 -6.178,-3.833 -0.482,-0.378 -1.063,-0.534 -1.631,-0.5 0.22,-0.874 0.104,-1.807 -0.338,-2.611 0.084,-0.265 0.15,-0.527 0.18,-0.79 0.113,-1.021 -0.204,-2.017 -0.852,-2.663 L 21.158,13.188 c -0.226,-0.227 -1.448,-1.352 -3.343,-1.352 -0.644,0 -1.509,0.146 -2.446,0.668 L 13.22,10.363 c -0.687,-0.687 -1.88,-0.687 -2.555,0 -0.349,0.338 -0.53,0.796 -0.53,1.278 0,0.48 0.181,0.928 0.53,1.276 l 2.139,2.141 c -0.813,1.446 -0.72,2.76 -0.545,3.517 0.292,1.267 1.016,2.066 1.23,2.28 L 25.844,33.21 c 0.264,0.263 1.008,0.874 2.248,0.874 0.402,0 0.807,-0.07 1.213,-0.199 0.538,0.295 1.129,0.457 1.727,0.457 0.42,0 0.838,-0.082 1.238,-0.229 0.031,0.676 0.336,1.335 0.908,1.784 2.83,2.221 5.217,3.44 6.961,4.334 0.77,0.393 1.709,0.874 2.039,1.159 -0.013,0.32 -0.076,0.459 -0.107,0.484 l -39.661,0 c -1.331,0 -2.41,1.079 -2.41,2.41 0,1.331 1.079,2.41 2.41,2.41 l 39.77,0 c 1.938,0 4.82,-1.443 4.82,-5.423 0,-2.944 -2.373,-4.157 -4.668,-5.33 z"/></g></g></g></g></g></svg>