<svg xmlns="http://www.w3.org/2000/svg" xmlns:osb="http://www.openswatchbook.org/uri/2009/osb" xmlns:svg="http://www.w3.org/2000/svg" xmlns:xlink="http://www.w3.org/1999/xlink" id="svg2985" width="48" height="48" version="1.1"><defs id="defs2987"><linearGradient id="linearGradient4487"><stop id="stop4489" offset="0" stop-color="#fff" stop-opacity="1"/><stop id="stop4491" offset="1" stop-color="#e8e8e9" stop-opacity="1"/></linearGradient><linearGradient id="linearGradient4521"><stop id="stop4523" offset="0" stop-color="#178b6f" stop-opacity="1"/><stop id="stop4525" offset="1" stop-color="#489acf" stop-opacity="1"/></linearGradient><linearGradient id="linearGradient4273" x1="21.634" x2="21.614" y1="4.856" y2="44.899" gradientTransform="matrix(0.73473334,0,0,-0.73473334,8.8616971,42.360344)" gradientUnits="userSpaceOnUse" xlink:href="#linearGradient4487"/><linearGradient id="linearGradient4519" x1="418.536" x2="418.536" y1="544.315" y2="498.773" gradientUnits="userSpaceOnUse" xlink:href="#linearGradient4521"/><linearGradient id="linearGradient4534" x1="418.536" x2="418.536" y1="544.315" y2="498.773" gradientUnits="userSpaceOnUse" xlink:href="#linearGradient4521"/><linearGradient id="linearGradient4536" x1="418.536" x2="418.536" y1="544.315" y2="498.773" gradientUnits="userSpaceOnUse" xlink:href="#linearGradient4191"/><linearGradient id="linearGradient4538" x1="418.536" x2="418.536" y1="544.315" y2="498.773" gradientUnits="userSpaceOnUse" xlink:href="#linearGradient4521"/><linearGradient id="linearGradient4546" x1="422.748" x2="422.412" y1="544.886" y2="500.744" gradientUnits="userSpaceOnUse" xlink:href="#linearGradient4521"/><linearGradient id="linearGradient4232" x1="422.748" x2="422.412" y1="544.886" y2="500.744" gradientUnits="userSpaceOnUse" xlink:href="#linearGradient4521"/><linearGradient id="linearGradient4234" x1="422.748" x2="422.412" y1="544.886" y2="500.744" gradientUnits="userSpaceOnUse" xlink:href="#linearGradient4191"/><linearGradient id="linearGradient4236" x1="422.748" x2="422.412" y1="544.886" y2="500.744" gradientUnits="userSpaceOnUse" xlink:href="#linearGradient4521"/><linearGradient id="linearGradient8311-06"><stop id="stop8313-6" offset="0" stop-color="#a9a3d4" stop-opacity="1"/><stop id="stop4462" offset=".47" stop-color="#87baff" stop-opacity="1"/><stop id="stop8315-2" offset="1" stop-color="#89ec85" stop-opacity="1"/></linearGradient><linearGradient id="linearGradient4207" osb:paint="gradient"><stop id="stop3371" offset="0" stop-color="#3498db" stop-opacity="1"/><stop id="stop3373" offset="1" stop-color="#3498db" stop-opacity="0"/></linearGradient><filter id="filter3831" color-interpolation-filters="sRGB"><feGaussianBlur id="feGaussianBlur3833" stdDeviation=".637"/></filter><clipPath id="clipPath3823"><path id="path3825" fill="#fff" d="m108.81 58c-1.56 0-2.81 1.254-2.81 2.812v24.375c0 1.559 1.25 2.813 2.81 2.813h24.375c1.57 0 2.82-1.254 2.82-2.812v-24.375c0-1.559-1.25-2.813-2.81-2.813h-24.375zm7.1875 4.5h10v8.75h5l-10 13.75-10-13.75h5v-8.75z"/></clipPath><linearGradient id="linearGradient3812" x1="65.263" x2="65.263" y1="64.205" y2="50.069" gradientTransform="matrix(0.625,0,0,0.625,78.5,32.25)" gradientUnits="userSpaceOnUse"><stop id="stop3683" offset="0"/><stop id="stop3685" offset="1" stop-opacity="0"/></linearGradient><filter id="filter3806" color-interpolation-filters="sRGB"><feGaussianBlur id="feGaussianBlur3808" stdDeviation="1.2"/></filter><linearGradient id="linearGradient3788" x1="70" x2="70" y1="54" y2="75.095" gradientTransform="translate(0,4)" gradientUnits="userSpaceOnUse" xlink:href="#linearGradient3737"/><linearGradient id="linearGradient3773" x1="56" x2="88" y1="72" y2="72" gradientTransform="matrix(0.9375,0,0,0.9375,-140.5,3.5)" gradientUnits="userSpaceOnUse"><stop id="stop3780" offset="0" stop-color="#499119"/><stop id="stop3782" offset="1" stop-color="#8fd625"/></linearGradient><linearGradient id="linearGradient3832" x1="65.263" x2="65.263" y1="64.205" y2="50.069" gradientTransform="matrix(0.625,0,0,0.625,28.5,31.25)" gradientUnits="userSpaceOnUse" xlink:href="#linearGradient3737"/><filter id="filter3174" color-interpolation-filters="sRGB"><feGaussianBlur id="feGaussianBlur3176" stdDeviation="1.71"/></filter><linearGradient id="linearGradient3737"><stop id="stop3739" offset="0" stop-color="#fff"/><stop id="stop3741" offset="1" stop-color="#fff" stop-opacity="0"/></linearGradient><linearGradient id="ButtonShadow" x1="45.448" x2="45.448" y1="92.54" y2="7.016" gradientTransform="scale(1.0059,0.99417)" gradientUnits="userSpaceOnUse"><stop id="stop3750" offset="0"/><stop id="stop3752" offset="1" stop-opacity=".588"/></linearGradient><style id="current-color-scheme" type="text/css"/><style id="current-color-scheme-8" type="text/css"/><style id="current-color-scheme-7" type="text/css"/><style id="current-color-scheme-0" type="text/css"/><style id="current-color-scheme-8-6" type="text/css"/><style id="current-color-scheme-7-6" type="text/css"/><style id="current-color-scheme-4" type="text/css"/><style id="current-color-scheme-8-0" type="text/css"/><style id="current-color-scheme-7-7" type="text/css"/><linearGradient id="linearGradient4191"><stop id="stop4193" offset="0" stop-color="#2e3e46" stop-opacity="1"/><stop id="stop4195" offset="1" stop-color="#47606a" stop-opacity="1"/></linearGradient></defs><metadata id="metadata2990"/><g id="layer1"><g id="g4527" transform="matrix(1.0688688,0,0,1.0688688,-2.2065236,-1.3849612)"><g id="layer1-3" fill="url(#linearGradient4546)" fill-opacity="1" stroke="url(#linearGradient4519)" stroke-dasharray="none" stroke-miterlimit="4" stroke-width="2.123" transform="matrix(0.9421423,0,0,0.9421423,-369.73401,-467.51903)"><path id="circle4309-6" cx="408.571" cy="519.798" r="10" fill="url(#linearGradient4232)" fill-opacity="1" stroke="url(#linearGradient4534)" stroke-dasharray="none" stroke-linecap="round" stroke-linejoin="round" stroke-miterlimit="4" stroke-opacity="1" stroke-width="2.123" opacity="1"/><g id="g4378" fill="url(#linearGradient4236)" fill-opacity="1" stroke="url(#linearGradient4538)" stroke-dasharray="none" stroke-miterlimit="4" stroke-width="1.791" transform="matrix(1.1849521,0,0,1.1849521,-124.25812,-101.31636)"><circle id="path4310" cx="458.072" cy="525.642" r="19.217" fill="url(#linearGradient4234)" fill-opacity="1" stroke="url(#linearGradient4536)" stroke-dasharray="none" stroke-linecap="round" stroke-linejoin="round" stroke-miterlimit="4" stroke-opacity="1" stroke-width="1.791" opacity="1"/></g></g><path id="path4206" fill="url(#linearGradient4273)" fill-opacity="1" fill-rule="evenodd" stroke="none" stroke-linecap="butt" stroke-linejoin="miter" stroke-opacity="1" stroke-width="1" d="m 24.757139,38.79246 2.2042,-0.734734 c 0,0 0.912677,-2.808346 1.64741,-3.543079 1.161715,-1.161716 5.699923,-3.804254 5.699923,-9.68212 0,-4.408401 -2.938933,-7.347334 -6.6126,-9.551534 3.673667,3.673667 5.143134,5.143133 5.143134,9.551534 0,5.877866 -5.877867,6.6126 -5.877867,6.6126 l 0,-15.999106 c 0,-1.634494 -1.540625,-4.348043 -4.055043,-5.392419 -3.187132,-1.3204646 -6.52646,-0.5667536 -7.45783,1.683286 -0.931033,2.249192 0.896671,5.142041 4.082648,6.461921 1.903707,0.788785 3.690919,0.969738 5.226025,0.306687 z"/></g></g></svg>