<svg xmlns="http://www.w3.org/2000/svg" xmlns:svg="http://www.w3.org/2000/svg" xmlns:xlink="http://www.w3.org/1999/xlink" id="svg5453" width="48" height="48" version="1.1"><defs id="defs5455"><linearGradient id="linearGradient4422"><stop id="stop4424" offset="0" stop-color="#197ff1" stop-opacity="1"/><stop id="stop4426" offset="1" stop-color="#21c6fb" stop-opacity="1"/></linearGradient><linearGradient id="linearGradient4232"><stop id="stop4234-0" offset="0" stop-color="#3889e9" stop-opacity="1"/><stop id="stop4236" offset="1" stop-color="#5ea5fb" stop-opacity="1"/></linearGradient><linearGradient id="linearGradient3426" x1="399.571" x2="399.571" y1="545.798" y2="517.798" gradientUnits="userSpaceOnUse" xlink:href="#linearGradient4232"/><linearGradient id="linearGradient4181" x1="399.994" x2="399.994" y1="545.139" y2="518.139" gradientUnits="userSpaceOnUse" xlink:href="#linearGradient4202"/><linearGradient id="linearGradient3257"><stop id="stop3259" offset="0" stop-color="#a50000" stop-opacity="1"/><stop id="stop3261" offset="1" stop-color="#e73800" stop-opacity="1"/></linearGradient><clipPath id="clipPath4210" clipPathUnits="userSpaceOnUse"><rect id="rect4212" width="34" height="34" x="-7" y="1024.362" fill="#00f" fill-opacity=".514" stroke="none" stroke-opacity="1" opacity="1"/></clipPath><clipPath id="clipPath4160" clipPathUnits="userSpaceOnUse"><rect id="rect4162" width="32" height="32" x="-6" y="1028.362" fill="#aade87" fill-opacity=".472" stroke="none" stroke-opacity="1" opacity="1"/></clipPath><clipPath id="clipPath4458-7-5-5-0"><path id="use4460-2-5-75-4" d="m 69.626,12.145 -0.052,0 c -22.727,-0.292 -46.472,4.077 -46.709,4.122 -2.424,0.451 -4.946,2.974 -5.397,5.397 -0.044,0.237 -4.414,23.983 -4.122,46.71 -0.292,22.777 4.078,46.523 4.122,46.761 0.451,2.423 2.974,4.945 5.398,5.398 0.237,0.044 23.982,4.413 46.709,4.121 22.779,0.292 46.524,-4.077 46.761,-4.121 2.423,-0.452 4.946,-2.976 5.398,-5.399 0.044,-0.236 4.413,-23.981 4.121,-46.709 0.292,-22.777 -4.077,-46.523 -4.121,-46.761 -0.453,-2.423 -2.976,-4.946 -5.398,-5.397 -0.238,-0.045 -23.984,-4.414 -46.71,-4.122 z"/></clipPath><linearGradient id="linearGradient4202"><stop id="stop4204" offset="0" stop-color="#c61423" stop-opacity="1"/><stop id="stop4206" offset="1" stop-color="#ff4c63" stop-opacity="1"/></linearGradient></defs><metadata id="metadata5458"/><g id="layer1" transform="translate(-384.57143,-499.798)"><g id="layer1-2" transform="matrix(1.4375,0,0,1.4375,-167.30319,-240.77888)"><g id="g4340" transform="matrix(1.1428581,0,0,1.1428581,-57.215289,-75.977363)"><g id="layer1-39" stroke="none" transform="translate(-0.11123528,0.03124873)"><g id="layer1-3" stroke="none" stroke-dasharray="none" stroke-miterlimit="4" stroke-opacity="1" stroke-width="1.3" transform="translate(0.13524268,0.04517549)"><circle id="path3377" cx="400.571" cy="531.798" r="14" fill="url(#linearGradient4181)" fill-opacity="1" stroke="none" stroke-dasharray="none" stroke-dashoffset="0" stroke-miterlimit="4" stroke-opacity="1" stroke-width="1.3" opacity="1"/><circle id="circle4174" cx="400.571" cy="531.798" r="14" fill="#5ea5fb" fill-opacity="0" stroke="none" stroke-dasharray="none" stroke-dashoffset="0" stroke-miterlimit="4" stroke-opacity="1" stroke-width="1.3" opacity="1"/><circle id="ellipse4233" cx="400.571" cy="531.798" r="0" fill="url(#linearGradient3426)" fill-opacity="1" stroke="none" stroke-dasharray="none" stroke-dashoffset="0" stroke-miterlimit="4" stroke-opacity="1" stroke-width="1.3" opacity="1"/></g></g></g></g><g id="layer1-8" fill="#fff" fill-opacity=".847" transform="matrix(1.9999997,0,0,1.9999997,-265.42847,-566.92624)"><g id="g3" fill="#fff" fill-opacity=".847" transform="matrix(0.03240428,0,0,0.03240428,330,536.3622)"><g id="g5" fill="#fff" fill-opacity=".847" transform="translate(-30.860067,30.860089)"><g id="Icons_15_" fill="#fff" fill-opacity=".847"><g id="g8" fill="#fff" fill-opacity=".847"><path id="path10" fill="#fff" fill-opacity=".847" d="m 290.652,402.646 -87.595,0 c -6.781,0 -12.283,5.503 -12.283,12.283 0,6.785 5.502,12.287 12.283,12.287 l 87.595,0 c 6.781,0 12.289,-5.502 12.289,-12.287 0.001,-6.78 -5.506,-12.283 -12.289,-12.283 z"/><path id="path12" fill="#fff" fill-opacity=".847" d="m 224.299,474.245 c 1.666,11.026 11.086,19.517 22.586,19.517 11.488,0 20.93,-8.487 22.589,-19.517 15.037,-0.888 26.987,-13.245 26.987,-28.504 l -99.211,0 c 0,15.268 11.985,27.634 27.049,28.504 z"/><path id="path14" fill="#fff" fill-opacity=".847" d="m 246.884,70.87 c 9.062,0 16.387,-7.335 16.387,-16.381 l 0,-38.108 C 263.271,7.332 255.947,0 246.884,0 237.831,0 230.507,7.332 230.507,16.381 l 0,38.108 c 0.001,9.046 7.325,16.381 16.377,16.381 z"/><path id="path16" fill="#fff" fill-opacity=".847" d="m 139.39,94.736 c 3.217,4.417 8.209,6.761 13.283,6.761 3.326,0 6.699,-1.017 9.609,-3.129 7.313,-5.312 8.945,-15.555 3.633,-22.873 l -22.396,-30.84 c -5.326,-7.312 -15.549,-8.96 -22.887,-3.632 -7.311,5.309 -8.943,15.555 -3.631,22.873 l 22.389,30.84 z"/><path id="path18" fill="#fff" fill-opacity=".847" d="m 354.354,334.861 c -5.313,-7.312 -15.549,-8.934 -22.881,-3.621 -7.306,5.317 -8.937,15.562 -3.61,22.879 l 22.409,30.841 c 3.196,4.407 8.188,6.753 13.265,6.753 3.338,0 6.698,-1.017 9.608,-3.128 7.312,-5.319 8.942,-15.565 3.619,-22.884 l -22.41,-30.84 z"/><path id="path20" fill="#fff" fill-opacity=".847" d="M 99.502,149.684 63.25,137.894 c -8.686,-2.799 -17.846,1.911 -20.648,10.518 -2.803,8.597 1.904,17.843 10.508,20.642 l 36.252,11.79 c 1.693,0.544 3.387,0.809 5.066,0.809 6.91,0 13.324,-4.4 15.582,-11.327 2.802,-8.597 -1.904,-17.844 -10.508,-20.642 z"/><path id="path22" fill="#fff" fill-opacity=".847" d="m 440.649,260.538 -36.243,-11.773 c -8.611,-2.778 -17.841,1.918 -20.638,10.516 -2.802,8.606 1.918,17.848 10.521,20.646 l 36.252,11.772 c 1.681,0.545 3.373,0.807 5.054,0.807 6.909,0 13.323,-4.407 15.581,-11.324 2.795,-8.61 -1.918,-17.845 -10.527,-20.644 z"/><path id="path24" fill="#fff" fill-opacity=".847" d="M 89.375,248.765 53.11,260.522 c -8.604,2.79 -13.324,12.026 -10.521,20.635 2.238,6.927 8.664,11.334 15.574,11.334 1.668,0 3.381,-0.267 5.061,-0.811 l 36.258,-11.756 c 8.611,-2.792 13.33,-12.03 10.529,-20.635 -2.782,-8.6 -11.952,-13.303 -20.636,-10.524 z"/><path id="path26" fill="#fff" fill-opacity=".847" d="m 399.35,181.653 c 1.681,0 3.373,-0.265 5.056,-0.809 l 36.243,-11.773 c 8.608,-2.799 13.322,-12.039 10.526,-20.642 -2.803,-8.6 -12.077,-13.3 -20.635,-10.518 l -36.252,11.772 c -8.604,2.798 -13.322,12.038 -10.521,20.642 2.253,6.921 8.673,11.328 15.583,11.328 z"/><path id="path28" fill="#fff" fill-opacity=".847" d="m 139.412,334.855 -22.431,30.822 c -5.326,7.318 -3.707,17.563 3.619,22.883 2.896,2.119 6.27,3.138 9.609,3.138 5.074,0 10.066,-2.336 13.264,-6.744 l 22.43,-30.824 c 5.326,-7.316 3.707,-17.562 -3.619,-22.883 -7.293,-5.349 -17.582,-3.709 -22.872,3.608 z"/><path id="path30" fill="#fff" fill-opacity=".847" d="m 350.258,44.654 -22.396,30.84 c -5.312,7.318 -3.681,17.562 3.633,22.873 2.91,2.112 6.283,3.129 9.608,3.129 5.074,0 10.065,-2.343 13.276,-6.761 l 22.396,-30.841 c 5.311,-7.318 3.68,-17.564 -3.634,-22.873 -7.355,-5.341 -17.557,-3.695 -22.883,3.633 z"/><path id="path32" fill="#fff" fill-opacity=".847" d="m 365.194,215.404 c 0,-65.354 -52.976,-118.333 -118.322,-118.333 -65.359,0 -118.336,52.979 -118.336,118.333 0,27.569 9.482,52.884 25.322,72.981 13.881,17.612 27.027,36.839 38.42,56.187 l 0,39.306 108.516,0 0,-38.263 c 11.288,-18.818 25.881,-40.484 39.065,-57.211 15.854,-20.103 25.335,-45.413 25.335,-73 z"/></g></g></g></g></g></g></svg>