<svg xmlns="http://www.w3.org/2000/svg" xmlns:svg="http://www.w3.org/2000/svg" xmlns:xlink="http://www.w3.org/1999/xlink" id="svg5453" width="48" height="48" version="1.1"><defs id="defs5455"><linearGradient id="linearGradient4159"><stop id="stop4161" offset="0" stop-color="#2a2c2f" stop-opacity="1"/><stop id="stop4163" offset="1" stop-color="#424649" stop-opacity="1"/></linearGradient><linearGradient id="linearGradient4383"><stop id="stop4385" offset="0" stop-color="#faf7f7" stop-opacity="1"/><stop id="stop4387" offset="1" stop-color="#d4d4d4" stop-opacity="1"/></linearGradient><linearGradient id="linearGradient8467-5"><stop id="stop8469-7" offset="0" stop-color="#d3d3d3" stop-opacity="1"/><stop id="stop8471-0" offset="1" stop-color="#fcf9f9" stop-opacity="1"/></linearGradient><linearGradient id="linearGradient5007" x1="396.775" x2="396.775" y1="518.344" y2="544.989" gradientTransform="matrix(1.0161292,0,0,1.0161292,-6.5084643,-8.6248786)" gradientUnits="userSpaceOnUse" xlink:href="#linearGradient4383"/><linearGradient id="linearGradient4342" x1="403.437" x2="402.485" y1="544.989" y2="518.344" gradientTransform="matrix(1.0161292,0,0,1.0161292,-6.5084643,-8.6248786)" gradientUnits="userSpaceOnUse" xlink:href="#linearGradient8467-5"/><linearGradient id="linearGradient4370-3" x1="16" x2="16" y1="30" y2="2" gradientTransform="matrix(1.5,0,0,1.5,409.47143,506.998)" gradientUnits="userSpaceOnUse" xlink:href="#linearGradient4159"/></defs><metadata id="metadata5458"/><g id="layer1" transform="translate(-384.57143,-499.798)"><g id="g4169" transform="matrix(1.6428571,0,0,1.6428571,-249.51019,-349.87012)"><g id="layer1-23" transform="matrix(0.8888889,0,0,0.8888889,44.56218,59.017688)"><g id="g5011" transform="matrix(1.0508504,0,0,1.0508504,-20.380166,-26.903903)"><circle id="path3377" cx="400.524" cy="531.742" r="14.226" fill="url(#linearGradient4342)" fill-opacity="1" stroke="url(#linearGradient5007)" stroke-dasharray="none" stroke-dashoffset="0" stroke-miterlimit="4" stroke-opacity="1" stroke-width="1.524" opacity="1"/><g id="layer1-2" transform="matrix(0.95161024,0,0,0.95161024,-12.009164,26.553639)"><path id="rect4176-7" fill="url(#linearGradient4370-3)" fill-opacity="1" stroke="none" d="m 433.47143,527.998 c -1.662,0 -3,1.338 -3,3 0,1.662 1.338,3 3,3 1.662,0 3,-1.338 3,-3 0,-1.662 -1.338,-3 -3,-3 z m -7.5,0 c -1.662,0 -3,1.338 -3,3 0,1.662 1.338,3 3,3 1.662,0 3,-1.338 3,-3 0,-1.662 -1.338,-3 -3,-3 z m 15,0 c -1.662,0 -3,1.338 -3,3 0,1.662 1.338,3 3,3 1.662,0 3,-1.338 3,-3 0,-1.662 -1.338,-3 -3,-3 z" opacity="1"/></g></g></g></g></g></svg>