<svg xmlns="http://www.w3.org/2000/svg" xmlns:svg="http://www.w3.org/2000/svg" xmlns:xlink="http://www.w3.org/1999/xlink" id="svg2985" width="48" height="48" version="1.1"><defs id="defs2987"><linearGradient id="linearGradient4260"><stop id="stop4262" offset="0" stop-color="#166cd2" stop-opacity="1"/><stop id="stop4264" offset="1" stop-color="#1ca7de" stop-opacity="1"/></linearGradient><linearGradient id="linearGradient4219" x1="29.455" x2="15" y1="44" y2="16" gradientTransform="matrix(1.1,0,0,1.1071429,-2.4,-4.7142857)" gradientUnits="userSpaceOnUse" xlink:href="#linearGradient4320"/><linearGradient id="linearGradient4406" x1="19" x2="19" y1="39" y2="23" gradientTransform="matrix(1.4254643,0,0,1.4254643,-9.0348863,-14.039298)" gradientUnits="userSpaceOnUse" xlink:href="#linearGradient4260"/><linearGradient id="linearGradient4143"><stop id="stop4145" offset="0" stop-color="#197cf1" stop-opacity="1"/><stop id="stop4147" offset="1" stop-color="#20bcfa" stop-opacity="1"/></linearGradient><linearGradient id="linearGradient4300-2" x1="17" x2="17" y1="1036.362" y2="1012.362" gradientTransform="matrix(1.0309825,0,0,1,-0.512598,0)" gradientUnits="userSpaceOnUse" xlink:href="#linearGradient4143"/><linearGradient id="linearGradient4308" x1="33.462" x2="34.117" y1="1013.622" y2="1037.208" gradientTransform="matrix(0.68964436,0,0,1,10.82717,0)" gradientUnits="userSpaceOnUse" xlink:href="#linearGradient4320"/><linearGradient id="linearGradient4286" x1="28" x2="28" y1="1037.362" y2="1011.362" gradientTransform="translate(-0.199659,0)" gradientUnits="userSpaceOnUse" xlink:href="#linearGradient4260"/><linearGradient id="linearGradient4320"><stop id="stop4322" offset="0" stop-color="#f6fbff" stop-opacity="1"/><stop id="stop4324" offset="1" stop-color="#eaeff2" stop-opacity="1"/></linearGradient></defs><metadata id="metadata2990"/><g id="layer1"><g id="g4266" transform="matrix(0.4209155,0,0,0.4209155,13.355812,12.683474)"><g id="g4196" transform="matrix(1.1526351,0,0,1.1526351,-5.7094379,-3.6801451)"><g id="layer1-88" transform="matrix(2.3757738,0,0,2.3757738,-146.10245,-33.488408)"><g id="layer1-5" transform="translate(-384.14389,-499.44752)"><g id="g4231" transform="matrix(1.5263052,0,0,1.5263052,376.31698,-1040.1258)"><g id="g4495" transform="translate(61.491819,-0.00433837)"><g id="layer1-8" transform="matrix(0.65517696,0,0,0.65517696,-24.348086,1009.4167)"><g id="layer1-4" transform="translate(0.24974411,-0.18030063)"><g id="g4389" transform="translate(-39.084616,0)"><g id="layer1-9" transform="matrix(-1,0,0,1,473.37783,-499.49967)"><g id="g4414" transform="matrix(-1.5263052,0,0,1.5263052,444.81962,-1040.1735)"><path id="path4248" fill="url(#linearGradient4300-2)" fill-opacity="1" fill-rule="evenodd" stroke="none" stroke-linecap="butt" stroke-linejoin="miter" stroke-opacity="1" stroke-width="1" d="m 11.563303,1036.9442 11.636697,0 -3.21e-4,-24.4983 -11.533282,3e-4 c -1.268259,-0.094 -1.782566,0.023 -1.782566,1.1721 l 0,22.0916 c -0.07966,1.261 0.446208,1.2343 1.679472,1.2343 z" opacity="1"/><path id="path4248-6" fill="url(#linearGradient4308)" fill-opacity="1" fill-rule="evenodd" stroke="none" stroke-linecap="butt" stroke-linejoin="miter" stroke-opacity="1" stroke-width="1" d="m 33.959911,1036.9362 -7.990815,0 0,-24.498 7.990815,0 c 0.848365,-0.094 0.916631,0.023 0.916631,1.1721 l 0,22.0916 c 0.05328,1.261 -0.09168,1.2343 -0.916631,1.2343 z" opacity="1"/><path id="path4248-6-0" fill="url(#linearGradient4286)" fill-opacity="1" fill-rule="evenodd" stroke="none" stroke-linecap="butt" stroke-linejoin="miter" stroke-opacity="1" stroke-width="1" d="M 31.957586,1038.1035 21.928,1036.932 l -2e-5,-24.4861 9.945926,-0.9324 c 1.230149,-0.094 1.296492,0.2446 1.296492,1.3937 l -0.08368,23.3688 c 0.07726,1.261 0.06707,1.8275 -1.129132,1.8275 z" opacity="1"/></g></g></g></g></g></g></g></g></g><rect id="rect4166" width="44" height="31" x="2" y="13" fill="url(#linearGradient4219)" fill-opacity="1" stroke="none" stroke-dasharray="none" stroke-linecap="round" stroke-linejoin="bevel" stroke-miterlimit="4" stroke-opacity="1" stroke-width="2" opacity="1" ry="3.4"/><path id="rect4361-9" fill="url(#linearGradient4406)" fill-opacity="1" stroke="none" stroke-dasharray="none" stroke-linecap="round" stroke-linejoin="round" stroke-miterlimit="4" stroke-opacity="1" stroke-width="2" d="M 18.048936,21.597308 32.303579,28.72463 18.048936,35.851951 Z" opacity="1"/></g></g></g></svg>