<svg xmlns="http://www.w3.org/2000/svg" xmlns:osb="http://www.openswatchbook.org/uri/2009/osb" xmlns:svg="http://www.w3.org/2000/svg" xmlns:xlink="http://www.w3.org/1999/xlink" id="svg5453" width="48" height="48" version="1.1"><defs id="defs5455"><linearGradient id="linearGradient4165" x1="409.571" x2="409.571" y1="543.798" y2="503.798" gradientTransform="matrix(0.95000001,0,0,0.95000001,20.428548,26.189892)" gradientUnits="userSpaceOnUse" xlink:href="#linearGradient4191"/><linearGradient id="linearGradient4388" x1="25" x2="25" y1="34" y2="14" gradientTransform="matrix(2,0,0,2,360.32143,475.048)" gradientUnits="userSpaceOnUse" xlink:href="#linearGradient8467-5"/><linearGradient id="linearGradient4207" osb:paint="gradient"><stop id="stop3371" offset="0" stop-color="#3498db" stop-opacity="1"/><stop id="stop3373" offset="1" stop-color="#3498db" stop-opacity="0"/></linearGradient><linearGradient id="linearGradient4191"><stop id="stop4193" offset="0" stop-color="#2e3e46" stop-opacity="1"/><stop id="stop4195" offset="1" stop-color="#47606a" stop-opacity="1"/></linearGradient><style id="current-color-scheme" type="text/css"/><style id="current-color-scheme-8" type="text/css"/><style id="current-color-scheme-7" type="text/css"/><style id="current-color-scheme-71" type="text/css"/><style id="current-color-scheme-8-4" type="text/css"/><style id="current-color-scheme-7-2" type="text/css"/><style id="current-color-scheme-2" type="text/css"/><style id="current-color-scheme-8-48" type="text/css"/><style id="current-color-scheme-7-5" type="text/css"/><style id="current-color-scheme-71-1" type="text/css"/><style id="current-color-scheme-8-4-7" type="text/css"/><style id="current-color-scheme-7-2-0" type="text/css"/><style id="current-color-scheme-27" type="text/css"/><style id="current-color-scheme-8-7" type="text/css"/><style id="current-color-scheme-7-6" type="text/css"/><style id="current-color-scheme-71-7" type="text/css"/><style id="current-color-scheme-8-4-6" type="text/css"/><style id="current-color-scheme-7-2-4" type="text/css"/><style id="current-color-scheme-2-9" type="text/css"/><style id="current-color-scheme-8-48-5" type="text/css"/><style id="current-color-scheme-7-5-8" type="text/css"/><style id="current-color-scheme-71-1-6" type="text/css"/><style id="current-color-scheme-8-4-7-3" type="text/css"/><style id="current-color-scheme-7-2-0-8" type="text/css"/><linearGradient id="linearGradient8467-5"><stop id="stop8469-7" offset="0" stop-color="#d8d8d8" stop-opacity="1"/><stop id="stop8471-0" offset="1" stop-color="#fff" stop-opacity="1"/></linearGradient></defs><metadata id="metadata5458"/><g id="layer1" transform="translate(-384.57143,-499.798)"><g id="g4190" transform="matrix(1.16875,0,0,1.16875,-68.629241,-87.63935)"><rect id="rect4146" width="38" height="38" x="389.571" y="504.798" fill="url(#linearGradient4165)" fill-opacity="1" stroke="none" opacity="1" ry="19"/><path id="rect4281" fill="url(#linearGradient4388)" fill-opacity="1" stroke="none" d="m 408.32143,503.048 c -11.08001,0 -20,8.91999 -20,20 0,11.08001 8.91999,20 20,20 11.08001,0 20,-8.91999 20,-20 0,-11.08001 -8.91999,-20 -20,-20 z m 0,2 c 9.97201,0 18,8.02799 18,18 0,9.97201 -8.02799,18 -18,18 -8.21224,0 -15.09605,-5.45021 -17.27342,-12.9414 l 6.87105,2.7578 c 0.51952,2.38783 2.64776,4.1836 5.18755,4.1836 2.751,0 5.02225,-2.10915 5.28517,-4.79298 l 6.81246,-4.98439 c 3.92821,0 7.11719,-3.17828 7.11719,-7.10544 0,-3.92935 -3.18864,-7.11719 -7.11719,-7.11719 -3.907,0 -7.0778,3.15195 -7.11325,7.05079 l -4.43359,6.35158 c -0.18057,-0.0181 -0.36538,-0.0276 -0.55079,-0.0276 -0.99059,0 -1.91578,0.27092 -2.71097,0.74612 l -9.97263,-4.01173 c 0.94027,-9.07563 8.56601,-16.10939 17.89842,-16.10939 z m 6.88281,8.34377 c 2.63201,0 4.77342,2.14138 4.77342,4.77342 -1e-5,2.63216 -2.14141,4.76176 -4.77342,4.76176 -2.63203,0 -4.76956,-2.1296 -4.76956,-4.76176 0,-2.63204 2.13753,-4.77342 4.76956,-4.77342 z m 0.0197,0.93746 c -2.10345,0 -3.8086,1.709 -3.8086,3.81254 0,2.10346 1.70515,3.81246 3.8086,3.81246 2.10353,0 3.8125,-1.709 3.8125,-3.81246 0,-2.10354 -1.70897,-3.81254 -3.8125,-3.81254 z m -12.11718,11.5 c 2.16528,0 3.90625,1.74097 3.90625,3.90632 -2e-5,2.16523 -1.74097,3.90622 -3.90625,3.90622 -1.50614,0 -2.80469,-0.84057 -3.45704,-2.08202 0.64235,0.25922 1.28422,0.51627 1.92579,0.77728 1.59205,0.63978 3.40692,-0.13025 4.04688,-1.72263 0.63993,-1.59202 -0.13813,-3.39935 -1.73048,-4.03903 l -1.62893,-0.65237 c 0.27109,-0.0585 0.55435,-0.0939 0.84375,-0.0939 z" opacity="1"/></g></g><style id="style26" type="text/css"/><style id="style26-7" type="text/css"/><style id="style26-2" type="text/css"/><style id="style26-7-3" type="text/css"/><style id="style26-77" type="text/css"/><style id="style26-7-7" type="text/css"/><style id="style26-6" type="text/css"/><style id="style26-7-0" type="text/css"/><style id="style26-2-7" type="text/css"/><style id="style26-7-3-4" type="text/css"/><style id="style26-77-9" type="text/css"/><style id="style26-7-7-5" type="text/css"/><style id="style26-74" type="text/css"/><style id="style26-7-67" type="text/css"/><style id="style26-9" type="text/css"/><style id="style26-5" type="text/css"/><style id="style26-7-6" type="text/css"/><style id="style26-9-6" type="text/css"/><style id="style26-52" type="text/css"/><style id="style26-7-3-5" type="text/css"/><style id="style26-9-0" type="text/css"/><style id="style26-5-1" type="text/css"/><style id="style26-7-6-1" type="text/css"/><style id="style26-9-6-5" type="text/css"/><style id="style26-28" type="text/css"/><style id="style26-7-5" type="text/css"/><style id="style26-2-4" type="text/css"/><style id="style26-7-3-1" type="text/css"/><style id="style26-77-1" type="text/css"/><style id="style26-7-7-1" type="text/css"/></svg>