<svg xmlns="http://www.w3.org/2000/svg" xmlns:svg="http://www.w3.org/2000/svg" xmlns:xlink="http://www.w3.org/1999/xlink" id="svg5453" width="48" height="48" version="1.1"><defs id="defs5455"><linearGradient id="linearGradient5076"><stop id="stop5078" offset="0" stop-color="#c52828" stop-opacity="1"/><stop id="stop5080" offset="1" stop-color="#ff5454" stop-opacity="1"/></linearGradient><linearGradient id="linearGradient4975" x1="223.751" x2="223.751" y1="308.281" y2="-118.497" gradientTransform="matrix(0.95323403,0,0,0.95323401,12.503542,5.4841689)" gradientUnits="userSpaceOnUse" xlink:href="#linearGradient5076"/><linearGradient id="linearGradient4227" x1="220.513" x2="217.884" y1="314.417" y2="-128.398" gradientUnits="userSpaceOnUse" xlink:href="#linearGradient5076"/></defs><metadata id="metadata5458"/><g id="layer1" transform="translate(-384.57143,-499.798)"><g id="g4381" stroke="none" transform="translate(404.1321,272.69663)"><g id="g4340" stroke="none" transform="matrix(0.17573559,0,0,0.17573559,3.0344898,224.81171)"><g id="report" stroke="none"><g id="g5136" stroke="none" transform="matrix(0.5683014,0,0,0.5683014,-121.04596,94.32632)"><g id="g4452" stroke="url(#linearGradient4227)" transform="matrix(1.0579814,0,0,1.0579814,-15.137798,-6.7832385)"><path id="path4343" fill="url(#linearGradient4975)" fill-opacity="1" stroke="url(#linearGradient4227)" stroke-dasharray="none" stroke-miterlimit="4" stroke-width="14.317" d="m 317.90518,-120.47228 -179.87527,0 L 9.2003779,8.3573022 l 0,182.3059978 128.8295321,126.39883 182.30602,0 128.82862,-128.82958 0,-179.8752478 z"/><g id="g5224" fill="#fff" fill-opacity=".852" stroke="url(#linearGradient4227)" transform="matrix(1.6171928,0,0,1.6171928,-39.055967,-194.0582)"><g id="g5180" fill="#fff" fill-opacity=".852" stroke="url(#linearGradient4227)"><path id="path5184" fill="#fff" fill-opacity=".852" stroke="url(#linearGradient4227)" d="m 147.281,131.031 7.25,83 c 0.423,4.886 4.301,8.913 9.355,9.355 5.661,0.495 10.651,-3.694 11.145,-9.355 l 7.25,-83 c 0.078,-0.97 0.088,-2.057 0,-3.057 -0.844,-9.666 -9.363,-16.816 -19.028,-15.973 -9.665,0.845 -16.816,9.366 -15.972,19.03 z"/><circle id="circle5186" cx="164.781" cy="243.031" r="14.5" fill="#fff" fill-opacity=".852" stroke="url(#linearGradient4227)"/></g></g></g></g></g></g></g></g></svg>