<svg xmlns="http://www.w3.org/2000/svg" xmlns:osb="http://www.openswatchbook.org/uri/2009/osb" xmlns:svg="http://www.w3.org/2000/svg" xmlns:xlink="http://www.w3.org/1999/xlink" id="svg5453" width="48" height="48" version="1.1"><defs id="defs5455"><linearGradient id="linearGradient4511"><stop id="stop4513" offset="0" stop-color="#f7aeb4" stop-opacity="1"/><stop id="stop4515" offset="1" stop-color="#f8d4d9" stop-opacity="1"/></linearGradient><linearGradient id="linearGradient4143"><stop id="stop4145" offset="0" stop-color="#197cf1" stop-opacity="1"/><stop id="stop4147" offset="1" stop-color="#20bcfa" stop-opacity="1"/></linearGradient><linearGradient id="linearGradient4435"><stop id="stop4437" offset="0" stop-color="#c61423" stop-opacity="1"/><stop id="stop4439" offset="1" stop-color="#dc2b41" stop-opacity="1"/></linearGradient><linearGradient id="linearGradient4374" x1="401.571" x2="401.571" y1="515.798" y2="509.798" gradientTransform="translate(24.999929,-5.9997579)" gradientUnits="userSpaceOnUse" xlink:href="#linearGradient4435"/><linearGradient id="linearGradient4509" x1="41" x2="41" y1="9" y2="5" gradientTransform="translate(384.57143,499.798)" gradientUnits="userSpaceOnUse" xlink:href="#linearGradient4511"/><linearGradient id="linearGradient4207" osb:paint="gradient"><stop id="stop3371" offset="0" stop-color="#3498db" stop-opacity="1"/><stop id="stop3373" offset="1" stop-color="#3498db" stop-opacity="0"/></linearGradient><linearGradient id="linearGradient4182" x1="374.359" x2="373.571" y1="541.336" y2="507.798" gradientTransform="matrix(1.1794756,0,0,1.1794756,-99.53949,-87.834792)" gradientUnits="userSpaceOnUse" xlink:href="#linearGradient4143"/></defs><metadata id="metadata5458"/><g id="layer1" transform="translate(-384.57143,-499.798)"><g id="layer1-29" transform="matrix(1.1532003,0,0,1.1532003,-41.639646,-80.805138)"><g id="layer1-2" transform="translate(0.80041,-4.19993)"><g id="g4275" transform="matrix(0.81364921,0,0,0.81364921,112.58579,94.676663)"><path id="path3" fill="url(#linearGradient4182)" fill-opacity="1" d="m 358.77104,516.99793 c -4.8234,-3.92542 -11.22786,-6.08712 -18.03349,-6.08712 -6.80575,0 -13.21022,2.16185 -18.03349,6.08712 -4.86535,3.9595 -7.54482,9.23646 -7.54482,14.859 0,5.36635 2.44243,10.41704 6.89488,14.30854 -0.0803,0.18057 -0.144,0.37054 -0.18468,0.57028 l -1.46301,7.19633 c -0.17395,0.85525 0.0599,1.36523 0.28634,1.64263 0.26189,0.3204 0.65007,0.49697 1.09314,0.49697 l 0,0 c 0.33452,0 0.69405,-0.0987 1.06868,-0.29345 l 8.50944,-4.42073 c 2.94612,0.94828 6.11338,1.44552 9.37335,1.44552 6.80578,0 13.21008,-2.16181 18.03351,-6.08708 4.8652,-3.95938 7.54467,-9.23635 7.54467,-14.85888 0,-5.62267 -2.67934,-10.89963 -7.54454,-14.85913 z"/></g></g></g><g id="g4274" transform="matrix(2.4891138,0,0,2.4891138,-634.22298,-754.00331)"><ellipse id="path4291" cx="425.571" cy="506.798" fill="url(#linearGradient4374)" fill-opacity="1" stroke="none" stroke-opacity="1" opacity="1" rx="3" ry="3"/><path id="path4482" fill="url(#linearGradient4509)" fill-opacity="1" stroke="none" stroke-opacity="1" d="m 425.57143,504.798 c -0.277,0 -0.5,0.223 -0.5,0.5 l 0,0.29297 -0.20703,-0.20703 c -0.19587,-0.19587 -0.51116,-0.19587 -0.70703,0 -0.19587,0.19587 -0.19587,0.51116 0,0.70703 l 0.20703,0.20703 -0.29297,0 c -0.277,0 -0.5,0.223 -0.5,0.5 0,0.277 0.223,0.5 0.5,0.5 l 0.29297,0 -0.20703,0.20703 c -0.19587,0.19587 -0.19587,0.51116 0,0.70703 0.19587,0.19587 0.51116,0.19587 0.70703,0 l 0.20703,-0.20703 0,0.29297 c 0,0.277 0.223,0.5 0.5,0.5 0.277,0 0.5,-0.223 0.5,-0.5 l 0,-0.29297 0.20703,0.20703 c 0.19587,0.19587 0.51116,0.19587 0.70703,0 0.19587,-0.19587 0.19587,-0.51116 0,-0.70703 l -0.20703,-0.20703 0.29297,0 c 0.277,0 0.5,-0.223 0.5,-0.5 0,-0.277 -0.223,-0.5 -0.5,-0.5 l -0.29297,0 0.20703,-0.20703 c 0.19587,-0.19587 0.19587,-0.51116 0,-0.70703 -0.19587,-0.19587 -0.51116,-0.19587 -0.70703,0 l -0.20703,0.20703 0,-0.29297 c 0,-0.277 -0.223,-0.5 -0.5,-0.5 z" opacity="1"/></g></g></svg>