<svg xmlns="http://www.w3.org/2000/svg" xmlns:svg="http://www.w3.org/2000/svg" xmlns:xlink="http://www.w3.org/1999/xlink" id="svg5453" width="48" height="48" version="1.1"><defs id="defs5455"><linearGradient id="linearGradient4174" x1="409.571" x2="409.571" y1="543.798" y2="503.798" gradientTransform="translate(-5.9283447e-6,1.1108398e-5)" gradientUnits="userSpaceOnUse" xlink:href="#linearGradient4143"/><linearGradient id="linearGradient4143"><stop id="stop4145" offset="0" stop-color="#197cf1" stop-opacity="1"/><stop id="stop4147" offset="1" stop-color="#01b6ff" stop-opacity="1"/></linearGradient></defs><metadata id="metadata5458"/><g id="layer1" transform="translate(-384.57143,-499.798)"><g id="g4207" transform="matrix(1.2000003,0,0,1.2000003,-81.663417,-104.60573)"><rect id="rect4166" width="40" height="40" x="388.571" y="503.798" fill="url(#linearGradient4174)" fill-opacity="1" stroke="none" stroke-dasharray="none" stroke-miterlimit="4" stroke-opacity=".55" stroke-width="2.8" opacity="1" ry="20"/><g id="g4202" transform="matrix(1.7285895,0,0,1.7285895,-390.3851,-357.10261)"><path id="path4183" fill="#f1f9ff" fill-opacity="1" fill-rule="evenodd" stroke="none" stroke-linecap="butt" stroke-linejoin="miter" stroke-opacity="1" stroke-width="1" d="m 457.51963,514.85216 10.60847,-1.52564 c 0,0 1.55857,-0.0612 0.61084,-1.21552 l -7.19877,-8.76799 c -0.30613,-0.33462 -0.65621,-0.27773 -0.80925,0.1531 l -3.88687,10.53865 c -0.44885,1.06171 0.67558,0.8174 0.67558,0.8174 z" opacity="1"/><path id="path4185" fill="#b6daff" fill-opacity="1" fill-rule="evenodd" stroke="none" stroke-linecap="butt" stroke-linejoin="miter" stroke-opacity="1" stroke-width="1" d="m 461.35915,514.30054 1.29293,1.29293 c 0.51595,0.51241 0.71645,0.14154 0.95149,-0.13261 l 0.80558,-1.61115 -2.85109,-9.69373 c -0.14339,-0.45696 -0.51112,-0.24473 -0.46413,0.0995 z" opacity="1"/><path id="path4185-4" fill="#77baff" fill-opacity="1" fill-rule="evenodd" stroke="none" stroke-linecap="butt" stroke-linejoin="miter" stroke-opacity="1" stroke-width="1" d="m 462.6972,513.96715 0.35616,1.73918 c 0.39383,0.64293 1.31571,-1.82662 1.31571,-1.82662 l -2.85109,-9.75087 c -0.14339,-0.45696 -0.35799,-0.33223 -0.311,0.012 z" opacity="1"/></g></g></g></svg>