<svg xmlns="http://www.w3.org/2000/svg" xmlns:osb="http://www.openswatchbook.org/uri/2009/osb" xmlns:svg="http://www.w3.org/2000/svg" xmlns:xlink="http://www.w3.org/1999/xlink" id="svg2985" width="48" height="48" version="1.1"><defs id="defs2987"><linearGradient id="linearGradient4760"><stop id="stop4762" offset="0" stop-color="#124da4" stop-opacity="1"/><stop id="stop4764" offset="1" stop-color="#2896ff" stop-opacity="1"/></linearGradient><linearGradient id="linearGradient4269" x1="24.006" x2="24.04" y1="43.461" y2="4.494" gradientTransform="matrix(2.4587921,0,0,2.4587921,258.87464,462.15559)" gradientUnits="userSpaceOnUse" xlink:href="#linearGradient4760"/><linearGradient id="linearGradient4207" osb:paint="gradient"><stop id="stop3371" offset="0" stop-color="#3498db" stop-opacity="1"/><stop id="stop3373" offset="1" stop-color="#3498db" stop-opacity="0"/></linearGradient><linearGradient id="linearGradient5263-9"><stop id="stop5265-9" offset="0" stop-color="#cbcbcb" stop-opacity="1"/><stop id="stop5267-6" offset="1" stop-color="#fff" stop-opacity="1"/></linearGradient><linearGradient id="linearGradient4678" x1="150.158" x2="147.021" y1="578.957" y2="472.49" gradientTransform="matrix(0.97044273,0,0,0.97044273,170.66539,9.5402197)" gradientUnits="userSpaceOnUse" xlink:href="#linearGradient5263-9"/></defs><metadata id="metadata2990"/><g id="layer1"><g id="g8201" transform="matrix(0.44346671,0,0,0.44346671,-66.448582,-206.62428)"><g id="g4209" transform="matrix(0.91794904,0,0,0.91794904,14.330292,42.299028)"><g id="g4251" transform="translate(2.9479298,0)"><g id="g4297" transform="translate(1.2282639,-0.98260975)"><g id="g4262" transform="matrix(1.1489124,0,0,1.1489124,-33.786598,-79.42617)"><g id="g4367" transform="translate(0.21380876,0.85524921)"><g id="g4405" transform="matrix(1.0105477,0,0,1.0105477,-2.4898531,-5.6181888)"><g id="g4365" transform="translate(-111.70538,1.9970068)"><path id="path4187" fill="url(#linearGradient4269)" fill-opacity="1" fill-rule="nonzero" stroke="none" stroke-dasharray="none" stroke-linecap="butt" stroke-linejoin="miter" stroke-miterlimit="4" stroke-opacity="1" stroke-width="3.087" d="m 317.88565,471.99077 c -27.15908,0 -49.17584,22.01676 -49.17584,49.17582 0,27.15909 22.01676,49.17585 49.17584,49.17585 27.15905,0 49.17584,-22.01676 49.17584,-49.17585 0,-27.15906 -22.01679,-49.17582 -49.17584,-49.17582 z" color="#000" display="inline" enable-background="accumulate" opacity="1" overflow="visible" visibility="visible" style="marker:none"/><path id="path4187-5" fill="none" fill-opacity="1" fill-rule="nonzero" stroke="url(#linearGradient4678)" stroke-dasharray="none" stroke-linecap="butt" stroke-linejoin="miter" stroke-miterlimit="4" stroke-opacity="1" stroke-width="3.207" d="m 317.45707,471.13494 c -27.1591,0 -49.17585,22.01676 -49.17585,49.17582 0,27.1591 22.01675,49.17585 49.17585,49.17585 27.15904,0 49.17584,-22.01675 49.17584,-49.17585 0,-27.15906 -22.0168,-49.17582 -49.17584,-49.17582 z" color="#000" display="inline" enable-background="accumulate" opacity="1" overflow="visible" visibility="visible" style="marker:none"/></g><g id="g4169" transform="matrix(0.75147093,-0.23142834,0.23142834,0.75147093,71.740634,462.39806)"><path id="path4155" fill="#f1f1f1" fill-opacity="1" fill-rule="evenodd" stroke="none" stroke-linecap="butt" stroke-linejoin="miter" stroke-opacity="1" stroke-width="1" d="m 196.1198,154.90297 c 7.1979,-20.29775 7.77869,-41.20072 -17.64139,-56.114662 l 4.31651,-3.190466 c -33.40688,-13.899792 -50.55169,-6.01854 -60.17351,9.208748 l 5.18489,-1.5141 c 1.56233,20.79019 14.90113,19.7098 22.70861,28.90187 43.89207,-14.30693 39.51113,8.19432 45.60489,22.70861 z"/><path id="path4153" fill="#dedede" fill-opacity="1" fill-rule="evenodd" stroke="none" stroke-linecap="butt" stroke-linejoin="miter" stroke-opacity="1" stroke-width="1" d="m 167.06995,177.76963 c 8.64078,-2.65316 22.36608,-12.91043 27.04686,-27.04755 0,0 0.92698,0.56386 1.81532,4.55624 7.52138,-14.8583 2.47749,-26.25031 -4.31651,-37.15954 -0.0715,4.66594 -3.94117,6.75628 -3.94117,6.75628 -5.0064,-7.95093 -12.58047,-12.51253 -21.48839,-15.31344 -11.40704,-3.5867 -30.63158,8.1003 -38.19208,-5.51843 1.18922,11.7656 6.29807,18.56749 13.32488,19.33047 10.95361,15.719 36.45625,24.23779 25.75109,54.39597 z"/><path id="path4151" fill="#c1c1c1" fill-opacity="1" fill-rule="evenodd" stroke="none" stroke-linecap="butt" stroke-linejoin="miter" stroke-opacity="1" stroke-width="1" d="m 124.84947,181.3066 c 27.86007,9.66453 66.26977,-5.83396 53.81661,-42.35596 -0.84183,2.03584 -4.50419,4.12884 -4.50419,4.12884 -14.13522,-24.21176 -34.6827,-21.70574 -54.61326,-21.77024 22.76099,-0.35527 30.35571,37.03614 5.30084,59.99736 z"/><path id="path4149" fill="#999" fill-opacity="1" fill-rule="evenodd" stroke="none" stroke-linecap="butt" stroke-linejoin="miter" stroke-opacity="1" stroke-width="1" d="m 116.22447,178.48777 c 19.41758,11.24348 37.62186,-5.28905 41.92747,-27.98372 0,0 -4.26274,4.02231 -7.00774,4.19261 10.58425,-27.76933 -18.53396,-34.0505 -32.20349,-32.47498 26.757,9.96089 28.84961,40.9954 -2.71624,56.26609 z"/><path id="path4157" fill="#dedede" fill-opacity="1" fill-rule="evenodd" stroke="none" stroke-linecap="butt" stroke-linejoin="miter" stroke-opacity="1" stroke-width="1" d="m 105.47304,135.00948 c 4.91064,-8.39683 13.75274,-13.69397 31.02985,-13.449 -5.11736,-4.98727 -7.89621,-10.78295 -8.50891,-18.45566 -21.68786,2.82274 -23.46279,17.27512 -22.52094,31.90466 z"/><path id="path4159" fill="#999" fill-opacity="1" fill-rule="evenodd" stroke="none" stroke-linecap="butt" stroke-linejoin="miter" stroke-opacity="1" stroke-width="1" d="m 148.70175,110.36062 c 0.42399,12.60891 16.1674,6.0771 13.76077,-1.56193 -4.29493,0.13132 -8.50568,0.15039 -13.76077,1.56193 z" opacity="1"/></g></g></g></g></g></g></g></g></g></svg>