<svg xmlns="http://www.w3.org/2000/svg" xmlns:svg="http://www.w3.org/2000/svg" xmlns:xlink="http://www.w3.org/1999/xlink" id="svg3018" width="48" height="48" version="1.1"><defs id="defs3020"><linearGradient id="linearGradient4398"><stop id="stop4400" offset="0" stop-color="#000" stop-opacity="1"/><stop id="stop4402" offset="1" stop-color="#000" stop-opacity="0"/></linearGradient><linearGradient id="linearGradient4491" x1="404.334" x2="412.171" y1="516.973" y2="516.973" gradientUnits="userSpaceOnUse" xlink:href="#linearGradient4398"/><linearGradient id="linearGradient4422-5"><stop id="stop4424-7" offset="0" stop-color="#235ea2" stop-opacity="1"/><stop id="stop4426-6" offset="1" stop-color="#1992f1" stop-opacity="1"/></linearGradient><linearGradient id="linearGradient4582" x1="3.365" x2="36.074" y1="1046.22" y2="1007.718" gradientUnits="userSpaceOnUse" xlink:href="#linearGradient4422-5"/><linearGradient id="linearGradient4596" x1="3.365" x2="36.074" y1="1046.22" y2="1007.718" gradientUnits="userSpaceOnUse" xlink:href="#linearGradient4422-5"/><linearGradient id="linearGradient4598" x1="400.571" x2="400.794" y1="545.798" y2="517.627" gradientUnits="userSpaceOnUse" xlink:href="#linearGradient4613"/><linearGradient id="linearGradient4600" x1="3.365" x2="36.074" y1="1046.22" y2="1007.718" gradientUnits="userSpaceOnUse" xlink:href="#linearGradient4422-5"/><linearGradient id="linearGradient4602" x1="3.365" x2="36.074" y1="1046.22" y2="1007.718" gradientUnits="userSpaceOnUse" xlink:href="#linearGradient4422-5"/><linearGradient id="linearGradient4604" x1="3.365" x2="36.074" y1="1046.22" y2="1007.718" gradientUnits="userSpaceOnUse" xlink:href="#linearGradient4422-5"/><linearGradient id="linearGradient4606" x1="3.365" x2="36.074" y1="1046.22" y2="1007.718" gradientUnits="userSpaceOnUse" xlink:href="#linearGradient4422-5"/><linearGradient id="linearGradient4613"><stop id="stop4615" offset="0" stop-color="#dc3c30" stop-opacity="1"/><stop id="stop4617" offset="1" stop-color="#ff786d" stop-opacity="1"/></linearGradient></defs><metadata id="metadata3023"/><g id="layer1" transform="translate(0,-1004.3622)"><g id="layer1-5" transform="translate(-384.55629,504.6672)"><g id="g5003" transform="matrix(0.9818807,0,0,0.9818807,6.729627,9.1366244)"><g id="g4325" transform="matrix(1.040295,0,0,1.040295,-16.246706,-20.834455)"><g id="layer1-22" fill="url(#linearGradient4582)" fill-opacity="1" transform="translate(384.92777,-504.49547)"><g id="layer1-6" fill="url(#linearGradient4606)" fill-opacity="1" transform="matrix(1.6782951,0,0,1.6782951,-648.25122,135.72394)"><g id="layer1-39" fill="url(#linearGradient4604)" fill-opacity="1" stroke="none" transform="translate(-0.11123528,0.03124873)"><g id="layer1-3" fill="url(#linearGradient4602)" fill-opacity="1" stroke="none" stroke-dasharray="none" stroke-miterlimit="4" stroke-opacity="1" stroke-width="1.3" transform="translate(0.13524268,0.04517549)"><circle id="path3377" cx="400.571" cy="531.798" r="14" fill="url(#linearGradient4596)" fill-opacity="1" stroke="none" stroke-dasharray="none" stroke-dashoffset="0" stroke-miterlimit="4" stroke-opacity="1" stroke-width="1.3" opacity="1"/><circle id="circle4174" cx="400.571" cy="531.798" r="14" fill="url(#linearGradient4598)" fill-opacity="1" stroke="none" stroke-dasharray="none" stroke-dashoffset="0" stroke-miterlimit="4" stroke-opacity="1" stroke-width="1.3" opacity="1"/><circle id="ellipse4233" cx="400.571" cy="531.798" r="0" fill="url(#linearGradient4600)" fill-opacity="1" stroke="none" stroke-dasharray="none" stroke-dashoffset="0" stroke-miterlimit="4" stroke-opacity="1" stroke-width="1.3" opacity="1"/></g></g></g></g><g id="g4497" fill="#fff" fill-opacity=".852" opacity="1" transform="matrix(1.0452912,0,0,1.0452912,-38.273761,-9.8416801)"><path id="path3942-4" fill="#fff" fill-opacity=".852" fill-rule="nonzero" stroke="none" d="m 416.51125,503.96117 c -3.645,3.65517 -5.64798,8.53043 -5.63781,13.73613 0.0152,10.85875 8.14696,15.80603 18.1323,15.30028 l 0.11973,-0.10815 c -8.84562,0 -14.86122,-6.32065 -14.87647,-15.20185 -0.005,-4.3008 1.64203,-8.32751 4.65157,-11.34214 3.0248,-3.02988 7.08158,-4.70241 11.42305,-4.70241 l 0,-3.37557 c -5.24636,0 -10.14704,2.0233 -13.81238,5.69373"/><path id="path3946-2" fill="#fff" fill-opacity=".852" fill-rule="nonzero" stroke="none" d="m 426.59451,503.35086 c -3.88394,1.04724 -7.08666,3.48232 -9.01846,6.85789 -4.05679,7.09175 -1.9013,15.74927 5.12435,20.58386 5.40001,4.74257 14.71367,0.67754 16.83911,-1.08381 -0.17793,0.0457 -5.75158,4.60186 -14.92256,-1.69683 -5.5463,-3.81276 -7.27475,-10.59441 -4.10762,-16.12546 1.48444,-2.5876 3.95511,-4.46348 6.96466,-5.27178 3.0858,-0.83373 6.27835,-0.42703 8.99304,1.13874 l 1.68779,-2.9282 c -3.49758,-2.01823 -7.6052,-2.54185 -11.56031,-1.47427"/><path id="path3950-4" fill="#fff" fill-opacity=".852" fill-rule="nonzero" stroke="none" d="m 425.7034,508.96637 c -3.37048,1.94705 -5.25653,5.49039 -5.25653,9.13031 0,1.68778 0.42195,3.39082 1.27092,4.96676 l -0.0102,0.0102 c 0,0.005 0.0305,0.0559 0.0407,0.0763 l -0.005,0 c 0,0 0.0203,0.0305 0.0356,0.0559 0.0203,0.0407 0.0712,0.13218 0.0763,0.13726 l 0,0 c 0.5287,0.90998 2.56726,3.97544 7.03582,5.60223 5.41611,1.97683 7.23934,1.82836 9.76869,1.37607 2.7532,-1.57322 4.22759,-2.97515 4.22759,-2.97515 -2.89677,0.31368 -7.00282,0.55615 -12.84228,-1.57316 -3.51792,-1.28109 -4.9871,-3.61959 -5.25654,-4.10254 l 0,0 c 0,0 -0.0102,-0.0153 -0.0102,-0.0203 -0.64563,-1.12349 -0.95574,-2.34866 -0.95574,-3.55858 0,-2.47067 1.28109,-4.87526 3.56875,-6.2021 1.6522,-0.95065 3.57892,-1.20483 5.4243,-0.71171 1.84029,0.49311 3.38065,1.67761 4.33638,3.32981 l 2.97904,-1.58611 -0.0559,-0.10167 c -1.40309,-2.43509 -3.67042,-4.17371 -6.38511,-4.90576 -2.71469,-0.72697 -5.55139,-0.35078 -7.98648,1.05232"/></g></g></g></g></g></svg>