<svg xmlns="http://www.w3.org/2000/svg" xmlns:osb="http://www.openswatchbook.org/uri/2009/osb" xmlns:svg="http://www.w3.org/2000/svg" xmlns:xlink="http://www.w3.org/1999/xlink" id="svg2" version="1.1" viewBox="0 0 48 48"><metadata id="metadata69"/><defs id="defs4"><linearGradient id="linearGradient3764" x1="1" x2="47" gradientTransform="matrix(0,-1,1,0,-1.5e-6,47.999998)" gradientUnits="userSpaceOnUse"><stop id="stop7" stop-color="#e4e4e4" stop-opacity="1"/><stop id="stop9" offset="1" stop-color="#eee" stop-opacity="1"/></linearGradient><clipPath id="clipPath-365326813"><g id="g12" transform="translate(0,-1004.3622)"><path id="path14" fill="#1890d0" d="m -24 13 c 0 1.105 -0.672 2 -1.5 2 -0.828 0 -1.5 -0.895 -1.5 -2 0 -1.105 0.672 -2 1.5 -2 0.828 0 1.5 0.895 1.5 2 z" transform="matrix(15.333333,0,0,11.5,414.99999,878.8622)"/></g></clipPath><clipPath id="clipPath-370729992"><g id="g17" transform="translate(0,-1004.3622)"><path id="path19" fill="#1890d0" d="m -24 13 c 0 1.105 -0.672 2 -1.5 2 -0.828 0 -1.5 -0.895 -1.5 -2 0 -1.105 0.672 -2 1.5 -2 0.828 0 1.5 0.895 1.5 2 z" transform="matrix(15.333333,0,0,11.5,414.99999,878.8622)"/></g></clipPath><linearGradient id="linearGradient4207" osb:paint="gradient"><stop id="stop3371" offset="0" stop-color="#3498db" stop-opacity="1"/><stop id="stop3373" offset="1" stop-color="#3498db" stop-opacity="0"/></linearGradient><linearGradient id="linearGradient4181" x1="399.994" x2="399.994" y1="545.139" y2="518.139" gradientUnits="userSpaceOnUse" xlink:href="#linearGradient4232"/><linearGradient id="linearGradient4232"><stop id="stop4234-0" offset="0" stop-color="#3889e9" stop-opacity="1"/><stop id="stop4236" offset="1" stop-color="#5ea5fb" stop-opacity="1"/></linearGradient></defs><g id="g3398" transform="translate(-74.061798,-1012.3711)"><circle id="path3377" cx="400.571" cy="531.798" r="14" fill="url(#linearGradient4181)" fill-opacity="1" stroke="none" stroke-dasharray="none" stroke-dashoffset="0" stroke-miterlimit="4" stroke-opacity="1" stroke-width="1.3" opacity="1" transform="matrix(1.6428585,0,0,1.6428585,-560.0203,162.70233)"/><path display="inline" style="line-height:normal;text-indent:0;text-align:start;text-decoration-line:none;text-decoration-style:solid;text-decoration-color:#000;text-transform:none;block-progression:tb;white-space:normal;isolation:auto;mix-blend-mode:normal;solid-color:#000;solid-opacity:1" id="path4215" fill="#fff" fill-opacity=".843" fill-rule="evenodd" stroke="none" stroke-dasharray="none" stroke-dashoffset="0" stroke-linecap="butt" stroke-linejoin="miter" stroke-miterlimit="4" stroke-opacity="1" stroke-width=".1" d="m 337.00033,537.3622 c -2.03668,0 -3.90944,0.43876 -5.27625,1.32812 -1.3668,0.88936 -2.22569,2.23737 -2.22396,4.02865 0.009,2.02438 1.32046,4.63644 2.90315,6.77083 0.79133,1.06719 1.65119,2.01513 2.45568,2.70573 0.80446,0.6906 1.54892,1.12954 2.13606,1.16667 l 0.005,0 0.005,0 c 0.58714,-0.0372 1.33159,-0.47607 2.13605,-1.16667 0.80447,-0.6906 1.66434,-1.63854 2.45569,-2.70573 1.5827,-2.13439 2.89346,-4.74645 2.90314,-6.77083 7.3e-4,-1.79128 -0.85718,-3.13929 -2.22397,-4.02865 -1.3668,-0.88936 -3.23958,-1.32812 -5.27626,-1.32812 z" baseline-shift="baseline" clip-rule="nonzero" color="#000" color-interpolation="sRGB" color-interpolation-filters="linearRGB" color-rendering="auto" direction="ltr" enable-background="accumulate" font-family="sans-serif" font-size="medium" font-stretch="normal" font-style="normal" font-variant="normal" font-weight="normal" image-rendering="auto" letter-spacing="normal" opacity="1" overflow="visible" shape-rendering="auto" text-anchor="start" text-decoration="none" text-rendering="auto" transform="matrix(1.75,0,0,1.75,-491.68816,83.387251)" visibility="visible" word-spacing="normal" writing-mode="lr-tb"/><path id="path4398" fill="#4d98f3" fill-opacity="1" stroke-dasharray="none" stroke-miterlimit="4" stroke-width="1.317" d="m 102.86273,1032.7938 c -0.71093,-1.0548 -1.98642,-1.667 -3.78802,-1.8194 l -0.003,-2e-4 c -0.1328,-0.015 -0.26036,-0.023 -0.37909,-0.023 -0.908273,0 -1.230577,0.4547 -1.230577,0.844 l 0,6.7762 -3.4e-5,0 c -0.357225,-0.1076 -0.740404,-0.1387 -1.118819,-0.091 -0.659425,0.083 -1.250224,0.3928 -1.663495,0.8718 -0.413303,0.4789 -0.599603,1.07 -0.524603,1.6641 0.139191,1.103 1.17148,1.9348 2.401304,1.9348 0.115472,0 0.232588,-0.01 0.348191,-0.022 1.274798,-0.1609 2.200023,-1.172 2.200023,-2.4041 l 0,-6.649 c 0.0957,-0.01 0.19156,-0.01 0.28505,-0.01 1.12395,0 2.15728,0.4702 2.98836,1.3597 0.34257,0.3667 0.58304,0.7313 0.7245,0.9727 0.0348,0.059 0.1025,0.091 0.17037,0.079 0.0676,-0.012 0.12066,-0.065 0.13295,-0.1323 0.1363,-0.7486 0.24711,-2.1794 -0.5431,-3.3518 z"/></g></svg>