<svg xmlns="http://www.w3.org/2000/svg" xmlns:svg="http://www.w3.org/2000/svg" xmlns:xlink="http://www.w3.org/1999/xlink" id="svg5453" width="48" height="48" version="1.1"><defs id="defs5455"><linearGradient id="linearGradient4272"><stop id="stop4274" offset="0" stop-color="#dcdfe0" stop-opacity="1"/><stop id="stop4276" offset="1" stop-color="#fefeff" stop-opacity="1"/></linearGradient><linearGradient id="linearGradient4264"><stop id="stop4266" offset="0" stop-color="#0a80fd" stop-opacity="1"/><stop id="stop4268" offset="1" stop-color="#56c5fa" stop-opacity="1"/></linearGradient><linearGradient id="linearGradient4292" x1="203.804" x2="207.595" y1="563.255" y2="372.791" gradientTransform="matrix(0.61038012,0,0,0.61038012,258.20605,170.06387)" gradientUnits="userSpaceOnUse" xlink:href="#linearGradient4272"/><linearGradient id="linearGradient4270" x1="822.034" x2="822.034" y1="775.2" y2="180.01" gradientTransform="matrix(0.38573449,0,0,0.38573449,50.75552,287.51867)" gradientUnits="userSpaceOnUse" xlink:href="#linearGradient4264"/></defs><metadata id="metadata5458"/><g id="layer1" transform="translate(-384.57143,-499.798)"><g id="g4624" transform="matrix(0.20236465,0,0,0.20236465,282.7605,435.77095)"><g id="g4782" transform="matrix(0.90991127,0,0,0.90991127,277.48102,-3.1345286)"><g id="g4412" transform="matrix(1.0978694,0,0,1.0978694,-25.51131,-34.624864)"><path id="path4262" fill="url(#linearGradient4270)" fill-opacity="1" fill-rule="evenodd" stroke="none" stroke-linecap="butt" stroke-linejoin="miter" stroke-opacity="1" stroke-width="4.947" d="m 373.32373,583.10023 32.89873,-31.00111 45.21757,0 c 0,0 28.08452,-6.39957 28.08452,-28.08326 l 0,-137.5378 c -1.7692,-27.41986 -26.64433,-29.52353 -26.64433,-29.52353 l -165.62146,0 c 0,0 -30.6574,1.79932 -31.09844,31.68761 l 0,123.85027 c 1.4021,38.36338 31.09844,39.60671 31.09844,39.60671 l 46.42488,0 30.71143,30.87861 c 4.33465,5.05641 4.39509,4.39457 8.92866,0.1225 z" opacity="1"/><path id="path7" fill="url(#linearGradient4292)" fill-opacity="1" d="m 443.04599,411.84667 c -5.21023,2.30872 -10.80073,3.87445 -16.67458,4.57346 5.9976,-3.59152 10.58862,-9.2882 12.76455,-16.05536 -5.6259,3.32596 -11.83585,5.74105 -18.45266,7.05028 -5.29858,-5.65253 -12.83531,-9.17328 -21.1948,-9.17328 -16.03755,0 -29.04101,13.00347 -29.04101,29.03225 0,2.27331 0.25651,4.49362 0.75198,6.61683 -24.13151,-1.21205 -45.52962,-12.77351 -59.8511,-30.34167 -2.50344,4.28156 -3.92762,9.27037 -3.92762,14.59581 0,10.07557 5.13067,18.96565 12.91511,24.16687 -4.75917,-0.15926 -9.23522,-1.46833 -13.15381,-3.64448 l 0,0.36241 c 0,14.06496 10.01358,25.80337 23.29115,28.47497 -2.43268,0.65471 -4.99789,1.01732 -7.65169,1.01732 -1.8752,0 -3.68867,-0.18544 -5.46674,-0.53935 3.69747,11.54392 14.41885,19.93853 27.12161,20.16873 -9.934,7.78448 -22.45981,12.41081 -36.06469,12.41081 -2.34409,0 -4.65302,-0.14151 -6.9263,-0.39777 12.85312,8.25333 28.11232,13.06547 44.51254,13.06547 53.42026,0 82.62064,-44.24725 82.62064,-82.62064 l -0.0974,-3.75942 c 5.70544,-4.06944 10.64136,-9.18227 14.52479,-15.00296 z"/></g></g></g></g></svg>