<svg xmlns="http://www.w3.org/2000/svg" xmlns:osb="http://www.openswatchbook.org/uri/2009/osb" xmlns:svg="http://www.w3.org/2000/svg" xmlns:xlink="http://www.w3.org/1999/xlink" id="svg5453" width="48" height="48" version="1.1"><defs id="defs5455"><linearGradient id="linearGradient8311-06"><stop id="stop8313-6" offset="0" stop-color="#a9a3d4" stop-opacity="1"/><stop id="stop4462" offset=".47" stop-color="#87baff" stop-opacity="1"/><stop id="stop8315-2" offset="1" stop-color="#89ec85" stop-opacity="1"/></linearGradient><linearGradient id="linearGradient4460" x1="0" x2="47" y1="23.5" y2="23.5" gradientUnits="userSpaceOnUse" xlink:href="#linearGradient8311-06"/><linearGradient id="linearGradient4915"><stop id="stop4917" offset="0" stop-color="#8645a3" stop-opacity="1"/><stop id="stop4919" offset="1" stop-color="#d164ff" stop-opacity="1"/></linearGradient><linearGradient id="linearGradient3687-2"><stop id="stop3689-6" offset="0" stop-color="#1a1a1a" stop-opacity="1"/><stop id="stop3691-8" offset=".111" stop-color="#2c2c2e" stop-opacity="1"/><stop id="stop3693-8" offset=".29" stop-color="#2b2b2d" stop-opacity="1"/><stop id="stop3695-4" offset=".512" stop-color="#2a2b2d" stop-opacity="1"/><stop id="stop3699-86" offset=".752" stop-color="#2b2b2d" stop-opacity="1"/><stop id="stop3701-8" offset=".897" stop-color="#323232" stop-opacity="1"/><stop id="stop3703-9" offset="1" stop-color="#171717" stop-opacity="1"/></linearGradient><linearGradient id="linearGradient4642"><stop id="stop4644" offset="0" stop-color="#0bac83" stop-opacity="1"/><stop id="stop4646" offset="1" stop-color="#13ffaf" stop-opacity="1"/></linearGradient><linearGradient id="linearGradient4179-7"><stop id="stop4181-2" offset="0" stop-color="#e8d800" stop-opacity="1"/><stop id="stop4183-1" offset="1" stop-color="#feff68" stop-opacity="1"/></linearGradient><linearGradient id="linearGradient4422"><stop id="stop4424" offset="0" stop-color="#ff9300" stop-opacity="1"/><stop id="stop4426" offset="1" stop-color="#ffd702" stop-opacity="1"/></linearGradient><linearGradient id="linearGradient8467-7"><stop id="stop8469-4" offset="0" stop-color="#3ec896" stop-opacity="1"/><stop id="stop8471-7" offset="1" stop-color="#66d9af" stop-opacity="1"/></linearGradient><linearGradient id="linearGradient5845"><stop id="stop5847" offset="0" stop-color="#974eb7" stop-opacity="1"/><stop id="stop5849" offset="1" stop-color="#d164ff" stop-opacity="1"/></linearGradient><linearGradient id="linearGradient4298"><stop id="stop4300" offset="0" stop-color="#ea3c53" stop-opacity="1"/><stop id="stop4302" offset="1" stop-color="#fc593d" stop-opacity="1"/></linearGradient><linearGradient id="linearGradient4232"><stop id="stop4234-0" offset="0" stop-color="#3889e9" stop-opacity="1"/><stop id="stop4236" offset="1" stop-color="#5ea5fb" stop-opacity="1"/></linearGradient><linearGradient id="linearGradient4290-1"><stop id="stop4292-9" offset="0" stop-color="#a5a5a5" stop-opacity="1"/><stop id="stop4294-1" offset="1" stop-color="#f5f2f5" stop-opacity="1"/></linearGradient><linearGradient id="linearGradient8311-06-5"><stop id="stop8313-6-2" offset="0" stop-color="#5fa3d4" stop-opacity="1"/><stop id="stop8315-2-7" offset="1" stop-color="#6bb9ff" stop-opacity="1"/></linearGradient><linearGradient id="linearGradient4207" osb:paint="gradient"><stop id="stop3371" offset="0" stop-color="#3498db" stop-opacity="1"/><stop id="stop3373" offset="1" stop-color="#3498db" stop-opacity="0"/></linearGradient><filter id="filter3831" color-interpolation-filters="sRGB"><feGaussianBlur id="feGaussianBlur3833" stdDeviation=".637"/></filter><clipPath id="clipPath3823"><path id="path3825" fill="#fff" d="m108.81 58c-1.56 0-2.81 1.254-2.81 2.812v24.375c0 1.559 1.25 2.813 2.81 2.813h24.375c1.57 0 2.82-1.254 2.82-2.812v-24.375c0-1.559-1.25-2.813-2.81-2.813h-24.375zm7.1875 4.5h10v8.75h5l-10 13.75-10-13.75h5v-8.75z"/></clipPath><linearGradient id="linearGradient3812" x1="65.263" x2="65.263" y1="64.205" y2="50.069" gradientTransform="matrix(0.625,0,0,0.625,78.5,32.25)" gradientUnits="userSpaceOnUse"><stop id="stop3683" offset="0"/><stop id="stop3685" offset="1" stop-opacity="0"/></linearGradient><filter id="filter3806" color-interpolation-filters="sRGB"><feGaussianBlur id="feGaussianBlur3808" stdDeviation="1.2"/></filter><linearGradient id="linearGradient3788" x1="70" x2="70" y1="54" y2="75.095" gradientTransform="translate(0,4)" gradientUnits="userSpaceOnUse" xlink:href="#linearGradient3737"/><linearGradient id="linearGradient3773" x1="56" x2="88" y1="72" y2="72" gradientTransform="matrix(0.9375,0,0,0.9375,-140.5,3.5)" gradientUnits="userSpaceOnUse"><stop id="stop3780" offset="0" stop-color="#499119"/><stop id="stop3782" offset="1" stop-color="#8fd625"/></linearGradient><linearGradient id="linearGradient3832" x1="65.263" x2="65.263" y1="64.205" y2="50.069" gradientTransform="matrix(0.625,0,0,0.625,28.5,31.25)" gradientUnits="userSpaceOnUse" xlink:href="#linearGradient3737"/><filter id="filter3174" color-interpolation-filters="sRGB"><feGaussianBlur id="feGaussianBlur3176" stdDeviation="1.71"/></filter><linearGradient id="linearGradient3737"><stop id="stop3739" offset="0" stop-color="#fff"/><stop id="stop3741" offset="1" stop-color="#fff" stop-opacity="0"/></linearGradient><linearGradient id="ButtonShadow" x1="45.448" x2="45.448" y1="92.54" y2="7.016" gradientTransform="scale(1.0059,0.99417)" gradientUnits="userSpaceOnUse"><stop id="stop3750" offset="0"/><stop id="stop3752" offset="1" stop-opacity=".588"/></linearGradient><linearGradient id="linearGradient4422-9"><stop id="stop4424-3" offset="0" stop-color="#2971c3" stop-opacity="1"/><stop id="stop4426-1" offset="1" stop-color="#83bbff" stop-opacity="1"/></linearGradient><linearGradient id="linearGradient5263-00"><stop id="stop5265-5" offset="0" stop-color="#fff" stop-opacity="0"/><stop id="stop5267-8" offset="1" stop-color="#d5edff" stop-opacity="1"/></linearGradient><linearGradient id="linearGradient4772" x1="209.555" x2="202.583" y1="385.206" y2=".063" gradientUnits="userSpaceOnUse" xlink:href="#linearGradient4915"/><linearGradient id="linearGradient4197-0" x1="10.094" x2="122.719" y1="107.361" y2="107.361" gradientTransform="matrix(0.24841536,0,0,0.24427878,433.38377,517.17091)" gradientUnits="userSpaceOnUse" xlink:href="#linearGradient3687-2"/><linearGradient id="linearGradient4998" x1="449.428" x2="449.549" y1="540.746" y2="518.407" gradientUnits="userSpaceOnUse" xlink:href="#linearGradient4992"/><linearGradient id="linearGradient4992"><stop id="stop4994" offset="0" stop-color="#b6b9bf" stop-opacity="1"/><stop id="stop4996" offset="1" stop-color="#dddfe2" stop-opacity="1"/></linearGradient><linearGradient id="linearGradient4735" x1="451.021" x2="451.021" y1="544.15" y2="543.088" gradientTransform="matrix(0.50539571,0,0,1,229.14839,2.1665552)" gradientUnits="userSpaceOnUse" xlink:href="#linearGradient4333-6"/><linearGradient id="linearGradient4333-6"><stop id="stop4335-0" offset="0" stop-color="#f4501b" stop-opacity="1"/><stop id="stop4337-9" offset="1" stop-color="#fdbc4b" stop-opacity="1"/></linearGradient><linearGradient id="linearGradient4963" x1="467.175" x2="467.175" y1="546.847" y2="544.724" gradientTransform="translate(0,0.10639487)" gradientUnits="userSpaceOnUse" xlink:href="#linearGradient4957"/><linearGradient id="linearGradient4957"><stop id="stop4959" offset="0" stop-color="#040404" stop-opacity="1"/><stop id="stop4961" offset="1" stop-color="#121212" stop-opacity=".908"/></linearGradient><linearGradient id="linearGradient4217" x1="12.24" x2="11.398" y1="75.629" y2="10.649" gradientTransform="translate(58.097166,6.0728745)" gradientUnits="userSpaceOnUse" xlink:href="#linearGradient4333-6"/></defs><metadata id="metadata5458"/><g id="layer1" transform="translate(-384.57143,-499.798)"><g id="layer1-4" transform="translate(392.24401,-502.51656)"><g id="g4413" stroke-dasharray="none" stroke-miterlimit="4" stroke-width="1.317" transform="matrix(1.138587,0,0,1.138587,-3.4562036,-142.80276)"><g id="g4312" transform="matrix(1.0539376,0,0,1.0539376,-0.91298719,-55.411661)"><g id="g3546" fill="url(#linearGradient4772)" fill-opacity="1" transform="matrix(0.30527986,0,0,0.30527988,-4.1989944,1002.5611)"><path id="rect3001-6" fill="url(#linearGradient4197-0)" fill-opacity="1" stroke="none" d="m 435.89128,541.07281 0.24841,3.91531 c 0,0.40601 0.33238,0.73288 0.74525,0.73288 l 25.99045,0 c 0.41287,0 0.74526,-0.32687 0.74526,-0.73288 l 0.24841,-3.91531 -27.97778,0 z" transform="matrix(3.9022183,0,0,3.9022181,-1684.9414,-1984.799)"/><path id="path3778-6" fill="url(#linearGradient4998)" fill-opacity="1" stroke="none" d="m 438.12877,518.12187 23.25963,0 c 0.41287,0 0.74526,0.32687 0.74526,0.73287 l 1.739,22.0998 c 0,0.406 -0.33237,0.73288 -0.74524,0.73288 l -26.48903,0 c -0.41287,0 -0.74524,-0.32688 -0.74524,-0.73288 l 1.49038,-22.09974 c 0,-0.406 0.33238,-0.73293 0.74524,-0.73293 z" transform="matrix(3.9022183,0,0,3.9022181,-1684.9414,-1984.799)"/><rect id="rect4727-3" width="11.463" height=".769" x="450.873" y="545.613" fill="url(#linearGradient4735)" fill-opacity="1" stroke="none" stroke-dasharray="none" stroke-linecap="round" stroke-linejoin="round" stroke-miterlimit="4" stroke-opacity="1" stroke-width=".2" opacity="1" ry=".384" transform="matrix(3.9022183,0,0,3.9022181,-1711.0067,-1993.0462)"/><ellipse id="path4955" cx="467.089" cy="546.024" fill="url(#linearGradient4963)" fill-opacity="1" stroke="none" stroke-dasharray="none" stroke-linecap="round" stroke-linejoin="round" stroke-miterlimit="4" stroke-opacity="1" stroke-width="1.7" opacity=".452" rx="1.061" ry="1.061" transform="matrix(3.9022183,0,0,3.9022181,-1711.0067,-1993.0462)"/><path id="path955" fill="#e3e8ea" fill-opacity="1" d="m 63,73.215 c 2.824,0 5.27,-1.031 7.332,-3.096 2.064,-2.063 3.098,-4.508 3.098,-7.332 l 0,-52.144 C 73.43,7.818 72.397,5.374 70.332,3.311 68.27,1.246 65.825,0.214 63,0.214 c -2.825,0 -5.269,1.033 -7.333,3.097 -2.064,2.063 -3.096,4.508 -3.096,7.332 l 0,52.144 c 0,2.824 1.032,5.269 3.096,7.332 2.064,2.065 4.509,3.096 7.333,3.096 l 0,0 z" opacity=".668" transform="matrix(0.03309317,0,0,0.03309317,109.58391,135.34516)"/><path id="path957" fill="#e3e8ea" fill-opacity="1" d="M 119.014,45.269 C 114.641,36.525 108.491,29.192 100.561,23.272 98.28,21.534 95.7,20.855 92.821,21.235 c -2.879,0.38 -5.16,1.738 -6.844,4.073 -1.738,2.281 -2.403,4.847 -1.996,7.699 0.406,2.853 1.752,5.147 4.033,6.885 5.321,4.019 9.438,8.935 12.342,14.747 2.906,5.811 4.358,12.004 4.358,18.575 0,5.65 -1.1,11.04 -3.299,16.173 -2.2,5.133 -5.174,9.573 -8.922,13.321 -3.748,3.747 -8.187,6.721 -13.32,8.921 -5.133,2.2 -10.524,3.301 -16.173,3.301 -5.648,0 -11.039,-1.101 -16.172,-3.301 -5.133,-2.2 -9.573,-5.174 -13.321,-8.921 -3.747,-3.748 -6.721,-8.188 -8.921,-13.321 -2.2,-5.133 -3.3,-10.523 -3.3,-16.173 0,-6.571 1.453,-12.763 4.359,-18.575 2.906,-5.811 7.02,-10.727 12.343,-14.747 2.281,-1.739 3.625,-4.033 4.033,-6.885 0.407,-2.851 -0.258,-5.418 -1.996,-7.699 -1.684,-2.335 -3.951,-3.693 -6.803,-4.073 -2.852,-0.38 -5.446,0.299 -7.781,2.037 -7.931,5.92 -14.081,13.253 -18.454,21.997 -4.373,8.745 -6.559,18.06 -6.559,27.945 0,8.474 1.657,16.566 4.97,24.279 3.314,7.713 7.767,14.366 13.362,19.961 5.594,5.594 12.248,10.049 19.961,13.36 7.713,3.314 15.806,4.972 24.279,4.972 8.473,0 16.566,-1.658 24.279,-4.972 7.713,-3.312 14.367,-7.766 19.961,-13.36 5.594,-5.594 10.047,-12.248 13.361,-19.961 3.313,-7.713 4.969,-15.806 4.969,-24.279 0,-9.885 -2.183,-19.2 -6.556,-27.945 l 0,0 z" opacity=".668" transform="matrix(0.03309317,0,0,0.03309317,109.58391,135.34516)"/><path id="circle-of-friends" fill="#a1a7ae" fill-opacity="1" fill-rule="nonzero" stroke="#909296" stroke-dasharray="none" stroke-miterlimit="4" stroke-opacity="1" stroke-width=".347" d="m 87.396176,68.393389 c 3.466325,1.679853 7.897508,0.683406 9.897921,-2.22451 2.00145,-2.909133 0.815175,-6.627366 -2.65155,-8.306932 -3.465972,-1.678969 -7.896808,-0.682853 -9.89825,2.226268 -2.000744,2.90796 -0.813725,6.626194 2.651879,8.305174 z M 72.562891,107.72161 c -3.187069,0 -6.207343,-0.59456 -8.918426,-1.65297 l -5.036007,7.57323 c 4.206586,1.74793 8.942455,2.73556 13.954433,2.73556 2.914766,0 5.733096,-0.33894 8.411458,-0.96127 0.473892,-2.4428 2.202361,-4.69418 4.957997,-6.02953 2.750772,-1.33272 5.93436,-1.46479 8.69002,-0.59082 5.359126,-4.42215 8.846344,-10.438511 9.354014,-17.138637 L 93.647048,91.530965 C 92.696494,100.60667 83.623436,107.72169 72.562891,107.72169 Z m 0,-35.533136 c 11.060545,0 20.133578,7.116503 21.084157,16.191045 L 103.97638,88.252966 C 103.46796,81.55343 99.980792,75.53705 94.620968,71.115212 91.865664,71.988544 88.682433,71.856248 85.931305,70.523175 83.176,69.188409 81.447886,66.937309 80.974007,64.494237 c -2.67802,-0.621791 -5.49635,-0.961061 -8.411116,-0.961061 -5.011978,0 -9.747478,0.987387 -13.953748,2.735858 l 5.035666,7.572339 c 2.710739,-1.058293 5.731013,-1.65297 8.918082,-1.65297 z m -21.17121,17.766575 c 0,-6.010821 3.559642,-11.319787 9.002338,-14.534572 l -5.298538,-7.448736 c -6.342459,3.556356 -11.060896,8.992425 -13.020563,15.360031 2.289407,1.565886 3.752184,3.950536 3.752184,6.623858 0,2.673041 -1.463129,5.057669 -3.752549,6.623269 1.959328,6.367901 6.677784,11.803971 13.020573,15.360321 l 5.298893,-7.44904 C 54.951323,101.27571 51.391681,95.966749 51.391681,89.955049 Z M 87.39723,111.51642 c -3.466683,1.67953 -4.653677,5.39748 -2.65259,8.30544 2.001454,2.90915 6.431935,3.90584 9.898607,2.22628 3.465625,-1.67928 4.653,-5.39751 2.651551,-8.30635 -2.000772,-2.90768 -6.431953,-3.90437 -9.897568,-2.22537 z M 35.648907,83.873804 c -4.00361,0 -7.247787,2.722119 -7.247787,6.081826 0,3.358826 3.244177,6.081249 7.247787,6.081249 4.002202,0 7.246708,-2.722423 7.246708,-6.081249 0,-3.359707 -3.244506,-6.081826 -7.246708,-6.081826" transform="matrix(0.87071239,0,0,0.8707124,8.9908022,3.5848867)"/><path id="path4836-7-8-2" fill="#f66926" fill-opacity="1" fill-rule="evenodd" stroke="none" stroke-linecap="butt" stroke-linejoin="miter" stroke-opacity="1" stroke-width="67.685" d="m 3002.1818,-2197.0995 39.3048,-129.1575 c 14.1356,-55.5677 27.6067,-44.3228 83.7808,-44.3228 l 1023.7081,0 205.7436,238.2305 -1282.836,10.121 c -84.7668,1.0471 -98.712,20.4591 -69.7013,-74.8712 z" transform="matrix(0.01621738,0,0,0.01399082,-5.3364069,84.10625)"/><path id="path4836-7-6" fill="#f66926" fill-opacity="1" fill-rule="evenodd" stroke="none" stroke-linecap="butt" stroke-linejoin="miter" stroke-opacity="1" stroke-width="67.685" d="m 6383.4495,-2185.7915 -34.2791,-112.6428 c -15.6733,-76.792 -25.9295,-72.1455 -99.058,-72.1455 l -1016.8978,0 -205.7436,238.2304 1274.6062,10.0561 c 77.2452,-3.1881 109.8966,30.2339 81.3723,-63.4982 z" transform="matrix(0.01621738,0,0,0.01399082,-5.3364069,84.10625)"/><path id="path4836-7-2-9" fill="#ff7927" fill-opacity="1" fill-rule="evenodd" stroke="none" stroke-linecap="butt" stroke-linejoin="miter" stroke-opacity="1" stroke-width="67.685" d="m 3963.8055,-4807.7305 34.554,-106.6029 c 15.6733,-76.792 25.9295,-72.1455 99.058,-72.1455 l 1016.8978,0.036 205.7436,238.2276 -1318.0111,-3e-4 c -61.5899,3.1273 -58.9883,4.4886 -38.2423,-59.5149 z" transform="matrix(0.01621738,0,0,0.01399082,-5.3364069,84.10625)"/><path id="path4836-7-2-9-3" fill="#ff7927" fill-opacity="1" fill-rule="evenodd" stroke="none" stroke-linecap="butt" stroke-linejoin="miter" stroke-opacity="1" stroke-width="67.685" d="m 5444.5468,-4805.8007 -34.554,-106.6029 c -15.6733,-76.792 -25.9295,-72.1455 -99.058,-72.1455 l -1016.8978,0.036 -205.7436,238.2276 1318.0111,-3e-4 c 61.5899,3.1273 58.9883,4.4886 38.2423,-59.5149 z" transform="matrix(0.01621738,0,0,0.01399082,-5.3364069,84.10625)"/><path id="path7-8" fill="url(#linearGradient4217)" fill-opacity="1" d="M 69.2374,82.349706 44.427208,56.865171 c 0,0 -3.680059,-3.794297 0.818804,-3.794297 l 13.480205,0 0,-4.416371 0,-29.916957 C 58.638497,16.961261 58.736757,16.812024 60.464,16.821 l 21.003,0 c 1.493491,-0.165868 1.842105,0.04934 1.84128,1.631126 l 0,29.986478 0,4.632248 12.90441,-2.7e-5 c 4.15825,-9e-6 1.226724,3.172303 1.226724,3.172303 0,0 -21.108465,23.819718 -24.052633,26.318775 C 71.269048,84.373102 69.2374,82.349706 69.2374,82.349706 Z"/></g></g></g></g></g></svg>