<svg xmlns="http://www.w3.org/2000/svg" xmlns:osb="http://www.openswatchbook.org/uri/2009/osb" xmlns:svg="http://www.w3.org/2000/svg" xmlns:xlink="http://www.w3.org/1999/xlink" id="svg5453" width="48" height="48" version="1.1"><defs id="defs5455"><linearGradient id="linearGradient5172"><stop id="stop5174" offset="0" stop-color="#d71e53" stop-opacity="1"/><stop id="stop5176" offset="1" stop-color="#ff7099" stop-opacity="1"/></linearGradient><linearGradient id="linearGradient4232"><stop id="stop4234-0" offset="0" stop-color="#3889e9" stop-opacity="1"/><stop id="stop4236" offset="1" stop-color="#5ea5fb" stop-opacity="1"/></linearGradient><linearGradient id="linearGradient3426" x1="399.571" x2="399.571" y1="545.798" y2="517.798" gradientUnits="userSpaceOnUse" xlink:href="#linearGradient4232"/><linearGradient id="linearGradient4181" x1="399.994" x2="399.994" y1="545.139" y2="518.139" gradientUnits="userSpaceOnUse" xlink:href="#linearGradient5172"/><style id="current-color-scheme" type="text/css"/><style id="current-color-scheme-8" type="text/css"/><style id="current-color-scheme-7" type="text/css"/><linearGradient id="linearGradient4207" osb:paint="gradient"><stop id="stop3371" offset="0" stop-color="#3498db" stop-opacity="1"/><stop id="stop3373" offset="1" stop-color="#3498db" stop-opacity="0"/></linearGradient><linearGradient id="linearGradient8311-06"><stop id="stop8313-6" offset="0" stop-color="#a9a3d4" stop-opacity="1"/><stop id="stop4462" offset=".47" stop-color="#87baff" stop-opacity="1"/><stop id="stop8315-2" offset="1" stop-color="#89ec85" stop-opacity="1"/></linearGradient><linearGradient id="linearGradient4460" x1="0" x2="47" y1="23.5" y2="23.5" gradientUnits="userSpaceOnUse" xlink:href="#linearGradient8311-06"/></defs><metadata id="metadata5458"/><g id="layer1" transform="translate(-384.57143,-499.798)"><g id="g4471" transform="matrix(1.0931221,0,0,1.0931221,33.310366,-50.486049)"><g id="layer1-2" fill="#e9afaf" fill-opacity="1" transform="matrix(0.91481089,0,0,0.91481089,-162.89312,-245.51061)"><g id="layer1-6" fill="#e9afaf" fill-opacity="1" transform="translate(-120.10595,41.912995)"><g id="g4187" transform="matrix(1.0320907,0,0,1.0320907,-21.872096,-25.847676)"><g id="g4320" stroke="none" transform="matrix(1.0754341,0,0,1.0754341,304.25137,235.63669)"><g id="layer1-3" stroke="none" stroke-dasharray="none" stroke-miterlimit="4" stroke-opacity="1" stroke-width="1.3" transform="matrix(1.5444819,0,0,1.5444819,-275.17538,-295.73877)"><circle id="path3377" cx="400.571" cy="531.798" r="14" fill="url(#linearGradient4181)" fill-opacity="1" stroke="none" stroke-dasharray="none" stroke-dashoffset="0" stroke-miterlimit="4" stroke-opacity="1" stroke-width=".941" opacity="1"/><circle id="ellipse4233" cx="400.571" cy="531.798" r="0" fill="url(#linearGradient3426)" fill-opacity="1" stroke="none" stroke-dasharray="none" stroke-dashoffset="0" stroke-miterlimit="4" stroke-opacity="1" stroke-width="1.3" opacity="1"/></g></g></g><g id="layer1-48" transform="translate(264.85765,276.94613)"><g id="layer1-4" transform="translate(392.24401,-502.51656)"><g id="g4413" stroke-dasharray="none" stroke-miterlimit="4" stroke-width="1.317" transform="matrix(1.138587,0,0,1.138587,-3.4562036,-142.80276)"><g id="g4312" transform="matrix(1.0539376,0,0,1.0539376,-0.91298719,-55.411661)"><g id="layer1-0" transform="matrix(0.83333358,0,0,0.83333358,-408.28112,587.90224)"><g id="Settings" fill="#fff" fill-opacity=".847" transform="matrix(0.11906321,0,0,0.11906321,494.7604,510.72581)"><g id="g4" fill="#fff" fill-opacity=".847"><path id="path6" fill="#fff" fill-opacity=".847" fill-rule="evenodd" d="m 267.92,119.461 c -0.425,-3.778 -4.83,-6.617 -8.639,-6.617 -12.315,0 -23.243,-7.231 -27.826,-18.414 -4.682,-11.454 -1.663,-24.812 7.515,-33.231 2.889,-2.641 3.24,-7.062 0.817,-10.133 -6.303,-8.004 -13.467,-15.234 -21.289,-21.5 -3.063,-2.458 -7.557,-2.116 -10.213,0.825 -8.01,8.871 -22.398,12.168 -33.516,7.529 -11.57,-4.867 -18.866,-16.591 -18.152,-29.176 0.235,-3.953 -2.654,-7.39 -6.595,-7.849 -10.038,-1.161 -20.164,-1.197 -30.232,-0.08 -3.896,0.43 -6.785,3.786 -6.654,7.689 0.438,12.461 -6.946,23.98 -18.401,28.672 -10.985,4.487 -25.272,1.218 -33.266,-7.574 -2.642,-2.896 -7.063,-3.252 -10.141,-0.853 -8.054,6.319 -15.379,13.555 -21.74,21.493 -2.481,3.086 -2.116,7.559 0.802,10.214 9.353,8.47 12.373,21.944 7.514,33.53 -4.639,11.046 -16.109,18.165 -29.24,18.165 -4.261,-0.137 -7.296,2.723 -7.762,6.597 -1.182,10.096 -1.196,20.383 -0.058,30.561 0.422,3.794 4.961,6.608 8.812,6.608 11.702,-0.299 22.937,6.946 27.65,18.415 4.698,11.454 1.678,24.804 -7.514,33.23 -2.875,2.641 -3.24,7.055 -0.817,10.126 6.244,7.953 13.409,15.19 21.259,21.508 3.079,2.481 7.559,2.131 10.228,-0.81 8.04,-8.893 22.427,-12.184 33.501,-7.536 11.599,4.852 18.895,16.575 18.181,29.167 -0.233,3.955 2.67,7.398 6.595,7.85 5.135,0.599 10.301,0.898 15.481,0.898 4.917,0 9.835,-0.27 14.752,-0.817 3.897,-0.43 6.784,-3.786 6.653,-7.696 -0.451,-12.454 6.946,-23.973 18.386,-28.657 11.059,-4.517 25.286,-1.211 33.281,7.572 2.657,2.89 7.047,3.239 10.142,0.848 8.039,-6.304 15.349,-13.534 21.74,-21.494 2.48,-3.079 2.13,-7.559 -0.803,-10.213 -9.353,-8.47 -12.388,-21.946 -7.529,-33.524 4.568,-10.899 15.612,-18.217 27.491,-18.217 l 1.662,0.043 c 3.853,0.313 7.398,-2.655 7.865,-6.588 1.184,-10.105 1.198,-20.383 0.06,-30.561 z" clip-rule="evenodd"/></g></g></g></g></g></g></g><path id="rect4244" fill="#ec4978" fill-opacity="1" d="m 677.72327,791.84776 c -0.0823,-0.006 -0.1634,-0.004 -0.2433,8.1e-4 -0.53273,0.0376 -1.02607,0.33276 -1.31338,0.83028 -0.45802,0.7952 -0.18384,1.80562 0.613,2.26532 0.7952,0.458 1.8073,0.19178 2.26531,-0.60593 0.45964,-0.79271 0.1964,-1.82188 -0.5988,-2.28067 -0.22411,-0.1289 -0.47598,-0.19478 -0.72281,-0.21023 z m -4.3641,1.76219 c -1.14955,0 -2.22467,0.27154 -3.18889,0.74997 l 1.15512,2.08577 c 0.62213,-0.2905 1.30394,-0.4618 2.03384,-0.4618 2.54076,0 4.63778,1.94421 4.85657,4.43025 l 2.35862,-0.0295 c -0.11758,-1.83209 -0.91916,-3.48013 -2.14957,-4.6901 -0.63356,0.23766 -1.35311,0.20123 -1.9842,-0.16535 -0.63106,-0.36494 -1.0303,-0.97491 -1.13975,-1.64524 -0.6156,-0.16902 -1.27304,-0.274 -1.94167,-0.274 z m -4.00386,1.21886 c -1.4565,0.97238 -2.52915,2.46469 -2.97985,4.20699 0.52743,0.42862 0.84449,1.0695 0.84449,1.8035 0,0.72904 -0.31624,1.39374 -0.84449,1.82478 0.4507,1.74145 1.52335,3.22753 2.97985,4.19991 l 1.2185,-2.04937 c -1.24994,-0.87846 -2.06334,-2.33122 -2.06334,-3.9755 0,-1.64597 0.8134,-3.09698 2.06334,-3.97551 z m -4.46683,4.3511 c -0.92013,0 -1.6594,0.73926 -1.6594,1.65939 0,0.91686 0.73927,1.6594 1.6594,1.6594 0.92091,0 1.66767,-0.74254 1.66767,-1.6594 0,-0.92013 -0.74676,-1.65939 -1.66767,-1.65939 z m 13.32727,2.09998 c -0.21881,2.48198 -2.31581,4.43025 -4.85658,4.43025 -0.73072,0 -1.4117,-0.16403 -2.03383,-0.45471 l -1.15512,2.07041 c 0.96422,0.48008 2.0394,0.74289 3.18889,0.74289 0.6687,0 1.32608,-0.0893 1.94167,-0.25984 0.10941,-0.66947 0.50784,-1.27751 1.13978,-1.64409 0.63276,-0.36489 1.35068,-0.40031 1.98418,-0.15944 1.2304,-1.21161 2.03189,-2.85637 2.14957,-4.6901 z m -0.72875,5.24516 c -0.24077,0.0205 -0.48381,0.1006 -0.70745,0.23032 -0.79677,0.45643 -1.071,1.46466 -0.613,2.25823 0.45968,0.79768 1.48348,1.06508 2.27947,0.60708 0.79617,-0.45887 1.05843,-1.47127 0.59881,-2.26647 -0.28729,-0.4975 -0.78764,-0.79163 -1.32046,-0.82912 -0.08,-0.007 -0.15721,-0.007 -0.23739,0 z"/></g></g></g></g><style id="style26" type="text/css"/><style id="style26-7" type="text/css"/><style id="style26-9" type="text/css"/></svg>