<svg xmlns="http://www.w3.org/2000/svg" xmlns:osb="http://www.openswatchbook.org/uri/2009/osb" xmlns:svg="http://www.w3.org/2000/svg" xmlns:xlink="http://www.w3.org/1999/xlink" id="svg5453" width="48" height="48" version="1.1"><defs id="defs5455"><linearGradient id="linearGradient5441"><stop id="stop5443" offset="0" stop-color="#00be9a" stop-opacity=".996"/><stop id="stop5445" offset="1" stop-color="#00ffa9" stop-opacity=".992"/></linearGradient><linearGradient id="linearGradient4271"><stop id="stop4273" offset="0" stop-color="#2a2c2f" stop-opacity="1"/><stop id="stop4275" offset="1" stop-color="#424649" stop-opacity="1"/></linearGradient><linearGradient id="linearGradient4479" x1="26.253" x2="25.869" y1="57.572" y2="22.929" gradientTransform="matrix(1.0539547,0,0,0.98899237,332.37153,497.72133)" gradientUnits="userSpaceOnUse" xlink:href="#linearGradient5441"/><linearGradient id="linearGradient4222" x1="409.571" x2="409.571" y1="542.798" y2="507.798" gradientTransform="matrix(1.0523327,0,0,1.0276135,-21.151387,-14.039869)" gradientUnits="userSpaceOnUse" xlink:href="#linearGradient4271"/><linearGradient id="linearGradient4207" osb:paint="gradient"><stop id="stop3371" offset="0" stop-color="#3498db" stop-opacity="1"/><stop id="stop3373" offset="1" stop-color="#3498db" stop-opacity="0"/></linearGradient></defs><metadata id="metadata5458"/><g id="layer1" transform="translate(-384.57143,-499.798)"><g id="g5516" transform="translate(50.899617,0.39993875)"><g id="g4968" transform="matrix(1.0348035,0,0,1.0348035,-12.29765,-18.384485)"><rect id="rect4195" width="46.303" height="34.939" x="385.65" y="507.78" fill="url(#linearGradient4222)" fill-opacity="1" stroke="none" stroke-dasharray="none" stroke-linecap="round" stroke-linejoin="round" stroke-miterlimit="4" stroke-opacity="1" stroke-width=".2" opacity="1" ry="1.644" transform="translate(-51.13425,-1.51364)"/><g id="g4247" fill="#0fce8e" fill-opacity="1" transform="matrix(0.83317883,0,0,0.83317883,66.13874,77.72604)"><circle id="path4224" cx="373.366" cy="518.737" r="2.25" fill="#0fce8e" fill-opacity="1" stroke="none" stroke-dasharray="none" stroke-linecap="round" stroke-linejoin="round" stroke-miterlimit="4" stroke-opacity="1" stroke-width=".2" opacity="1"/><circle id="path4224-4" cx="367.839" cy="518.785" r="2.25" fill="#0fce8e" fill-opacity="1" stroke="none" stroke-dasharray="none" stroke-linecap="round" stroke-linejoin="round" stroke-miterlimit="4" stroke-opacity="1" stroke-width=".2" opacity="1"/><circle id="path4224-8" cx="362.405" cy="518.838" r="2.25" fill="#0fce8e" fill-opacity="1" stroke="none" stroke-dasharray="none" stroke-linecap="round" stroke-linejoin="round" stroke-miterlimit="4" stroke-opacity="1" stroke-width=".2" opacity="1"/></g><path id="path4468" fill="url(#linearGradient4479)" fill-opacity="1" fill-rule="evenodd" stroke="none" stroke-linecap="butt" stroke-linejoin="miter" stroke-opacity="1" stroke-width="1" d="m 357.66644,527.39112 c -5.26978,-2.967 -5.26978,-12.85691 -12.64747,-11.86792 -5.94343,0.79672 -5.05146,8.00967 -10.53954,11.30192 l 0,12.78843 c -0.19148,1.94114 2.04742,1.62345 2.04742,1.62345 l 41.73443,0 c 0,0 2.59215,0.56287 2.59215,-1.43602 l 0,-9.949 c -1.72087,0.14697 -3.16186,1.49508 -5.26977,-0.48289 -8.43163,-9.88993 -10.97612,1.07606 -17.91722,-1.97797 z" opacity=".748"/></g></g></g></svg>