<svg xmlns="http://www.w3.org/2000/svg" xmlns:osb="http://www.openswatchbook.org/uri/2009/osb" xmlns:svg="http://www.w3.org/2000/svg" xmlns:xlink="http://www.w3.org/1999/xlink" id="svg5453" width="48" height="48" version="1.1"><defs id="defs5455"><linearGradient id="linearGradient4227"><stop id="stop4229" offset="0" stop-color="#2e3436" stop-opacity="1"/><stop id="stop4231" offset="1" stop-color="#555753" stop-opacity="1"/></linearGradient><linearGradient id="linearGradient4222" x1="409.571" x2="409.571" y1="542.798" y2="507.798" gradientTransform="matrix(1.0523327,0,0,1.0276135,-21.151387,-14.039869)" gradientUnits="userSpaceOnUse" xlink:href="#linearGradient4227"/><linearGradient id="linearGradient4207" osb:paint="gradient"><stop id="stop3371" offset="0" stop-color="#3498db" stop-opacity="1"/><stop id="stop3373" offset="1" stop-color="#3498db" stop-opacity="0"/></linearGradient></defs><metadata id="metadata5458"/><g id="layer1" transform="translate(-384.57143,-499.798)"><g id="g4403" transform="translate(51.385479,-6.0099446)"><g id="g4263" transform="matrix(1.036658,0,0,1.036658,-13.048352,-20.094982)"><rect id="rect4195" width="46.303" height="34.939" x="385.65" y="507.78" fill="url(#linearGradient4222)" fill-opacity="1" stroke="none" stroke-dasharray="none" stroke-linecap="round" stroke-linejoin="round" stroke-miterlimit="4" stroke-opacity="1" stroke-width=".2" opacity="1" ry="1.644" transform="translate(-51.52544,5.45582)"/><g id="g4247" fill="#fff" fill-opacity="1" transform="matrix(0.83317883,0,0,0.83317883,65.74755,84.6955)"><circle id="path4224" cx="373.366" cy="518.737" r="2.25" fill="#fff" fill-opacity="1" stroke="none" stroke-dasharray="none" stroke-linecap="round" stroke-linejoin="round" stroke-miterlimit="4" stroke-opacity="1" stroke-width=".2" opacity="1"/><circle id="path4224-4" cx="367.839" cy="518.785" r="2.25" fill="#fff" fill-opacity="1" stroke="none" stroke-dasharray="none" stroke-linecap="round" stroke-linejoin="round" stroke-miterlimit="4" stroke-opacity="1" stroke-width=".2" opacity="1"/><circle id="path4224-8" cx="362.405" cy="518.838" r="2.25" fill="#fff" fill-opacity="1" stroke="none" stroke-dasharray="none" stroke-linecap="round" stroke-linejoin="round" stroke-miterlimit="4" stroke-opacity="1" stroke-width=".2" opacity="1"/></g><g id="g4366" transform="matrix(0.88017136,0,0,0.88017136,-2.0470071,70.508765)"><circle id="circle4702-8" cx="395.071" cy="533.298" r="3.5" fill="#eff0f1" fill-opacity="1" fill-rule="nonzero" stroke="none" stroke-dasharray="none" stroke-linecap="round" stroke-linejoin="round" stroke-miterlimit="4" stroke-opacity="1" stroke-width="3" color="#000" display="inline" enable-background="accumulate" opacity="1" overflow="visible" visibility="visible" style="marker:none"/><circle id="path4524-6-4" cx="395.071" cy="533.298" r="2.5" fill="#3daefd" fill-opacity="1" fill-rule="nonzero" stroke="none" stroke-dasharray="none" stroke-linecap="round" stroke-linejoin="round" stroke-miterlimit="4" stroke-opacity="1" stroke-width="3" color="#000" display="inline" enable-background="accumulate" opacity="1" overflow="visible" visibility="visible" style="marker:none"/><circle id="circle4702" cx="395.071" cy="524.298" r="3.5" fill="#eff0f1" fill-opacity="1" fill-rule="nonzero" stroke="none" stroke-dasharray="none" stroke-linecap="round" stroke-linejoin="round" stroke-miterlimit="4" stroke-opacity="1" stroke-width="3" color="#000" display="inline" enable-background="accumulate" opacity="1" overflow="visible" visibility="visible" style="marker:none"/><circle id="path4524-6-4-3" cx="395.071" cy="524.298" r="2.5" fill="#3daefd" fill-opacity="1" fill-rule="nonzero" stroke="none" stroke-dasharray="none" stroke-linecap="round" stroke-linejoin="round" stroke-miterlimit="4" stroke-opacity="1" stroke-width="3" color="#000" display="inline" enable-background="accumulate" opacity="1" overflow="visible" visibility="visible" style="marker:none"/><rect id="rect4152" width="2" height="1" x="399.571" y="513.798" fill="#da4453" fill-opacity="1" stroke="none" opacity="1"/><rect id="rect4154" width="3" height="1" x="402.571" y="513.798" fill="#da4453" fill-opacity="1" stroke="none" opacity="1"/><rect id="rect4156" width="3" height="1" x="408.571" y="513.798" fill="#e5fdff" fill-opacity="1" stroke="none" opacity="1"/><rect id="rect4158" width="6" height="1" x="413.571" y="513.798" fill="#e5fdff" fill-opacity="1" stroke="none" opacity="1"/><rect id="rect4160" width="4" height="1" x="420.571" y="513.798" fill="#e5fdff" fill-opacity="1" stroke="none" opacity="1"/><rect id="rect4164" width="4" height="1" x="399.571" y="515.798" fill="#bdc3c7" fill-opacity="1" stroke="none" opacity="1"/><rect id="rect4166" width="2" height="1" x="404.571" y="515.798" fill="#bdc3c7" fill-opacity="1" stroke="none" opacity="1"/><rect id="rect4168" width="8" height="1" x="408.571" y="515.798" fill="#e5fdff" fill-opacity="1" stroke="none" opacity="1"/><rect id="rect4174" width="2" height="1" x="399.571" y="522.798" fill="#3daefd" fill-opacity="1" stroke="none" opacity="1"/><rect id="rect4176" width="3" height="1" x="402.571" y="522.798" fill="#3daefd" fill-opacity="1" stroke="none" opacity="1"/><rect id="rect4178" width="4" height="1" x="408.571" y="522.798" fill="#e5fdff" fill-opacity="1" stroke="none" opacity="1"/><rect id="rect4180" width="4" height="1" x="414.571" y="522.798" fill="#e5fdff" fill-opacity="1" stroke="none" opacity="1"/><rect id="rect4182" width="5" height="1" x="419.571" y="522.798" fill="#e5fdff" fill-opacity="1" stroke="none" opacity="1"/><rect id="rect4186" width="3" height="1" x="399.571" y="524.798" fill="#bdc3c7" fill-opacity="1" stroke="none" opacity="1"/><rect id="rect4190" width="3" height="1" x="408.571" y="524.798" fill="#e5fdff" fill-opacity="1" stroke="none" opacity="1"/><rect id="rect4192" width="1" height="1" x="412.571" y="524.798" fill="#e5fdff" fill-opacity="1" stroke="none" opacity="1"/><rect id="rect4194" width="5" height="1" x="414.571" y="524.798" fill="#e5fdff" fill-opacity="1" stroke="none" opacity="1"/><rect id="rect4166-3" width="2" height="1" x="-419.571" y="533.798" fill="#e5fdff" fill-opacity="1" stroke="none" opacity="1" transform="scale(-1,1)"/><rect id="rect4168-3" width="8" height="1" x="-416.571" y="533.798" fill="#e5fdff" fill-opacity="1" stroke="none" opacity="1" transform="scale(-1,1)"/><rect id="rect4170-5" width="7" height="1" x="-406.571" y="533.798" fill="#bdc3c7" fill-opacity="1" stroke="none" opacity="1" transform="scale(-1,1)"/><rect id="rect4174-4" width="2" height="1" x="-424.571" y="531.798" fill="#e5fdff" fill-opacity="1" stroke="none" opacity="1" transform="scale(-1,1)"/><rect id="rect4176-1" width="3" height="1" x="-421.571" y="531.798" fill="#e5fdff" fill-opacity="1" stroke="none" opacity="1" transform="scale(-1,1)"/><rect id="rect4178-9" width="9" height="1" x="-417.571" y="531.798" fill="#e5fdff" fill-opacity="1" stroke="none" opacity="1" transform="scale(-1,1)"/><rect id="rect4182-9" width="5" height="1" x="-404.571" y="531.798" fill="#3daefd" fill-opacity="1" stroke="none" opacity="1" transform="scale(-1,1)"/><path display="inline" style="line-height:normal;text-indent:0;text-align:start;text-decoration-line:none;text-decoration-style:solid;text-decoration-color:#000;text-transform:none;block-progression:tb;white-space:normal;isolation:auto;mix-blend-mode:normal;solid-color:#000;solid-opacity:1" id="path4691-2" fill="#eff0f1" fill-opacity="1" fill-rule="evenodd" stroke="none" stroke-dasharray="none" stroke-dashoffset="0" stroke-linecap="butt" stroke-linejoin="miter" stroke-miterlimit="4" stroke-opacity="1" stroke-width="2" d="m 395.07227,511.7207 -3.50084,1.4668 c 0,0 0.41627,1.90215 0.86682,3.00391 0.22527,0.55088 0.50035,1.12129 0.88919,1.61718 0.38884,0.4959 0.96497,0.99024 1.74483,0.99024 0.77985,0 1.35412,-0.49434 1.74296,-0.99024 0.38883,-0.49589 0.66392,-1.0663 0.88919,-1.61718 0.45055,-1.10176 0.86868,-3.00391 0.86868,-3.00391 z" baseline-shift="baseline" clip-rule="nonzero" color="#000" color-interpolation="sRGB" color-interpolation-filters="linearRGB" color-rendering="auto" direction="ltr" enable-background="accumulate" font-family="sans-serif" font-size="medium" font-stretch="normal" font-style="normal" font-variant="normal" font-weight="normal" image-rendering="auto" letter-spacing="normal" opacity="1" overflow="visible" shape-rendering="auto" text-anchor="start" text-decoration="none" text-rendering="auto" visibility="visible" word-spacing="normal" writing-mode="lr-tb"/><path id="path4691" fill="#da4453" fill-opacity="1" fill-rule="evenodd" stroke="none" stroke-linecap="butt" stroke-linejoin="miter" stroke-opacity="1" stroke-width="1" d="m 392.57143,513.798 2.5,-1 2.5,1 c 0,0 -0.92767,4 -2.5,4 -1.57233,0 -2.5,-4 -2.5,-4 z"/></g></g></g></g></svg>