<svg xmlns="http://www.w3.org/2000/svg" xmlns:osb="http://www.openswatchbook.org/uri/2009/osb" xmlns:svg="http://www.w3.org/2000/svg" xmlns:xlink="http://www.w3.org/1999/xlink" id="svg5453" width="48" height="48" version="1.1"><defs id="defs5455"><linearGradient id="linearGradient4349"><stop id="stop4351" offset="0" stop-color="#01a8ec" stop-opacity="1"/><stop id="stop4353" offset="1" stop-color="#74d8ff" stop-opacity="1"/></linearGradient><linearGradient id="linearGradient4339"><stop id="stop4341" offset="0" stop-color="#00b2ed" stop-opacity="1"/><stop id="stop4343" offset="1" stop-color="#009bdb" stop-opacity="1"/></linearGradient><linearGradient id="linearGradient4331"><stop id="stop4333" offset="0" stop-color="#7ccbea" stop-opacity="1"/><stop id="stop4335" offset="1" stop-color="#00b9ff" stop-opacity="1"/></linearGradient><linearGradient id="linearGradient4337" x1="98.123" x2="510.564" y1="1517.457" y2="828.576" gradientUnits="userSpaceOnUse" xlink:href="#linearGradient4331"/><linearGradient id="linearGradient4347" x1="-323.883" x2="75.682" y1="1270.644" y2="1061.405" gradientUnits="userSpaceOnUse" xlink:href="#linearGradient4339"/><linearGradient id="linearGradient4355" x1="73.727" x2="90.762" y1="1076.395" y2="571.001" gradientUnits="userSpaceOnUse" xlink:href="#linearGradient4349"/><linearGradient id="linearGradient4737"><stop id="stop4739" offset="0" stop-color="#9e9e9e" stop-opacity="1"/><stop id="stop4741" offset="1" stop-color="#969696" stop-opacity="1"/></linearGradient><linearGradient id="linearGradient3923"><stop id="stop3925" offset="0" stop-color="#c8c8c8" stop-opacity="1"/><stop id="stop3927" offset="1" stop-color="#969696" stop-opacity="1"/></linearGradient><linearGradient id="linearGradient3911"><stop id="stop3913" offset="0" stop-color="#828282" stop-opacity="1"/><stop id="stop3915" offset="1" stop-color="#c8c8c8" stop-opacity="1"/></linearGradient><linearGradient id="linearGradient3781"><stop id="stop3783" offset="0" stop-color="#dcdcdc" stop-opacity="1"/><stop id="stop3785" offset="1" stop-color="#f0f0f0" stop-opacity="1"/></linearGradient><linearGradient id="linearGradient3780"><stop id="stop3782" offset="0" stop-color="#b2b2b2" stop-opacity="1"/><stop id="stop3784" offset="1" stop-color="#afafaf" stop-opacity="1"/></linearGradient><linearGradient id="linearGradient3687"><stop id="stop3689" offset="0" stop-color="#2c2c2c" stop-opacity="1"/><stop id="stop3691" offset=".111" stop-color="#414141" stop-opacity="1"/><stop id="stop3693" offset=".29" stop-color="#474747" stop-opacity="1"/><stop id="stop3695" offset=".512" stop-color="#4e4e4e" stop-opacity="1"/><stop id="stop3699" offset=".752" stop-color="#3c3c3c" stop-opacity="1"/><stop id="stop3701" offset=".897" stop-color="#323232" stop-opacity="1"/><stop id="stop3703" offset="1" stop-color="#272727" stop-opacity="1"/></linearGradient><clipPath id="clipPath4160" clipPathUnits="userSpaceOnUse"><rect id="rect4162" width="1" height="1" x="7" y="1023.362" fill="#f2f2f2" fill-opacity="1" stroke="none" stroke-opacity="1" opacity="1"/></clipPath><clipPath id="clipPath4160-4" clipPathUnits="userSpaceOnUse"><rect id="rect4162-9" width="1" height="1" x="7" y="1023.362" fill="#f2f2f2" fill-opacity="1" stroke="none" stroke-opacity="1" opacity="1"/></clipPath><clipPath id="clipPath4160-3" clipPathUnits="userSpaceOnUse"><rect id="rect4162-0" width="1" height="1" x="7" y="1023.362" fill="#f2f2f2" fill-opacity="1" stroke="none" stroke-opacity="1" opacity="1"/></clipPath><linearGradient id="linearGradient4012"><stop id="stop4014" offset="0" stop-color="#1d99f3" stop-opacity="1"/><stop id="stop4016" offset=".417" stop-color="#48acf5" stop-opacity=".761"/><stop id="stop4018" offset=".667" stop-color="#73c0f7" stop-opacity="0"/><stop id="stop4020" offset="1" stop-color="#cae7fc" stop-opacity="0"/></linearGradient><linearGradient id="linearGradient4164" x1="3" x2="19" y1="1049.362" y2="1033.362" gradientTransform="matrix(0.75,0,0,0.75,1.7499999,269.34054)" gradientUnits="userSpaceOnUse" xlink:href="#linearGradient4012"/><linearGradient id="linearGradient3983" x1="3" x2="24.333" y1="1049.362" y2="1028.029" gradientTransform="matrix(0.75,0,0,0.75,2.7499999,262.34058)" gradientUnits="userSpaceOnUse" xlink:href="#linearGradient4012"/><linearGradient id="linearGradient4007" x1="3" x2="24.333" y1="1049.362" y2="1028.029" gradientTransform="matrix(0.75,0,0,0.75,3.7499999,-767.02162)" gradientUnits="userSpaceOnUse" xlink:href="#linearGradient4012"/><linearGradient id="linearGradient4164-76" x1="3" x2="19" y1="1049.362" y2="1033.362" gradientTransform="matrix(0.75,0,0,0.75,3.7499999,-769.02166)" gradientUnits="userSpaceOnUse" xlink:href="#linearGradient4012"/><clipPath id="clipPath4160-8" clipPathUnits="userSpaceOnUse"><rect id="rect4162-2" width="1" height="1" x="7" y="1023.362" fill="#f2f2f2" fill-opacity="1" stroke="none" stroke-opacity="1" opacity="1"/></clipPath><clipPath id="clipPath4160-4-7" clipPathUnits="userSpaceOnUse"><rect id="rect4162-9-3" width="1" height="1" x="7" y="1023.362" fill="#f2f2f2" fill-opacity="1" stroke="none" stroke-opacity="1" opacity="1"/></clipPath><clipPath id="clipPath4160-3-3" clipPathUnits="userSpaceOnUse"><rect id="rect4162-0-0" width="1" height="1" x="7" y="1023.362" fill="#f2f2f2" fill-opacity="1" stroke="none" stroke-opacity="1" opacity="1"/></clipPath><linearGradient id="linearGradient4066"><stop id="stop4068" offset="0" stop-color="#dbc9ee" stop-opacity="1"/><stop id="stop4070" offset="1" stop-color="#faf7fd" stop-opacity="1"/></linearGradient><linearGradient id="linearGradient3843-5"><stop id="stop3845-0" offset="0" stop-color="#5a2c8b" stop-opacity="1"/><stop id="stop3847-4" offset="1" stop-color="#9d59cf" stop-opacity="1"/></linearGradient><clipPath id="clipPath4160-40" clipPathUnits="userSpaceOnUse"><rect id="rect4162-02" width="1" height="1" x="7" y="1023.362" fill="#f2f2f2" fill-opacity="1" stroke="none" stroke-opacity="1" opacity="1"/></clipPath><linearGradient id="linearGradient4290-48"><stop id="stop4292-0" offset="0" stop-color="#a5a5a5" stop-opacity="1"/><stop id="stop4294-0" offset="1" stop-color="#f5f2f5" stop-opacity="1"/></linearGradient><linearGradient id="linearGradient4207" osb:paint="gradient"><stop id="stop3371" offset="0" stop-color="#3498db" stop-opacity="1"/><stop id="stop3373" offset="1" stop-color="#3498db" stop-opacity="0"/></linearGradient><linearGradient id="linearGradient8467"><stop id="stop8469" offset="0" stop-color="#d3d3d3" stop-opacity="1"/><stop id="stop8471" offset="1" stop-color="#f2efef" stop-opacity="1"/></linearGradient></defs><metadata id="metadata5458"/><g id="layer1" transform="translate(-384.57143,-499.798)"><g id="g4990" transform="matrix(1.1474782,0,0,1.1474782,-136.4633,-79.725609)"><g id="g4677" transform="matrix(0.1995649,0,0,0.1995649,331.06912,483.97392)"><g id="g4689" transform="matrix(0.17549405,0,0,0.16855979,705.78518,31.822854)"><g id="g4449" transform="translate(3.7456925,4.2929973e-6)"><g id="g4177" transform="matrix(1.2329233,0,0,1.2329233,-17.399726,-244.87137)"><g id="g4480"><path id="path4297-7" fill="url(#linearGradient4337)" fill-opacity="1" fill-rule="evenodd" stroke="none" stroke-linecap="butt" stroke-linejoin="miter" stroke-opacity="1" stroke-width="4.367" d="M 82.028076,1539.9862 507.34486,1289.7267 504.44966,818.92235 82.028076,1059.9211 Z" opacity="1"/><path id="path4297-7-0" fill="url(#linearGradient4347)" fill-opacity="1" fill-rule="evenodd" stroke="none" stroke-linecap="butt" stroke-linejoin="miter" stroke-opacity="1" stroke-width="4.367" d="M 82.119773,1541.0423 -343.197,1290.7828 -340.3018,819.97854 82.119773,1060.9772 Z" opacity="1"/><path id="path4329" fill="url(#linearGradient4355)" fill-opacity="1" fill-rule="evenodd" stroke="none" stroke-linecap="butt" stroke-linejoin="miter" stroke-opacity="1" stroke-width="4.367" d="M -341.53322,821.22299 84.128549,574.45926 506.02169,821.3147 81.854147,1063.2792 Z" opacity="1"/><g id="g3" fill="#fff" fill-opacity=".801" transform="matrix(2.6379921,1.6605418,-2.1459459,1.9372958,58.131036,566.16069)"><path id="path5" fill="#fff" fill-opacity=".801" d="m 88.947,67.734 c 0,1.544 -1.252,2.802 -2.801,2.802 l -17.157,0 c -1.401,0 -2.583,-1.028 -2.763,-2.419 L 63.193,46.348 57.07,102.361 c -0.147,1.319 -1.216,2.375 -2.561,2.474 -0.079,0.005 -0.145,0.013 -0.229,0.013 -1.251,0 -2.354,-0.822 -2.685,-2.043 l -9.126,-32.46 -8.988,17.078 c -0.539,1.028 -1.667,1.653 -2.813,1.479 -1.159,-0.139 -2.101,-0.976 -2.388,-2.101 l -4.375,-17.49 -21.102,0 C 1.262,69.312 0,68.052 0,66.51 0,64.961 1.262,63.708 2.803,63.708 l 23.285,0 c 1.284,0 2.412,0.875 2.72,2.123 l 3.124,12.487 8.843,-16.789 c 0.528,-1.023 1.631,-1.638 2.764,-1.488 1.137,0.121 2.089,0.925 2.412,2.024 l 7.117,25.319 7.018,-64.09 c 0.149,-1.401 1.321,-2.465 2.743,-2.487 1.576,0.134 2.617,1.026 2.813,2.426 l 5.79,41.699 14.719,0 c 1.544,0.001 2.796,1.26 2.796,2.802 z m 14.824,-2.801 -8.862,0 c -1.54,0 -2.802,1.26 -2.802,2.802 0,1.544 1.262,2.802 2.802,2.802 l 8.862,0 c 1.537,0 2.802,-1.258 2.802,-2.802 0,-1.543 -1.265,-2.802 -2.802,-2.802 z m 19.083,0 -9.431,0 c -1.537,0 -2.802,1.26 -2.802,2.802 0,1.544 1.265,2.802 2.802,2.802 l 9.431,0 c 1.536,0 2.802,-1.258 2.802,-2.802 0,-1.543 -1.266,-2.802 -2.802,-2.802 z"/></g></g></g></g></g></g></g></g></svg>