<svg xmlns="http://www.w3.org/2000/svg" xmlns:svg="http://www.w3.org/2000/svg" xmlns:xlink="http://www.w3.org/1999/xlink" id="svg5453" width="48" height="48" version="1.1"><defs id="defs5455"><linearGradient id="linearGradient4402"><stop id="stop4405" offset="0" stop-color="#dbd4cf" stop-opacity="1"/><stop id="stop4407" offset=".529" stop-color="#dedfe1" stop-opacity="1"/><stop id="stop4409" offset="1" stop-color="#dad4d1" stop-opacity="1"/></linearGradient><linearGradient id="linearGradient4396"><stop id="stop4398" offset="0" stop-color="#e95c00" stop-opacity="1"/><stop id="stop4400" offset="1" stop-color="#ffa000" stop-opacity="1"/></linearGradient><linearGradient id="linearGradient4380"><stop id="stop4382" offset="0" stop-color="#e35600" stop-opacity="1"/><stop id="stop4384" offset="1" stop-color="#f69600" stop-opacity="1"/></linearGradient><linearGradient id="linearGradient3668"><stop id="stop3670" offset="0" stop-color="#9b4400" stop-opacity="1"/><stop id="stop3672" offset="1" stop-color="#e56300" stop-opacity="1"/></linearGradient><linearGradient id="linearGradient2884" x1="104.886" x2="246.866" y1="12.641" y2=".951" gradientTransform="matrix(1.2534653,0,0,1.2351592,172.13644,255.41051)" gradientUnits="userSpaceOnUse" xlink:href="#linearGradient4402"/><linearGradient id="linearGradient2890" x1="44.104" x2="278.432" y1="228.6" y2="290.7" gradientTransform="matrix(1.2457683,0,0,1.2351592,173.49518,255.41051)" gradientUnits="userSpaceOnUse" xlink:href="#linearGradient4402"/><linearGradient id="linearGradient2893" x1="252.495" x2="163.793" y1="471.865" y2="-123.659" gradientTransform="matrix(1.2351592,0,0,1.2351592,175.36448,255.41051)" gradientUnits="userSpaceOnUse" xlink:href="#linearGradient4396"/><linearGradient id="linearGradient2896" x1="64.751" x2="93.522" y1="102.284" y2="108.988" gradientTransform="matrix(1.2351592,0,0,1.2351592,175.36448,255.41051)" gradientUnits="userSpaceOnUse" xlink:href="#linearGradient3668"/><linearGradient id="linearGradient2899" x1="46.226" x2="44.376" y1="82.088" y2="125.316" gradientTransform="matrix(4.3765484,0,0,4.4651009,175.36451,249.18066)" gradientUnits="userSpaceOnUse" xlink:href="#linearGradient4380"/></defs><metadata id="metadata5458"/><g id="layer1" transform="translate(-384.57143,-499.798)"><g id="layer1-4" transform="matrix(0.06975137,0,0,0.06975137,380.31199,492.30948)"><g id="g4260" transform="matrix(0.89256237,0,0,0.89256237,55.9404,36.824618)"><path id="path3657" fill="#cb5600" fill-opacity="1" fill-rule="evenodd" stroke="none" d="m 71.02997,795.72151 c 0,0 -10.804828,11.65479 -13.662851,21.11532 -1.997141,6.61087 -2.776846,16.467 0.828051,22.3574 2.64497,4.32188 6.111694,8.6938 11.178697,8.69454 220.292473,0.0321 463.914643,0.35663 635.322633,0.82805 5.80291,0.0159 16.8102,-1.00255 21.32233,-7.45247 4.59926,-6.57445 4.48552,-21.22905 1.24208,-28.56777 -3.41545,-7.7279 -19.45921,-11.1787 -19.45921,-11.1787 L 71.02997,795.72151 Z"/><path id="rect2862" fill="url(#linearGradient2899)" fill-opacity="1" fill-rule="evenodd" stroke="none" d="m 152.20327,563.30981 c -10.06499,0 -20.51377,7.75444 -23.42962,17.41055 L 58.446197,813.67357 c -2.915849,9.65611 2.827092,17.44926 12.892082,17.44926 l 648.541111,0 c 7.6685,0 12.06435,-5.91377 9.84272,-13.27075 L 656.84716,576.58052 c -2.22158,-7.35697 -10.16428,-13.27071 -17.83278,-13.27071 l -486.81111,0 z"/><path id="path3656" fill="url(#linearGradient2896)" fill-opacity="1" fill-rule="evenodd" stroke="none" d="m 392.52091,83.375993 c -16.72846,-0.168217 -26.56999,1.075169 -36.4372,8.491719 -4.50371,3.385152 -8.06238,11.425628 -10.19006,17.215028 L 174.20652,675.82782 c 0,0 4.00323,25.6106 28.29127,48.89051 16.3729,15.6933 47.42495,27.32071 66.9325,31.5488 50.06736,10.85169 90.2171,13.44285 135.62391,12.75512 46.63973,-0.70637 93.23562,-9.8736 138.08074,-22.70631 66.8832,-19.13905 69.01271,-72.84264 69.01271,-72.84264 L 435.55849,98.545292 c -0.72722,-2.367615 -2.49634,-4.113402 -3.89848,-5.442421 -10.48989,-9.942759 -26.38534,-9.598632 -39.1391,-9.726878 z"/><path id="path2825" fill="url(#linearGradient2893)" fill-opacity="1" fill-rule="evenodd" stroke="none" d="m 392.52091,83.375993 c -16.72846,-0.168217 -26.56999,1.075169 -36.4372,8.491719 -4.50371,3.385152 -8.06238,11.425628 -10.19006,17.215028 L 174.20652,675.82782 c 0,0 7.54942,49.01793 68.30861,72.91101 42.05687,16.53853 85.46735,18.73277 153.01648,19.45537 75.22724,0.80474 105.87219,-6.57643 155.04255,-23.73277 23.14552,-8.07584 35.14378,-18.57592 46.12072,-30.2186 15.87442,-16.8372 15.45277,-40.76953 15.45277,-40.76953 L 435.55849,98.545292 c -1.19367,-2.170163 -2.49634,-4.113402 -3.89848,-5.442421 -10.48989,-9.942759 -26.38534,-9.598632 -39.1391,-9.726878 z"/><path id="path2843" fill="url(#linearGradient2890)" fill-opacity="1" fill-rule="evenodd" stroke="none" d="m 235.55002,468.93866 -37.90989,129.57592 c 48.01671,40.12351 116.80319,65.46343 195.34387,65.46343 78.89518,0 149.61939,-25.56528 197.64894,-66.00382 L 550.76835,469.24745 c -36.70016,29.03013 -93.57907,47.66942 -157.43398,47.66942 -64.06632,0 -121.09688,-18.78301 -157.78435,-47.97821 z"/><path id="path2829" fill="url(#linearGradient2884)" fill-opacity="1" fill-rule="evenodd" stroke="none" d="m 464.85975,190.60325 c -18.80044,6.21693 -44.49039,10.07427 -72.85767,10.07427 -27.90552,0 -53.24179,-3.72651 -71.95673,-9.76548 l -42.03027,136.75528 c 28.25234,14.5694 69.62172,23.77682 115.74969,23.77682 45.21628,0 85.89429,-8.81734 114.10451,-22.88905 L 464.85975,190.60325 Z"/></g></g></g></svg>