<svg xmlns="http://www.w3.org/2000/svg" xmlns:osb="http://www.openswatchbook.org/uri/2009/osb" xmlns:svg="http://www.w3.org/2000/svg" xmlns:xlink="http://www.w3.org/1999/xlink" id="svg5453" width="48" height="48" version="1.1"><defs id="defs5455"><linearGradient id="linearGradient8311-06"><stop id="stop8313-6" offset="0" stop-color="#a9a3d4" stop-opacity="1"/><stop id="stop4462" offset=".47" stop-color="#87baff" stop-opacity="1"/><stop id="stop8315-2" offset="1" stop-color="#89ec85" stop-opacity="1"/></linearGradient><linearGradient id="linearGradient4460" x1="0" x2="47" y1="23.5" y2="23.5" gradientUnits="userSpaceOnUse" xlink:href="#linearGradient8311-06"/><linearGradient id="linearGradient4915"><stop id="stop4917" offset="0" stop-color="#8645a3" stop-opacity="1"/><stop id="stop4919" offset="1" stop-color="#d164ff" stop-opacity="1"/></linearGradient><linearGradient id="linearGradient3687-2"><stop id="stop3689-6" offset="0" stop-color="#1a1a1a" stop-opacity="1"/><stop id="stop3691-8" offset=".111" stop-color="#2c2c2e" stop-opacity="1"/><stop id="stop3693-8" offset=".29" stop-color="#2b2b2d" stop-opacity="1"/><stop id="stop3695-4" offset=".512" stop-color="#2a2b2d" stop-opacity="1"/><stop id="stop3699-86" offset=".752" stop-color="#2b2b2d" stop-opacity="1"/><stop id="stop3701-8" offset=".897" stop-color="#323232" stop-opacity="1"/><stop id="stop3703-9" offset="1" stop-color="#171717" stop-opacity="1"/></linearGradient><linearGradient id="linearGradient4642"><stop id="stop4644" offset="0" stop-color="#0bac83" stop-opacity="1"/><stop id="stop4646" offset="1" stop-color="#13ffaf" stop-opacity="1"/></linearGradient><linearGradient id="linearGradient4179-7"><stop id="stop4181-2" offset="0" stop-color="#e8d800" stop-opacity="1"/><stop id="stop4183-1" offset="1" stop-color="#feff68" stop-opacity="1"/></linearGradient><linearGradient id="linearGradient4422"><stop id="stop4424" offset="0" stop-color="#ff9300" stop-opacity="1"/><stop id="stop4426" offset="1" stop-color="#ffd702" stop-opacity="1"/></linearGradient><linearGradient id="linearGradient8467-7"><stop id="stop8469-4" offset="0" stop-color="#3ec896" stop-opacity="1"/><stop id="stop8471-7" offset="1" stop-color="#66d9af" stop-opacity="1"/></linearGradient><linearGradient id="linearGradient5845"><stop id="stop5847" offset="0" stop-color="#974eb7" stop-opacity="1"/><stop id="stop5849" offset="1" stop-color="#d164ff" stop-opacity="1"/></linearGradient><linearGradient id="linearGradient4298"><stop id="stop4300" offset="0" stop-color="#ea3c53" stop-opacity="1"/><stop id="stop4302" offset="1" stop-color="#fc593d" stop-opacity="1"/></linearGradient><linearGradient id="linearGradient4232"><stop id="stop4234-0" offset="0" stop-color="#3889e9" stop-opacity="1"/><stop id="stop4236" offset="1" stop-color="#5ea5fb" stop-opacity="1"/></linearGradient><linearGradient id="linearGradient4290-1"><stop id="stop4292-9" offset="0" stop-color="#a5a5a5" stop-opacity="1"/><stop id="stop4294-1" offset="1" stop-color="#f5f2f5" stop-opacity="1"/></linearGradient><linearGradient id="linearGradient8311-06-5"><stop id="stop8313-6-2" offset="0" stop-color="#5fa3d4" stop-opacity="1"/><stop id="stop8315-2-7" offset="1" stop-color="#6bb9ff" stop-opacity="1"/></linearGradient><linearGradient id="linearGradient4207" osb:paint="gradient"><stop id="stop3371" offset="0" stop-color="#3498db" stop-opacity="1"/><stop id="stop3373" offset="1" stop-color="#3498db" stop-opacity="0"/></linearGradient><filter id="filter3831" color-interpolation-filters="sRGB"><feGaussianBlur id="feGaussianBlur3833" stdDeviation=".637"/></filter><clipPath id="clipPath3823"><path id="path3825" fill="#fff" d="m108.81 58c-1.56 0-2.81 1.254-2.81 2.812v24.375c0 1.559 1.25 2.813 2.81 2.813h24.375c1.57 0 2.82-1.254 2.82-2.812v-24.375c0-1.559-1.25-2.813-2.81-2.813h-24.375zm7.1875 4.5h10v8.75h5l-10 13.75-10-13.75h5v-8.75z"/></clipPath><linearGradient id="linearGradient3812" x1="65.263" x2="65.263" y1="64.205" y2="50.069" gradientTransform="matrix(0.625,0,0,0.625,78.5,32.25)" gradientUnits="userSpaceOnUse"><stop id="stop3683" offset="0"/><stop id="stop3685" offset="1" stop-opacity="0"/></linearGradient><filter id="filter3806" color-interpolation-filters="sRGB"><feGaussianBlur id="feGaussianBlur3808" stdDeviation="1.2"/></filter><linearGradient id="linearGradient3788" x1="70" x2="70" y1="54" y2="75.095" gradientTransform="translate(0,4)" gradientUnits="userSpaceOnUse" xlink:href="#linearGradient3737"/><linearGradient id="linearGradient3773" x1="56" x2="88" y1="72" y2="72" gradientTransform="matrix(0.9375,0,0,0.9375,-140.5,3.5)" gradientUnits="userSpaceOnUse"><stop id="stop3780" offset="0" stop-color="#499119"/><stop id="stop3782" offset="1" stop-color="#8fd625"/></linearGradient><linearGradient id="linearGradient3832" x1="65.263" x2="65.263" y1="64.205" y2="50.069" gradientTransform="matrix(0.625,0,0,0.625,28.5,31.25)" gradientUnits="userSpaceOnUse" xlink:href="#linearGradient3737"/><filter id="filter3174" color-interpolation-filters="sRGB"><feGaussianBlur id="feGaussianBlur3176" stdDeviation="1.71"/></filter><linearGradient id="linearGradient3737"><stop id="stop3739" offset="0" stop-color="#fff"/><stop id="stop3741" offset="1" stop-color="#fff" stop-opacity="0"/></linearGradient><linearGradient id="ButtonShadow" x1="45.448" x2="45.448" y1="92.54" y2="7.016" gradientTransform="scale(1.0059,0.99417)" gradientUnits="userSpaceOnUse"><stop id="stop3750" offset="0"/><stop id="stop3752" offset="1" stop-opacity=".588"/></linearGradient><linearGradient id="linearGradient4422-9"><stop id="stop4424-3" offset="0" stop-color="#2971c3" stop-opacity="1"/><stop id="stop4426-1" offset="1" stop-color="#83bbff" stop-opacity="1"/></linearGradient><linearGradient id="linearGradient5263-00"><stop id="stop5265-5" offset="0" stop-color="#fff" stop-opacity="0"/><stop id="stop5267-8" offset="1" stop-color="#d5edff" stop-opacity="1"/></linearGradient><linearGradient id="linearGradient4227-3"><stop id="stop4229-4" offset="0" stop-color="#566069" stop-opacity="1"/><stop id="stop4231-6" offset="1" stop-color="#6c7884" stop-opacity="1"/></linearGradient><linearGradient id="linearGradient4143"><stop id="stop4145" offset="0" stop-color="#197cf1" stop-opacity="1"/><stop id="stop4147" offset="1" stop-color="#20bcfa" stop-opacity="1"/></linearGradient><linearGradient id="linearGradient4222-8" x1="409.571" x2="409.939" y1="542.798" y2="501.232" gradientTransform="matrix(1.0523327,0,0,1.0276135,-72.567725,-8.6931515)" gradientUnits="userSpaceOnUse" xlink:href="#linearGradient4143"/></defs><metadata id="metadata5458"/><g id="layer1" transform="translate(-384.57143,-499.798)"><g id="layer1-4" transform="translate(392.24401,-502.51656)"><g id="g4413" stroke-dasharray="none" stroke-miterlimit="4" stroke-width="1.317" transform="matrix(1.138587,0,0,1.138587,-3.4562036,-142.80276)"><g id="g4312" transform="matrix(1.0539376,0,0,1.0539376,-0.91298719,-55.411661)"><g id="g3401" fill="#fff" fill-opacity="1" stroke="#fff" stroke-dasharray="none" stroke-miterlimit="4" stroke-opacity="1" stroke-width="1.578" opacity=".85" transform="matrix(0.18788385,0,0,0.18788385,5.3280565,842.80993)"><rect id="rect4195-4" width="46.303" height="34.939" x="334.234" y="513.127" fill="url(#linearGradient4222-8)" fill-opacity="1" stroke="none" stroke-dasharray="none" stroke-linecap="round" stroke-linejoin="round" stroke-miterlimit="4" stroke-opacity="1" stroke-width=".2" opacity="1" ry="1.644" transform="matrix(4.4063755,0,0,4.4063755,-1510.7741,-1358.5154)"/><circle id="path4224-2" cx="373.366" cy="518.737" r="2.25" fill="#fff" fill-opacity=".852" stroke="none" stroke-dasharray="none" stroke-linecap="round" stroke-linejoin="round" stroke-miterlimit="4" stroke-opacity="1" stroke-width=".2" opacity="1" transform="matrix(3.6712988,0,0,3.6712988,-1221.0657,-985.31526)"/><circle id="path4224-4-0" cx="367.839" cy="518.785" r="2.25" fill="#fff" fill-opacity=".852" stroke="none" stroke-dasharray="none" stroke-linecap="round" stroke-linejoin="round" stroke-miterlimit="4" stroke-opacity="1" stroke-width=".2" opacity="1" transform="matrix(3.6712988,0,0,3.6712988,-1221.0657,-985.31526)"/><circle id="path4224-8-2" cx="362.405" cy="518.838" r="2.25" fill="#fff" fill-opacity=".852" stroke="none" stroke-dasharray="none" stroke-linecap="round" stroke-linejoin="round" stroke-miterlimit="4" stroke-opacity="1" stroke-width=".2" opacity="1" transform="matrix(3.6712988,0,0,3.6712988,-1221.0657,-985.31526)"/><path id="path4096" fill="#fff" fill-opacity="1" stroke="#fff" stroke-dasharray="none" stroke-miterlimit="4" stroke-opacity="1" stroke-width="1.578" d="m 64,940.36218 c -26.509667,0 -48,21.49034 -48,48 0,26.50972 21.490333,48.00002 48,48.00002 26.509664,0 48,-21.4903 48,-48.00002 0,-26.50966 -21.490336,-48 -48,-48 z m 0,4 c 20.15479,0 37.14462,13.55176 42.355,32.04 -4.4877,9.25637 -10.873381,17.59038 -18.650002,24.32502 -3.735795,3.2352 -7.814534,6.1193 -12.32,8.15 -4.505465,2.0307 -9.461145,3.1829 -14.394998,2.9 -3.706902,-0.2126 -7.368725,-1.2452 -10.615,-3.045 8.603218,-4.6618 16.365742,-10.87737 22.720002,-18.32002 4.170803,-4.88521 7.819942,-10.43709 9.224998,-16.705 0.702528,-3.13395 0.821581,-6.4161 0.164998,-9.56 -0.656582,-3.1439 -2.110188,-6.1399 -4.309996,-8.48 -2.149082,-2.28613 -4.97033,-3.90553 -7.995002,-4.74 -3.024672,-0.83446 -6.24345,-0.89907 -9.33,-0.335 -6.173101,1.12814 -11.684554,4.71584 -16.105,9.17 -7.79168,7.8511 -12.608581,18.92915 -11.725,29.955 0.441789,5.51292 2.289248,10.93012 5.455,15.46502 0.706642,1.0122 1.483501,1.9764 2.315,2.89 -4.611828,1.614 -9.386995,2.7629 -14.23,3.41 -4.15805,-6.7188 -6.56,-14.638 -6.56,-23.12002 0,-24.30053 19.69947,-44 44,-44 z m 0.28,8.89 c 3.093024,0.004 6.207066,0.94057 8.675002,2.805 2.223488,1.67977 3.871027,4.06951 4.804998,6.695 0.933971,2.62549 1.173658,5.47662 0.855002,8.245 -0.637319,5.53677 -3.430458,10.61442 -6.804999,15.05 -5.975053,7.85375 -13.917093,14.13972 -22.750003,18.54002 -0.904118,0.4504 -1.822565,0.8785 -2.745,1.29 -1.921973,-1.6819 -3.569314,-3.6768 -4.825,-5.90002 -2.623798,-4.64556 -3.489056,-10.16402 -2.98,-15.475 0.509056,-5.31097 2.331648,-10.42962 4.78,-15.17 2.838755,-5.49625 6.70822,-10.70239 12.125,-13.69 2.70839,-1.4938 5.771973,-2.39419 8.865,-2.39 z m 43.325,29.22 c 0.25778,1.9268 0.395,3.89265 0.395,5.89 0,24.30052 -19.699469,44.00002 -44,44.00002 -13.647425,0 -25.844438,-6.2128 -33.915,-15.965 4.98138,-1.1314 9.850072,-2.7565 14.52,-4.825 2.042194,1.5553 4.297558,2.8309 6.695,3.75 6.904163,2.6469 14.742694,2.2639 21.730003,-0.155 6.987303,-2.4189 13.183469,-6.7606 18.584999,-11.81 6.434617,-6.01522 11.859848,-13.10515 15.989998,-20.88502 z"/></g></g></g></g></g></svg>