<svg xmlns="http://www.w3.org/2000/svg" xmlns:svg="http://www.w3.org/2000/svg" xmlns:xlink="http://www.w3.org/1999/xlink" id="svg5453" width="48" height="48" version="1.1"><defs id="defs5455"><linearGradient id="linearGradient4300-2" x1="17" x2="17" y1="1036.362" y2="1012.362" gradientTransform="matrix(1.0309825,0,0,1,-0.512598,0)" gradientUnits="userSpaceOnUse" xlink:href="#linearGradient4294"/><linearGradient id="linearGradient4294"><stop id="stop4296" offset="0" stop-color="#0c7eed" stop-opacity="1"/><stop id="stop4298" offset="1" stop-color="#0bb6ff" stop-opacity="1"/></linearGradient><linearGradient id="linearGradient4308" x1="33.462" x2="34.117" y1="1013.622" y2="1037.208" gradientTransform="matrix(0.68964436,0,0,1,10.82717,0)" gradientUnits="userSpaceOnUse" xlink:href="#linearGradient4320"/><linearGradient id="linearGradient4286" x1="28" x2="28" y1="1037.362" y2="1011.362" gradientTransform="translate(-0.199659,0)" gradientUnits="userSpaceOnUse" xlink:href="#linearGradient4288"/><linearGradient id="linearGradient4288"><stop id="stop4290" offset="0" stop-color="#0068cd" stop-opacity="1"/><stop id="stop4292" offset="1" stop-color="#00abf2" stop-opacity="1"/></linearGradient><linearGradient id="linearGradient4320"><stop id="stop4322" offset="0" stop-color="#f6fbff" stop-opacity="1"/><stop id="stop4324" offset="1" stop-color="#eaeff2" stop-opacity="1"/></linearGradient></defs><metadata id="metadata5458"/><g id="layer1" transform="translate(-384.57143,-499.798)"><g id="g4414" transform="matrix(1.5263052,0,0,1.5263052,376.49864,-1040.1735)"><g id="g4180" transform="matrix(1.1526351,0,0,1.1526351,-4.8344134,-156.43331)"><path id="path4248" fill="url(#linearGradient4300-2)" fill-opacity="1" fill-rule="evenodd" stroke="none" stroke-linecap="butt" stroke-linejoin="miter" stroke-opacity="1" stroke-width="1" d="m 11.563303,1036.9442 11.636697,0 -3.21e-4,-24.4983 -11.533282,3e-4 c -1.268259,-0.094 -1.782566,0.023 -1.782566,1.1721 l 0,22.0916 c -0.07966,1.261 0.446208,1.2343 1.679472,1.2343 z" opacity="1"/><path id="path4248-6" fill="url(#linearGradient4308)" fill-opacity="1" fill-rule="evenodd" stroke="none" stroke-linecap="butt" stroke-linejoin="miter" stroke-opacity="1" stroke-width="1" d="m 33.959911,1036.9362 -7.990815,0 0,-24.498 7.990815,0 c 0.848365,-0.094 0.916631,0.023 0.916631,1.1721 l 0,22.0916 c 0.05328,1.261 -0.09168,1.2343 -0.916631,1.2343 z" opacity="1"/><path id="path4248-6-0" fill="url(#linearGradient4286)" fill-opacity="1" fill-rule="evenodd" stroke="none" stroke-linecap="butt" stroke-linejoin="miter" stroke-opacity="1" stroke-width="1" d="M 31.957586,1038.1035 21.928,1036.932 l -2e-5,-24.4861 9.945926,-0.9324 c 1.230149,-0.094 1.296492,0.2446 1.296492,1.3937 l -0.08368,23.3688 c 0.07726,1.261 0.06707,1.8275 -1.129132,1.8275 z" opacity="1"/></g><g id="layer1-6" fill="#fff" fill-opacity=".873" transform="matrix(1.0026651,0,0,1.0026651,-317.47462,478.45211)"><g id="g3" fill="#fff" fill-opacity=".873" transform="matrix(0.02145577,0,0,0.02145577,327,535.3622)"><path id="path5" fill="#fff" fill-opacity=".873" d="m 466.075,161.525 c -205.6,0 -382.8,121.2 -464.2,296.1 -2.5,5.3 -2.5,11.5 0,16.9 81.4,174.899 258.601,296.1 464.2,296.1 205.599,0 382.8,-121.2 464.2,-296.1 2.5,-5.3 2.5,-11.5 0,-16.9 -81.4,-174.9 -258.6,-296.1 -464.2,-296.1 z m 0,514.701 c -116.1,0 -210.1,-94.101 -210.1,-210.101 0,-116.1 94.1,-210.1 210.1,-210.1 116.1,0 210.1,94.1 210.1,210.1 0,116 -94.1,210.101 -210.1,210.101 z"/><circle id="circle7" cx="466.075" cy="466.025" r="134.5" fill="#fff" fill-opacity=".873"/></g></g></g></g></svg>