<svg xmlns="http://www.w3.org/2000/svg" xmlns:osb="http://www.openswatchbook.org/uri/2009/osb" xmlns:svg="http://www.w3.org/2000/svg" xmlns:xlink="http://www.w3.org/1999/xlink" id="svg2985" width="48" height="48" version="1.1"><defs id="defs2987"><linearGradient id="linearGradient4260"><stop id="stop4262" offset="0" stop-color="#23262c" stop-opacity="1"/><stop id="stop4264" offset="1" stop-color="#525b63" stop-opacity="1"/></linearGradient><linearGradient id="linearGradient4501"><stop id="stop4503" offset="0" stop-color="#ff9c00" stop-opacity="1"/><stop id="stop4505" offset="1" stop-color="#ff4848" stop-opacity="1"/></linearGradient><linearGradient id="linearGradient4491"><stop id="stop4493" offset="0" stop-color="#383c46" stop-opacity="1"/><stop id="stop4495" offset="1" stop-color="#636d77" stop-opacity="1"/></linearGradient><linearGradient id="linearGradient4207" osb:paint="gradient"><stop id="stop3371" offset="0" stop-color="#3498db" stop-opacity="1"/><stop id="stop3373" offset="1" stop-color="#3498db" stop-opacity="0"/></linearGradient><linearGradient id="linearGradient4258" x1="390.996" x2="390.201" y1="546.812" y2="510.453" gradientUnits="userSpaceOnUse" xlink:href="#linearGradient4260"/><linearGradient id="linearGradient4268" x1="390.996" x2="390.201" y1="546.812" y2="510.453" gradientUnits="userSpaceOnUse" xlink:href="#linearGradient4260"/><linearGradient id="linearGradient4270" x1="390.996" x2="390.201" y1="546.812" y2="510.453" gradientUnits="userSpaceOnUse" xlink:href="#linearGradient4260"/><linearGradient id="linearGradient4183" x1="341.063" x2="340.276" y1="553.669" y2="510.178" gradientUnits="userSpaceOnUse" xlink:href="#linearGradient4491"/></defs><metadata id="metadata2990"/><g id="layer1"><g id="g4177" transform="matrix(1.023376,0,0,1.023376,-0.51331238,-0.64800515)"><g id="layer1-0" transform="matrix(1.0711393,0,0,1.0711393,-413.76277,-537.1175)"><g id="layer1-29" transform="matrix(1.0520189,0,0,1.0520189,-2.22122,-27.871326)"><g id="layer1-2" fill="url(#linearGradient4258)" fill-opacity="1" transform="translate(0.80041,-4.19993)"><g id="g4275" fill="url(#linearGradient4268)" fill-opacity="1" transform="matrix(0.81364921,0,0,0.81364921,112.58579,94.676663)"><path id="path3" fill="url(#linearGradient4183)" fill-opacity="1" d="m 358.77104,516.99793 c -4.8234,-3.92542 -11.22786,-6.08712 -18.03349,-6.08712 -6.80575,0 -13.21022,2.16185 -18.03349,6.08712 -4.86535,3.9595 -7.54482,9.23646 -7.54482,14.859 0,5.36635 2.44243,10.41704 6.89488,14.30854 -0.0803,0.18057 -0.144,0.37054 -0.18468,0.57028 l -1.46301,7.19633 c -0.17395,0.85525 0.0599,1.36523 0.28634,1.64263 0.26189,0.3204 0.65007,0.49697 1.09314,0.49697 l 0,0 c 0.33452,0 0.69405,-0.0987 1.06868,-0.29345 l 8.50944,-4.42073 c 2.94612,0.94828 6.11338,1.44552 9.37335,1.44552 6.80578,0 13.21008,-2.16181 18.03351,-6.08708 4.8652,-3.95938 7.54467,-9.23635 7.54467,-14.85888 0,-5.62267 -2.67934,-10.89963 -7.54454,-14.85913 z"/></g></g></g></g><path id="path4481" fill="#fff" fill-opacity=".847" stroke="#000" stroke-dasharray="none" stroke-linecap="butt" stroke-linejoin="miter" stroke-miterlimit="4" stroke-opacity="1" stroke-width="0" d="M 14.453378,15.715908 17.044286,13.125 23.953378,20.034091 30.86247,13.125 33.453378,15.715908 26.544287,22.625 33.453378,29.534092 30.86247,32.125 23.953378,25.215909 17.044286,32.125 14.453378,29.534092 21.362469,22.625 Z"/></g></g></svg>