<svg xmlns="http://www.w3.org/2000/svg" xmlns:svg="http://www.w3.org/2000/svg" xmlns:xlink="http://www.w3.org/1999/xlink" id="svg5453" width="48" height="48" version="1.1"><defs id="defs5455"><linearGradient id="linearGradient4422"><stop id="stop4424" offset="0" stop-color="#197ff1" stop-opacity="1"/><stop id="stop4426" offset="1" stop-color="#21c6fb" stop-opacity="1"/></linearGradient><linearGradient id="linearGradient4232"><stop id="stop4234-0" offset="0" stop-color="#3889e9" stop-opacity="1"/><stop id="stop4236" offset="1" stop-color="#5ea5fb" stop-opacity="1"/></linearGradient><linearGradient id="linearGradient3426" x1="399.571" x2="399.571" y1="545.798" y2="517.798" gradientUnits="userSpaceOnUse" xlink:href="#linearGradient4232"/><linearGradient id="linearGradient4181" x1="399.994" x2="399.994" y1="545.139" y2="518.139" gradientUnits="userSpaceOnUse" xlink:href="#linearGradient4422"/></defs><metadata id="metadata5458"/><g id="layer1" transform="translate(-384.57143,-499.798)"><g id="layer1-9" transform="matrix(1.4375,0,0,1.4375,-167.32475,-240.70215)"><g id="g4284" transform="matrix(1.1428581,0,0,1.1428581,-57.327415,-75.995025)"><g id="layer1-3" stroke="none" stroke-dasharray="none" stroke-miterlimit="4" stroke-opacity="1" stroke-width="1.3" transform="translate(0.13524268,0.04517549)"><circle id="path3377" cx="400.571" cy="531.798" r="14" fill="url(#linearGradient4181)" fill-opacity="1" stroke="none" stroke-dasharray="none" stroke-dashoffset="0" stroke-miterlimit="4" stroke-opacity="1" stroke-width="1.3" opacity="1"/><circle id="circle4174" cx="400.571" cy="531.798" r="14" fill="#5ea5fb" fill-opacity="0" stroke="none" stroke-dasharray="none" stroke-dashoffset="0" stroke-miterlimit="4" stroke-opacity="1" stroke-width="1.3" opacity="1"/><circle id="ellipse4233" cx="400.571" cy="531.798" r="0" fill="url(#linearGradient3426)" fill-opacity="1" stroke="none" stroke-dasharray="none" stroke-dashoffset="0" stroke-miterlimit="4" stroke-opacity="1" stroke-width="1.3" opacity="1"/></g><g id="search19" fill="#fff" fill-opacity=".847" transform="matrix(0.08851385,0,0,0.08851385,394.63662,525.89133)"><path id="path1074" fill="#fff" fill-opacity=".847" d="M 132.77,118.025 104.825,90.08 c 6.735,-9.722 10.104,-20.559 10.104,-32.508 0,-7.767 -1.508,-15.195 -4.523,-22.283 C 107.392,28.2 103.318,22.09 98.185,16.957 93.052,11.824 86.943,7.75 79.855,4.736 72.765,1.721 65.337,0.214 57.57,0.214 49.803,0.214 42.375,1.721 35.287,4.736 28.198,7.75 22.088,11.824 16.955,16.957 11.822,22.09 7.748,28.201 4.734,35.289 1.719,42.378 0.212,49.805 0.212,57.572 c 0,7.767 1.507,15.193 4.522,22.283 3.014,7.088 7.088,13.197 12.221,18.33 5.133,5.134 11.244,9.207 18.332,12.222 7.089,3.015 14.516,4.522 22.283,4.522 11.951,0 22.787,-3.369 32.509,-10.104 l 27.945,27.863 c 1.955,2.064 4.397,3.096 7.332,3.096 2.824,0 5.27,-1.032 7.332,-3.096 2.064,-2.063 3.096,-4.508 3.096,-7.332 0.001,-2.877 -1.003,-5.322 -3.014,-7.331 l 0,0 z M 83.357,83.357 C 76.214,90.5 67.619,94.071 57.57,94.071 47.522,94.071 38.927,90.499 31.784,83.357 24.641,76.214 21.07,67.62 21.07,57.571 c 0,-10.048 3.572,-18.644 10.714,-25.786 7.142,-7.143 15.738,-10.714 25.786,-10.714 10.048,0 18.643,3.572 25.787,10.714 7.143,7.142 10.715,15.738 10.715,25.786 0,10.049 -3.573,18.643 -10.715,25.786 l 0,0 z"/></g></g></g></g></svg>