<svg xmlns="http://www.w3.org/2000/svg" xmlns:osb="http://www.openswatchbook.org/uri/2009/osb" xmlns:svg="http://www.w3.org/2000/svg" xmlns:xlink="http://www.w3.org/1999/xlink" id="svg5453" width="48" height="48" version="1.1"><defs id="defs5455"><linearGradient id="linearGradient4271"><stop id="stop4273" offset="0" stop-color="#2a2c2f" stop-opacity="1"/><stop id="stop4275" offset="1" stop-color="#424649" stop-opacity="1"/></linearGradient><clipPath id="clipPath4528" clipPathUnits="userSpaceOnUse"><rect id="rect4530" width="32" height="32" x="8" y="8" fill="url(#linearGradient4532)" fill-opacity="1" stroke="none" stroke-dasharray="none" stroke-miterlimit="4" stroke-opacity=".55" stroke-width="2.8" opacity="1" ry="16"/></clipPath><linearGradient id="linearGradient4532" x1="409.571" x2="409.571" y1="543.798" y2="503.798" gradientTransform="matrix(0.79999996,0,0,0.79999996,-302.85712,-395.03837)" gradientUnits="userSpaceOnUse" xlink:href="#linearGradient4271"/><clipPath id="clipPath4534" clipPathUnits="userSpaceOnUse"><rect id="rect4536" width="32" height="32" x="8" y="8" fill="url(#linearGradient4532)" fill-opacity="1" stroke="none" stroke-dasharray="none" stroke-miterlimit="4" stroke-opacity=".55" stroke-width="2.8" opacity="1" ry="16"/></clipPath><clipPath id="clipPath4544" clipPathUnits="userSpaceOnUse"><rect id="rect4546" width="32" height="32" x="392.571" y="507.798" fill="url(#linearGradient4548)" fill-opacity="1" stroke="none" stroke-dasharray="none" stroke-miterlimit="4" stroke-opacity=".55" stroke-width="2.8" opacity="1" ry="16"/></clipPath><linearGradient id="linearGradient4548" x1="409.571" x2="409.571" y1="543.798" y2="503.798" gradientTransform="matrix(0.79999995,0,0,0.79999995,81.714312,104.75963)" gradientUnits="userSpaceOnUse" xlink:href="#linearGradient4271"/><clipPath id="clipPath4550" clipPathUnits="userSpaceOnUse"><rect id="rect4552" width="32" height="32" x="392.571" y="507.798" fill="url(#linearGradient4548)" fill-opacity="1" stroke="none" stroke-dasharray="none" stroke-miterlimit="4" stroke-opacity=".55" stroke-width="2.8" opacity="1" ry="16"/></clipPath><clipPath id="clipPath4562" clipPathUnits="userSpaceOnUse"><rect id="rect4564" width="32" height="32" x="392.571" y="507.798" fill="url(#linearGradient4548)" fill-opacity="1" stroke="none" stroke-dasharray="none" stroke-miterlimit="4" stroke-opacity=".55" stroke-width="2.8" opacity="1" ry="16"/></clipPath><clipPath id="clipPath4568" clipPathUnits="userSpaceOnUse"><rect id="rect4570" width="32" height="32" x="392.571" y="507.798" fill="url(#linearGradient4548)" fill-opacity="1" stroke="none" stroke-dasharray="none" stroke-miterlimit="4" stroke-opacity=".55" stroke-width="2.8" opacity="1" ry="16"/></clipPath><clipPath id="clipPath4578" clipPathUnits="userSpaceOnUse"><rect id="rect4580" width="32" height="32" x="392.571" y="507.798" fill="url(#linearGradient4548)" fill-opacity="1" stroke="none" stroke-dasharray="none" stroke-miterlimit="4" stroke-opacity=".55" stroke-width="2.8" opacity="1" ry="16"/></clipPath><clipPath id="clipPath4584" clipPathUnits="userSpaceOnUse"><rect id="rect4586" width="32" height="32" x="392.571" y="507.798" fill="url(#linearGradient4548)" fill-opacity="1" stroke="none" stroke-dasharray="none" stroke-miterlimit="4" stroke-opacity=".55" stroke-width="2.8" opacity="1" ry="16"/></clipPath><clipPath id="clipPath4528-1" clipPathUnits="userSpaceOnUse"><rect id="rect4530-7" width="32" height="32" x="8" y="8" fill="url(#linearGradient4532)" fill-opacity="1" stroke="none" stroke-dasharray="none" stroke-miterlimit="4" stroke-opacity=".55" stroke-width="2.8" opacity="1" ry="16"/></clipPath><clipPath id="clipPath4534-1" clipPathUnits="userSpaceOnUse"><rect id="rect4536-8" width="32" height="32" x="8" y="8" fill="url(#linearGradient4532)" fill-opacity="1" stroke="none" stroke-dasharray="none" stroke-miterlimit="4" stroke-opacity=".55" stroke-width="2.8" opacity="1" ry="16"/></clipPath><clipPath id="clipPath4544-1" clipPathUnits="userSpaceOnUse"><rect id="rect4546-1" width="32" height="32" x="392.571" y="507.798" fill="url(#linearGradient4548)" fill-opacity="1" stroke="none" stroke-dasharray="none" stroke-miterlimit="4" stroke-opacity=".55" stroke-width="2.8" opacity="1" ry="16"/></clipPath><clipPath id="clipPath4550-4" clipPathUnits="userSpaceOnUse"><rect id="rect4552-1" width="32" height="32" x="392.571" y="507.798" fill="url(#linearGradient4548)" fill-opacity="1" stroke="none" stroke-dasharray="none" stroke-miterlimit="4" stroke-opacity=".55" stroke-width="2.8" opacity="1" ry="16"/></clipPath><clipPath id="clipPath4562-8" clipPathUnits="userSpaceOnUse"><rect id="rect4564-8" width="32" height="32" x="392.571" y="507.798" fill="url(#linearGradient4548)" fill-opacity="1" stroke="none" stroke-dasharray="none" stroke-miterlimit="4" stroke-opacity=".55" stroke-width="2.8" opacity="1" ry="16"/></clipPath><clipPath id="clipPath4568-4" clipPathUnits="userSpaceOnUse"><rect id="rect4570-1" width="32" height="32" x="392.571" y="507.798" fill="url(#linearGradient4548)" fill-opacity="1" stroke="none" stroke-dasharray="none" stroke-miterlimit="4" stroke-opacity=".55" stroke-width="2.8" opacity="1" ry="16"/></clipPath><clipPath id="clipPath4578-8" clipPathUnits="userSpaceOnUse"><rect id="rect4580-7" width="32" height="32" x="392.571" y="507.798" fill="url(#linearGradient4548)" fill-opacity="1" stroke="none" stroke-dasharray="none" stroke-miterlimit="4" stroke-opacity=".55" stroke-width="2.8" opacity="1" ry="16"/></clipPath><clipPath id="clipPath4584-9" clipPathUnits="userSpaceOnUse"><rect id="rect4586-2" width="32" height="32" x="392.571" y="507.798" fill="url(#linearGradient4548)" fill-opacity="1" stroke="none" stroke-dasharray="none" stroke-miterlimit="4" stroke-opacity=".55" stroke-width="2.8" opacity="1" ry="16"/></clipPath><linearGradient id="linearGradient4227"><stop id="stop4229" offset="0" stop-color="#2e3436" stop-opacity="1"/><stop id="stop4231" offset="1" stop-color="#555753" stop-opacity="1"/></linearGradient><linearGradient id="linearGradient4222" x1="409.571" x2="409.571" y1="542.798" y2="507.798" gradientTransform="matrix(1.0523327,0,0,1.0276135,-21.151387,-14.039869)" gradientUnits="userSpaceOnUse" xlink:href="#linearGradient4201"/><linearGradient id="linearGradient5263"><stop id="stop5265" offset="0" stop-color="#a0d5ff" stop-opacity="1"/><stop id="stop5267" offset="1" stop-color="#a0d5ff" stop-opacity="1"/></linearGradient><linearGradient id="linearGradient4149" x1="400.571" x2="400.571" y1="545.798" y2="517.798" gradientTransform="matrix(0.92857108,0,0,0.92857057,28.612354,37.986142)" gradientUnits="userSpaceOnUse" xlink:href="#linearGradient4143"/><linearGradient id="linearGradient4143"><stop id="stop4145" offset="0" stop-color="#197cf1" stop-opacity="1"/><stop id="stop4147" offset="1" stop-color="#20bcfa" stop-opacity="1"/></linearGradient><linearGradient id="linearGradient4290"><stop id="stop4292" offset="0" stop-color="#7cbaf8" stop-opacity="1"/><stop id="stop4294" offset="1" stop-color="#f4fcff" stop-opacity="1"/></linearGradient><linearGradient id="linearGradient3077" x1="16" x2="16" y1="30" y2="2" gradientTransform="matrix(1.3793103,0,0,1.3793103,1.2413794,1005.6035)" gradientUnits="userSpaceOnUse" xlink:href="#linearGradient4290"/><linearGradient id="linearGradient3083" x1="400.571" x2="400.571" y1="545.798" y2="517.798" gradientTransform="matrix(1.2807877,0,0,1.280787,-450.11598,346.31133)" gradientUnits="userSpaceOnUse" xlink:href="#linearGradient4143"/><linearGradient id="linearGradient3870" x1="16" x2="16" y1="30" y2="2" gradientTransform="matrix(1.3793103,0,0,1.3793103,-18.758621,1005.6035)" gradientUnits="userSpaceOnUse" xlink:href="#linearGradient4290"/><linearGradient id="linearGradient4207" osb:paint="gradient"><stop id="stop3371" offset="0" stop-color="#3498db" stop-opacity="1"/><stop id="stop3373" offset="1" stop-color="#3498db" stop-opacity="0"/></linearGradient><linearGradient id="linearGradient5263-0"><stop id="stop5265-3" offset="0" stop-color="#a0d5ff" stop-opacity="1"/><stop id="stop5267-4" offset="1" stop-color="#fff" stop-opacity="1"/></linearGradient><linearGradient id="linearGradient4392" x1="343.771" x2="343.771" y1="506.998" y2="496.998" gradientTransform="matrix(0.49999997,0,0,0.49999997,224.5853,298.49919)" gradientUnits="userSpaceOnUse" xlink:href="#linearGradient4143"/><linearGradient id="linearGradient4394" x1="343.771" x2="343.771" y1="506.998" y2="496.998" gradientTransform="matrix(0.49999997,0,0,0.49999997,230.38531,298.4992)" gradientUnits="userSpaceOnUse" xlink:href="#linearGradient4143"/><linearGradient id="linearGradient4298"><stop id="stop4300" offset="0" stop-color="#fd415a" stop-opacity="1"/><stop id="stop4302" offset="1" stop-color="#fc593d" stop-opacity="1"/></linearGradient><linearGradient id="linearGradient4491"><stop id="stop4493" offset="0" stop-color="#fd3865" stop-opacity="1"/><stop id="stop4495" offset="1" stop-color="#fc5e37" stop-opacity="1"/></linearGradient><linearGradient id="linearGradient4290-1"><stop id="stop4292-9" offset="0" stop-color="#a5a5a5" stop-opacity="1"/><stop id="stop4294-1" offset="1" stop-color="#f5f2f5" stop-opacity="1"/></linearGradient><linearGradient id="linearGradient4201"><stop id="stop4203" offset="0" stop-color="#306cad" stop-opacity="1"/><stop id="stop4205" offset="1" stop-color="#4598d6" stop-opacity="1"/></linearGradient></defs><metadata id="metadata5458"/><g id="layer1" transform="translate(-384.57143,-499.798)"><g id="g4403" transform="translate(51.385479,-6.0099446)"><g id="layer1-1" transform="translate(-117.48432,12.127178)"><g id="layer1-2" transform="translate(-44.851169,1.8910219)"><g id="g4256" transform="matrix(0.90595131,0,0,0.90595131,131.92314,54.175376)"><g id="g4247" transform="matrix(1.036658,0,0,1.036658,-15.633529,-19.192846)"><rect id="rect4195" width="46.303" height="34.939" x="385.65" y="507.78" fill="url(#linearGradient4222)" fill-opacity="1" stroke="none" stroke-dasharray="none" stroke-linecap="round" stroke-linejoin="round" stroke-miterlimit="4" stroke-opacity="1" stroke-width=".2" opacity="1" ry="1.644" transform="matrix(1.1038121,0,0,1.1038121,-23.304884,-69.47145)"/><g id="g4250" fill="#353535" fill-opacity="1" transform="matrix(0.91967286,0,0,0.91967286,106.14246,17.994266)"><circle id="path4224" cx="373.366" cy="518.737" r="2.25" fill="#353535" fill-opacity="1" stroke="none" stroke-dasharray="none" stroke-linecap="round" stroke-linejoin="round" stroke-miterlimit="4" stroke-opacity="1" stroke-width=".2" opacity="1"/><circle id="path4224-4" cx="367.839" cy="518.785" r="2.25" fill="#353535" fill-opacity="1" stroke="none" stroke-dasharray="none" stroke-linecap="round" stroke-linejoin="round" stroke-miterlimit="4" stroke-opacity="1" stroke-width=".2" opacity="1"/><circle id="path4224-8" cx="362.405" cy="518.838" r="2.25" fill="#353535" fill-opacity="1" stroke="none" stroke-dasharray="none" stroke-linecap="round" stroke-linejoin="round" stroke-miterlimit="4" stroke-opacity="1" stroke-width=".2" opacity="1"/></g><g id="terminal7" fill="#353535" fill-opacity="1" transform="matrix(0.11488639,0,0,0.10931174,407.6586,498.26363)"><g id="g1270" fill="#353535" fill-opacity="1"><path id="path1272" fill="#353535" fill-opacity="1" d="m 133.523,78.097 c -0.488,-0.489 -1.113,-0.733 -1.873,-0.733 l -78.215,0 c -0.76,0 -1.385,0.244 -1.874,0.733 -0.488,0.489 -0.732,1.113 -0.732,1.874 l 0,5.215 c 0,0.76 0.244,1.385 0.732,1.873 0.489,0.488 1.114,0.733 1.874,0.733 l 78.215,0 c 0.76,0 1.385,-0.245 1.873,-0.733 0.488,-0.488 0.732,-1.113 0.732,-1.873 l 0,-5.215 c 0.001,-0.761 -0.243,-1.385 -0.732,-1.874 l 0,0 z"/><path id="path1274" fill="#353535" fill-opacity="1" d="M 8.38,1.022 C 7.837,0.479 7.212,0.207 6.506,0.207 5.8,0.207 5.176,0.479 4.633,1.022 L 0.559,5.096 c -0.543,0.543 -0.814,1.167 -0.814,1.874 0,0.707 0.271,1.331 0.814,1.874 l 32.02,32.019 -32.02,32.02 c -0.543,0.543 -0.814,1.168 -0.814,1.873 0,0.707 0.271,1.331 0.814,1.874 l 4.074,4.073 c 0.543,0.544 1.167,0.814 1.873,0.814 0.706,0 1.331,-0.271 1.874,-0.814 L 46.347,42.737 c 0.543,-0.543 0.814,-1.169 0.814,-1.875 0,-0.706 -0.271,-1.331 -0.814,-1.874 L 8.38,1.022 l 0,0 z"/></g></g></g></g></g></g></g></g></svg>