<svg xmlns="http://www.w3.org/2000/svg" xmlns:osb="http://www.openswatchbook.org/uri/2009/osb" xmlns:svg="http://www.w3.org/2000/svg" xmlns:xlink="http://www.w3.org/1999/xlink" id="svg5453" width="48" height="48" version="1.1"><defs id="defs5455"><linearGradient id="linearGradient4207" osb:paint="gradient"><stop id="stop3371" offset="0" stop-color="#3498db" stop-opacity="1"/><stop id="stop3373" offset="1" stop-color="#3498db" stop-opacity="0"/></linearGradient><linearGradient id="linearGradient4243" x1="466.376" x2="466.489" y1="542.679" y2="502.377" gradientTransform="matrix(1.0155171,0,0,0.88638161,-65.086805,59.629401)" gradientUnits="userSpaceOnUse" xlink:href="#linearGradient4793"/><linearGradient id="linearGradient4232"><stop id="stop4234" offset="0" stop-color="#333" stop-opacity="1"/><stop id="stop4236" offset="1" stop-color="#353535" stop-opacity="1"/></linearGradient><linearGradient id="linearGradient5263-5"><stop id="stop5265-0" offset="0" stop-color="#e9e9e9" stop-opacity="1"/><stop id="stop5267-9" offset="1" stop-color="#f9f9f9" stop-opacity="1"/></linearGradient><linearGradient id="linearGradient6396" x1="258.657" x2="257.505" y1="1.708" y2="564.005" gradientUnits="userSpaceOnUse" xlink:href="#linearGradient4232"/><linearGradient id="linearGradient4819" x1="258.657" x2="257.505" y1="1.708" y2="564.005" gradientUnits="userSpaceOnUse" xlink:href="#linearGradient5263-5"/><linearGradient id="linearGradient4821" x1="258.657" x2="257.505" y1="1.708" y2="564.005" gradientUnits="userSpaceOnUse" xlink:href="#linearGradient5263-5"/><linearGradient id="linearGradient4823" x1="258.657" x2="257.505" y1="1.708" y2="564.005" gradientUnits="userSpaceOnUse" xlink:href="#linearGradient5263-5"/><linearGradient id="linearGradient4825" x1="258.657" x2="257.505" y1="1.708" y2="564.005" gradientUnits="userSpaceOnUse" xlink:href="#linearGradient5263-5"/><linearGradient id="linearGradient4793"><stop id="stop4795" offset="0" stop-color="#54b60f" stop-opacity="1"/><stop id="stop4797" offset="1" stop-color="#92dc41" stop-opacity="1"/></linearGradient><style id="current-color-scheme" type="text/css"/><style id="current-color-scheme-8" type="text/css"/><style id="current-color-scheme-7" type="text/css"/><style id="current-color-scheme-5" type="text/css"/><style id="current-color-scheme-8-2" type="text/css"/><style id="current-color-scheme-7-4" type="text/css"/></defs><metadata id="metadata5458"/><g id="layer1" transform="translate(-384.57143,-499.798)"><g id="layer1-5" transform="matrix(1.0109246,0,0,1.0109246,-4.0895328,-5.9573398)"><g id="g6423" transform="matrix(0.97468474,-0.11344733,0.11344733,0.97468474,-48.817551,59.404662)"><g id="g62989" fill="url(#linearGradient6396)" fill-opacity="1" transform="matrix(0.08965014,1.7994648e-4,1.8377961e-4,-0.07824996,386.38244,547.88505)"><g id="g62991" fill="url(#linearGradient4825)" fill-opacity="1" transform="matrix(1.0634691,0,0,1,-1.1424443,0)"><g id="g62997" fill="url(#linearGradient4823)" fill-opacity="1"><g id="g62999" fill="url(#linearGradient4821)" fill-opacity="1"><path id="path63007" fill="url(#linearGradient4819)" fill-opacity="1" stroke="none" d="m 418,467.5 c 0,9.979 8.175,18.289 19,20.12 l 0,27.76 c -10.825,1.831 -19,10.141 -19,20.12 0,9.979 8.175,18.289 19,20.12 l 0,29.38 -24.228,0 c -1.474,-11.318 -9.988,-20 -20.272,-20 -10.284,0 -18.798,8.682 -20.272,20 l -27.456,0 c -1.474,-11.318 -9.988,-20 -20.272,-20 -10.284,0 -18.798,8.682 -20.272,20 l -23.608,0 c -1.832,-10.825 -10.141,-19 -20.12,-19 -9.979,0 -18.288,8.175 -20.12,19 l -27.76,0 c -1.831,-10.825 -10.141,-19 -20.12,-19 -9.979,0 -18.289,8.175 -20.12,19 l -21.76,0 c -1.831,-10.825 -10.141,-19 -20.12,-19 -9.979,0 -18.289,8.175 -20.12,19 l -27.76,0 C 80.789,574.175 72.479,566 62.5,566 c -9.979,0 -18.289,8.175 -20.12,19 L 18,585 18,552.62 c 10.825,-1.832 19,-10.141 19,-20.12 0,-9.979 -8.175,-18.288 -19,-20.12 l 0,-25.426 c 12.279,-0.676 22,-9.572 22,-20.454 0,-10.882 -9.721,-19.778 -22,-20.454 l 0,-25.163 c 11.803,-1.089 21,-9.798 21,-20.383 0,-10.585 -9.197,-19.294 -21,-20.383 l 0,-21.163 C 18.497,358.981 18.996,359 19.5,359 32.479,359 43,349.822 43,338.5 43,327.178 32.479,318 19.5,318 c -0.504,0 -1.003,0.019 -1.5,0.046 l 0,-26.162 c 11.803,-1.09 21,-9.799 21,-20.384 0,-10.585 -9.197,-19.294 -21,-20.384 l 0,-28.344 c 11.318,-1.474 20,-9.988 20,-20.272 0,-10.284 -8.682,-18.798 -20,-20.272 l 0,-27.274 C 30.279,154.278 40,145.382 40,134.5 40,123.618 30.279,114.722 18,114.046 L 18,88.954 C 30.279,88.278 40,79.382 40,68.5 40,57.618 30.279,48.722 18,48.046 L 18,21 40.228,21 C 40.079,22.143 40,23.311 40,24.5 40,37.479 49.178,48 60.5,48 71.822,48 81,37.479 81,24.5 81,23.311 80.921,22.143 80.772,21 l 27.456,0 C 108.079,22.143 108,23.311 108,24.5 108,37.479 117.178,48 128.5,48 139.822,48 149,37.479 149,24.5 c 0,-1.189 -0.079,-2.357 -0.228,-3.5 l 21.456,0 C 170.079,22.143 170,23.311 170,24.5 170,37.479 179.178,48 190.5,48 201.822,48 211,37.479 211,24.5 c 0,-1.189 -0.079,-2.357 -0.228,-3.5 l 27.456,0 C 238.079,22.143 238,23.311 238,24.5 238,37.479 247.178,48 258.5,48 269.822,48 279,37.479 279,24.5 c 0,-1.189 -0.079,-2.357 -0.228,-3.5 l 23.344,0 C 302.041,21.821 302,22.655 302,23.5 302,36.479 311.178,47 322.5,47 333.822,47 343,36.479 343,23.5 c 0,-0.845 -0.041,-1.679 -0.116,-2.5 l 27.232,0 C 370.041,21.821 370,22.655 370,23.5 370,36.479 379.178,47 390.5,47 401.822,47 411,36.479 411,23.5 c 0,-0.845 -0.041,-1.679 -0.116,-2.5 l 26.116,0 0,27.116 c -11.803,1.09 -21,9.799 -21,20.384 0,10.585 9.197,19.294 21,20.384 l 0,27.232 c -11.803,1.09 -21,9.799 -21,20.384 0,10.585 9.197,19.294 21,20.384 l 0,24.232 c -11.803,1.09 -21,9.799 -21,20.384 0,10.585 9.197,19.294 21,20.384 l 0,27.232 c -11.803,1.09 -21,9.799 -21,20.384 0,10.585 9.197,19.294 21,20.384 l 0,23.233 c -11.803,1.089 -21,9.798 -21,20.383 0,10.585 9.197,19.294 21,20.383 l 0,27.234 c -11.803,1.089 -21,9.798 -21,20.383 0,10.585 9.197,19.294 21,20.383 l 0,25.497 c -10.825,1.831 -19,10.141 -19,20.12"/></g></g></g></g><rect id="rect4221" width="31.075" height="36.076" x="393.593" y="504.857" fill="url(#linearGradient4243)" fill-opacity="1" stroke="none" stroke-dasharray="none" stroke-linecap="round" stroke-linejoin="round" stroke-miterlimit="4" stroke-opacity="1" stroke-width=".202" opacity="1" ry=".532" transform="matrix(0.99999799,0.0020072,-0.00234862,0.99999724,0,0)"/></g></g><g id="g8354" fill="#233f57" fill-opacity="1" transform="matrix(0.53259463,-0.20230019,0.20230019,0.53259463,-3.1286571,338.93079)"><g id="text4447" fill="#fff" fill-opacity="1" stroke="none" stroke-linecap="butt" stroke-linejoin="miter" stroke-opacity="1" stroke-width="1" font-family="sans-serif" font-size="11.061" font-style="normal" font-weight="normal" letter-spacing="0" transform="matrix(3.6990793,0.86845257,-0.86845257,3.6990793,-1305.5125,-1510.0785)" word-spacing="0" style="line-height:125%"><path id="path4452" fill="#fff" fill-opacity=".852" d="m 602.54287,413.97432 q 1.81405,0 3.05291,1.24992 1.23887,1.24992 1.23887,3.01973 0,0.99551 -0.43139,1.64813 -0.42033,0.65262 -1.2278,0.65262 -0.8296,0 -1.23887,-0.80748 -0.542,0.80748 -1.54858,0.80748 -0.90702,0 -1.52645,-0.6305 -0.61943,-0.64155 -0.61943,-1.62601 0,-0.97339 0.61943,-1.61494 0.61943,-0.64156 1.48221,-0.64156 0.85172,0 1.41584,0.65262 l 0.0443,0 0,-0.49776 0.79641,0 0,2.887 q 0,0.28759 0.15486,0.51988 0.16592,0.23228 0.49775,0.23228 0.78536,0 0.78536,-1.58176 0,-1.46009 -1.01764,-2.46667 -1.01764,-1.00657 -2.47773,-1.00657 -1.46009,0 -2.47773,1.00657 -1.01763,1.00658 -1.01763,2.46667 0,1.46009 1.01763,2.46666 1.01764,1.00658 2.47773,1.00658 0.78535,0 1.40478,-0.30972 l 0.30972,0.75217 q -0.77429,0.35396 -1.7145,0.35396 -1.83617,0 -3.0861,-1.23886 -1.24992,-1.24992 -1.24992,-3.03079 0,-1.76981 1.24992,-3.01973 1.26099,-1.24992 3.0861,-1.24992 z m -1.0287,5.34259 q 0.39821,0.38715 0.95127,0.38715 0.55307,0 0.94021,-0.38715 0.39821,-0.38714 0.39821,-1.0287 0,-0.64155 -0.39821,-1.02869 -0.38714,-0.38715 -0.94021,-0.38715 -0.55306,0 -0.95127,0.38715 -0.38714,0.38714 -0.38714,1.02869 0,0.64156 0.38714,1.0287 z" font-family="Product Sans" font-stretch="normal" font-style="normal" font-variant="normal" font-weight="normal" style="-inkscape-font-specification:'Product Sans'"/></g></g></g></svg>