<svg xmlns="http://www.w3.org/2000/svg" xmlns:osb="http://www.openswatchbook.org/uri/2009/osb" xmlns:svg="http://www.w3.org/2000/svg" xmlns:xlink="http://www.w3.org/1999/xlink" id="svg5453" width="48" height="48" version="1.1"><defs id="defs5455"><linearGradient id="linearGradient4227"><stop id="stop4229" offset="0" stop-color="#2e3436" stop-opacity="1"/><stop id="stop4231" offset="1" stop-color="#555753" stop-opacity="1"/></linearGradient><linearGradient id="linearGradient4222" x1="409.571" x2="409.571" y1="542.798" y2="507.798" gradientTransform="matrix(1.0523327,0,0,1.0276135,-21.151387,-14.039869)" gradientUnits="userSpaceOnUse" xlink:href="#linearGradient4227"/><linearGradient id="linearGradient4207" osb:paint="gradient"><stop id="stop3371" offset="0" stop-color="#3498db" stop-opacity="1"/><stop id="stop3373" offset="1" stop-color="#3498db" stop-opacity="0"/></linearGradient></defs><metadata id="metadata5458"/><g id="layer1" transform="translate(-384.57143,-499.798)"><g id="g4403" transform="translate(51.385479,-6.0099446)"><g id="layer1-1" transform="translate(-117.48432,12.127178)"><g id="layer1-2" transform="translate(-44.851169,1.8910219)"><g id="g4256" transform="matrix(0.90595131,0,0,0.90595131,131.92314,54.175376)"><g id="g4247" transform="matrix(1.036658,0,0,1.036658,-15.633529,-19.192846)"><rect id="rect4195" width="46.303" height="34.939" x="385.65" y="507.78" fill="url(#linearGradient4222)" fill-opacity="1" stroke="none" stroke-dasharray="none" stroke-linecap="round" stroke-linejoin="round" stroke-miterlimit="4" stroke-opacity="1" stroke-width=".2" opacity="1" ry="1.644" transform="matrix(1.1038121,0,0,1.1038121,-23.304884,-69.47145)"/><g id="g4250" fill="#353535" fill-opacity="1" transform="matrix(0.91967286,0,0,0.91967286,106.14246,17.994266)"><circle id="path4224" cx="373.366" cy="518.737" r="2.25" fill="#76e049" fill-opacity="1" stroke="none" stroke-dasharray="none" stroke-linecap="round" stroke-linejoin="round" stroke-miterlimit="4" stroke-opacity="1" stroke-width=".2" opacity="1"/><circle id="path4224-4" cx="367.839" cy="518.785" r="2.25" fill="#76e049" fill-opacity="1" stroke="none" stroke-dasharray="none" stroke-linecap="round" stroke-linejoin="round" stroke-miterlimit="4" stroke-opacity="1" stroke-width=".2" opacity="1"/><circle id="path4224-8" cx="362.405" cy="518.838" r="2.25" fill="#76e049" fill-opacity="1" stroke="none" stroke-dasharray="none" stroke-linecap="round" stroke-linejoin="round" stroke-miterlimit="4" stroke-opacity="1" stroke-width=".2" opacity="1"/></g><g id="terminal7" fill="#353535" fill-opacity="1" transform="matrix(0.11488639,0,0,0.10931174,407.6586,498.26363)"><g id="g1270" fill="#353535" fill-opacity="1"><path id="path1272" fill="#76e049" fill-opacity="1" d="m 133.523,78.097 c -0.488,-0.489 -1.113,-0.733 -1.873,-0.733 l -78.215,0 c -0.76,0 -1.385,0.244 -1.874,0.733 -0.488,0.489 -0.732,1.113 -0.732,1.874 l 0,5.215 c 0,0.76 0.244,1.385 0.732,1.873 0.489,0.488 1.114,0.733 1.874,0.733 l 78.215,0 c 0.76,0 1.385,-0.245 1.873,-0.733 0.488,-0.488 0.732,-1.113 0.732,-1.873 l 0,-5.215 c 0.001,-0.761 -0.243,-1.385 -0.732,-1.874 l 0,0 z"/><path id="path1274" fill="#76e049" fill-opacity="1" d="M 8.38,1.022 C 7.837,0.479 7.212,0.207 6.506,0.207 5.8,0.207 5.176,0.479 4.633,1.022 L 0.559,5.096 c -0.543,0.543 -0.814,1.167 -0.814,1.874 0,0.707 0.271,1.331 0.814,1.874 l 32.02,32.019 -32.02,32.02 c -0.543,0.543 -0.814,1.168 -0.814,1.873 0,0.707 0.271,1.331 0.814,1.874 l 4.074,4.073 c 0.543,0.544 1.167,0.814 1.873,0.814 0.706,0 1.331,-0.271 1.874,-0.814 L 46.347,42.737 c 0.543,-0.543 0.814,-1.169 0.814,-1.875 0,-0.706 -0.271,-1.331 -0.814,-1.874 L 8.38,1.022 l 0,0 z"/></g></g></g></g></g></g></g></g></svg>