<svg xmlns="http://www.w3.org/2000/svg" xmlns:svg="http://www.w3.org/2000/svg" xmlns:xlink="http://www.w3.org/1999/xlink" id="svg5453" width="48" height="48" version="1.1"><defs id="defs5455"><linearGradient id="linearGradient4403"><stop id="stop4405" offset="0" stop-color="#ececec" stop-opacity="1"/><stop id="stop4407" offset="1" stop-color="#fefefe" stop-opacity="1"/></linearGradient><linearGradient id="linearGradient4393"><stop id="stop4395" offset="0" stop-color="#ececec" stop-opacity="1"/><stop id="stop4397" offset="1" stop-color="#000" stop-opacity="0"/></linearGradient><linearGradient id="linearGradient4320"><stop id="stop4322" offset="0" stop-color="#e42238" stop-opacity="1"/><stop id="stop4324" offset="1" stop-color="#fd6820" stop-opacity="1"/></linearGradient><linearGradient id="linearGradient4489" x1="408.571" x2="408.571" y1="542.798" y2="503.798" gradientTransform="translate(-391.18465,503.07091)" gradientUnits="userSpaceOnUse" xlink:href="#linearGradient4320"/><linearGradient id="linearGradient8311-06"><stop id="stop8313-6" offset="0" stop-color="#a9a3d4" stop-opacity="1"/><stop id="stop4462" offset=".47" stop-color="#87baff" stop-opacity="1"/><stop id="stop8315-2" offset="1" stop-color="#89ec85" stop-opacity="1"/></linearGradient><linearGradient id="linearGradient4460" x1="0" x2="47" y1="23.5" y2="23.5" gradientUnits="userSpaceOnUse" xlink:href="#linearGradient8311-06"/><linearGradient id="linearGradient4399" x1=".001" x2="508.492" y1="254.246" y2="254.246" gradientUnits="userSpaceOnUse" xlink:href="#linearGradient4393"/><linearGradient id="linearGradient4401" x1="252.725" x2="275.512" y1="388.505" y2="88.396" gradientTransform="matrix(0.86970873,0,0,0.86970873,28.059632,31.43941)" gradientUnits="userSpaceOnUse" xlink:href="#linearGradient4403"/><linearGradient id="linearGradient4409" x1=".001" x2="508.492" y1="254.246" y2="254.246" gradientUnits="userSpaceOnUse" xlink:href="#linearGradient4393"/><linearGradient id="linearGradient4411" x1=".001" x2="508.492" y1="254.246" y2="254.246" gradientUnits="userSpaceOnUse" xlink:href="#linearGradient4393"/><linearGradient id="linearGradient4413" x1=".001" x2="508.492" y1="254.246" y2="254.246" gradientUnits="userSpaceOnUse" xlink:href="#linearGradient4393"/><linearGradient id="linearGradient4415" x1=".001" x2="508.492" y1="254.246" y2="254.246" gradientUnits="userSpaceOnUse" xlink:href="#linearGradient4393"/><linearGradient id="linearGradient4417" x1=".001" x2="508.492" y1="254.246" y2="254.246" gradientUnits="userSpaceOnUse" xlink:href="#linearGradient4393"/><linearGradient id="linearGradient4419" x1=".001" x2="508.492" y1="254.246" y2="254.246" gradientUnits="userSpaceOnUse" xlink:href="#linearGradient4393"/><linearGradient id="linearGradient4421" x1=".001" x2="508.492" y1="254.246" y2="254.246" gradientUnits="userSpaceOnUse" xlink:href="#linearGradient4393"/><linearGradient id="linearGradient4423" x1=".001" x2="508.492" y1="254.246" y2="254.246" gradientUnits="userSpaceOnUse" xlink:href="#linearGradient4393"/><linearGradient id="linearGradient4425" x1=".001" x2="508.492" y1="254.246" y2="254.246" gradientUnits="userSpaceOnUse" xlink:href="#linearGradient4393"/><linearGradient id="linearGradient4427" x1=".001" x2="508.492" y1="254.246" y2="254.246" gradientUnits="userSpaceOnUse" xlink:href="#linearGradient4393"/><linearGradient id="linearGradient4429" x1=".001" x2="508.492" y1="254.246" y2="254.246" gradientUnits="userSpaceOnUse" xlink:href="#linearGradient4393"/><linearGradient id="linearGradient4431" x1=".001" x2="508.492" y1="254.246" y2="254.246" gradientUnits="userSpaceOnUse" xlink:href="#linearGradient4393"/><linearGradient id="linearGradient4433" x1=".001" x2="508.492" y1="254.246" y2="254.246" gradientUnits="userSpaceOnUse" xlink:href="#linearGradient4393"/><linearGradient id="linearGradient4435" x1=".001" x2="508.492" y1="254.246" y2="254.246" gradientUnits="userSpaceOnUse" xlink:href="#linearGradient4393"/><linearGradient id="linearGradient4437" x1=".001" x2="508.492" y1="254.246" y2="254.246" gradientUnits="userSpaceOnUse" xlink:href="#linearGradient4393"/></defs><metadata id="metadata5458"/><g id="layer1" transform="translate(-384.57143,-499.798)"><g id="layer1-4" transform="translate(392.24401,-502.51656)"><g id="g4413" stroke-dasharray="none" stroke-miterlimit="4" stroke-width="1.317" transform="matrix(1.138587,0,0,1.138587,-3.4562036,-142.80276)"><g id="g4312" transform="matrix(1.0539376,0,0,1.0539376,-0.91298719,-55.411661)"><circle id="path4173" cx="17.387" cy="1026.869" r="20" fill="url(#linearGradient4489)" fill-opacity="1" stroke="none" stroke-dasharray="none" stroke-linecap="butt" stroke-linejoin="round" stroke-miterlimit="4" stroke-opacity="1" stroke-width="1.317" opacity="1"/><g id="g4364" fill="url(#linearGradient4399)" fill-opacity="1" transform="matrix(0.04599651,0,0,0.04599651,5.797766,1015.7124)"><path id="path4326" fill="url(#linearGradient4401)" fill-opacity="1" d="m 466.52329,169.06212 c -2.46041,-29.4379 -20.01287,-66.56055 -56.08491,-67.88772 -100.72532,-6.772423 -220.0537,-8.624033 -322.603667,0 -31.815685,3.5658 -53.6245,42.31916 -56.001414,71.75706 -5.030396,61.83368 -5.030396,97.02209 0,158.85578 2.404744,29.4379 23.661295,68.41302 56.057076,72.50326 103.765815,6.77243 222.514105,7.73954 322.603665,0 31.40083,-5.44524 53.65233,-43.06536 56.05708,-72.50326 5.00256,-61.86152 5.00256,-100.89143 -0.0278,-162.72512 z m -272.6563,161.73017 0,-158.52442 138.20715,79.27569 -138.20715,79.24873 z" opacity=".878"/></g></g></g></g></g></svg>