<svg xmlns="http://www.w3.org/2000/svg" xmlns:osb="http://www.openswatchbook.org/uri/2009/osb" xmlns:svg="http://www.w3.org/2000/svg" id="svg7384" width="16.001" height="16.002" enable-background="new" version="1.1"><metadata id="metadata90"/><title id="title8473">Paper Symbolic Icon Theme</title><defs id="defs7386"><linearGradient id="linearGradient5606" osb:paint="solid"><stop id="stop5608" offset="0" stop-color="#000" stop-opacity="1"/></linearGradient><filter id="filter7554" color-interpolation-filters="sRGB"><feBlend id="feBlend7556" in2="BackgroundImage" mode="darken"/></filter></defs><g id="layer10" display="inline" filter="url(#filter7554)" transform="translate(-385.00021,119.00392)"><path d="m 393.0002,-119.00391 c -1.66208,0 -3,1.33792 -3,3 l 0,5.00196 c 0,1.66208 1.33792,3 3,3 1.66208,0 3,-1.33792 3,-3 l 0,-5.00196 c 0,-1.66208 -1.33792,-3 -3,-3 z m -6,7.00392 0,0.99804 c 10e-6,2.96553 2.16796,5.42949 5,5.9082 l 0,2.0918 2,0 0,-2.0918 c 2.83204,-0.47871 5,-2.94267 5,-5.9082 l 0,-0.99804 -2,0 0,0.99804 c 0,2.23341 -1.76659,4 -4,4 -2.23341,0 -4,-1.76659 -4,-4 l 0,-0.99804 z" style="marker:none" id="path6346" fill="#555" fill-opacity="1" fill-rule="nonzero" stroke="none" stroke-width="2" color="#bebebe" display="inline" overflow="visible" visibility="visible"/></g></svg>