<svg xmlns="http://www.w3.org/2000/svg" xmlns:osb="http://www.openswatchbook.org/uri/2009/osb" xmlns:svg="http://www.w3.org/2000/svg" id="svg7384" width="16" height="16.003" enable-background="new" version="1.1"><metadata id="metadata90"/><title id="title8473">Paper Symbolic Icon Theme</title><defs id="defs7386"><linearGradient id="linearGradient5606" osb:paint="solid"><stop id="stop5608" offset="0" stop-color="#000" stop-opacity="1"/></linearGradient><filter id="filter7554" color-interpolation-filters="sRGB"><feBlend id="feBlend7556" in2="BackgroundImage" mode="darken"/></filter></defs><g id="layer10" display="inline" filter="url(#filter7554)" transform="translate(-525.00061,119.0033)"><path id="path10481" fill="#555" fill-opacity="1" stroke="none" stroke-opacity="1" d="m 533.0002,-119 c -3.324,0 -6,2.676 -6,6 l 0,4 c 0,0 0,2 2,2 l 2,0 0,-5 -2,0 0,-1 c 0,-2.216 1.784,-4 4,-4 2.216,0 4,1.784 4,4 l 0,1 -2,0 0,5 3,0 c 0,1.662 -1.338,3 -3,3 l 0,-1 -4,0 0,2 4,0 c 2.216,0 4,-1.784 4,-4 l 0,-2 0,-1 0,-0.18164 0,-0.31836 0,-2.5 c 0,-3.324 -2.676,-6 -6,-6 z" opacity="1"/></g></svg>