<svg xmlns="http://www.w3.org/2000/svg" xmlns:osb="http://www.openswatchbook.org/uri/2009/osb" xmlns:svg="http://www.w3.org/2000/svg" id="svg7384" width="16" height="16" enable-background="new" version="1.1"><metadata id="metadata90"/><title id="title8473">Paper Symbolic Icon Theme</title><defs id="defs7386"><linearGradient id="linearGradient5606" osb:paint="solid"><stop id="stop5608" offset="0" stop-color="#000" stop-opacity="1"/></linearGradient><filter id="filter7554" color-interpolation-filters="sRGB"><feBlend id="feBlend7556" in2="BackgroundImage" mode="darken"/></filter></defs><g id="layer10" display="inline" filter="url(#filter7554)" transform="translate(-465.00043,119.03455)"><path id="path6384" fill="#555" fill-opacity="1" stroke="none" d="m 468.0002,-118 c -2,0 -2,2 -2,2 l 0,9 c 0,2 2,2 2,2 l 10,0 c 2,0 2,-2 2,-2 l 0,-1 0,0 0,-3 0,0 0,-1 0,0 0,-3 0,0 0,-1 c 0,0 0,-2 -2,-2 z m 3,3 1,0 3,0 1,0 0,5.5 c 0,0.82843 -0.67157,1.5 -1.5,1.5 -0.82843,0 -1.5,-0.67157 -1.5,-1.5 0,-0.82843 0.67157,-1.5 1.5,-1.5 0.17259,0 0.34568,0.0401 0.5,0.0937 l 0,-2.0937 -3,0 0,3.5 c 0,0.82843 -0.67157,1.5 -1.5,1.5 -0.82843,0 -1.5,-0.67157 -1.5,-1.5 0,-0.82843 0.67157,-1.5 1.5,-1.5 0.17259,0 0.34568,0.0401 0.5,0.0937 l 0,-2.0937 z"/></g></svg>