<svg xmlns="http://www.w3.org/2000/svg" xmlns:osb="http://www.openswatchbook.org/uri/2009/osb" xmlns:svg="http://www.w3.org/2000/svg" id="svg7384" width="16" height="16" enable-background="new" version="1.1"><metadata id="metadata90"/><title id="title8473">Paper Symbolic Icon Theme</title><defs id="defs7386"><linearGradient id="linearGradient5606" osb:paint="solid"><stop id="stop5608" offset="0" stop-color="#000" stop-opacity="1"/></linearGradient><filter id="filter7554" color-interpolation-filters="sRGB"><feBlend id="feBlend7556" in2="BackgroundImage" mode="darken"/></filter></defs><g id="layer10" display="inline" filter="url(#filter7554)" transform="translate(-305.00043,159.00333)"><path id="rect3048" fill="#555" fill-opacity="1" stroke="none" d="m 313.0002,-158.00391 c -3.31371,0 -6,2.68629 -6,6 0,2.087 1.07077,3.92508 2.6875,5 l -0.6875,0 c -2,0 -2,2 -2,2 l 0,1 12,0 0,-1 c 0,0 0,-2 -2,-2 l -0.6875,0 c 1.61673,-1.07492 2.6875,-2.913 2.6875,-5 0,-3.31371 -2.68629,-6 -6,-6 z m 0,4.00391 a 2,2 0 0 1 2,2 2,2 0 0 1 -2,2 2,2 0 0 1 -2,-2 2,2 0 0 1 2,-2 z"/></g></svg>