<svg xmlns="http://www.w3.org/2000/svg" xmlns:svg="http://www.w3.org/2000/svg" id="svg2" width="22" height="22" version="1.1" viewBox="0 0 22 22"><metadata id="metadata7"/><g id="layer1" transform="translate(0,-1030.3622)"><g id="g4154" transform="matrix(0.58333333,0,0,0.58333333,0.50000006,1030.8622)"><path id="path4144" fill="none" fill-opacity=".12" stroke="#4d4d4d" stroke-linejoin="round" stroke-miterlimit="10" stroke-opacity="1" stroke-width="2" d="M 31.2,7 4.8,7 C 3.8,7 3,7.8 3,8.8 l 0,17.5 c 0,1 0.8,1.8 1.8,1.8 l 26.5,0 c 1,0 1.8,-0.8 1.8,-1.8 l 0,-17.5 C 33,7.8 32.2,7 31.2,7 Z"/><path id="path4146" fill="#4d4d4d" fill-opacity="1" d="M 33,30 3,30 C 1.3,30 0,28.7 0,27 l 0,-1 36,0 0,1 c 0,1.7 -1.3,3 -3,3 z"/></g></g></svg>