<svg xmlns="http://www.w3.org/2000/svg" xmlns:osb="http://www.openswatchbook.org/uri/2009/osb" xmlns:svg="http://www.w3.org/2000/svg" id="svg7384" width="16" height="16" enable-background="new" version="1.1"><metadata id="metadata90"/><title id="title8473">Paper Symbolic Icon Theme</title><defs id="defs7386"><linearGradient id="linearGradient5606" osb:paint="solid"><stop id="stop5608" offset="0" stop-color="#000" stop-opacity="1"/></linearGradient><filter id="filter7554" color-interpolation-filters="sRGB"><feBlend id="feBlend7556" in2="BackgroundImage" mode="darken"/></filter></defs><g id="layer10" display="inline" filter="url(#filter7554)" transform="translate(-406.0002,159.00336)"><path id="rect6069-5-5" fill="#555" fill-opacity="1" stroke="none" d="m 408.0002,-157 c 0,0 -2,0 -2,2 l 0,8 c 0,2 2,2 2,2 l 11,0 c 0,0 2,0 2,-2 l 0,-8 c 0,-2 -2,-2 -2,-2 l -11,0 z m 0.25,2 1.5,0 c 0.1385,0 0.25,0.1115 0.25,0.25 l 0,1.5 c 0,0.1385 -0.1115,0.25 -0.25,0.25 l -1.5,0 c -0.1385,0 -0.25,-0.1115 -0.25,-0.25 l 0,-1.5 c 0,-0.1385 0.1115,-0.25 0.25,-0.25 z m 3,0 1.5,0 c 0.1385,0 0.25,0.1115 0.25,0.25 l 0,1.5 c 0,0.1385 -0.1115,0.25 -0.25,0.25 l -1.5,0 c -0.1385,0 -0.25,-0.1115 -0.25,-0.25 l 0,-1.5 c 0,-0.1385 0.1115,-0.25 0.25,-0.25 z m 3,0 1.5,0 c 0.1385,0 0.25,0.1115 0.25,0.25 l 0,1.5 c 0,0.1385 -0.1115,0.25 -0.25,0.25 l -1.5,0 c -0.1385,0 -0.25,-0.1115 -0.25,-0.25 l 0,-1.5 c 0,-0.1385 0.1115,-0.25 0.25,-0.25 z m 3,0 1.5,0 c 0.1385,0 0.25,0.1115 0.25,0.25 l 0,1.5 c 0,0.1385 -0.1115,0.25 -0.25,0.25 l -1.5,0 c -0.1385,0 -0.25,-0.1115 -0.25,-0.25 l 0,-1.5 c 0,-0.1385 0.1115,-0.25 0.25,-0.25 z m -9,3 1.5,0 c 0.1385,0 0.25,0.1115 0.25,0.25 l 0,1.5 c 0,0.1385 -0.1115,0.25 -0.25,0.25 l -1.5,0 c -0.1385,0 -0.25,-0.1115 -0.25,-0.25 l 0,-1.5 c 0,-0.1385 0.1115,-0.25 0.25,-0.25 z m 3,0 1.5,0 c 0.1385,0 0.25,0.1115 0.25,0.25 l 0,1.5 c 0,0.1385 -0.1115,0.25 -0.25,0.25 l -1.5,0 c -0.1385,0 -0.25,-0.1115 -0.25,-0.25 l 0,-1.5 c 0,-0.1385 0.1115,-0.25 0.25,-0.25 z m 3,0 1.5,0 c 0.1385,0 0.25,0.1115 0.25,0.25 l 0,1.5 c 0,0.1385 -0.1115,0.25 -0.25,0.25 l -1.5,0 c -0.1385,0 -0.25,-0.1115 -0.25,-0.25 l 0,-1.5 c 0,-0.1385 0.1115,-0.25 0.25,-0.25 z m 3,0 1.5,0 c 0.1385,0 0.25,0.1115 0.25,0.25 l 0,1.5 c 0,0.1385 -0.1115,0.25 -0.25,0.25 l -1.5,0 c -0.1385,0 -0.25,-0.1115 -0.25,-0.25 l 0,-1.5 c 0,-0.1385 0.1115,-0.25 0.25,-0.25 z m -7,3 6.5,0 c 0.1385,0 0.25,0.1115 0.25,0.25 l 0,1.5 c 0,0.1385 -0.1115,0.25 -0.25,0.25 l -6.5,0 c -0.1385,0 -0.25,-0.1115 -0.25,-0.25 l 0,-1.5 c 0,-0.1385 0.1115,-0.25 0.25,-0.25 z"/></g></svg>