<svg xmlns="http://www.w3.org/2000/svg" xmlns:osb="http://www.openswatchbook.org/uri/2009/osb" xmlns:svg="http://www.w3.org/2000/svg" id="svg7384" width="16" height="16" enable-background="new" version="1.1"><metadata id="metadata90"/><title id="title8473">Paper Symbolic Icon Theme</title><defs id="defs7386"><linearGradient id="linearGradient5606" osb:paint="solid"><stop id="stop5608" offset="0" stop-color="#000" stop-opacity="1"/></linearGradient><filter id="filter7554" color-interpolation-filters="sRGB"><feBlend id="feBlend7556" in2="BackgroundImage" mode="darken"/></filter></defs><g id="layer10" display="inline" filter="url(#filter7554)" transform="translate(-425.0002,159.00336)"><path id="path5073" fill="#555" fill-opacity="1" stroke="none" d="m 426.0002,-157 c -1,0 -1,1 -1,1 l 0,11 c 0,0 0,1 1,1 l 13,0 c 0,0 1,0 1,-1 l 0,-11 c 0,-1 -1,-1 -1,-1 z m 1,2 11,0 0,6 -11,0 z m 0,7 5,0 0,2 -5,0 z m 6,0 5,0 0,2 -5,0 z"/></g></svg>