<svg xmlns="http://www.w3.org/2000/svg" xmlns:osb="http://www.openswatchbook.org/uri/2009/osb" xmlns:svg="http://www.w3.org/2000/svg" id="svg7384" width="16" height="16" enable-background="new" version="1.1"><metadata id="metadata90"/><title id="title8473">Paper Symbolic Icon Theme</title><defs id="defs7386"><linearGradient id="linearGradient5606" osb:paint="solid"><stop id="stop5608" offset="0" stop-color="#000" stop-opacity="1"/></linearGradient><filter id="filter7554" color-interpolation-filters="sRGB"><feBlend id="feBlend7556" in2="BackgroundImage" mode="darken"/></filter></defs><g id="layer10" display="inline" filter="url(#filter7554)" transform="translate(-385.00354,159.0002)"><g id="g6592" transform="translate(-60,0)"><path id="rect6548" fill="#555" fill-opacity="1" stroke="none" stroke-dasharray="none" stroke-linecap="round" stroke-linejoin="round" stroke-miterlimit="4" stroke-opacity="1" stroke-width=".5" d="m 147.5,339 c -0.277,0 -0.5,0.223 -0.5,0.5 l 0,2 c 0,0.277 0.223,0.5 0.5,0.5 l 2,0 c 0.277,0 0.5,-0.223 0.5,-0.5 l 0,-2 c 0,-0.277 -0.223,-0.5 -0.5,-0.5 l -2,0 z m 4,0 c -0.277,0 -0.5,0.223 -0.5,0.5 l 0,2 c 0,0.277 0.223,0.5 0.5,0.5 l 2,0 c 0.277,0 0.5,-0.223 0.5,-0.5 l 0,-2 c 0,-0.277 -0.223,-0.5 -0.5,-0.5 l -2,0 z m 4,0 c -0.277,0 -0.5,0.223 -0.5,0.5 l 0,2 c 0,0.277 0.223,0.5 0.5,0.5 l 2,0 c 0.277,0 0.5,-0.223 0.5,-0.5 l 0,-2 c 0,-0.277 -0.223,-0.5 -0.5,-0.5 l -2,0 z m -8,4 c -0.277,0 -0.5,0.223 -0.5,0.5 l 0,2 c 0,0.277 0.223,0.5 0.5,0.5 l 2,0 c 0.277,0 0.5,-0.223 0.5,-0.5 l 0,-2 c 0,-0.277 -0.223,-0.5 -0.5,-0.5 l -2,0 z m 4,0 c -0.277,0 -0.5,0.223 -0.5,0.5 l 0,2 c 0,0.277 0.223,0.5 0.5,0.5 l 2,0 c 0.277,0 0.5,-0.223 0.5,-0.5 l 0,-2 c 0,-0.277 -0.223,-0.5 -0.5,-0.5 l -2,0 z m 4,0 c -0.277,0 -0.5,0.223 -0.5,0.5 l 0,2 c 0,0.277 0.223,0.5 0.5,0.5 l 2,0 c 0.277,0 0.5,-0.223 0.5,-0.5 l 0,-2 c 0,-0.277 -0.223,-0.5 -0.5,-0.5 l -2,0 z m -8,4 c -0.277,0 -0.5,0.223 -0.5,0.5 l 0,2 c 0,0.277 0.223,0.5 0.5,0.5 l 2,0 c 0.277,0 0.5,-0.223 0.5,-0.5 l 0,-2 c 0,-0.277 -0.223,-0.5 -0.5,-0.5 l -2,0 z m 4,0 c -0.277,0 -0.5,0.223 -0.5,0.5 l 0,2 c 0,0.277 0.223,0.5 0.5,0.5 l 2,0 c 0.277,0 0.5,-0.223 0.5,-0.5 l 0,-2 c 0,-0.277 -0.223,-0.5 -0.5,-0.5 l -2,0 z m 4,0 c -0.277,0 -0.5,0.223 -0.5,0.5 l 0,2 c 0,0.277 0.223,0.5 0.5,0.5 l 2,0 c 0.277,0 0.5,-0.223 0.5,-0.5 l 0,-2 c 0,-0.277 -0.223,-0.5 -0.5,-0.5 l -2,0 z m -4,4 c -0.277,0 -0.5,0.223 -0.5,0.5 l 0,2 c 0,0.277 0.223,0.5 0.5,0.5 l 2,0 c 0.277,0 0.5,-0.223 0.5,-0.5 l 0,-2 c 0,-0.277 -0.223,-0.5 -0.5,-0.5 l -2,0 z" opacity="1" transform="translate(301.0002,-497)"/></g></g></svg>