<svg xmlns="http://www.w3.org/2000/svg" xmlns:osb="http://www.openswatchbook.org/uri/2009/osb" xmlns:svg="http://www.w3.org/2000/svg" id="svg7384" width="16" height="16" enable-background="new" version="1.1"><metadata id="metadata90"/><title id="title8473">Paper Symbolic Icon Theme</title><defs id="defs7386"><linearGradient id="linearGradient5606" osb:paint="solid"><stop id="stop5608" offset="0" stop-color="#000" stop-opacity="1"/></linearGradient><filter id="filter7554" color-interpolation-filters="sRGB"><feBlend id="feBlend7556" in2="BackgroundImage" mode="darken"/></filter></defs><g id="layer10" display="inline" filter="url(#filter7554)" transform="translate(-405.00211,139.00169)"><path id="path6698" fill="#555" fill-opacity="1" stroke="none" d="m 420.0002,-135 c 0,-2 -2,-2 -2,-2 l -10,9e-5 c -2,0 -2,2 -2,2 l 0,8 c 0,0 0,2 2,2 l 10,-9e-5 2,-2 z m -4.00147,5.99809 10e-4,1.00191 c 0,1 -1,1 -1,1 l -1.00147,-0.002 0,-2 z m 10e-4,-4.99809 -0.005,0.99809 -2,0 0,-2 1.00547,0.002 c 0,0 1,0 1,1 z m -0.005,1.99809 0,2 -2,0 0,-2 z m -2.996,-3 0,8 -2,0 0,-8 z m -2.99609,6 0,2 -1.00244,0.002 c -1,0 -1,-1 -1,-1 l 0.002,-1.00191 z m -0.004,-6 0,2 -2,0 0.002,-0.99809 c 0,-1 1,-1 1,-1 z m 0,3 0,2 -2,0 0,-2 z"/></g></svg>