<svg xmlns="http://www.w3.org/2000/svg" xmlns:svg="http://www.w3.org/2000/svg" id="svg3869" width="22" height="22" version="1.1"><defs id="defs3871"><linearGradient id="linearGradient4290-48"><stop id="stop4292-0" offset="0" stop-color="#a5a5a5" stop-opacity="1"/><stop id="stop4294-0" offset="1" stop-color="#f5f2f5" stop-opacity="1"/></linearGradient></defs><metadata id="metadata3874"/><g id="layer1" transform="translate(-326,-534.3622)"><g id="g4158" transform="translate(-1,1)"><g id="layer1-1" transform="translate(327,-497)"><g id="layer1-0"><path id="rect4119" fill="#4d4d4d" fill-opacity="1" stroke="none" d="m 11,3 c -4.432,0 -8,3.568 -8,8 0,4.432 3.568,8 8,8 4.432,0 8,-3.568 8,-8 0,-4.432 -3.568,-8 -8,-8 z m 0,7 c 0.553999,0 1,0.446001 1,1 0,0.553999 -0.446001,1 -1,1 -0.553999,0 -1,-0.446001 -1,-1 0,-0.553999 0.446001,-1 1,-1 z" opacity="1" transform="translate(0,1030.3622)"/></g></g><g id="g3" fill="#fff" fill-opacity="1" transform="matrix(0.01368809,0,0,0.01368809,339.89972,541.8622)"><path id="path5" fill="#fff" fill-opacity="1" d="M 305.685,56.082 C 284.044,23.973 245.218,5.336 190.377,0.699 L 190.286,0.691 C 186.243,0.232 182.36,0 178.746,0 151.098,0 141.287,13.84 141.287,25.691 l 0,206.27 -0.001,0 c -10.874,-3.277 -22.538,-4.223 -34.057,-2.768 -20.073,2.533 -38.057,11.957 -50.637,26.537 -12.581,14.58 -18.252,32.57 -15.969,50.656 4.237,33.576 35.66,58.895 73.096,58.895 3.515,0 7.08,-0.225 10.599,-0.668 38.805,-4.898 66.969,-35.676 66.969,-73.18 l 0,-202.396 c 2.913,-0.195 5.831,-0.293 8.677,-0.293 34.213,0 65.668,14.313 90.966,41.389 10.428,11.162 17.748,22.262 22.054,29.609 1.058,1.803 3.12,2.764 5.186,2.396 2.058,-0.365 3.673,-1.971 4.047,-4.027 4.149,-22.786 7.522,-66.341 -16.532,-102.029 z"/></g></g></g></svg>