<svg xmlns="http://www.w3.org/2000/svg" xmlns:osb="http://www.openswatchbook.org/uri/2009/osb" xmlns:svg="http://www.w3.org/2000/svg" id="svg3869" width="22" height="22" version="1.1"><defs id="defs3871"><linearGradient id="linearGradient4290-48"><stop id="stop4292-0" offset="0" stop-color="#a5a5a5" stop-opacity="1"/><stop id="stop4294-0" offset="1" stop-color="#f5f2f5" stop-opacity="1"/></linearGradient><linearGradient id="linearGradient4207" osb:paint="gradient"><stop id="stop3371" offset="0" stop-color="#3498db" stop-opacity="1"/><stop id="stop3373" offset="1" stop-color="#3498db" stop-opacity="0"/></linearGradient><linearGradient id="linearGradient4422-4"><stop id="stop4424-3" offset="0" stop-color="#d1d7df" stop-opacity="1"/><stop id="stop4426-4" offset="1" stop-color="#e0e5e7" stop-opacity="1"/></linearGradient></defs><metadata id="metadata3874"/><g id="layer1" transform="translate(-326,-534.3622)"><g id="g4158" transform="translate(-1,1)"><g id="layer1-1" transform="translate(327,-497)"><g id="layer1-0"><path id="rect4119" fill="#4d4d4d" fill-opacity="1" stroke="none" d="m 11,3 c -4.432,0 -8,3.568 -8,8 0,4.432 3.568,8 8,8 4.432,0 8,-3.568 8,-8 0,-4.432 -3.568,-8 -8,-8 z m 0,7 c 0.553999,0 1,0.446001 1,1 0,0.553999 -0.446001,1 -1,1 -0.553999,0 -1,-0.446001 -1,-1 0,-0.553999 0.446001,-1 1,-1 z" opacity="1" transform="translate(0,1030.3622)"/></g></g></g><g id="layer1-2" fill="#fff" fill-opacity="1" transform="matrix(0.54186684,0,0,0.54186684,86.623107,250.64257)"><g id="layer1-1-3" fill="#fff" fill-opacity="1" transform="matrix(0.9125,0,0,0.9125,463.36732,-409.59443)"><g id="layer1-00" fill="#fff" fill-opacity="1" transform="matrix(0.90853357,0,0,0.90853357,-364.12567,559.9656)"><g id="layer1-4" fill="#fff" fill-opacity="1" transform="translate(5.05585,-5.251147)"><g id="layer1-9" fill="#fff" fill-opacity="1" stroke="#000" stroke-opacity=".8" transform="translate(-11.317,5.8824915)"><g id="g4187" fill="#fff" fill-opacity="1" stroke="none" stroke-opacity="1" transform="matrix(0.7863692,0,0,0.78394543,93.325829,112.35451)"><path id="Documents" fill="#fff" fill-opacity="1" stroke="none" stroke-opacity="1" stroke-width=".071" d="m 408.99594,530.99649 -5.24403,6.7328 c -0.98326,1.2624 -0.708,3.5111 0.5505,4.4974 1.25852,0.98629 3.50028,0.71019 4.48354,-0.55221 l 5.24403,-6.73281 0.65549,-0.8416 c 0.65551,-0.8416 0.47201,-2.34073 -0.36699,-2.99826 -0.83901,-0.65753 -2.33352,-0.47347 -2.98902,0.36814 l -0.65551,0.8416 -3.93302,5.0496 -0.6555,0.8416 c -0.32776,0.4208 -0.236,1.17037 0.1835,1.49914 0.4195,0.32875 1.16676,0.23673 1.49451,-0.18407 l 4.58852,-5.89121 0.83901,0.65753 -4.58852,5.8912 c -0.65551,0.84161 -2.15002,1.02568 -2.98902,0.36814 -0.83901,-0.65753 -1.02252,-2.15666 -0.36702,-2.99826 l 0.65551,-0.8416 4.58853,-5.8912 c 0.98325,-1.26241 3.22501,-1.5385 4.48353,-0.55221 1.25851,0.98629 1.53377,3.23499 0.55051,4.49739 l -0.6555,0.84161 -5.24403,6.73279 c -1.31102,1.68321 -4.30004,2.05135 -5.97805,0.73629 -1.67801,-1.31507 -2.04502,-4.31332 -0.73401,-5.99653 l 5.24403,-6.7328 0.83901,0.65753 0,0 z"/></g></g></g></g></g></g></g></svg>