<svg xmlns="http://www.w3.org/2000/svg" xmlns:svg="http://www.w3.org/2000/svg" xmlns:xlink="http://www.w3.org/1999/xlink" id="svg2" width="22" height="22" version="1.1" viewBox="0 0 22 22"><defs id="defs4"><linearGradient id="linearGradient4737"><stop id="stop4739" offset="0" stop-color="#9e9e9e" stop-opacity="1"/><stop id="stop4741" offset="1" stop-color="#969696" stop-opacity="1"/></linearGradient><linearGradient id="linearGradient3923"><stop id="stop3925" offset="0" stop-color="#c8c8c8" stop-opacity="1"/><stop id="stop3927" offset="1" stop-color="#969696" stop-opacity="1"/></linearGradient><linearGradient id="linearGradient3911"><stop id="stop3913" offset="0" stop-color="#828282" stop-opacity="1"/><stop id="stop3915" offset="1" stop-color="#c8c8c8" stop-opacity="1"/></linearGradient><linearGradient id="linearGradient3781"><stop id="stop3783" offset="0" stop-color="#dcdcdc" stop-opacity="1"/><stop id="stop3785" offset="1" stop-color="#f0f0f0" stop-opacity="1"/></linearGradient><linearGradient id="linearGradient3780"><stop id="stop3782" offset="0" stop-color="#b2b2b2" stop-opacity="1"/><stop id="stop3784" offset="1" stop-color="#afafaf" stop-opacity="1"/></linearGradient><linearGradient id="linearGradient3687"><stop id="stop3689" offset="0" stop-color="#2c2c2c" stop-opacity="1"/><stop id="stop3691" offset=".111" stop-color="#414141" stop-opacity="1"/><stop id="stop3693" offset=".29" stop-color="#474747" stop-opacity="1"/><stop id="stop3695" offset=".512" stop-color="#4e4e4e" stop-opacity="1"/><stop id="stop3699" offset=".752" stop-color="#3c3c3c" stop-opacity="1"/><stop id="stop3701" offset=".897" stop-color="#323232" stop-opacity="1"/><stop id="stop3703" offset="1" stop-color="#272727" stop-opacity="1"/></linearGradient><clipPath id="clipPath4160" clipPathUnits="userSpaceOnUse"><rect id="rect4162" width="1" height="1" x="7" y="1023.362" fill="#f2f2f2" fill-opacity="1" stroke="none" stroke-opacity="1" opacity="1"/></clipPath><clipPath id="clipPath4160-4" clipPathUnits="userSpaceOnUse"><rect id="rect4162-9" width="1" height="1" x="7" y="1023.362" fill="#f2f2f2" fill-opacity="1" stroke="none" stroke-opacity="1" opacity="1"/></clipPath><clipPath id="clipPath4160-3" clipPathUnits="userSpaceOnUse"><rect id="rect4162-0" width="1" height="1" x="7" y="1023.362" fill="#f2f2f2" fill-opacity="1" stroke="none" stroke-opacity="1" opacity="1"/></clipPath><linearGradient id="linearGradient4012"><stop id="stop4014" offset="0" stop-color="#1d99f3" stop-opacity="1"/><stop id="stop4016" offset=".417" stop-color="#48acf5" stop-opacity=".761"/><stop id="stop4018" offset=".667" stop-color="#73c0f7" stop-opacity="0"/><stop id="stop4020" offset="1" stop-color="#cae7fc" stop-opacity="0"/></linearGradient><linearGradient id="linearGradient4164" x1="3" x2="19" y1="1049.362" y2="1033.362" gradientTransform="matrix(0.75,0,0,0.75,1.7499999,269.34054)" gradientUnits="userSpaceOnUse" xlink:href="#linearGradient4012"/><linearGradient id="linearGradient3983" x1="3" x2="24.333" y1="1049.362" y2="1028.029" gradientTransform="matrix(0.75,0,0,0.75,2.7499999,262.34058)" gradientUnits="userSpaceOnUse" xlink:href="#linearGradient4012"/><linearGradient id="linearGradient4007" x1="3" x2="24.333" y1="1049.362" y2="1028.029" gradientTransform="matrix(0.75,0,0,0.75,3.7499999,-767.02162)" gradientUnits="userSpaceOnUse" xlink:href="#linearGradient4012"/><linearGradient id="linearGradient4164-76" x1="3" x2="19" y1="1049.362" y2="1033.362" gradientTransform="matrix(0.75,0,0,0.75,3.7499999,-769.02166)" gradientUnits="userSpaceOnUse" xlink:href="#linearGradient4012"/><clipPath id="clipPath4160-8" clipPathUnits="userSpaceOnUse"><rect id="rect4162-2" width="1" height="1" x="7" y="1023.362" fill="#f2f2f2" fill-opacity="1" stroke="none" stroke-opacity="1" opacity="1"/></clipPath><clipPath id="clipPath4160-4-7" clipPathUnits="userSpaceOnUse"><rect id="rect4162-9-3" width="1" height="1" x="7" y="1023.362" fill="#f2f2f2" fill-opacity="1" stroke="none" stroke-opacity="1" opacity="1"/></clipPath><clipPath id="clipPath4160-3-3" clipPathUnits="userSpaceOnUse"><rect id="rect4162-0-0" width="1" height="1" x="7" y="1023.362" fill="#f2f2f2" fill-opacity="1" stroke="none" stroke-opacity="1" opacity="1"/></clipPath><linearGradient id="linearGradient4066"><stop id="stop4068" offset="0" stop-color="#dbc9ee" stop-opacity="1"/><stop id="stop4070" offset="1" stop-color="#faf7fd" stop-opacity="1"/></linearGradient><linearGradient id="linearGradient3843-5"><stop id="stop3845-0" offset="0" stop-color="#5a2c8b" stop-opacity="1"/><stop id="stop3847-4" offset="1" stop-color="#9d59cf" stop-opacity="1"/></linearGradient><clipPath id="clipPath4160-40" clipPathUnits="userSpaceOnUse"><rect id="rect4162-02" width="1" height="1" x="7" y="1023.362" fill="#f2f2f2" fill-opacity="1" stroke="none" stroke-opacity="1" opacity="1"/></clipPath><linearGradient id="linearGradient4290-48"><stop id="stop4292-0" offset="0" stop-color="#a5a5a5" stop-opacity="1"/><stop id="stop4294-0" offset="1" stop-color="#f5f2f5" stop-opacity="1"/></linearGradient></defs><metadata id="metadata7"/><g id="layer1" transform="translate(0,-1030.3622)"><g id="layer1-35" transform="matrix(1.3333333,0,0,1.3333333,0.33333353,-351.12069)"><g id="layer1-1" transform="matrix(0.75,0,0,0.75,-244.75,635.34055)"><g id="layer1-4" transform="matrix(1.375,0,0,1.375,322.875,-887.51083)"><path id="path3357" fill="#fff" fill-opacity="1" stroke="none" d="m 9.3636364,1044.3622 3.9999986,-3 -3.9999986,-3 z"/><g id="layer1-3" transform="matrix(0.6517009,0,0,0.6517009,3.0368427,363.39251)"><g id="g4151" fill="#4d4d4d" fill-opacity="1" transform="matrix(1.1159609,0,0,1.1159609,-1.1724939,-120.69549)"><path id="rect3356-7" fill="#4d4d4d" fill-opacity="1" stroke="none" stroke-opacity="1" d="m 11,3 c -4.432,0 -8,3.568 -8,8 0,4.432 3.568,8 8,8 4.432,0 8,-3.568 8,-8 0,-4.432 -3.568,-8 -8,-8 z" transform="translate(0,1030.3622)"/></g></g></g></g><g id="g3" fill="#fff" fill-opacity="1" transform="matrix(0.01464842,0,0,0.01464842,4.100251,1040.5372)"><path id="path5" fill="#fff" fill-opacity="1" d="m 395.748,272.046 c -0.646,-64.841 52.88,-95.938 55.271,-97.483 -30.075,-44.01 -76.925,-50.039 -93.62,-50.736 -39.871,-4.037 -77.798,23.474 -98.033,23.474 -20.184,0 -51.409,-22.877 -84.476,-22.276 -43.458,0.646 -83.529,25.269 -105.906,64.19 -45.152,78.35 -11.563,194.42 32.445,257.963 21.504,31.104 47.146,66.038 80.813,64.79 32.421,-1.294 44.681,-20.979 83.878,-20.979 39.196,0 50.215,20.979 84.524,20.335 34.888,-0.648 56.991,-31.699 78.347,-62.898 24.694,-36.084 34.862,-71.019 35.462,-72.812 -0.775,-0.354 -68.031,-26.119 -68.705,-103.568 z M 331.28,81.761 C 349.149,60.082 361.21,30.005 357.92,0 c -25.739,1.048 -56.938,17.145 -75.405,38.775 -16.57,19.188 -31.075,49.813 -27.188,79.218 28.734,2.242 58.065,-14.602 75.953,-36.232 z"/></g></g></g></svg>