<svg xmlns="http://www.w3.org/2000/svg" xmlns:svg="http://www.w3.org/2000/svg" id="svg2" width="22" height="22" version="1.1" viewBox="0 0 22 22"><metadata id="metadata7"/><g id="layer1" transform="translate(0,-1030.3622)"><g id="g4644" transform="translate(0,39.500035)"><g id="g3" fill="#4d4d4d" fill-opacity="1" opacity="1" transform="matrix(0.04444444,0,0,0.04444444,3.0000008,993.86217)"><path id="path5" fill="#4d4d4d" fill-opacity="1" d="M 180.003,0 C 113.723,0 60,53.723 60,120 l 0,120 c 0,66.277 53.723,120 120.003,120 C 246.277,360 300,306.277 300,240 l 0,-120 C 300,53.723 246.277,0 180.003,0 Z m 69.364,224.128 c 2.705,2.168 4.279,5.448 4.279,8.915 0,3.467 -1.574,6.746 -4.279,8.915 l -71.652,57.439 c -2.067,1.657 -4.597,2.511 -7.148,2.511 -1.68,0 -3.369,-0.371 -4.942,-1.125 -3.961,-1.901 -6.481,-5.906 -6.481,-10.3 l 0,-82.024 -34.182,27.632 c -2.114,1.709 -4.653,2.541 -7.176,2.541 -3.331,0 -6.634,-1.45 -8.892,-4.243 -3.967,-4.907 -3.204,-12.101 1.703,-16.068 l 47.385,-38.306 -47.385,-38.306 c -4.907,-3.967 -5.67,-11.161 -1.703,-16.068 3.967,-4.908 11.162,-5.669 16.068,-1.703 l 34.182,27.632 0,-82.051 c 0,-4.394 2.52,-8.399 6.481,-10.3 3.962,-1.901 8.663,-1.362 12.091,1.386 l 71.652,57.441 c 2.705,2.168 4.279,5.448 4.279,8.914 0,3.466 -1.574,6.746 -4.279,8.915 L 194.322,180 l 55.045,44.128 z"/><polygon id="polygon7" fill="#4d4d4d" fill-opacity="1" points="223.954 126.959 181.994 93.321 181.994 160.596"/><polygon id="polygon9" fill="#4d4d4d" fill-opacity="1" points="223.954 233.042 181.994 199.404 181.994 266.679"/></g></g></g></svg>