<svg xmlns="http://www.w3.org/2000/svg" xmlns:svg="http://www.w3.org/2000/svg" xmlns:xlink="http://www.w3.org/1999/xlink" id="svg2" width="22" height="22" version="1.1" viewBox="0 0 22 22"><defs id="defs4"><clipPath id="clipPath4160" clipPathUnits="userSpaceOnUse"><rect id="rect4162" width="1" height="1" x="7" y="1023.362" fill="#f2f2f2" fill-opacity="1" stroke="none" stroke-opacity="1" opacity="1"/></clipPath><linearGradient id="linearGradient4123" x1="3" x2="15" y1="1045.362" y2="1045.362" gradientTransform="translate(0,-1.9999941)" gradientUnits="userSpaceOnUse" xlink:href="#linearGradient4021-3"/><linearGradient id="linearGradient4021-3"><stop id="stop4023-0" offset="0" stop-color="#b3b3b3" stop-opacity="1"/><stop id="stop4025-2" offset="1" stop-color="#4d4d4d" stop-opacity="1"/></linearGradient><clipPath id="clipPath4160-8" clipPathUnits="userSpaceOnUse"><rect id="rect4162-9" width="1" height="1" x="7" y="1023.362" fill="#f2f2f2" fill-opacity="1" stroke="none" stroke-opacity="1" opacity="1"/></clipPath></defs><metadata id="metadata7"/><g id="layer1" transform="translate(0,-1030.3622)"><g id="layer1-9" fill="#da4453" fill-opacity="1" transform="translate(2.6373086e-6,-1.3021834e-6)"><g id="layer1-0" fill="#da4453" fill-opacity="1" transform="translate(-326,496)"><g id="network-unavailable" fill="#da4453" fill-opacity="1" transform="matrix(1.1666747,0,0,1.1666747,368.34393,482.19505)"><g id="rect4982-8-4-2" fill="#da4453" fill-opacity="1" stroke="none" stroke-opacity="1" transform="matrix(0.9492074,0,0,0.9492074,-346.74522,-463.38697)"><g id="sitemap1-4-9-18" fill="#da4453" fill-opacity="1" stroke="none" stroke-opacity="1" transform="matrix(0.11545321,0,0,0.11545321,328.568,537.94962)"><path id="path6132-0-63-3" fill="#da4453" fill-opacity="1" stroke="none" stroke-opacity="1" d="m 143.721,86.139 c -1.521,-1.521 -3.367,-2.281 -5.541,-2.281 l -7.82,0 0,-15.644 c 0,-2.824 -1.033,-5.269 -3.096,-7.332 -2.064,-2.065 -4.51,-3.097 -7.334,-3.097 l -41.714,0 0,-15.643 7.82,0 c 2.174,0 4.021,-0.76 5.541,-2.281 1.521,-1.52 2.28,-3.367 2.28,-5.54 l 0,-26.071 c 0,-2.173 -0.76,-4.02 -2.28,-5.54 C 90.056,1.189 88.21,0.429 86.036,0.429 l -26.071,0 c -2.173,0 -4.019,0.76 -5.54,2.281 -1.521,1.52 -2.281,3.367 -2.281,5.54 l 0,26.071 c 0,2.173 0.76,4.019 2.281,5.54 1.52,1.521 3.367,2.281 5.54,2.281 l 7.821,0 0,15.643 -41.714,0 c -2.825,0 -5.269,1.033 -7.333,3.097 -2.064,2.063 -3.096,4.508 -3.096,7.332 l 0,15.644 -7.822,0 c -2.172,0 -4.019,0.761 -5.54,2.281 C 0.76,87.659 0,89.506 0,91.679 l 0,26.071 c 0,2.173 0.76,4.02 2.281,5.54 1.521,1.521 3.368,2.281 5.54,2.281 l 26.072,0 c 2.172,0 4.019,-0.761 5.54,-2.281 1.521,-1.52 2.281,-3.367 2.281,-5.54 l 0,-26.071 c 0,-2.173 -0.76,-4.019 -2.281,-5.54 -1.521,-1.521 -3.368,-2.281 -5.54,-2.281 l -7.822,0 0,-15.644 41.714,0 0,15.644 -7.821,0 c -2.173,0 -4.019,0.761 -5.54,2.281 -1.521,1.52 -2.281,3.367 -2.281,5.54 l 0,26.071 c 0,2.173 0.76,4.02 2.281,5.54 1.52,1.521 3.367,2.281 5.54,2.281 l 26.071,0 c 2.174,0 4.02,-0.761 5.541,-2.281 1.52,-1.521 2.281,-3.367 2.281,-5.54 l 0,-26.071 c 0,-2.173 -0.76,-4.019 -2.281,-5.54 -1.521,-1.521 -3.367,-2.281 -5.541,-2.281 l -7.82,0 0,-15.644 41.715,0 0,15.644 -7.822,0 c -2.172,0 -4.02,0.761 -5.541,2.281 -1.52,1.521 -2.28,3.367 -2.28,5.54 l 0,26.071 c 0,2.173 0.76,4.02 2.28,5.54 1.521,1.521 3.369,2.281 5.541,2.281 l 26.072,0 c 2.172,0 4.018,-0.761 5.539,-2.281 1.521,-1.52 2.281,-3.367 2.281,-5.54 l 0,-26.071 c 0,-2.173 -0.76,-4.02 -2.279,-5.54 l 0,0 z"/></g></g></g></g></g></g></svg>