<svg xmlns="http://www.w3.org/2000/svg" xmlns:osb="http://www.openswatchbook.org/uri/2009/osb" xmlns:svg="http://www.w3.org/2000/svg" id="svg7384" width="16" height="16" enable-background="new" version="1.1"><metadata id="metadata90"/><title id="title8473">Paper Symbolic Icon Theme</title><defs id="defs7386"><linearGradient id="linearGradient5606" osb:paint="solid"><stop id="stop5608" offset="0" stop-color="#000" stop-opacity="1"/></linearGradient><filter id="filter7554" color-interpolation-filters="sRGB"><feBlend id="feBlend7556" in2="BackgroundImage" mode="darken"/></filter></defs><g id="layer10" display="inline" filter="url(#filter7554)" transform="translate(-445.00041,159.00336)"><path id="path8646" fill="#555" fill-opacity="1" stroke="none" d="m 458.03183,-158 c 0.53403,0 0.96875,0.42699 0.96875,0.96875 l 0,0.0625 c -0.0171,6.61281 -5.38317,11.96875 -12,11.96875 l -0.0312,0 c -0.54483,0 -0.9688,-0.446 -0.9688,-1 l 0,-1 0,-2 c 0,-0.554 0.446,-1 1,-1 l 2,0 c 0.554,0 1,0.446 1,1 l 0,0.46875 c 2.55686,-0.90388 4.56487,-2.91189 5.46875,-5.46875 l -0.46875,0 c -0.55401,0 -1,-0.44599 -1,-1 l 0,-2 c 0,-0.55401 0.44599,-1 1,-1 l 1,0 1,0 0.96875,0 0.0312,0 0.0312,0 z"/></g></svg>