<svg xmlns="http://www.w3.org/2000/svg" xmlns:osb="http://www.openswatchbook.org/uri/2009/osb" xmlns:svg="http://www.w3.org/2000/svg" id="svg7384" width="16" height="16" enable-background="new" version="1.1"><metadata id="metadata90"/><title id="title8473">Paper Symbolic Icon Theme</title><defs id="defs7386"><linearGradient id="linearGradient5606" osb:paint="solid"><stop id="stop5608" offset="0" stop-color="#000" stop-opacity="1"/></linearGradient><filter id="filter7554" color-interpolation-filters="sRGB"><feBlend id="feBlend7556" in2="BackgroundImage" mode="darken"/></filter></defs><g id="layer10" display="inline" filter="url(#filter7554)" transform="translate(-385.00021,159)"><path d="m 386.0002,-149 0,2 0,1 c 0,0 0,1 1,1 l 5,0 0,2 2,0 0,-2 5,0 c 1,0 1,-1 1,-1 l 0,-1 0,-2 z m 2,1 1,0 0,1 -1,0 z" style="marker:none" id="path8593" fill="#555" fill-opacity="1" fill-rule="nonzero" stroke="none" stroke-width="4" color="#000" display="inline" enable-background="accumulate" overflow="visible" visibility="visible"/><path id="path6413" fill="#555" fill-opacity="1" stroke="none" d="m 387.0002,-154 c -0.5,0 -1,0.5 -1,1 l 0,3 14,0 0,-3 c 0,-0.5 -0.5,-1 -1,-1 z"/><path id="path6416" fill="#555" fill-opacity="1" stroke="none" d="m 389.0002,-158 0,3 8,0 0,-3 z"/></g></svg>