<svg xmlns="http://www.w3.org/2000/svg" xmlns:osb="http://www.openswatchbook.org/uri/2009/osb" xmlns:svg="http://www.w3.org/2000/svg" id="svg7384" width="16" height="16" enable-background="new" version="1.1"><metadata id="metadata90"/><title id="title8473">Paper Symbolic Icon Theme</title><defs id="defs7386"><linearGradient id="linearGradient5606" osb:paint="solid"><stop id="stop5608" offset="0" stop-color="#000" stop-opacity="1"/></linearGradient><filter id="filter7554" color-interpolation-filters="sRGB"><feBlend id="feBlend7556" in2="BackgroundImage" mode="darken"/></filter></defs><g id="layer10" display="inline" filter="url(#filter7554)" transform="translate(-365.0002,159)"><g id="layer1-6" transform="translate(365.0002,-159)"><path id="path3520" fill="#555" fill-opacity="1" stroke="none" d="M 2,4 C 1.5,4 1,4.5 1,5 l 0,4 c 0,0.5 0.5,1 1,1 l 1,0 0,-2 10,0 0,2 1,0 c 0.5,0 1,-0.5 1,-1 L 15,5 C 15,4.5 14.5,4 14,4 L 2,4 z"/><path id="path4804" fill="#555" fill-opacity="1" stroke="none" d="M 4,1 4,3 12,3 12,1 4,1 z"/><path id="path4806" fill="#555" fill-opacity="1" stroke="none" d="M 4,9.0000001 4,14 l 8,0 0,-5 z"/></g></g></svg>