<svg xmlns="http://www.w3.org/2000/svg" xmlns:osb="http://www.openswatchbook.org/uri/2009/osb" xmlns:svg="http://www.w3.org/2000/svg" id="svg7384" width="16" height="16" enable-background="new" version="1.1"><metadata id="metadata90"/><title id="title8473">Paper Symbolic Icon Theme</title><defs id="defs7386"><linearGradient id="linearGradient5606" osb:paint="solid"><stop id="stop5608" offset="0" stop-color="#000" stop-opacity="1"/></linearGradient><filter id="filter7554" color-interpolation-filters="sRGB"><feBlend id="feBlend7556" in2="BackgroundImage" mode="darken"/></filter></defs><g id="layer10" display="inline" filter="url(#filter7554)" transform="translate(-345.0002,159.00336)"><path id="path10961" fill="#555" fill-opacity="1" stroke="none" d="m 348.00411,-157.99609 c 0,0 -0.99902,-0.003 -1,1 l -0.004,3.99609 -2,0 0,2 16,0 0,-2 -2,0 0.004,-3.99609 c 9.8e-4,-1.00336 -1,-1 -1,-1 l -10,0 z m 0.99609,1.99609 8,0 -0.004,3 -8,0 0.004,-3 z m -1.99609,6 0,5.00391 c 0,0 0,1 1,1 l 10,0 c 1,0 1,-1 1,-1 l 0,-5.00391 -2.00391,0 0,4 -8,0 0,-4 -1.99609,0 z"/></g></svg>