<svg xmlns="http://www.w3.org/2000/svg" xmlns:svg="http://www.w3.org/2000/svg" id="svg2" width="22" height="22" version="1.1" viewBox="0 0 22 22"><metadata id="metadata7"/><g id="layer1" transform="translate(0,-1030.3622)"><g id="g4644" transform="translate(0,39.500035)"><path id="path4146" fill="#4d4d4d" fill-opacity="1" fill-rule="evenodd" stroke="none" stroke-dasharray="none" stroke-dashoffset="0" stroke-linecap="round" stroke-linejoin="miter" stroke-miterlimit="4" stroke-opacity="1" stroke-width="1" d="m 11.5,1007.8622 a 0.5,0.5 0 0 1 -0.5,0.5 0.5,0.5 0 0 1 -0.5,-0.5 0.5,0.5 0 0 1 0.5,-0.5 0.5,0.5 0 0 1 0.5,0.5 z m 3.969839,-13.00003 -8.9396777,0 c -0.464977,0 -0.8433631,0.37839 -0.8433631,0.84336 l 0,12.31327 c 0,0.465 0.3783861,0.8434 0.8433631,0.8434 l 8.9396777,0 c 0.464977,0 0.843363,-0.3784 0.843363,-0.8434 l 0,-12.31327 c 0,-0.46512 -0.378386,-0.84336 -0.843363,-0.84336 z" opacity="1"/></g></g></svg>