<svg xmlns="http://www.w3.org/2000/svg" xmlns:osb="http://www.openswatchbook.org/uri/2009/osb" xmlns:svg="http://www.w3.org/2000/svg" id="svg7384" width="16.003" height="16.003" enable-background="new" version="1.1"><metadata id="metadata90"/><title id="title8473">Paper Symbolic Icon Theme</title><defs id="defs7386"><linearGradient id="linearGradient5606" osb:paint="solid"><stop id="stop5608" offset="0" stop-color="#000" stop-opacity="1"/></linearGradient><filter id="filter7554" color-interpolation-filters="sRGB"><feBlend id="feBlend7556" in2="BackgroundImage" mode="darken"/></filter></defs><g id="layer10" display="inline" filter="url(#filter7554)" transform="translate(-485.0002,119.0033)"><path id="path8625" fill="#555" fill-opacity="1" stroke="none" d="m 487.0002,-119 c -1.99959,0 -2,2 -2,2 l 0,9 c 0,0 4.1e-4,2 2,2 l 12,0 c 0,0 2,0 2,-2 0.006,-3.33194 0,-5.66671 0,-9 0,0 0,-2 -2,-2 z m 3,3 7,3.5 -7,3.5 z m -1.03125,11 c 0,0 -0.96875,0 -0.96875,1 l 0,1 10,0 0,-1 c 0,-1 -1,-1 -1,-1 z"/></g></svg>