<svg xmlns="http://www.w3.org/2000/svg" xmlns:osb="http://www.openswatchbook.org/uri/2009/osb" xmlns:svg="http://www.w3.org/2000/svg" id="svg7384" width="16" height="16" enable-background="new" version="1.1"><metadata id="metadata90"/><title id="title8473">Paper Symbolic Icon Theme</title><defs id="defs7386"><linearGradient id="linearGradient5606" osb:paint="solid"><stop id="stop5608" offset="0" stop-color="#000" stop-opacity="1"/></linearGradient><filter id="filter7554" color-interpolation-filters="sRGB"><feBlend id="feBlend7556" in2="BackgroundImage" mode="darken"/></filter></defs><g id="layer10" display="inline" filter="url(#filter7554)" transform="translate(-605.00018,119)"><path id="path6754" fill="#555" fill-opacity="1" stroke="none" d="m 609.0002,-119 c 0,0 -2,0 -2,2 l 0,12 0,2 12,0 0,-2 0,-12 c 0,-2 -2,-2 -2,-2 l -8,0 z m 4,2 0,3 3,0 -3,5 0,-3 -3,0 3,-5 z m -3,10 c 0.55407,0 1,0.44945 1,1 0,0.55064 -0.44593,1 -1,1 -0.55424,0 -1,-0.44936 -1,-1 0,-0.55055 0.44576,-1 1,-1 z"/></g></svg>