<svg xmlns="http://www.w3.org/2000/svg" xmlns:osb="http://www.openswatchbook.org/uri/2009/osb" xmlns:svg="http://www.w3.org/2000/svg" id="svg7384" width="16" height="16" enable-background="new" version="1.1"><metadata id="metadata90"/><title id="title8473">Paper Symbolic Icon Theme</title><defs id="defs7386"><linearGradient id="linearGradient5606" osb:paint="solid"><stop id="stop5608" offset="0" stop-color="#000" stop-opacity="1"/></linearGradient><filter id="filter7554" color-interpolation-filters="sRGB"><feBlend id="feBlend7556" in2="BackgroundImage" mode="darken"/></filter></defs><g id="layer10" display="inline" filter="url(#filter7554)" transform="translate(-265.0002,159.0033)"><path id="path7173" fill="#555" fill-opacity="1" stroke="none" d="m 267.0002,-159 c -1.99959,0 -2,2 -2,2 l 0,9 c 0,0 0,2 2,2 l 12,0 c 0,0 1.99953,0 2,-2 l 0,-9 c 0,0 4.1e-4,-2 -2,-2 z m 0,2 12,0 0,9 -12,-0.024 z m 1,13 2e-4,0.99664 10,0 -2e-4,-0.99664 c 0,-1 -1,-1 -1,-1 l -8.02177,0 c 0,0 -0.97823,0 -0.97823,1 z"/></g></svg>