<svg xmlns="http://www.w3.org/2000/svg" xmlns:osb="http://www.openswatchbook.org/uri/2009/osb" xmlns:svg="http://www.w3.org/2000/svg" id="svg2" width="16" height="16" enable-background="new" version="1.1"><metadata id="metadata90"/><defs id="defs7386"><linearGradient id="linearGradient5606" osb:paint="solid"><stop id="stop5608"/></linearGradient></defs><g id="layer9" transform="translate(-461.0002,143)"><g id="g3" fill="#555" fill-opacity="1" transform="matrix(0.26215756,0,0,0.26215756,463.0002,-141)"><g id="g5" fill="#555" fill-opacity="1"><path id="path7" fill="#555" fill-opacity="1" d="M 5.081,13.737 C 7.663,9.795 11.69,6.888 16.401,5.749 16.764,5.662 17.063,5.405 17.203,5.06 17.344,4.714 17.31,4.322 17.112,4.005 15.604,1.601 12.936,0 9.888,0 5.176,0 1.354,3.82 1.354,8.532 c 0,2 0.691,3.837 1.845,5.29 0.231,0.293 0.589,0.455 0.962,0.438 0.373,-0.017 0.716,-0.212 0.92,-0.523 z"/><path id="path9" fill="#555" fill-opacity="1" d="m 35.886,0 c -3.034,0 -5.693,1.586 -7.204,3.974 -0.2,0.316 -0.235,0.711 -0.094,1.059 0.142,0.349 0.442,0.605 0.809,0.691 4.724,1.112 8.765,3.999 11.369,7.928 0.207,0.312 0.552,0.505 0.927,0.518 0.375,0.014 0.731,-0.154 0.961,-0.451 C 43.759,12.283 44.42,10.487 44.42,8.533 44.417,3.82 40.598,0 35.886,0 Z"/><path id="path11" fill="#555" fill-opacity="1" d="m 41.752,26.132 c 0,-3.294 -0.857,-6.39 -2.351,-9.084 -2.769,-4.99 -7.742,-8.577 -13.595,-9.475 -0.933,-0.143 -1.88,-0.24 -2.853,-0.24 -1.016,0 -2.006,0.104 -2.979,0.26 -5.828,0.935 -10.776,4.537 -13.516,9.533 -1.467,2.676 -2.304,5.744 -2.304,9.006 0,5.586 2.463,10.597 6.343,14.041 l -1.584,2.231 c -0.682,0.961 -0.456,2.291 0.505,2.975 0.375,0.266 0.806,0.395 1.233,0.395 0.668,0 1.326,-0.313 1.741,-0.898 l 1.583,-2.23 c 2.669,1.457 5.728,2.287 8.978,2.287 3.249,0 6.308,-0.83 8.977,-2.287 l 1.583,2.23 c 0.416,0.586 1.073,0.898 1.741,0.898 0.427,0 0.857,-0.129 1.232,-0.395 0.961,-0.684 1.188,-2.014 0.506,-2.975 l -1.584,-2.231 c 3.88,-3.444 6.344,-8.455 6.344,-14.041 z M 22.954,39.674 c -7.468,0 -13.542,-6.074 -13.542,-13.542 0,-2.328 0.591,-4.519 1.629,-6.435 1.976,-3.644 5.58,-6.269 9.826,-6.93 0.682,-0.106 1.375,-0.178 2.087,-0.178 0.67,0 1.325,0.065 1.97,0.16 4.282,0.628 7.925,3.253 9.924,6.913 1.05,1.923 1.647,4.126 1.647,6.469 0,7.469 -6.074,13.543 -13.541,13.543 z"/><path id="path13" fill="#555" fill-opacity="1" d="M 30.54,29.3 25.374,26.11 C 25.267,25.506 24.94,24.985 24.481,24.616 l 0.236,-6.482 C 24.746,17.306 24.1,16.611 23.273,16.58 22.448,16.542 21.75,17.196 21.719,18.024 l -0.237,6.489 c -0.641,0.452 -1.063,1.196 -1.063,2.041 0,1.381 1.119,2.499 2.5,2.499 0.393,0 0.76,-0.099 1.09,-0.26 l 4.955,3.062 c 0.246,0.15 0.519,0.223 0.787,0.223 0.503,0 0.993,-0.252 1.278,-0.711 0.436,-0.707 0.216,-1.631 -0.489,-2.067 z"/></g></g></g></svg>