<svg xmlns="http://www.w3.org/2000/svg" xmlns:osb="http://www.openswatchbook.org/uri/2009/osb" id="svg7384" width="16" height="16" enable-background="new" version="1.1"><metadata id="metadata90"/><title id="title8473">Paper Symbolic Icon Theme</title><defs id="defs7386"><filter id="filter7554" color-interpolation-filters="sRGB"><feBlend id="feBlend7556" in2="BackgroundImage" mode="darken"/></filter></defs><g id="layer9" transform="translate(-265 209)"><path style="block-progression:tb;text-indent:0;text-transform:none" id="path6390" fill="#555" d="m265-207v10.01c0.00002 0.83333 0.57399 1.5057 1.0625 1.75 0.48851 0.24436 0.9375 0.25 0.9375 0.25h12s0.44899-0.006 0.9375-0.25c0.48851-0.24426 1.0625-0.91667 1.0625-1.75v-5h-13.031l-0.46875 5.0312c-0.0164 0.2618-0.26945 0.48511-0.53125 0.46875-0.2618-0.0164-0.48511-0.26945-0.46875-0.53125l0.5-5.5c0.01-0.22281 0.18713-0.42714 0.40625-0.46875 0.0312-0.003 0.0626-0.003 0.0937 0h11.5l0.00005-2.0101c0-1-0.96528-0.98993-0.96528-0.98993h-4.5348l-2.5-2.0101h-5s-1 0-1 1z" color="#000" enable-background="accumulate"/></g></svg>