<svg xmlns="http://www.w3.org/2000/svg" xmlns:osb="http://www.openswatchbook.org/uri/2009/osb" xmlns:svg="http://www.w3.org/2000/svg" id="svg7384" width="16" height="16" enable-background="new" version="1.1"><metadata id="metadata90"/><title id="title8473">Paper Symbolic Icon Theme</title><defs id="defs7386"><linearGradient id="linearGradient5606" osb:paint="solid"><stop id="stop5608" offset="0" stop-color="#000" stop-opacity="1"/></linearGradient><filter id="filter7554" color-interpolation-filters="sRGB"><feBlend id="feBlend7556" in2="BackgroundImage" mode="darken"/></filter></defs><g id="layer9" display="inline" transform="translate(-284.0002,209)"><path id="path5101" fill="#555" fill-opacity="1" stroke="none" stroke-width="2" d="m 285.84395,-208 c -0.28125,0.0469 -0.84375,0.25 -0.84375,1 l 0,11 c 0,0 0,1 1,1 l 12,0 c 0,0 1,0 1,-1 l 0,-9 c 0,-1 -1,-1 -1,-1 l -5,0 -2,-2 -5,0 c 0,0 -0.0625,-0.0156 -0.15625,0 z m 1.15625,2 3.1875,0 1.40625,1.40625 0.5625,0.59375 0.84375,0 4,0 0,7 -10,0 0,-9 z" baseline-shift="baseline" color="#000" direction="ltr" display="inline" enable-background="accumulate" font-family="Sans" font-size="medium" font-stretch="normal" font-style="normal" font-variant="normal" font-weight="normal" letter-spacing="normal" overflow="visible" text-anchor="start" text-decoration="none" visibility="visible" word-spacing="normal" writing-mode="lr-tb" style="text-indent:0;text-align:start;line-height:normal;text-transform:none;block-progression:tb;marker:none;-inkscape-font-specification:Sans"/></g></svg>