<svg xmlns="http://www.w3.org/2000/svg" xmlns:osb="http://www.openswatchbook.org/uri/2009/osb" id="svg7384" width="16" height="16" enable-background="new" version="1.1"><metadata id="metadata90"/><title id="title8473">Paper Symbolic Icon Theme</title><defs id="defs7386"><filter id="filter7554" color-interpolation-filters="sRGB"><feBlend id="feBlend7556" in2="BackgroundImage" mode="darken"/></filter></defs><g id="layer9" transform="translate(-445 295)"><path style="text-indent:0;block-progression:tb;text-transform:none" id="path5096" fill="#555" d="m449-292c-1.6447 0-3 1.3553-3 3v2.6875c0.51709-0.64597 1.2055-1.1229 2-1.4062v-1.2812c0-0.5713 0.4287-1 1-1h1v-0.5-1-0.5h-1zm5 0v2h3c0.5713 0 1 0.4287 1 1v4c0 0.5713-0.4287 1-1 1h-1-0.65625-1.4062c0.0187 0.16677 0.0625 0.32822 0.0625 0.5 0 0.53043-0.11271 1.0274-0.28125 1.5h1.625 0.65625 1c1.6447 0 3-1.3553 3-3v-4c0-1.6447-1.3553-3-3-3h-3z" color="#000"/><path id="path5098" fill="#555" d="m451-291 4-3v6z"/><path id="path5102" fill="#555" d="m449.5-287c-1.933 0-3.5 1.567-3.5 3.5s1.567 3.5 3.5 3.5 3.5-1.567 3.5-3.5-1.567-3.5-3.5-3.5zm-0.5 1h1v5h-1v-3.5h-1v-0.5c1 0 1-1 1-1z" color="#bebebe" enable-background="accumulate"/></g></svg>