<svg xmlns="http://www.w3.org/2000/svg" xmlns:osb="http://www.openswatchbook.org/uri/2009/osb" id="svg7384" width="16" height="16" enable-background="new" version="1.1"><metadata id="metadata90"/><title id="title8473">Paper Symbolic Icon Theme</title><defs id="defs7386"><filter id="filter7554" color-interpolation-filters="sRGB"><feBlend id="feBlend7556" in2="BackgroundImage" mode="darken"/></filter></defs><g id="layer9" transform="translate(-485 455)"><g id="g6549" transform="translate(40)"><path id="path6552" fill="#555" d="m246 44s-1 0-1 1v2h2v-1h10v1h2v-2c0-1-1-1-1-1h-12zm-1 9v1c0 1 1 1 1 1h2l1 1h6l1-1h2s1 0.12994 1-1v-1h-2-2l-1 1h-4l-1-1h-2-2z" opacity=".35" transform="translate(201 -497)"/></g><path id="rect8040-5-9" fill="#555" d="m488-449c-1.108 0-2 0.892-2 2s0.892 2 2 2 2-0.892 2-2-0.892-2-2-2zm5 0c-1.108 0-2 0.892-2 2s0.892 2 2 2 2-0.892 2-2-0.892-2-2-2zm5 0c-1.108 0-2 0.892-2 2s0.892 2 2 2 2-0.892 2-2-0.892-2-2-2z" color="#000" enable-background="new"/></g></svg>