<svg xmlns="http://www.w3.org/2000/svg" xmlns:osb="http://www.openswatchbook.org/uri/2009/osb" xmlns:svg="http://www.w3.org/2000/svg" id="svg7384" width="16" height="16" enable-background="new" version="1.1"><metadata id="metadata90"/><title id="title8473">Paper Symbolic Icon Theme</title><defs id="defs7386"><linearGradient id="linearGradient5606" osb:paint="solid"><stop id="stop5608" offset="0" stop-color="#000" stop-opacity="1"/></linearGradient><filter id="filter7554" color-interpolation-filters="sRGB"><feBlend id="feBlend7556" in2="BackgroundImage" mode="darken"/></filter></defs><g id="layer9" display="inline" transform="translate(-405.00043,255.00336)"><path id="rect11474" fill="#555" fill-opacity="1" stroke="none" stroke-dasharray="none" stroke-linecap="round" stroke-miterlimit="4" stroke-opacity="1" stroke-width="3" d="m 413.00034,-254.99999 c 0.55228,0 1,0.44772 1,1 -2.9e-4,0.0333 -0.002,0.0665 -0.006,0.0996 2.29032,0.45883 4.00603,2.47123 4.00586,4.90039 l -1.4e-4,1.99999 0,2.5 2,2 0,0.5 -2,0 -10,0 -2,0 0,-0.5 2,-2 1.4e-4,-4.49999 c 8e-5,-2.42916 1.71568,-4.44157 4.00586,-4.90039 -0.004,-0.0331 -0.006,-0.0663 -0.006,-0.0996 0,-0.55228 0.44772,-1 1,-1 z M 414.72872,-241 c -0.35663,0.61771 -1.01525,0.99874 -1.72852,1 -0.71397,-5.6e-4 -1.37349,-0.38169 -1.73047,-1 z" opacity="1"/></g></svg>