<svg xmlns="http://www.w3.org/2000/svg" xmlns:osb="http://www.openswatchbook.org/uri/2009/osb" xmlns:svg="http://www.w3.org/2000/svg" id="svg7384" width="16" height="16" enable-background="new" version="1.1"><metadata id="metadata90"/><title id="title8473">Paper Symbolic Icon Theme</title><defs id="defs7386"><linearGradient id="linearGradient5606" osb:paint="solid"><stop id="stop5608" offset="0" stop-color="#000" stop-opacity="1"/></linearGradient><filter id="filter7554" color-interpolation-filters="sRGB"><feBlend id="feBlend7556" in2="BackgroundImage" mode="darken"/></filter></defs><g id="layer9" display="inline" transform="translate(-525.021,275.00336)"><path id="path10457" fill="#555" fill-opacity="1" stroke="none" stroke-opacity="1" d="m 533.01387,-274.00586 c -2.78552,-0.0354 -5.4589,1.78249 -6.48971,4.36344 -1.05686,2.47858 -0.47937,5.53421 1.40114,7.46202 1.29403,1.374 3.16335,2.18213 5.05146,2.17649 0,-0.66732 0,-1.33463 0,-2.00195 -2.29989,0.0347 -4.45267,-1.73117 -4.87649,-3.99026 -0.50427,-2.26105 0.82234,-4.7355 2.96253,-5.60927 2.08697,-0.93495 4.74498,-0.18155 6.03641,1.70704 0.59978,0.83866 0.92653,1.86742 0.92247,2.89835 0.66535,-0.003 1.34117,0.005 2,-0.004 0.0382,-2.75259 -1.73099,-5.40722 -4.27529,-6.4499 -0.86093,-0.36672 -1.80075,-0.54979 -2.73252,-0.55205 z" opacity="1"/></g></svg>