<svg xmlns="http://www.w3.org/2000/svg" xmlns:osb="http://www.openswatchbook.org/uri/2009/osb" xmlns:svg="http://www.w3.org/2000/svg" id="svg7384" width="16" height="16" enable-background="new" version="1.1"><metadata id="metadata90"/><title id="title8473">Paper Symbolic Icon Theme</title><defs id="defs7386"><linearGradient id="linearGradient5606" osb:paint="solid"><stop id="stop5608" offset="0" stop-color="#000" stop-opacity="1"/></linearGradient><filter id="filter7554" color-interpolation-filters="sRGB"><feBlend id="feBlend7556" in2="BackgroundImage" mode="darken"/></filter></defs><g id="layer9" display="inline" transform="translate(-425.0003,274.97211)"><path id="path6570" fill="#555" fill-opacity="1" stroke="none" stroke-dasharray="none" stroke-linecap="square" stroke-linejoin="miter" stroke-miterlimit="4" stroke-opacity="1" stroke-width="2" d="m 433.00041,-273 c 3.31371,0 6,2.68629 6,6 0,3.28006 -2.63316,5.94034 -5.90039,5.99414 a 1,1 0 0 1 -0.0996,0.006 1,1 0 0 1 -1,-1 1,1 0 0 1 1,-1 c 2.20914,0 4,-1.79086 4,-4 0,-2.20914 -1.79086,-4 -4,-4 -2.20914,0 -4,1.79086 -4,4 l 2,0 -3,4 -3,-4 2,0 c 0,-3.31371 2.68629,-6 6,-6 z" opacity="1"/></g></svg>