<svg xmlns="http://www.w3.org/2000/svg" xmlns:osb="http://www.openswatchbook.org/uri/2009/osb" id="svg7384" width="16" height="16" enable-background="new" version="1.1"><metadata id="metadata90"/><title id="title8473">Paper Symbolic Icon Theme</title><defs id="defs7386"><filter id="filter7554" color-interpolation-filters="sRGB"><feBlend id="feBlend7556" in2="BackgroundImage" mode="darken"/></filter></defs><g id="layer9" transform="translate(-505 395.01)"><path id="path10649" fill="#555" d="m513-395-6 1.9902v7c0 2.0716 1.5749 3.5218 2.9375 4.4688 1.3626 0.94693 3.0625 1.541 3.0625 1.541s1.7043-0.61672 3.0625-1.5723c1.3582-0.95555 2.9375-2.3932 2.9375-4.4375v-7l-6-1.9902zm0 2.1074 4 1.3262v5.5566c0 1.0143-0.90506 1.9706-2.0879 2.8027-0.77536 0.54551-1.4322 0.77757-1.9238 0.98242-0.49007-0.19878-1.1373-0.42191-1.9102-0.95898-1.1698-0.813-2.0781-1.7682-2.0781-2.8262v-5.5566l4-1.3262z" color="#bebebe" enable-background="accumulate" opacity=".35" style="text-indent:0;block-progression:tb;text-decoration-line:none;text-transform:none"/></g></svg>