<svg xmlns="http://www.w3.org/2000/svg" xmlns:osb="http://www.openswatchbook.org/uri/2009/osb" xmlns:svg="http://www.w3.org/2000/svg" id="svg7384" width="16" height="16" enable-background="new" version="1.1"><metadata id="metadata90"/><title id="title8473">Paper Symbolic Icon Theme</title><defs id="defs7386"><linearGradient id="linearGradient5606" osb:paint="solid"><stop id="stop5608" offset="0" stop-color="#000" stop-opacity="1"/></linearGradient><filter id="filter7554" color-interpolation-filters="sRGB"><feBlend id="feBlend7556" in2="BackgroundImage" mode="darken"/></filter></defs><g id="layer9" display="inline" transform="translate(-561.0002,390.99996)"><path id="path5087" fill="#555" fill-opacity="1" stroke="none" stroke-width="2" d="m 562.0002,-385.99995 c 0,0 0,2 0,3 0,1 0.0622,2.14708 0.2,2.99635 0.13782,0.84927 0.79977,3 0.79977,3 0,0 0.47642,0.99995 1,1 l 8,0 1,0 c 0.52358,-5e-5 1.00023,-0.99635 1,-1 0,0 0.66241,-2.15073 0.80023,-3 0.13782,-0.84927 0.2,-1.99635 0.2,-2.99635 0,-1 0,-3 0,-3 z" baseline-shift="baseline" color="#000" direction="ltr" display="inline" enable-background="accumulate" font-family="Sans" font-size="medium" font-stretch="normal" font-style="normal" font-variant="normal" font-weight="normal" letter-spacing="normal" overflow="visible" text-anchor="start" text-decoration="none" visibility="visible" word-spacing="normal" writing-mode="lr-tb" style="text-indent:0;text-align:start;line-height:normal;text-transform:none;block-progression:tb;marker:none;-inkscape-font-specification:Sans"/><path id="path5089" fill="#555" fill-opacity="1" stroke="none" stroke-width="2" d="m 561.99997,-388.0036 0,1 13.0002,-0.003 -2e-4,-0.99664 c 0,-1 -0.9998,-1.00336 -0.9998,-1.00336 l -3,0 c 0,0 0,-1 -1,-1 l -3,0 c -1,0 -1,1 -1,1 l -3,0 c 0,0 -1.0002,0.003 -1.0002,1.00336 z" baseline-shift="baseline" color="#000" direction="ltr" display="inline" enable-background="accumulate" font-family="Sans" font-size="medium" font-stretch="normal" font-style="normal" font-variant="normal" font-weight="normal" letter-spacing="normal" overflow="visible" text-anchor="start" text-decoration="none" visibility="visible" word-spacing="normal" writing-mode="lr-tb" style="text-indent:0;text-align:start;line-height:normal;text-transform:none;block-progression:tb;marker:none;-inkscape-font-specification:Sans"/></g></svg>