<svg xmlns="http://www.w3.org/2000/svg" xmlns:osb="http://www.openswatchbook.org/uri/2009/osb" id="svg7384" width="16" height="16" enable-background="new" version="1.1"><metadata id="metadata90"/><title id="title8473">Paper Symbolic Icon Theme</title><defs id="defs7386"><filter id="filter7554" color-interpolation-filters="sRGB"><feBlend id="feBlend7556" in2="BackgroundImage" mode="darken"/></filter></defs><g id="layer9" transform="translate(-365 315)"><g id="g6221" fill="#bebebe" transform="matrix(0 1 1 0 88 -356)"><path style="text-indent:0;block-progression:tb;text-transform:none" id="path6223" fill="#555" d="m106 165c-1.6447 0-3 1.3553-3 3v1 0.65625 3.3438 3c0 1.6447 1.3553 3 3 3h3v-2h-3c-0.5713 0-1-0.4287-1-1v-3-3.3438-0.65625-1c0-0.5713 0.4287-1 1-1h4c0.5713 0 1 0.4287 1 1v3h2v-3c0-1.6447-1.3553-3-3-3h-4z" color="#000" transform="matrix(0 -1 1 0 -123 393)"/></g><path id="path6225" fill="#555" d="m369-305-3-4h6z"/></g></svg>