<svg xmlns="http://www.w3.org/2000/svg" xmlns:osb="http://www.openswatchbook.org/uri/2009/osb" xmlns:svg="http://www.w3.org/2000/svg" id="svg7384" width="16" height="16.07" enable-background="new" version="1.1"><metadata id="metadata90"/><title id="title8473">Paper Symbolic Icon Theme</title><defs id="defs7386"><linearGradient id="linearGradient5606" osb:paint="solid"><stop id="stop5608" offset="0" stop-color="#000" stop-opacity="1"/></linearGradient><filter id="filter7554" color-interpolation-filters="sRGB"><feBlend id="feBlend7556" in2="BackgroundImage" mode="darken"/></filter></defs><g id="layer9" display="inline" transform="translate(-545.0002,331.00287)"><path id="path6162" fill="#555" fill-opacity="1" stroke="none" d="m 553.0002,-331 c -2.07107,0 -3.83471,1.26792 -4.59375,3.0625 -1.92783,0.2866 -3.40625,1.92992 -3.40625,3.9375 0,2.20914 1.79086,4 4,4 l 2,0 0,-2.5 c 0,-0.831 0.669,-1.5 1.5,-1.5 0.831,0 1.5,0.669 1.5,1.5 l 0,2.5 3.5,0 c 1.933,0 3.5,-1.567 3.5,-3.5 0,-1.79654 -1.35079,-3.2687 -3.09375,-3.46875 C 557.45188,-329.26214 555.42707,-331 553.0002,-331 z"/><path font-stretch="normal" style="text-indent:0;text-align:start;line-height:normal;text-transform:none;block-progression:tb;marker:none;-inkscape-font-specification:Sans" id="path7353" fill="#555" fill-opacity="1" stroke="none" stroke-width="1" d="m 552.34417,-323.003 c -0.20652,0.0677 -0.35453,0.28294 -0.34375,0.5 l 0,3.78089 c -0.0134,0.0301 -0.0239,0.0615 -0.0312,0.0937 l -0.625,0.625 -0.0312,0 -1.8125,0 -0.21875,0 -0.125,0.15625 -1,1 c -0.25698,0.15718 -0.30568,0.56716 -0.0927,0.78017 0.21301,0.21301 0.62299,0.16431 0.78017,-0.0927 l 0.84365,-0.8437 1.3125,0 0,1.5 c -0.004,0.26416 0.23582,0.50712 0.5,0.50712 0.26418,0 0.50374,-0.24296 0.5,-0.50712 l 0,-1.8125 0.6875,-0.6875 2.125,0 0.75,0.75 -1.40625,1.40625 c -0.25698,0.15718 -0.30568,0.56716 -0.0927,0.78017 0.21301,0.21301 0.62299,0.16431 0.78017,-0.0927 l 1.40625,-1.40625 1.40625,1.40625 c 0.15718,0.25698 0.56716,0.30568 0.78017,0.0927 0.21301,-0.21301 0.16431,-0.62299 -0.0927,-0.78017 l -3,-3 -0.125,-0.15625 -0.21875,0 -2,0 0,-3.49964 c 0.005,-0.29617 -0.30279,-0.55555 -0.59375,-0.5 -0.0208,-10e-4 -0.0417,-10e-4 -0.0625,0 z" baseline-shift="baseline" color="#000" direction="ltr" display="inline" enable-background="accumulate" font-family="Sans" font-style="normal" font-variant="normal" font-weight="normal" letter-spacing="normal" overflow="visible" text-anchor="start" text-decoration="none" visibility="visible" word-spacing="normal" writing-mode="lr-tb"/></g></svg>