<svg xmlns="http://www.w3.org/2000/svg" xmlns:osb="http://www.openswatchbook.org/uri/2009/osb" xmlns:svg="http://www.w3.org/2000/svg" id="svg7384" width="16" height="16" enable-background="new" version="1.1"><metadata id="metadata90"/><title id="title8473">Paper Symbolic Icon Theme</title><defs id="defs7386"><linearGradient id="linearGradient5606" osb:paint="solid"><stop id="stop5608" offset="0" stop-color="#000" stop-opacity="1"/></linearGradient><filter id="filter7554" color-interpolation-filters="sRGB"><feBlend id="feBlend7556" in2="BackgroundImage" mode="darken"/></filter></defs><g id="layer9" display="inline" transform="translate(-465.0002,331.00299)"><path class="error" style="marker:none" id="rect7811" fill="#e74c3c" fill-opacity="1" stroke="none" stroke-width="2" d="m 472.0004,-325.00336 0,4 0.25,2 1.5,0 0.25,-2 0,-4 z m 0,7 0,2 2,0 0,-2 z" color="#555" display="inline" enable-background="accumulate" overflow="visible" visibility="visible"/><path id="path5914" fill="#555" fill-opacity="1" stroke="none" d="m 473.0002,-331 c -2.07107,0 -3.83471,1.26792 -4.59375,3.0625 -1.92783,0.2866 -3.40625,1.92992 -3.40625,3.9375 0,2.20914 1.79086,4 4,4 l 2,0 0,-6 4,0 0,6 2.5,0 c 1.933,0 3.5,-1.567 3.5,-3.5 0,-1.79654 -1.35079,-3.2687 -3.09375,-3.46875 C 477.45188,-329.26214 475.42707,-331 473.0002,-331 z" display="inline" enable-background="new"/></g></svg>