<svg xmlns="http://www.w3.org/2000/svg" xmlns:osb="http://www.openswatchbook.org/uri/2009/osb" xmlns:svg="http://www.w3.org/2000/svg" id="svg7384" width="16" height="16.003" enable-background="new" version="1.1"><metadata id="metadata90"/><title id="title8473">Paper Symbolic Icon Theme</title><defs id="defs7386"><linearGradient id="linearGradient5606" osb:paint="solid"><stop id="stop5608" offset="0" stop-color="#000" stop-opacity="1"/></linearGradient><filter id="filter7554" color-interpolation-filters="sRGB"><feBlend id="feBlend7556" in2="BackgroundImage" mode="darken"/></filter></defs><g id="layer9" display="inline" transform="translate(-405.0002,331.00336)"><path d="m 412.0002,-331 -0.5,1.03125 c 0.16191,-0.0133 0.3348,-0.0312 0.5,-0.0312 l 0.5,0 -0.5,-1 z m 0,2 c -2.76142,0 -5,2.23859 -5,5 0,2.254 1.51261,4.12577 3.5625,4.75 0.46885,-0.67743 1.17975,-1.20533 1.96875,-1.4375 0.61973,-1.32203 1.97474,-2.3383 3.46875,-2.3125 0.30449,-0.005 0.58708,0.056 0.875,0.125 0.0845,-0.36435 0.125,-0.73495 0.125,-1.125 0,-2.76141 -2.23858,-5 -5,-5 z m -4.9375,0.0625 0.34375,1.0625 c 0.21905,-0.25922 0.45953,-0.4997 0.71875,-0.71875 l -1.0625,-0.34375 z m 9.875,0 -1.09375,0.375 -0.0625,0 c 0.13917,0.11095 0.27498,0.22511 0.40625,0.34375 0.13127,0.11864 0.25799,0.24175 0.375,0.375 l 0.375,-1.09375 z m -10.9375,4.4375 -1,0.5 1.03125,0.5 c -0.0148,-0.16931 -0.0312,-0.3264 -0.0312,-0.5 0,-0.0275 -0.002,-0.0836 0,-0.15625 0.006,-0.11583 0.0223,-0.23224 0.0312,-0.34375 l -0.0312,0 z m 11.96875,0 c 0.0148,0.16931 0.0312,0.3264 0.0312,0.5 0,0.0275 0.002,0.0836 0,0.15625 -0.006,0.11583 -0.0223,0.23224 -0.0312,0.34375 l 0.0312,0 1,-0.5 -1.03125,-0.5 z m -10.53125,4.34375 -0.375,1.09375 1.09375,-0.375 0.0625,0 c -0.13917,-0.11095 -0.27498,-0.22511 -0.40625,-0.34375 -0.13127,-0.11864 -0.25799,-0.24175 -0.375,-0.375 z" style="marker:none" id="path6096" fill="#555" fill-opacity="1" fill-rule="nonzero" stroke="none" stroke-width="2" color="#555" display="inline" enable-background="accumulate" overflow="visible" visibility="visible"/><path id="path6304" fill="#555" fill-opacity="1" stroke="none" d="m 416.0002,-322 c -1.31168,0 -2.40482,0.85843 -2.8125,2.03125 -1.23083,0.15597 -2.1875,1.19557 -2.1875,2.46875 0,1.38071 1.11929,2.5 2.5,2.5 l 5.5,0 c 1.10457,0 2,-0.89543 2,-2 0,-1.10457 -0.89543,-2 -2,-2 0,-1.65685 -1.34315,-3 -3,-3 z"/></g></svg>