<svg xmlns="http://www.w3.org/2000/svg" xmlns:osb="http://www.openswatchbook.org/uri/2009/osb" xmlns:svg="http://www.w3.org/2000/svg" id="svg7384" width="16" height="16" enable-background="new" version="1.1"><metadata id="metadata90"/><title id="title8473">Paper Symbolic Icon Theme</title><defs id="defs7386"><linearGradient id="linearGradient5606" osb:paint="solid"><stop id="stop5608" offset="0" stop-color="#000" stop-opacity="1"/></linearGradient><filter id="filter7554" color-interpolation-filters="sRGB"><feBlend id="feBlend7556" in2="BackgroundImage" mode="darken"/></filter></defs><g id="layer9" display="inline" transform="translate(-485.0002,331.00336)"><path id="path6124" fill="#555" fill-opacity="1" stroke="none" stroke-width="1" d="m 487.875,-319 a 0.50005,0.50005 0 0 0 -0.3125,0.28125 l -1,2 a 0.50005,0.50005 0 1 0 0.875,0.4375 l 1,-2 A 0.50005,0.50005 0 0 0 487.875,-319 z" baseline-shift="baseline" color="#000" direction="ltr" display="inline" enable-background="accumulate" font-family="Sans" font-size="medium" font-stretch="normal" font-style="normal" font-variant="normal" font-weight="normal" letter-spacing="normal" overflow="visible" text-anchor="start" text-decoration="none" visibility="visible" word-spacing="normal" writing-mode="lr-tb" style="text-indent:0;text-align:start;line-height:normal;text-transform:none;block-progression:tb;marker:none;-inkscape-font-specification:Sans"/><path id="path6128" fill="#555" fill-opacity="1" stroke="none" stroke-width="1" d="m 490.375,-319 a 0.50005,0.50005 0 0 0 -0.3125,0.28125 l -1,2 a 0.50005,0.50005 0 1 0 0.875,0.4375 l 1,-2 A 0.50005,0.50005 0 0 0 490.375,-319 z" baseline-shift="baseline" color="#000" direction="ltr" display="inline" enable-background="accumulate" font-family="Sans" font-size="medium" font-stretch="normal" font-style="normal" font-variant="normal" font-weight="normal" letter-spacing="normal" overflow="visible" text-anchor="start" text-decoration="none" visibility="visible" word-spacing="normal" writing-mode="lr-tb" style="text-indent:0;text-align:start;line-height:normal;text-transform:none;block-progression:tb;marker:none;-inkscape-font-specification:Sans"/><path id="path6132" fill="#555" fill-opacity="1" stroke="none" stroke-width="1" d="m 492.875,-319 a 0.50005,0.50005 0 0 0 -0.3125,0.28125 l -1,2 a 0.50005,0.50005 0 1 0 0.875,0.4375 l 1,-2 A 0.50005,0.50005 0 0 0 492.875,-319 z" baseline-shift="baseline" color="#000" direction="ltr" display="inline" enable-background="accumulate" font-family="Sans" font-size="medium" font-stretch="normal" font-style="normal" font-variant="normal" font-weight="normal" letter-spacing="normal" overflow="visible" text-anchor="start" text-decoration="none" visibility="visible" word-spacing="normal" writing-mode="lr-tb" style="text-indent:0;text-align:start;line-height:normal;text-transform:none;block-progression:tb;marker:none;-inkscape-font-specification:Sans"/><path id="path6136" fill="#555" fill-opacity="1" stroke="none" stroke-width="1" d="m 495.375,-319 a 0.50005,0.50005 0 0 0 -0.3125,0.28125 l -1,2 a 0.50005,0.50005 0 1 0 0.875,0.4375 l 1,-2 A 0.50005,0.50005 0 0 0 495.375,-319 z" baseline-shift="baseline" color="#000" direction="ltr" display="inline" enable-background="accumulate" font-family="Sans" font-size="medium" font-stretch="normal" font-style="normal" font-variant="normal" font-weight="normal" letter-spacing="normal" overflow="visible" text-anchor="start" text-decoration="none" visibility="visible" word-spacing="normal" writing-mode="lr-tb" style="text-indent:0;text-align:start;line-height:normal;text-transform:none;block-progression:tb;marker:none;-inkscape-font-specification:Sans"/><path id="path6140" fill="#555" fill-opacity="1" stroke="none" stroke-width="1" d="m 497.875,-319 a 0.50005,0.50005 0 0 0 -0.3125,0.28125 l -1,2 a 0.50005,0.50005 0 1 0 0.875,0.4375 l 1,-2 A 0.50005,0.50005 0 0 0 497.875,-319 z" baseline-shift="baseline" color="#000" direction="ltr" display="inline" enable-background="accumulate" font-family="Sans" font-size="medium" font-stretch="normal" font-style="normal" font-variant="normal" font-weight="normal" letter-spacing="normal" overflow="visible" text-anchor="start" text-decoration="none" visibility="visible" word-spacing="normal" writing-mode="lr-tb" style="text-indent:0;text-align:start;line-height:normal;text-transform:none;block-progression:tb;marker:none;-inkscape-font-specification:Sans"/><path id="path5884" fill="#555" fill-opacity="1" stroke="none" d="m 493.0002,-331 c -2.07107,0 -3.83471,1.26792 -4.59375,3.0625 -1.92783,0.2866 -3.40625,1.92992 -3.40625,3.9375 0,2.20914 1.79086,4 4,4 l 8.5,0 c 1.933,0 3.5,-1.567 3.5,-3.5 0,-1.79654 -1.35079,-3.2687 -3.09375,-3.46875 C 497.45188,-329.26214 495.42707,-331 493.0002,-331 z"/></g></svg>