<svg xmlns="http://www.w3.org/2000/svg" xmlns:osb="http://www.openswatchbook.org/uri/2009/osb" xmlns:svg="http://www.w3.org/2000/svg" id="svg7384" width="16" height="16" enable-background="new" version="1.1"><metadata id="metadata90"/><title id="title8473">Paper Symbolic Icon Theme</title><defs id="defs7386"><linearGradient id="linearGradient5606" osb:paint="solid"><stop id="stop5608" offset="0" stop-color="#000" stop-opacity="1"/></linearGradient><filter id="filter7554" color-interpolation-filters="sRGB"><feBlend id="feBlend7556" in2="BackgroundImage" mode="darken"/></filter></defs><g id="layer9" display="inline" transform="translate(-505.0002,335.00336)"><path id="path5970" fill="#555" fill-opacity="1" stroke="none" d="m 513.0002,-335 c -2.07107,0 -3.83471,1.26792 -4.59375,3.0625 -1.92783,0.2866 -3.40625,1.92992 -3.40625,3.9375 0,1.933 1.36477,3.53327 3.1875,3.90625 0.76412,-0.77854 1.52122,-1.56145 2.3125,-2.3125 0.57304,0.53801 1.13306,1.09923 1.6875,1.65625 0.24292,-0.069 0.38252,-0.84617 0.71875,-1.09375 0.85427,-0.86808 1.70924,-1.72483 2.59375,-2.5625 0.66629,0.62449 1.29148,1.26106 1.9375,1.90625 0.59794,0.57143 1.22758,1.20365 1.4375,2.03125 0.016,0.0511 0.018,0.10465 0.0312,0.15625 1.23525,-0.54049 2.0938,-1.75295 2.0938,-3.1875 0,-1.79654 -1.35079,-3.2687 -3.09375,-3.46875 C 517.45188,-333.26214 515.42707,-335 513.0002,-335 z m 2.5,9.4375 c -0.0852,0.0828 -0.1647,0.1673 -0.25,0.25 -0.39699,0.41584 -0.89926,0.78359 -1.125,1.3125 l 2.78125,0 c -0.0262,-0.0614 -0.0565,-0.12918 -0.0937,-0.1875 -0.3731,-0.51309 -0.87897,-0.91335 -1.3125,-1.375 z"/><path font-family="Sans" style="text-indent:0;text-align:start;line-height:normal;text-transform:none;block-progression:tb;marker:none;-inkscape-font-specification:Sans" id="path7625" fill="#555" fill-opacity="1" stroke="none" stroke-width="1" d="m 515.5004,-327.00336 -0.34375,0.34375 -1.40625,1.40625 c -0.45315,0.45315 -0.75,1.0626 -0.75,1.75 0,1.37479 1.12521,2.5 2.5,2.5 1.37479,0 2.5,-1.12521 2.5,-2.5 0,-0.6874 -0.29685,-1.29685 -0.75,-1.75 l -1.40625,-1.40625 z m -5,2 -0.34375,0.34375 -1.40625,1.40625 c -0.45315,0.45315 -0.75,1.0626 -0.75,1.75 0,1.37479 1.12521,2.5 2.5,2.5 1.37479,0 2.5,-1.12521 2.5,-2.5 0,-0.6874 -0.29685,-1.29685 -0.75,-1.75 l -1.40625,-1.40625 z" baseline-shift="baseline" class="link" color="#000" direction="ltr" display="inline" enable-background="accumulate" font-stretch="normal" font-style="normal" font-variant="normal" font-weight="normal" letter-spacing="normal" overflow="visible" text-anchor="start" text-decoration="none" visibility="visible" word-spacing="normal" writing-mode="lr-tb"/></g></svg>