<svg xmlns="http://www.w3.org/2000/svg" xmlns:osb="http://www.openswatchbook.org/uri/2009/osb" xmlns:svg="http://www.w3.org/2000/svg" xmlns:xlink="http://www.w3.org/1999/xlink" id="svg5453" width="48" height="48" version="1.1"><defs id="defs5455"><linearGradient id="linearGradient4581"><stop id="stop4583" offset="0" stop-color="#4469b9" stop-opacity="1"/><stop id="stop4585" offset="1" stop-color="#5d91ff" stop-opacity="1"/></linearGradient><linearGradient id="linearGradient4232"><stop id="stop4234-0" offset="0" stop-color="#3889e9" stop-opacity="1"/><stop id="stop4236" offset="1" stop-color="#5ea5fb" stop-opacity="1"/></linearGradient><linearGradient id="linearGradient3426" x1="399.571" x2="399.571" y1="545.798" y2="517.798" gradientUnits="userSpaceOnUse" xlink:href="#linearGradient4232"/><linearGradient id="linearGradient4181" x1="399.994" x2="399.994" y1="545.139" y2="518.139" gradientUnits="userSpaceOnUse" xlink:href="#linearGradient4581"/><style id="current-color-scheme" type="text/css"/><style id="current-color-scheme-8" type="text/css"/><style id="current-color-scheme-7" type="text/css"/><linearGradient id="linearGradient4207" osb:paint="gradient"><stop id="stop3371" offset="0" stop-color="#3498db" stop-opacity="1"/><stop id="stop3373" offset="1" stop-color="#3498db" stop-opacity="0"/></linearGradient><linearGradient id="linearGradient4606"><stop id="stop4608" offset="0" stop-color="#306ca0" stop-opacity="1"/><stop id="stop4610" offset="1" stop-color="#5f9dd2" stop-opacity="1"/></linearGradient><linearGradient id="linearGradient4612" x1="408.722" x2="408.722" y1="-547.8" y2="-499.81" gradientUnits="userSpaceOnUse" xlink:href="#linearGradient4606"/></defs><metadata id="metadata5458"/><g id="layer1" transform="translate(-384.57143,-499.798)"><g id="g4471" transform="matrix(1.0931221,0,0,1.0931221,33.310366,-50.486049)"><g id="g4320" stroke="none" transform="matrix(0.98381885,0,0,0.98381885,5.5651187,8.3948576)"><g id="layer1-3" stroke="none" stroke-dasharray="none" stroke-miterlimit="4" stroke-opacity="1" stroke-width="1.3" transform="matrix(1.5444819,0,0,1.5444819,-275.17538,-295.73877)"><circle id="path3377" cx="400.571" cy="531.798" r="14" fill="url(#linearGradient4181)" fill-opacity="1" stroke="none" stroke-dasharray="none" stroke-dashoffset="0" stroke-miterlimit="4" stroke-opacity="1" stroke-width=".941" opacity="1"/><circle id="ellipse4233" cx="400.571" cy="531.798" r="0" fill="url(#linearGradient3426)" fill-opacity="1" stroke="none" stroke-dasharray="none" stroke-dashoffset="0" stroke-miterlimit="4" stroke-opacity="1" stroke-width="1.3" opacity="1"/></g></g><g id="layer1-2" transform="matrix(0.91481089,0,0,0.91481089,-163.16748,-245.05342)"><g id="layer1-6" transform="translate(-120.10595,41.912995)"><g id="g5657" stroke="none" stroke-dasharray="none" stroke-miterlimit="4" stroke-opacity="1" stroke-width="1.3" transform="matrix(1.4798576,0,0,1.4798576,22.783781,14.417625)"><g id="layer1-1" transform="matrix(0.67574069,0,0,0.67574069,112.13368,179.01341)"><path id="path4130" fill="#000" fill-opacity=".235" stroke="#eaeff9" stroke-dasharray="none" stroke-miterlimit="4" stroke-opacity="1" stroke-width="1.428" d="m 488.74468,507.9142 a 9.6458426,9.6458426 0 0 0 -9.35125,7.31488 9.6458426,9.6458426 0 0 0 -7.30974,9.34612 l 0,9.64584 9.64584,0 a 9.6458426,9.6458426 0 0 0 9.35126,-7.31488 9.6458426,9.6458426 0 0 0 7.30974,-9.34612 l 0,-9.64584 -9.64585,0 z m 0,1.37872 8.26713,0 0,8.26712 a 8.2678703,8.2678703 0 0 1 -5.67754,7.84068 9.6458426,9.6458426 0 0 0 0.0411,-0.82552 9.6458426,9.6458426 0 0 0 -9.64584,-9.64584 9.6458426,9.6458426 0 0 0 -0.83066,0.0411 8.2678703,8.2678703 0 0 1 7.84581,-5.67755 z m -7.01515,7.01515 a 8.2678703,8.2678703 0 0 1 8.26713,8.26713 8.2678703,8.2678703 0 0 1 -0.0925,1.1612 8.2678703,8.2678703 0 0 1 -1.15949,0.0908 8.2678703,8.2678703 0 0 1 -8.26712,-8.26713 8.2678703,8.2678703 0 0 1 0.0925,-1.1612 8.2678703,8.2678703 0 0 1 1.15949,-0.0908 z m -2.58957,0.42646 a 9.6458426,9.6458426 0 0 0 -0.0411,0.82551 9.6458426,9.6458426 0 0 0 9.64585,9.64585 9.6458426,9.6458426 0 0 0 0.83065,-0.0411 8.2678703,8.2678703 0 0 1 -7.84581,5.67755 l -8.26712,0 0,-8.26713 a 8.2678703,8.2678703 0 0 1 5.67754,-7.84067 z"/></g></g></g></g></g></g></svg>