<svg xmlns="http://www.w3.org/2000/svg" xmlns:osb="http://www.openswatchbook.org/uri/2009/osb" xmlns:svg="http://www.w3.org/2000/svg" id="svg7384" width="16" height="16" enable-background="new" version="1.1"><metadata id="metadata90"/><title id="title8473">Paper Symbolic Icon Theme</title><defs id="defs7386"><linearGradient id="linearGradient5606" osb:paint="solid"><stop id="stop5608" offset="0" stop-color="#000" stop-opacity="1"/></linearGradient><filter id="filter7554" color-interpolation-filters="sRGB"><feBlend id="feBlend7556" in2="BackgroundImage" mode="darken"/></filter></defs><g id="g71291" display="inline" transform="translate(-745.00017,139.00336)"><path id="rect5869" fill="#555" fill-opacity="1" fill-rule="nonzero" stroke="none" stroke-width="2" d="m 753.0002,-138.00391 c -3.86599,0 -7,3.13401 -7,7 0,3.86599 3.13401,7 7,7 3.86599,0 7,-3.13401 7,-7 0,-3.86599 -3.13401,-7 -7,-7 z m -3,4.00391 c 0.55407,0 1,0.44945 1,1 0,0.55064 -0.44593,1 -1,1 -0.55424,0 -1,-0.44936 -1,-1 0,-0.55055 0.44576,-1 1,-1 z m 6,0 c 0.55415,0 1,0.44945 1,1 0,0.55064 -0.44585,1 -1,1 -0.55407,0 -1,-0.44936 -1,-1 0,-0.55055 0.44593,-1 1,-1 z m -7,3.99609 4,1 4,-1 c 0.0206,0.14762 0.0192,0.27798 0,0.40625 -0.0576,0.38481 -0.27337,0.6646 -0.65625,0.75 l -1.34375,0.34375 1.3125,0.3125 c 0.53601,0.14363 0.6606,0.49922 0.6875,0.84375 0.009,0.11484 0,0.23785 0,0.34375 l -4,-1 -4,1 c -0.0655,-0.63125 0.0484,-0.97818 0.53125,-1.125 l 1.46875,-0.375 -1.5,-0.34375 c -0.4745,-0.12796 -0.5831,-0.67248 -0.5,-1.15625 z" color="#bebebe" display="inline" enable-background="accumulate" overflow="visible" visibility="visible" style="marker:none"/></g></svg>