<svg xmlns="http://www.w3.org/2000/svg" xmlns:osb="http://www.openswatchbook.org/uri/2009/osb" xmlns:svg="http://www.w3.org/2000/svg" id="svg7384" width="16" height="16" enable-background="new" version="1.1"><metadata id="metadata90"/><title id="title8473">Paper Symbolic Icon Theme</title><defs id="defs7386"><linearGradient id="linearGradient5606" osb:paint="solid"><stop id="stop5608" offset="0" stop-color="#000" stop-opacity="1"/></linearGradient><filter id="filter7554" color-interpolation-filters="sRGB"><feBlend id="feBlend7556" in2="BackgroundImage" mode="darken"/></filter></defs><g id="g71291" display="inline" transform="translate(-845.00035,139.00336)"><path id="path5843" fill="#555" fill-opacity="1" fill-rule="nonzero" stroke="none" stroke-width="2" d="m 853.00019,-138.00336 c 3.86599,0 7,3.13401 7,7 0,3.86599 -3.13401,7 -7,7 -3.86599,0 -7,-3.13401 -7,-7 0,-3.86599 3.13401,-7 7,-7 z m -2.46875,3 c -0.73437,0 -1.46875,0.44603 -1.53125,1.3125 -0.125,1.73294 1.5,-0.33848 3,0 0,-0.86647 -0.73438,-1.3125 -1.46875,-1.3125 z m 4.9375,0 c -0.73437,0 -1.46875,0.44603 -1.46875,1.3125 1.5,-0.33848 3.125,1.73294 3,0 -0.0625,-0.86647 -0.79688,-1.3125 -1.53125,-1.3125 z m -2.46875,3 c -1.38071,0 -2.5,1.34315 -2.5,3 0,1.65685 1.11929,3 2.5,3 1.38071,0 2.5,-1.34315 2.5,-3 0,-1.65685 -1.11929,-3 -2.5,-3 z" color="#bebebe" display="inline" enable-background="accumulate" overflow="visible" visibility="visible" style="marker:none"/></g></svg>