<svg xmlns="http://www.w3.org/2000/svg" xmlns:osb="http://www.openswatchbook.org/uri/2009/osb" xmlns:svg="http://www.w3.org/2000/svg" xmlns:xlink="http://www.w3.org/1999/xlink" id="svg5453" width="64" height="64" version="1.1"><defs id="defs5455"><linearGradient id="linearGradient6088"><stop id="stop6090" offset="0" stop-color="#1365f4" stop-opacity="1"/><stop id="stop6092" offset="1" stop-color="#05b2fc" stop-opacity="1"/></linearGradient><linearGradient id="linearGradient4232-2"><stop id="stop4234-0" offset="0" stop-color="#3889e9" stop-opacity="1"/><stop id="stop4236-5" offset="1" stop-color="#5ea5fb" stop-opacity="1"/></linearGradient><linearGradient id="linearGradient3426" x1="399.571" x2="399.571" y1="545.798" y2="517.798" gradientUnits="userSpaceOnUse" xlink:href="#linearGradient4232-2"/><linearGradient id="linearGradient4181" x1="400.512" x2="400.699" y1="546.074" y2="517.773" gradientUnits="userSpaceOnUse" xlink:href="#linearGradient6088"/><linearGradient id="linearGradient4271"><stop id="stop4273" offset="0" stop-color="#e3e3e3" stop-opacity="1"/><stop id="stop4275" offset="1" stop-color="#fffcff" stop-opacity="1"/></linearGradient><linearGradient id="linearGradient4544" x1="41.165" x2="54.039" y1="89.364" y2="20.836" gradientUnits="userSpaceOnUse" xlink:href="#linearGradient4271"/><linearGradient id="linearGradient4901" x1="41.165" x2="54.039" y1="89.364" y2="20.836" gradientUnits="userSpaceOnUse" xlink:href="#linearGradient4271"/><linearGradient id="linearGradient4903" x1="41.165" x2="54.039" y1="89.364" y2="20.836" gradientUnits="userSpaceOnUse" xlink:href="#linearGradient4271"/><linearGradient id="linearGradient4905" x1="41.165" x2="54.039" y1="89.364" y2="20.836" gradientUnits="userSpaceOnUse" xlink:href="#linearGradient4271"/><linearGradient id="linearGradient4907" x1="41.165" x2="54.039" y1="89.364" y2="20.836" gradientUnits="userSpaceOnUse" xlink:href="#linearGradient4271"/><linearGradient id="linearGradient4909" x1="41.165" x2="54.039" y1="89.364" y2="20.836" gradientUnits="userSpaceOnUse" xlink:href="#linearGradient4271"/><linearGradient id="linearGradient4911" x1="41.165" x2="54.039" y1="89.364" y2="20.836" gradientUnits="userSpaceOnUse" xlink:href="#linearGradient4271"/><linearGradient id="linearGradient4913" x1="41.165" x2="54.039" y1="89.364" y2="20.836" gradientUnits="userSpaceOnUse" xlink:href="#linearGradient4271"/><linearGradient id="linearGradient4915" x1="41.165" x2="54.039" y1="89.364" y2="20.836" gradientUnits="userSpaceOnUse" xlink:href="#linearGradient4271"/><linearGradient id="linearGradient4917" x1="41.165" x2="54.039" y1="89.364" y2="20.836" gradientUnits="userSpaceOnUse" xlink:href="#linearGradient4271"/><linearGradient id="linearGradient4919" x1="41.165" x2="54.039" y1="89.364" y2="20.836" gradientUnits="userSpaceOnUse" xlink:href="#linearGradient4271"/><linearGradient id="linearGradient4921" x1="41.165" x2="54.039" y1="89.364" y2="20.836" gradientUnits="userSpaceOnUse" xlink:href="#linearGradient4271"/><linearGradient id="linearGradient4923" x1="41.165" x2="54.039" y1="89.364" y2="20.836" gradientUnits="userSpaceOnUse" xlink:href="#linearGradient4271"/><linearGradient id="linearGradient4925" x1="41.165" x2="54.039" y1="89.364" y2="20.836" gradientUnits="userSpaceOnUse" xlink:href="#linearGradient4271"/><linearGradient id="linearGradient4927" x1="41.165" x2="54.039" y1="89.364" y2="20.836" gradientUnits="userSpaceOnUse" xlink:href="#linearGradient4271"/><linearGradient id="linearGradient4929" x1="41.165" x2="54.039" y1="89.364" y2="20.836" gradientUnits="userSpaceOnUse" xlink:href="#linearGradient4271"/><linearGradient id="linearGradient4931" x1="41.165" x2="54.039" y1="89.364" y2="20.836" gradientUnits="userSpaceOnUse" xlink:href="#linearGradient4271"/><linearGradient id="linearGradient4933" x1="41.165" x2="54.039" y1="89.364" y2="20.836" gradientUnits="userSpaceOnUse" xlink:href="#linearGradient4271"/><style id="current-color-scheme" type="text/css"/><style id="current-color-scheme-8" type="text/css"/><style id="current-color-scheme-7" type="text/css"/><linearGradient id="linearGradient4207" osb:paint="gradient"><stop id="stop3371" offset="0" stop-color="#3498db" stop-opacity="1"/><stop id="stop3373" offset="1" stop-color="#3498db" stop-opacity="0"/></linearGradient><style id="current-color-scheme-71" type="text/css"/><style id="current-color-scheme-8-4" type="text/css"/><style id="current-color-scheme-7-2" type="text/css"/><linearGradient id="linearGradient6080" x1="394.818" x2="396.73" y1="546.728" y2="518.37" gradientUnits="userSpaceOnUse" xlink:href="#linearGradient6088"/><style id="current-color-scheme-2" type="text/css"/><style id="current-color-scheme-8-48" type="text/css"/><style id="current-color-scheme-7-5" type="text/css"/><style id="current-color-scheme-71-1" type="text/css"/><style id="current-color-scheme-8-4-7" type="text/css"/><style id="current-color-scheme-7-2-0" type="text/css"/></defs><metadata id="metadata5458"/><g id="layer1" transform="translate(-376.57144,-491.79797)"><g id="layer1-5" transform="matrix(1.6773543,0,0,1.6773543,-263.44026,-368.29195)"><circle id="ellipse4233" cx="400.571" cy="531.798" r="0" fill="url(#linearGradient3426)" fill-opacity="1" stroke="none" stroke-dasharray="none" stroke-dashoffset="0" stroke-miterlimit="4" stroke-opacity="1" stroke-width="4" opacity="1"/><g id="g4265" transform="matrix(1.0753113,0,0,1.0753113,-30.117002,-39.985805)"><g id="g4277" transform="matrix(1.039268,0,0,1.039268,-15.714789,-20.900341)"><circle id="path3377-1" cx="400.571" cy="531.798" r="14" fill="url(#linearGradient4181)" fill-opacity="1" stroke="url(#linearGradient6080)" stroke-dasharray="none" stroke-dashoffset="0" stroke-miterlimit="4" stroke-opacity="1" stroke-width=".808" opacity="1"/><circle id="circle4174" cx="400.571" cy="531.798" r="14" fill="#5ea5fb" fill-opacity="0" stroke="none" stroke-dasharray="none" stroke-dashoffset="0" stroke-miterlimit="4" stroke-opacity="1" stroke-width="4" opacity="1"/></g></g></g><path id="path3" fill="#000" fill-opacity=".85" d="m 420.4981,521.55004 c 0.0339,-0.11689 0.0353,-0.24003 0.0353,-0.36775 l 0,-1.36738 c 0,-3.23523 -1.22155,-6.25946 -3.47184,-8.51529 -2.25232,-2.25804 -5.26502,-3.50166 -8.49912,-3.50166 -3.23418,0 -6.2336,1.24362 -8.486,3.50166 -2.25021,2.25583 -3.46736,5.27997 -3.46736,8.51529 l 0,1.36738 c 0,0.12781 10e-4,0.25086 0.0353,0.36775 -2.06207,0.16343 -3.70968,2.36218 -3.70968,5.04214 0,2.6921 1.64858,4.89929 3.72366,5.04513 0.55475,0.74754 1.44962,1.20175 2.40246,1.20175 1.65641,0 3.00171,-1.34848 3.00171,-3.00594 l 0,-6.4819 c 0,-1.60592 -1.2314,-2.92176 -2.81463,-3.00207 l 0,-0.53425 c -8e-5,-5.25885 4.0754,-9.37824 9.32345,-9.37824 5.24796,0 9.32336,4.11939 9.32336,9.37824 l 0,0.53425 c -1.58323,0.0806 -2.81463,1.39632 -2.81463,3.00207 l 0,6.4819 c 0,1.08407 0.57665,2.03568 1.43898,2.56457 -0.98266,1.44566 -2.36385,2.58946 -3.99862,3.28739 -0.44735,-0.49845 -1.09603,-0.81272 -1.81692,-0.81272 l -3.38494,0 c -1.34627,0 -2.44151,1.09524 -2.44151,2.44151 l 0,0.0426 c 0,1.34627 1.09524,2.44151 2.44151,2.44151 l 3.38494,0 c 0.99048,0 1.84445,-0.59318 2.22698,-1.44267 1.61639,-0.58782 3.09301,-1.51999 4.33602,-2.75992 0.92583,-0.92346 1.68077,-1.97639 2.24968,-3.1201 0.37927,-0.20476 0.71359,-0.48886 0.97271,-0.83796 2.075,-0.14619 3.71927,-2.3532 3.71927,-5.04512 0,-2.68015 -1.64762,-4.8789 -3.71003,-5.04214 z"/></g><style id="style26" type="text/css"/><style id="style26-7" type="text/css"/><style id="style26-9" type="text/css"/><style id="style26-5" type="text/css"/><style id="style26-7-6" type="text/css"/><style id="style26-9-6" type="text/css"/></svg>