<svg xmlns="http://www.w3.org/2000/svg" xmlns:svg="http://www.w3.org/2000/svg" xmlns:xlink="http://www.w3.org/1999/xlink" id="svg5453" width="64" height="64" version="1.1"><defs id="defs5455"><linearGradient id="linearGradient4251-0"><stop id="stop4253-4" offset="0" stop-color="#63984b" stop-opacity="1"/><stop id="stop4255-2" offset="1" stop-color="#8fc278" stop-opacity="1"/></linearGradient><linearGradient id="linearGradient4159"><stop id="stop4161" offset="0" stop-color="#2a2c2f" stop-opacity="1"/><stop id="stop4163" offset="1" stop-color="#424649" stop-opacity="1"/></linearGradient><linearGradient id="linearGradient4300-2-3"><stop id="stop4302-4-0" offset="0" stop-color="#f9b425" stop-opacity="1"/><stop id="stop4304-1" offset="1" stop-color="#f9bf3b" stop-opacity="1"/></linearGradient><linearGradient id="linearGradient4205" x1="346.571" x2="346.571" y1="547.798" y2="511.798" gradientTransform="translate(60.999998,-7.0000036)" gradientUnits="userSpaceOnUse" xlink:href="#linearGradient4251-0"/><linearGradient id="linearGradient4215" x1="408.571" x2="408.571" y1="535.798" y2="511.798" gradientUnits="userSpaceOnUse" xlink:href="#linearGradient4159"/></defs><metadata id="metadata5458"/><g id="layer1" transform="translate(-376.57144,-491.79797)"><rect id="rect4197" width="58" height="38" x="379.571" y="504.798" fill="url(#linearGradient4205)" fill-opacity="1" fill-rule="evenodd" stroke="none" stroke-dasharray="none" stroke-dashoffset="0" stroke-linecap="round" stroke-linejoin="miter" stroke-miterlimit="4" stroke-opacity="1" stroke-width="3" opacity="1" ry="1.5"/><rect id="rect4207" width="26" height="26" x="395.571" y="510.798" fill="url(#linearGradient4215)" fill-opacity="1" fill-rule="evenodd" stroke="none" stroke-dasharray="none" stroke-dashoffset="0" stroke-linecap="round" stroke-linejoin="miter" stroke-miterlimit="4" stroke-opacity="1" stroke-width="3" opacity="1" ry="1"/><path id="rect4144" fill="#e0e0e0" fill-opacity="1" stroke="none" stroke-dasharray="none" stroke-linecap="round" stroke-miterlimit="4" stroke-opacity="1" stroke-width="2" d="m 399.48055,515.61616 0,3.63634 -1.81819,0 0,3.63638 -1.81818,0 0,1.81818 1.81818,0 0,3.63638 1.81819,0 0,1.81816 0,0 1.81816,0 0,-3.63635 1.81818,0 0,0 0,-1.81819 3.63637,0 0,1.81819 1.81819,0 0,1.81819 1.81817,0 0,1.81816 1.81818,0 0,3.63637 1.81818,0 0,-1.81819 1.81819,0 0,-3.63634 1.81819,0 0,-1.81819 1.81816,0 0,-1.81819 1.81818,0 0,-1.81818 -1.81818,0 0,-1.81819 -1.81816,0 0,-1.81819 -1.81819,0 0,-3.63634 -1.81819,0 0,-1.81819 -1.81818,0 0,3.63637 -1.81818,0 0,1.81816 -1.81817,0 0,1.81819 -1.81819,0 0,1.81819 -3.63637,0 0,-1.81819 0,0 -1.81818,0 0,-5.45453 0,0 z"/><rect id="rect4234" width="58" height="1.002" x="379.571" y="540.696" fill="#e6ed6e" fill-opacity="1" stroke="none"/></g></svg>