<svg xmlns="http://www.w3.org/2000/svg" xmlns:osb="http://www.openswatchbook.org/uri/2009/osb" xmlns:svg="http://www.w3.org/2000/svg" xmlns:xlink="http://www.w3.org/1999/xlink" id="svg5453" width="64" height="64" version="1.1"><defs id="defs5455"><linearGradient id="linearGradient6088"><stop id="stop6090" offset="0" stop-color="#1365f4" stop-opacity="1"/><stop id="stop6092" offset="1" stop-color="#05b2fc" stop-opacity="1"/></linearGradient><linearGradient id="linearGradient4232-2"><stop id="stop4234-0" offset="0" stop-color="#3889e9" stop-opacity="1"/><stop id="stop4236-5" offset="1" stop-color="#5ea5fb" stop-opacity="1"/></linearGradient><linearGradient id="linearGradient3426" x1="399.571" x2="399.571" y1="545.798" y2="517.798" gradientUnits="userSpaceOnUse" xlink:href="#linearGradient4232-2"/><linearGradient id="linearGradient4181" x1="400.512" x2="400.699" y1="546.074" y2="517.773" gradientUnits="userSpaceOnUse" xlink:href="#linearGradient6088"/><linearGradient id="linearGradient4271"><stop id="stop4273" offset="0" stop-color="#e3e3e3" stop-opacity="1"/><stop id="stop4275" offset="1" stop-color="#fffcff" stop-opacity="1"/></linearGradient><linearGradient id="linearGradient4544" x1="41.165" x2="54.039" y1="89.364" y2="20.836" gradientUnits="userSpaceOnUse" xlink:href="#linearGradient4271"/><linearGradient id="linearGradient4901" x1="41.165" x2="54.039" y1="89.364" y2="20.836" gradientUnits="userSpaceOnUse" xlink:href="#linearGradient4271"/><linearGradient id="linearGradient4903" x1="41.165" x2="54.039" y1="89.364" y2="20.836" gradientUnits="userSpaceOnUse" xlink:href="#linearGradient4271"/><linearGradient id="linearGradient4905" x1="41.165" x2="54.039" y1="89.364" y2="20.836" gradientUnits="userSpaceOnUse" xlink:href="#linearGradient4271"/><linearGradient id="linearGradient4907" x1="41.165" x2="54.039" y1="89.364" y2="20.836" gradientUnits="userSpaceOnUse" xlink:href="#linearGradient4271"/><linearGradient id="linearGradient4909" x1="41.165" x2="54.039" y1="89.364" y2="20.836" gradientUnits="userSpaceOnUse" xlink:href="#linearGradient4271"/><linearGradient id="linearGradient4911" x1="41.165" x2="54.039" y1="89.364" y2="20.836" gradientUnits="userSpaceOnUse" xlink:href="#linearGradient4271"/><linearGradient id="linearGradient4913" x1="41.165" x2="54.039" y1="89.364" y2="20.836" gradientUnits="userSpaceOnUse" xlink:href="#linearGradient4271"/><linearGradient id="linearGradient4915" x1="41.165" x2="54.039" y1="89.364" y2="20.836" gradientUnits="userSpaceOnUse" xlink:href="#linearGradient4271"/><linearGradient id="linearGradient4917" x1="41.165" x2="54.039" y1="89.364" y2="20.836" gradientUnits="userSpaceOnUse" xlink:href="#linearGradient4271"/><linearGradient id="linearGradient4919" x1="41.165" x2="54.039" y1="89.364" y2="20.836" gradientUnits="userSpaceOnUse" xlink:href="#linearGradient4271"/><linearGradient id="linearGradient4921" x1="41.165" x2="54.039" y1="89.364" y2="20.836" gradientUnits="userSpaceOnUse" xlink:href="#linearGradient4271"/><linearGradient id="linearGradient4923" x1="41.165" x2="54.039" y1="89.364" y2="20.836" gradientUnits="userSpaceOnUse" xlink:href="#linearGradient4271"/><linearGradient id="linearGradient4925" x1="41.165" x2="54.039" y1="89.364" y2="20.836" gradientUnits="userSpaceOnUse" xlink:href="#linearGradient4271"/><linearGradient id="linearGradient4927" x1="41.165" x2="54.039" y1="89.364" y2="20.836" gradientUnits="userSpaceOnUse" xlink:href="#linearGradient4271"/><linearGradient id="linearGradient4929" x1="41.165" x2="54.039" y1="89.364" y2="20.836" gradientUnits="userSpaceOnUse" xlink:href="#linearGradient4271"/><linearGradient id="linearGradient4931" x1="41.165" x2="54.039" y1="89.364" y2="20.836" gradientUnits="userSpaceOnUse" xlink:href="#linearGradient4271"/><linearGradient id="linearGradient4933" x1="41.165" x2="54.039" y1="89.364" y2="20.836" gradientUnits="userSpaceOnUse" xlink:href="#linearGradient4271"/><style id="current-color-scheme" type="text/css"/><style id="current-color-scheme-8" type="text/css"/><style id="current-color-scheme-7" type="text/css"/><linearGradient id="linearGradient4207" osb:paint="gradient"><stop id="stop3371" offset="0" stop-color="#3498db" stop-opacity="1"/><stop id="stop3373" offset="1" stop-color="#3498db" stop-opacity="0"/></linearGradient><style id="current-color-scheme-71" type="text/css"/><style id="current-color-scheme-8-4" type="text/css"/><style id="current-color-scheme-7-2" type="text/css"/><linearGradient id="linearGradient6080" x1="394.818" x2="396.73" y1="546.728" y2="518.37" gradientUnits="userSpaceOnUse" xlink:href="#linearGradient6088"/><style id="current-color-scheme-2" type="text/css"/><style id="current-color-scheme-8-48" type="text/css"/><style id="current-color-scheme-7-5" type="text/css"/><style id="current-color-scheme-71-1" type="text/css"/><style id="current-color-scheme-8-4-7" type="text/css"/><style id="current-color-scheme-7-2-0" type="text/css"/><linearGradient id="linearGradient4276" x1="399.571" x2="399.571" y1="545.798" y2="517.798" gradientUnits="userSpaceOnUse" xlink:href="#linearGradient4232-2"/></defs><metadata id="metadata5458"/><g id="layer1" transform="translate(-376.57144,-491.79797)"><g id="layer1-5" transform="matrix(1.6773543,0,0,1.6773543,-263.44026,-368.29195)"><circle id="ellipse4233" cx="400.571" cy="531.798" r="0" fill="url(#linearGradient3426)" fill-opacity="1" stroke="none" stroke-dasharray="none" stroke-dashoffset="0" stroke-miterlimit="4" stroke-opacity="1" stroke-width="4" opacity="1"/><g id="g4265" transform="matrix(1.0753113,0,0,1.0753113,-30.117002,-39.985805)"><g id="g4277" transform="matrix(1.039268,0,0,1.039268,-15.714789,-20.900341)"><circle id="path3377-1" cx="400.571" cy="531.798" r="14" fill="url(#linearGradient4181)" fill-opacity="1" stroke="url(#linearGradient6080)" stroke-dasharray="none" stroke-dashoffset="0" stroke-miterlimit="4" stroke-opacity="1" stroke-width=".808" opacity="1"/><circle id="circle4174" cx="400.571" cy="531.798" r="14" fill="#5ea5fb" fill-opacity="0" stroke="none" stroke-dasharray="none" stroke-dashoffset="0" stroke-miterlimit="4" stroke-opacity="1" stroke-width="4" opacity="1"/></g></g></g><g id="layer1-52" transform="matrix(1.3913041,0,0,1.3913041,-200.39408,-210.30209)"><flowRoot id="flowRoot4170" fill="#000" fill-opacity="1" stroke="none" font-family="sans-serif" font-size="10" font-stretch="normal" font-style="normal" font-variant="normal" font-weight="normal" letter-spacing="0" text-anchor="start" transform="translate(355.61641,516.06468)" word-spacing="0" writing-mode="lr-tb" xml:space="preserve" style="line-height:125%;-inkscape-font-specification:'sans-serif, Normal';text-align:start"><flowRegion id="flowRegion4172"><rect id="rect4174" width="27" height="15" x="22" y="3"/></flowRegion><flowPara id="flowPara4176">Plasm</flowPara></flowRoot><rect id="rect4035" width="0" height="11" x="334.455" y="525.923" fill="#fff" fill-opacity="1" stroke="none"/><rect id="rect4035-4" width="0" height="11" x="334.134" y="524.923" fill="#fff" fill-opacity="1" stroke="none"/><rect id="rect4035-3" width="0" height="11.114" x="332.598" y="524.809" fill="#fbd2bf" fill-opacity="1" stroke="none"/><rect id="rect4035-1" width="0" height="11" x="334.134" y="524.923" fill="#fbd2bf" fill-opacity="1" stroke="none"/><rect id="rect4035-5" width="0" height="11" x="334.134" y="524.923" fill="#fbfbfb" fill-opacity="1" stroke="none"/><rect id="rect4035-8" width="0" height="11" x="334.134" y="524.923" fill="#fffcf9" fill-opacity="1" stroke="none"/><rect id="rect4035-44" width="0" height="11" x="334.134" y="524.923" fill="#e8d9eb" fill-opacity="1" stroke="none"/><rect id="rect4035-7" width="0" height="11" x="334.134" y="524.923" fill="#e8d9eb" fill-opacity="1" stroke="none"/><g id="layer1-5-9"><g id="layer1-9" transform="matrix(0.87499998,0,0,0.87499998,50.025937,66.450093)"><g id="g4336"><path id="path4989" fill="#021425" fill-opacity="1" d="m 443.04918,532.12257 c 1.39017,0 2.58006,-0.495 3.56985,-1.4846 0.9898,-0.9896 1.48479,-2.17987 1.48479,-3.57005 l 0,-8.08782 c 0,-1.39017 -0.49461,-2.58006 -1.48479,-3.57005 -0.98979,-0.9898 -2.17968,-1.48499 -3.56985,-1.48499 -1.39018,0 -2.58007,0.49519 -3.57006,1.48499 -0.98998,0.98979 -1.48498,2.17988 -1.48498,3.57005 l 0,8.08782 c 0,1.39018 0.49519,2.58045 1.48498,3.57005 0.9898,0.9896 2.17988,1.4846 3.57006,1.4846 l 0,0 z"/><path id="path4991" fill="#021425" fill-opacity="1" d="m 451.84779,524.33508 c -0.1997,-0.20009 -0.43702,-0.30014 -0.71079,-0.30014 -0.27377,0 -0.5107,0.10005 -0.71079,0.30014 -0.2001,0.20009 -0.30014,0.43702 -0.30014,0.71079 l 0,2.02205 c 0,1.94838 -0.69257,3.61465 -2.07731,4.99959 -1.38455,1.38493 -3.05121,2.07731 -4.99958,2.07731 -1.94838,0 -3.61484,-0.69238 -4.99978,-2.07731 -1.38475,-1.38456 -2.07712,-3.05121 -2.07712,-4.99959 l 0,-2.02205 c 0,-0.27377 -0.10004,-0.5107 -0.30014,-0.71079 -0.20009,-0.20009 -0.43682,-0.30014 -0.71079,-0.30014 -0.27396,0 -0.51089,0.10005 -0.71098,0.30014 -0.20009,0.20009 -0.30014,0.43702 -0.30014,0.71079 l 0,2.02205 c 0,2.32743 0.77671,4.352 2.32995,6.07372 1.55323,1.72172 3.47252,2.709 5.75787,2.96163 l 0,2.08546 -4.04391,0 c -0.27377,0 -0.5107,0.10004 -0.71079,0.30014 -0.20009,0.20009 -0.30014,0.43702 -0.30014,0.71079 0,0.27357 0.10005,0.51089 0.30014,0.71079 0.20009,0.20009 0.43702,0.30033 0.71079,0.30033 l 10.10968,0 c 0.27377,0 0.51109,-0.10024 0.71079,-0.30033 0.20029,-0.1999 0.30053,-0.43722 0.30053,-0.71079 0,-0.27377 -0.10024,-0.5107 -0.30053,-0.71079 -0.1997,-0.2001 -0.43702,-0.30014 -0.71079,-0.30014 l -4.04352,0 0,-2.08546 c 2.28496,-0.25263 4.20426,-1.23991 5.75768,-2.96163 1.55343,-1.72172 2.33034,-3.74629 2.33034,-6.07372 l 0,-2.02205 c 0,-0.27377 -0.10024,-0.51051 -0.30053,-0.71079 l 0,0 z"/></g></g></g></g></g><style id="style26" type="text/css"/><style id="style26-7" type="text/css"/><style id="style26-9" type="text/css"/><style id="style26-5" type="text/css"/><style id="style26-7-6" type="text/css"/><style id="style26-9-6" type="text/css"/></svg>