<svg xmlns="http://www.w3.org/2000/svg" xmlns:osb="http://www.openswatchbook.org/uri/2009/osb" xmlns:svg="http://www.w3.org/2000/svg" xmlns:xlink="http://www.w3.org/1999/xlink" id="svg5453" width="64" height="64" version="1.1"><defs id="defs5455"><linearGradient id="linearGradient4149" x1="400.571" x2="400.571" y1="545.798" y2="517.798" gradientUnits="userSpaceOnUse" xlink:href="#linearGradient4422"/><linearGradient id="linearGradient4207" osb:paint="gradient"><stop id="stop3371" offset="0" stop-color="#3498db" stop-opacity="1"/><stop id="stop3373" offset="1" stop-color="#3498db" stop-opacity="0"/></linearGradient><linearGradient id="linearGradient4422"><stop id="stop4424" offset="0" stop-color="#ff9300" stop-opacity="1"/><stop id="stop4426" offset="1" stop-color="#ffd702" stop-opacity="1"/></linearGradient></defs><metadata id="metadata5458"/><g id="layer1" transform="translate(-368.57144,-499.79797)"><g id="g4210" transform="translate(2.4333787e-7,-0.13411775)"><g id="layer1-08" transform="matrix(1.173913,0,0,1.173913,-79.055871,-83.095311)"><g id="g3" transform="matrix(0.13843294,0,0,0.13843294,416.5917,530.60461)"><g id="layer1-07" transform="matrix(7.2237142,0,0,7.2237142,-2235.4188,-3907.0815)"><g id="g4227" transform="translate(-18.529541,0.82112905)"><g id="g4164" transform="matrix(1.6428556,0,0,1.6428556,-192.54839,-355.93981)"><rect id="rect4130" width="28" height="28" x="386.571" y="517.798" fill="url(#linearGradient4149)" fill-opacity="1" stroke="none" opacity="1" ry="14" transform="translate(-88.606563,9.4430399)"/><g id="layer1-49" fill="#000" fill-opacity=".796" transform="matrix(1.3333333,0,0,1.3333333,-158.66828,-182.06787)"><g id="layer1-0" fill="#000" fill-opacity=".796" transform="matrix(0.84259344,0,0,0.84259344,331.08862,-333.37878)"><path id="path4154" fill="#000" fill-opacity=".796" stroke="none" d="m 27.207947,1033.4817 -4.932292,6 3.328334,1.8008 -0.862188,4.1992 4.932292,-6 -3.328334,-1.8008 z"/></g></g></g></g></g></g></g><g id="layer1-2" fill="#342600" fill-opacity="1" display="inline" transform="matrix(1.0706217,0,0,0.99005683,-36.814682,16.418037)"><g id="g4907" fill="#342600" fill-opacity="1" transform="matrix(0.32608687,0,0,0.32608687,260.51556,363.77696)"><g id="g4170" fill="#342600" fill-opacity="1" transform="matrix(1.0212766,0,0,1.0212766,-9.6631698,-10.760785)"><g id="g4236" fill="#342600" fill-opacity="1" transform="matrix(1.1750004,0,0,1.1750004,-79.325021,-85.264894)"><path id="path4468" fill="#342600" fill-opacity="1" fill-rule="evenodd" stroke="none" stroke-linecap="butt" stroke-linejoin="miter" stroke-opacity="1" stroke-width=".326" d="m 422.52092,486.38487 c -1.12917,-0.0571 -2.33103,0.004 -3.61172,0.19167 -13.1925,1.93145 -14.27479,16.28486 -21.95182,27.07292 8.91988,22.81857 31.02793,38.92632 57.08074,38.92632 20.20958,0 38.01925,-9.72116 49.18048,-24.71303 -22.94725,-28.69089 -30.06544,3.8969 -49.18048,-5.28881 -13.7216,-8.4375 -14.57959,-35.33214 -31.5172,-36.18907 z"/></g></g></g></g></g></g></svg>