<svg xmlns="http://www.w3.org/2000/svg" xmlns:osb="http://www.openswatchbook.org/uri/2009/osb" xmlns:svg="http://www.w3.org/2000/svg" xmlns:xlink="http://www.w3.org/1999/xlink" id="svg5453" width="64" height="64" version="1.1"><defs id="defs5455"><linearGradient id="linearGradient3834" x1="409.571" x2="409.571" y1="540.798" y2="506.798" gradientTransform="matrix(1.5292812,0,0,1.529412,-592.82053,-769.10295)" gradientUnits="userSpaceOnUse" xlink:href="#linearGradient4422-4"/><linearGradient id="linearGradient4207" osb:paint="gradient"><stop id="stop3371" offset="0" stop-color="#3498db" stop-opacity="1"/><stop id="stop3373" offset="1" stop-color="#3498db" stop-opacity="0"/></linearGradient><linearGradient id="linearGradient4447" x1="31.839" x2="32" y1="40.485" y2="24" gradientUnits="userSpaceOnUse" xlink:href="#linearGradient4355"/><linearGradient id="linearGradient4422-4"><stop id="stop4424-3" offset="0" stop-color="#d1d7df" stop-opacity="1"/><stop id="stop4426-4" offset="1" stop-color="#e0e5e7" stop-opacity="1"/></linearGradient><linearGradient id="linearGradient4355"><stop id="stop4357" offset="0" stop-color="#3d434a" stop-opacity="1"/><stop id="stop4359" offset="1" stop-color="#5f6974" stop-opacity="1"/></linearGradient></defs><metadata id="metadata5458"/><g id="layer1" transform="translate(-376.57144,-491.79797)"><path id="rect4146" fill="url(#linearGradient3834)" fill-opacity="1" stroke="none" d="M 32 6 C 17.59725 6 6.0019531 17.59602 6.0019531 32 C 6.0019531 46.40398 17.59725 58 32 58 C 46.40275 58 57.998047 46.40398 57.998047 32 C 57.998047 17.59602 46.40275 6 32 6 z M 32 29 C 33.662 29 35 30.338 35 32 C 35 33.662 33.662 35 32 35 C 30.338 35 29 33.662 29 32 C 29 30.338 30.338 29 32 29 z" transform="translate(376.57144,491.79797)"/><path id="rect4270" fill="url(#linearGradient4447)" fill-opacity="1" stroke="none" d="M 32 23 C 27.014 23 23 27.014 23 32 C 23 36.986 27.014 41 32 41 C 36.986 41 41 36.986 41 32 C 41 27.014 36.986 23 32 23 z M 32 24 A 8 8 0 0 1 40 32 A 8 8 0 0 1 32 40 A 8 8 0 0 1 24 32 A 8 8 0 0 1 32 24 z M 32 25 A 7 7 0 0 0 25 32 A 7 7 0 0 0 32 39 A 7 7 0 0 0 39 32 A 7 7 0 0 0 32 25 z M 32 29 C 33.662 29 35 30.338 35 32 C 35 33.662 33.662 35 32 35 C 30.338 35 29 33.662 29 32 C 29 30.338 30.338 29 32 29 z" opacity=".791" transform="translate(376.57144,491.79797)"/><g id="layer1-1" fill="#6c747d" fill-opacity="1" transform="matrix(0.9125,0,0,0.9125,418.36732,-429.59443)"><g id="layer1-00" fill="#6c747d" fill-opacity="1" transform="matrix(0.90853357,0,0,0.90853357,-364.12567,559.9656)"><g id="layer1-4" fill="#6c747d" fill-opacity="1" transform="translate(5.05585,-5.251147)"><g id="layer1-9" fill="#6c747d" fill-opacity="1" stroke="#000" stroke-opacity=".8" transform="translate(-11.317,5.8824915)"><g id="g4187" fill="#6c747d" fill-opacity="1" stroke="none" stroke-opacity="1" transform="matrix(0.7863692,0,0,0.78394543,93.325829,112.35451)"><path id="Documents" fill="#6c747d" fill-opacity="1" stroke="none" stroke-opacity="1" stroke-width=".071" d="m 408.99594,530.99649 -5.24403,6.7328 c -0.98326,1.2624 -0.708,3.5111 0.5505,4.4974 1.25852,0.98629 3.50028,0.71019 4.48354,-0.55221 l 5.24403,-6.73281 0.65549,-0.8416 c 0.65551,-0.8416 0.47201,-2.34073 -0.36699,-2.99826 -0.83901,-0.65753 -2.33352,-0.47347 -2.98902,0.36814 l -0.65551,0.8416 -3.93302,5.0496 -0.6555,0.8416 c -0.32776,0.4208 -0.236,1.17037 0.1835,1.49914 0.4195,0.32875 1.16676,0.23673 1.49451,-0.18407 l 4.58852,-5.89121 0.83901,0.65753 -4.58852,5.8912 c -0.65551,0.84161 -2.15002,1.02568 -2.98902,0.36814 -0.83901,-0.65753 -1.02252,-2.15666 -0.36702,-2.99826 l 0.65551,-0.8416 4.58853,-5.8912 c 0.98325,-1.26241 3.22501,-1.5385 4.48353,-0.55221 1.25851,0.98629 1.53377,3.23499 0.55051,4.49739 l -0.6555,0.84161 -5.24403,6.73279 c -1.31102,1.68321 -4.30004,2.05135 -5.97805,0.73629 -1.67801,-1.31507 -2.04502,-4.31332 -0.73401,-5.99653 l 5.24403,-6.7328 0.83901,0.65753 0,0 z"/></g></g></g></g></g></g></svg>