<svg xmlns="http://www.w3.org/2000/svg" xmlns:osb="http://www.openswatchbook.org/uri/2009/osb" xmlns:svg="http://www.w3.org/2000/svg" id="svg7384" width="16" height="16" enable-background="new" version="1.1"><metadata id="metadata90"/><title id="title8473">Paper Symbolic Icon Theme</title><defs id="defs7386"><linearGradient id="linearGradient5606" osb:paint="solid"><stop id="stop5608" offset="0" stop-color="#000" stop-opacity="1"/></linearGradient><filter id="filter7554" color-interpolation-filters="sRGB"><feBlend id="feBlend7556" in2="BackgroundImage" mode="darken"/></filter><clipPath id="clipPath16" clipPathUnits="userSpaceOnUse"><path id="path18" d="m 0,706.465 1490.926,0 L 1490.926,0 0,0 0,706.465 Z"/></clipPath><clipPath id="clipPath24" clipPathUnits="userSpaceOnUse"><path id="path26" d="m 22.1953,686.117 1447.7347,0 0,-667.1902 -1447.7347,0 0,667.1902 z"/></clipPath><clipPath id="clipPath4534" clipPathUnits="userSpaceOnUse"><rect id="rect4536" width="32" height="32" x="8" y="8" fill="url(#linearGradient4538)" fill-opacity="1" stroke="none" ry="16"/></clipPath><clipPath id="clipPath4584" clipPathUnits="userSpaceOnUse"><rect id="rect4586" width="32" height="32" x="392.571" y="507.798" fill="url(#linearGradient4588)" fill-opacity="1" stroke="none" ry="16"/></clipPath><clipPath id="clipPath4550" clipPathUnits="userSpaceOnUse"><rect id="rect4552" width="32" height="32" x="392.571" y="507.798" fill="url(#linearGradient4554)" fill-opacity="1" stroke="none" ry="16"/></clipPath><clipPath id="clipPath4568" clipPathUnits="userSpaceOnUse"><rect id="rect4570" width="32" height="32" x="392.571" y="507.798" fill="url(#linearGradient4572)" fill-opacity="1" stroke="none" ry="16"/></clipPath><clipPath id="clipPath4528" clipPathUnits="userSpaceOnUse"><rect id="rect4530" width="32" height="32" x="8" y="8" fill="url(#linearGradient4532)" fill-opacity="1" stroke="none" ry="16"/></clipPath><clipPath id="clipPath4578" clipPathUnits="userSpaceOnUse"><rect id="rect4580" width="32" height="32" x="392.571" y="507.798" fill="url(#linearGradient4582)" fill-opacity="1" stroke="none" ry="16"/></clipPath><clipPath id="clipPath4562" clipPathUnits="userSpaceOnUse"><rect id="rect4564" width="32" height="32" x="392.571" y="507.798" fill="url(#linearGradient4566)" fill-opacity="1" stroke="none" ry="16"/></clipPath><clipPath id="clipPath4544" clipPathUnits="userSpaceOnUse"><rect id="rect4546" width="32" height="32" x="392.571" y="507.798" fill="url(#linearGradient4548)" fill-opacity="1" stroke="none" ry="16"/></clipPath><clipPath id="clipPath4390" clipPathUnits="userSpaceOnUse"><rect id="rect4392" width="32" height="32" x="8" y="8" fill="url(#linearGradient4532)" fill-opacity="1" stroke="none" ry="16"/></clipPath><clipPath id="clipPath4407" clipPathUnits="userSpaceOnUse"><rect id="rect4409" width="32" height="32" x="392.571" y="507.798" fill="url(#linearGradient4582)" fill-opacity="1" stroke="none" ry="16"/></clipPath><clipPath id="clipPath4424" clipPathUnits="userSpaceOnUse"><rect id="rect4426" width="32" height="32" x="392.571" y="507.798" fill="url(#linearGradient4566)" fill-opacity="1" stroke="none" ry="16"/></clipPath><clipPath id="clipPath4441" clipPathUnits="userSpaceOnUse"><rect id="rect4443" width="32" height="32" x="392.571" y="507.798" fill="url(#linearGradient4548)" fill-opacity="1" stroke="none" ry="16"/></clipPath><clipPath id="clipPath4528-1" clipPathUnits="userSpaceOnUse"><rect id="rect4530-7" width="32" height="32" x="8" y="8" fill="url(#linearGradient4532)" fill-opacity="1" stroke="none" ry="16"/></clipPath><clipPath id="clipPath4578-8" clipPathUnits="userSpaceOnUse"><rect id="rect4580-7" width="32" height="32" x="392.571" y="507.798" fill="url(#linearGradient4582)" fill-opacity="1" stroke="none" ry="16"/></clipPath><clipPath id="clipPath4562-8" clipPathUnits="userSpaceOnUse"><rect id="rect4564-8" width="32" height="32" x="392.571" y="507.798" fill="url(#linearGradient4566)" fill-opacity="1" stroke="none" ry="16"/></clipPath><clipPath id="clipPath4544-1" clipPathUnits="userSpaceOnUse"><rect id="rect4546-1" width="32" height="32" x="392.571" y="507.798" fill="url(#linearGradient4548)" fill-opacity="1" stroke="none" ry="16"/></clipPath><linearGradient id="linearGradient4207" osb:paint="gradient"><stop id="stop3371" offset="0" stop-color="#3498db" stop-opacity="1"/><stop id="stop3373" offset="1" stop-color="#3498db" stop-opacity="0"/></linearGradient><clipPath id="clipPath16-9" clipPathUnits="userSpaceOnUse"><path id="path18-7" d="m 0,706.465 1490.926,0 L 1490.926,0 0,0 0,706.465 Z"/></clipPath><clipPath id="clipPath24-9" clipPathUnits="userSpaceOnUse"><path id="path26-2" d="m 22.1953,686.117 1447.7347,0 0,-667.1902 -1447.7347,0 0,667.1902 z"/></clipPath><clipPath id="clipPath4534-7" clipPathUnits="userSpaceOnUse"><rect id="rect4536-8" width="32" height="32" x="8" y="8" fill="url(#linearGradient4538)" fill-opacity="1" stroke="none" ry="16"/></clipPath><clipPath id="clipPath4584-2" clipPathUnits="userSpaceOnUse"><rect id="rect4586-0" width="32" height="32" x="392.571" y="507.798" fill="url(#linearGradient4588)" fill-opacity="1" stroke="none" ry="16"/></clipPath><clipPath id="clipPath4550-1" clipPathUnits="userSpaceOnUse"><rect id="rect4552-0" width="32" height="32" x="392.571" y="507.798" fill="url(#linearGradient4554)" fill-opacity="1" stroke="none" ry="16"/></clipPath><clipPath id="clipPath4568-2" clipPathUnits="userSpaceOnUse"><rect id="rect4570-7" width="32" height="32" x="392.571" y="507.798" fill="url(#linearGradient4572)" fill-opacity="1" stroke="none" ry="16"/></clipPath><clipPath id="clipPath4528-9" clipPathUnits="userSpaceOnUse"><rect id="rect4530-0" width="32" height="32" x="8" y="8" fill="url(#linearGradient4532)" fill-opacity="1" stroke="none" ry="16"/></clipPath><clipPath id="clipPath4578-0" clipPathUnits="userSpaceOnUse"><rect id="rect4580-0" width="32" height="32" x="392.571" y="507.798" fill="url(#linearGradient4582)" fill-opacity="1" stroke="none" ry="16"/></clipPath><clipPath id="clipPath4562-2" clipPathUnits="userSpaceOnUse"><rect id="rect4564-2" width="32" height="32" x="392.571" y="507.798" fill="url(#linearGradient4566)" fill-opacity="1" stroke="none" ry="16"/></clipPath><clipPath id="clipPath4544-9" clipPathUnits="userSpaceOnUse"><rect id="rect4546-3" width="32" height="32" x="392.571" y="507.798" fill="url(#linearGradient4548)" fill-opacity="1" stroke="none" ry="16"/></clipPath><clipPath id="clipPath4390-2" clipPathUnits="userSpaceOnUse"><rect id="rect4392-0" width="32" height="32" x="8" y="8" fill="url(#linearGradient4532)" fill-opacity="1" stroke="none" ry="16"/></clipPath><clipPath id="clipPath4407-7" clipPathUnits="userSpaceOnUse"><rect id="rect4409-0" width="32" height="32" x="392.571" y="507.798" fill="url(#linearGradient4582)" fill-opacity="1" stroke="none" ry="16"/></clipPath><clipPath id="clipPath4424-0" clipPathUnits="userSpaceOnUse"><rect id="rect4426-0" width="32" height="32" x="392.571" y="507.798" fill="url(#linearGradient4566)" fill-opacity="1" stroke="none" ry="16"/></clipPath><clipPath id="clipPath4441-7" clipPathUnits="userSpaceOnUse"><rect id="rect4443-2" width="32" height="32" x="392.571" y="507.798" fill="url(#linearGradient4548)" fill-opacity="1" stroke="none" ry="16"/></clipPath><clipPath id="clipPath4528-1-9" clipPathUnits="userSpaceOnUse"><rect id="rect4530-7-9" width="32" height="32" x="8" y="8" fill="url(#linearGradient4532)" fill-opacity="1" stroke="none" ry="16"/></clipPath><clipPath id="clipPath4578-8-7" clipPathUnits="userSpaceOnUse"><rect id="rect4580-7-0" width="32" height="32" x="392.571" y="507.798" fill="url(#linearGradient4582)" fill-opacity="1" stroke="none" ry="16"/></clipPath><clipPath id="clipPath4562-8-6" clipPathUnits="userSpaceOnUse"><rect id="rect4564-8-6" width="32" height="32" x="392.571" y="507.798" fill="url(#linearGradient4566)" fill-opacity="1" stroke="none" ry="16"/></clipPath><clipPath id="clipPath4544-1-2" clipPathUnits="userSpaceOnUse"><rect id="rect4546-1-5" width="32" height="32" x="392.571" y="507.798" fill="url(#linearGradient4548)" fill-opacity="1" stroke="none" ry="16"/></clipPath><filter id="filter7554-5" color-interpolation-filters="sRGB"><feBlend id="feBlend7556-5" in2="BackgroundImage" mode="darken"/></filter><filter id="filter7554-2" color-interpolation-filters="sRGB"><feBlend id="feBlend7556-0" in2="BackgroundImage" mode="darken"/></filter></defs><g id="layer9" display="inline" transform="translate(-364.99759,251)"><g id="g3" fill="#555" fill-opacity="1" transform="matrix(0.02430321,0,0,0.02430321,367.74759,-249.75)"><g id="g5" fill="#555" fill-opacity="1" transform="translate(-30.860067,30.860089)"><g id="Icons_15_" fill="#555" fill-opacity="1"><g id="g8" fill="#555" fill-opacity="1"><path id="path10" fill="#555" fill-opacity="1" d="m 290.652,402.646 -87.595,0 c -6.781,0 -12.283,5.503 -12.283,12.283 0,6.785 5.502,12.287 12.283,12.287 l 87.595,0 c 6.781,0 12.289,-5.502 12.289,-12.287 0.001,-6.78 -5.506,-12.283 -12.289,-12.283 z"/><path id="path12" fill="#555" fill-opacity="1" d="m 224.299,474.245 c 1.666,11.026 11.086,19.517 22.586,19.517 11.488,0 20.93,-8.487 22.589,-19.517 15.037,-0.888 26.987,-13.245 26.987,-28.504 l -99.211,0 c 0,15.268 11.985,27.634 27.049,28.504 z"/><path id="path14" fill="#555" fill-opacity="1" d="m 246.884,70.87 c 9.062,0 16.387,-7.335 16.387,-16.381 l 0,-38.108 C 263.271,7.332 255.947,0 246.884,0 237.831,0 230.507,7.332 230.507,16.381 l 0,38.108 c 0.001,9.046 7.325,16.381 16.377,16.381 z"/><path id="path16" fill="#555" fill-opacity="1" d="m 139.39,94.736 c 3.217,4.417 8.209,6.761 13.283,6.761 3.326,0 6.699,-1.017 9.609,-3.129 7.313,-5.312 8.945,-15.555 3.633,-22.873 l -22.396,-30.84 c -5.326,-7.312 -15.549,-8.96 -22.887,-3.632 -7.311,5.309 -8.943,15.555 -3.631,22.873 l 22.389,30.84 z"/><path id="path18-8" fill="#555" fill-opacity="1" d="m 354.354,334.861 c -5.313,-7.312 -15.549,-8.934 -22.881,-3.621 -7.306,5.317 -8.937,15.562 -3.61,22.879 l 22.409,30.841 c 3.196,4.407 8.188,6.753 13.265,6.753 3.338,0 6.698,-1.017 9.608,-3.128 7.312,-5.319 8.942,-15.565 3.619,-22.884 l -22.41,-30.84 z"/><path id="path20" fill="#555" fill-opacity="1" d="M 99.502,149.684 63.25,137.894 c -8.686,-2.799 -17.846,1.911 -20.648,10.518 -2.803,8.597 1.904,17.843 10.508,20.642 l 36.252,11.79 c 1.693,0.544 3.387,0.809 5.066,0.809 6.91,0 13.324,-4.4 15.582,-11.327 2.802,-8.597 -1.904,-17.844 -10.508,-20.642 z"/><path id="path22" fill="#555" fill-opacity="1" d="m 440.649,260.538 -36.243,-11.773 c -8.611,-2.778 -17.841,1.918 -20.638,10.516 -2.802,8.606 1.918,17.848 10.521,20.646 l 36.252,11.772 c 1.681,0.545 3.373,0.807 5.054,0.807 6.909,0 13.323,-4.407 15.581,-11.324 2.795,-8.61 -1.918,-17.845 -10.527,-20.644 z"/><path id="path24" fill="#555" fill-opacity="1" d="M 89.375,248.765 53.11,260.522 c -8.604,2.79 -13.324,12.026 -10.521,20.635 2.238,6.927 8.664,11.334 15.574,11.334 1.668,0 3.381,-0.267 5.061,-0.811 l 36.258,-11.756 c 8.611,-2.792 13.33,-12.03 10.529,-20.635 -2.782,-8.6 -11.952,-13.303 -20.636,-10.524 z"/><path id="path26-5" fill="#555" fill-opacity="1" d="m 399.35,181.653 c 1.681,0 3.373,-0.265 5.056,-0.809 l 36.243,-11.773 c 8.608,-2.799 13.322,-12.039 10.526,-20.642 -2.803,-8.6 -12.077,-13.3 -20.635,-10.518 l -36.252,11.772 c -8.604,2.798 -13.322,12.038 -10.521,20.642 2.253,6.921 8.673,11.328 15.583,11.328 z"/><path id="path28" fill="#555" fill-opacity="1" d="m 139.412,334.855 -22.431,30.822 c -5.326,7.318 -3.707,17.563 3.619,22.883 2.896,2.119 6.27,3.138 9.609,3.138 5.074,0 10.066,-2.336 13.264,-6.744 l 22.43,-30.824 c 5.326,-7.316 3.707,-17.562 -3.619,-22.883 -7.293,-5.349 -17.582,-3.709 -22.872,3.608 z"/><path id="path30" fill="#555" fill-opacity="1" d="m 350.258,44.654 -22.396,30.84 c -5.312,7.318 -3.681,17.562 3.633,22.873 2.91,2.112 6.283,3.129 9.608,3.129 5.074,0 10.065,-2.343 13.276,-6.761 l 22.396,-30.841 c 5.311,-7.318 3.68,-17.564 -3.634,-22.873 -7.355,-5.341 -17.557,-3.695 -22.883,3.633 z"/><path id="path32" fill="#555" fill-opacity="1" d="m 365.194,215.404 c 0,-65.354 -52.976,-118.333 -118.322,-118.333 -65.359,0 -118.336,52.979 -118.336,118.333 0,27.569 9.482,52.884 25.322,72.981 13.881,17.612 27.027,36.839 38.42,56.187 l 0,39.306 108.516,0 0,-38.263 c 11.288,-18.818 25.881,-40.484 39.065,-57.211 15.854,-20.103 25.335,-45.413 25.335,-73 z"/></g></g></g></g></g></svg>