<svg xmlns="http://www.w3.org/2000/svg" xmlns:osb="http://www.openswatchbook.org/uri/2009/osb" xmlns:svg="http://www.w3.org/2000/svg" id="svg7384" width="16" height="16" enable-background="new" version="1.1"><metadata id="metadata90"/><title id="title8473">Paper Symbolic Icon Theme</title><defs id="defs7386"><linearGradient id="linearGradient5606" osb:paint="solid"><stop id="stop5608" offset="0" stop-color="#000" stop-opacity="1"/></linearGradient><filter id="filter7554" color-interpolation-filters="sRGB"><feBlend id="feBlend7556" in2="BackgroundImage" mode="darken"/></filter><clipPath id="clipPath16" clipPathUnits="userSpaceOnUse"><path id="path18" d="m 0,706.465 1490.926,0 L 1490.926,0 0,0 0,706.465 Z"/></clipPath><clipPath id="clipPath24" clipPathUnits="userSpaceOnUse"><path id="path26" d="m 22.1953,686.117 1447.7347,0 0,-667.1902 -1447.7347,0 0,667.1902 z"/></clipPath><clipPath id="clipPath4534" clipPathUnits="userSpaceOnUse"><rect id="rect4536" width="32" height="32" x="8" y="8" fill="url(#linearGradient4538)" fill-opacity="1" stroke="none" ry="16"/></clipPath><clipPath id="clipPath4584" clipPathUnits="userSpaceOnUse"><rect id="rect4586" width="32" height="32" x="392.571" y="507.798" fill="url(#linearGradient4588)" fill-opacity="1" stroke="none" ry="16"/></clipPath><clipPath id="clipPath4550" clipPathUnits="userSpaceOnUse"><rect id="rect4552" width="32" height="32" x="392.571" y="507.798" fill="url(#linearGradient4554)" fill-opacity="1" stroke="none" ry="16"/></clipPath><clipPath id="clipPath4568" clipPathUnits="userSpaceOnUse"><rect id="rect4570" width="32" height="32" x="392.571" y="507.798" fill="url(#linearGradient4572)" fill-opacity="1" stroke="none" ry="16"/></clipPath><clipPath id="clipPath4528" clipPathUnits="userSpaceOnUse"><rect id="rect4530" width="32" height="32" x="8" y="8" fill="url(#linearGradient4532)" fill-opacity="1" stroke="none" ry="16"/></clipPath><clipPath id="clipPath4578" clipPathUnits="userSpaceOnUse"><rect id="rect4580" width="32" height="32" x="392.571" y="507.798" fill="url(#linearGradient4582)" fill-opacity="1" stroke="none" ry="16"/></clipPath><clipPath id="clipPath4562" clipPathUnits="userSpaceOnUse"><rect id="rect4564" width="32" height="32" x="392.571" y="507.798" fill="url(#linearGradient4566)" fill-opacity="1" stroke="none" ry="16"/></clipPath><clipPath id="clipPath4544" clipPathUnits="userSpaceOnUse"><rect id="rect4546" width="32" height="32" x="392.571" y="507.798" fill="url(#linearGradient4548)" fill-opacity="1" stroke="none" ry="16"/></clipPath><clipPath id="clipPath4390" clipPathUnits="userSpaceOnUse"><rect id="rect4392" width="32" height="32" x="8" y="8" fill="url(#linearGradient4532)" fill-opacity="1" stroke="none" ry="16"/></clipPath><clipPath id="clipPath4407" clipPathUnits="userSpaceOnUse"><rect id="rect4409" width="32" height="32" x="392.571" y="507.798" fill="url(#linearGradient4582)" fill-opacity="1" stroke="none" ry="16"/></clipPath><clipPath id="clipPath4424" clipPathUnits="userSpaceOnUse"><rect id="rect4426" width="32" height="32" x="392.571" y="507.798" fill="url(#linearGradient4566)" fill-opacity="1" stroke="none" ry="16"/></clipPath><clipPath id="clipPath4441" clipPathUnits="userSpaceOnUse"><rect id="rect4443" width="32" height="32" x="392.571" y="507.798" fill="url(#linearGradient4548)" fill-opacity="1" stroke="none" ry="16"/></clipPath><clipPath id="clipPath4528-1" clipPathUnits="userSpaceOnUse"><rect id="rect4530-7" width="32" height="32" x="8" y="8" fill="url(#linearGradient4532)" fill-opacity="1" stroke="none" ry="16"/></clipPath><clipPath id="clipPath4578-8" clipPathUnits="userSpaceOnUse"><rect id="rect4580-7" width="32" height="32" x="392.571" y="507.798" fill="url(#linearGradient4582)" fill-opacity="1" stroke="none" ry="16"/></clipPath><clipPath id="clipPath4562-8" clipPathUnits="userSpaceOnUse"><rect id="rect4564-8" width="32" height="32" x="392.571" y="507.798" fill="url(#linearGradient4566)" fill-opacity="1" stroke="none" ry="16"/></clipPath><clipPath id="clipPath4544-1" clipPathUnits="userSpaceOnUse"><rect id="rect4546-1" width="32" height="32" x="392.571" y="507.798" fill="url(#linearGradient4548)" fill-opacity="1" stroke="none" ry="16"/></clipPath><linearGradient id="linearGradient4207" osb:paint="gradient"><stop id="stop3371" offset="0" stop-color="#3498db" stop-opacity="1"/><stop id="stop3373" offset="1" stop-color="#3498db" stop-opacity="0"/></linearGradient><clipPath id="clipPath16-9" clipPathUnits="userSpaceOnUse"><path id="path18-7" d="m 0,706.465 1490.926,0 L 1490.926,0 0,0 0,706.465 Z"/></clipPath><clipPath id="clipPath24-9" clipPathUnits="userSpaceOnUse"><path id="path26-2" d="m 22.1953,686.117 1447.7347,0 0,-667.1902 -1447.7347,0 0,667.1902 z"/></clipPath><clipPath id="clipPath4534-7" clipPathUnits="userSpaceOnUse"><rect id="rect4536-8" width="32" height="32" x="8" y="8" fill="url(#linearGradient4538)" fill-opacity="1" stroke="none" ry="16"/></clipPath><clipPath id="clipPath4584-2" clipPathUnits="userSpaceOnUse"><rect id="rect4586-0" width="32" height="32" x="392.571" y="507.798" fill="url(#linearGradient4588)" fill-opacity="1" stroke="none" ry="16"/></clipPath><clipPath id="clipPath4550-1" clipPathUnits="userSpaceOnUse"><rect id="rect4552-0" width="32" height="32" x="392.571" y="507.798" fill="url(#linearGradient4554)" fill-opacity="1" stroke="none" ry="16"/></clipPath><clipPath id="clipPath4568-2" clipPathUnits="userSpaceOnUse"><rect id="rect4570-7" width="32" height="32" x="392.571" y="507.798" fill="url(#linearGradient4572)" fill-opacity="1" stroke="none" ry="16"/></clipPath><clipPath id="clipPath4528-9" clipPathUnits="userSpaceOnUse"><rect id="rect4530-0" width="32" height="32" x="8" y="8" fill="url(#linearGradient4532)" fill-opacity="1" stroke="none" ry="16"/></clipPath><clipPath id="clipPath4578-0" clipPathUnits="userSpaceOnUse"><rect id="rect4580-0" width="32" height="32" x="392.571" y="507.798" fill="url(#linearGradient4582)" fill-opacity="1" stroke="none" ry="16"/></clipPath><clipPath id="clipPath4562-2" clipPathUnits="userSpaceOnUse"><rect id="rect4564-2" width="32" height="32" x="392.571" y="507.798" fill="url(#linearGradient4566)" fill-opacity="1" stroke="none" ry="16"/></clipPath><clipPath id="clipPath4544-9" clipPathUnits="userSpaceOnUse"><rect id="rect4546-3" width="32" height="32" x="392.571" y="507.798" fill="url(#linearGradient4548)" fill-opacity="1" stroke="none" ry="16"/></clipPath><clipPath id="clipPath4390-2" clipPathUnits="userSpaceOnUse"><rect id="rect4392-0" width="32" height="32" x="8" y="8" fill="url(#linearGradient4532)" fill-opacity="1" stroke="none" ry="16"/></clipPath><clipPath id="clipPath4407-7" clipPathUnits="userSpaceOnUse"><rect id="rect4409-0" width="32" height="32" x="392.571" y="507.798" fill="url(#linearGradient4582)" fill-opacity="1" stroke="none" ry="16"/></clipPath><clipPath id="clipPath4424-0" clipPathUnits="userSpaceOnUse"><rect id="rect4426-0" width="32" height="32" x="392.571" y="507.798" fill="url(#linearGradient4566)" fill-opacity="1" stroke="none" ry="16"/></clipPath><clipPath id="clipPath4441-7" clipPathUnits="userSpaceOnUse"><rect id="rect4443-2" width="32" height="32" x="392.571" y="507.798" fill="url(#linearGradient4548)" fill-opacity="1" stroke="none" ry="16"/></clipPath><clipPath id="clipPath4528-1-9" clipPathUnits="userSpaceOnUse"><rect id="rect4530-7-9" width="32" height="32" x="8" y="8" fill="url(#linearGradient4532)" fill-opacity="1" stroke="none" ry="16"/></clipPath><clipPath id="clipPath4578-8-7" clipPathUnits="userSpaceOnUse"><rect id="rect4580-7-0" width="32" height="32" x="392.571" y="507.798" fill="url(#linearGradient4582)" fill-opacity="1" stroke="none" ry="16"/></clipPath><clipPath id="clipPath4562-8-6" clipPathUnits="userSpaceOnUse"><rect id="rect4564-8-6" width="32" height="32" x="392.571" y="507.798" fill="url(#linearGradient4566)" fill-opacity="1" stroke="none" ry="16"/></clipPath><clipPath id="clipPath4544-1-2" clipPathUnits="userSpaceOnUse"><rect id="rect4546-1-5" width="32" height="32" x="392.571" y="507.798" fill="url(#linearGradient4548)" fill-opacity="1" stroke="none" ry="16"/></clipPath><filter id="filter7554-5" color-interpolation-filters="sRGB"><feBlend id="feBlend7556-5" in2="BackgroundImage" mode="darken"/></filter><filter id="filter7554-2" color-interpolation-filters="sRGB"><feBlend id="feBlend7556-0" in2="BackgroundImage" mode="darken"/></filter></defs><g id="layer9" display="inline" transform="translate(-364.99759,251)"><g id="g3" fill="#555" fill-opacity="1" transform="matrix(0.02430321,0,0,0.02430321,367.74759,-249.75)"><g id="g5" fill="#555" fill-opacity="1" transform="translate(-30.860067,30.860089)"><g id="Icons_15_" fill="#555" fill-opacity="1"><g id="g8" fill="#555" fill-opacity="1"><path id="path10" fill="#555" fill-opacity="1" d="m 290.652,402.646 -87.595,0 c -6.781,0 -12.283,5.503 -12.283,12.283 0,6.785 5.502,12.287 12.283,12.287 l 87.595,0 c 6.781,0 12.289,-5.502 12.289,-12.287 0.001,-6.78 -5.506,-12.283 -12.289,-12.283 z"/><path id="path12" fill="#555" fill-opacity="1" d="m 224.299,474.245 c 1.666,11.026 11.086,19.517 22.586,19.517 11.488,0 20.93,-8.487 22.589,-19.517 15.037,-0.888 26.987,-13.245 26.987,-28.504 l -99.211,0 c 0,15.268 11.985,27.634 27.049,28.504 z"/><path id="path32" fill="none" fill-opacity="1" stroke="#555" stroke-dasharray="none" stroke-linecap="round" stroke-miterlimit="4" stroke-opacity="1" stroke-width="16.459" d="m 365.194,215.404 c 0,-65.354 -52.976,-118.333 -118.322,-118.333 -65.359,0 -118.336,52.979 -118.336,118.333 0,27.569 9.482,52.884 25.322,72.981 13.881,17.612 27.027,36.839 38.42,56.187 l 0,39.306 108.516,0 0,-38.263 c 11.288,-18.818 25.881,-40.484 39.065,-57.211 15.854,-20.103 25.335,-45.413 25.335,-73 z"/></g></g></g></g></g></svg>