<svg xmlns="http://www.w3.org/2000/svg" xmlns:osb="http://www.openswatchbook.org/uri/2009/osb" xmlns:svg="http://www.w3.org/2000/svg" id="svg7384" width="16" height="16" enable-background="new" version="1.1"><metadata id="metadata90"/><title id="title8473">Paper Symbolic Icon Theme</title><defs id="defs7386"><linearGradient id="linearGradient5606" osb:paint="solid"><stop id="stop5608" offset="0" stop-color="#000" stop-opacity="1"/></linearGradient><filter id="filter7554" color-interpolation-filters="sRGB"><feBlend id="feBlend7556" in2="BackgroundImage" mode="darken"/></filter></defs><g id="layer15" display="inline" transform="translate(-725.0002,251)"><path id="path7472" fill="#555" fill-opacity="1" stroke="none" d="m 730.0002,-250 c 0,0 -4.3e-4,0.003 -4.3e-4,1.00336 l 0,7.1875 c -0.31647,-0.11352 -0.64447,-0.1875 -1,-0.1875 -1.65685,0 -3,1.34315 -3,3 0,1.65685 1.34315,3 3,3 1.65685,0 3,-1.34315 3,-3 l 0,-7 6,0 0,4.1875 c -0.31647,-0.11352 -0.64447,-0.1875 -1,-0.1875 -1.65685,0 -3,1.34315 -3,3 0,1.65685 1.34315,3 3,3 1.65685,0 2.99994,-1.34315 3,-3 L 740.0002,-250 c 0,0 -4.3e-4,0.004 -1.00043,0.003 z"/></g></svg>