<svg xmlns="http://www.w3.org/2000/svg" xmlns:osb="http://www.openswatchbook.org/uri/2009/osb" xmlns:svg="http://www.w3.org/2000/svg" id="svg7384" width="16" height="16.003" enable-background="new" version="1.1"><metadata id="metadata90"/><title id="title8473">Paper Symbolic Icon Theme</title><defs id="defs7386"><linearGradient id="linearGradient5606" osb:paint="solid"><stop id="stop5608" offset="0" stop-color="#000" stop-opacity="1"/></linearGradient><filter id="filter7554" color-interpolation-filters="sRGB"><feBlend id="feBlend7556" in2="BackgroundImage" mode="darken"/></filter></defs><g id="layer15" display="inline" transform="translate(-705.0002,227)"><path id="path5056" fill="#555" fill-opacity="1" stroke="none" d="m 717.00002,-226.99664 c -1.65685,0 -3,1.34315 -3,3 0,0.23127 0.0442,0.44 0.0937,0.65625 l -3.21875,2 c -0.51341,-0.41127 -1.16591,-0.65625 -1.87495,-0.65625 -1.65685,0 -3,1.34315 -3,3 0,1.65685 1.34315,3 3,3 0.70904,0 1.36154,-0.24498 1.875,-0.65625 l 3.21875,2 c -0.0495,0.21625 -0.0937,0.42498 -0.0937,0.65625 0,1.65685 1.34315,3 3,3 1.65685,0 3,-1.34315 3,-3 0,-1.65685 -1.34315,-3 -3,-3 -0.70904,0 -1.36154,0.24498 -1.875,0.65625 l -3.21875,-2 c 0.0495,-0.21625 0.0937,-0.42498 0.0937,-0.65625 0,-0.23127 -0.0442,-0.44 -0.0937,-0.65625 l 3.21875,-2 c 0.51341,0.41127 1.16591,0.65625 1.87495,0.65625 1.65685,0 3,-1.34315 3,-3 0,-1.65685 -1.34315,-3 -3,-3 z"/></g></svg>