<svg xmlns="http://www.w3.org/2000/svg" xmlns:osb="http://www.openswatchbook.org/uri/2009/osb" xmlns:svg="http://www.w3.org/2000/svg" id="svg7384" width="16" height="16" enable-background="new" version="1.1"><metadata id="metadata90"/><title id="title8473">Paper Symbolic Icon Theme</title><defs id="defs7386"><linearGradient id="linearGradient5606" osb:paint="solid"><stop id="stop5608" offset="0" stop-color="#000" stop-opacity="1"/></linearGradient><filter id="filter7554" color-interpolation-filters="sRGB"><feBlend id="feBlend7556" in2="BackgroundImage" mode="darken"/></filter></defs><g id="layer15" display="inline" transform="translate(-745.0002,251)"><path id="path8077-7" fill="#555" fill-opacity="1" stroke="none" d="m 750.84367,-249.98993 c -0.28125,0.0469 -0.84375,0.25 -0.84375,1 l 0,1 3,0 0.40625,0 0.3125,0.3125 4,4 0.28125,0.28125 0,0.40625 c 0.003,1.27288 -0.002,3.01044 0,4.4375 2.7e-4,0.22144 -1.2e-4,0.35876 0,0.5625 l 1,0 c 1,0 1,-1 1,-1 0.0188,-0.0461 0.005,-4.4529 0,-7 l -4,-4 -5,0 c 0,0 -0.0625,-0.0156 -0.15625,0 z" display="inline" enable-background="new"/><path id="path8075-3" fill="#555" fill-opacity="1" stroke="none" d="m 747.84367,-247 c -0.28125,0.0469 -0.84375,0.25 -0.84375,1 l 0,10 c 0,1 1,1 1,1 l 8,0 c 1,0 1,-1 1,-1 0.0188,-0.0461 0.005,-4.4529 0,-7 l -4,-4 -5,0 c 0,0 -0.0625,-0.0156 -0.15625,0 z" display="inline" enable-background="new"/></g></svg>