<svg xmlns="http://www.w3.org/2000/svg" xmlns:svg="http://www.w3.org/2000/svg" id="svg3004" width="24" height="24" version="1.1"><metadata id="metadata3009"/><path id="path7-4-0-7-3-8-0-1-9" fill="#d33636" fill-opacity="1" d="m 20.224294,9.1708346 -0.609553,0 0,-1.6579451 c 0,-0.4275455 -0.347566,-0.7763821 -0.777019,-0.7763821 l -15.06134,0 C 3.347571,6.7365074 3,7.085344 3,7.5128895 L 3,16.48711 c 0,0.429458 0.347571,0.776383 0.776382,0.776383 l 15.06134,0 c 0.42942,0 0.776375,-0.347572 0.776375,-0.776383 l 0,-1.592472 0.60952,0 c 0.429434,0 0.776382,-0.345691 0.776382,-0.776383 l 0,-4.1703914 c 6.7e-4,-0.429428 -0.346277,-0.777029 -0.775705,-0.777029 z m -2.162968,6.5398644 -12.08636,-7.5e-5 0,-7.4207053 12.086333,0 0,1.6579449 0,4.1703624 0,1.592473 z"/></svg>