<svg xmlns="http://www.w3.org/2000/svg" xmlns:svg="http://www.w3.org/2000/svg" xmlns:xlink="http://www.w3.org/1999/xlink" id="svg2404" width="24" height="24" version="1.0"><metadata id="metadata16"/><defs id="defs2406"><linearGradient id="linearGradient2398" x1="14" x2="14" y1="3" y2="21" gradientTransform="translate(-1.0001235,-5)" gradientUnits="userSpaceOnUse" xlink:href="#linearGradient3587-6-5-3"/><linearGradient id="linearGradient3587-6-5-3"><stop id="stop3589-9-2-0" offset="0" stop-color="#000" stop-opacity="1"/><stop id="stop3591-7-4-7" offset="1" stop-color="#363636" stop-opacity="1"/></linearGradient><linearGradient id="linearGradient2395" x1="66.097" x2="66.097" y1="9.364" y2="27.364" gradientTransform="translate(-52.096803,-11.363826)" gradientUnits="userSpaceOnUse" xlink:href="#linearGradient3587-6-5-3"/><linearGradient id="linearGradient7390" x1="4.955" x2="4.955" y1="2.684" y2="13.496" gradientUnits="userSpaceOnUse" xlink:href="#linearGradient3587-6-5-3"/><linearGradient id="linearGradient7392" x1="7.911" x2="7.911" y1="4.576" y2="11.649" gradientUnits="userSpaceOnUse" xlink:href="#linearGradient3587-6-5-3"/><linearGradient id="linearGradient7394" x1="10.187" x2="10.187" y1="2.774" y2="13.317" gradientUnits="userSpaceOnUse" xlink:href="#linearGradient3587-6-5-3"/><linearGradient id="linearGradient7396" x1="13.917" x2="13.917" y1=".882" y2="15.183" gradientUnits="userSpaceOnUse" xlink:href="#linearGradient3587-6-5-3"/><linearGradient id="linearGradient5263"><stop id="stop5265" offset="0" stop-color="#a0d5ff" stop-opacity="1"/><stop id="stop5267" offset="1" stop-color="#a0d5ff" stop-opacity="1"/></linearGradient></defs><path id="path6686-8-1-8-7" fill="#fff" fill-opacity="1" fill-rule="evenodd" stroke="none" d="m 11.983194,4.0001552 c -1.049681,0.023946 -2.2319395,0.0856 -3.2243257,0.7460026 -0.026726,0.016367 -0.051167,0.035953 -0.072728,0.058281 -1.0309357,1.1573107 -0.8437478,2.692442 -1.0060877,3.8698875 -0.00433,0.00763 -0.00837,0.015403 -0.012104,0.023313 -0.186452,3.0175137 -0.1761424,6.0772087 0.3030367,9.0919017 l 0,0.01164 c 0.1558608,0.798159 0.6726423,1.645339 1.6242853,1.865007 0.00926,0.0022 0.014888,0.0096 0.02424,0.01164 l 0,-0.01164 c 1.4439084,0.425688 3.0031134,0.425803 4.4486014,0.104906 0.748669,-0.166452 1.524373,-0.612419 1.793986,-1.422067 0.0012,-0.0033 -0.0012,-0.0082 0,-0.01164 0.351901,-0.967293 0.345087,-1.963073 0.448497,-2.867448 0.0041,-0.0038 0.0082,-0.0077 0.0121,-0.01164 0.192692,-2.901016 0.179507,-5.8298031 -0.206066,-8.7305555 -0.05338,-0.411379 -0.139966,-0.8641841 -0.351524,-1.2821917 -0.209267,-0.4134756 -0.551528,-0.7874839 -1.054573,-0.9907847 -0.0023,-7.703e-4 0.0023,-0.010744 0,-0.011638 -0.0035,-0.00148 -0.0085,0.00148 -0.0121,0 -0.879492,-0.3796407 -1.840269,-0.4104098 -2.690984,-0.4429389 -0.0081,-2.534e-4 -0.01616,-2.534e-4 -0.02424,0 z" color="#7b7c7e"/></svg>