<svg xmlns="http://www.w3.org/2000/svg" xmlns:osb="http://www.openswatchbook.org/uri/2009/osb" xmlns:svg="http://www.w3.org/2000/svg" id="svg3760" width="22" height="22" version="1.1"><defs id="defs3762"><linearGradient id="linearGradient4207" osb:paint="gradient"><stop id="stop3371" offset="0" stop-color="#3498db" stop-opacity="1"/><stop id="stop3373" offset="1" stop-color="#3498db" stop-opacity="0"/></linearGradient></defs><metadata id="metadata3765"/><g id="layer1" transform="translate(-550.28571,-608.64789)"><g id="g4712" transform="matrix(1.0114389,0,0,1.0114389,-4.2120629,-7.1625793)"><g id="g4729" transform="translate(-0.08437721,-5.4511736e-7)"><g id="layer1-4" transform="matrix(1.9773861,0,0,1.9773861,-108.77438,-457.48368)"><g id="g3" fill="#fff" fill-opacity="1" transform="matrix(0.01499997,0,0,0.01499997,333.8,540.76222)"><path id="path5" fill="#4d4d4d" fill-opacity="1" d="M 483.236,0 332.943,0 C 305.387,0 266.903,15.94 247.42,35.424 L 14.612,268.231 c -19.483,19.483 -19.483,51.367 0,70.85 L 194.253,518.72 c 19.483,19.484 51.365,19.484 70.849,0 L 497.91,285.913 c 19.483,-19.484 35.424,-57.969 35.424,-85.522 l 0,-150.293 C 533.333,22.544 510.79,0 483.236,0 Z m -66.569,166.667 c -27.614,0 -50,-22.385 -50,-50 0,-27.614 22.386,-50 50,-50 27.614,0 50,22.386 50,50 0,27.614 -22.386,50 -50,50 z"/></g></g></g></g></g></svg>