<svg xmlns="http://www.w3.org/2000/svg" xmlns:svg="http://www.w3.org/2000/svg" xmlns:xlink="http://www.w3.org/1999/xlink" id="svg4355" width="22" height="22" version="1.1"><defs id="defs4357"><clipPath id="clipPath4160" clipPathUnits="userSpaceOnUse"><rect id="rect4162" width="1" height="1" x="7" y="1023.362" fill="#f2f2f2" fill-opacity="1" stroke="none" stroke-opacity="1" opacity="1"/></clipPath><clipPath id="clipPath4160-4" clipPathUnits="userSpaceOnUse"><rect id="rect4162-9" width="1" height="1" x="7" y="1023.362" fill="#f2f2f2" fill-opacity="1" stroke="none" stroke-opacity="1" opacity="1"/></clipPath><linearGradient id="linearGradient4469"><stop id="stop4471" offset="0" stop-color="#b3b3b3" stop-opacity="1"/><stop id="stop4473" offset="1" stop-color="#b3b3b3" stop-opacity="0"/></linearGradient><clipPath id="clipPath4160-3" clipPathUnits="userSpaceOnUse"><rect id="rect4162-0" width="1" height="1" x="7" y="1023.362" fill="#f2f2f2" fill-opacity="1" stroke="none" stroke-opacity="1" opacity="1"/></clipPath><linearGradient id="linearGradient5093" x1="555.571" x2="555.571" y1="745.934" y2="761.934" gradientUnits="userSpaceOnUse" xlink:href="#linearGradient4469"/></defs><metadata id="metadata4360"/><g id="layer1" transform="translate(-544.57141,-742.93359)"><rect id="rect4035" width="0" height="11" x="527.154" y="747.554" fill="#4d4d4d" fill-opacity="1" stroke="none"/><rect id="rect4035-5" width="0" height="11" x="545.195" y="745.503" fill="#4d4d4d" fill-opacity="1" stroke="none"/><rect id="rect4035-8" width="0" height="11" x="527.154" y="747.554" fill="#4d4d4d" fill-opacity="1" stroke="none"/><rect id="rect4035-59" width="0" height="11" x="527.154" y="747.554" fill="#4d4d4d" fill-opacity="1" stroke="none"/><rect id="rect4035-6" width="0" height="11" x="519.846" y="742.719" fill="#4d4d4d" fill-opacity="1" stroke="none"/><rect id="rect4035-5-1" width="0" height="11" x="537.887" y="740.668" fill="#4d4d4d" fill-opacity="1" stroke="none"/><rect id="rect4035-8-3" width="0" height="11" x="519.846" y="742.719" fill="#4d4d4d" fill-opacity="1" stroke="none"/><rect id="rect4035-59-4" width="0" height="11" x="519.846" y="742.719" fill="#4d4d4d" fill-opacity="1" stroke="none"/><rect id="rect4035-1" width="0" height="11" x="525.861" y="746.936" fill="#4d4d4d" fill-opacity="1" stroke="none"/><rect id="rect4035-5-0" width="0" height="11" x="543.902" y="744.884" fill="#4d4d4d" fill-opacity="1" stroke="none"/><rect id="rect4035-8-1" width="0" height="11" x="525.861" y="746.936" fill="#4d4d4d" fill-opacity="1" stroke="none"/><rect id="rect4035-59-1" width="0" height="11" x="525.861" y="746.936" fill="#4d4d4d" fill-opacity="1" stroke="none"/><rect id="rect4035-7" width="0" height="11" x="527.154" y="747.554" fill="#4d4d4d" fill-opacity="1" stroke="none"/><rect id="rect4035-5-7" width="0" height="11" x="545.195" y="745.503" fill="#4d4d4d" fill-opacity="1" stroke="none"/><rect id="rect4035-8-16" width="0" height="11" x="527.154" y="747.554" fill="#4d4d4d" fill-opacity="1" stroke="none"/><rect id="rect4035-59-18" width="0" height="11" x="527.154" y="747.554" fill="#4d4d4d" fill-opacity="1" stroke="none"/><rect id="rect4035-6-5" width="0" height="11" x="519.846" y="742.719" fill="#4d4d4d" fill-opacity="1" stroke="none"/><rect id="rect4035-5-1-8" width="0" height="11" x="537.887" y="740.668" fill="#4d4d4d" fill-opacity="1" stroke="none"/><rect id="rect4035-8-3-8" width="0" height="11" x="519.846" y="742.719" fill="#4d4d4d" fill-opacity="1" stroke="none"/><rect id="rect4035-59-4-7" width="0" height="11" x="519.846" y="742.719" fill="#4d4d4d" fill-opacity="1" stroke="none"/><rect id="rect4035-1-7" width="0" height="11" x="525.861" y="746.936" fill="#4d4d4d" fill-opacity="1" stroke="none"/><rect id="rect4035-5-0-8" width="0" height="11" x="543.902" y="744.884" fill="#4d4d4d" fill-opacity="1" stroke="none"/><rect id="rect4035-8-1-0" width="0" height="11" x="525.861" y="746.936" fill="#4d4d4d" fill-opacity="1" stroke="none"/><rect id="rect4035-59-1-3" width="0" height="11" x="525.861" y="746.936" fill="#4d4d4d" fill-opacity="1" stroke="none"/><rect id="rect4035-0" width="0" height="11" x="524.622" y="750.934" fill="#4d4d4d" fill-opacity="1" stroke="none"/><rect id="rect4035-5-5" width="0" height="11" x="542.663" y="748.882" fill="#4d4d4d" fill-opacity="1" stroke="none"/><rect id="rect4035-8-6" width="0" height="11" x="524.622" y="750.934" fill="#4d4d4d" fill-opacity="1" stroke="none"/><rect id="rect4035-59-11" width="0" height="11" x="524.622" y="750.934" fill="#4d4d4d" fill-opacity="1" stroke="none"/><rect id="rect4035-9" width="0" height="11" x="508.634" y="747.3" fill="#4d4d4d" fill-opacity="1" stroke="none"/><rect id="rect4035-5-8" width="0" height="11" x="526.675" y="745.248" fill="#4d4d4d" fill-opacity="1" stroke="none"/><rect id="rect4035-8-0" width="0" height="11" x="508.634" y="747.3" fill="#4d4d4d" fill-opacity="1" stroke="none"/><rect id="rect4035-59-1-8" width="0" height="11" x="508.634" y="747.3" fill="#4d4d4d" fill-opacity="1" stroke="none"/><rect id="rect4035-3" width="0" height="11" x="527.154" y="747.554" fill="#4d4d4d" fill-opacity="1" stroke="none"/><rect id="rect4035-5-2" width="0" height="11" x="545.195" y="745.503" fill="#4d4d4d" fill-opacity="1" stroke="none"/><rect id="rect4035-8-7" width="0" height="11" x="527.154" y="747.554" fill="#4d4d4d" fill-opacity="1" stroke="none"/><rect id="rect4035-59-43" width="0" height="11" x="527.154" y="747.554" fill="#4d4d4d" fill-opacity="1" stroke="none"/><rect id="rect4035-6-2" width="0" height="11" x="519.846" y="742.719" fill="#4d4d4d" fill-opacity="1" stroke="none"/><rect id="rect4035-5-1-6" width="0" height="11" x="537.887" y="740.668" fill="#4d4d4d" fill-opacity="1" stroke="none"/><rect id="rect4035-8-3-4" width="0" height="11" x="519.846" y="742.719" fill="#4d4d4d" fill-opacity="1" stroke="none"/><rect id="rect4035-59-4-8" width="0" height="11" x="519.846" y="742.719" fill="#4d4d4d" fill-opacity="1" stroke="none"/><rect id="rect4035-1-8" width="0" height="11" x="525.861" y="746.936" fill="#4d4d4d" fill-opacity="1" stroke="none"/><rect id="rect4035-5-0-0" width="0" height="11" x="543.902" y="744.884" fill="#4d4d4d" fill-opacity="1" stroke="none"/><rect id="rect4035-8-1-3" width="0" height="11" x="525.861" y="746.936" fill="#4d4d4d" fill-opacity="1" stroke="none"/><rect id="rect4035-59-1-1" width="0" height="11" x="525.861" y="746.936" fill="#4d4d4d" fill-opacity="1" stroke="none"/><rect id="rect4035-08" width="0" height="11" x="527.103" y="747.554" fill="#4d4d4d" fill-opacity="1" stroke="none"/><rect id="rect4035-5-9" width="0" height="11" x="545.144" y="745.503" fill="#4d4d4d" fill-opacity="1" stroke="none"/><rect id="rect4035-8-09" width="0" height="11" x="527.103" y="747.554" fill="#4d4d4d" fill-opacity="1" stroke="none"/><rect id="rect4035-59-23" width="0" height="11" x="527.103" y="747.554" fill="#4d4d4d" fill-opacity="1" stroke="none"/><rect id="rect4035-6-51" width="0" height="11" x="519.795" y="742.719" fill="#4d4d4d" fill-opacity="1" stroke="none"/><rect id="rect4035-5-1-67" width="0" height="11" x="537.836" y="740.668" fill="#4d4d4d" fill-opacity="1" stroke="none"/><rect id="rect4035-8-3-9" width="0" height="11" x="519.795" y="742.719" fill="#4d4d4d" fill-opacity="1" stroke="none"/><rect id="rect4035-59-4-5" width="0" height="11" x="519.795" y="742.719" fill="#4d4d4d" fill-opacity="1" stroke="none"/><rect id="rect4035-1-79" width="0" height="11" x="525.81" y="746.936" fill="#4d4d4d" fill-opacity="1" stroke="none"/><rect id="rect4035-5-0-3" width="0" height="11" x="543.851" y="744.884" fill="#4d4d4d" fill-opacity="1" stroke="none"/><rect id="rect4035-8-1-6" width="0" height="11" x="525.81" y="746.936" fill="#4d4d4d" fill-opacity="1" stroke="none"/><rect id="rect4035-59-1-39" width="0" height="11" x="525.81" y="746.936" fill="#4d4d4d" fill-opacity="1" stroke="none"/><rect id="rect4035-7-5" width="0" height="11" x="527.103" y="747.554" fill="#4d4d4d" fill-opacity="1" stroke="none"/><rect id="rect4035-5-7-3" width="0" height="11" x="545.144" y="745.503" fill="#4d4d4d" fill-opacity="1" stroke="none"/><rect id="rect4035-8-16-1" width="0" height="11" x="527.103" y="747.554" fill="#4d4d4d" fill-opacity="1" stroke="none"/><rect id="rect4035-59-18-3" width="0" height="11" x="527.103" y="747.554" fill="#4d4d4d" fill-opacity="1" stroke="none"/><rect id="rect4035-6-5-0" width="0" height="11" x="519.795" y="742.719" fill="#4d4d4d" fill-opacity="1" stroke="none"/><rect id="rect4035-5-1-8-6" width="0" height="11" x="537.836" y="740.668" fill="#4d4d4d" fill-opacity="1" stroke="none"/><rect id="rect4035-8-3-8-6" width="0" height="11" x="519.795" y="742.719" fill="#4d4d4d" fill-opacity="1" stroke="none"/><rect id="rect4035-59-4-7-6" width="0" height="11" x="519.795" y="742.719" fill="#4d4d4d" fill-opacity="1" stroke="none"/><rect id="rect4035-1-7-0" width="0" height="11" x="525.81" y="746.936" fill="#4d4d4d" fill-opacity="1" stroke="none"/><rect id="rect4035-5-0-8-2" width="0" height="11" x="543.851" y="744.884" fill="#4d4d4d" fill-opacity="1" stroke="none"/><rect id="rect4035-8-1-0-6" width="0" height="11" x="525.81" y="746.936" fill="#4d4d4d" fill-opacity="1" stroke="none"/><rect id="rect4035-59-1-3-3" width="0" height="11" x="525.81" y="746.936" fill="#4d4d4d" fill-opacity="1" stroke="none"/><rect id="rect4035-0-4" width="0" height="11" x="524.571" y="750.934" fill="#4d4d4d" fill-opacity="1" stroke="none"/><rect id="rect4035-5-5-7" width="0" height="11" x="542.612" y="748.882" fill="#4d4d4d" fill-opacity="1" stroke="none"/><rect id="rect4035-8-6-2" width="0" height="11" x="524.571" y="750.934" fill="#4d4d4d" fill-opacity="1" stroke="none"/><rect id="rect4035-59-11-4" width="0" height="11" x="524.571" y="750.934" fill="#4d4d4d" fill-opacity="1" stroke="none"/><rect id="rect4035-9-6" width="0" height="11" x="508.583" y="747.3" fill="#4d4d4d" fill-opacity="1" stroke="none"/><rect id="rect4035-5-8-6" width="0" height="11" x="526.624" y="745.248" fill="#4d4d4d" fill-opacity="1" stroke="none"/><rect id="rect4035-8-0-7" width="0" height="11" x="508.583" y="747.3" fill="#4d4d4d" fill-opacity="1" stroke="none"/><rect id="rect4035-59-1-8-4" width="0" height="11" x="508.583" y="747.3" fill="#4d4d4d" fill-opacity="1" stroke="none"/><rect id="rect4477" width="16" height="16" x="547.571" y="745.934" fill="#4d4d4d" fill-opacity="1" stroke="none" stroke-linecap="round" opacity="1"/><rect id="rect4467" width="16" height="16" x="547.571" y="745.934" fill="url(#linearGradient5093)" fill-opacity="1" stroke="none" stroke-linecap="round" opacity="1"/></g></svg>