<svg xmlns="http://www.w3.org/2000/svg" xmlns:svg="http://www.w3.org/2000/svg" id="svg4355" width="22" height="22" version="1.1"><defs id="defs4357"><clipPath id="clipPath4160" clipPathUnits="userSpaceOnUse"><rect id="rect4162" width="1" height="1" x="7" y="1023.362" fill="#f2f2f2" fill-opacity="1" stroke="none" stroke-opacity="1" opacity="1"/></clipPath><clipPath id="clipPath4160-4" clipPathUnits="userSpaceOnUse"><rect id="rect4162-9" width="1" height="1" x="7" y="1023.362" fill="#f2f2f2" fill-opacity="1" stroke="none" stroke-opacity="1" opacity="1"/></clipPath><clipPath id="clipPath4160-3" clipPathUnits="userSpaceOnUse"><rect id="rect4162-0" width="1" height="1" x="7" y="1023.362" fill="#f2f2f2" fill-opacity="1" stroke="none" stroke-opacity="1" opacity="1"/></clipPath></defs><metadata id="metadata4360"/><g id="layer1" transform="translate(-544.57141,-742.93359)"><rect id="rect4035" width="0" height="11" x="520.211" y="747.072" fill="#4d4d4d" fill-opacity="1" stroke="none"/><rect id="rect4035-5" width="0" height="11" x="538.252" y="745.021" fill="#4d4d4d" fill-opacity="1" stroke="none"/><rect id="rect4035-8" width="0" height="11" x="520.211" y="747.072" fill="#4d4d4d" fill-opacity="1" stroke="none"/><rect id="rect4035-59" width="0" height="11" x="520.211" y="747.072" fill="#4d4d4d" fill-opacity="1" stroke="none"/><rect id="rect4035-6" width="0" height="11" x="512.903" y="742.238" fill="#4d4d4d" fill-opacity="1" stroke="none"/><rect id="rect4035-5-1" width="0" height="11" x="530.944" y="740.186" fill="#4d4d4d" fill-opacity="1" stroke="none"/><rect id="rect4035-8-3" width="0" height="11" x="512.903" y="742.238" fill="#4d4d4d" fill-opacity="1" stroke="none"/><rect id="rect4035-59-4" width="0" height="11" x="512.903" y="742.238" fill="#4d4d4d" fill-opacity="1" stroke="none"/><rect id="rect4035-1" width="0" height="11" x="518.918" y="746.454" fill="#4d4d4d" fill-opacity="1" stroke="none"/><rect id="rect4035-5-0" width="0" height="11" x="536.959" y="744.403" fill="#4d4d4d" fill-opacity="1" stroke="none"/><rect id="rect4035-8-1" width="0" height="11" x="518.918" y="746.454" fill="#4d4d4d" fill-opacity="1" stroke="none"/><rect id="rect4035-59-1" width="0" height="11" x="518.918" y="746.454" fill="#4d4d4d" fill-opacity="1" stroke="none"/><rect id="rect4035-7" width="0" height="11" x="520.211" y="747.072" fill="#4d4d4d" fill-opacity="1" stroke="none"/><rect id="rect4035-5-7" width="0" height="11" x="538.252" y="745.021" fill="#4d4d4d" fill-opacity="1" stroke="none"/><rect id="rect4035-8-16" width="0" height="11" x="520.211" y="747.072" fill="#4d4d4d" fill-opacity="1" stroke="none"/><rect id="rect4035-59-18" width="0" height="11" x="520.211" y="747.072" fill="#4d4d4d" fill-opacity="1" stroke="none"/><rect id="rect4035-6-5" width="0" height="11" x="512.903" y="742.238" fill="#4d4d4d" fill-opacity="1" stroke="none"/><rect id="rect4035-5-1-8" width="0" height="11" x="530.944" y="740.186" fill="#4d4d4d" fill-opacity="1" stroke="none"/><rect id="rect4035-8-3-8" width="0" height="11" x="512.903" y="742.238" fill="#4d4d4d" fill-opacity="1" stroke="none"/><rect id="rect4035-59-4-7" width="0" height="11" x="512.903" y="742.238" fill="#4d4d4d" fill-opacity="1" stroke="none"/><rect id="rect4035-1-7" width="0" height="11" x="518.918" y="746.454" fill="#4d4d4d" fill-opacity="1" stroke="none"/><rect id="rect4035-5-0-8" width="0" height="11" x="536.959" y="744.403" fill="#4d4d4d" fill-opacity="1" stroke="none"/><rect id="rect4035-8-1-0" width="0" height="11" x="518.918" y="746.454" fill="#4d4d4d" fill-opacity="1" stroke="none"/><rect id="rect4035-59-1-3" width="0" height="11" x="518.918" y="746.454" fill="#4d4d4d" fill-opacity="1" stroke="none"/><rect id="rect4035-0" width="0" height="11" x="517.679" y="750.452" fill="#4d4d4d" fill-opacity="1" stroke="none"/><rect id="rect4035-5-5" width="0" height="11" x="535.72" y="748.401" fill="#4d4d4d" fill-opacity="1" stroke="none"/><rect id="rect4035-8-6" width="0" height="11" x="517.679" y="750.452" fill="#4d4d4d" fill-opacity="1" stroke="none"/><rect id="rect4035-59-11" width="0" height="11" x="517.679" y="750.452" fill="#4d4d4d" fill-opacity="1" stroke="none"/><rect id="rect4035-9" width="0" height="11" x="501.691" y="746.818" fill="#4d4d4d" fill-opacity="1" stroke="none"/><rect id="rect4035-5-8" width="0" height="11" x="519.732" y="744.767" fill="#4d4d4d" fill-opacity="1" stroke="none"/><rect id="rect4035-8-0" width="0" height="11" x="501.691" y="746.818" fill="#4d4d4d" fill-opacity="1" stroke="none"/><rect id="rect4035-59-1-8" width="0" height="11" x="501.691" y="746.818" fill="#4d4d4d" fill-opacity="1" stroke="none"/><rect id="rect4035-3" width="0" height="11" x="520.211" y="747.072" fill="#4d4d4d" fill-opacity="1" stroke="none"/><rect id="rect4035-5-2" width="0" height="11" x="538.252" y="745.021" fill="#4d4d4d" fill-opacity="1" stroke="none"/><rect id="rect4035-8-7" width="0" height="11" x="520.211" y="747.072" fill="#4d4d4d" fill-opacity="1" stroke="none"/><rect id="rect4035-59-43" width="0" height="11" x="520.211" y="747.072" fill="#4d4d4d" fill-opacity="1" stroke="none"/><rect id="rect4035-6-2" width="0" height="11" x="512.903" y="742.238" fill="#4d4d4d" fill-opacity="1" stroke="none"/><rect id="rect4035-5-1-6" width="0" height="11" x="530.944" y="740.186" fill="#4d4d4d" fill-opacity="1" stroke="none"/><rect id="rect4035-8-3-4" width="0" height="11" x="512.903" y="742.238" fill="#4d4d4d" fill-opacity="1" stroke="none"/><rect id="rect4035-59-4-8" width="0" height="11" x="512.903" y="742.238" fill="#4d4d4d" fill-opacity="1" stroke="none"/><rect id="rect4035-1-8" width="0" height="11" x="518.918" y="746.454" fill="#4d4d4d" fill-opacity="1" stroke="none"/><rect id="rect4035-5-0-0" width="0" height="11" x="536.959" y="744.403" fill="#4d4d4d" fill-opacity="1" stroke="none"/><rect id="rect4035-8-1-3" width="0" height="11" x="518.918" y="746.454" fill="#4d4d4d" fill-opacity="1" stroke="none"/><rect id="rect4035-59-1-1" width="0" height="11" x="518.918" y="746.454" fill="#4d4d4d" fill-opacity="1" stroke="none"/><rect id="rect4035-08" width="0" height="11" x="520.16" y="747.072" fill="#4d4d4d" fill-opacity="1" stroke="none"/><rect id="rect4035-5-9" width="0" height="11" x="538.201" y="745.021" fill="#4d4d4d" fill-opacity="1" stroke="none"/><rect id="rect4035-8-09" width="0" height="11" x="520.16" y="747.072" fill="#4d4d4d" fill-opacity="1" stroke="none"/><rect id="rect4035-59-23" width="0" height="11" x="520.16" y="747.072" fill="#4d4d4d" fill-opacity="1" stroke="none"/><rect id="rect4035-6-51" width="0" height="11" x="512.852" y="742.238" fill="#4d4d4d" fill-opacity="1" stroke="none"/><rect id="rect4035-5-1-67" width="0" height="11" x="530.893" y="740.186" fill="#4d4d4d" fill-opacity="1" stroke="none"/><rect id="rect4035-8-3-9" width="0" height="11" x="512.852" y="742.238" fill="#4d4d4d" fill-opacity="1" stroke="none"/><rect id="rect4035-59-4-5" width="0" height="11" x="512.852" y="742.238" fill="#4d4d4d" fill-opacity="1" stroke="none"/><rect id="rect4035-1-79" width="0" height="11" x="518.867" y="746.454" fill="#4d4d4d" fill-opacity="1" stroke="none"/><rect id="rect4035-5-0-3" width="0" height="11" x="536.908" y="744.403" fill="#4d4d4d" fill-opacity="1" stroke="none"/><rect id="rect4035-8-1-6" width="0" height="11" x="518.867" y="746.454" fill="#4d4d4d" fill-opacity="1" stroke="none"/><rect id="rect4035-59-1-39" width="0" height="11" x="518.867" y="746.454" fill="#4d4d4d" fill-opacity="1" stroke="none"/><rect id="rect4035-7-5" width="0" height="11" x="520.16" y="747.072" fill="#4d4d4d" fill-opacity="1" stroke="none"/><rect id="rect4035-5-7-3" width="0" height="11" x="538.201" y="745.021" fill="#4d4d4d" fill-opacity="1" stroke="none"/><rect id="rect4035-8-16-1" width="0" height="11" x="520.16" y="747.072" fill="#4d4d4d" fill-opacity="1" stroke="none"/><rect id="rect4035-59-18-3" width="0" height="11" x="520.16" y="747.072" fill="#4d4d4d" fill-opacity="1" stroke="none"/><rect id="rect4035-6-5-0" width="0" height="11" x="512.852" y="742.238" fill="#4d4d4d" fill-opacity="1" stroke="none"/><rect id="rect4035-5-1-8-6" width="0" height="11" x="530.893" y="740.186" fill="#4d4d4d" fill-opacity="1" stroke="none"/><rect id="rect4035-8-3-8-6" width="0" height="11" x="512.852" y="742.238" fill="#4d4d4d" fill-opacity="1" stroke="none"/><rect id="rect4035-59-4-7-6" width="0" height="11" x="512.852" y="742.238" fill="#4d4d4d" fill-opacity="1" stroke="none"/><rect id="rect4035-1-7-0" width="0" height="11" x="518.867" y="746.454" fill="#4d4d4d" fill-opacity="1" stroke="none"/><rect id="rect4035-5-0-8-2" width="0" height="11" x="536.908" y="744.403" fill="#4d4d4d" fill-opacity="1" stroke="none"/><rect id="rect4035-8-1-0-6" width="0" height="11" x="518.867" y="746.454" fill="#4d4d4d" fill-opacity="1" stroke="none"/><rect id="rect4035-59-1-3-3" width="0" height="11" x="518.867" y="746.454" fill="#4d4d4d" fill-opacity="1" stroke="none"/><rect id="rect4035-0-4" width="0" height="11" x="517.629" y="750.452" fill="#4d4d4d" fill-opacity="1" stroke="none"/><rect id="rect4035-5-5-7" width="0" height="11" x="535.669" y="748.401" fill="#4d4d4d" fill-opacity="1" stroke="none"/><rect id="rect4035-8-6-2" width="0" height="11" x="517.629" y="750.452" fill="#4d4d4d" fill-opacity="1" stroke="none"/><rect id="rect4035-59-11-4" width="0" height="11" x="517.629" y="750.452" fill="#4d4d4d" fill-opacity="1" stroke="none"/><rect id="rect4035-9-6" width="0" height="11" x="501.64" y="746.818" fill="#4d4d4d" fill-opacity="1" stroke="none"/><rect id="rect4035-5-8-6" width="0" height="11" x="519.681" y="744.767" fill="#4d4d4d" fill-opacity="1" stroke="none"/><rect id="rect4035-8-0-7" width="0" height="11" x="501.64" y="746.818" fill="#4d4d4d" fill-opacity="1" stroke="none"/><rect id="rect4035-59-1-8-4" width="0" height="11" x="501.64" y="746.818" fill="#4d4d4d" fill-opacity="1" stroke="none"/><g id="g4227"><path id="path4154" fill="#4d4d4d" fill-opacity="1" stroke="none" stroke-dasharray="none" stroke-miterlimit="4" stroke-opacity=".55" stroke-width="2.8" d="m 18.710938,3 c 0.0072,-0.012362 -7.583985,7.589844 -7.583985,7.589844 L 9,8.4648438 8.99805,8.4667938 8.9961,8.4648438 4,13.460938 4,14.875 8.9980469,9.8769531 11.121094,12 11.126994,11.9961 11.130894,12 19,4.125 19,3 Z" opacity="1" transform="translate(544.57141,742.93359)"/><path id="path4154-7" fill="#4d4d4d" fill-opacity="1" stroke="none" stroke-dasharray="none" stroke-miterlimit="4" stroke-opacity=".55" stroke-width="2.8" d="M 4 3 L 4 9 L 4 10 L 4 15 L 4 16 L 4 17 L 3 17 L 3 18 L 4 18 L 4 19 L 5 19 L 5 18 L 18.292969 18 L 19 18 L 19 17.292969 L 19 17 L 18.707031 17 L 17.292969 17 L 5 17 L 5 15.431641 L 5 15.423828 L 5 15 L 5 13 L 5 12.423828 L 5 11.423828 L 5 11 L 5 10 L 5 9 L 5 6 L 5 5.9921875 L 5 5 L 5 3 L 4 3 z" opacity="1" transform="translate(544.57141,742.93359)"/><path id="path5276" fill="#4d4d4d" fill-opacity=".459" fill-rule="evenodd" stroke="none" stroke-linecap="butt" stroke-linejoin="miter" stroke-opacity="1" stroke-width="1" d="M 19 4.125 L 11.130859 12 L 11.126953 11.996094 L 11.121094 12 L 8.9980469 9.8769531 L 5 13.875 L 5 17 L 19 17 L 19 4.125 z" transform="translate(544.57141,742.93359)"/></g></g></svg>