<svg xmlns="http://www.w3.org/2000/svg" xmlns:svg="http://www.w3.org/2000/svg" id="svg4355" width="22" height="22" version="1.1"><defs id="defs4357"><clipPath id="clipPath4160" clipPathUnits="userSpaceOnUse"><rect id="rect4162" width="1" height="1" x="7" y="1023.362" fill="#f2f2f2" fill-opacity="1" stroke="none" stroke-opacity="1" opacity="1"/></clipPath></defs><metadata id="metadata4360"/><g id="layer1" transform="translate(-544.57141,-742.93359)"><rect id="rect4035" width="0" height="11" x="507.103" y="747.554" fill="#4d4d4d" fill-opacity="1" stroke="none"/><rect id="rect4035-5" width="0" height="11" x="525.144" y="745.503" fill="#4d4d4d" fill-opacity="1" stroke="none"/><rect id="rect4035-8" width="0" height="11" x="507.103" y="747.554" fill="#4d4d4d" fill-opacity="1" stroke="none"/><rect id="rect4035-59" width="0" height="11" x="507.103" y="747.554" fill="#4d4d4d" fill-opacity="1" stroke="none"/><rect id="rect4035-6" width="0" height="11" x="499.795" y="742.719" fill="#4d4d4d" fill-opacity="1" stroke="none"/><rect id="rect4035-5-1" width="0" height="11" x="517.836" y="740.668" fill="#4d4d4d" fill-opacity="1" stroke="none"/><rect id="rect4035-8-3" width="0" height="11" x="499.795" y="742.719" fill="#4d4d4d" fill-opacity="1" stroke="none"/><rect id="rect4035-59-4" width="0" height="11" x="499.795" y="742.719" fill="#4d4d4d" fill-opacity="1" stroke="none"/><rect id="rect4035-1" width="0" height="11" x="505.81" y="746.936" fill="#4d4d4d" fill-opacity="1" stroke="none"/><rect id="rect4035-5-0" width="0" height="11" x="523.851" y="744.884" fill="#4d4d4d" fill-opacity="1" stroke="none"/><rect id="rect4035-8-1" width="0" height="11" x="505.81" y="746.936" fill="#4d4d4d" fill-opacity="1" stroke="none"/><rect id="rect4035-59-1" width="0" height="11" x="505.81" y="746.936" fill="#4d4d4d" fill-opacity="1" stroke="none"/><rect id="rect4035-7" width="0" height="11" x="507.103" y="747.554" fill="#4d4d4d" fill-opacity="1" stroke="none"/><rect id="rect4035-5-7" width="0" height="11" x="525.144" y="745.503" fill="#4d4d4d" fill-opacity="1" stroke="none"/><rect id="rect4035-8-16" width="0" height="11" x="507.103" y="747.554" fill="#4d4d4d" fill-opacity="1" stroke="none"/><rect id="rect4035-59-18" width="0" height="11" x="507.103" y="747.554" fill="#4d4d4d" fill-opacity="1" stroke="none"/><rect id="rect4035-6-5" width="0" height="11" x="499.795" y="742.719" fill="#4d4d4d" fill-opacity="1" stroke="none"/><rect id="rect4035-5-1-8" width="0" height="11" x="517.836" y="740.668" fill="#4d4d4d" fill-opacity="1" stroke="none"/><rect id="rect4035-8-3-8" width="0" height="11" x="499.795" y="742.719" fill="#4d4d4d" fill-opacity="1" stroke="none"/><rect id="rect4035-59-4-7" width="0" height="11" x="499.795" y="742.719" fill="#4d4d4d" fill-opacity="1" stroke="none"/><rect id="rect4035-1-7" width="0" height="11" x="505.81" y="746.936" fill="#4d4d4d" fill-opacity="1" stroke="none"/><rect id="rect4035-5-0-8" width="0" height="11" x="523.851" y="744.884" fill="#4d4d4d" fill-opacity="1" stroke="none"/><rect id="rect4035-8-1-0" width="0" height="11" x="505.81" y="746.936" fill="#4d4d4d" fill-opacity="1" stroke="none"/><rect id="rect4035-59-1-3" width="0" height="11" x="505.81" y="746.936" fill="#4d4d4d" fill-opacity="1" stroke="none"/><rect id="rect4035-0" width="0" height="11" x="504.571" y="750.934" fill="#4d4d4d" fill-opacity="1" stroke="none"/><rect id="rect4035-5-5" width="0" height="11" x="522.612" y="748.882" fill="#4d4d4d" fill-opacity="1" stroke="none"/><rect id="rect4035-8-6" width="0" height="11" x="504.571" y="750.934" fill="#4d4d4d" fill-opacity="1" stroke="none"/><rect id="rect4035-59-11" width="0" height="11" x="504.571" y="750.934" fill="#4d4d4d" fill-opacity="1" stroke="none"/><rect id="rect4035-9" width="0" height="11" x="488.583" y="747.3" fill="#4d4d4d" fill-opacity="1" stroke="none"/><rect id="rect4035-5-8" width="0" height="11" x="506.624" y="745.248" fill="#4d4d4d" fill-opacity="1" stroke="none"/><rect id="rect4035-8-0" width="0" height="11" x="488.583" y="747.3" fill="#4d4d4d" fill-opacity="1" stroke="none"/><rect id="rect4035-59-1-8" width="0" height="11" x="488.583" y="747.3" fill="#4d4d4d" fill-opacity="1" stroke="none"/><rect id="rect4035-3" width="0" height="11" x="507.103" y="747.554" fill="#4d4d4d" fill-opacity="1" stroke="none"/><rect id="rect4035-5-2" width="0" height="11" x="525.144" y="745.503" fill="#4d4d4d" fill-opacity="1" stroke="none"/><rect id="rect4035-8-7" width="0" height="11" x="507.103" y="747.554" fill="#4d4d4d" fill-opacity="1" stroke="none"/><rect id="rect4035-59-43" width="0" height="11" x="507.103" y="747.554" fill="#4d4d4d" fill-opacity="1" stroke="none"/><rect id="rect4035-6-2" width="0" height="11" x="499.795" y="742.719" fill="#4d4d4d" fill-opacity="1" stroke="none"/><rect id="rect4035-5-1-6" width="0" height="11" x="517.836" y="740.668" fill="#4d4d4d" fill-opacity="1" stroke="none"/><rect id="rect4035-8-3-4" width="0" height="11" x="499.795" y="742.719" fill="#4d4d4d" fill-opacity="1" stroke="none"/><rect id="rect4035-59-4-8" width="0" height="11" x="499.795" y="742.719" fill="#4d4d4d" fill-opacity="1" stroke="none"/><rect id="rect4035-1-8" width="0" height="11" x="505.81" y="746.936" fill="#4d4d4d" fill-opacity="1" stroke="none"/><rect id="rect4035-5-0-0" width="0" height="11" x="523.851" y="744.884" fill="#4d4d4d" fill-opacity="1" stroke="none"/><rect id="rect4035-8-1-3" width="0" height="11" x="505.81" y="746.936" fill="#4d4d4d" fill-opacity="1" stroke="none"/><rect id="rect4035-59-1-1" width="0" height="11" x="505.81" y="746.936" fill="#4d4d4d" fill-opacity="1" stroke="none"/><g id="layer1-3" transform="translate(544.57141,-287.42861)"><g id="layer1-2" transform="matrix(0.66666662,0,0,0.66666662,-256.0476,686.83022)"><path id="path5" fill="#4d4d4d" fill-opacity="1" stroke="none" stroke-dasharray="none" stroke-miterlimit="4" stroke-width="1.08" d="m 400.07812,520.08271 -6.58932,11.49175 c -1.38467,2.42951 -1.49162,5.51872 0,8.12008 2.2423,3.91055 7.23019,5.26297 11.14076,3.02064 3.91056,-2.24229 5.26298,-7.23015 3.02065,-11.14075 l -6.58931,-11.49172 c -0.21767,-0.37961 -0.76514,-0.37961 -0.98278,0 z" opacity="1"/></g></g></g></svg>