<svg xmlns="http://www.w3.org/2000/svg" xmlns:svg="http://www.w3.org/2000/svg" id="svg3760" width="22" height="22" version="1.1"><metadata id="metadata3765"/><g id="layer1" transform="translate(-551.28571,-607.64788)"><path id="rect3343" fill="#4d4d4d" fill-opacity="1" stroke="none" stroke-dasharray="none" stroke-linecap="round" stroke-linejoin="miter" stroke-miterlimit="4" stroke-opacity=".299" stroke-width=".1" d="M 18 3 L 18 5.40625 L 14 9.078125 L 14 10 L 14 11 L 11 11 L 11 4 L 10 4 L 10 11 L 3 11 L 3 12 L 10 12 L 10 15.242188 L 7 17.996094 L 7 18 L 3 18 L 3 19 L 7 19 L 7.3847656 19 L 10 16.599609 L 10 19 L 11 19 L 11 15.681641 L 15 12.009766 L 15 12 L 18 12 L 18 11 L 15 11 L 15 9.5175781 L 19 5.8457031 L 19 5 L 19 3 L 18 3 z M 11 12 L 13.53125 12 L 11 14.324219 L 11 12 z" opacity="1" transform="translate(551.28571,607.64788)"/></g></svg>