<svg xmlns="http://www.w3.org/2000/svg" xmlns:svg="http://www.w3.org/2000/svg" xmlns:xlink="http://www.w3.org/1999/xlink" id="svg4355" width="22" height="22" version="1.1"><defs id="defs4357"><clipPath id="clipPath4160" clipPathUnits="userSpaceOnUse"><rect id="rect4162" width="1" height="1" x="7" y="1023.362" fill="#f2f2f2" fill-opacity="1" stroke="none" stroke-opacity="1" opacity="1"/></clipPath><linearGradient id="linearGradient4459" x1="429.914" x2="429.897" y1="537.271" y2="542.214" gradientTransform="matrix(0.70710678,-0.70710678,0.70710678,0.70710678,-677.53317,-69.84624)" gradientUnits="userSpaceOnUse" xlink:href="#linearGradient4450"/><linearGradient id="linearGradient4450"><stop id="stop4452" offset="0" stop-color="#4d4d4d" stop-opacity="1"/><stop id="stop4454" offset="1" stop-color="#b3b3b3" stop-opacity="1"/></linearGradient><linearGradient id="linearGradient4519" x1="429.914" x2="429.897" y1="537.271" y2="542.214" gradientTransform="matrix(0.70710678,-0.70710678,0.70710678,0.70710678,-675.53317,-63.84622)" gradientUnits="userSpaceOnUse" xlink:href="#linearGradient4450"/><linearGradient id="linearGradient4519-1" x1="429.914" x2="429.897" y1="537.271" y2="542.214" gradientTransform="matrix(0.70710678,-0.70710678,0.70710678,0.70710678,-676.53317,965.51598)" gradientUnits="userSpaceOnUse" xlink:href="#linearGradient4450"/><linearGradient id="linearGradient3039" x1="429.914" x2="429.897" y1="537.271" y2="542.214" gradientTransform="matrix(0.70710678,-0.70710678,0.70710678,0.70710678,-672.53317,961.516)" gradientUnits="userSpaceOnUse" xlink:href="#linearGradient4450"/></defs><metadata id="metadata4360"/><g id="layer1" transform="translate(-544.57141,-742.93359)"><rect id="rect4035" width="0" height="11" x="507.103" y="747.554" fill="#4d4d4d" fill-opacity="1" stroke="none"/><rect id="rect4035-5" width="0" height="11" x="525.144" y="745.503" fill="#4d4d4d" fill-opacity="1" stroke="none"/><rect id="rect4035-8" width="0" height="11" x="507.103" y="747.554" fill="#4d4d4d" fill-opacity="1" stroke="none"/><rect id="rect4035-59" width="0" height="11" x="507.103" y="747.554" fill="#4d4d4d" fill-opacity="1" stroke="none"/><rect id="rect4035-6" width="0" height="11" x="499.795" y="742.719" fill="#4d4d4d" fill-opacity="1" stroke="none"/><rect id="rect4035-5-1" width="0" height="11" x="517.836" y="740.668" fill="#4d4d4d" fill-opacity="1" stroke="none"/><rect id="rect4035-8-3" width="0" height="11" x="499.795" y="742.719" fill="#4d4d4d" fill-opacity="1" stroke="none"/><rect id="rect4035-59-4" width="0" height="11" x="499.795" y="742.719" fill="#4d4d4d" fill-opacity="1" stroke="none"/><rect id="rect4035-1" width="0" height="11" x="505.81" y="746.936" fill="#4d4d4d" fill-opacity="1" stroke="none"/><rect id="rect4035-5-0" width="0" height="11" x="523.851" y="744.884" fill="#4d4d4d" fill-opacity="1" stroke="none"/><rect id="rect4035-8-1" width="0" height="11" x="505.81" y="746.936" fill="#4d4d4d" fill-opacity="1" stroke="none"/><rect id="rect4035-59-1" width="0" height="11" x="505.81" y="746.936" fill="#4d4d4d" fill-opacity="1" stroke="none"/><rect id="rect4035-7" width="0" height="11" x="507.103" y="747.554" fill="#4d4d4d" fill-opacity="1" stroke="none"/><rect id="rect4035-5-7" width="0" height="11" x="525.144" y="745.503" fill="#4d4d4d" fill-opacity="1" stroke="none"/><rect id="rect4035-8-16" width="0" height="11" x="507.103" y="747.554" fill="#4d4d4d" fill-opacity="1" stroke="none"/><rect id="rect4035-59-18" width="0" height="11" x="507.103" y="747.554" fill="#4d4d4d" fill-opacity="1" stroke="none"/><rect id="rect4035-6-5" width="0" height="11" x="499.795" y="742.719" fill="#4d4d4d" fill-opacity="1" stroke="none"/><rect id="rect4035-5-1-8" width="0" height="11" x="517.836" y="740.668" fill="#4d4d4d" fill-opacity="1" stroke="none"/><rect id="rect4035-8-3-8" width="0" height="11" x="499.795" y="742.719" fill="#4d4d4d" fill-opacity="1" stroke="none"/><rect id="rect4035-59-4-7" width="0" height="11" x="499.795" y="742.719" fill="#4d4d4d" fill-opacity="1" stroke="none"/><rect id="rect4035-1-7" width="0" height="11" x="505.81" y="746.936" fill="#4d4d4d" fill-opacity="1" stroke="none"/><rect id="rect4035-5-0-8" width="0" height="11" x="523.851" y="744.884" fill="#4d4d4d" fill-opacity="1" stroke="none"/><rect id="rect4035-8-1-0" width="0" height="11" x="505.81" y="746.936" fill="#4d4d4d" fill-opacity="1" stroke="none"/><rect id="rect4035-59-1-3" width="0" height="11" x="505.81" y="746.936" fill="#4d4d4d" fill-opacity="1" stroke="none"/><rect id="rect4035-0" width="0" height="11" x="504.571" y="750.934" fill="#4d4d4d" fill-opacity="1" stroke="none"/><rect id="rect4035-5-5" width="0" height="11" x="522.612" y="748.882" fill="#4d4d4d" fill-opacity="1" stroke="none"/><rect id="rect4035-8-6" width="0" height="11" x="504.571" y="750.934" fill="#4d4d4d" fill-opacity="1" stroke="none"/><rect id="rect4035-59-11" width="0" height="11" x="504.571" y="750.934" fill="#4d4d4d" fill-opacity="1" stroke="none"/><rect id="rect4035-9" width="0" height="11" x="488.583" y="747.3" fill="#4d4d4d" fill-opacity="1" stroke="none"/><rect id="rect4035-5-8" width="0" height="11" x="506.624" y="745.248" fill="#4d4d4d" fill-opacity="1" stroke="none"/><rect id="rect4035-8-0" width="0" height="11" x="488.583" y="747.3" fill="#4d4d4d" fill-opacity="1" stroke="none"/><rect id="rect4035-59-1-8" width="0" height="11" x="488.583" y="747.3" fill="#4d4d4d" fill-opacity="1" stroke="none"/><rect id="rect4035-3" width="0" height="11" x="507.103" y="747.554" fill="#4d4d4d" fill-opacity="1" stroke="none"/><rect id="rect4035-5-2" width="0" height="11" x="525.144" y="745.503" fill="#4d4d4d" fill-opacity="1" stroke="none"/><rect id="rect4035-8-7" width="0" height="11" x="507.103" y="747.554" fill="#4d4d4d" fill-opacity="1" stroke="none"/><rect id="rect4035-59-43" width="0" height="11" x="507.103" y="747.554" fill="#4d4d4d" fill-opacity="1" stroke="none"/><rect id="rect4035-6-2" width="0" height="11" x="499.795" y="742.719" fill="#4d4d4d" fill-opacity="1" stroke="none"/><rect id="rect4035-5-1-6" width="0" height="11" x="517.836" y="740.668" fill="#4d4d4d" fill-opacity="1" stroke="none"/><rect id="rect4035-8-3-4" width="0" height="11" x="499.795" y="742.719" fill="#4d4d4d" fill-opacity="1" stroke="none"/><rect id="rect4035-59-4-8" width="0" height="11" x="499.795" y="742.719" fill="#4d4d4d" fill-opacity="1" stroke="none"/><rect id="rect4035-1-8" width="0" height="11" x="505.81" y="746.936" fill="#4d4d4d" fill-opacity="1" stroke="none"/><rect id="rect4035-5-0-0" width="0" height="11" x="523.851" y="744.884" fill="#4d4d4d" fill-opacity="1" stroke="none"/><rect id="rect4035-8-1-3" width="0" height="11" x="505.81" y="746.936" fill="#4d4d4d" fill-opacity="1" stroke="none"/><rect id="rect4035-59-1-1" width="0" height="11" x="505.81" y="746.936" fill="#4d4d4d" fill-opacity="1" stroke="none"/><g id="layer1-2" transform="translate(544.57141,-287.42861)"><rect id="rect4035-38" width="0" height="11" x="-37.468" y="1034.983" fill="#4d4d4d" fill-opacity="1" stroke="none"/><rect id="rect4035-5-82" width="0" height="11" x="-19.427" y="1032.931" fill="#4d4d4d" fill-opacity="1" stroke="none"/><rect id="rect4035-8-4" width="0" height="11" x="-37.468" y="1034.983" fill="#4d4d4d" fill-opacity="1" stroke="none"/><rect id="rect4035-59-9" width="0" height="11" x="-37.468" y="1034.983" fill="#4d4d4d" fill-opacity="1" stroke="none"/><rect id="rect4035-6-1" width="0" height="11" x="-44.776" y="1030.148" fill="#4d4d4d" fill-opacity="1" stroke="none"/><rect id="rect4035-5-1-0" width="0" height="11" x="-26.736" y="1028.097" fill="#4d4d4d" fill-opacity="1" stroke="none"/><rect id="rect4035-8-3-89" width="0" height="11" x="-44.776" y="1030.148" fill="#4d4d4d" fill-opacity="1" stroke="none"/><rect id="rect4035-59-4-9" width="0" height="11" x="-44.776" y="1030.148" fill="#4d4d4d" fill-opacity="1" stroke="none"/><rect id="rect4035-1-2" width="0" height="11" x="-38.761" y="1034.364" fill="#4d4d4d" fill-opacity="1" stroke="none"/><rect id="rect4035-5-0-6" width="0" height="11" x="-20.72" y="1032.313" fill="#4d4d4d" fill-opacity="1" stroke="none"/><rect id="rect4035-8-1-1" width="0" height="11" x="-38.761" y="1034.364" fill="#4d4d4d" fill-opacity="1" stroke="none"/><rect id="rect4035-59-1-7" width="0" height="11" x="-38.761" y="1034.364" fill="#4d4d4d" fill-opacity="1" stroke="none"/><path id="rect4132" fill="url(#linearGradient4519)" fill-opacity="1" stroke="none" d="m 16.40625,4 -4,4 L 11.3125,9.09375 8,12.375 8,12.40625 7.3125,13.09375 4,16.375 4,18 l 2,2 1.625,0 3.96875,-4 1.125,-1.125 L 16,11.59375 16.71875,10.875 20,7.59375 20,6 18,4 16.40625,4 Z" transform="translate(-1,1029.3622)"/></g></g></svg>