<svg xmlns="http://www.w3.org/2000/svg" xmlns:svg="http://www.w3.org/2000/svg" id="svg3869" width="22" height="22" version="1.1"><metadata id="metadata3874"/><g id="layer1" transform="translate(-326,-534.3622)"><g id="layer1-6" transform="translate(-52.857381,-5.7142699)"><path id="rect4108" fill="#4d4d4d" fill-opacity="1" stroke="none" d="M 3,4 3,9.0014948 C 3,9 2.9972376,10 4,10 l 13.981399,0 C 18,10 19,10.015165 19,9 L 19,4.0848927 C 19,4 19.054619,3 18,3 L 4,3 C 4,3 3,2.9963076 3,4 Z M 3,12 3,12.282912 3,17 5,17 5,12 3.3310292,12 Z m 4,0 0,7 2,0 0,-7 z m 4,0 0,3 2,0 0,-3 z m 4,0 0,3 4,0 0,-3 z" opacity="1" transform="translate(378.85714,540.07647)"/></g></g></svg>