<svg xmlns="http://www.w3.org/2000/svg" xmlns:svg="http://www.w3.org/2000/svg" id="svg4355" width="22" height="22" version="1.1"><defs id="defs4357"><clipPath id="clipPath4160" clipPathUnits="userSpaceOnUse"><rect id="rect4162" width="1" height="1" x="7" y="1023.362" fill="#f2f2f2" fill-opacity="1" stroke="none" stroke-opacity="1" opacity="1"/></clipPath></defs><metadata id="metadata4360"/><g id="layer1" transform="translate(-544.57141,-742.93359)"><rect id="rect4035" width="0" height="11" x="507.154" y="747.554" fill="#4d4d4d" fill-opacity="1" stroke="none"/><rect id="rect4035-5" width="0" height="11" x="525.195" y="745.503" fill="#4d4d4d" fill-opacity="1" stroke="none"/><rect id="rect4035-8" width="0" height="11" x="507.154" y="747.554" fill="#4d4d4d" fill-opacity="1" stroke="none"/><rect id="rect4035-59" width="0" height="11" x="507.154" y="747.554" fill="#4d4d4d" fill-opacity="1" stroke="none"/><rect id="rect4035-6" width="0" height="11" x="499.846" y="742.719" fill="#4d4d4d" fill-opacity="1" stroke="none"/><rect id="rect4035-5-1" width="0" height="11" x="517.887" y="740.668" fill="#4d4d4d" fill-opacity="1" stroke="none"/><rect id="rect4035-8-3" width="0" height="11" x="499.846" y="742.719" fill="#4d4d4d" fill-opacity="1" stroke="none"/><rect id="rect4035-59-4" width="0" height="11" x="499.846" y="742.719" fill="#4d4d4d" fill-opacity="1" stroke="none"/><rect id="rect4035-1" width="0" height="11" x="505.861" y="746.936" fill="#4d4d4d" fill-opacity="1" stroke="none"/><rect id="rect4035-5-0" width="0" height="11" x="523.902" y="744.884" fill="#4d4d4d" fill-opacity="1" stroke="none"/><rect id="rect4035-8-1" width="0" height="11" x="505.861" y="746.936" fill="#4d4d4d" fill-opacity="1" stroke="none"/><rect id="rect4035-59-1" width="0" height="11" x="505.861" y="746.936" fill="#4d4d4d" fill-opacity="1" stroke="none"/><rect id="rect4035-7" width="0" height="11" x="507.154" y="747.554" fill="#4d4d4d" fill-opacity="1" stroke="none"/><rect id="rect4035-5-7" width="0" height="11" x="525.195" y="745.503" fill="#4d4d4d" fill-opacity="1" stroke="none"/><rect id="rect4035-8-16" width="0" height="11" x="507.154" y="747.554" fill="#4d4d4d" fill-opacity="1" stroke="none"/><rect id="rect4035-59-18" width="0" height="11" x="507.154" y="747.554" fill="#4d4d4d" fill-opacity="1" stroke="none"/><rect id="rect4035-6-5" width="0" height="11" x="499.846" y="742.719" fill="#4d4d4d" fill-opacity="1" stroke="none"/><rect id="rect4035-5-1-8" width="0" height="11" x="517.887" y="740.668" fill="#4d4d4d" fill-opacity="1" stroke="none"/><rect id="rect4035-8-3-8" width="0" height="11" x="499.846" y="742.719" fill="#4d4d4d" fill-opacity="1" stroke="none"/><rect id="rect4035-59-4-7" width="0" height="11" x="499.846" y="742.719" fill="#4d4d4d" fill-opacity="1" stroke="none"/><rect id="rect4035-1-7" width="0" height="11" x="505.861" y="746.936" fill="#4d4d4d" fill-opacity="1" stroke="none"/><rect id="rect4035-5-0-8" width="0" height="11" x="523.902" y="744.884" fill="#4d4d4d" fill-opacity="1" stroke="none"/><rect id="rect4035-8-1-0" width="0" height="11" x="505.861" y="746.936" fill="#4d4d4d" fill-opacity="1" stroke="none"/><rect id="rect4035-59-1-3" width="0" height="11" x="505.861" y="746.936" fill="#4d4d4d" fill-opacity="1" stroke="none"/><rect id="rect4035-0" width="0" height="11" x="504.622" y="750.934" fill="#4d4d4d" fill-opacity="1" stroke="none"/><rect id="rect4035-5-5" width="0" height="11" x="522.663" y="748.882" fill="#4d4d4d" fill-opacity="1" stroke="none"/><rect id="rect4035-8-6" width="0" height="11" x="504.622" y="750.934" fill="#4d4d4d" fill-opacity="1" stroke="none"/><rect id="rect4035-59-11" width="0" height="11" x="504.622" y="750.934" fill="#4d4d4d" fill-opacity="1" stroke="none"/><rect id="rect4035-9" width="0" height="11" x="488.634" y="747.3" fill="#4d4d4d" fill-opacity="1" stroke="none"/><rect id="rect4035-5-8" width="0" height="11" x="506.675" y="745.248" fill="#4d4d4d" fill-opacity="1" stroke="none"/><rect id="rect4035-8-0" width="0" height="11" x="488.634" y="747.3" fill="#4d4d4d" fill-opacity="1" stroke="none"/><rect id="rect4035-59-1-8" width="0" height="11" x="488.634" y="747.3" fill="#4d4d4d" fill-opacity="1" stroke="none"/><rect id="rect4035-3" width="0" height="11" x="507.154" y="747.554" fill="#4d4d4d" fill-opacity="1" stroke="none"/><rect id="rect4035-5-2" width="0" height="11" x="525.195" y="745.503" fill="#4d4d4d" fill-opacity="1" stroke="none"/><rect id="rect4035-8-7" width="0" height="11" x="507.154" y="747.554" fill="#4d4d4d" fill-opacity="1" stroke="none"/><rect id="rect4035-59-43" width="0" height="11" x="507.154" y="747.554" fill="#4d4d4d" fill-opacity="1" stroke="none"/><rect id="rect4035-6-2" width="0" height="11" x="499.846" y="742.719" fill="#4d4d4d" fill-opacity="1" stroke="none"/><rect id="rect4035-5-1-6" width="0" height="11" x="517.887" y="740.668" fill="#4d4d4d" fill-opacity="1" stroke="none"/><rect id="rect4035-8-3-4" width="0" height="11" x="499.846" y="742.719" fill="#4d4d4d" fill-opacity="1" stroke="none"/><rect id="rect4035-59-4-8" width="0" height="11" x="499.846" y="742.719" fill="#4d4d4d" fill-opacity="1" stroke="none"/><rect id="rect4035-1-8" width="0" height="11" x="505.861" y="746.936" fill="#4d4d4d" fill-opacity="1" stroke="none"/><rect id="rect4035-5-0-0" width="0" height="11" x="523.902" y="744.884" fill="#4d4d4d" fill-opacity="1" stroke="none"/><rect id="rect4035-8-1-3" width="0" height="11" x="505.861" y="746.936" fill="#4d4d4d" fill-opacity="1" stroke="none"/><rect id="rect4035-59-1-1" width="0" height="11" x="505.861" y="746.936" fill="#4d4d4d" fill-opacity="1" stroke="none"/><g id="layer1-6" fill="#1d99f3" fill-opacity="1" transform="translate(544.57141,-287.42861)"><rect id="rect4035-73" width="0" height="11" x="-37.468" y="1034.983" fill="#1d99f3" fill-opacity="1" stroke="none"/><rect id="rect4035-5-02" width="0" height="11" x="-19.427" y="1032.931" fill="#1d99f3" fill-opacity="1" stroke="none"/><rect id="rect4035-8-19" width="0" height="11" x="-37.468" y="1034.983" fill="#1d99f3" fill-opacity="1" stroke="none"/><rect id="rect4035-59-2" width="0" height="11" x="-37.468" y="1034.983" fill="#1d99f3" fill-opacity="1" stroke="none"/><rect id="rect4035-6-1" width="0" height="11" x="-44.776" y="1030.148" fill="#1d99f3" fill-opacity="1" stroke="none"/><rect id="rect4035-5-1-7" width="0" height="11" x="-26.736" y="1028.097" fill="#1d99f3" fill-opacity="1" stroke="none"/><rect id="rect4035-8-3-3" width="0" height="11" x="-44.776" y="1030.148" fill="#1d99f3" fill-opacity="1" stroke="none"/><rect id="rect4035-59-4-86" width="0" height="11" x="-44.776" y="1030.148" fill="#1d99f3" fill-opacity="1" stroke="none"/><rect id="rect4035-1-9" width="0" height="11" x="-38.761" y="1034.364" fill="#1d99f3" fill-opacity="1" stroke="none"/><rect id="rect4035-5-0-1" width="0" height="11" x="-20.72" y="1032.313" fill="#1d99f3" fill-opacity="1" stroke="none"/><rect id="rect4035-8-1-31" width="0" height="11" x="-38.761" y="1034.364" fill="#1d99f3" fill-opacity="1" stroke="none"/><rect id="rect4035-59-1-4" width="0" height="11" x="-38.761" y="1034.364" fill="#1d99f3" fill-opacity="1" stroke="none"/><rect id="rect4035-0-7" width="0" height="11" x="-40" y="1038.362" fill="#1d99f3" fill-opacity="1" stroke="none"/><rect id="rect4035-5-5-3" width="0" height="11" x="-21.959" y="1036.311" fill="#1d99f3" fill-opacity="1" stroke="none"/><rect id="rect4035-8-6-9" width="0" height="11" x="-40" y="1038.362" fill="#1d99f3" fill-opacity="1" stroke="none"/><rect id="rect4035-59-11-8" width="0" height="11" x="-40" y="1038.362" fill="#1d99f3" fill-opacity="1" stroke="none"/><rect id="rect4035-9-7" width="0" height="11" x="-55.988" y="1034.728" fill="#1d99f3" fill-opacity="1" stroke="none"/><rect id="rect4035-5-8-0" width="0" height="11" x="-37.947" y="1032.677" fill="#1d99f3" fill-opacity="1" stroke="none"/><rect id="rect4035-8-0-9" width="0" height="11" x="-55.988" y="1034.728" fill="#1d99f3" fill-opacity="1" stroke="none"/><rect id="rect4035-59-1-8-7" width="0" height="11" x="-55.988" y="1034.728" fill="#1d99f3" fill-opacity="1" stroke="none"/><path id="path4059" fill="#1d99f3" fill-opacity="1" stroke="none" stroke-linecap="butt" stroke-linejoin="miter" stroke-opacity="1" stroke-width="1" d="M 4,4 4,20 20,20 20,4 4,4 Z M 19,5 19,19 5,19 8.46875,15.53125 C 7.563928,14.626428 7,13.380712 7,12 7,9.2385763 9.2385763,7 12,7 c 1.380712,0 2.626428,0.563928 3.53125,1.46875 L 19,5 Z m -3.46875,3.46875 -7.0625,7.0625 C 9.373572,16.436072 10.619288,17 12,17 c 2.761424,0 5,-2.238576 5,-5 0,-1.380712 -0.563928,-2.626428 -1.46875,-3.53125 z" transform="translate(-1,1029.3622)"/></g></g></svg>