<svg xmlns="http://www.w3.org/2000/svg" xmlns:svg="http://www.w3.org/2000/svg" xmlns:xlink="http://www.w3.org/1999/xlink" id="svg4355" width="22" height="22" version="1.1"><defs id="defs4357"><clipPath id="clipPath4160" clipPathUnits="userSpaceOnUse"><rect id="rect4162" width="1" height="1" x="7" y="1023.362" fill="#f2f2f2" fill-opacity="1" stroke="none" stroke-opacity="1" opacity="1"/></clipPath><clipPath id="clipPath4160-4" clipPathUnits="userSpaceOnUse"><rect id="rect4162-9" width="1" height="1" x="7" y="1023.362" fill="#f2f2f2" fill-opacity="1" stroke="none" stroke-opacity="1" opacity="1"/></clipPath><clipPath id="clipPath4160-3" clipPathUnits="userSpaceOnUse"><rect id="rect4162-0" width="1" height="1" x="7" y="1023.362" fill="#f2f2f2" fill-opacity="1" stroke="none" stroke-opacity="1" opacity="1"/></clipPath><linearGradient id="linearGradient4012"><stop id="stop4014" offset="0" stop-color="#1d99f3" stop-opacity="1"/><stop id="stop4016" offset=".417" stop-color="#48acf5" stop-opacity=".761"/><stop id="stop4018" offset=".667" stop-color="#73c0f7" stop-opacity="0"/><stop id="stop4020" offset="1" stop-color="#cae7fc" stop-opacity="0"/></linearGradient><linearGradient id="linearGradient4164" x1="3" x2="19" y1="1049.362" y2="1033.362" gradientTransform="matrix(0.75,0,0,0.75,1.7499999,269.34054)" gradientUnits="userSpaceOnUse" xlink:href="#linearGradient4012"/><linearGradient id="linearGradient3983" x1="3" x2="24.333" y1="1049.362" y2="1028.029" gradientTransform="matrix(0.75,0,0,0.75,2.7499999,262.34058)" gradientUnits="userSpaceOnUse" xlink:href="#linearGradient4012"/><linearGradient id="linearGradient4007" x1="3" x2="24.333" y1="1049.362" y2="1028.029" gradientTransform="matrix(0.75,0,0,0.75,3.7499999,-767.02162)" gradientUnits="userSpaceOnUse" xlink:href="#linearGradient4012"/><linearGradient id="linearGradient4164-76" x1="3" x2="19" y1="1049.362" y2="1033.362" gradientTransform="matrix(0.75,0,0,0.75,3.7499999,-769.02166)" gradientUnits="userSpaceOnUse" xlink:href="#linearGradient4012"/><linearGradient id="linearGradient4012-6"><stop id="stop4014-4" offset="0" stop-color="#00abff" stop-opacity="1"/><stop id="stop4020-7" offset="1" stop-color="#4d4d4d" stop-opacity="1"/></linearGradient><linearGradient id="linearGradient4466" x1="400.57" x2="400.57" y1="544.335" y2="531.805" gradientUnits="userSpaceOnUse" xlink:href="#linearGradient4012-6"/></defs><metadata id="metadata4360"/><g id="layer1" transform="translate(-544.57141,-742.93359)"><g id="layer1-8" transform="matrix(0.66666667,0,0,0.66666667,288.52379,399.40159)"><g id="g4496" transform="matrix(0.95770282,0,0,0.95770282,16.944082,22.486539)"><path id="path5-3" fill="#4d4d4d" fill-opacity="1" stroke="none" stroke-dasharray="none" stroke-miterlimit="4" stroke-opacity="1" stroke-width="1.08" d="m 400.07812,520.08271 -6.58932,11.49175 c -1.38467,2.42951 -1.49162,5.51872 0,8.12008 2.2423,3.91055 7.23019,5.26297 11.14076,3.02064 3.91056,-2.24229 5.26298,-7.23015 3.02065,-11.14075 l -6.58931,-11.49172 c -0.21767,-0.37961 -0.76514,-0.37961 -0.98278,0 z" opacity="1"/><path id="path5" fill="url(#linearGradient4466)" fill-opacity="1" stroke="#4d4d4d" stroke-dasharray="none" stroke-miterlimit="4" stroke-opacity="1" stroke-width="1.08" d="m 400.07812,520.08271 -6.58932,11.49175 c -1.38467,2.42951 -1.49162,5.51872 0,8.12008 2.2423,3.91055 7.23019,5.26297 11.14076,3.02064 3.91056,-2.24229 5.26298,-7.23015 3.02065,-11.14075 l -6.58931,-11.49172 c -0.21767,-0.37961 -0.76514,-0.37961 -0.98278,0 z" opacity="1"/></g></g></g></svg>