<svg xmlns="http://www.w3.org/2000/svg" xmlns:svg="http://www.w3.org/2000/svg" id="svg3813" width="22" height="22" version="1.1"><metadata id="metadata3818"/><g id="layer1" transform="translate(-378.85714,-540.07647)"><g id="g4148" transform="matrix(1.0666667,0,0,1.0666667,-25.990489,-37.271783)"><path id="rect4251" fill="#4d4d4d" fill-opacity="1" stroke="none" stroke-linecap="round" d="m 7,6 0,1 9,0 a 2,2 0 0 1 2,2 2,2 0 0 1 -2,2 l -9,0 a 3,3 0 0 0 -3,3 3,3 0 0 0 3,3 l 8,0 0,-1 -8,0 A 2,2 0 0 1 5,14 2,2 0 0 1 7,12 l 9,0 A 3,3 0 0 0 19,9 3,3 0 0 0 16,6 L 7,6 Z" opacity="1" transform="translate(378.85714,540.07647)"/><path id="path4277" fill="#1d99f3" fill-opacity="1" stroke="none" stroke-linecap="round" d="m 384.35714,544.07647 c -1.38071,0 -2.5,1.11929 -2.5,2.5 0,1.38071 1.11929,2.5 2.5,2.5 1.38071,0 2.5,-1.11929 2.5,-2.5 0,-1.38071 -1.11929,-2.5 -2.5,-2.5 z" opacity="1"/><path id="path4277-4" fill="#1d99f3" fill-opacity="1" stroke="none" stroke-linecap="round" d="m 395.35714,554.07647 c -1.38071,0 -2.5,1.11929 -2.5,2.5 0,1.38071 1.11929,2.5 2.5,2.5 1.38071,0 2.5,-1.11929 2.5,-2.5 0,-1.38071 -1.11929,-2.5 -2.5,-2.5 z" opacity="1"/></g></g></svg>