<svg xmlns="http://www.w3.org/2000/svg" xmlns:osb="http://www.openswatchbook.org/uri/2009/osb" xmlns:svg="http://www.w3.org/2000/svg" id="svg3869" width="22" height="22" version="1.1"><defs id="defs3871"><clipPath id="clipPath16" clipPathUnits="userSpaceOnUse"><path id="path18" d="m 0,706.465 1490.926,0 L 1490.926,0 0,0 0,706.465 Z"/></clipPath><clipPath id="clipPath24" clipPathUnits="userSpaceOnUse"><path id="path26" d="m 22.1953,686.117 1447.7347,0 0,-667.1902 -1447.7347,0 0,667.1902 z"/></clipPath><clipPath id="clipPath4534" clipPathUnits="userSpaceOnUse"><rect id="rect4536" width="32" height="32" x="8" y="8" fill="url(#linearGradient4538)" fill-opacity="1" stroke="none" ry="16"/></clipPath><clipPath id="clipPath4584" clipPathUnits="userSpaceOnUse"><rect id="rect4586" width="32" height="32" x="392.571" y="507.798" fill="url(#linearGradient4588)" fill-opacity="1" stroke="none" ry="16"/></clipPath><clipPath id="clipPath4550" clipPathUnits="userSpaceOnUse"><rect id="rect4552" width="32" height="32" x="392.571" y="507.798" fill="url(#linearGradient4554)" fill-opacity="1" stroke="none" ry="16"/></clipPath><clipPath id="clipPath4568" clipPathUnits="userSpaceOnUse"><rect id="rect4570" width="32" height="32" x="392.571" y="507.798" fill="url(#linearGradient4572)" fill-opacity="1" stroke="none" ry="16"/></clipPath><clipPath id="clipPath4528" clipPathUnits="userSpaceOnUse"><rect id="rect4530" width="32" height="32" x="8" y="8" fill="url(#linearGradient4532)" fill-opacity="1" stroke="none" ry="16"/></clipPath><clipPath id="clipPath4578" clipPathUnits="userSpaceOnUse"><rect id="rect4580" width="32" height="32" x="392.571" y="507.798" fill="url(#linearGradient4582)" fill-opacity="1" stroke="none" ry="16"/></clipPath><clipPath id="clipPath4562" clipPathUnits="userSpaceOnUse"><rect id="rect4564" width="32" height="32" x="392.571" y="507.798" fill="url(#linearGradient4566)" fill-opacity="1" stroke="none" ry="16"/></clipPath><clipPath id="clipPath4544" clipPathUnits="userSpaceOnUse"><rect id="rect4546" width="32" height="32" x="392.571" y="507.798" fill="url(#linearGradient4548)" fill-opacity="1" stroke="none" ry="16"/></clipPath><clipPath id="clipPath4390" clipPathUnits="userSpaceOnUse"><rect id="rect4392" width="32" height="32" x="8" y="8" fill="url(#linearGradient4532)" fill-opacity="1" stroke="none" ry="16"/></clipPath><clipPath id="clipPath4407" clipPathUnits="userSpaceOnUse"><rect id="rect4409" width="32" height="32" x="392.571" y="507.798" fill="url(#linearGradient4582)" fill-opacity="1" stroke="none" ry="16"/></clipPath><clipPath id="clipPath4424" clipPathUnits="userSpaceOnUse"><rect id="rect4426" width="32" height="32" x="392.571" y="507.798" fill="url(#linearGradient4566)" fill-opacity="1" stroke="none" ry="16"/></clipPath><clipPath id="clipPath4441" clipPathUnits="userSpaceOnUse"><rect id="rect4443" width="32" height="32" x="392.571" y="507.798" fill="url(#linearGradient4548)" fill-opacity="1" stroke="none" ry="16"/></clipPath><clipPath id="clipPath4528-1" clipPathUnits="userSpaceOnUse"><rect id="rect4530-7" width="32" height="32" x="8" y="8" fill="url(#linearGradient4532)" fill-opacity="1" stroke="none" ry="16"/></clipPath><clipPath id="clipPath4578-8" clipPathUnits="userSpaceOnUse"><rect id="rect4580-7" width="32" height="32" x="392.571" y="507.798" fill="url(#linearGradient4582)" fill-opacity="1" stroke="none" ry="16"/></clipPath><clipPath id="clipPath4562-8" clipPathUnits="userSpaceOnUse"><rect id="rect4564-8" width="32" height="32" x="392.571" y="507.798" fill="url(#linearGradient4566)" fill-opacity="1" stroke="none" ry="16"/></clipPath><clipPath id="clipPath4544-1" clipPathUnits="userSpaceOnUse"><rect id="rect4546-1" width="32" height="32" x="392.571" y="507.798" fill="url(#linearGradient4548)" fill-opacity="1" stroke="none" ry="16"/></clipPath><linearGradient id="linearGradient4207" osb:paint="gradient"><stop id="stop3371" offset="0" stop-color="#3498db" stop-opacity="1"/><stop id="stop3373" offset="1" stop-color="#3498db" stop-opacity="0"/></linearGradient><clipPath id="clipPath16-0" clipPathUnits="userSpaceOnUse"><path id="path18-2" d="m 0,706.465 1490.926,0 L 1490.926,0 0,0 0,706.465 Z"/></clipPath><clipPath id="clipPath24-0" clipPathUnits="userSpaceOnUse"><path id="path26-9" d="m 22.1953,686.117 1447.7347,0 0,-667.1902 -1447.7347,0 0,667.1902 z"/></clipPath><clipPath id="clipPath4534-0" clipPathUnits="userSpaceOnUse"><rect id="rect4536-1" width="32" height="32" x="8" y="8" fill="url(#linearGradient4538)" fill-opacity="1" stroke="none" ry="16"/></clipPath><clipPath id="clipPath4584-9" clipPathUnits="userSpaceOnUse"><rect id="rect4586-8" width="32" height="32" x="392.571" y="507.798" fill="url(#linearGradient4588)" fill-opacity="1" stroke="none" ry="16"/></clipPath><clipPath id="clipPath4550-8" clipPathUnits="userSpaceOnUse"><rect id="rect4552-1" width="32" height="32" x="392.571" y="507.798" fill="url(#linearGradient4554)" fill-opacity="1" stroke="none" ry="16"/></clipPath><clipPath id="clipPath4568-3" clipPathUnits="userSpaceOnUse"><rect id="rect4570-7" width="32" height="32" x="392.571" y="507.798" fill="url(#linearGradient4572)" fill-opacity="1" stroke="none" ry="16"/></clipPath><clipPath id="clipPath4528-9" clipPathUnits="userSpaceOnUse"><rect id="rect4530-4" width="32" height="32" x="8" y="8" fill="url(#linearGradient4532)" fill-opacity="1" stroke="none" ry="16"/></clipPath><clipPath id="clipPath4578-1" clipPathUnits="userSpaceOnUse"><rect id="rect4580-0" width="32" height="32" x="392.571" y="507.798" fill="url(#linearGradient4582)" fill-opacity="1" stroke="none" ry="16"/></clipPath><clipPath id="clipPath4562-0" clipPathUnits="userSpaceOnUse"><rect id="rect4564-0" width="32" height="32" x="392.571" y="507.798" fill="url(#linearGradient4566)" fill-opacity="1" stroke="none" ry="16"/></clipPath><clipPath id="clipPath4544-0" clipPathUnits="userSpaceOnUse"><rect id="rect4546-5" width="32" height="32" x="392.571" y="507.798" fill="url(#linearGradient4548)" fill-opacity="1" stroke="none" ry="16"/></clipPath><clipPath id="clipPath4390-5" clipPathUnits="userSpaceOnUse"><rect id="rect4392-5" width="32" height="32" x="8" y="8" fill="url(#linearGradient4532)" fill-opacity="1" stroke="none" ry="16"/></clipPath><clipPath id="clipPath4407-4" clipPathUnits="userSpaceOnUse"><rect id="rect4409-9" width="32" height="32" x="392.571" y="507.798" fill="url(#linearGradient4582)" fill-opacity="1" stroke="none" ry="16"/></clipPath><clipPath id="clipPath4424-1" clipPathUnits="userSpaceOnUse"><rect id="rect4426-7" width="32" height="32" x="392.571" y="507.798" fill="url(#linearGradient4566)" fill-opacity="1" stroke="none" ry="16"/></clipPath><clipPath id="clipPath4441-2" clipPathUnits="userSpaceOnUse"><rect id="rect4443-4" width="32" height="32" x="392.571" y="507.798" fill="url(#linearGradient4548)" fill-opacity="1" stroke="none" ry="16"/></clipPath><clipPath id="clipPath4528-1-8" clipPathUnits="userSpaceOnUse"><rect id="rect4530-7-2" width="32" height="32" x="8" y="8" fill="url(#linearGradient4532)" fill-opacity="1" stroke="none" ry="16"/></clipPath><clipPath id="clipPath4578-8-3" clipPathUnits="userSpaceOnUse"><rect id="rect4580-7-1" width="32" height="32" x="392.571" y="507.798" fill="url(#linearGradient4582)" fill-opacity="1" stroke="none" ry="16"/></clipPath><clipPath id="clipPath4562-8-4" clipPathUnits="userSpaceOnUse"><rect id="rect4564-8-5" width="32" height="32" x="392.571" y="507.798" fill="url(#linearGradient4566)" fill-opacity="1" stroke="none" ry="16"/></clipPath><clipPath id="clipPath4544-1-0" clipPathUnits="userSpaceOnUse"><rect id="rect4546-1-4" width="32" height="32" x="392.571" y="507.798" fill="url(#linearGradient4548)" fill-opacity="1" stroke="none" ry="16"/></clipPath><clipPath id="clipPath16-9" clipPathUnits="userSpaceOnUse"><path id="path18-23" d="m 0,706.465 1490.926,0 L 1490.926,0 0,0 0,706.465 Z"/></clipPath><clipPath id="clipPath24-3" clipPathUnits="userSpaceOnUse"><path id="path26-3" d="m 22.1953,686.117 1447.7347,0 0,-667.1902 -1447.7347,0 0,667.1902 z"/></clipPath><clipPath id="clipPath4534-1" clipPathUnits="userSpaceOnUse"><rect id="rect4536-8" width="32" height="32" x="8" y="8" fill="url(#linearGradient4538)" fill-opacity="1" stroke="none" ry="16"/></clipPath><clipPath id="clipPath4584-5" clipPathUnits="userSpaceOnUse"><rect id="rect4586-3" width="32" height="32" x="392.571" y="507.798" fill="url(#linearGradient4588)" fill-opacity="1" stroke="none" ry="16"/></clipPath><clipPath id="clipPath4550-7" clipPathUnits="userSpaceOnUse"><rect id="rect4552-10" width="32" height="32" x="392.571" y="507.798" fill="url(#linearGradient4554)" fill-opacity="1" stroke="none" ry="16"/></clipPath><clipPath id="clipPath4568-2" clipPathUnits="userSpaceOnUse"><rect id="rect4570-6" width="32" height="32" x="392.571" y="507.798" fill="url(#linearGradient4572)" fill-opacity="1" stroke="none" ry="16"/></clipPath><clipPath id="clipPath4528-4" clipPathUnits="userSpaceOnUse"><rect id="rect4530-0" width="32" height="32" x="8" y="8" fill="url(#linearGradient4532)" fill-opacity="1" stroke="none" ry="16"/></clipPath><clipPath id="clipPath4578-0" clipPathUnits="userSpaceOnUse"><rect id="rect4580-4" width="32" height="32" x="392.571" y="507.798" fill="url(#linearGradient4582)" fill-opacity="1" stroke="none" ry="16"/></clipPath><clipPath id="clipPath4562-7" clipPathUnits="userSpaceOnUse"><rect id="rect4564-2" width="32" height="32" x="392.571" y="507.798" fill="url(#linearGradient4566)" fill-opacity="1" stroke="none" ry="16"/></clipPath><clipPath id="clipPath4544-4" clipPathUnits="userSpaceOnUse"><rect id="rect4546-19" width="32" height="32" x="392.571" y="507.798" fill="url(#linearGradient4548)" fill-opacity="1" stroke="none" ry="16"/></clipPath><clipPath id="clipPath4390-7" clipPathUnits="userSpaceOnUse"><rect id="rect4392-7" width="32" height="32" x="8" y="8" fill="url(#linearGradient4532)" fill-opacity="1" stroke="none" ry="16"/></clipPath><clipPath id="clipPath4407-8" clipPathUnits="userSpaceOnUse"><rect id="rect4409-99" width="32" height="32" x="392.571" y="507.798" fill="url(#linearGradient4582)" fill-opacity="1" stroke="none" ry="16"/></clipPath><clipPath id="clipPath4424-0" clipPathUnits="userSpaceOnUse"><rect id="rect4426-5" width="32" height="32" x="392.571" y="507.798" fill="url(#linearGradient4566)" fill-opacity="1" stroke="none" ry="16"/></clipPath><clipPath id="clipPath4441-9" clipPathUnits="userSpaceOnUse"><rect id="rect4443-9" width="32" height="32" x="392.571" y="507.798" fill="url(#linearGradient4548)" fill-opacity="1" stroke="none" ry="16"/></clipPath><clipPath id="clipPath4528-1-9" clipPathUnits="userSpaceOnUse"><rect id="rect4530-7-4" width="32" height="32" x="8" y="8" fill="url(#linearGradient4532)" fill-opacity="1" stroke="none" ry="16"/></clipPath><clipPath id="clipPath4578-8-4" clipPathUnits="userSpaceOnUse"><rect id="rect4580-7-4" width="32" height="32" x="392.571" y="507.798" fill="url(#linearGradient4582)" fill-opacity="1" stroke="none" ry="16"/></clipPath><clipPath id="clipPath4562-8-5" clipPathUnits="userSpaceOnUse"><rect id="rect4564-8-4" width="32" height="32" x="392.571" y="507.798" fill="url(#linearGradient4566)" fill-opacity="1" stroke="none" ry="16"/></clipPath><clipPath id="clipPath4544-1-9" clipPathUnits="userSpaceOnUse"><rect id="rect4546-1-8" width="32" height="32" x="392.571" y="507.798" fill="url(#linearGradient4548)" fill-opacity="1" stroke="none" ry="16"/></clipPath></defs><metadata id="metadata3874"/><g id="layer1" transform="translate(-326,-534.36)"><g id="layer1-43" transform="translate(-19,0.9978)"><g id="layer1-9-5" transform="translate(-51.85714,-6.71427)"><path id="path8" fill="#4d4d4d" fill-opacity="1" d="m 407.85714,549.37647 c -0.414,0 -0.75,0.336 -0.75,0.75 0,0.414 0.336,0.75 0.75,0.75 0.414,0 0.75,-0.33562 0.75,-0.75 0,-0.41438 -0.33562,-0.75 -0.75,-0.75 z m 0,2.25 c -0.414,0 -0.75,0.33562 -0.75,0.75 l 0,2.25 c 0,0.414 0.336,0.75 0.75,0.75 0.414,0 0.75,-0.336 0.75,-0.75 l 0,-2.25 c 0,-0.414 -0.33562,-0.75 -0.75,-0.75 z m 5.4,-7.55 2,3 2,-3 z m -6.97227,4.4 c -1.06609,0 -1.51367,0.35225 -1.51367,1.25391 l 0,1.22265 c 0,0.55691 -0.0205,1.20117 -0.60937,1.20117 l -0.30469,0 0,0.64454 0.30469,0 c 0.58889,0 0.60937,0.64426 0.60937,1.20117 l 0,1.22265 c 0,0.90166 0.44758,1.25391 1.51367,1.25391 l 0,-0.5918 c -0.71072,0 -0.7207,-0.23916 -0.7207,-1.10547 l 0,-1.00781 c 0,-0.41546 -0.12361,-1.03466 -0.72265,-1.29101 0.59904,-0.25635 0.72265,-0.8736 0.72265,-1.28907 l 0,-1.01757 c 0,-0.86631 0.01,-1.10547 0.7207,-1.10547 z m 3.13672,0 0,0.5918 c 0.71073,0 0.72852,0.23916 0.72852,1.10547 l 0,1.01757 c 0,0.41547 0.12361,1.03272 0.72266,1.28907 -0.59905,0.25635 -0.72266,0.87555 -0.72266,1.29101 l 0,1.00781 c 0,0.86631 -0.0177,1.10547 -0.72852,1.10547 l 0,0.5918 c 1.0661,0 1.52148,-0.35225 1.52149,-1.25391 l 0,-1.22265 c 0,-0.55691 0.0404,-1.20117 0.61914,-1.20117 l 0.29492,0 0,-0.64454 -0.29492,0 c -0.57874,0 -0.61915,-0.64426 -0.61914,-1.20117 l 0,-1.22265 c 0,-0.90166 -0.45539,-1.25391 -1.52149,-1.25391 z m -11.41349,-5.4 19.69808,0 c 0.41713,0 0.75294,0.33582 0.75294,0.75294 l 0,14.49412 c 0,0.41713 -0.33581,0.75294 -0.75294,0.75294 l -19.69808,0 c -0.41713,0 -0.75294,-0.33581 -0.75294,-0.75294 l 0,-14.49412 c 0,-0.41712 0.33581,-0.75294 0.75294,-0.75294 z"/></g></g></g></svg>