<svg xmlns="http://www.w3.org/2000/svg" xmlns:osb="http://www.openswatchbook.org/uri/2009/osb" xmlns:svg="http://www.w3.org/2000/svg" xmlns:xlink="http://www.w3.org/1999/xlink" id="svg2" width="22" height="22" version="1.1" viewBox="0 0 22 22"><defs id="defs4"><linearGradient id="linearGradient4271"><stop id="stop4273" offset="0" stop-color="#2a2c2f" stop-opacity="1"/><stop id="stop4275" offset="1" stop-color="#424649" stop-opacity="1"/></linearGradient><clipPath id="clipPath4528" clipPathUnits="userSpaceOnUse"><rect id="rect4530" width="32" height="32" x="8" y="8" fill="url(#linearGradient4532)" fill-opacity="1" stroke="none" stroke-dasharray="none" stroke-miterlimit="4" stroke-opacity=".55" stroke-width="2.8" opacity="1" ry="16"/></clipPath><linearGradient id="linearGradient4532" x1="409.571" x2="409.571" y1="543.798" y2="503.798" gradientTransform="matrix(0.79999996,0,0,0.79999996,-302.85712,-395.03837)" gradientUnits="userSpaceOnUse" xlink:href="#linearGradient4271"/><clipPath id="clipPath4534" clipPathUnits="userSpaceOnUse"><rect id="rect4536" width="32" height="32" x="8" y="8" fill="url(#linearGradient4532)" fill-opacity="1" stroke="none" stroke-dasharray="none" stroke-miterlimit="4" stroke-opacity=".55" stroke-width="2.8" opacity="1" ry="16"/></clipPath><clipPath id="clipPath4544" clipPathUnits="userSpaceOnUse"><rect id="rect4546" width="32" height="32" x="392.571" y="507.798" fill="url(#linearGradient4548)" fill-opacity="1" stroke="none" stroke-dasharray="none" stroke-miterlimit="4" stroke-opacity=".55" stroke-width="2.8" opacity="1" ry="16"/></clipPath><linearGradient id="linearGradient4548" x1="409.571" x2="409.571" y1="543.798" y2="503.798" gradientTransform="matrix(0.79999995,0,0,0.79999995,81.714312,104.75963)" gradientUnits="userSpaceOnUse" xlink:href="#linearGradient4271"/><clipPath id="clipPath4550" clipPathUnits="userSpaceOnUse"><rect id="rect4552" width="32" height="32" x="392.571" y="507.798" fill="url(#linearGradient4548)" fill-opacity="1" stroke="none" stroke-dasharray="none" stroke-miterlimit="4" stroke-opacity=".55" stroke-width="2.8" opacity="1" ry="16"/></clipPath><clipPath id="clipPath4562" clipPathUnits="userSpaceOnUse"><rect id="rect4564" width="32" height="32" x="392.571" y="507.798" fill="url(#linearGradient4548)" fill-opacity="1" stroke="none" stroke-dasharray="none" stroke-miterlimit="4" stroke-opacity=".55" stroke-width="2.8" opacity="1" ry="16"/></clipPath><clipPath id="clipPath4568" clipPathUnits="userSpaceOnUse"><rect id="rect4570" width="32" height="32" x="392.571" y="507.798" fill="url(#linearGradient4548)" fill-opacity="1" stroke="none" stroke-dasharray="none" stroke-miterlimit="4" stroke-opacity=".55" stroke-width="2.8" opacity="1" ry="16"/></clipPath><clipPath id="clipPath4578" clipPathUnits="userSpaceOnUse"><rect id="rect4580" width="32" height="32" x="392.571" y="507.798" fill="url(#linearGradient4548)" fill-opacity="1" stroke="none" stroke-dasharray="none" stroke-miterlimit="4" stroke-opacity=".55" stroke-width="2.8" opacity="1" ry="16"/></clipPath><clipPath id="clipPath4584" clipPathUnits="userSpaceOnUse"><rect id="rect4586" width="32" height="32" x="392.571" y="507.798" fill="url(#linearGradient4548)" fill-opacity="1" stroke="none" stroke-dasharray="none" stroke-miterlimit="4" stroke-opacity=".55" stroke-width="2.8" opacity="1" ry="16"/></clipPath><clipPath id="clipPath4528-1" clipPathUnits="userSpaceOnUse"><rect id="rect4530-7" width="32" height="32" x="8" y="8" fill="url(#linearGradient4532)" fill-opacity="1" stroke="none" stroke-dasharray="none" stroke-miterlimit="4" stroke-opacity=".55" stroke-width="2.8" opacity="1" ry="16"/></clipPath><clipPath id="clipPath4534-1" clipPathUnits="userSpaceOnUse"><rect id="rect4536-8" width="32" height="32" x="8" y="8" fill="url(#linearGradient4532)" fill-opacity="1" stroke="none" stroke-dasharray="none" stroke-miterlimit="4" stroke-opacity=".55" stroke-width="2.8" opacity="1" ry="16"/></clipPath><clipPath id="clipPath4544-1" clipPathUnits="userSpaceOnUse"><rect id="rect4546-1" width="32" height="32" x="392.571" y="507.798" fill="url(#linearGradient4548)" fill-opacity="1" stroke="none" stroke-dasharray="none" stroke-miterlimit="4" stroke-opacity=".55" stroke-width="2.8" opacity="1" ry="16"/></clipPath><clipPath id="clipPath4550-4" clipPathUnits="userSpaceOnUse"><rect id="rect4552-1" width="32" height="32" x="392.571" y="507.798" fill="url(#linearGradient4548)" fill-opacity="1" stroke="none" stroke-dasharray="none" stroke-miterlimit="4" stroke-opacity=".55" stroke-width="2.8" opacity="1" ry="16"/></clipPath><clipPath id="clipPath4562-8" clipPathUnits="userSpaceOnUse"><rect id="rect4564-8" width="32" height="32" x="392.571" y="507.798" fill="url(#linearGradient4548)" fill-opacity="1" stroke="none" stroke-dasharray="none" stroke-miterlimit="4" stroke-opacity=".55" stroke-width="2.8" opacity="1" ry="16"/></clipPath><clipPath id="clipPath4568-4" clipPathUnits="userSpaceOnUse"><rect id="rect4570-1" width="32" height="32" x="392.571" y="507.798" fill="url(#linearGradient4548)" fill-opacity="1" stroke="none" stroke-dasharray="none" stroke-miterlimit="4" stroke-opacity=".55" stroke-width="2.8" opacity="1" ry="16"/></clipPath><clipPath id="clipPath4578-8" clipPathUnits="userSpaceOnUse"><rect id="rect4580-7" width="32" height="32" x="392.571" y="507.798" fill="url(#linearGradient4548)" fill-opacity="1" stroke="none" stroke-dasharray="none" stroke-miterlimit="4" stroke-opacity=".55" stroke-width="2.8" opacity="1" ry="16"/></clipPath><clipPath id="clipPath4584-9" clipPathUnits="userSpaceOnUse"><rect id="rect4586-2" width="32" height="32" x="392.571" y="507.798" fill="url(#linearGradient4548)" fill-opacity="1" stroke="none" stroke-dasharray="none" stroke-miterlimit="4" stroke-opacity=".55" stroke-width="2.8" opacity="1" ry="16"/></clipPath><linearGradient id="linearGradient4227"><stop id="stop4229" offset="0" stop-color="#2e3436" stop-opacity="1"/><stop id="stop4231" offset="1" stop-color="#555753" stop-opacity="1"/></linearGradient><linearGradient id="linearGradient5263"><stop id="stop5265" offset="0" stop-color="#a0d5ff" stop-opacity="1"/><stop id="stop5267" offset="1" stop-color="#a0d5ff" stop-opacity="1"/></linearGradient><linearGradient id="linearGradient4149" x1="400.571" x2="400.571" y1="545.798" y2="517.798" gradientTransform="matrix(0.92857108,0,0,0.92857057,28.612354,37.986142)" gradientUnits="userSpaceOnUse" xlink:href="#linearGradient4143"/><linearGradient id="linearGradient4143"><stop id="stop4145" offset="0" stop-color="#197cf1" stop-opacity="1"/><stop id="stop4147" offset="1" stop-color="#20bcfa" stop-opacity="1"/></linearGradient><linearGradient id="linearGradient4290"><stop id="stop4292" offset="0" stop-color="#7cbaf8" stop-opacity="1"/><stop id="stop4294" offset="1" stop-color="#f4fcff" stop-opacity="1"/></linearGradient><linearGradient id="linearGradient3077" x1="16" x2="16" y1="30" y2="2" gradientTransform="matrix(1.3793103,0,0,1.3793103,1.2413794,1005.6035)" gradientUnits="userSpaceOnUse" xlink:href="#linearGradient4290"/><linearGradient id="linearGradient3083" x1="400.571" x2="400.571" y1="545.798" y2="517.798" gradientTransform="matrix(1.2807877,0,0,1.280787,-450.11598,346.31133)" gradientUnits="userSpaceOnUse" xlink:href="#linearGradient4143"/><linearGradient id="linearGradient3870" x1="16" x2="16" y1="30" y2="2" gradientTransform="matrix(1.3793103,0,0,1.3793103,-18.758621,1005.6035)" gradientUnits="userSpaceOnUse" xlink:href="#linearGradient4290"/><linearGradient id="linearGradient4207" osb:paint="gradient"><stop id="stop3371" offset="0" stop-color="#3498db" stop-opacity="1"/><stop id="stop3373" offset="1" stop-color="#3498db" stop-opacity="0"/></linearGradient><linearGradient id="linearGradient5263-0"><stop id="stop5265-3" offset="0" stop-color="#a0d5ff" stop-opacity="1"/><stop id="stop5267-4" offset="1" stop-color="#fff" stop-opacity="1"/></linearGradient><linearGradient id="linearGradient4392" x1="343.771" x2="343.771" y1="506.998" y2="496.998" gradientTransform="matrix(0.49999997,0,0,0.49999997,224.5853,298.49919)" gradientUnits="userSpaceOnUse" xlink:href="#linearGradient4143"/><linearGradient id="linearGradient4394" x1="343.771" x2="343.771" y1="506.998" y2="496.998" gradientTransform="matrix(0.49999997,0,0,0.49999997,230.38531,298.4992)" gradientUnits="userSpaceOnUse" xlink:href="#linearGradient4143"/><linearGradient id="linearGradient4298"><stop id="stop4300" offset="0" stop-color="#fd415a" stop-opacity="1"/><stop id="stop4302" offset="1" stop-color="#fc593d" stop-opacity="1"/></linearGradient><linearGradient id="linearGradient4491"><stop id="stop4493" offset="0" stop-color="#fd3865" stop-opacity="1"/><stop id="stop4495" offset="1" stop-color="#fc5e37" stop-opacity="1"/></linearGradient><linearGradient id="linearGradient4290-1"><stop id="stop4292-9" offset="0" stop-color="#a5a5a5" stop-opacity="1"/><stop id="stop4294-1" offset="1" stop-color="#f5f2f5" stop-opacity="1"/></linearGradient></defs><metadata id="metadata7"/><g id="layer1" transform="translate(0,-1030.3622)"><g id="layer1-6" fill="#4d4d4d" fill-opacity="1" transform="matrix(0.44174919,0,0,0.44174919,-169.5475,809.86125)"><g id="g4403" fill="#4d4d4d" fill-opacity="1" transform="translate(51.385479,-6.0099446)"><g id="layer1-1" fill="#4d4d4d" fill-opacity="1" transform="translate(-117.48432,12.127178)"><g id="layer1-2" fill="#4d4d4d" fill-opacity="1" transform="translate(-44.851169,1.8910219)"><g id="g4256" fill="#4d4d4d" fill-opacity="1" transform="matrix(0.90595131,0,0,0.90595131,131.92314,54.175376)"><g id="g4247" fill="#4d4d4d" fill-opacity="1" transform="matrix(1.036658,0,0,1.036658,-15.633529,-19.192846)"><g id="terminal7" fill="#4d4d4d" fill-opacity="1" stroke="none" transform="matrix(0.11488639,0,0,0.10931174,407.6586,498.26363)"><g id="g1270" fill="#4d4d4d" fill-opacity="1" stroke="none"><path id="path1274" fill="#4d4d4d" fill-opacity="1" stroke="none" stroke-dasharray="none" stroke-miterlimit="4" stroke-opacity="1" stroke-width="6.453" d="M 12.248244,2.638094 C 11.548861,1.9387107 10.743861,1.588375 9.8345343,1.588375 c -0.9093271,0 -1.7130383,0.3503357 -2.4124216,1.049719 L 2.174806,7.8854007 C 1.4754227,8.584784 1.126375,9.3884952 1.126375,10.29911 c 0,0.910615 0.3490477,1.714327 1.048431,2.41371 L 43.416525,53.953251 2.174806,95.194969 c -0.6993833,0.699384 -1.048431,1.504383 -1.048431,2.412422 0,0.910615 0.3490477,1.714326 1.048431,2.413709 l 5.2473067,5.24602 c 0.6993833,0.70067 1.5030945,1.04843 2.4124216,1.04843 0.9093267,0 1.7143267,-0.34905 2.4137097,-1.04843 L 61.149691,56.36696 c 0.699383,-0.699383 1.048431,-1.50567 1.048431,-2.414997 0,-0.909327 -0.349048,-1.714327 -1.048431,-2.41371 L 12.248244,2.638094 l 0,0 z M 173.43227,101.91059 c -0.62855,-0.62983 -1.43355,-0.9441 -2.41243,-0.9441 l -100.740814,0 c -0.978879,0 -1.783878,0.31427 -2.41371,0.9441 -0.628543,0.62984 -0.942815,1.43355 -0.942815,2.41371 l 0,6.71692 c 0,0.97888 0.314272,1.78388 0.942815,2.41242 0.629832,0.62854 1.434831,0.9441 2.41371,0.9441 l 100.740814,0 c 0.97888,0 1.78388,-0.31556 2.41243,-0.9441 0.62854,-0.62854 0.94281,-1.43354 0.94281,-2.41242 l 0,-6.71692 c 0.001,-0.98016 -0.31298,-1.78387 -0.94281,-2.41371 l 0,0 z m -203.575614,-168.153612 413.275064,0 c 8.7516,0 15.79708,7.404786 15.79708,16.6027 l 0,319.601532 c 0,9.19783 -7.04548,16.60261 -15.79708,16.60261 l -413.275064,0 c -8.751516,0 -15.796998,-7.40478 -15.796998,-16.60261 l 0,-319.601532 c 0,-9.197914 7.045482,-16.6027 15.796998,-16.6027 z"/></g></g></g></g></g></g></g></g></g></svg>