<svg xmlns="http://www.w3.org/2000/svg" xmlns:svg="http://www.w3.org/2000/svg" id="svg3869" width="22" height="22" version="1.1"><defs id="defs3871"><linearGradient id="linearGradient4290-48"><stop id="stop4292-0" offset="0" stop-color="#a5a5a5" stop-opacity="1"/><stop id="stop4294-0" offset="1" stop-color="#f5f2f5" stop-opacity="1"/></linearGradient></defs><metadata id="metadata3874"/><g id="layer1" transform="translate(-326,-534.3622)"><g id="layer1-4" transform="translate(-226.72253,-49.75706)"><path id="rect4150" fill="#4d4d4d" fill-opacity="1" stroke="none" stroke-dasharray="none" stroke-miterlimit="4" stroke-opacity="1" stroke-width=".1" d="m 555.72253,587.11926 0,2 0,1 3,0 0,-1 0,-2 -2,0 -1,0 z m 13,0 0,1 0,1 0,1 1,0 1,0 1,0 0,-1 0,-1 0,-1 -3,0 z m -12,1 1,0 0,1 -1,0 0,-1 z m 13,0 1,0 0,1 -1,0 0,-1 z m -10,1 0,1 2,0 0,-1 -2,0 z m 3,0 0,1 2,0 0,-1 -2,0 z m 3,0 0,1 2,0 0,-1 -2,0 z m -8,2 0,2 1,0 0,-2 -1,0 z m 11,0 0,2 1,0 0,-2 -1,0 z m -11,3 0,2 1,0 0,-2 -1,0 z m 5,1 0,6 1,0 4,0 1,0 0,-1 0,-4 0,-1 -1,0 -4,0 -1,0 z m 1,1 4,0 0,4 -4,0 0,-4 z m -6,1 0,2 1,0 0,-2 -1,0 z m 13,2 0,3 -3,0 0,1 4,0 0,-1 0,-3 -1,0 z m -15,1 0,1 0,2 1,0 1,0 1,0 0,-3 -3,0 z m 4,0 0,1 2,0 0,-1 -2,0 z m -3,1 1,0 0,1 -1,0 0,-1 z" opacity="1"/></g></g></svg>