<svg xmlns="http://www.w3.org/2000/svg" xmlns:svg="http://www.w3.org/2000/svg" id="svg3049" width="22" height="22" version="1.1"><metadata id="metadata3054"/><g id="layer1" transform="translate(-421.71429,-525.79074)"><g id="g4142" transform="matrix(1.3333333,0,0,1.3333333,-140.23808,-182.93023)"><path id="rect4313-2-9" fill="#4d4d4d" fill-opacity="1" fill-rule="evenodd" stroke="none" stroke-dasharray="none" stroke-miterlimit="4" stroke-width="2" d="m 423.71429,540.79074 0,5 5,0 0,-5 z m 1,1 3,0 0,3 -3,0 z"/><path id="rect4313-2-9-7" fill="#4d4d4d" fill-opacity="1" fill-rule="evenodd" stroke="none" stroke-dasharray="none" stroke-miterlimit="4" stroke-width="2" d="m 423.71429,533.79074 0,5 5,0 0,-5 z m 1,1 3,0 0,3 -3,0 z"/><path id="rect4313-2-9-4" fill="#4d4d4d" fill-opacity="1" fill-rule="evenodd" stroke="none" stroke-dasharray="none" stroke-miterlimit="4" stroke-width="2" d="m 430.71429,533.79074 0,5 5,0 0,-5 z m 1,1 3,0 0,3 -3,0 z"/><path id="rect4399" fill="#1d99f3" fill-opacity="1" fill-rule="evenodd" stroke="none" stroke-dasharray="none" stroke-miterlimit="4" stroke-width="2" d="M 11.5,8 A 1.5,1.5 0 0 0 10,9.5 l 0,1.5 -1,0 0,3 5,0 0,-3 -1,0 0,-1.5 A 1.5,1.5 0 0 0 11.5,8 Z m 0,1 A 0.5,0.5 0 0 1 12,9.5 l 0,1.5 -1,0 0,-1.5 A 0.5,0.5 0 0 1 11.5,9 Z" transform="translate(421.71429,531.79074)"/></g></g></svg>