<svg xmlns="http://www.w3.org/2000/svg" xmlns:svg="http://www.w3.org/2000/svg" id="svg3869" width="22" height="22" version="1.1"><metadata id="metadata3874"/><g id="layer1" transform="translate(-326,-534.3622)"><g id="g4206" transform="matrix(1.0666682,0,0,1.0666682,-22.949315,-35.824992)"><g id="layer1-4" fill="#4d4d4d" fill-opacity="1" transform="translate(326,-495.99996)"><g id="layer1-5" fill="#4d4d4d" fill-opacity="1" transform="translate(-551.28571,422.71427)"><path id="path3083" fill="#4d4d4d" fill-opacity="1" fill-rule="nonzero" stroke="none" stroke-width="2" d="m 569.28571,610.64791 c -0.55229,0 -1,0.44771 -1,1 0,0.55228 0.44771,1 1,1 0.55228,0 1,-0.44772 1,-1 0,-0.55229 -0.44772,-1 -1,-1 z m 0,4 c -0.55229,0 -1,0.44771 -1,1 0,0.55228 0.44771,1 1,1 0.55228,0 1,-0.44772 1,-1 0,-0.55229 -0.44772,-1 -1,-1 z m 0,4 c -0.55229,0 -1,0.44771 -1,1 0,0.55228 0.44771,1 1,1 0.55228,0 1,-0.44772 1,-1 0,-0.55229 -0.44772,-1 -1,-1 z" color="#000" display="inline" enable-background="accumulate" overflow="visible" visibility="visible" style="marker:none"/></g></g><g id="text4205" fill="#4d4d4d" fill-opacity="1" stroke="none" stroke-linecap="butt" stroke-linejoin="miter" stroke-opacity="1" stroke-width="1" font-family="sans-serif" font-size="13.75" font-style="normal" font-weight="normal" letter-spacing="0" transform="matrix(1.4220416,0,0,1.4220416,-114.00762,-224.58755)" word-spacing="0" style="line-height:125%"><path style="-inkscape-font-specification:'Product Sans'" id="path4210" fill="#4d4d4d" fill-opacity="1" d="m 312.165,546.36218 3.7125,-9.845 1.43,0 3.7125,9.845 -1.4025,0 -0.94875,-2.6675 -4.13875,0 -0.9625,2.6675 -1.4025,0 z m 2.79125,-3.85 3.2725,0 -1.60875,-4.44125 -0.055,0 -1.60875,4.44125 z" font-family="Product Sans" font-stretch="normal" font-style="normal" font-variant="normal" font-weight="normal"/></g></g></g></svg>