<svg xmlns="http://www.w3.org/2000/svg" xmlns:svg="http://www.w3.org/2000/svg" id="svg2" width="22" height="22" version="1.1" viewBox="0 0 22 22"><metadata id="metadata7"/><g id="layer1" transform="translate(1,-1031.3622)"><g id="layer1-8" transform="translate(-379.85714,491.28573)"><path id="rect4109-5" fill="#4d4d4d" fill-opacity="1" stroke="none" d="m 397.85714,547.07647 -2,-3 -2,3 4,0 z m 0,2 -4,0 2,3 2,-3 z m -3,-6 -3,0 -6,0 -4,0 0,1 4,0 0,6 7,0 0,-6 2,0 0,-1 z m 0,9 -3,0 -8,0 -2,0 0,1 2,0 0,6 9,0 0,-6 2,0 0,-1 z m -3,-8 0,5 -5,0 0,-5 5,0 z m 0,9 0,5 -7,0 0,-5 7,0 z" opacity="1"/></g></g></svg>