<svg xmlns="http://www.w3.org/2000/svg" xmlns:svg="http://www.w3.org/2000/svg" id="svg2" width="22" height="22" version="1.1" viewBox="0 0 22 22"><metadata id="metadata7"/><g id="layer1" transform="translate(1,-1031.3622)"><g id="layer1-1" transform="translate(-379.85714,490.78573)"><path id="rect3157" fill="#4d4d4d" fill-opacity="1" stroke="none" d="m 14,4 0,4 5,0 0,-4 -5,0 z" transform="translate(378.85714,540.07647)"/><path id="rect3159" fill="#4d4d4d" fill-opacity="1" stroke="none" d="m 14,15 0,4 5,0 0,-4 -5,0 z" transform="translate(378.85714,540.07647)"/><path id="rect3161" fill="#4d4d4d" fill-opacity="1" stroke="none" d="M 3,4 3,19 7,19 7,18 7,5 7,4 3,4 Z" transform="translate(378.85714,540.07647)"/><rect id="rect4076" width="5" height="1" x="386.857" y="545.076" fill="#4d4d4d" fill-opacity="1" stroke="none"/><rect id="rect4078" width="5" height="1" x="8" y="17" fill="#4d4d4d" fill-opacity="1" stroke="none" transform="translate(378.85714,540.07647)"/><rect id="rect4078-5" width="5" height="1" x="549.076" y="-395.857" fill="#4d4d4d" fill-opacity="1" stroke="none" transform="matrix(0,1,-1,0,0,0)"/></g></g></svg>