<svg xmlns="http://www.w3.org/2000/svg" xmlns:svg="http://www.w3.org/2000/svg" id="svg2" width="22" height="22" version="1.1" viewBox="0 0 22 22"><metadata id="metadata7"/><g id="layer1" transform="translate(1,-1031.3622)"><g id="layer1-7" transform="translate(-379.85714,490.78573)"><path id="rect3157" fill="#4d4d4d" fill-opacity="1" stroke="none" d="m 396.85714,544.07647 0,4 -5,0 0,-4 z"/><path id="rect3159" fill="#4d4d4d" fill-opacity="1" stroke="none" d="m 387.85714,555.07647 0,4 5,0 0,-4 -5,0 z"/><path id="rect3159-0" fill="#4d4d4d" fill-opacity="1" stroke="none" d="m 392.85714,549.07647 0,4 5,0 0,-4 -5,0 z"/><path id="rect3159-9" fill="#4d4d4d" fill-opacity="1" stroke="none" d="m 381.85715,555.07647 0,4 5,0 0,-4 -5,0 z"/><path id="rect3159-1" fill="#4d4d4d" fill-opacity="1" stroke="none" d="m 381.85714,545.07647 0,4 5,0 0,-4 -5,0 z"/><path id="rect3159-14" fill="#4d4d4d" fill-opacity="1" stroke="none" d="m 386.85714,550.07647 0,4 5,0 0,-4 -5,0 z"/></g></g></svg>