<svg xmlns="http://www.w3.org/2000/svg" xmlns:svg="http://www.w3.org/2000/svg" id="svg2" width="22" height="22" version="1.1" viewBox="0 0 22 22"><metadata id="metadata7"/><g id="layer1" transform="translate(1,-1031.3622)"><g id="g4151" transform="translate(0.21389353,0.99300265)"><path id="rect4109" fill="#4d4d4d" fill-opacity="1" stroke="none" d="m 5,1037.3622 -2,3 4,0 -2,-3 z" opacity="1"/><path id="rect4109-0" fill="#4d4d4d" fill-opacity="1" stroke="none" d="m 3,1046.3622 2,3 2,-3 -4,0 z" opacity="1"/><g id="layer1-3" transform="matrix(0.78504326,0,0,0.78504326,-14.36874,221.87536)"><g id="text4148" fill="#4d4d4d" fill-opacity="1" stroke="none" stroke-linecap="butt" stroke-linejoin="miter" stroke-opacity="1" stroke-width="1" font-family="sans-serif" font-size="13.75" font-style="normal" font-weight="normal" letter-spacing="0" transform="matrix(1.1162932,0,0,1.1162932,17.382039,-117.48706)" word-spacing="0" style="line-height:125%"><g id="g4148" transform="matrix(1.0294196,0,0,1.0294196,0.37112792,-30.753227)"><path style="-inkscape-font-specification:'Product Sans'" id="path4153" fill="#4d4d4d" fill-opacity="1" d="m 14.05779,1049.3909 q -1.0725,0 -1.80125,-0.6188 -0.715,-0.6187 -0.715,-1.6362 0,-1.1 0.8525,-1.7188 0.8525,-0.6325 2.10375,-0.6325 1.11375,0 1.82875,0.4125 l 0,-0.1925 q 0,-0.7425 -0.50875,-1.1825 -0.50875,-0.4537 -1.25125,-0.4537 -0.55,0 -1.00375,0.2612 -0.44,0.2613 -0.605,0.715 l -1.155,-0.495 q 0.23375,-0.605 0.92125,-1.1137 0.6875,-0.5225 1.815,-0.5225 1.2925,0 2.145,0.7562 0.8525,0.7563 0.8525,2.1313 l 0,4.07 -1.21,0 0,-0.935 -0.055,0 q -0.75625,1.155 -2.21375,1.155 z m 0.20625,-1.155 q 0.78375,0 1.41625,-0.5775 0.64625,-0.5913 0.64625,-1.3888 -0.53625,-0.44 -1.60875,-0.44 -0.92125,0 -1.38875,0.3988 -0.4675,0.3987 -0.4675,0.935 0,0.495 0.42625,0.7837 0.42625,0.2888 0.97625,0.2888 z" font-family="Product Sans" font-stretch="normal" font-style="normal" font-variant="normal" font-weight="normal"/><path style="-inkscape-font-specification:'Product Sans'" id="path4155" fill="#4d4d4d" fill-opacity="1" d="m 14.590069,1041.3624 -1.30625,0 1.5675,-3.3963 -2.7775,-6.3112 1.375,0 2.0075,4.84 0.0275,0 1.9525,-4.84 1.375,0 -4.22125,9.7075 z" font-family="Product Sans" font-stretch="normal" font-style="normal" font-variant="normal" font-weight="normal"/></g></g></g></g></g></svg>