<svg xmlns="http://www.w3.org/2000/svg" xmlns:svg="http://www.w3.org/2000/svg" id="svg2" width="22" height="22" version="1.1" viewBox="0 0 22 22"><metadata id="metadata7"/><g id="layer1" transform="translate(1,-1031.3622)"><g id="layer1-7" transform="translate(-379.85714,491.28573)"><path id="rect4109" fill="#4d4d4d" fill-opacity="1" stroke="none" d="M 6,3 6,7 9,5 6,3 Z m 10,0 -3,2 3,2 0,-4 z m -7,3 0,2 -6,0 0,7 6,0 0,4 1,0 0,-5 0,-6 0,-2 -1,0 z m 3,0 0,3 0,8 0,2 1,0 0,-2 6,0 0,-9 -6,0 0,-2 -1,0 z M 4,9 9,9 9,14 4,14 4,9 Z m 9,0 5,0 0,7 -5,0 0,-7 z" opacity="1" transform="translate(378.85714,540.07647)"/></g></g></svg>