<svg xmlns="http://www.w3.org/2000/svg" xmlns:svg="http://www.w3.org/2000/svg" xmlns:xlink="http://www.w3.org/1999/xlink" id="svg3869" width="22" height="22" version="1.1"><defs id="defs3871"><linearGradient id="linearGradient3257"><stop id="stop3259" offset="0" stop-color="#a50000" stop-opacity="1"/><stop id="stop3261" offset="1" stop-color="#e73800" stop-opacity="1"/></linearGradient><linearGradient id="linearGradient4324"><stop id="stop4326" offset="0" stop-color="#f62459" stop-opacity="1"/><stop id="stop4328" offset="1" stop-color="#f8567f" stop-opacity="1"/></linearGradient><linearGradient id="linearGradient4300-8"><stop id="stop4302-5" offset="0" stop-color="#f27935" stop-opacity="1"/><stop id="stop4304-7" offset="1" stop-color="#f2784b" stop-opacity="1"/></linearGradient><linearGradient id="linearGradient4357" x1="47" x2="47" y1="61" y2="47" gradientUnits="userSpaceOnUse" xlink:href="#linearGradient4351"/><linearGradient id="linearGradient4410"><stop id="stop4412" offset="0" stop-color="#383e51" stop-opacity="1"/><stop id="stop4414" offset="1" stop-color="#655c6f" stop-opacity="0"/></linearGradient><linearGradient id="linearGradient4427" x1="54" x2="40" y1="31" y2="17" gradientTransform="matrix(1,0,0,-1,-14,78)" gradientUnits="userSpaceOnUse" xlink:href="#linearGradient4410"/><linearGradient id="linearGradient4306" x1="32" x2="32" y1="61" y2="3" gradientUnits="userSpaceOnUse" xlink:href="#linearGradient4300-8"/><linearGradient id="linearGradient4351"><stop id="stop4353" offset="0" stop-color="#f7ab89" stop-opacity="1"/><stop id="stop4355" offset="1" stop-color="#f9bda3" stop-opacity="1"/></linearGradient><linearGradient id="linearGradient3444" x1="54" x2="40" y1="31" y2="17" gradientTransform="matrix(1,0,0,-1,503.93261,656.69754)" gradientUnits="userSpaceOnUse" xlink:href="#linearGradient4410"/><linearGradient id="linearGradient3447" x1="47" x2="47" y1="61" y2="47" gradientTransform="translate(517.93261,578.69754)" gradientUnits="userSpaceOnUse" xlink:href="#linearGradient4351"/><linearGradient id="linearGradient3452" x1="32" x2="32" y1="61" y2="3" gradientTransform="translate(517.93261,578.69754)" gradientUnits="userSpaceOnUse" xlink:href="#linearGradient4300-8"/><clipPath id="clipPath16" clipPathUnits="userSpaceOnUse"><path id="path18" d="m 0,706.465 1490.926,0 L 1490.926,0 0,0 0,706.465 Z"/></clipPath><clipPath id="clipPath24" clipPathUnits="userSpaceOnUse"><path id="path26" d="m 22.1953,686.117 1447.7347,0 0,-667.1902 -1447.7347,0 0,667.1902 z"/></clipPath></defs><metadata id="metadata3874"/><g id="layer1" transform="translate(-326,-534.3622)"><g id="layer1-6" transform="matrix(0.83333339,0,0,0.83333339,3.1904516,102.19717)"><circle id="circle16" cx="389.571" cy="-509.564" r="0"/><rect id="rect4035" width="0" height="16.5" x="337.237" y="519.698" fill="#49535a" fill-opacity="1" stroke="none"/><rect id="rect4035-5" width="0" height="16.5" x="364.298" y="516.621" fill="#49535a" fill-opacity="1" stroke="none"/><rect id="rect4035-8" width="0" height="16.5" x="337.237" y="519.698" fill="#49535a" fill-opacity="1" stroke="none"/><rect id="rect4035-59" width="0" height="16.5" x="337.237" y="519.698" fill="#49535a" fill-opacity="1" stroke="none"/><rect id="rect4035-6" width="0" height="16.5" x="326.274" y="512.446" fill="#49535a" fill-opacity="1" stroke="none"/><rect id="rect4035-5-1" width="0" height="16.5" x="353.336" y="509.369" fill="#49535a" fill-opacity="1" stroke="none"/><rect id="rect4035-8-3" width="0" height="16.5" x="326.274" y="512.446" fill="#49535a" fill-opacity="1" stroke="none"/><rect id="rect4035-59-4" width="0" height="16.5" x="326.274" y="512.446" fill="#49535a" fill-opacity="1" stroke="none"/><rect id="rect4035-1" width="0" height="16.5" x="335.297" y="518.77" fill="#49535a" fill-opacity="1" stroke="none"/><rect id="rect4035-5-0" width="0" height="16.5" x="362.358" y="515.693" fill="#49535a" fill-opacity="1" stroke="none"/><rect id="rect4035-8-1" width="0" height="16.5" x="335.297" y="518.77" fill="#49535a" fill-opacity="1" stroke="none"/><rect id="rect4035-59-1" width="0" height="16.5" x="335.297" y="518.77" fill="#49535a" fill-opacity="1" stroke="none"/><rect id="rect4035-7" width="0" height="16.5" x="337.237" y="519.698" fill="#49535a" fill-opacity="1" stroke="none"/><rect id="rect4035-5-7" width="0" height="16.5" x="364.298" y="516.621" fill="#49535a" fill-opacity="1" stroke="none"/><rect id="rect4035-8-16" width="0" height="16.5" x="337.237" y="519.698" fill="#49535a" fill-opacity="1" stroke="none"/><rect id="rect4035-59-18" width="0" height="16.5" x="337.237" y="519.698" fill="#49535a" fill-opacity="1" stroke="none"/><rect id="rect4035-6-5" width="0" height="16.5" x="326.274" y="512.446" fill="#49535a" fill-opacity="1" stroke="none"/><rect id="rect4035-5-1-8" width="0" height="16.5" x="353.336" y="509.369" fill="#49535a" fill-opacity="1" stroke="none"/><rect id="rect4035-8-3-8" width="0" height="16.5" x="326.274" y="512.446" fill="#49535a" fill-opacity="1" stroke="none"/><rect id="rect4035-59-4-7" width="0" height="16.5" x="326.274" y="512.446" fill="#49535a" fill-opacity="1" stroke="none"/><rect id="rect4035-1-7" width="0" height="16.5" x="335.297" y="518.77" fill="#49535a" fill-opacity="1" stroke="none"/><rect id="rect4035-5-0-8" width="0" height="16.5" x="362.358" y="515.693" fill="#49535a" fill-opacity="1" stroke="none"/><rect id="rect4035-8-1-0" width="0" height="16.5" x="335.297" y="518.77" fill="#49535a" fill-opacity="1" stroke="none"/><rect id="rect4035-59-1-3" width="0" height="16.5" x="335.297" y="518.77" fill="#49535a" fill-opacity="1" stroke="none"/><rect id="rect4035-0" width="0" height="16.5" x="333.439" y="524.767" fill="#49535a" fill-opacity="1" stroke="none"/><rect id="rect4035-5-5" width="0" height="16.5" x="360.5" y="521.69" fill="#49535a" fill-opacity="1" stroke="none"/><rect id="rect4035-8-6" width="0" height="16.5" x="333.439" y="524.767" fill="#49535a" fill-opacity="1" stroke="none"/><rect id="rect4035-59-11" width="0" height="16.5" x="333.439" y="524.767" fill="#49535a" fill-opacity="1" stroke="none"/><rect id="rect4035-9" width="0" height="16.5" x="309.457" y="519.316" fill="#49535a" fill-opacity="1" stroke="none"/><rect id="rect4035-5-8" width="0" height="16.5" x="336.518" y="516.239" fill="#49535a" fill-opacity="1" stroke="none"/><rect id="rect4035-8-0" width="0" height="16.5" x="309.457" y="519.316" fill="#49535a" fill-opacity="1" stroke="none"/><rect id="rect4035-59-1-8" width="0" height="16.5" x="309.457" y="519.316" fill="#49535a" fill-opacity="1" stroke="none"/><rect id="rect4035-3" width="0" height="16.5" x="337.237" y="519.698" fill="#49535a" fill-opacity="1" stroke="none"/><rect id="rect4035-5-2" width="0" height="16.5" x="364.298" y="516.621" fill="#49535a" fill-opacity="1" stroke="none"/><rect id="rect4035-8-7" width="0" height="16.5" x="337.237" y="519.698" fill="#49535a" fill-opacity="1" stroke="none"/><rect id="rect4035-59-43" width="0" height="16.5" x="337.237" y="519.698" fill="#49535a" fill-opacity="1" stroke="none"/><rect id="rect4035-6-2" width="0" height="16.5" x="326.274" y="512.446" fill="#49535a" fill-opacity="1" stroke="none"/><rect id="rect4035-5-1-6" width="0" height="16.5" x="353.336" y="509.369" fill="#49535a" fill-opacity="1" stroke="none"/><rect id="rect4035-8-3-4" width="0" height="16.5" x="326.274" y="512.446" fill="#49535a" fill-opacity="1" stroke="none"/><rect id="rect4035-59-4-8" width="0" height="16.5" x="326.274" y="512.446" fill="#49535a" fill-opacity="1" stroke="none"/><rect id="rect4035-1-8" width="0" height="16.5" x="335.297" y="518.77" fill="#49535a" fill-opacity="1" stroke="none"/><rect id="rect4035-5-0-0" width="0" height="16.5" x="362.358" y="515.693" fill="#49535a" fill-opacity="1" stroke="none"/><rect id="rect4035-8-1-3" width="0" height="16.5" x="335.297" y="518.77" fill="#49535a" fill-opacity="1" stroke="none"/><rect id="rect4035-59-1-1" width="0" height="16.5" x="335.297" y="518.77" fill="#49535a" fill-opacity="1" stroke="none"/><rect id="rect4035-89" width="0" height="11" x="371.858" y="539.194" fill="#4d4d4d" fill-opacity="1" stroke="none"/><rect id="rect4035-5-9" width="0" height="11" x="389.899" y="537.142" fill="#4d4d4d" fill-opacity="1" stroke="none"/><rect id="rect4035-8-8" width="0" height="11" x="371.858" y="539.194" fill="#4d4d4d" fill-opacity="1" stroke="none"/><rect id="rect4035-59-7" width="0" height="11" x="371.858" y="539.194" fill="#4d4d4d" fill-opacity="1" stroke="none"/><rect id="rect4035-6-6" width="0" height="11" x="364.55" y="534.359" fill="#4d4d4d" fill-opacity="1" stroke="none"/><rect id="rect4035-5-1-0" width="0" height="11" x="382.591" y="532.308" fill="#4d4d4d" fill-opacity="1" stroke="none"/><rect id="rect4035-8-3-7" width="0" height="11" x="364.55" y="534.359" fill="#4d4d4d" fill-opacity="1" stroke="none"/><rect id="rect4035-59-4-84" width="0" height="11" x="364.55" y="534.359" fill="#4d4d4d" fill-opacity="1" stroke="none"/><rect id="rect4035-1-3" width="0" height="11" x="370.565" y="538.575" fill="#4d4d4d" fill-opacity="1" stroke="none"/><rect id="rect4035-5-0-1" width="0" height="11" x="388.606" y="536.524" fill="#4d4d4d" fill-opacity="1" stroke="none"/><rect id="rect4035-8-1-01" width="0" height="11" x="370.565" y="538.575" fill="#4d4d4d" fill-opacity="1" stroke="none"/><rect id="rect4035-59-1-7" width="0" height="11" x="370.565" y="538.575" fill="#4d4d4d" fill-opacity="1" stroke="none"/><rect id="rect4035-2" width="0" height="16.5" x="337.276" y="519.822" fill="#49535a" fill-opacity="1" stroke="none"/><rect id="rect4035-5-6" width="0" height="16.5" x="364.337" y="516.745" fill="#49535a" fill-opacity="1" stroke="none"/><rect id="rect4035-8-9" width="0" height="16.5" x="337.276" y="519.822" fill="#49535a" fill-opacity="1" stroke="none"/><rect id="rect4035-59-6" width="0" height="16.5" x="337.276" y="519.822" fill="#49535a" fill-opacity="1" stroke="none"/><rect id="rect4035-6-7" width="0" height="16.5" x="326.314" y="512.57" fill="#49535a" fill-opacity="1" stroke="none"/><rect id="rect4035-5-1-5" width="0" height="16.5" x="353.375" y="509.493" fill="#49535a" fill-opacity="1" stroke="none"/><rect id="rect4035-8-3-1" width="0" height="16.5" x="326.314" y="512.57" fill="#49535a" fill-opacity="1" stroke="none"/><rect id="rect4035-59-4-844" width="0" height="16.5" x="326.314" y="512.57" fill="#49535a" fill-opacity="1" stroke="none"/><rect id="rect4035-1-9" width="0" height="16.5" x="335.337" y="518.895" fill="#49535a" fill-opacity="1" stroke="none"/><rect id="rect4035-5-0-15" width="0" height="16.5" x="362.398" y="515.818" fill="#49535a" fill-opacity="1" stroke="none"/><rect id="rect4035-8-1-5" width="0" height="16.5" x="335.337" y="518.895" fill="#49535a" fill-opacity="1" stroke="none"/><rect id="rect4035-59-1-18" width="0" height="16.5" x="335.337" y="518.895" fill="#49535a" fill-opacity="1" stroke="none"/><rect id="rect4035-7-5" width="0" height="16.5" x="337.276" y="519.822" fill="#49535a" fill-opacity="1" stroke="none"/><rect id="rect4035-5-7-6" width="0" height="16.5" x="364.337" y="516.745" fill="#49535a" fill-opacity="1" stroke="none"/><rect id="rect4035-8-16-3" width="0" height="16.5" x="337.276" y="519.822" fill="#49535a" fill-opacity="1" stroke="none"/><rect id="rect4035-59-18-6" width="0" height="16.5" x="337.276" y="519.822" fill="#49535a" fill-opacity="1" stroke="none"/><rect id="rect4035-6-5-6" width="0" height="16.5" x="326.314" y="512.57" fill="#49535a" fill-opacity="1" stroke="none"/><rect id="rect4035-5-1-8-5" width="0" height="16.5" x="353.375" y="509.493" fill="#49535a" fill-opacity="1" stroke="none"/><rect id="rect4035-8-3-8-1" width="0" height="16.5" x="326.314" y="512.57" fill="#49535a" fill-opacity="1" stroke="none"/><rect id="rect4035-59-4-7-8" width="0" height="16.5" x="326.314" y="512.57" fill="#49535a" fill-opacity="1" stroke="none"/><rect id="rect4035-1-7-6" width="0" height="16.5" x="335.337" y="518.895" fill="#49535a" fill-opacity="1" stroke="none"/><rect id="rect4035-5-0-8-0" width="0" height="16.5" x="362.398" y="515.818" fill="#49535a" fill-opacity="1" stroke="none"/><rect id="rect4035-8-1-0-4" width="0" height="16.5" x="335.337" y="518.895" fill="#49535a" fill-opacity="1" stroke="none"/><rect id="rect4035-59-1-3-1" width="0" height="16.5" x="335.337" y="518.895" fill="#49535a" fill-opacity="1" stroke="none"/><rect id="rect4035-0-8" width="0" height="16.5" x="333.478" y="524.892" fill="#49535a" fill-opacity="1" stroke="none"/><rect id="rect4035-5-5-6" width="0" height="16.5" x="360.54" y="521.815" fill="#49535a" fill-opacity="1" stroke="none"/><rect id="rect4035-8-6-4" width="0" height="16.5" x="333.478" y="524.892" fill="#49535a" fill-opacity="1" stroke="none"/><rect id="rect4035-59-11-1" width="0" height="16.5" x="333.478" y="524.892" fill="#49535a" fill-opacity="1" stroke="none"/><rect id="rect4035-9-4" width="0" height="16.5" x="309.496" y="519.441" fill="#49535a" fill-opacity="1" stroke="none"/><rect id="rect4035-5-8-6" width="0" height="16.5" x="336.558" y="516.364" fill="#49535a" fill-opacity="1" stroke="none"/><rect id="rect4035-8-0-9" width="0" height="16.5" x="309.496" y="519.441" fill="#49535a" fill-opacity="1" stroke="none"/><rect id="rect4035-59-1-8-2" width="0" height="16.5" x="309.496" y="519.441" fill="#49535a" fill-opacity="1" stroke="none"/><rect id="rect4035-3-1" width="0" height="16.5" x="337.276" y="519.822" fill="#49535a" fill-opacity="1" stroke="none"/><rect id="rect4035-5-2-0" width="0" height="16.5" x="364.337" y="516.745" fill="#49535a" fill-opacity="1" stroke="none"/><rect id="rect4035-8-7-2" width="0" height="16.5" x="337.276" y="519.822" fill="#49535a" fill-opacity="1" stroke="none"/><rect id="rect4035-59-43-5" width="0" height="16.5" x="337.276" y="519.822" fill="#49535a" fill-opacity="1" stroke="none"/><rect id="rect4035-6-2-5" width="0" height="16.5" x="326.314" y="512.57" fill="#49535a" fill-opacity="1" stroke="none"/><rect id="rect4035-5-1-6-4" width="0" height="16.5" x="353.375" y="509.493" fill="#49535a" fill-opacity="1" stroke="none"/><rect id="rect4035-8-3-4-6" width="0" height="16.5" x="326.314" y="512.57" fill="#49535a" fill-opacity="1" stroke="none"/><rect id="rect4035-59-4-8-2" width="0" height="16.5" x="326.314" y="512.57" fill="#49535a" fill-opacity="1" stroke="none"/><rect id="rect4035-1-8-9" width="0" height="16.5" x="335.337" y="518.895" fill="#49535a" fill-opacity="1" stroke="none"/><rect id="rect4035-5-0-0-9" width="0" height="16.5" x="362.398" y="515.818" fill="#49535a" fill-opacity="1" stroke="none"/><rect id="rect4035-8-1-3-0" width="0" height="16.5" x="335.337" y="518.895" fill="#49535a" fill-opacity="1" stroke="none"/><rect id="rect4035-59-1-1-4" width="0" height="16.5" x="335.337" y="518.895" fill="#49535a" fill-opacity="1" stroke="none"/><rect id="rect4035-89-8" width="0" height="11" x="371.898" y="539.318" fill="#4d4d4d" fill-opacity="1" stroke="none"/><rect id="rect4035-5-9-5" width="0" height="11" x="389.939" y="537.267" fill="#4d4d4d" fill-opacity="1" stroke="none"/><rect id="rect4035-8-8-2" width="0" height="11" x="371.898" y="539.318" fill="#4d4d4d" fill-opacity="1" stroke="none"/><rect id="rect4035-59-7-6" width="0" height="11" x="371.898" y="539.318" fill="#4d4d4d" fill-opacity="1" stroke="none"/><rect id="rect4035-6-6-0" width="0" height="11" x="364.59" y="534.484" fill="#4d4d4d" fill-opacity="1" stroke="none"/><rect id="rect4035-5-1-0-3" width="0" height="11" x="382.631" y="532.432" fill="#4d4d4d" fill-opacity="1" stroke="none"/><rect id="rect4035-8-3-7-4" width="0" height="11" x="364.59" y="534.484" fill="#4d4d4d" fill-opacity="1" stroke="none"/><rect id="rect4035-59-4-84-8" width="0" height="11" x="364.59" y="534.484" fill="#4d4d4d" fill-opacity="1" stroke="none"/><rect id="rect4035-1-3-3" width="0" height="11" x="370.605" y="538.7" fill="#4d4d4d" fill-opacity="1" stroke="none"/><rect id="rect4035-5-0-1-9" width="0" height="11" x="388.646" y="536.649" fill="#4d4d4d" fill-opacity="1" stroke="none"/><rect id="rect4035-8-1-01-9" width="0" height="11" x="370.605" y="538.7" fill="#4d4d4d" fill-opacity="1" stroke="none"/><rect id="rect4035-59-1-7-4" width="0" height="11" x="370.605" y="538.7" fill="#4d4d4d" fill-opacity="1" stroke="none"/><g id="g3" fill="#4d4d4d" fill-opacity="1" transform="matrix(-0.04946597,0,0,0.04946597,412.57143,519.798)"><path id="path5" fill="#4d4d4d" fill-opacity="1" d="m 257.751,113.708 c -74.419,0 -140.281,35.892 -181.773,91.155 L 0,128.868 l 0,242.606 242.606,0 -82.538,-82.532 c 21.931,-66.52 84.474,-114.584 158.326,-114.584 92.161,0 166.788,74.689 166.788,166.795 C 485.183,215.524 383.365,113.708 257.751,113.708 Z"/></g></g></g></svg>