<svg xmlns="http://www.w3.org/2000/svg" xmlns:svg="http://www.w3.org/2000/svg" id="svg3869" width="22" height="22" version="1.1"><metadata id="metadata3874"/><g id="layer1" transform="translate(-326,-534.3622)"><g id="layer1-2" transform="translate(-225.28572,-73.2857)"><path id="rect4112" fill="#4d4d4d" fill-opacity="1" stroke="none" d="M 8,4 8,4.5078125 8,6.5 C 8,7.331 7.331,8 6.5,8 L 4,8 l 0,1 0,6 0,1 2.5,0 C 7.331,16 8,16.669 8,17.5 L 8,19.492188 8,20 l 1,0 6,0 1,0 0,-0.507812 L 16,17.5 C 16,16.669 16.669,16 17.5,16 L 19.492188,16 20,16 20,15 20,9 20,8 19.492188,8 17.5,8 C 16.669,8 16,7.331 16,6.5 L 16,4 15,4 9,4 Z" opacity="1" transform="translate(550.28572,606.6479)"/></g></g></svg>