<svg xmlns="http://www.w3.org/2000/svg" xmlns:svg="http://www.w3.org/2000/svg" id="svg2" width="22" height="22" version="1.1" viewBox="0 0 22 22"><metadata id="metadata7"/><g id="layer1" transform="translate(1,-1031.3622)"><path id="path4145" fill="none" fill-rule="evenodd" stroke="#4d4d4d" stroke-dasharray="none" stroke-linecap="round" stroke-linejoin="round" stroke-miterlimit="4" stroke-opacity="1" stroke-width="1.301" d="m 7.6934317,1043.3887 c -0.5147171,-1.0215 0.1449822,-2.2124 1.1391918,-2.6203 1.4031675,-0.5757 2.9537545,0.3199 3.4472945,1.6864 0.643259,1.781 -0.494189,3.6987 -2.233635,4.2743 -2.1573562,0.714 -4.4455118,-0.668 -5.1013574,-2.7808 -0.7862629,-2.533 0.841616,-5.1934 3.3280777,-5.9284 2.9081817,-0.8596 5.9419987,1.015 6.7554207,3.8753 0.933685,3.2831 -1.188344,6.6911 -4.422521,7.5824 -3.6579615,1.0082 -7.4404728,-1.3615 -8.4094835,-4.9697 -1.0830134,-4.0327 1.5347455,-8.1901 5.5169636,-9.2365 4.4072899,-1.1581 8.9399699,1.7079 10.0635469,6.0642 0.489358,1.8973 0.313144,3.9351 -0.474079,5.7277"/></g></svg>