<svg xmlns="http://www.w3.org/2000/svg" xmlns:svg="http://www.w3.org/2000/svg" xmlns:xlink="http://www.w3.org/1999/xlink" id="svg3869" width="22" height="22" version="1.1"><defs id="defs3871"><clipPath id="clipPath16" clipPathUnits="userSpaceOnUse"><path id="path18" d="m 0,706.465 1490.926,0 L 1490.926,0 0,0 0,706.465 Z"/></clipPath><clipPath id="clipPath24" clipPathUnits="userSpaceOnUse"><path id="path26" d="m 22.1953,686.117 1447.7347,0 0,-667.1902 -1447.7347,0 0,667.1902 z"/></clipPath><clipPath id="clipPath4534" clipPathUnits="userSpaceOnUse"><rect id="rect4536" width="32" height="32" x="8" y="8" fill="url(#linearGradient4538)" fill-opacity="1" stroke="none" ry="16"/></clipPath><clipPath id="clipPath4584" clipPathUnits="userSpaceOnUse"><rect id="rect4586" width="32" height="32" x="392.571" y="507.798" fill="url(#linearGradient4588)" fill-opacity="1" stroke="none" ry="16"/></clipPath><clipPath id="clipPath4550" clipPathUnits="userSpaceOnUse"><rect id="rect4552" width="32" height="32" x="392.571" y="507.798" fill="url(#linearGradient4554)" fill-opacity="1" stroke="none" ry="16"/></clipPath><clipPath id="clipPath4568" clipPathUnits="userSpaceOnUse"><rect id="rect4570" width="32" height="32" x="392.571" y="507.798" fill="url(#linearGradient4572)" fill-opacity="1" stroke="none" ry="16"/></clipPath><clipPath id="clipPath4528" clipPathUnits="userSpaceOnUse"><rect id="rect4530" width="32" height="32" x="8" y="8" fill="url(#linearGradient4532)" fill-opacity="1" stroke="none" ry="16"/></clipPath><clipPath id="clipPath4578" clipPathUnits="userSpaceOnUse"><rect id="rect4580" width="32" height="32" x="392.571" y="507.798" fill="url(#linearGradient4582)" fill-opacity="1" stroke="none" ry="16"/></clipPath><clipPath id="clipPath4562" clipPathUnits="userSpaceOnUse"><rect id="rect4564" width="32" height="32" x="392.571" y="507.798" fill="url(#linearGradient4566)" fill-opacity="1" stroke="none" ry="16"/></clipPath><clipPath id="clipPath4544" clipPathUnits="userSpaceOnUse"><rect id="rect4546" width="32" height="32" x="392.571" y="507.798" fill="url(#linearGradient4548)" fill-opacity="1" stroke="none" ry="16"/></clipPath><clipPath id="clipPath4390" clipPathUnits="userSpaceOnUse"><rect id="rect4392" width="32" height="32" x="8" y="8" fill="url(#linearGradient4532)" fill-opacity="1" stroke="none" ry="16"/></clipPath><clipPath id="clipPath4407" clipPathUnits="userSpaceOnUse"><rect id="rect4409" width="32" height="32" x="392.571" y="507.798" fill="url(#linearGradient4582)" fill-opacity="1" stroke="none" ry="16"/></clipPath><clipPath id="clipPath4424" clipPathUnits="userSpaceOnUse"><rect id="rect4426" width="32" height="32" x="392.571" y="507.798" fill="url(#linearGradient4566)" fill-opacity="1" stroke="none" ry="16"/></clipPath><clipPath id="clipPath4441" clipPathUnits="userSpaceOnUse"><rect id="rect4443" width="32" height="32" x="392.571" y="507.798" fill="url(#linearGradient4548)" fill-opacity="1" stroke="none" ry="16"/></clipPath><clipPath id="clipPath4528-1" clipPathUnits="userSpaceOnUse"><rect id="rect4530-7" width="32" height="32" x="8" y="8" fill="url(#linearGradient4532)" fill-opacity="1" stroke="none" ry="16"/></clipPath><clipPath id="clipPath4578-8" clipPathUnits="userSpaceOnUse"><rect id="rect4580-7" width="32" height="32" x="392.571" y="507.798" fill="url(#linearGradient4582)" fill-opacity="1" stroke="none" ry="16"/></clipPath><clipPath id="clipPath4562-8" clipPathUnits="userSpaceOnUse"><rect id="rect4564-8" width="32" height="32" x="392.571" y="507.798" fill="url(#linearGradient4566)" fill-opacity="1" stroke="none" ry="16"/></clipPath><clipPath id="clipPath4544-1" clipPathUnits="userSpaceOnUse"><rect id="rect4546-1" width="32" height="32" x="392.571" y="507.798" fill="url(#linearGradient4548)" fill-opacity="1" stroke="none" ry="16"/></clipPath><linearGradient id="linearGradient4238" x1="400.571" x2="400.571" y1="545.798" y2="517.798" gradientTransform="translate(-5.9283447e-6,0)" gradientUnits="userSpaceOnUse" xlink:href="#linearGradient4303"/><linearGradient id="linearGradient4303"><stop id="stop4305" offset="0" stop-color="#c6cdd1" stop-opacity="1"/><stop id="stop4307" offset="1" stop-color="#e0e5e7" stop-opacity="1"/></linearGradient><linearGradient id="linearGradient4155" x1="389.571" x2="408.571" y1="518.798" y2="537.798" gradientTransform="translate(120.71429,82.849876)" gradientUnits="userSpaceOnUse" xlink:href="#linearGradient4227"/><linearGradient id="linearGradient4227"><stop id="stop4229" offset="0" stop-color="#292c2f" stop-opacity="1"/><stop id="stop4231" offset="1" stop-color="#000" stop-opacity="0"/></linearGradient><linearGradient id="linearGradient4370" x1="16" x2="16" y1="30" y2="2" gradientTransform="translate(505.28572,598.64788)" gradientUnits="userSpaceOnUse" xlink:href="#linearGradient4159"/><linearGradient id="linearGradient4159"><stop id="stop4161" offset="0" stop-color="#2a2c2f" stop-opacity="1"/><stop id="stop4163" offset="1" stop-color="#424649" stop-opacity="1"/></linearGradient><linearGradient id="linearGradient4434" x1="16" x2="16" y1="20" y2="12" gradientTransform="translate(505.28572,598.64788)" gradientUnits="userSpaceOnUse" xlink:href="#linearGradient4159"/><linearGradient id="linearGradient3053" x1="400.571" x2="400.571" y1="545.798" y2="517.798" gradientTransform="translate(120.71428,82.849876)" gradientUnits="userSpaceOnUse" xlink:href="#linearGradient4303"/></defs><metadata id="metadata3874"/><g id="layer1" transform="translate(-326,-534.3622)"><g id="layer1-1" transform="translate(-225.28572,-73.2857)"><path id="rect3316" fill="#4d4d4d" fill-opacity="1" stroke="none" d="M 18.5,4 C 17.84576,4 17.297803,4.4180774 17.091797,5 L 4,5 4,6 c 3.601,0 6.5,2.899 6.5,6.5 0,1.905514 -0.822115,3.601777 -2.1210938,4.787109 C 8.1331793,17.10687 7.8301303,17 7.5,17 6.669,17 6,17.669 6,18.5 6,19.331 6.669,20 7.5,20 8.1542402,20 8.7021974,19.581923 8.9082031,19 L 13,19 l 0,1 3,0 0,-3 -3,0 0,1 -3.9121094,0 C 10.567038,16.632069 11.5,14.682903 11.5,12.5 11.5,9.7113329 9.9893316,7.2925313 7.7421875,6 L 17.091797,6 C 17.297803,6.5819226 17.84576,7 18.5,7 19.331,7 20,6.331 20,5.5 20,4.669 19.331,4 18.5,4 Z m 0,1 C 18.777,5 19,5.223 19,5.5 19,5.777 18.777,6 18.5,6 18.43075,6 18.364547,5.9861719 18.304688,5.9609375 18.125109,5.8852344 18,5.70775 18,5.5 18,5.43075 18.013828,5.3645469 18.039062,5.3046875 18.114766,5.1251094 18.29225,5 18.5,5 Z M 7.5,18 C 7.777,18 8,18.223 8,18.5 8,18.777 7.777,19 7.5,19 7.223,19 7,18.777 7,18.5 7,18.223 7.223,18 7.5,18 Z m 6.5,0 1,0 0,1 -1,0 0,-1 z" opacity="1" transform="translate(550.28572,606.6479)"/></g></g></svg>