<svg xmlns="http://www.w3.org/2000/svg" xmlns:svg="http://www.w3.org/2000/svg" id="svg2" width="22" height="22" version="1.1" viewBox="0 0 22 22"><metadata id="metadata7"/><g id="layer1" transform="translate(1,-1031.3622)"><g id="text4145" fill="#000" fill-opacity="1" stroke="none" stroke-linecap="butt" stroke-linejoin="miter" stroke-opacity="1" stroke-width="1" font-family="sans-serif" font-size="25" font-style="normal" font-weight="normal" letter-spacing="0" transform="matrix(1.2260536,0,0,1.2260536,19.624521,-231.79831)" word-spacing="0" style="line-height:125%"><path id="path4150" fill="#4d4d4d" fill-opacity="1" d="m -8.725,1045.7622 q -1.95,0 -3.275,-1.125 -1.3,-1.125 -1.3,-2.975 0,-2 1.55,-3.125 1.55,-1.15 3.825,-1.15 2.025,0 3.325,0.75 l 0,-0.35 q 0,-1.35 -0.925,-2.15 -0.925,-0.825 -2.275,-0.825 -1,0 -1.825,0.475 -0.8,0.475 -1.1,1.3 l -2.1,-0.9 q 0.425,-1.1 1.675,-2.025 1.25,-0.95 3.3,-0.95 2.35,0 3.9,1.375 1.55,1.375 1.55,3.875 l 0,7.4 -2.2,0 0,-1.7 -0.1,0 q -1.375,2.1 -4.025,2.1 z m 0.375,-2.1 q 1.425,0 2.575,-1.05 1.175,-1.075 1.175,-2.525 -0.975,-0.8 -2.925,-0.8 -1.675,0 -2.525,0.725 -0.85,0.725 -0.85,1.7 0,0.9 0.775,1.425 0.775,0.525 1.775,0.525 z" font-family="Product Sans" font-stretch="normal" font-style="normal" font-variant="normal" font-weight="normal" style="-inkscape-font-specification:'Product Sans'"/></g></g></svg>