<svg xmlns="http://www.w3.org/2000/svg" xmlns:svg="http://www.w3.org/2000/svg" id="svg3869" width="22" height="22" version="1.1"><metadata id="metadata3874"/><g id="layer1" transform="translate(-326,-534.3622)"><g id="layer1-4" transform="translate(-225.28571,-73.28569)"><path id="rect4112" fill="#4d4d4d" fill-opacity="1" stroke="none" d="m 11,3 c -4.432,0 -8,3.568 -8,8 0,4.432 3.568,8 8,8 4.432,0 8,-3.568 8,-8 0,-4.432 -3.568,-8 -8,-8 z m 0,6 c 1.104569,0 2,0.8954305 2,2 0,1.104569 -0.895431,2 -2,2 C 9.8954305,13 9,12.104569 9,11 9,9.8954305 9.8954305,9 11,9 Z" opacity="1" transform="translate(551.28571,607.64789)"/></g></g></svg>