<svg xmlns="http://www.w3.org/2000/svg" xmlns:svg="http://www.w3.org/2000/svg" id="svg2" width="22" height="22" version="1.1" viewBox="0 0 22 22"><metadata id="metadata7"/><g id="layer1" transform="translate(1,-1031.3622)"><g id="layer1-2" transform="matrix(0.49521173,-0.74510829,0.74510829,0.49521173,-771.54949,534.83137)"><path id="path4253" fill="#4d4d4d" fill-opacity=".976" fill-rule="nonzero" stroke="none" stroke-width="4" d="m 15.23738,1042.68 -3.83112,-2.5636 -10e-4,-3.8899 c -7.2e-4,-2.1395 0.009,-3.89 0.0216,-3.89 0.0126,0 1.74233,1.1499 3.84379,2.5554 l 3.82086,2.5554 0,3.9013 c 0,2.1457 -0.005,3.8998 -0.0114,3.8981 -0.006,0 -1.73538,-1.1567 -3.84249,-2.5667 l 0,0 z" color="#000" display="inline" enable-background="accumulate" opacity=".987" overflow="visible" visibility="visible" style="marker:none"/><path id="path4255" fill="#4d4d4d" fill-opacity=".976" fill-rule="nonzero" stroke="none" stroke-width="4" d="m 2.88716,1041.4547 0,-3.9588 3.83636,-2.5485 c 2.11,-1.4016 3.84674,-2.5484 3.85941,-2.5484 0.0127,0 0.023,1.7794 0.023,3.9542 l 0,3.9541 -3.8338,2.5531 c -2.10859,1.4042 -3.84533,2.5531 -3.85941,2.5531 -0.0141,0 -0.0256,-1.7814 -0.0256,-3.9588 z" color="#000" display="inline" enable-background="accumulate" opacity=".987" overflow="visible" visibility="visible" style="marker:none"/><path id="path4257" fill="#4d4d4d" fill-opacity=".988" fill-rule="nonzero" stroke="none" stroke-width="4" d="m 7.22799,1048.6112 c -2.0558,-1.3745 -3.75576,-2.5165 -3.77768,-2.5376 -0.0443,-0.043 7.52487,-5.1494 7.6396,-5.1541 0.0843,0 7.52589,4.9761 7.51086,5.0259 -0.007,0.023 -6.96912,4.7334 -7.60913,5.1482 -0.0142,0.01 -1.70785,-1.1079 -3.76365,-2.4824 z" color="#000" display="inline" enable-background="accumulate" opacity=".987" overflow="visible" visibility="visible" style="marker:none"/></g></g></svg>