<svg xmlns="http://www.w3.org/2000/svg" xmlns:svg="http://www.w3.org/2000/svg" id="svg3049" width="22" height="22" version="1.1"><metadata id="metadata3054"/><g id="layer1" transform="translate(-421.71429,-525.79074)"><rect id="rect4035" width="0" height="11" x="404.714" y="547.791" fill="#4d4d4d" fill-opacity="1" stroke="none"/><rect id="rect4035-5" width="0" height="11" x="422.755" y="545.739" fill="#4d4d4d" fill-opacity="1" stroke="none"/><rect id="rect4035-8" width="0" height="11" x="404.714" y="547.791" fill="#4d4d4d" fill-opacity="1" stroke="none"/><rect id="rect4035-59" width="0" height="11" x="404.714" y="547.791" fill="#4d4d4d" fill-opacity="1" stroke="none"/><rect id="rect4035-9" width="0" height="11" x="404.714" y="547.791" fill="#4d4d4d" fill-opacity="1" stroke="none"/><rect id="rect4035-5-7" width="0" height="11" x="422.755" y="545.739" fill="#4d4d4d" fill-opacity="1" stroke="none"/><rect id="rect4035-9-0" width="0" height="11" x="384.714" y="547.791" fill="#4d4d4d" fill-opacity="1" stroke="none"/><rect id="rect4035-5-7-5" width="0" height="11" x="402.755" y="545.739" fill="#4d4d4d" fill-opacity="1" stroke="none"/><rect id="rect4035-3" width="0" height="11" x="404.714" y="547.791" fill="#4d4d4d" fill-opacity="1" stroke="none"/><rect id="rect4035-5-4" width="0" height="11" x="422.755" y="545.739" fill="#4d4d4d" fill-opacity="1" stroke="none"/><rect id="rect4035-8-7" width="0" height="11" x="404.714" y="547.791" fill="#4d4d4d" fill-opacity="1" stroke="none"/><rect id="rect4035-59-1" width="0" height="11" x="404.714" y="547.791" fill="#4d4d4d" fill-opacity="1" stroke="none"/><rect id="rect4035-9-08" width="0" height="11" x="404.714" y="547.791" fill="#4d4d4d" fill-opacity="1" stroke="none"/><rect id="rect4035-5-7-8" width="0" height="11" x="422.755" y="545.739" fill="#4d4d4d" fill-opacity="1" stroke="none"/><rect id="rect4035-9-0-2" width="0" height="11" x="384.714" y="547.791" fill="#4d4d4d" fill-opacity="1" stroke="none"/><rect id="rect4035-5-7-5-2" width="0" height="11" x="402.755" y="545.739" fill="#4d4d4d" fill-opacity="1" stroke="none"/><g id="g3" fill="#4d4d4d" fill-opacity="1" transform="matrix(0.04317466,0,0,0.04317466,424.71426,528.79071)"><g id="g5" fill="#4d4d4d" fill-opacity="1"><path id="path7" fill="#4d4d4d" fill-opacity="1" d="m 5.806,224.753 c -7.741,7.741 -7.741,20.291 0.002,28.034 l 10.114,10.114 24.18,-9.46 -9.112,24.529 50.811,50.812 39.014,-22.66 -19.858,41.815 16.843,16.844 c 7.743,7.743 20.293,7.743 28.034,0.002 L 237.646,272.971 97.618,132.941 5.806,224.753 Z"/><path id="path9" fill="#4d4d4d" fill-opacity="1" d="m 358.83,11.841 -0.082,-0.083 c -9.66,-9.66 -21.981,-13.478 -35.631,-11.043 -27.59,4.924 -56.519,34.861 -77.384,80.087 -5.788,12.546 -13.997,19.607 -25.101,21.588 -21.311,3.803 -48.293,-11.741 -64.344,-27.792 -3.362,-3.362 -8.814,-3.361 -12.176,0.001 l -16.685,16.686 24.651,24.651 c 3.202,3.202 3.202,8.392 0,11.594 -3.202,3.202 -8.393,3.202 -11.594,0 l -24.651,-24.651 -6.178,6.178 c -3.364,3.364 -3.364,8.815 -0.002,12.178 l 139.703,139.703 c 3.361,3.361 8.812,3.36 12.177,-0.002 l 34.458,-34.458 c 3.361,-3.362 3.362,-8.814 0.001,-12.177 -16.051,-16.051 -31.595,-43.034 -27.792,-64.344 1.98,-11.103 9.042,-19.312 21.588,-25.1 45.226,-20.865 75.163,-49.793 80.087,-77.383 2.434,-13.652 -1.385,-25.973 -11.045,-35.633 z m -15.774,36.905 c -5.857,5.857 -15.354,5.857 -21.213,0 -5.856,-5.858 -5.856,-15.355 0,-21.213 5.858,-5.858 15.355,-5.858 21.213,0 5.858,5.858 5.858,15.355 0,21.213 z"/></g></g></g></svg>