<svg xmlns="http://www.w3.org/2000/svg" xmlns:svg="http://www.w3.org/2000/svg" id="svg3869" width="24" height="24" version="1.1"><defs id="defs3871"><linearGradient id="linearGradient3257"><stop id="stop3259" offset="0" stop-color="#a50000" stop-opacity="1"/><stop id="stop3261" offset="1" stop-color="#e73800" stop-opacity="1"/></linearGradient></defs><metadata id="metadata3874"/><g id="layer1" transform="translate(-326,-532.3622)"><g id="layer1-8" transform="translate(-134.71429,7.57145)"><path id="rect4108-9" fill="#4d4d4d" fill-opacity="1" stroke="none" d="m 464.71429,528.79075 0,1 0,15 1,0 14,0 1,0 0,-15 0,-1 -16,0 z m 1,1 4,0 0,1 0,1 -1,0 -3,0 0,-2 z m 5,0 4,0 0,1 0,1 -4,0 0,-1 0,-1 z m 5,0 4,0 0,2 -3,0 -1,0 0,-1 0,-1 z m -10,3 3,0 1,0 1,0 4,0 1,0 1,0 3,0 0,2 -3,0 0,1 3,0 0,2 -3,0 0,1 3,0 0,2 -3,0 -1,0 -1,0 -4,0 -1,0 -1,0 -3,0 0,-2 3,0 0,-1 -3,0 0,-2 3,0 0,-1 -3,0 0,-2 z m 0,9 3,0 1,0 0,1.09961 0,0.90039 -4,0 0,-2 z m 5,0 4,0 0,2 -4,0 0,-2 z m 5,0 4,0 0,2 -4,0 0,-2 z" opacity="1"/><path id="rect4135" fill="#da4453" fill-opacity="1" stroke="none" d="m 468.71429,532.79075 0,8 8,0 0,-8 -8,0 z m 1,1 6,0 0,1 -2,2 2,2 0,1 -6,0 0,-6 z" opacity="1"/></g></g></svg>