<svg xmlns="http://www.w3.org/2000/svg" xmlns:svg="http://www.w3.org/2000/svg" id="svg3869" width="22" height="22" version="1.1"><defs id="defs3871"><linearGradient id="linearGradient3257"><stop id="stop3259" offset="0" stop-color="#a50000" stop-opacity="1"/><stop id="stop3261" offset="1" stop-color="#e73800" stop-opacity="1"/></linearGradient></defs><metadata id="metadata3874"/><g id="layer1" transform="translate(-326,-534.3622)"><g id="layer1-2" transform="translate(-134.71429,7.57145)"><g id="layer1-8"><g id="g4153" transform="translate(-1,1)"><path id="rect4108-3" fill="#4d4d4d" fill-opacity="1" stroke="none" d="M 3,3 3,4 3,7 4,7 4,4 7,4 7,3 4,3 Z m 12,0 0,1 3,0 0,3 1,0 0,-4 z m -12,12 0,4 1,0 3,0 0,-1 -3,0 0,-3 z m 15,0 0,3 -3,0 0,1 4,0 0,-1 0,-3 z" opacity="1" transform="translate(461.71429,525.79075)"/><g id="g4177" transform="translate(17.468746,-2.5625215)"><circle id="path4148" cx="458.277" cy="536.291" r="2.5" fill="#4d4d4d" fill-opacity="1" fill-rule="evenodd" stroke="none" stroke-dasharray="none" stroke-dashoffset="0" stroke-linecap="square" stroke-linejoin="miter" stroke-miterlimit="4" stroke-opacity="1" stroke-width=".8" opacity="1"/><circle id="path4148-4" cx="452.277" cy="536.353" r="2.5" fill="#4d4d4d" fill-opacity="1" fill-rule="evenodd" stroke="none" stroke-dasharray="none" stroke-dashoffset="0" stroke-linecap="square" stroke-linejoin="miter" stroke-miterlimit="4" stroke-opacity="1" stroke-width=".8" opacity="1"/><circle id="path4148-9" cx="452.214" cy="542.416" r="2.5" fill="#4d4d4d" fill-opacity="1" fill-rule="evenodd" stroke="none" stroke-dasharray="none" stroke-dashoffset="0" stroke-linecap="square" stroke-linejoin="miter" stroke-miterlimit="4" stroke-opacity="1" stroke-width=".8" opacity="1"/><circle id="path4148-3" cx="458.277" cy="542.416" r="2.5" fill="#4d4d4d" fill-opacity="1" fill-rule="evenodd" stroke="none" stroke-dasharray="none" stroke-dashoffset="0" stroke-linecap="square" stroke-linejoin="miter" stroke-miterlimit="4" stroke-opacity="1" stroke-width=".8" opacity="1"/></g></g></g></g></g></svg>