<svg xmlns="http://www.w3.org/2000/svg" xmlns:svg="http://www.w3.org/2000/svg" id="svg3869" width="24" height="24" version="1.1"><defs id="defs3871"><linearGradient id="linearGradient3257"><stop id="stop3259" offset="0" stop-color="#a50000" stop-opacity="1"/><stop id="stop3261" offset="1" stop-color="#e73800" stop-opacity="1"/></linearGradient></defs><metadata id="metadata3874"/><g id="layer1" transform="translate(-326,-532.3622)"><g id="layer1-2" transform="translate(-134.71429,7.57145)"><path id="rect4139" fill="#4d4d4d" fill-opacity="1" stroke="none" d="m 9,3 0,1 8,0 0,10 -4,0 0,1 0,3 -8,0 0,-10 -1,0 0,11 1,0 8,0 1,0 0,-0.0098 L 14.007812,19 18,15.007812 18,15 18,13.59375 18,3 17,3 9,3 Z m 0,3 0,1 6,0 0,-1 -6,0 z m -2,3 0,1 8,0 0,-1 -8,0 z m 0,3 0,1 8,0 0,-1 -8,0 z m 0,3 0,1 4,0 0,-1 -4,0 z" transform="translate(461.71429,525.79075)"/><path id="path4133-6" fill="#1d99f3" fill-opacity="1" fill-rule="evenodd" stroke="none" stroke-linecap="butt" stroke-linejoin="miter" stroke-opacity="1" stroke-width="1" d="m 464.71429,528.79075 2,3 2,-3 z"/></g></g></svg>