<svg xmlns="http://www.w3.org/2000/svg" xmlns:svg="http://www.w3.org/2000/svg" id="svg3869" width="22" height="22" version="1.1"><defs id="defs3871"><linearGradient id="linearGradient3257"><stop id="stop3259" offset="0" stop-color="#a50000" stop-opacity="1"/><stop id="stop3261" offset="1" stop-color="#e73800" stop-opacity="1"/></linearGradient></defs><metadata id="metadata3874"/><g id="layer1" transform="translate(-326,-534.3622)"><g id="layer1-8" transform="translate(-135.71429,8.57145)"><g id="layer1-5" transform="translate(461.71429,-504.57145)"><rect id="rect4035" width="0" height="11" x="-37.468" y="1034.983" fill="#4d4d4d" fill-opacity="1" stroke="none"/><rect id="rect4035-5" width="0" height="11" x="-19.427" y="1032.931" fill="#4d4d4d" fill-opacity="1" stroke="none"/><rect id="rect4035-8" width="0" height="11" x="-37.468" y="1034.983" fill="#4d4d4d" fill-opacity="1" stroke="none"/><rect id="rect4035-59" width="0" height="11" x="-37.468" y="1034.983" fill="#4d4d4d" fill-opacity="1" stroke="none"/><rect id="rect4035-6" width="0" height="11" x="-44.776" y="1030.148" fill="#4d4d4d" fill-opacity="1" stroke="none"/><rect id="rect4035-5-1" width="0" height="11" x="-26.736" y="1028.097" fill="#4d4d4d" fill-opacity="1" stroke="none"/><rect id="rect4035-8-3" width="0" height="11" x="-44.776" y="1030.148" fill="#4d4d4d" fill-opacity="1" stroke="none"/><rect id="rect4035-59-4" width="0" height="11" x="-44.776" y="1030.148" fill="#4d4d4d" fill-opacity="1" stroke="none"/><rect id="rect4035-1" width="0" height="11" x="-38.761" y="1034.364" fill="#4d4d4d" fill-opacity="1" stroke="none"/><rect id="rect4035-5-0" width="0" height="11" x="-20.72" y="1032.313" fill="#4d4d4d" fill-opacity="1" stroke="none"/><rect id="rect4035-8-1" width="0" height="11" x="-38.761" y="1034.364" fill="#4d4d4d" fill-opacity="1" stroke="none"/><rect id="rect4035-59-1" width="0" height="11" x="-38.761" y="1034.364" fill="#4d4d4d" fill-opacity="1" stroke="none"/><rect id="rect4035-0" width="0" height="11" x="-40" y="1038.362" fill="#4d4d4d" fill-opacity="1" stroke="none"/><rect id="rect4035-5-5" width="0" height="11" x="-21.959" y="1036.311" fill="#4d4d4d" fill-opacity="1" stroke="none"/><rect id="rect4035-8-6" width="0" height="11" x="-40" y="1038.362" fill="#4d4d4d" fill-opacity="1" stroke="none"/><rect id="rect4035-59-11" width="0" height="11" x="-40" y="1038.362" fill="#4d4d4d" fill-opacity="1" stroke="none"/><rect id="rect4035-9" width="0" height="11" x="-55.988" y="1034.728" fill="#4d4d4d" fill-opacity="1" stroke="none"/><rect id="rect4035-5-8" width="0" height="11" x="-37.947" y="1032.677" fill="#4d4d4d" fill-opacity="1" stroke="none"/><rect id="rect4035-8-0" width="0" height="11" x="-55.988" y="1034.728" fill="#4d4d4d" fill-opacity="1" stroke="none"/><rect id="rect4035-59-1-8" width="0" height="11" x="-55.988" y="1034.728" fill="#4d4d4d" fill-opacity="1" stroke="none"/><path id="path4059" fill="#4d4d4d" fill-opacity="1" stroke="none" stroke-linecap="butt" stroke-linejoin="miter" stroke-opacity="1" stroke-width="1" d="M 4,4 4,20 20,20 20,4 4,4 Z M 19,5 19,19 5,19 8.46875,15.53125 C 7.563928,14.626428 7,13.380712 7,12 7,9.2385763 9.2385763,7 12,7 c 1.380712,0 2.626428,0.563928 3.53125,1.46875 L 19,5 Z m -3.46875,3.46875 -7.0625,7.0625 C 9.373572,16.436072 10.619288,17 12,17 c 2.761424,0 5,-2.238576 5,-5 0,-1.380712 -0.563928,-2.626428 -1.46875,-3.53125 z" transform="translate(-1,1029.3622)"/></g></g></g></svg>