<svg xmlns="http://www.w3.org/2000/svg" xmlns:svg="http://www.w3.org/2000/svg" id="svg3760" width="22" height="22" version="1.1"><metadata id="metadata3765"/><g id="layer1" transform="translate(-553.72253,-583.11926)"><rect id="rect4035" width="0" height="11" x="537.723" y="591.119" fill="#4d4d4d" fill-opacity="1" stroke="none"/><rect id="rect4035-5" width="0" height="11" x="555.763" y="589.068" fill="#4d4d4d" fill-opacity="1" stroke="none"/><rect id="rect4035-8" width="0" height="11" x="537.723" y="591.119" fill="#4d4d4d" fill-opacity="1" stroke="none"/><rect id="rect4035-59" width="0" height="11" x="537.723" y="591.119" fill="#4d4d4d" fill-opacity="1" stroke="none"/><rect id="rect4035-60" width="0" height="11" x="516.254" y="587.74" fill="#4d4d4d" fill-opacity="1" stroke="none"/><rect id="rect4035-5-15" width="0" height="11" x="534.295" y="585.688" fill="#4d4d4d" fill-opacity="1" stroke="none"/><rect id="rect4035-8-03" width="0" height="11" x="516.254" y="587.74" fill="#4d4d4d" fill-opacity="1" stroke="none"/><rect id="rect4035-59-10" width="0" height="11" x="516.254" y="587.74" fill="#4d4d4d" fill-opacity="1" stroke="none"/><rect id="rect4035-6" width="0" height="11" x="508.946" y="582.905" fill="#4d4d4d" fill-opacity="1" stroke="none"/><rect id="rect4035-5-1" width="0" height="11" x="526.987" y="580.854" fill="#4d4d4d" fill-opacity="1" stroke="none"/><rect id="rect4035-8-3" width="0" height="11" x="508.946" y="582.905" fill="#4d4d4d" fill-opacity="1" stroke="none"/><rect id="rect4035-59-4" width="0" height="11" x="508.946" y="582.905" fill="#4d4d4d" fill-opacity="1" stroke="none"/><rect id="rect4035-1" width="0" height="11" x="514.961" y="587.121" fill="#4d4d4d" fill-opacity="1" stroke="none"/><rect id="rect4035-5-0" width="0" height="11" x="533.002" y="585.07" fill="#4d4d4d" fill-opacity="1" stroke="none"/><rect id="rect4035-8-1" width="0" height="11" x="514.961" y="587.121" fill="#4d4d4d" fill-opacity="1" stroke="none"/><rect id="rect4035-59-1" width="0" height="11" x="514.961" y="587.121" fill="#4d4d4d" fill-opacity="1" stroke="none"/><rect id="rect4035-0" width="0" height="11" x="513.723" y="591.119" fill="#4d4d4d" fill-opacity="1" stroke="none"/><rect id="rect4035-5-5" width="0" height="11" x="531.763" y="589.068" fill="#4d4d4d" fill-opacity="1" stroke="none"/><rect id="rect4035-8-6" width="0" height="11" x="513.723" y="591.119" fill="#4d4d4d" fill-opacity="1" stroke="none"/><rect id="rect4035-59-11" width="0" height="11" x="513.723" y="591.119" fill="#4d4d4d" fill-opacity="1" stroke="none"/><rect id="rect4035-9" width="0" height="11" x="497.734" y="587.485" fill="#4d4d4d" fill-opacity="1" stroke="none"/><rect id="rect4035-5-8" width="0" height="11" x="515.775" y="585.434" fill="#4d4d4d" fill-opacity="1" stroke="none"/><rect id="rect4035-8-0" width="0" height="11" x="497.734" y="587.485" fill="#4d4d4d" fill-opacity="1" stroke="none"/><rect id="rect4035-59-1-8" width="0" height="11" x="497.734" y="587.485" fill="#4d4d4d" fill-opacity="1" stroke="none"/><path id="rect4061" fill="#4d4d4d" fill-opacity="1" fill-rule="nonzero" stroke="none" stroke-width="2" d="M 3 3 L 3 19 L 17 19 L 19 19 L 19 17 L 19 3 L 3 3 z M 5 5 L 17 5 L 17 17 L 5 17 L 5 5 z" color="#000" display="inline" enable-background="accumulate" overflow="visible" transform="translate(553.72253,583.11926)" visibility="visible" style="marker:none"/><path id="rect4105" fill="#4d4d4d" fill-opacity="1" fill-rule="nonzero" stroke="none" stroke-width="2" d="m 560.72253,590.11926 0,8 8,0 0,-8 -8,0 z m 2,2 4,0 0,4 -4,0 0,-4 z" color="#000" display="inline" enable-background="accumulate" overflow="visible" visibility="visible" style="marker:none"/><path id="rect4115" fill="#b3b3b3" fill-opacity="1" fill-rule="nonzero" stroke="none" stroke-width="2" d="M 3 3 L 3 4 L 3 18 L 3 19 L 18 19 L 19 19 L 19 18 L 19 4 L 19 3 L 18 3 L 4 3 L 3 3 z M 4 4 L 18 4 L 18 18 L 4 18 L 4 4 z M 7 7 L 7 8 L 7 14 L 7 15 L 15 15 L 15 14 L 15 8 L 15 7 L 14 7 L 8 7 L 7 7 z M 8 8 L 14 8 L 14 14 L 8 14 L 8 8 z" color="#000" display="inline" enable-background="accumulate" overflow="visible" transform="translate(553.72253,583.11926)" visibility="visible" style="marker:none"/></g></svg>