<svg xmlns="http://www.w3.org/2000/svg" xmlns:svg="http://www.w3.org/2000/svg" id="svg2" width="24" height="24" version="1.1" viewBox="0 0 24 24"><metadata id="metadata7"/><g id="layer1" transform="translate(1,-1029.3622)"><path id="rect4253-5" fill="#4d4d4d" fill-opacity="1" stroke="none" stroke-opacity="1" d="m 3,1033.3622 0,7 8,0 0,-7 -8,0 z m 1,1 6,0 0,5 -6,0 0,-5 z"/><path id="path4291-38" fill="#4d4d4d" fill-opacity="1" stroke="none" stroke-opacity="1" d="m 12,1034.4403 0,1.0117 a 6,6 0 0 1 5,5.9102 l 1,0 a 7,7 0 0 0 -6,-6.9219 z m -8,6.9219 a 7,7 0 0 0 6,6.9219 l 0,-1.0117 a 6,6 0 0 1 -5,-5.9102 l -1,0 z"/><path id="rect4071" fill="#1d99f3" fill-opacity="1" stroke="none" d="M 17.5 14 L 17.5 18.085938 L 16 16.585938 L 16 18 L 17.792969 19.792969 L 18 20 L 18.207031 19.792969 L 20 18 L 20 16.585938 L 18.5 18.085938 L 18.5 14 L 17.5 14 z" transform="translate(-1,1029.3622)"/><path id="rect4071-3" fill="#1d99f3" fill-opacity="1" stroke="none" d="m 12.5,1048.3622 0,-4.0859 -1.5,1.5 0,-1.4141 1.792969,-1.793 0.207031,-0.207 0.207031,0.207 1.792969,1.793 0,1.4141 -1.5,-1.5 0,4.0859 -1,0 z"/><rect id="rect4296-8-7" width="1" height="3" x="12" y="1035.362" fill="#4d4d4d" fill-opacity="1" stroke="none" stroke-opacity="1"/><rect id="rect4298-6-0" width="1" height="3" x="9" y="1044.362" fill="#4d4d4d" fill-opacity="1" stroke="none" stroke-opacity="1"/></g></svg>