<svg xmlns="http://www.w3.org/2000/svg" xmlns:svg="http://www.w3.org/2000/svg" id="svg2" width="24" height="24" version="1.1" viewBox="0 0 24 24"><metadata id="metadata7"/><g id="layer1" transform="translate(1,-1029.3622)"><path id="rect4253-0" fill="#4d4d4d" fill-opacity="1" stroke="none" stroke-opacity="1" d="m 3,1033.3622 0,7 8,0 0,-7 -8,0 z m 1,1 6,0 0,5 -6,0 0,-5 z m 8,0.078 0,1.0117 0,2.9102 1,0 0,-2.6445 a 6,6 0 0 1 4,5.6445 l 1,0 a 7,7 0 0 0 -6,-6.9219 z m -8,6.9219 a 7,7 0 0 0 6,6.9219 l 0,-1.0117 0,-2.9102 -1,0 0,2.6445 a 6,6 0 0 1 -4,-5.6445 l -1,0 z m 7,1 0,7 8,0 0,-7 -8,0 z m 1,1 6,0 0,5 -6,0 0,-5 z"/></g></svg>