<svg xmlns="http://www.w3.org/2000/svg" xmlns:svg="http://www.w3.org/2000/svg" id="svg3869" width="22" height="22" version="1.1"><metadata id="metadata3874"/><g id="layer1" transform="translate(-326,-534.3622)"><path id="path4215" fill="#4d4d4d" fill-opacity="1" fill-rule="evenodd" stroke="none" stroke-dasharray="none" stroke-dashoffset="0" stroke-linecap="butt" stroke-linejoin="miter" stroke-miterlimit="4" stroke-opacity="1" stroke-width=".1" d="m 337.00033,537.3622 c -2.03668,0 -3.90944,0.43876 -5.27625,1.32812 -1.3668,0.88936 -2.22569,2.23737 -2.22396,4.02865 0.009,2.02438 1.32046,4.63644 2.90315,6.77083 0.79133,1.06719 1.65119,2.01513 2.45568,2.70573 0.80446,0.6906 1.54892,1.12954 2.13606,1.16667 l 0.005,0 0.005,0 c 0.58714,-0.0372 1.33159,-0.47607 2.13605,-1.16667 0.80447,-0.6906 1.66434,-1.63854 2.45569,-2.70573 1.5827,-2.13439 2.89346,-4.74645 2.90314,-6.77083 7.3e-4,-1.79128 -0.85718,-3.13929 -2.22397,-4.02865 -1.3668,-0.88936 -3.23958,-1.32812 -5.27626,-1.32812 z" baseline-shift="baseline" clip-rule="nonzero" color="#000" color-interpolation="sRGB" color-interpolation-filters="linearRGB" color-rendering="auto" direction="ltr" display="inline" enable-background="accumulate" font-family="sans-serif" font-size="medium" font-stretch="normal" font-style="normal" font-variant="normal" font-weight="normal" image-rendering="auto" letter-spacing="normal" opacity="1" overflow="visible" shape-rendering="auto" text-anchor="start" text-decoration="none" text-rendering="auto" visibility="visible" word-spacing="normal" writing-mode="lr-tb" style="line-height:normal;text-indent:0;text-align:start;text-decoration-line:none;text-decoration-style:solid;text-decoration-color:#000;text-transform:none;block-progression:tb;white-space:normal;isolation:auto;mix-blend-mode:normal;solid-color:#000;solid-opacity:1"/></g></svg>