<svg xmlns="http://www.w3.org/2000/svg" xmlns:svg="http://www.w3.org/2000/svg" id="svg3869" width="22" height="22" version="1.1"><metadata id="metadata3874"/><g id="layer1" transform="translate(-326,-534.3622)"><g id="text4143" fill="#4d4d4d" fill-opacity="1" stroke="none" stroke-linecap="butt" stroke-linejoin="miter" stroke-opacity="1" stroke-width="1" font-family="sans-serif" font-size="7.5" font-style="normal" font-weight="normal" letter-spacing="0" transform="matrix(2.8520499,0,0,2.8520499,-585.27807,-1005.2322)" word-spacing="0" style="line-height:125%"><path id="path4148" fill="#4d4d4d" fill-opacity="1" d="m 325.4775,544.44218 -0.6225,0.9975 0.5025,0.6525 -0.5175,0.39 -0.3675,-0.4875 q -0.525,0.4875 -1.245,0.4875 -0.8175,0 -1.3875,-0.5475 -0.57,-0.5475 -0.57,-1.35 0,-0.465 0.2475,-0.8925 0.2475,-0.4275 0.6825,-0.69 -0.39,-0.5175 -0.39,-0.8925 0,-0.5175 0.3825,-0.8775 0.3825,-0.36 0.915,-0.36 0.45,0 0.7575,0.2625 0.315,0.255 0.4425,0.645 l -0.5925,0.315 q -0.21,-0.5625 -0.6075,-0.5625 -0.255,0 -0.4275,0.1575 -0.1725,0.15 -0.1725,0.42 0,0.255 0.1725,0.48 l 1.7775,2.325 0.48,-0.8025 0.54,0.33 z m -2.25,1.41 q 0.525,0 0.8625,-0.36 l -1.515,-1.9875 q -0.3075,0.1725 -0.495,0.465 -0.18,0.2925 -0.18,0.615 0,0.5475 0.3825,0.9075 0.39,0.36 0.945,0.36 z" font-family="Product Sans" font-stretch="normal" font-style="normal" font-variant="normal" font-weight="normal" style="-inkscape-font-specification:'Product Sans'"/></g></g></svg>