<svg xmlns="http://www.w3.org/2000/svg" xmlns:svg="http://www.w3.org/2000/svg" id="svg3869" width="22" height="22" version="1.1"><metadata id="metadata3874"/><g id="layer1" transform="translate(-326,-534.3622)"><rect id="rect4035" width="0" height="11" x="303.017" y="545.456" fill="#4d4d4d" fill-opacity="1" stroke="none"/><rect id="rect4035-2" width="0" height="11" x="296.876" y="545.722" fill="#4d4d4d" fill-opacity="1" stroke="none"/><rect id="rect4035-5" width="0" height="11" x="314.917" y="543.671" fill="#4d4d4d" fill-opacity="1" stroke="none"/><rect id="rect4035-8" width="0" height="11" x="296.876" y="545.722" fill="#4d4d4d" fill-opacity="1" stroke="none"/><rect id="rect4035-59" width="0" height="11" x="296.876" y="545.722" fill="#4d4d4d" fill-opacity="1" stroke="none"/><rect id="rect4035-9" width="0" height="11" x="296.876" y="545.722" fill="#4d4d4d" fill-opacity="1" stroke="none"/><rect id="rect4035-5-7" width="0" height="11" x="314.917" y="543.671" fill="#4d4d4d" fill-opacity="1" stroke="none"/><rect id="rect4035-9-0" width="0" height="11" x="276.876" y="545.722" fill="#4d4d4d" fill-opacity="1" stroke="none"/><rect id="rect4035-5-7-5" width="0" height="11" x="294.917" y="543.671" fill="#4d4d4d" fill-opacity="1" stroke="none"/><rect id="rect4035-90" width="0" height="11" x="295.017" y="523.456" fill="#4d4d4d" fill-opacity="1" stroke="none"/><rect id="rect4035-1" width="0" height="15.231" x="321" y="541.785" fill="#4d4d4d" fill-opacity="1" stroke="none"/><rect id="rect4035-2-1" width="0" height="15.231" x="312.498" y="542.154" fill="#4d4d4d" fill-opacity="1" stroke="none"/><rect id="rect4035-5-2" width="0" height="15.231" x="337.477" y="539.313" fill="#4d4d4d" fill-opacity="1" stroke="none"/><rect id="rect4035-8-7" width="0" height="15.231" x="312.498" y="542.154" fill="#4d4d4d" fill-opacity="1" stroke="none"/><rect id="rect4035-59-4" width="0" height="15.231" x="312.498" y="542.154" fill="#4d4d4d" fill-opacity="1" stroke="none"/><rect id="rect4035-9-6" width="0" height="15.231" x="312.498" y="542.154" fill="#4d4d4d" fill-opacity="1" stroke="none"/><rect id="rect4035-5-7-8" width="0" height="15.231" x="337.477" y="539.313" fill="#4d4d4d" fill-opacity="1" stroke="none"/><rect id="rect4035-9-0-4" width="0" height="15.231" x="284.806" y="542.154" fill="#4d4d4d" fill-opacity="1" stroke="none"/><rect id="rect4035-5-7-5-8" width="0" height="15.231" x="309.785" y="539.313" fill="#4d4d4d" fill-opacity="1" stroke="none"/><rect id="rect4035-90-8" width="0" height="15.231" x="309.923" y="511.324" fill="#4d4d4d" fill-opacity="1" stroke="none"/><rect id="rect4035-82" width="0" height="11" x="287.893" y="541.255" fill="#4d4d4d" fill-opacity="1" stroke="none"/><rect id="rect4035-2-5" width="0" height="11" x="281.753" y="541.521" fill="#4d4d4d" fill-opacity="1" stroke="none"/><rect id="rect4035-5-0" width="0" height="11" x="299.793" y="539.469" fill="#4d4d4d" fill-opacity="1" stroke="none"/><rect id="rect4035-8-0" width="0" height="11" x="281.753" y="541.521" fill="#4d4d4d" fill-opacity="1" stroke="none"/><rect id="rect4035-59-7" width="0" height="11" x="281.753" y="541.521" fill="#4d4d4d" fill-opacity="1" stroke="none"/><rect id="rect4035-9-9" width="0" height="11" x="281.753" y="541.521" fill="#4d4d4d" fill-opacity="1" stroke="none"/><rect id="rect4035-5-7-6" width="0" height="11" x="299.793" y="539.469" fill="#4d4d4d" fill-opacity="1" stroke="none"/><rect id="rect4035-9-0-1" width="0" height="11" x="261.753" y="541.521" fill="#4d4d4d" fill-opacity="1" stroke="none"/><rect id="rect4035-5-7-5-89" width="0" height="11" x="279.793" y="539.469" fill="#4d4d4d" fill-opacity="1" stroke="none"/><rect id="rect4035-90-7" width="0" height="11" x="279.893" y="519.255" fill="#4d4d4d" fill-opacity="1" stroke="none"/><rect id="rect4035-1-3" width="0" height="15.231" x="305.876" y="537.584" fill="#4d4d4d" fill-opacity="1" stroke="none"/><rect id="rect4035-2-1-3" width="0" height="15.231" x="297.374" y="537.952" fill="#4d4d4d" fill-opacity="1" stroke="none"/><rect id="rect4035-5-2-4" width="0" height="15.231" x="322.354" y="535.112" fill="#4d4d4d" fill-opacity="1" stroke="none"/><rect id="rect4035-8-7-5" width="0" height="15.231" x="297.374" y="537.952" fill="#4d4d4d" fill-opacity="1" stroke="none"/><rect id="rect4035-59-4-5" width="0" height="15.231" x="297.374" y="537.952" fill="#4d4d4d" fill-opacity="1" stroke="none"/><rect id="rect4035-9-6-0" width="0" height="15.231" x="297.374" y="537.952" fill="#4d4d4d" fill-opacity="1" stroke="none"/><rect id="rect4035-5-7-8-5" width="0" height="15.231" x="322.354" y="535.112" fill="#4d4d4d" fill-opacity="1" stroke="none"/><rect id="rect4035-9-0-4-1" width="0" height="15.231" x="269.682" y="537.952" fill="#4d4d4d" fill-opacity="1" stroke="none"/><rect id="rect4035-5-7-5-8-1" width="0" height="15.231" x="294.661" y="535.112" fill="#4d4d4d" fill-opacity="1" stroke="none"/><rect id="rect4035-90-8-7" width="0" height="15.231" x="294.799" y="507.123" fill="#4d4d4d" fill-opacity="1" stroke="none"/><rect id="rect4035-6" width="0" height="11" x="312.094" y="544.956" fill="#4d4d4d" fill-opacity="1" stroke="none"/><rect id="rect4035-2-2" width="0" height="11" x="305.953" y="545.222" fill="#4d4d4d" fill-opacity="1" stroke="none"/><rect id="rect4035-5-3" width="0" height="11" x="323.994" y="543.171" fill="#4d4d4d" fill-opacity="1" stroke="none"/><rect id="rect4035-8-2" width="0" height="11" x="305.953" y="545.222" fill="#4d4d4d" fill-opacity="1" stroke="none"/><rect id="rect4035-59-8" width="0" height="11" x="305.953" y="545.222" fill="#4d4d4d" fill-opacity="1" stroke="none"/><rect id="rect4035-9-7" width="0" height="11" x="305.953" y="545.222" fill="#4d4d4d" fill-opacity="1" stroke="none"/><rect id="rect4035-5-7-67" width="0" height="11" x="323.994" y="543.171" fill="#4d4d4d" fill-opacity="1" stroke="none"/><rect id="rect4035-9-0-10" width="0" height="11" x="285.953" y="545.222" fill="#4d4d4d" fill-opacity="1" stroke="none"/><rect id="rect4035-5-7-5-6" width="0" height="11" x="303.994" y="543.171" fill="#4d4d4d" fill-opacity="1" stroke="none"/><rect id="rect4035-90-3" width="0" height="11" x="304.094" y="522.956" fill="#4d4d4d" fill-opacity="1" stroke="none"/><rect id="rect4035-1-36" width="0" height="15.231" x="330.077" y="541.285" fill="#4d4d4d" fill-opacity="1" stroke="none"/><rect id="rect4035-2-1-8" width="0" height="15.231" x="321.575" y="541.654" fill="#4d4d4d" fill-opacity="1" stroke="none"/><rect id="rect4035-5-2-6" width="0" height="15.231" x="346.555" y="538.813" fill="#4d4d4d" fill-opacity="1" stroke="none"/><rect id="rect4035-8-7-9" width="0" height="15.231" x="321.575" y="541.654" fill="#4d4d4d" fill-opacity="1" stroke="none"/><rect id="rect4035-59-4-4" width="0" height="15.231" x="321.575" y="541.654" fill="#4d4d4d" fill-opacity="1" stroke="none"/><rect id="rect4035-9-6-8" width="0" height="15.231" x="321.575" y="541.654" fill="#4d4d4d" fill-opacity="1" stroke="none"/><rect id="rect4035-5-7-8-7" width="0" height="15.231" x="346.555" y="538.813" fill="#4d4d4d" fill-opacity="1" stroke="none"/><rect id="rect4035-9-0-4-2" width="0" height="15.231" x="293.883" y="541.654" fill="#4d4d4d" fill-opacity="1" stroke="none"/><rect id="rect4035-5-7-5-8-6" width="0" height="15.231" x="318.862" y="538.813" fill="#4d4d4d" fill-opacity="1" stroke="none"/><rect id="rect4035-90-8-5" width="0" height="15.231" x="319" y="510.824" fill="#4d4d4d" fill-opacity="1" stroke="none"/><g id="g4240" transform="matrix(0.99162228,0,0,0.99162228,2.9070688,5.5605141)"><path display="inline" style="line-height:normal;text-indent:0;text-align:start;text-decoration-line:none;text-decoration-style:solid;text-decoration-color:#000;text-transform:none;block-progression:tb;white-space:normal;isolation:auto;mix-blend-mode:normal;solid-color:#000;solid-opacity:1" id="path4261" fill="#1d99f3" fill-opacity="1" fill-rule="evenodd" stroke="none" stroke-dasharray="none" stroke-dashoffset="0" stroke-linecap="butt" stroke-linejoin="miter" stroke-miterlimit="4" stroke-opacity="1" stroke-width="2" d="m 331.67226,537.3622 -4.84123,14 1.16897,0 1.73532,-4.66667 6.03963,0 1.72854,4.66667 1.32754,0 -4.90693,-14 -2.25184,0 z m 1.08967,1.20085 2.58033,6.96582 -5.17198,0 2.59165,-6.96582 z" baseline-shift="baseline" clip-rule="nonzero" color="#000" color-interpolation="sRGB" color-interpolation-filters="linearRGB" color-rendering="auto" direction="ltr" enable-background="accumulate" font-family="sans-serif" font-size="medium" font-stretch="normal" font-style="normal" font-variant="normal" font-weight="normal" image-rendering="auto" letter-spacing="normal" opacity="1" overflow="visible" shape-rendering="auto" text-anchor="start" text-decoration="none" text-rendering="auto" visibility="visible" word-spacing="normal" writing-mode="lr-tb"/><path id="rect4187" fill="#4d4d4d" fill-opacity="1" stroke="none" stroke-dasharray="none" stroke-linecap="square" stroke-miterlimit="4" stroke-opacity="1" stroke-width="2" d="m 339,539.3622 0,8 0,4 1,0 0,-1.36133 a 4,4 0 0 0 3,1.36133 4,4 0 0 0 4,-4 4,4 0 0 0 -4,-4 4,4 0 0 0 -3,1.36133 l 0,-5.36133 -1,0 z m 4,5 a 3,3 0 0 1 3,3 3,3 0 0 1 -3,3 3,3 0 0 1 -3,-3 3,3 0 0 1 3,-3 z" opacity="1"/></g></g></svg>