<svg xmlns="http://www.w3.org/2000/svg" xmlns:osb="http://www.openswatchbook.org/uri/2009/osb" xmlns:svg="http://www.w3.org/2000/svg" id="svg3869" width="22" height="22" version="1.1"><defs id="defs3871"><clipPath id="clipPath16" clipPathUnits="userSpaceOnUse"><path id="path18" d="m 0,706.465 1490.926,0 L 1490.926,0 0,0 0,706.465 Z"/></clipPath><clipPath id="clipPath24" clipPathUnits="userSpaceOnUse"><path id="path26" d="m 22.1953,686.117 1447.7347,0 0,-667.1902 -1447.7347,0 0,667.1902 z"/></clipPath><clipPath id="clipPath4534" clipPathUnits="userSpaceOnUse"><rect id="rect4536" width="32" height="32" x="8" y="8" fill="url(#linearGradient4538)" fill-opacity="1" stroke="none" ry="16"/></clipPath><clipPath id="clipPath4584" clipPathUnits="userSpaceOnUse"><rect id="rect4586" width="32" height="32" x="392.571" y="507.798" fill="url(#linearGradient4588)" fill-opacity="1" stroke="none" ry="16"/></clipPath><clipPath id="clipPath4550" clipPathUnits="userSpaceOnUse"><rect id="rect4552" width="32" height="32" x="392.571" y="507.798" fill="url(#linearGradient4554)" fill-opacity="1" stroke="none" ry="16"/></clipPath><clipPath id="clipPath4568" clipPathUnits="userSpaceOnUse"><rect id="rect4570" width="32" height="32" x="392.571" y="507.798" fill="url(#linearGradient4572)" fill-opacity="1" stroke="none" ry="16"/></clipPath><clipPath id="clipPath4528" clipPathUnits="userSpaceOnUse"><rect id="rect4530" width="32" height="32" x="8" y="8" fill="url(#linearGradient4532)" fill-opacity="1" stroke="none" ry="16"/></clipPath><clipPath id="clipPath4578" clipPathUnits="userSpaceOnUse"><rect id="rect4580" width="32" height="32" x="392.571" y="507.798" fill="url(#linearGradient4582)" fill-opacity="1" stroke="none" ry="16"/></clipPath><clipPath id="clipPath4562" clipPathUnits="userSpaceOnUse"><rect id="rect4564" width="32" height="32" x="392.571" y="507.798" fill="url(#linearGradient4566)" fill-opacity="1" stroke="none" ry="16"/></clipPath><clipPath id="clipPath4544" clipPathUnits="userSpaceOnUse"><rect id="rect4546" width="32" height="32" x="392.571" y="507.798" fill="url(#linearGradient4548)" fill-opacity="1" stroke="none" ry="16"/></clipPath><clipPath id="clipPath4390" clipPathUnits="userSpaceOnUse"><rect id="rect4392" width="32" height="32" x="8" y="8" fill="url(#linearGradient4532)" fill-opacity="1" stroke="none" ry="16"/></clipPath><clipPath id="clipPath4407" clipPathUnits="userSpaceOnUse"><rect id="rect4409" width="32" height="32" x="392.571" y="507.798" fill="url(#linearGradient4582)" fill-opacity="1" stroke="none" ry="16"/></clipPath><clipPath id="clipPath4424" clipPathUnits="userSpaceOnUse"><rect id="rect4426" width="32" height="32" x="392.571" y="507.798" fill="url(#linearGradient4566)" fill-opacity="1" stroke="none" ry="16"/></clipPath><clipPath id="clipPath4441" clipPathUnits="userSpaceOnUse"><rect id="rect4443" width="32" height="32" x="392.571" y="507.798" fill="url(#linearGradient4548)" fill-opacity="1" stroke="none" ry="16"/></clipPath><clipPath id="clipPath4528-1" clipPathUnits="userSpaceOnUse"><rect id="rect4530-7" width="32" height="32" x="8" y="8" fill="url(#linearGradient4532)" fill-opacity="1" stroke="none" ry="16"/></clipPath><clipPath id="clipPath4578-8" clipPathUnits="userSpaceOnUse"><rect id="rect4580-7" width="32" height="32" x="392.571" y="507.798" fill="url(#linearGradient4582)" fill-opacity="1" stroke="none" ry="16"/></clipPath><clipPath id="clipPath4562-8" clipPathUnits="userSpaceOnUse"><rect id="rect4564-8" width="32" height="32" x="392.571" y="507.798" fill="url(#linearGradient4566)" fill-opacity="1" stroke="none" ry="16"/></clipPath><clipPath id="clipPath4544-1" clipPathUnits="userSpaceOnUse"><rect id="rect4546-1" width="32" height="32" x="392.571" y="507.798" fill="url(#linearGradient4548)" fill-opacity="1" stroke="none" ry="16"/></clipPath><linearGradient id="linearGradient4207" osb:paint="gradient"><stop id="stop3371" offset="0" stop-color="#3498db" stop-opacity="1"/><stop id="stop3373" offset="1" stop-color="#3498db" stop-opacity="0"/></linearGradient><clipPath id="clipPath16-0" clipPathUnits="userSpaceOnUse"><path id="path18-2" d="m 0,706.465 1490.926,0 L 1490.926,0 0,0 0,706.465 Z"/></clipPath><clipPath id="clipPath24-0" clipPathUnits="userSpaceOnUse"><path id="path26-9" d="m 22.1953,686.117 1447.7347,0 0,-667.1902 -1447.7347,0 0,667.1902 z"/></clipPath><clipPath id="clipPath4534-0" clipPathUnits="userSpaceOnUse"><rect id="rect4536-1" width="32" height="32" x="8" y="8" fill="url(#linearGradient4538)" fill-opacity="1" stroke="none" ry="16"/></clipPath><clipPath id="clipPath4584-9" clipPathUnits="userSpaceOnUse"><rect id="rect4586-8" width="32" height="32" x="392.571" y="507.798" fill="url(#linearGradient4588)" fill-opacity="1" stroke="none" ry="16"/></clipPath><clipPath id="clipPath4550-8" clipPathUnits="userSpaceOnUse"><rect id="rect4552-1" width="32" height="32" x="392.571" y="507.798" fill="url(#linearGradient4554)" fill-opacity="1" stroke="none" ry="16"/></clipPath><clipPath id="clipPath4568-3" clipPathUnits="userSpaceOnUse"><rect id="rect4570-7" width="32" height="32" x="392.571" y="507.798" fill="url(#linearGradient4572)" fill-opacity="1" stroke="none" ry="16"/></clipPath><clipPath id="clipPath4528-9" clipPathUnits="userSpaceOnUse"><rect id="rect4530-4" width="32" height="32" x="8" y="8" fill="url(#linearGradient4532)" fill-opacity="1" stroke="none" ry="16"/></clipPath><clipPath id="clipPath4578-1" clipPathUnits="userSpaceOnUse"><rect id="rect4580-0" width="32" height="32" x="392.571" y="507.798" fill="url(#linearGradient4582)" fill-opacity="1" stroke="none" ry="16"/></clipPath><clipPath id="clipPath4562-0" clipPathUnits="userSpaceOnUse"><rect id="rect4564-0" width="32" height="32" x="392.571" y="507.798" fill="url(#linearGradient4566)" fill-opacity="1" stroke="none" ry="16"/></clipPath><clipPath id="clipPath4544-0" clipPathUnits="userSpaceOnUse"><rect id="rect4546-5" width="32" height="32" x="392.571" y="507.798" fill="url(#linearGradient4548)" fill-opacity="1" stroke="none" ry="16"/></clipPath><clipPath id="clipPath4390-5" clipPathUnits="userSpaceOnUse"><rect id="rect4392-5" width="32" height="32" x="8" y="8" fill="url(#linearGradient4532)" fill-opacity="1" stroke="none" ry="16"/></clipPath><clipPath id="clipPath4407-4" clipPathUnits="userSpaceOnUse"><rect id="rect4409-9" width="32" height="32" x="392.571" y="507.798" fill="url(#linearGradient4582)" fill-opacity="1" stroke="none" ry="16"/></clipPath><clipPath id="clipPath4424-1" clipPathUnits="userSpaceOnUse"><rect id="rect4426-7" width="32" height="32" x="392.571" y="507.798" fill="url(#linearGradient4566)" fill-opacity="1" stroke="none" ry="16"/></clipPath><clipPath id="clipPath4441-2" clipPathUnits="userSpaceOnUse"><rect id="rect4443-4" width="32" height="32" x="392.571" y="507.798" fill="url(#linearGradient4548)" fill-opacity="1" stroke="none" ry="16"/></clipPath><clipPath id="clipPath4528-1-8" clipPathUnits="userSpaceOnUse"><rect id="rect4530-7-2" width="32" height="32" x="8" y="8" fill="url(#linearGradient4532)" fill-opacity="1" stroke="none" ry="16"/></clipPath><clipPath id="clipPath4578-8-3" clipPathUnits="userSpaceOnUse"><rect id="rect4580-7-1" width="32" height="32" x="392.571" y="507.798" fill="url(#linearGradient4582)" fill-opacity="1" stroke="none" ry="16"/></clipPath><clipPath id="clipPath4562-8-4" clipPathUnits="userSpaceOnUse"><rect id="rect4564-8-5" width="32" height="32" x="392.571" y="507.798" fill="url(#linearGradient4566)" fill-opacity="1" stroke="none" ry="16"/></clipPath><clipPath id="clipPath4544-1-0" clipPathUnits="userSpaceOnUse"><rect id="rect4546-1-4" width="32" height="32" x="392.571" y="507.798" fill="url(#linearGradient4548)" fill-opacity="1" stroke="none" ry="16"/></clipPath></defs><metadata id="metadata3874"/><g id="layer1" transform="translate(-326,-534.3622)"><g id="g4258" transform="translate(-1,1)"><g id="layer1-31"><g id="layer1-58" fill="#fff" fill-opacity="1" transform="translate(-3,0)"><g id="layer1-6-5" fill="#fff" fill-opacity="1" transform="translate(-51.85714,-6.71427)"><path id="path4128" fill="#4d4d4d" fill-opacity="1" stroke="none" d="M 1.1503906 3 C 0.73326062 3 0.3984375 3.3367863 0.3984375 3.7539062 L 0.3984375 18.246094 C 0.3984375 18.663224 0.73326063 19 1.1503906 19 L 20.849609 19 C 21.266739 19 21.601562 18.663224 21.601562 18.246094 L 21.601562 3.7539062 C 21.601562 3.3367863 21.266739 3 20.849609 3 L 1.1503906 3 z M 6 3.5 L 7 3.5 L 7 6.5 L 8 6.5 L 8 9.5 L 9 9.5 L 9 10.5 L 11 10.5 L 11 9.5 L 12 9.5 L 12 8.5 L 13 8.5 L 13 7.5 L 14 7.5 L 14 5.5 L 15 5.5 L 15 6.5 L 16 6.5 L 16 8.5 L 17 8.5 L 17 9.5 L 18 9.5 L 18 10.5 L 19 10.5 L 19 11.5 L 18 11.5 L 18 12.5 L 17 12.5 L 17 13.5 L 16 13.5 L 16 15.5 L 15 15.5 L 15 16.5 L 14 16.5 L 14 14.5 L 13 14.5 L 13 13.5 L 12 13.5 L 12 12.5 L 11 12.5 L 11 11.5 L 9 11.5 L 9 12.5 L 8 12.5 L 8 15.5 L 7 15.5 L 7 18.5 L 6 18.5 L 6 16.5 L 5 16.5 L 5 13.5 L 4 13.5 L 4 11.5 L 3 11.5 L 3 10.5 L 4 10.5 L 4 8.5 L 5 8.5 L 5 5.5 L 6 5.5 L 6 3.5 z" opacity="1" transform="translate(381.85714,540.07647)"/></g></g></g></g></g></svg>