<svg xmlns="http://www.w3.org/2000/svg" xmlns:svg="http://www.w3.org/2000/svg" id="svg3869" width="24" height="24" version="1.1"><defs id="defs3871"><linearGradient id="linearGradient3257"><stop id="stop3259" offset="0" stop-color="#a50000" stop-opacity="1"/><stop id="stop3261" offset="1" stop-color="#e73800" stop-opacity="1"/></linearGradient></defs><metadata id="metadata3874"/><g id="layer1" transform="translate(-326,-532.3622)"><g id="layer1-4" transform="translate(327,-497)"><path id="path4174" fill="#4d4d4d" fill-opacity="1" stroke="none" d="M 4,3 C 3.4477153,3 3,3.4477153 3,4 3,4.5522847 3.4477153,5 4,5 4.5522847,5 5,4.5522847 5,4 5,3.4477153 4.5522847,3 4,3 Z m 6,0 0,1 9,0 0,-1 z m 0,2 0,1 6,0 0,-1 z M 4,9 C 3.4477153,9 3,9.4477153 3,10 3,10.552285 3.4477153,11 4,11 4.5522847,11 5,10.552285 5,10 5,9.4477153 4.5522847,9 4,9 Z m 6,0 0,1 9,0 0,-1 z m 0,2 0,1 2,0 0,-1 z m -6,4 c -0.5522847,0 -1,0.447715 -1,1 0,0.552285 0.4477153,1 1,1 0.5522847,0 1,-0.447715 1,-1 0,-0.552285 -0.4477153,-1 -1,-1 z m 6,0 0,1 9,0 0,-1 z m 0,2 0,1 6,0 0,-1 z m 7,1 0,1 2,0 0,-1 z" opacity="1" transform="translate(0,1030.3622)"/></g></g></svg>