<svg xmlns="http://www.w3.org/2000/svg" xmlns:svg="http://www.w3.org/2000/svg" id="svg3869" width="24" height="24" version="1.1"><defs id="defs3871"><linearGradient id="linearGradient3257"><stop id="stop3259" offset="0" stop-color="#a50000" stop-opacity="1"/><stop id="stop3261" offset="1" stop-color="#e73800" stop-opacity="1"/></linearGradient></defs><metadata id="metadata3874"/><g id="layer1" transform="translate(-326,-532.3622)"><g id="layer1-4" transform="translate(327,-497)"><path id="rect4191" fill="#4d4d4d" fill-opacity="1" stroke="none" d="m 9,3 0,1 -6,0 0,1 6,0 0,2 4,0 0,-2 6,0 0,-1 -6,0 0,-1 -4,0 z m 1,1 2,0 0,1 0,1 -2,0 0,-2 z m -7,12 0,3 3,0 0,-1 3,0 0,-1 -3,0 0,-1 -3,0 z m 13,0 0,1 -3,0 0,1 3,0 0,1 3,0 0,-3 -3,0 z m -12,1 1,0 0,1 -1,0 0,-1 z m 13,0 1,0 0,1 -1,0 0,-1 z" opacity="1" transform="translate(0,1030.3622)"/><path id="path4133-6-5" fill="#1d99f3" fill-opacity="1" fill-rule="evenodd" stroke="none" stroke-linecap="butt" stroke-linejoin="miter" stroke-opacity="1" stroke-width="1" d="m 9,1039.8622 2,3 2,-3 z"/></g></g></svg>