<svg xmlns="http://www.w3.org/2000/svg" xmlns:svg="http://www.w3.org/2000/svg" id="svg3869" width="24" height="24" version="1.1"><defs id="defs3871"><linearGradient id="linearGradient3257"><stop id="stop3259" offset="0" stop-color="#a50000" stop-opacity="1"/><stop id="stop3261" offset="1" stop-color="#e73800" stop-opacity="1"/></linearGradient></defs><metadata id="metadata3874"/><g id="layer1" transform="translate(-326,-532.3622)"><g id="layer1-88" transform="translate(327,-497)"><path id="rect4191" fill="#4d4d4d" fill-opacity="1" stroke="none" d="m 9,1039.3622 0,1 -6,0 0,1 6,0 0,2 4,0 0,-2 6,0 0,-1 -6,0 0,-1 z m 1,1 2,0 0,1 0,1 -2,0 z" opacity="1"/><g id="layer1-8" fill="#da4453" fill-opacity="1" transform="translate(-765.33476,351.28573)"><path id="rect4126" fill="#da4453" fill-opacity="1" stroke="none" d="m 779.32499,692.07647 -0.99023,0.99023 2.00976,2.00977 -2.00976,2.00977 0.99023,0.99023 2.00977,-2.00977 2.00976,2.00977 0.99024,-0.99023 -2.00977,-2.00977 2.00977,-2.00977 -0.99024,-0.99023 -2.00976,2.00977 -2.00977,-2.00977 z" opacity="1"/></g></g></g></svg>