<svg xmlns="http://www.w3.org/2000/svg" xmlns:svg="http://www.w3.org/2000/svg" id="svg3869" width="24" height="24" version="1.1"><defs id="defs3871"><linearGradient id="linearGradient3257"><stop id="stop3259" offset="0" stop-color="#a50000" stop-opacity="1"/><stop id="stop3261" offset="1" stop-color="#e73800" stop-opacity="1"/></linearGradient><clipPath id="clipPath4210" clipPathUnits="userSpaceOnUse"><rect id="rect4212" width="34" height="34" x="-7" y="1024.362" fill="#00f" fill-opacity=".514" stroke="none" stroke-opacity="1" opacity="1"/></clipPath></defs><metadata id="metadata3874"/><g id="layer1" transform="translate(-326,-532.3622)"><g id="layer1-9" transform="translate(327,-497)"><path id="rect3346" fill="#4d4d4d" fill-opacity="1" stroke="none" stroke-dasharray="none" stroke-linecap="round" stroke-linejoin="miter" stroke-miterlimit="4" stroke-opacity=".299" stroke-width=".1" d="M 8,3 C 8,3 3,3 3,8 3.9988232,6.0023537 4.9984639,5.0023509 7.9902344,5 7.9782762,15.936865 5.002485,16.692212 5,18.4375 c 1.5008252,1.1521 3.8453725,0.5135 4.0175781,-1.75 L 9.9941406,5 13.978516,5 13,16.75 c 0,3 4,3 5,0 l 1,-3 c -1,2 -3.999835,4.999966 -3.912109,1.947266 L 15.978516,5 19,5 19,3 8,3 Z" opacity="1" transform="translate(0,1030.3622)"/></g></g></svg>