<svg xmlns="http://www.w3.org/2000/svg" xmlns:svg="http://www.w3.org/2000/svg" xmlns:xlink="http://www.w3.org/1999/xlink" id="svg3869" width="22" height="22" version="1.1"><defs id="defs3871"><clipPath id="clipPath4160" clipPathUnits="userSpaceOnUse"><rect id="rect4162" width="1" height="1" x="7" y="1023.362" fill="#f2f2f2" fill-opacity="1" stroke="none" stroke-opacity="1" opacity="1"/></clipPath><clipPath id="clipPath4160-4" clipPathUnits="userSpaceOnUse"><rect id="rect4162-9" width="1" height="1" x="7" y="1023.362" fill="#f2f2f2" fill-opacity="1" stroke="none" stroke-opacity="1" opacity="1"/></clipPath><clipPath id="clipPath4160-3" clipPathUnits="userSpaceOnUse"><rect id="rect4162-0" width="1" height="1" x="7" y="1023.362" fill="#f2f2f2" fill-opacity="1" stroke="none" stroke-opacity="1" opacity="1"/></clipPath><linearGradient id="linearGradient4012"><stop id="stop4014" offset="0" stop-color="#1d99f3" stop-opacity="1"/><stop id="stop4016" offset=".417" stop-color="#48acf5" stop-opacity=".761"/><stop id="stop4018" offset=".667" stop-color="#73c0f7" stop-opacity="0"/><stop id="stop4020" offset="1" stop-color="#cae7fc" stop-opacity="0"/></linearGradient><linearGradient id="linearGradient4164" x1="3" x2="19" y1="1049.362" y2="1033.362" gradientTransform="matrix(0.75,0,0,0.75,1.7499999,269.34054)" gradientUnits="userSpaceOnUse" xlink:href="#linearGradient4012"/><linearGradient id="linearGradient3983" x1="3" x2="24.333" y1="1049.362" y2="1028.029" gradientTransform="matrix(0.75,0,0,0.75,2.7499999,262.34058)" gradientUnits="userSpaceOnUse" xlink:href="#linearGradient4012"/><linearGradient id="linearGradient4007" x1="3" x2="24.333" y1="1049.362" y2="1028.029" gradientTransform="matrix(0.75,0,0,0.75,3.7499999,-767.02162)" gradientUnits="userSpaceOnUse" xlink:href="#linearGradient4012"/><linearGradient id="linearGradient4164-76" x1="3" x2="19" y1="1049.362" y2="1033.362" gradientTransform="matrix(0.75,0,0,0.75,3.7499999,-769.02166)" gradientUnits="userSpaceOnUse" xlink:href="#linearGradient4012"/></defs><metadata id="metadata3874"/><g id="layer1" transform="translate(-326,-534.3622)"><g id="layer1-9" transform="matrix(0.66666661,0,0,0.66666661,69.952403,190.83023)"><rect id="rect4035" width="0" height="16.5" x="327.869" y="522.229" fill="#49535a" fill-opacity="1" stroke="none"/><rect id="rect4035-5" width="0" height="16.5" x="354.93" y="519.152" fill="#49535a" fill-opacity="1" stroke="none"/><rect id="rect4035-8" width="0" height="16.5" x="327.869" y="522.229" fill="#49535a" fill-opacity="1" stroke="none"/><rect id="rect4035-59" width="0" height="16.5" x="327.869" y="522.229" fill="#49535a" fill-opacity="1" stroke="none"/><rect id="rect4035-6" width="0" height="16.5" x="316.907" y="514.977" fill="#49535a" fill-opacity="1" stroke="none"/><rect id="rect4035-5-1" width="0" height="16.5" x="343.968" y="511.9" fill="#49535a" fill-opacity="1" stroke="none"/><rect id="rect4035-8-3" width="0" height="16.5" x="316.907" y="514.977" fill="#49535a" fill-opacity="1" stroke="none"/><rect id="rect4035-59-4" width="0" height="16.5" x="316.907" y="514.977" fill="#49535a" fill-opacity="1" stroke="none"/><rect id="rect4035-1" width="0" height="16.5" x="325.93" y="521.301" fill="#49535a" fill-opacity="1" stroke="none"/><rect id="rect4035-5-0" width="0" height="16.5" x="352.991" y="518.224" fill="#49535a" fill-opacity="1" stroke="none"/><rect id="rect4035-8-1" width="0" height="16.5" x="325.93" y="521.301" fill="#49535a" fill-opacity="1" stroke="none"/><rect id="rect4035-59-1" width="0" height="16.5" x="325.93" y="521.301" fill="#49535a" fill-opacity="1" stroke="none"/><rect id="rect4035-7" width="0" height="16.5" x="327.869" y="522.229" fill="#49535a" fill-opacity="1" stroke="none"/><rect id="rect4035-5-7" width="0" height="16.5" x="354.93" y="519.152" fill="#49535a" fill-opacity="1" stroke="none"/><rect id="rect4035-8-16" width="0" height="16.5" x="327.869" y="522.229" fill="#49535a" fill-opacity="1" stroke="none"/><rect id="rect4035-59-18" width="0" height="16.5" x="327.869" y="522.229" fill="#49535a" fill-opacity="1" stroke="none"/><rect id="rect4035-6-5" width="0" height="16.5" x="316.907" y="514.977" fill="#49535a" fill-opacity="1" stroke="none"/><rect id="rect4035-5-1-8" width="0" height="16.5" x="343.968" y="511.9" fill="#49535a" fill-opacity="1" stroke="none"/><rect id="rect4035-8-3-8" width="0" height="16.5" x="316.907" y="514.977" fill="#49535a" fill-opacity="1" stroke="none"/><rect id="rect4035-59-4-7" width="0" height="16.5" x="316.907" y="514.977" fill="#49535a" fill-opacity="1" stroke="none"/><rect id="rect4035-1-7" width="0" height="16.5" x="325.93" y="521.301" fill="#49535a" fill-opacity="1" stroke="none"/><rect id="rect4035-5-0-8" width="0" height="16.5" x="352.991" y="518.224" fill="#49535a" fill-opacity="1" stroke="none"/><rect id="rect4035-8-1-0" width="0" height="16.5" x="325.93" y="521.301" fill="#49535a" fill-opacity="1" stroke="none"/><rect id="rect4035-59-1-3" width="0" height="16.5" x="325.93" y="521.301" fill="#49535a" fill-opacity="1" stroke="none"/><rect id="rect4035-0" width="0" height="16.5" x="324.071" y="527.298" fill="#49535a" fill-opacity="1" stroke="none"/><rect id="rect4035-5-5" width="0" height="16.5" x="351.133" y="524.221" fill="#49535a" fill-opacity="1" stroke="none"/><rect id="rect4035-8-6" width="0" height="16.5" x="324.071" y="527.298" fill="#49535a" fill-opacity="1" stroke="none"/><rect id="rect4035-59-11" width="0" height="16.5" x="324.071" y="527.298" fill="#49535a" fill-opacity="1" stroke="none"/><rect id="rect4035-9" width="0" height="16.5" x="300.089" y="521.847" fill="#49535a" fill-opacity="1" stroke="none"/><rect id="rect4035-5-8" width="0" height="16.5" x="327.15" y="518.77" fill="#49535a" fill-opacity="1" stroke="none"/><rect id="rect4035-8-0" width="0" height="16.5" x="300.089" y="521.847" fill="#49535a" fill-opacity="1" stroke="none"/><rect id="rect4035-59-1-8" width="0" height="16.5" x="300.089" y="521.847" fill="#49535a" fill-opacity="1" stroke="none"/><rect id="rect4035-3" width="0" height="16.5" x="327.869" y="522.229" fill="#49535a" fill-opacity="1" stroke="none"/><rect id="rect4035-5-2" width="0" height="16.5" x="354.93" y="519.152" fill="#49535a" fill-opacity="1" stroke="none"/><rect id="rect4035-8-7" width="0" height="16.5" x="327.869" y="522.229" fill="#49535a" fill-opacity="1" stroke="none"/><rect id="rect4035-59-43" width="0" height="16.5" x="327.869" y="522.229" fill="#49535a" fill-opacity="1" stroke="none"/><rect id="rect4035-6-2" width="0" height="16.5" x="316.907" y="514.977" fill="#49535a" fill-opacity="1" stroke="none"/><rect id="rect4035-5-1-6" width="0" height="16.5" x="343.968" y="511.9" fill="#49535a" fill-opacity="1" stroke="none"/><rect id="rect4035-8-3-4" width="0" height="16.5" x="316.907" y="514.977" fill="#49535a" fill-opacity="1" stroke="none"/><rect id="rect4035-59-4-8" width="0" height="16.5" x="316.907" y="514.977" fill="#49535a" fill-opacity="1" stroke="none"/><rect id="rect4035-1-8" width="0" height="16.5" x="325.93" y="521.301" fill="#49535a" fill-opacity="1" stroke="none"/><rect id="rect4035-5-0-0" width="0" height="16.5" x="352.991" y="518.224" fill="#49535a" fill-opacity="1" stroke="none"/><rect id="rect4035-8-1-3" width="0" height="16.5" x="325.93" y="521.301" fill="#49535a" fill-opacity="1" stroke="none"/><rect id="rect4035-59-1-1" width="0" height="16.5" x="325.93" y="521.301" fill="#49535a" fill-opacity="1" stroke="none"/><rect id="rect4035-89" width="0" height="11" x="362.491" y="541.725" fill="#4d4d4d" fill-opacity="1" stroke="none"/><rect id="rect4035-5-9" width="0" height="11" x="380.532" y="539.673" fill="#4d4d4d" fill-opacity="1" stroke="none"/><rect id="rect4035-8-8" width="0" height="11" x="362.491" y="541.725" fill="#4d4d4d" fill-opacity="1" stroke="none"/><rect id="rect4035-59-7" width="0" height="11" x="362.491" y="541.725" fill="#4d4d4d" fill-opacity="1" stroke="none"/><rect id="rect4035-6-6" width="0" height="11" x="355.183" y="536.89" fill="#4d4d4d" fill-opacity="1" stroke="none"/><rect id="rect4035-5-1-0" width="0" height="11" x="373.224" y="534.839" fill="#4d4d4d" fill-opacity="1" stroke="none"/><rect id="rect4035-8-3-7" width="0" height="11" x="355.183" y="536.89" fill="#4d4d4d" fill-opacity="1" stroke="none"/><rect id="rect4035-59-4-84" width="0" height="11" x="355.183" y="536.89" fill="#4d4d4d" fill-opacity="1" stroke="none"/><rect id="rect4035-1-3" width="0" height="11" x="361.198" y="541.106" fill="#4d4d4d" fill-opacity="1" stroke="none"/><rect id="rect4035-5-0-1" width="0" height="11" x="379.239" y="539.055" fill="#4d4d4d" fill-opacity="1" stroke="none"/><rect id="rect4035-8-1-01" width="0" height="11" x="361.198" y="541.106" fill="#4d4d4d" fill-opacity="1" stroke="none"/><rect id="rect4035-59-1-7" width="0" height="11" x="361.198" y="541.106" fill="#4d4d4d" fill-opacity="1" stroke="none"/><rect id="rect4215" width="22.965" height="22.965" x="389.089" y="520.315" fill="#4d4d4d" fill-opacity="1" fill-rule="evenodd" stroke="#0092ff" stroke-dasharray="none" stroke-dashoffset="0" stroke-linecap="round" stroke-linejoin="round" stroke-miterlimit="4" stroke-opacity="1" stroke-width="1.035" opacity="1"/></g></g></svg>