<svg xmlns="http://www.w3.org/2000/svg" xmlns:svg="http://www.w3.org/2000/svg" id="svg3760" width="22" height="22" version="1.1"><metadata id="metadata3765"/><g id="layer1" transform="translate(-553.72253,-583.11926)"><g id="g4182" transform="translate(1.28968,-1.16913)"><path id="rect4457" fill="#4d4d4d" fill-opacity="1" stroke="none" stroke-linecap="round" d="m 562.43285,590.28839 a 2,2 0 0 0 -2,2 l 0,1 0,2 2,0 0,-2 -1,0 0,-1 a 1,1 0 0 1 1,-1 l 0,-1 z" opacity="1"/><path id="rect4457-4" fill="#4d4d4d" fill-opacity="1" stroke="none" stroke-linecap="round" d="m 566.43285,590.28839 a 2,2 0 0 0 -2,2 l 0,1 0,2 2,0 0,-2 -1,0 0,-1 a 1,1 0 0 1 1,-1 l 0,-1 z" opacity="1"/></g></g></svg>