<svg xmlns="http://www.w3.org/2000/svg" xmlns:osb="http://www.openswatchbook.org/uri/2009/osb" xmlns:svg="http://www.w3.org/2000/svg" id="svg3869" width="22" height="22" version="1.1"><defs id="defs3871"><linearGradient id="linearGradient3257"><stop id="stop3259" offset="0" stop-color="#a50000" stop-opacity="1"/><stop id="stop3261" offset="1" stop-color="#e73800" stop-opacity="1"/></linearGradient><clipPath id="clipPath4210" clipPathUnits="userSpaceOnUse"><rect id="rect4212" width="34" height="34" x="-7" y="1024.362" fill="#00f" fill-opacity=".514" stroke="none" stroke-opacity="1" opacity="1"/></clipPath><clipPath id="clipPath4160" clipPathUnits="userSpaceOnUse"><rect id="rect4162" width="32" height="32" x="-6" y="1028.362" fill="#aade87" fill-opacity=".472" stroke="none" stroke-opacity="1" opacity="1"/></clipPath><linearGradient id="linearGradient4207" osb:paint="gradient"><stop id="stop3371" offset="0" stop-color="#3498db" stop-opacity="1"/><stop id="stop3373" offset="1" stop-color="#3498db" stop-opacity="0"/></linearGradient></defs><metadata id="metadata3874"/><g id="layer1" transform="translate(-326,-534.3622)"><g id="layer1-4" transform="translate(-224.28572,-74.2857)"><g id="g4174" transform="translate(-0.99998557,1.0000118)"><path id="rect4151" fill="#4d4d4d" fill-opacity="1" fill-rule="evenodd" stroke="none" stroke-dasharray="none" stroke-dashoffset="0" stroke-linecap="square" stroke-linejoin="miter" stroke-miterlimit="4" stroke-opacity="1" stroke-width=".8" d="M 3.5 3 C 3.223 3 3 3.223 3 3.5 L 3 18.5 C 3 18.777 3.223 19 3.5 19 L 18.5 19 C 18.777 19 19 18.777 19 18.5 L 19 3.5 C 19 3.223 18.777 3 18.5 3 L 3.5 3 z M 6.2675781 6 L 15.707031 6 C 15.851767 6 15.96875 6.1169826 15.96875 6.2617188 L 15.96875 7.6074219 C 15.96875 7.752158 15.851767 7.8671875 15.707031 7.8671875 L 6.2675781 7.8671875 C 6.122842 7.8671875 6.0058594 7.752158 6.0058594 7.6074219 L 6.0058594 6.2617188 C 6.0058594 6.1169826 6.122842 6 6.2675781 6 z M 6.2773438 8.7695312 L 15.71875 8.7695312 C 15.863486 8.7695312 15.978516 8.8865139 15.978516 9.03125 L 15.978516 10.376953 C 15.978516 10.521689 15.863486 10.638672 15.71875 10.638672 L 6.2773438 10.638672 C 6.1326076 10.638672 6.015625 10.521689 6.015625 10.376953 L 6.015625 9.03125 C 6.015625 8.8865139 6.1326076 8.7695312 6.2773438 8.7695312 z M 6.2929688 11.402344 L 15.732422 11.402344 C 15.877158 11.402344 15.994141 11.517373 15.994141 11.662109 L 15.994141 13.007812 C 15.994141 13.152549 15.877158 13.269531 15.732422 13.269531 L 6.2929688 13.269531 C 6.1482326 13.269531 6.03125 13.152549 6.03125 13.007812 L 6.03125 11.662109 C 6.03125 11.517373 6.1482326 11.402344 6.2929688 11.402344 z M 6.2714844 14.132812 L 15.712891 14.132812 C 15.857627 14.132812 15.974609 14.247842 15.974609 14.392578 L 15.974609 15.738281 C 15.974609 15.883017 15.857627 16 15.712891 16 L 6.2714844 16 C 6.1267482 16 6.0117188 15.883017 6.0117188 15.738281 L 6.0117188 14.392578 C 6.0117188 14.247842 6.1267482 14.132812 6.2714844 14.132812 z" opacity="1" transform="translate(551.28571,607.64789)"/></g></g></g></svg>