<svg xmlns="http://www.w3.org/2000/svg" xmlns:svg="http://www.w3.org/2000/svg" id="svg3869" width="22" height="22" version="1.1"><defs id="defs3871"><linearGradient id="linearGradient3257"><stop id="stop3259" offset="0" stop-color="#a50000" stop-opacity="1"/><stop id="stop3261" offset="1" stop-color="#e73800" stop-opacity="1"/></linearGradient><clipPath id="clipPath4210" clipPathUnits="userSpaceOnUse"><rect id="rect4212" width="34" height="34" x="-7" y="1024.362" fill="#00f" fill-opacity=".514" stroke="none" stroke-opacity="1" opacity="1"/></clipPath><clipPath id="clipPath4160" clipPathUnits="userSpaceOnUse"><rect id="rect4162" width="32" height="32" x="-6" y="1028.362" fill="#aade87" fill-opacity=".472" stroke="none" stroke-opacity="1" opacity="1"/></clipPath><linearGradient id="linearGradient5263"><stop id="stop5265" offset="0" stop-color="#a0d5ff" stop-opacity="1"/><stop id="stop5267" offset="1" stop-color="#a0d5ff" stop-opacity="1"/></linearGradient></defs><metadata id="metadata3874"/><g id="layer1" transform="translate(-326,-534.3622)"><g id="layer1-1" transform="matrix(0,-1.082475,-1.082475,0,377.47774,557.4705)"><g id="g4159" fill="#4d4d4d" fill-opacity="1" transform="matrix(1.1159221,0,0,1.1159221,26.213927,-0.94910325)"><g id="g3" fill="#4d4d4d" fill-opacity="1" transform="matrix(1.059844e-4,0.02931409,-0.02931409,1.059844e-4,-6.857956,26.193303)"><path id="path5" fill="#4d4d4d" fill-opacity="1" d="M 345.441,248.292 151.154,442.573 c -12.359,12.365 -32.397,12.365 -44.75,0 -12.354,-12.354 -12.354,-32.391 0,-44.744 L 278.318,225.92 106.409,54.017 c -12.354,-12.359 -12.354,-32.394 0,-44.748 12.354,-12.359 32.391,-12.359 44.75,0 l 194.287,194.284 c 6.177,6.18 9.262,14.271 9.262,22.366 0,8.099 -3.091,16.196 -9.267,22.373 z"/></g><path id="path13" fill="#4d4d4d" fill-opacity="1" d="m -18.812407,38.473359 c -0.158027,0.1928 -0.202001,0.442718 -0.117535,0.668484 l 0.0069,0.0183 c 0.115993,0.309981 0.443787,0.516795 0.815238,0.515017 l 9.4012645,-0.02735 c 0.2711596,-0.0013 0.5276441,-0.117044 0.6860443,-0.310015 0.1580923,-0.19282 0.202001,-0.442719 0.1175024,-0.668544 l -0.00695,-0.01824 c -0.1159959,-0.3101 -0.4438343,-0.517222 -0.8152855,-0.515444 l -9.4020077,0.02731 c -0.271298,0.0019 -0.527278,0.117838 -0.685215,0.310484 z"/></g></g></g></svg>