<svg xmlns="http://www.w3.org/2000/svg" xmlns:svg="http://www.w3.org/2000/svg" id="svg3869" width="24" height="24" version="1.1"><defs id="defs3871"><linearGradient id="linearGradient3257"><stop id="stop3259" offset="0" stop-color="#a50000" stop-opacity="1"/><stop id="stop3261" offset="1" stop-color="#e73800" stop-opacity="1"/></linearGradient><clipPath id="clipPath4210" clipPathUnits="userSpaceOnUse"><rect id="rect4212" width="34" height="34" x="-7" y="1024.362" fill="#00f" fill-opacity=".514" stroke="none" stroke-opacity="1" opacity="1"/></clipPath><clipPath id="clipPath4160" clipPathUnits="userSpaceOnUse"><rect id="rect4162" width="32" height="32" x="-6" y="1028.362" fill="#aade87" fill-opacity=".472" stroke="none" stroke-opacity="1" opacity="1"/></clipPath></defs><metadata id="metadata3874"/><g id="layer1" transform="translate(-326,-532.3622)"><g id="layer1-3" transform="translate(-51.85714,-6.71427)"><path id="rect4108" fill="#4d4d4d" fill-opacity="1" stroke="none" d="m 3,3 0,1 0,6 1,0 15,0 L 19,9 19,3 18,3 4,3 3,3 Z M 4,4 18,4 18,9 4,9 4,4 Z m -1,7 0,8 5,-4 -5,-4 z m 8,1 0,3 2,0 0,-3 -2,0 z m 4,0 0,3 4,0 0,-3 -4,0 z" opacity="1" transform="translate(378.85714,540.07647)"/></g></g></svg>