<svg xmlns="http://www.w3.org/2000/svg" xmlns:svg="http://www.w3.org/2000/svg" id="svg3869" width="22" height="22" version="1.1"><defs id="defs3871"><linearGradient id="linearGradient3257"><stop id="stop3259" offset="0" stop-color="#a50000" stop-opacity="1"/><stop id="stop3261" offset="1" stop-color="#e73800" stop-opacity="1"/></linearGradient><clipPath id="clipPath4210" clipPathUnits="userSpaceOnUse"><rect id="rect4212" width="34" height="34" x="-7" y="1024.362" fill="#00f" fill-opacity=".514" stroke="none" stroke-opacity="1" opacity="1"/></clipPath><clipPath id="clipPath4160" clipPathUnits="userSpaceOnUse"><rect id="rect4162" width="32" height="32" x="-6" y="1028.362" fill="#aade87" fill-opacity=".472" stroke="none" stroke-opacity="1" opacity="1"/></clipPath></defs><metadata id="metadata3874"/><g id="layer1" transform="translate(-326,-534.3622)"><g id="layer1-6" transform="translate(-52.85714,-5.71427)"><path id="rect4109" fill="#4d4d4d" fill-opacity="1" stroke="none" d="m 398.85714,543.07647 0,16 -14,0 -4,-8 4,-8 14,0 z m -5.42773,4 0,0.5918 c 0.7107,0 0.7207,0.23916 0.7207,1.10547 l 0,1.01757 c 0,0.41547 0.12362,1.03272 0.72266,1.28907 -0.59904,0.25635 -0.72266,0.87555 -0.72266,1.29101 l 0,1.00781 c 0,0.86631 -0.01,1.10547 -0.7207,1.10547 l 0,0.5918 c 1.06609,0 1.51367,-0.35225 1.51367,-1.25391 l 0,-1.22265 c 0,-0.55691 0.0205,-1.20117 0.60937,-1.20117 l 0.30469,0 0,-0.64454 -0.30469,0 c -0.58887,0 -0.60937,-0.64426 -0.60937,-1.20117 l 0,-1.22265 c 0,-0.90166 -0.44758,-1.25391 -1.51367,-1.25391 z m -3.13672,0 c -1.0661,0 -1.52149,0.35225 -1.52149,1.25391 l 0,1.22265 c 10e-6,0.55691 -0.0404,1.20117 -0.61914,1.20117 l -0.29492,0 0,0.64454 0.29492,0 c 0.57874,0 0.61914,0.64426 0.61914,1.20117 l 0,1.22265 c 10e-6,0.90166 0.45539,1.25391 1.52149,1.25391 l 0,-0.5918 c -0.71082,0 -0.72852,-0.23916 -0.72852,-1.10547 l 0,-1.00781 c 0,-0.41546 -0.12361,-1.03466 -0.72265,-1.29101 0.59904,-0.25635 0.72265,-0.8736 0.72265,-1.28907 l 0,-1.01757 c 0,-0.86631 0.0178,-1.10547 0.72852,-1.10547 l 0,-0.5918 z" opacity="1"/></g></g></svg>