<svg xmlns="http://www.w3.org/2000/svg" xmlns:svg="http://www.w3.org/2000/svg" id="svg3869" width="22" height="22" version="1.1"><defs id="defs3871"><linearGradient id="linearGradient3257"><stop id="stop3259" offset="0" stop-color="#a50000" stop-opacity="1"/><stop id="stop3261" offset="1" stop-color="#e73800" stop-opacity="1"/></linearGradient><clipPath id="clipPath4210" clipPathUnits="userSpaceOnUse"><rect id="rect4212" width="34" height="34" x="-7" y="1024.362" fill="#00f" fill-opacity=".514" stroke="none" stroke-opacity="1" opacity="1"/></clipPath><clipPath id="clipPath4160" clipPathUnits="userSpaceOnUse"><rect id="rect4162" width="32" height="32" x="-6" y="1028.362" fill="#aade87" fill-opacity=".472" stroke="none" stroke-opacity="1" opacity="1"/></clipPath><clipPath id="clipPath4160-4" clipPathUnits="userSpaceOnUse"><rect id="rect4162-5" width="1" height="1" x="7" y="1023.362" fill="#f2f2f2" fill-opacity="1" stroke="none" stroke-opacity="1" opacity="1"/></clipPath><clipPath id="clipPath16" clipPathUnits="userSpaceOnUse"><path id="path18" d="m 0,706.465 1490.926,0 L 1490.926,0 0,0 0,706.465 Z"/></clipPath><clipPath id="clipPath24" clipPathUnits="userSpaceOnUse"><path id="path26" d="m 22.1953,686.117 1447.7347,0 0,-667.1902 -1447.7347,0 0,667.1902 z"/></clipPath><clipPath id="clipPath4160-3" clipPathUnits="userSpaceOnUse"><rect id="rect4162-58" width="1" height="1" x="7" y="1023.362" fill="#f2f2f2" fill-opacity="1" stroke="none" stroke-opacity="1" opacity="1"/></clipPath><clipPath id="clipPath4160-2" clipPathUnits="userSpaceOnUse"><rect id="rect4162-4" width="1" height="1" x="7" y="1023.362" fill="#f2f2f2" fill-opacity="1" stroke="none" stroke-opacity="1" opacity="1"/></clipPath></defs><metadata id="metadata3874"/><g id="layer1" transform="translate(-326,-534.3622)"><g id="g3" transform="matrix(0.01742619,0,0,0.01742619,329,537.3622)"><g id="g5"><g id="g9" fill="#4d4d4d" fill-opacity="1" transform="matrix(0,1,-1,0,918.15858,6.6889782e-5)"><g id="g11" fill="#4d4d4d" fill-opacity="1"><path id="path13" fill="#4d4d4d" fill-opacity="1" d="m 862.379,228.529 39.4,-37.6 c 13.899,-13.3 8.2,-36.7 -10.2,-42.1 l -227.9,-66.8 c -18.5,-5.4 -35.899,11.2 -31.3,29.9 l 56,230.7 c 4.5,18.7 27.601,25.5 41.601,12.2 l 32.699,-31.2 c 12,31 19.801,63.6 23.301,97.5 6.5,62.2 -2.301,125.399 -25.601,183 -19.6,48.5 -49.399,92.898 -86.8,129.699 -9.4,9.301 -10.1,24.301 -1.4,34.301 l 52.5,60.5 c 9.4,10.799 25.9,11.5 36.301,1.6 51.8,-49.9 93,-110.701 120,-177.201 31.3,-77.199 43.1,-162 34.399,-245.399 -6.7,-63.3 -24.5,-123.3 -53,-179.1 z"/></g><path id="path15" fill="#4d4d4d" fill-opacity="1" d="m 55.779,689.63 -39.4,37.6 c -13.9,13.299 -8.2,36.699 10.2,42.1 l 227.9,66.801 c 18.5,5.398 35.9,-11.201 31.3,-29.9 l -56,-230.701 c -4.5,-18.699 -27.6,-25.5 -41.6,-12.199 l -32.7,31.199 c -12,-31 -19.8,-63.6 -23.3,-97.5 -6.5,-62.2 2.3,-125.399 25.6,-183 19.6,-48.5 49.4,-92.9 86.8,-129.7 9.4,-9.3 10.1,-24.3 1.4,-34.3 l -52.5,-60.5 c -9.4,-10.8 -25.9,-11.5 -36.3,-1.6 -51.8,49.9 -93,110.7 -120,177.2 -31.3,77.2 -43.1,162 -34.4,245.399 6.7,63.3 24.5,123.3 53,179.101 z"/></g></g></g></g></svg>