<svg xmlns="http://www.w3.org/2000/svg" xmlns:osb="http://www.openswatchbook.org/uri/2009/osb" xmlns:svg="http://www.w3.org/2000/svg" id="svg2" width="22" height="22" version="1.1"><defs id="defs4"><linearGradient id="linearGradient3257"><stop id="stop3259" offset="0" stop-color="#a50000" stop-opacity="1"/><stop id="stop3261" offset="1" stop-color="#e73800" stop-opacity="1"/></linearGradient><clipPath id="clipPath4210" clipPathUnits="userSpaceOnUse"><rect id="rect4212" width="34" height="34" x="-7" y="1024.362" fill="#00f" fill-opacity=".514" stroke="none" stroke-opacity="1" opacity="1"/></clipPath><clipPath id="clipPath4160" clipPathUnits="userSpaceOnUse"><rect id="rect4162" width="32" height="32" x="-6" y="1028.362" fill="#aade87" fill-opacity=".472" stroke="none" stroke-opacity="1" opacity="1"/></clipPath><clipPath id="clipPath4160-4" clipPathUnits="userSpaceOnUse"><rect id="rect4162-5" width="1" height="1" x="7" y="1023.362" fill="#f2f2f2" fill-opacity="1" stroke="none" stroke-opacity="1" opacity="1"/></clipPath><clipPath id="clipPath16" clipPathUnits="userSpaceOnUse"><path id="path18" d="m 0,706.465 1490.926,0 L 1490.926,0 0,0 0,706.465 Z"/></clipPath><clipPath id="clipPath24" clipPathUnits="userSpaceOnUse"><path id="path26" d="m 22.1953,686.117 1447.7347,0 0,-667.1902 -1447.7347,0 0,667.1902 z"/></clipPath><clipPath id="clipPath4160-3" clipPathUnits="userSpaceOnUse"><rect id="rect4162-58" width="1" height="1" x="7" y="1023.362" fill="#f2f2f2" fill-opacity="1" stroke="none" stroke-opacity="1" opacity="1"/></clipPath><linearGradient id="linearGradient4207" osb:paint="gradient"><stop id="stop3371" offset="0" stop-color="#3498db" stop-opacity="1"/><stop id="stop3373" offset="1" stop-color="#3498db" stop-opacity="0"/></linearGradient></defs><metadata id="metadata7"/><g id="layer1" transform="translate(0,-1030.3622)"><g id="g846" transform="translate(-61.043672,-14.648105)"><g id="layer1-9" transform="translate(-265.95633,511.6481)"><g id="layer1-5" transform="matrix(0.66666667,0,0,0.66666667,70.952371,189.83022)"><g id="g4221" transform="translate(2.846752e-6,1.2081979e-6)"><path id="path4278" fill="#4d4d4d" fill-opacity="1" fill-rule="evenodd" stroke="none" stroke-dasharray="none" stroke-dashoffset="0" stroke-linecap="round" stroke-linejoin="round" stroke-miterlimit="4" stroke-opacity="1" stroke-width="1" d="M 11 3 A 8 8 0 0 0 3 11 A 8 8 0 0 0 11 19 A 8 8 0 0 0 19 11 A 8 8 0 0 0 11 3 z M 10.994141 6.5 C 11.758217 6.5 12.378824 6.7191787 12.857422 7.1582031 C 13.336019 7.5890974 13.576172 8.1416095 13.576172 8.8164062 C 13.576172 9.1090892 13.49547 9.4062182 13.335938 9.7070312 C 13.176405 10.007844 13.03415 10.223434 12.908203 10.353516 C 12.790653 10.475467 12.622604 10.634956 12.404297 10.830078 L 12.341797 10.890625 C 11.829614 11.337779 11.572266 11.785267 11.572266 12.232422 L 11.572266 12.71875 L 10.388672 12.71875 L 10.388672 12.146484 C 10.388672 11.780631 10.469374 11.467194 10.628906 11.207031 C 10.788439 10.938739 11.069627 10.625302 11.472656 10.267578 C 11.69936 10.064326 11.858811 9.9139672 11.951172 9.8164062 C 12.051929 9.7107152 12.147873 9.5694868 12.240234 9.390625 C 12.340992 9.2036331 12.392578 9.0115282 12.392578 8.8164062 C 12.392578 8.4424225 12.265565 8.1417048 12.013672 7.9140625 C 11.770175 7.6864202 11.430756 7.5722656 10.994141 7.5722656 C 10.272046 7.5722656 9.7764988 7.9636528 9.5078125 8.7441406 L 8.4238281 8.3046875 C 8.6001535 7.8412729 8.9038125 7.4264005 9.3320312 7.0605469 C 9.7686464 6.6865631 10.322425 6.5 10.994141 6.5 z M 10.980469 13.841797 C 11.223966 13.841797 11.426405 13.923336 11.585938 14.085938 C 11.753866 14.248539 11.837891 14.44228 11.837891 14.669922 C 11.837891 14.897564 11.753866 15.093258 11.585938 15.255859 C 11.426405 15.418461 11.223966 15.5 10.980469 15.5 C 10.736972 15.5 10.53121 15.418461 10.363281 15.255859 C 10.203749 15.093258 10.125 14.897564 10.125 14.669922 C 10.125 14.44228 10.203749 14.248539 10.363281 14.085938 C 10.53121 13.923336 10.736972 13.841797 10.980469 13.841797 z" opacity="1" transform="matrix(1.5,0,0,1.5,384.07144,515.29797)"/></g></g></g></g></g></svg>