<svg xmlns="http://www.w3.org/2000/svg" xmlns:svg="http://www.w3.org/2000/svg" id="svg3869" width="22" height="22" version="1.1"><defs id="defs3871"><linearGradient id="linearGradient4066"><stop id="stop4068" offset="0" stop-color="#dbc9ee" stop-opacity="1"/><stop id="stop4070" offset="1" stop-color="#faf7fd" stop-opacity="1"/></linearGradient><linearGradient id="linearGradient3843-5"><stop id="stop3845-0" offset="0" stop-color="#5a2c8b" stop-opacity="1"/><stop id="stop3847-4" offset="1" stop-color="#9d59cf" stop-opacity="1"/></linearGradient><linearGradient id="linearGradient3269"><stop id="stop3271" offset="0" stop-color="#27005d" stop-opacity=".98"/><stop id="stop3279" offset=".318" stop-color="#2b005d" stop-opacity="1"/><stop id="stop3277" offset=".598" stop-color="#280055" stop-opacity="1"/><stop id="stop3275" offset=".809" stop-color="#24004d" stop-opacity="1"/><stop id="stop3273" offset="1" stop-color="#230049" stop-opacity="1"/></linearGradient><linearGradient id="linearGradient3225"><stop id="stop3227" offset="0" stop-color="#210045" stop-opacity="1"/><stop id="stop3237" offset=".25" stop-color="#25004d" stop-opacity="1"/><stop id="stop3235" offset=".5" stop-color="#2b005c" stop-opacity="1"/><stop id="stop3233" offset=".749" stop-color="#340071" stop-opacity="1"/><stop id="stop3229" offset="1" stop-color="#3e0088" stop-opacity="1"/></linearGradient></defs><metadata id="metadata3874"/><g id="layer1" transform="translate(-326,-534.3622)"><g id="g4171" transform="translate(-1,1.0000174)"><path id="path4234" fill="#4d4d4d" fill-opacity="1" fill-rule="evenodd" stroke="none" stroke-dasharray="none" stroke-dashoffset="0" stroke-linecap="square" stroke-linejoin="miter" stroke-miterlimit="4" stroke-opacity="1" stroke-width=".7" d="M 11 3 A 8 8 0 0 0 3 11 A 8 8 0 0 0 11 19 A 8 8 0 0 0 19 11 A 8 8 0 0 0 11 3 z M 7.0371094 6.5 C 7.5819811 6.6238547 7.8094764 6.6164431 8.3554688 6.5 C 9.0440691 7.7203509 10.101289 9.4274848 10.994141 10.90625 C 11.87448 9.4588489 13.257788 7.1985274 13.632812 6.5 C 14.058371 6.6113902 14.487636 6.6078071 14.962891 6.5 C 14.464251 7.1736015 12.648791 10.322103 11.548828 12.251953 L 11.628906 16.5 C 11.628906 16.5 11.277784 16.435547 10.996094 16.435547 C 10.741924 16.435547 10.361328 16.5 10.361328 16.5 L 10.441406 12.251953 C 9.8519205 11.233098 8.1184768 8.1294511 7.0371094 6.5 z" opacity="1" transform="translate(327,533.36218)"/></g></g></svg>