<svg xmlns="http://www.w3.org/2000/svg" xmlns:svg="http://www.w3.org/2000/svg" id="svg3813" width="22" height="22" version="1.1"><metadata id="metadata3818"/><g id="layer1" transform="translate(-378.85714,-540.07647)"><g id="layer1-2" transform="translate(-174.86539,-43.04279)"><rect id="rect3019" width="5" height="1" x="559.723" y="596.119" fill="#1d99f3" fill-opacity="1" fill-rule="nonzero" stroke="none" stroke-width="2" color="#000" display="inline" enable-background="accumulate" overflow="visible" visibility="visible" style="marker:none"/><path id="rect3021" fill="#4d4d4d" fill-opacity="1" fill-rule="nonzero" stroke="none" stroke-width="2" d="m 5,4 0,1 0,2 0,3 0,4 0,3 1,0 1,0 0,2 0,1 8,0 0,-1 -1,0 -6,0 0,-2 4,0 3,0 1,0 0,-1 0,-2 0,-1 0,-1.40625 L 16,7 l 2,0 0,2 0,1 0,3 1,0 L 19,9.40625 19,8 19,7 19,6 18,6 16,6 16,5 16,4 15,4 5,4 Z m 1,1 8,0 1,0 0,1 0,1 0,4 0,1 0,2 0,2 -2,0 -2,0 -5,0 0,-6 0,-5 z m 1,2 0,1 6,0 0,-1 -6,0 z m 0,2 0,1 3,0 0,-1 -3,0 z" color="#000" display="inline" enable-background="accumulate" overflow="visible" transform="translate(552.72253,582.11926)" visibility="visible" style="marker:none"/><rect id="rect4149" width="1" height="4" x="570.723" y="598.119" fill="#1d99f3" fill-opacity="1" stroke="none" stroke-dasharray="none" stroke-linecap="square" stroke-miterlimit="4" stroke-opacity="1" stroke-width="2" opacity="1"/><rect id="rect4151" width="1" height="1" x="570.723" y="596.119" fill="#1d99f3" fill-opacity="1" stroke="none" stroke-dasharray="none" stroke-linecap="square" stroke-miterlimit="4" stroke-opacity="1" stroke-width="2" opacity="1"/></g></g></svg>