<svg xmlns="http://www.w3.org/2000/svg" xmlns:svg="http://www.w3.org/2000/svg" id="svg3760" width="22" height="22" version="1.1"><metadata id="metadata3765"/><g id="layer1" transform="translate(-553.72253,-583.11926)"><path id="path4174" fill="#4d4d4d" fill-opacity="1" stroke="none" d="M 3 3 L 3 4 L 19 4 L 19 3 L 3 3 z M 3 5 L 3 6 L 12 6 L 12 5 L 3 5 z M 3 15 L 3 16 L 19 16 L 19 15 L 3 15 z M 3 17 L 3 18 L 16 18 L 16 17 L 3 17 z M 17 18 L 17 19 L 19 19 L 19 18 L 17 18 z" opacity="1" transform="translate(553.72253,583.11926)"/><rect id="rect4238" width="16" height="1" x="556.723" y="593.119" fill="#1d99f3" fill-opacity="1" stroke="none" stroke-linecap="round" opacity="1"/></g></svg>