<svg xmlns="http://www.w3.org/2000/svg" xmlns:svg="http://www.w3.org/2000/svg" id="svg3813" width="22" height="22" version="1.1"><metadata id="metadata3818"/><g id="layer1" transform="translate(-378.85714,-540.07647)"><g id="layer1-8" transform="translate(378.85714,-490.28572)"><path id="rect4139" fill="#4d4d4d" fill-opacity="1" stroke="none" d="m 5,4 0,16 1,0 6,0 0,-1 -6,0 0,-14 12,0 0,8 1,0 L 19,4 18,4 6,4 5,4 Z M 7,7 7,8 17,8 17,7 7,7 Z m 0,2 0,1 6,0 0,-1 -6,0 z m 0,5 0,1 7,0 0,-1 -7,0 z" transform="translate(-1,1029.3622)"/><path id="rect4151" fill="#1d99f3" fill-opacity="1" stroke="none" stroke-opacity="1" d="m 16,1043.3622 -1,2 1,0 0,4 1,0 0,-6 -1,0 z" opacity="1"/><rect id="rect4170" width="7" height="1" x="6" y="1045.362" fill="#1d99f3" fill-opacity="1" stroke="none" stroke-opacity="1" opacity="1"/></g></g></svg>