<svg xmlns="http://www.w3.org/2000/svg" xmlns:svg="http://www.w3.org/2000/svg" id="svg3813" width="22" height="22" version="1.1"><metadata id="metadata3818"/><g id="layer1" transform="translate(-378.85714,-540.07647)"><g id="layer1-1" transform="translate(378.85714,-490.78573)"><path id="rect3000-2" fill="#4d4d4d" fill-opacity="1" fill-rule="nonzero" stroke="#4d4d4d" stroke-dasharray="none" stroke-linecap="square" stroke-linejoin="miter" stroke-miterlimit="4" stroke-opacity="1" stroke-width="0" d="m 4.3333376,1036.5289 c -0.7386913,0 -1.3333325,0.5947 -1.3333325,1.3334 l 0,8 c 0,0.7385 0.5946412,1.3333 1.3333325,1.3333 l 13.3333244,0 c 0.738692,0 1.333333,-0.5948 1.333333,-1.3333 l 0,-8 c 0,-0.7388 -0.594641,-1.3334 -1.333333,-1.3334 l -13.3333243,0 z m 10.3999934,2.1333 1.066666,0 0,4.2666 -1.066666,0 -5.33333,0 0,2.1334 -3.1999979,-2.6667 3.1999979,-2.6667 0,2.1334 3.199998,0 1.066666,0 1.066666,0 0,-3.2 z" color="#000" display="inline" enable-background="accumulate" overflow="visible" visibility="visible" style="marker:none"/></g></g></svg>