<svg xmlns="http://www.w3.org/2000/svg" xmlns:osb="http://www.openswatchbook.org/uri/2009/osb" xmlns:svg="http://www.w3.org/2000/svg" xmlns:xlink="http://www.w3.org/1999/xlink" id="svg3869" width="22" height="22" version="1.1"><defs id="defs3871"><linearGradient id="linearGradient4290-48"><stop id="stop4292-0" offset="0" stop-color="#a5a5a5" stop-opacity="1"/><stop id="stop4294-0" offset="1" stop-color="#f5f2f5" stop-opacity="1"/></linearGradient><linearGradient id="linearGradient4207" osb:paint="gradient"><stop id="stop3371" offset="0" stop-color="#3498db" stop-opacity="1"/><stop id="stop3373" offset="1" stop-color="#3498db" stop-opacity="0"/></linearGradient><linearGradient id="linearGradient3257"><stop id="stop3259" offset="0" stop-color="#a50000" stop-opacity="1"/><stop id="stop3261" offset="1" stop-color="#e73800" stop-opacity="1"/></linearGradient><clipPath id="clipPath4210" clipPathUnits="userSpaceOnUse"><rect id="rect4212" width="34" height="34" x="-7" y="1024.362" fill="#00f" fill-opacity=".514" stroke="none" stroke-opacity="1" opacity="1"/></clipPath><clipPath id="clipPath4160" clipPathUnits="userSpaceOnUse"><rect id="rect4162" width="32" height="32" x="-6" y="1028.362" fill="#aade87" fill-opacity=".472" stroke="none" stroke-opacity="1" opacity="1"/></clipPath><clipPath id="clipPath4210-4" clipPathUnits="userSpaceOnUse"><rect id="rect4212-2" width="34" height="34" x="-7" y="1024.362" fill="#00f" fill-opacity=".514" stroke="none" stroke-opacity="1" opacity="1"/></clipPath><clipPath id="clipPath4160-2" clipPathUnits="userSpaceOnUse"><rect id="rect4162-7" width="32" height="32" x="-6" y="1028.362" fill="#aade87" fill-opacity=".472" stroke="none" stroke-opacity="1" opacity="1"/></clipPath><clipPath id="clipPath4210-5" clipPathUnits="userSpaceOnUse"><rect id="rect4212-7" width="34" height="34" x="-7" y="1024.362" fill="#00f" fill-opacity=".514" stroke="none" stroke-opacity="1" opacity="1"/></clipPath><clipPath id="clipPath4160-0" clipPathUnits="userSpaceOnUse"><rect id="rect4162-9" width="32" height="32" x="-6" y="1028.362" fill="#aade87" fill-opacity=".472" stroke="none" stroke-opacity="1" opacity="1"/></clipPath><clipPath id="clipPath4160-5" clipPathUnits="userSpaceOnUse"><rect id="rect4162-8" width="1" height="1" x="7" y="1023.362" fill="#f2f2f2" fill-opacity="1" stroke="none" stroke-opacity="1" opacity="1"/></clipPath><linearGradient id="linearGradient4123" x1="3" x2="15" y1="1045.362" y2="1045.362" gradientTransform="translate(0,-1.9999941)" gradientUnits="userSpaceOnUse" xlink:href="#linearGradient4021-3"/><linearGradient id="linearGradient4021-3"><stop id="stop4023-0" offset="0" stop-color="#b3b3b3" stop-opacity="1"/><stop id="stop4025-2" offset="1" stop-color="#4d4d4d" stop-opacity="1"/></linearGradient><clipPath id="clipPath4160-8" clipPathUnits="userSpaceOnUse"><rect id="rect4162-9-9" width="1" height="1" x="7" y="1023.362" fill="#f2f2f2" fill-opacity="1" stroke="none" stroke-opacity="1" opacity="1"/></clipPath></defs><metadata id="metadata3874"/><g id="layer1" transform="translate(-326,-534.3622)"><g id="layer1-72" transform="translate(-21,2)"><g id="layer1-5" transform="translate(-94.71429,7.57146)"><path id="rect4227" fill="#4d4d4d" fill-opacity="1" fill-rule="evenodd" stroke="none" stroke-dasharray="none" stroke-dashoffset="0" stroke-linecap="round" stroke-linejoin="miter" stroke-miterlimit="4" stroke-opacity="1" stroke-width="1" d="M 4 3 C 3.4459836 3 3 3.4459836 3 4 L 3 18 C 3 18.554016 3.4459836 19 4 19 L 18 19 C 18.554016 19 19 18.554016 19 18 L 19 4 C 19 3.4459836 18.554016 3 18 3 L 4 3 z M 10.300781 7.5 L 11.699219 7.5 L 11.699219 10.300781 L 14.5 10.300781 L 14.5 11.699219 L 11.699219 11.699219 L 11.699219 14.5 L 10.300781 14.5 L 10.300781 11.699219 L 7.5 11.699219 L 7.5 10.300781 L 10.300781 10.300781 L 10.300781 7.5 z" opacity="1" transform="translate(441.71429,524.79074)"/></g></g></g></svg>