<svg xmlns="http://www.w3.org/2000/svg" xmlns:osb="http://www.openswatchbook.org/uri/2009/osb" xmlns:svg="http://www.w3.org/2000/svg" xmlns:xlink="http://www.w3.org/1999/xlink" id="svg3869" width="22" height="22" version="1.1"><defs id="defs3871"><linearGradient id="linearGradient4290-48"><stop id="stop4292-0" offset="0" stop-color="#a5a5a5" stop-opacity="1"/><stop id="stop4294-0" offset="1" stop-color="#f5f2f5" stop-opacity="1"/></linearGradient><linearGradient id="linearGradient4207" osb:paint="gradient"><stop id="stop3371" offset="0" stop-color="#3498db" stop-opacity="1"/><stop id="stop3373" offset="1" stop-color="#3498db" stop-opacity="0"/></linearGradient><linearGradient id="linearGradient3257"><stop id="stop3259" offset="0" stop-color="#a50000" stop-opacity="1"/><stop id="stop3261" offset="1" stop-color="#e73800" stop-opacity="1"/></linearGradient><clipPath id="clipPath4210" clipPathUnits="userSpaceOnUse"><rect id="rect4212" width="34" height="34" x="-7" y="1024.362" fill="#00f" fill-opacity=".514" stroke="none" stroke-opacity="1" opacity="1"/></clipPath><clipPath id="clipPath4160" clipPathUnits="userSpaceOnUse"><rect id="rect4162" width="32" height="32" x="-6" y="1028.362" fill="#aade87" fill-opacity=".472" stroke="none" stroke-opacity="1" opacity="1"/></clipPath><clipPath id="clipPath4210-4" clipPathUnits="userSpaceOnUse"><rect id="rect4212-2" width="34" height="34" x="-7" y="1024.362" fill="#00f" fill-opacity=".514" stroke="none" stroke-opacity="1" opacity="1"/></clipPath><clipPath id="clipPath4160-2" clipPathUnits="userSpaceOnUse"><rect id="rect4162-7" width="32" height="32" x="-6" y="1028.362" fill="#aade87" fill-opacity=".472" stroke="none" stroke-opacity="1" opacity="1"/></clipPath><clipPath id="clipPath4210-5" clipPathUnits="userSpaceOnUse"><rect id="rect4212-7" width="34" height="34" x="-7" y="1024.362" fill="#00f" fill-opacity=".514" stroke="none" stroke-opacity="1" opacity="1"/></clipPath><clipPath id="clipPath4160-0" clipPathUnits="userSpaceOnUse"><rect id="rect4162-9" width="32" height="32" x="-6" y="1028.362" fill="#aade87" fill-opacity=".472" stroke="none" stroke-opacity="1" opacity="1"/></clipPath><clipPath id="clipPath4160-5" clipPathUnits="userSpaceOnUse"><rect id="rect4162-8" width="1" height="1" x="7" y="1023.362" fill="#f2f2f2" fill-opacity="1" stroke="none" stroke-opacity="1" opacity="1"/></clipPath><linearGradient id="linearGradient4123" x1="3" x2="15" y1="1045.362" y2="1045.362" gradientTransform="translate(0,-1.9999941)" gradientUnits="userSpaceOnUse" xlink:href="#linearGradient4021-3"/><linearGradient id="linearGradient4021-3"><stop id="stop4023-0" offset="0" stop-color="#b3b3b3" stop-opacity="1"/><stop id="stop4025-2" offset="1" stop-color="#4d4d4d" stop-opacity="1"/></linearGradient><clipPath id="clipPath4160-8" clipPathUnits="userSpaceOnUse"><rect id="rect4162-9-9" width="1" height="1" x="7" y="1023.362" fill="#f2f2f2" fill-opacity="1" stroke="none" stroke-opacity="1" opacity="1"/></clipPath><clipPath id="clipPath4210-2" clipPathUnits="userSpaceOnUse"><rect id="rect4212-8" width="34" height="34" x="-7" y="1024.362" fill="#00f" fill-opacity=".514" stroke="none" stroke-opacity="1" opacity="1"/></clipPath><clipPath id="clipPath4160-6" clipPathUnits="userSpaceOnUse"><rect id="rect4162-5" width="32" height="32" x="-6" y="1028.362" fill="#aade87" fill-opacity=".472" stroke="none" stroke-opacity="1" opacity="1"/></clipPath><clipPath id="clipPath4210-4-5" clipPathUnits="userSpaceOnUse"><rect id="rect4212-2-0" width="34" height="34" x="-7" y="1024.362" fill="#00f" fill-opacity=".514" stroke="none" stroke-opacity="1" opacity="1"/></clipPath><clipPath id="clipPath4160-2-6" clipPathUnits="userSpaceOnUse"><rect id="rect4162-7-2" width="32" height="32" x="-6" y="1028.362" fill="#aade87" fill-opacity=".472" stroke="none" stroke-opacity="1" opacity="1"/></clipPath><clipPath id="clipPath4210-5-7" clipPathUnits="userSpaceOnUse"><rect id="rect4212-7-7" width="34" height="34" x="-7" y="1024.362" fill="#00f" fill-opacity=".514" stroke="none" stroke-opacity="1" opacity="1"/></clipPath><clipPath id="clipPath4160-0-3" clipPathUnits="userSpaceOnUse"><rect id="rect4162-9-6" width="32" height="32" x="-6" y="1028.362" fill="#aade87" fill-opacity=".472" stroke="none" stroke-opacity="1" opacity="1"/></clipPath><clipPath id="clipPath4160-5-5" clipPathUnits="userSpaceOnUse"><rect id="rect4162-8-3" width="1" height="1" x="7" y="1023.362" fill="#f2f2f2" fill-opacity="1" stroke="none" stroke-opacity="1" opacity="1"/></clipPath><clipPath id="clipPath4160-8-1" clipPathUnits="userSpaceOnUse"><rect id="rect4162-9-9-7" width="1" height="1" x="7" y="1023.362" fill="#f2f2f2" fill-opacity="1" stroke="none" stroke-opacity="1" opacity="1"/></clipPath><clipPath id="clipPath4210-7" clipPathUnits="userSpaceOnUse"><rect id="rect4212-1" width="34" height="34" x="-7" y="1024.362" fill="#00f" fill-opacity=".514" stroke="none" stroke-opacity="1" opacity="1"/></clipPath><clipPath id="clipPath4160-04" clipPathUnits="userSpaceOnUse"><rect id="rect4162-4" width="32" height="32" x="-6" y="1028.362" fill="#aade87" fill-opacity=".472" stroke="none" stroke-opacity="1" opacity="1"/></clipPath><clipPath id="clipPath4210-4-0" clipPathUnits="userSpaceOnUse"><rect id="rect4212-2-08" width="34" height="34" x="-7" y="1024.362" fill="#00f" fill-opacity=".514" stroke="none" stroke-opacity="1" opacity="1"/></clipPath><clipPath id="clipPath4160-2-4" clipPathUnits="userSpaceOnUse"><rect id="rect4162-7-4" width="32" height="32" x="-6" y="1028.362" fill="#aade87" fill-opacity=".472" stroke="none" stroke-opacity="1" opacity="1"/></clipPath><clipPath id="clipPath4210-5-2" clipPathUnits="userSpaceOnUse"><rect id="rect4212-7-9" width="34" height="34" x="-7" y="1024.362" fill="#00f" fill-opacity=".514" stroke="none" stroke-opacity="1" opacity="1"/></clipPath><clipPath id="clipPath4160-0-2" clipPathUnits="userSpaceOnUse"><rect id="rect4162-9-4" width="32" height="32" x="-6" y="1028.362" fill="#aade87" fill-opacity=".472" stroke="none" stroke-opacity="1" opacity="1"/></clipPath></defs><metadata id="metadata3874"/><g id="layer1" transform="translate(-326,-534.3622)"><g id="layer1-2" transform="translate(-25.299998,0.29999811)"><g id="layer1-72-3" transform="translate(-21,2)"><g id="layer1-5-6" transform="translate(-94.71429,7.57146)"><path id="rect4227" fill="#4d4d4d" fill-opacity="1" fill-rule="evenodd" stroke="none" stroke-dasharray="none" stroke-dashoffset="0" stroke-linecap="round" stroke-linejoin="miter" stroke-miterlimit="4" stroke-opacity="1" stroke-width="1" d="M 4 3 C 3.4459836 3 3 3.4459836 3 4 L 3 18 C 3 18.554016 3.4459836 19 4 19 L 18 19 C 18.554016 19 19 18.554016 19 18 L 19 4 C 19 3.4459836 18.554016 3 18 3 L 4 3 z M 7.1191406 6 A 1.2697625 1.2697625 0 0 1 8.3886719 7.2695312 A 1.2697625 1.2697625 0 0 1 7.1191406 8.5410156 A 1.2697625 1.2697625 0 0 1 5.8496094 7.2695312 A 1.2697625 1.2697625 0 0 1 7.1191406 6 z M 10.992188 6 A 1.2697625 1.2697625 0 0 1 12.261719 7.2695312 A 1.2697625 1.2697625 0 0 1 10.992188 8.5410156 A 1.2697625 1.2697625 0 0 1 9.7226562 7.2695312 A 1.2697625 1.2697625 0 0 1 10.992188 6 z M 14.880859 6 A 1.2697625 1.2697625 0 0 1 16.150391 7.2695312 A 1.2697625 1.2697625 0 0 1 14.880859 8.5390625 A 1.2697625 1.2697625 0 0 1 13.611328 7.2695312 A 1.2697625 1.2697625 0 0 1 14.880859 6 z M 14.880859 9.6972656 A 1.2697625 1.2697625 0 0 1 16.150391 10.96875 A 1.2697625 1.2697625 0 0 1 14.880859 12.238281 A 1.2697625 1.2697625 0 0 1 13.611328 10.96875 A 1.2697625 1.2697625 0 0 1 14.880859 9.6972656 z M 7.1191406 9.6992188 A 1.2697625 1.2697625 0 0 1 8.3886719 10.96875 A 1.2697625 1.2697625 0 0 1 7.1191406 12.238281 A 1.2697625 1.2697625 0 0 1 5.8496094 10.96875 A 1.2697625 1.2697625 0 0 1 7.1191406 9.6992188 z M 10.992188 9.6992188 A 1.2697625 1.2697625 0 0 1 12.261719 10.96875 A 1.2697625 1.2697625 0 0 1 10.992188 12.238281 A 1.2697625 1.2697625 0 0 1 9.7226562 10.96875 A 1.2697625 1.2697625 0 0 1 10.992188 9.6992188 z M 7.1191406 13.460938 A 1.2697625 1.2697625 0 0 1 8.3886719 14.730469 A 1.2697625 1.2697625 0 0 1 7.1191406 16 A 1.2697625 1.2697625 0 0 1 5.8496094 14.730469 A 1.2697625 1.2697625 0 0 1 7.1191406 13.460938 z" opacity="1" transform="translate(467.01429,524.49074)"/></g></g></g></g></svg>