<svg xmlns="http://www.w3.org/2000/svg" xmlns:svg="http://www.w3.org/2000/svg" id="svg3760" width="22" height="22" version="1.1"><defs id="defs3762"><linearGradient id="linearGradient3257"><stop id="stop3259" offset="0" stop-color="#a50000" stop-opacity="1"/><stop id="stop3261" offset="1" stop-color="#e73800" stop-opacity="1"/></linearGradient><clipPath id="clipPath4210" clipPathUnits="userSpaceOnUse"><rect id="rect4212" width="34" height="34" x="-7" y="1024.362" fill="#00f" fill-opacity=".514" stroke="none" stroke-opacity="1" opacity="1"/></clipPath><clipPath id="clipPath4160" clipPathUnits="userSpaceOnUse"><rect id="rect4162" width="32" height="32" x="-6" y="1028.362" fill="#aade87" fill-opacity=".472" stroke="none" stroke-opacity="1" opacity="1"/></clipPath><clipPath id="clipPath4160-4" clipPathUnits="userSpaceOnUse"><rect id="rect4162-5" width="1" height="1" x="7" y="1023.362" fill="#f2f2f2" fill-opacity="1" stroke="none" stroke-opacity="1" opacity="1"/></clipPath><clipPath id="clipPath16" clipPathUnits="userSpaceOnUse"><path id="path18" d="m 0,706.465 1490.926,0 L 1490.926,0 0,0 0,706.465 Z"/></clipPath><clipPath id="clipPath24" clipPathUnits="userSpaceOnUse"><path id="path26" d="m 22.1953,686.117 1447.7347,0 0,-667.1902 -1447.7347,0 L 22.1953,686.117 Z"/></clipPath></defs><metadata id="metadata3765"/><g id="layer1" transform="translate(-553.72253,-583.11926)"><g id="layer1-8" transform="matrix(-0.90909091,0,0,-0.90909091,871.99526,1088.994)"><g id="layer1-99" transform="matrix(0.81481461,0,0,0.81481461,11.608542,111.04542)"><rect id="rect4035" width="0" height="16.5" x="327.869" y="522.229" fill="#49535a" fill-opacity="1" stroke="none"/><rect id="rect4035-5" width="0" height="16.5" x="354.93" y="519.152" fill="#49535a" fill-opacity="1" stroke="none"/><rect id="rect4035-8" width="0" height="16.5" x="327.869" y="522.229" fill="#49535a" fill-opacity="1" stroke="none"/><rect id="rect4035-59" width="0" height="16.5" x="327.869" y="522.229" fill="#49535a" fill-opacity="1" stroke="none"/><rect id="rect4035-6" width="0" height="16.5" x="316.907" y="514.977" fill="#49535a" fill-opacity="1" stroke="none"/><rect id="rect4035-5-1" width="0" height="16.5" x="343.968" y="511.9" fill="#49535a" fill-opacity="1" stroke="none"/><rect id="rect4035-8-3" width="0" height="16.5" x="316.907" y="514.977" fill="#49535a" fill-opacity="1" stroke="none"/><rect id="rect4035-59-4" width="0" height="16.5" x="316.907" y="514.977" fill="#49535a" fill-opacity="1" stroke="none"/><rect id="rect4035-1" width="0" height="16.5" x="325.93" y="521.301" fill="#49535a" fill-opacity="1" stroke="none"/><rect id="rect4035-5-0" width="0" height="16.5" x="352.991" y="518.224" fill="#49535a" fill-opacity="1" stroke="none"/><rect id="rect4035-8-1" width="0" height="16.5" x="325.93" y="521.301" fill="#49535a" fill-opacity="1" stroke="none"/><rect id="rect4035-59-1" width="0" height="16.5" x="325.93" y="521.301" fill="#49535a" fill-opacity="1" stroke="none"/><rect id="rect4035-7" width="0" height="16.5" x="327.869" y="522.229" fill="#49535a" fill-opacity="1" stroke="none"/><rect id="rect4035-5-7" width="0" height="16.5" x="354.93" y="519.152" fill="#49535a" fill-opacity="1" stroke="none"/><rect id="rect4035-8-16" width="0" height="16.5" x="327.869" y="522.229" fill="#49535a" fill-opacity="1" stroke="none"/><rect id="rect4035-59-18" width="0" height="16.5" x="327.869" y="522.229" fill="#49535a" fill-opacity="1" stroke="none"/><rect id="rect4035-6-5" width="0" height="16.5" x="316.907" y="514.977" fill="#49535a" fill-opacity="1" stroke="none"/><rect id="rect4035-5-1-8" width="0" height="16.5" x="343.968" y="511.9" fill="#49535a" fill-opacity="1" stroke="none"/><rect id="rect4035-8-3-8" width="0" height="16.5" x="316.907" y="514.977" fill="#49535a" fill-opacity="1" stroke="none"/><rect id="rect4035-59-4-7" width="0" height="16.5" x="316.907" y="514.977" fill="#49535a" fill-opacity="1" stroke="none"/><rect id="rect4035-1-7" width="0" height="16.5" x="325.93" y="521.301" fill="#49535a" fill-opacity="1" stroke="none"/><rect id="rect4035-5-0-8" width="0" height="16.5" x="352.991" y="518.224" fill="#49535a" fill-opacity="1" stroke="none"/><rect id="rect4035-8-1-0" width="0" height="16.5" x="325.93" y="521.301" fill="#49535a" fill-opacity="1" stroke="none"/><rect id="rect4035-59-1-3" width="0" height="16.5" x="325.93" y="521.301" fill="#49535a" fill-opacity="1" stroke="none"/><rect id="rect4035-0" width="0" height="16.5" x="324.071" y="527.298" fill="#49535a" fill-opacity="1" stroke="none"/><rect id="rect4035-5-5" width="0" height="16.5" x="351.133" y="524.221" fill="#49535a" fill-opacity="1" stroke="none"/><rect id="rect4035-8-6" width="0" height="16.5" x="324.071" y="527.298" fill="#49535a" fill-opacity="1" stroke="none"/><rect id="rect4035-59-11" width="0" height="16.5" x="324.071" y="527.298" fill="#49535a" fill-opacity="1" stroke="none"/><rect id="rect4035-9" width="0" height="16.5" x="300.089" y="521.847" fill="#49535a" fill-opacity="1" stroke="none"/><rect id="rect4035-5-8" width="0" height="16.5" x="327.15" y="518.77" fill="#49535a" fill-opacity="1" stroke="none"/><rect id="rect4035-8-0" width="0" height="16.5" x="300.089" y="521.847" fill="#49535a" fill-opacity="1" stroke="none"/><rect id="rect4035-59-1-8" width="0" height="16.5" x="300.089" y="521.847" fill="#49535a" fill-opacity="1" stroke="none"/><rect id="rect4035-3" width="0" height="16.5" x="327.869" y="522.229" fill="#49535a" fill-opacity="1" stroke="none"/><rect id="rect4035-5-2" width="0" height="16.5" x="354.93" y="519.152" fill="#49535a" fill-opacity="1" stroke="none"/><rect id="rect4035-8-7" width="0" height="16.5" x="327.869" y="522.229" fill="#49535a" fill-opacity="1" stroke="none"/><rect id="rect4035-59-43" width="0" height="16.5" x="327.869" y="522.229" fill="#49535a" fill-opacity="1" stroke="none"/><rect id="rect4035-6-2" width="0" height="16.5" x="316.907" y="514.977" fill="#49535a" fill-opacity="1" stroke="none"/><rect id="rect4035-5-1-6" width="0" height="16.5" x="343.968" y="511.9" fill="#49535a" fill-opacity="1" stroke="none"/><rect id="rect4035-8-3-4" width="0" height="16.5" x="316.907" y="514.977" fill="#49535a" fill-opacity="1" stroke="none"/><rect id="rect4035-59-4-8" width="0" height="16.5" x="316.907" y="514.977" fill="#49535a" fill-opacity="1" stroke="none"/><rect id="rect4035-1-8" width="0" height="16.5" x="325.93" y="521.301" fill="#49535a" fill-opacity="1" stroke="none"/><rect id="rect4035-5-0-0" width="0" height="16.5" x="352.991" y="518.224" fill="#49535a" fill-opacity="1" stroke="none"/><rect id="rect4035-8-1-3" width="0" height="16.5" x="325.93" y="521.301" fill="#49535a" fill-opacity="1" stroke="none"/><rect id="rect4035-59-1-1" width="0" height="16.5" x="325.93" y="521.301" fill="#49535a" fill-opacity="1" stroke="none"/><rect id="rect4035-89" width="0" height="11" x="362.491" y="541.725" fill="#4d4d4d" fill-opacity="1" stroke="none"/><rect id="rect4035-5-9" width="0" height="11" x="380.532" y="539.673" fill="#4d4d4d" fill-opacity="1" stroke="none"/><rect id="rect4035-8-8" width="0" height="11" x="362.491" y="541.725" fill="#4d4d4d" fill-opacity="1" stroke="none"/><rect id="rect4035-59-7" width="0" height="11" x="362.491" y="541.725" fill="#4d4d4d" fill-opacity="1" stroke="none"/><rect id="rect4035-6-6" width="0" height="11" x="355.183" y="536.89" fill="#4d4d4d" fill-opacity="1" stroke="none"/><rect id="rect4035-5-1-0" width="0" height="11" x="373.224" y="534.839" fill="#4d4d4d" fill-opacity="1" stroke="none"/><rect id="rect4035-8-3-7" width="0" height="11" x="355.183" y="536.89" fill="#4d4d4d" fill-opacity="1" stroke="none"/><rect id="rect4035-59-4-84" width="0" height="11" x="355.183" y="536.89" fill="#4d4d4d" fill-opacity="1" stroke="none"/><rect id="rect4035-1-3" width="0" height="11" x="361.198" y="541.106" fill="#4d4d4d" fill-opacity="1" stroke="none"/><rect id="rect4035-5-0-1" width="0" height="11" x="379.239" y="539.055" fill="#4d4d4d" fill-opacity="1" stroke="none"/><rect id="rect4035-8-1-01" width="0" height="11" x="361.198" y="541.106" fill="#4d4d4d" fill-opacity="1" stroke="none"/><rect id="rect4035-59-1-7" width="0" height="11" x="361.198" y="541.106" fill="#4d4d4d" fill-opacity="1" stroke="none"/><rect id="rect4035-2" width="0" height="16.5" x="327.909" y="522.353" fill="#49535a" fill-opacity="1" stroke="none"/><rect id="rect4035-5-6" width="0" height="16.5" x="354.97" y="519.276" fill="#49535a" fill-opacity="1" stroke="none"/><rect id="rect4035-8-9" width="0" height="16.5" x="327.909" y="522.353" fill="#49535a" fill-opacity="1" stroke="none"/><rect id="rect4035-59-6" width="0" height="16.5" x="327.909" y="522.353" fill="#49535a" fill-opacity="1" stroke="none"/><rect id="rect4035-6-7" width="0" height="16.5" x="316.947" y="515.101" fill="#49535a" fill-opacity="1" stroke="none"/><rect id="rect4035-5-1-5" width="0" height="16.5" x="344.008" y="512.024" fill="#49535a" fill-opacity="1" stroke="none"/><rect id="rect4035-8-3-1" width="0" height="16.5" x="316.947" y="515.101" fill="#49535a" fill-opacity="1" stroke="none"/><rect id="rect4035-59-4-844" width="0" height="16.5" x="316.947" y="515.101" fill="#49535a" fill-opacity="1" stroke="none"/><rect id="rect4035-1-9" width="0" height="16.5" x="325.969" y="521.426" fill="#49535a" fill-opacity="1" stroke="none"/><rect id="rect4035-5-0-15" width="0" height="16.5" x="353.031" y="518.349" fill="#49535a" fill-opacity="1" stroke="none"/><rect id="rect4035-8-1-5" width="0" height="16.5" x="325.969" y="521.426" fill="#49535a" fill-opacity="1" stroke="none"/><rect id="rect4035-59-1-18" width="0" height="16.5" x="325.969" y="521.426" fill="#49535a" fill-opacity="1" stroke="none"/><rect id="rect4035-7-5" width="0" height="16.5" x="327.909" y="522.353" fill="#49535a" fill-opacity="1" stroke="none"/><rect id="rect4035-5-7-6" width="0" height="16.5" x="354.97" y="519.276" fill="#49535a" fill-opacity="1" stroke="none"/><rect id="rect4035-8-16-3" width="0" height="16.5" x="327.909" y="522.353" fill="#49535a" fill-opacity="1" stroke="none"/><rect id="rect4035-59-18-6" width="0" height="16.5" x="327.909" y="522.353" fill="#49535a" fill-opacity="1" stroke="none"/><rect id="rect4035-6-5-6" width="0" height="16.5" x="316.947" y="515.101" fill="#49535a" fill-opacity="1" stroke="none"/><rect id="rect4035-5-1-8-5" width="0" height="16.5" x="344.008" y="512.024" fill="#49535a" fill-opacity="1" stroke="none"/><rect id="rect4035-8-3-8-1" width="0" height="16.5" x="316.947" y="515.101" fill="#49535a" fill-opacity="1" stroke="none"/><rect id="rect4035-59-4-7-8" width="0" height="16.5" x="316.947" y="515.101" fill="#49535a" fill-opacity="1" stroke="none"/><rect id="rect4035-1-7-6" width="0" height="16.5" x="325.969" y="521.426" fill="#49535a" fill-opacity="1" stroke="none"/><rect id="rect4035-5-0-8-0" width="0" height="16.5" x="353.031" y="518.349" fill="#49535a" fill-opacity="1" stroke="none"/><rect id="rect4035-8-1-0-4" width="0" height="16.5" x="325.969" y="521.426" fill="#49535a" fill-opacity="1" stroke="none"/><rect id="rect4035-59-1-3-1" width="0" height="16.5" x="325.969" y="521.426" fill="#49535a" fill-opacity="1" stroke="none"/><rect id="rect4035-0-8" width="0" height="16.5" x="324.111" y="527.423" fill="#49535a" fill-opacity="1" stroke="none"/><rect id="rect4035-5-5-6" width="0" height="16.5" x="351.172" y="524.346" fill="#49535a" fill-opacity="1" stroke="none"/><rect id="rect4035-8-6-4" width="0" height="16.5" x="324.111" y="527.423" fill="#49535a" fill-opacity="1" stroke="none"/><rect id="rect4035-59-11-1" width="0" height="16.5" x="324.111" y="527.423" fill="#49535a" fill-opacity="1" stroke="none"/><rect id="rect4035-9-4" width="0" height="16.5" x="300.129" y="521.972" fill="#49535a" fill-opacity="1" stroke="none"/><rect id="rect4035-5-8-6" width="0" height="16.5" x="327.19" y="518.895" fill="#49535a" fill-opacity="1" stroke="none"/><rect id="rect4035-8-0-9" width="0" height="16.5" x="300.129" y="521.972" fill="#49535a" fill-opacity="1" stroke="none"/><rect id="rect4035-59-1-8-2" width="0" height="16.5" x="300.129" y="521.972" fill="#49535a" fill-opacity="1" stroke="none"/><rect id="rect4035-3-1" width="0" height="16.5" x="327.909" y="522.353" fill="#49535a" fill-opacity="1" stroke="none"/><rect id="rect4035-5-2-0" width="0" height="16.5" x="354.97" y="519.276" fill="#49535a" fill-opacity="1" stroke="none"/><rect id="rect4035-8-7-2" width="0" height="16.5" x="327.909" y="522.353" fill="#49535a" fill-opacity="1" stroke="none"/><rect id="rect4035-59-43-5" width="0" height="16.5" x="327.909" y="522.353" fill="#49535a" fill-opacity="1" stroke="none"/><rect id="rect4035-6-2-5" width="0" height="16.5" x="316.947" y="515.101" fill="#49535a" fill-opacity="1" stroke="none"/><rect id="rect4035-5-1-6-4" width="0" height="16.5" x="344.008" y="512.024" fill="#49535a" fill-opacity="1" stroke="none"/><rect id="rect4035-8-3-4-6" width="0" height="16.5" x="316.947" y="515.101" fill="#49535a" fill-opacity="1" stroke="none"/><rect id="rect4035-59-4-8-2" width="0" height="16.5" x="316.947" y="515.101" fill="#49535a" fill-opacity="1" stroke="none"/><rect id="rect4035-1-8-9" width="0" height="16.5" x="325.969" y="521.426" fill="#49535a" fill-opacity="1" stroke="none"/><rect id="rect4035-5-0-0-9" width="0" height="16.5" x="353.031" y="518.349" fill="#49535a" fill-opacity="1" stroke="none"/><rect id="rect4035-8-1-3-0" width="0" height="16.5" x="325.969" y="521.426" fill="#49535a" fill-opacity="1" stroke="none"/><rect id="rect4035-59-1-1-4" width="0" height="16.5" x="325.969" y="521.426" fill="#49535a" fill-opacity="1" stroke="none"/><rect id="rect4035-89-8" width="0" height="11" x="362.531" y="541.849" fill="#4d4d4d" fill-opacity="1" stroke="none"/><rect id="rect4035-5-9-5" width="0" height="11" x="380.571" y="539.798" fill="#4d4d4d" fill-opacity="1" stroke="none"/><rect id="rect4035-8-8-2" width="0" height="11" x="362.531" y="541.849" fill="#4d4d4d" fill-opacity="1" stroke="none"/><rect id="rect4035-59-7-6" width="0" height="11" x="362.531" y="541.849" fill="#4d4d4d" fill-opacity="1" stroke="none"/><rect id="rect4035-6-6-0" width="0" height="11" x="355.223" y="537.015" fill="#4d4d4d" fill-opacity="1" stroke="none"/><rect id="rect4035-5-1-0-3" width="0" height="11" x="373.263" y="534.963" fill="#4d4d4d" fill-opacity="1" stroke="none"/><rect id="rect4035-8-3-7-4" width="0" height="11" x="355.223" y="537.015" fill="#4d4d4d" fill-opacity="1" stroke="none"/><rect id="rect4035-59-4-84-8" width="0" height="11" x="355.223" y="537.015" fill="#4d4d4d" fill-opacity="1" stroke="none"/><rect id="rect4035-1-3-3" width="0" height="11" x="361.238" y="541.231" fill="#4d4d4d" fill-opacity="1" stroke="none"/><rect id="rect4035-5-0-1-9" width="0" height="11" x="379.278" y="539.18" fill="#4d4d4d" fill-opacity="1" stroke="none"/><rect id="rect4035-8-1-01-9" width="0" height="11" x="361.238" y="541.231" fill="#4d4d4d" fill-opacity="1" stroke="none"/><rect id="rect4035-59-1-7-4" width="0" height="11" x="361.238" y="541.231" fill="#4d4d4d" fill-opacity="1" stroke="none"/><g id="g4377" transform="translate(0.55102032,-2.7187001e-6)"><g id="g4429" transform="translate(0.49999755,-0.14999992)"><g id="g4261" transform="matrix(-1,0,0,-1,799.04083,1063.896)"><rect id="rect4387" width="77.857" height="13.176" x="-254.213" y="-13.782" fill="#4d4d4d" fill-opacity="1" fill-rule="evenodd" stroke="none" stroke-dasharray="none" stroke-dashoffset="0" stroke-linecap="round" stroke-linejoin="round" stroke-miterlimit="4" stroke-opacity="1" stroke-width="3.593" opacity="1" ry="4.107" transform="matrix(0.16697335,0,0,0.16697335,442.46717,525.39925)"/><rect id="rect4387-8" width="13" height="2.2" x="400.02" y="528.548" fill="#4d4d4d" fill-opacity="1" fill-rule="evenodd" stroke="none" stroke-dasharray="none" stroke-dashoffset="0" stroke-linecap="round" stroke-linejoin="round" stroke-miterlimit="4" stroke-opacity="1" stroke-width="3.593" opacity="1" ry=".686"/><rect id="rect4387-8-1" width="77.857" height="13.176" x="-254.213" y="49.102" fill="#4d4d4d" fill-opacity="1" fill-rule="evenodd" stroke="none" stroke-dasharray="none" stroke-dashoffset="0" stroke-linecap="round" stroke-linejoin="round" stroke-miterlimit="4" stroke-opacity="1" stroke-width="3.593" opacity="1" ry="4.107" transform="matrix(0.16697335,0,0,0.16697335,442.46717,525.39925)"/><rect id="rect4387-8-6" width="161.702" height="13.176" x="-338.058" y="79.047" fill="#4d4d4d" fill-opacity="1" fill-rule="evenodd" stroke="none" stroke-dasharray="none" stroke-dashoffset="0" stroke-linecap="round" stroke-linejoin="round" stroke-miterlimit="4" stroke-opacity="1" stroke-width="3.593" opacity="1" ry="4" transform="matrix(0.16697335,0,0,0.16697335,442.46717,525.39925)"/><g id="layer1-9-6" transform="matrix(0.81185625,0,0,0.81185625,383.71305,-313.35875)"><g id="g3" fill="#4d4d4d" fill-opacity="1" transform="matrix(1.1827033e-4,0.03271224,-0.03271224,1.1827033e-4,18.268695,1034.3501)"><path id="path5" fill="#4d4d4d" fill-opacity="1" d="M 345.441,248.292 151.154,442.573 c -12.359,12.365 -32.397,12.365 -44.75,0 -12.354,-12.354 -12.354,-32.391 0,-44.744 L 278.318,225.92 106.409,54.017 c -12.354,-12.359 -12.354,-32.394 0,-44.748 12.354,-12.359 32.391,-12.359 44.75,0 l 194.287,194.284 c 6.177,6.18 9.262,14.271 9.262,22.366 0,8.099 -3.091,16.196 -9.267,22.373 z"/></g></g></g></g></g></g></g></g></svg>