<svg xmlns="http://www.w3.org/2000/svg" xmlns:osb="http://www.openswatchbook.org/uri/2009/osb" xmlns:svg="http://www.w3.org/2000/svg" xmlns:xlink="http://www.w3.org/1999/xlink" id="svg3760" width="22" height="22" version="1.1"><defs id="defs3762"><clipPath id="clipPath4160" clipPathUnits="userSpaceOnUse"><rect id="rect4162" width="1" height="1" x="7" y="1023.362" fill="#f2f2f2" fill-opacity="1" stroke="none" stroke-opacity="1" opacity="1"/></clipPath><clipPath id="clipPath4160-4" clipPathUnits="userSpaceOnUse"><rect id="rect4162-9" width="1" height="1" x="7" y="1023.362" fill="#f2f2f2" fill-opacity="1" stroke="none" stroke-opacity="1" opacity="1"/></clipPath><clipPath id="clipPath4160-3" clipPathUnits="userSpaceOnUse"><rect id="rect4162-0" width="1" height="1" x="7" y="1023.362" fill="#f2f2f2" fill-opacity="1" stroke="none" stroke-opacity="1" opacity="1"/></clipPath><linearGradient id="linearGradient4012"><stop id="stop4014" offset="0" stop-color="#1d99f3" stop-opacity="1"/><stop id="stop4016" offset=".417" stop-color="#48acf5" stop-opacity=".761"/><stop id="stop4018" offset=".667" stop-color="#73c0f7" stop-opacity="0"/><stop id="stop4020" offset="1" stop-color="#cae7fc" stop-opacity="0"/></linearGradient><linearGradient id="linearGradient4164" x1="3" x2="19" y1="1049.362" y2="1033.362" gradientTransform="matrix(0.75,0,0,0.75,1.7499999,269.34054)" gradientUnits="userSpaceOnUse" xlink:href="#linearGradient4012"/><linearGradient id="linearGradient3983" x1="3" x2="24.333" y1="1049.362" y2="1028.029" gradientTransform="matrix(0.75,0,0,0.75,2.7499999,262.34058)" gradientUnits="userSpaceOnUse" xlink:href="#linearGradient4012"/><linearGradient id="linearGradient4007" x1="3" x2="24.333" y1="1049.362" y2="1028.029" gradientTransform="matrix(0.75,0,0,0.75,3.7499999,-767.02162)" gradientUnits="userSpaceOnUse" xlink:href="#linearGradient4012"/><linearGradient id="linearGradient4164-76" x1="3" x2="19" y1="1049.362" y2="1033.362" gradientTransform="matrix(0.75,0,0,0.75,3.7499999,-769.02166)" gradientUnits="userSpaceOnUse" xlink:href="#linearGradient4012"/><linearGradient id="linearGradient4207" osb:paint="gradient"><stop id="stop3371" offset="0" stop-color="#3498db" stop-opacity="1"/><stop id="stop3373" offset="1" stop-color="#3498db" stop-opacity="0"/></linearGradient></defs><metadata id="metadata3765"/><g id="layer1" transform="translate(-553.72253,-583.11926)"><g id="layer1-7" transform="matrix(1.5823738,0,0,1.5823738,29.531218,-262.60623)"><g id="layer1-74" transform="matrix(0.67079478,0,0,0.66666664,69.298776,189.83021)"><g id="g3" fill="#4d4d4d" fill-opacity="1" transform="matrix(0.05484794,0,0,0.05467706,388.53397,519.798)"><g id="g5" fill="#4d4d4d" fill-opacity="1"><g id="Layer_5_56_" fill="#4d4d4d" fill-opacity="1"><g id="g8" fill="#4d4d4d" fill-opacity="1"><g id="g10" fill="#4d4d4d" fill-opacity="1"><g id="g12" fill="#4d4d4d" fill-opacity="1"><path id="path14" fill="#4d4d4d" fill-opacity="1" d="m 264.407,48.53 c 4.334,-3.385 7.922,-1.652 7.972,3.848 l 0.562,64.615 c 0.046,5.5 3.815,12.518 8.373,15.597 l 53.548,36.167 c 4.56,3.078 4.021,7.025 -1.194,8.77 l -61.276,20.504 c -5.218,1.744 -10.729,7.498 -12.246,12.783 l -17.851,62.104 c -1.521,5.286 -5.439,5.993 -8.711,1.571 l -38.438,-51.942 c -3.271,-4.421 -10.445,-7.885 -15.942,-7.695 l -64.579,2.217 c -5.498,0.188 -7.381,-3.322 -4.188,-7.799 l 37.523,-52.607 c 3.194,-4.478 4.27,-12.371 2.393,-17.541 L 128.29,78.39 c -1.879,-5.169 0.877,-8.045 6.122,-6.393 l 61.626,19.431 c 5.246,1.654 13.087,0.239 17.421,-3.145 L 264.407,48.53 Z"/><path id="path16" fill="#4d4d4d" fill-opacity="1" d="m 280.698,4.524 c 1.922,-3.979 6.703,-5.647 10.685,-3.727 l 0,0 c 3.979,1.92 5.646,6.703 3.727,10.682 l -7.827,16.211 c -1.92,3.979 -6.702,5.647 -10.682,3.728 l 0,0 c -3.979,-1.92 -5.647,-6.703 -3.727,-10.682 l 7.824,-16.212 z"/></g><g id="g18" fill="#4d4d4d" fill-opacity="1"><path id="path20" fill="#4d4d4d" fill-opacity="1" d="m 93.899,168.534 c -4.294,1.042 -8.618,-1.589 -9.665,-5.884 l 0,0 c -1.042,-4.293 1.59,-8.62 5.882,-9.664 l 17.492,-4.253 c 4.293,-1.045 8.621,1.588 9.664,5.881 l 0,0 c 1.043,4.294 -1.589,8.62 -5.883,9.665 l -17.49,4.255 z"/><path id="path22" fill="#4d4d4d" fill-opacity="1" d="m 149.993,29.229 c -2.031,-3.925 -0.499,-8.75 3.424,-10.783 l 0,0 c 3.925,-2.031 8.751,-0.5 10.784,3.422 l 8.279,15.986 c 2.03,3.922 0.499,8.75 -3.423,10.781 l 0,0 c -3.924,2.032 -8.752,0.5 -10.784,-3.424 l -8.28,-15.982 z"/></g><g id="g24" fill="#4d4d4d" fill-opacity="1"><path id="path26" fill="#4d4d4d" fill-opacity="1" d="m 286.278,261.398 c 1.854,4.011 6.604,5.76 10.618,3.907 l 0,0 c 4.01,-1.854 5.763,-6.606 3.908,-10.616 l -7.552,-16.343 c -1.854,-4.011 -6.604,-5.762 -10.615,-3.907 l 0,0 c -4.011,1.854 -5.761,6.605 -3.908,10.616 l 7.549,16.343 z"/><path id="path28" fill="#4d4d4d" fill-opacity="1" d="m 360.459,130.824 c 4.335,-0.851 7.16,-5.053 6.312,-9.389 l 0,0 c -0.852,-4.336 -5.053,-7.164 -9.389,-6.314 l -17.665,3.462 c -4.337,0.849 -7.163,5.051 -6.314,9.386 l 0,0 c 0.853,4.336 5.054,7.164 9.392,6.313 l 17.664,-3.458 z"/></g></g></g></g></g></g></g></g></g></svg>