<svg xmlns="http://www.w3.org/2000/svg" xmlns:svg="http://www.w3.org/2000/svg" id="svg3869" width="24" height="24" version="1.1"><defs id="defs3871"><linearGradient id="linearGradient4290-48"><stop id="stop4292-0" offset="0" stop-color="#a5a5a5" stop-opacity="1"/><stop id="stop4294-0" offset="1" stop-color="#f5f2f5" stop-opacity="1"/></linearGradient><clipPath id="clipPath16" clipPathUnits="userSpaceOnUse"><path id="path18" d="m 0,706.465 1490.926,0 L 1490.926,0 0,0 0,706.465 Z"/></clipPath><clipPath id="clipPath24" clipPathUnits="userSpaceOnUse"><path id="path26" d="m 22.1953,686.117 1447.7347,0 0,-667.1902 -1447.7347,0 L 22.1953,686.117 Z"/></clipPath></defs><metadata id="metadata3874"/><g id="layer1" transform="translate(-326,-532.3622)"><g id="layer1-8" transform="translate(-224.28571,-74.28568)"><path id="rect4144" fill="#4d4d4d" fill-opacity="1" stroke="none" stroke-dasharray="none" stroke-miterlimit="4" stroke-opacity=".55" stroke-width="2.8" d="m 3,3 0,4 0,1 0,10 0,1 16,0 0,-1 0,-1 0,-1 L 19,8 19,7 19,4.9003906 7,6 7,5 19,4 19,3 7,3 3,3 Z m 1,5 14,0 0,2 -14,0 0,-2 z m 0,3 3,0 0,3 -3,0 0,-3 z m 4,0 6,0 0,3 -6,0 0,-3 z m 7,0 3,0 0,3 -3,0 0,-3 z m -11,4 10,0 0,1 -10,0 0,-1 z m 11,0 3,0 0,1 -3,0 0,-1 z m -11,2 10,0 1,0 3,0 0,1 -14,0 0,-1 z" opacity="1" transform="translate(551.28571,607.64788)"/></g></g></svg>