<svg xmlns="http://www.w3.org/2000/svg" xmlns:svg="http://www.w3.org/2000/svg" id="svg3760" width="22" height="22" version="1.1"><metadata id="metadata3765"/><g id="layer1" transform="translate(-553.72253,-583.11926)"><g id="layer1-4" transform="translate(2.43681,-24.52864)"><path id="rect4112" fill="#4d4d4d" fill-opacity="1" stroke="none" d="m 5,4 0,14 -1,0 0,1 1,0 0,1 1,0 0,-1 12,0 0,1 1,0 0,-1 1,0 0,-1 -1,0 L 19,4 18,4 18,18 6,18 6,4 5,4 z m 2,1 0,2 4,0 0,10 2,0 0,-10 4,0 0,-2 -10,0 z" transform="translate(550.28572,606.6479)"/></g></g></svg>