<svg xmlns="http://www.w3.org/2000/svg" xmlns:osb="http://www.openswatchbook.org/uri/2009/osb" xmlns:svg="http://www.w3.org/2000/svg" id="svg3760" width="22" height="22" version="1.1"><defs id="defs3762"><clipPath id="clipPath16" clipPathUnits="userSpaceOnUse"><path id="path18" d="m 0,706.465 1490.926,0 L 1490.926,0 0,0 0,706.465 Z"/></clipPath><clipPath id="clipPath24" clipPathUnits="userSpaceOnUse"><path id="path26" d="m 22.1953,686.117 1447.7347,0 0,-667.1902 -1447.7347,0 0,667.1902 z"/></clipPath><clipPath id="clipPath4534" clipPathUnits="userSpaceOnUse"><rect id="rect4536" width="32" height="32" x="8" y="8" fill="url(#linearGradient4538)" fill-opacity="1" stroke="none" ry="16"/></clipPath><clipPath id="clipPath4584" clipPathUnits="userSpaceOnUse"><rect id="rect4586" width="32" height="32" x="392.571" y="507.798" fill="url(#linearGradient4588)" fill-opacity="1" stroke="none" ry="16"/></clipPath><clipPath id="clipPath4550" clipPathUnits="userSpaceOnUse"><rect id="rect4552" width="32" height="32" x="392.571" y="507.798" fill="url(#linearGradient4554)" fill-opacity="1" stroke="none" ry="16"/></clipPath><clipPath id="clipPath4568" clipPathUnits="userSpaceOnUse"><rect id="rect4570" width="32" height="32" x="392.571" y="507.798" fill="url(#linearGradient4572)" fill-opacity="1" stroke="none" ry="16"/></clipPath><clipPath id="clipPath4528" clipPathUnits="userSpaceOnUse"><rect id="rect4530" width="32" height="32" x="8" y="8" fill="url(#linearGradient4532)" fill-opacity="1" stroke="none" ry="16"/></clipPath><clipPath id="clipPath4578" clipPathUnits="userSpaceOnUse"><rect id="rect4580" width="32" height="32" x="392.571" y="507.798" fill="url(#linearGradient4582)" fill-opacity="1" stroke="none" ry="16"/></clipPath><clipPath id="clipPath4562" clipPathUnits="userSpaceOnUse"><rect id="rect4564" width="32" height="32" x="392.571" y="507.798" fill="url(#linearGradient4566)" fill-opacity="1" stroke="none" ry="16"/></clipPath><clipPath id="clipPath4544" clipPathUnits="userSpaceOnUse"><rect id="rect4546" width="32" height="32" x="392.571" y="507.798" fill="url(#linearGradient4548)" fill-opacity="1" stroke="none" ry="16"/></clipPath><clipPath id="clipPath4390" clipPathUnits="userSpaceOnUse"><rect id="rect4392" width="32" height="32" x="8" y="8" fill="url(#linearGradient4532)" fill-opacity="1" stroke="none" ry="16"/></clipPath><clipPath id="clipPath4407" clipPathUnits="userSpaceOnUse"><rect id="rect4409" width="32" height="32" x="392.571" y="507.798" fill="url(#linearGradient4582)" fill-opacity="1" stroke="none" ry="16"/></clipPath><clipPath id="clipPath4424" clipPathUnits="userSpaceOnUse"><rect id="rect4426" width="32" height="32" x="392.571" y="507.798" fill="url(#linearGradient4566)" fill-opacity="1" stroke="none" ry="16"/></clipPath><clipPath id="clipPath4441" clipPathUnits="userSpaceOnUse"><rect id="rect4443" width="32" height="32" x="392.571" y="507.798" fill="url(#linearGradient4548)" fill-opacity="1" stroke="none" ry="16"/></clipPath><clipPath id="clipPath4528-1" clipPathUnits="userSpaceOnUse"><rect id="rect4530-7" width="32" height="32" x="8" y="8" fill="url(#linearGradient4532)" fill-opacity="1" stroke="none" ry="16"/></clipPath><clipPath id="clipPath4578-8" clipPathUnits="userSpaceOnUse"><rect id="rect4580-7" width="32" height="32" x="392.571" y="507.798" fill="url(#linearGradient4582)" fill-opacity="1" stroke="none" ry="16"/></clipPath><clipPath id="clipPath4562-8" clipPathUnits="userSpaceOnUse"><rect id="rect4564-8" width="32" height="32" x="392.571" y="507.798" fill="url(#linearGradient4566)" fill-opacity="1" stroke="none" ry="16"/></clipPath><clipPath id="clipPath4544-1" clipPathUnits="userSpaceOnUse"><rect id="rect4546-1" width="32" height="32" x="392.571" y="507.798" fill="url(#linearGradient4548)" fill-opacity="1" stroke="none" ry="16"/></clipPath><linearGradient id="linearGradient4207" osb:paint="gradient"><stop id="stop3371" offset="0" stop-color="#3498db" stop-opacity="1"/><stop id="stop3373" offset="1" stop-color="#3498db" stop-opacity="0"/></linearGradient><clipPath id="clipPath16-0" clipPathUnits="userSpaceOnUse"><path id="path18-2" d="m 0,706.465 1490.926,0 L 1490.926,0 0,0 0,706.465 Z"/></clipPath><clipPath id="clipPath24-0" clipPathUnits="userSpaceOnUse"><path id="path26-9" d="m 22.1953,686.117 1447.7347,0 0,-667.1902 -1447.7347,0 0,667.1902 z"/></clipPath><clipPath id="clipPath4534-0" clipPathUnits="userSpaceOnUse"><rect id="rect4536-1" width="32" height="32" x="8" y="8" fill="url(#linearGradient4538)" fill-opacity="1" stroke="none" ry="16"/></clipPath><clipPath id="clipPath4584-9" clipPathUnits="userSpaceOnUse"><rect id="rect4586-8" width="32" height="32" x="392.571" y="507.798" fill="url(#linearGradient4588)" fill-opacity="1" stroke="none" ry="16"/></clipPath><clipPath id="clipPath4550-8" clipPathUnits="userSpaceOnUse"><rect id="rect4552-1" width="32" height="32" x="392.571" y="507.798" fill="url(#linearGradient4554)" fill-opacity="1" stroke="none" ry="16"/></clipPath><clipPath id="clipPath4568-3" clipPathUnits="userSpaceOnUse"><rect id="rect4570-7" width="32" height="32" x="392.571" y="507.798" fill="url(#linearGradient4572)" fill-opacity="1" stroke="none" ry="16"/></clipPath><clipPath id="clipPath4528-9" clipPathUnits="userSpaceOnUse"><rect id="rect4530-4" width="32" height="32" x="8" y="8" fill="url(#linearGradient4532)" fill-opacity="1" stroke="none" ry="16"/></clipPath><clipPath id="clipPath4578-1" clipPathUnits="userSpaceOnUse"><rect id="rect4580-0" width="32" height="32" x="392.571" y="507.798" fill="url(#linearGradient4582)" fill-opacity="1" stroke="none" ry="16"/></clipPath><clipPath id="clipPath4562-0" clipPathUnits="userSpaceOnUse"><rect id="rect4564-0" width="32" height="32" x="392.571" y="507.798" fill="url(#linearGradient4566)" fill-opacity="1" stroke="none" ry="16"/></clipPath><clipPath id="clipPath4544-0" clipPathUnits="userSpaceOnUse"><rect id="rect4546-5" width="32" height="32" x="392.571" y="507.798" fill="url(#linearGradient4548)" fill-opacity="1" stroke="none" ry="16"/></clipPath><clipPath id="clipPath4390-5" clipPathUnits="userSpaceOnUse"><rect id="rect4392-5" width="32" height="32" x="8" y="8" fill="url(#linearGradient4532)" fill-opacity="1" stroke="none" ry="16"/></clipPath><clipPath id="clipPath4407-4" clipPathUnits="userSpaceOnUse"><rect id="rect4409-9" width="32" height="32" x="392.571" y="507.798" fill="url(#linearGradient4582)" fill-opacity="1" stroke="none" ry="16"/></clipPath><clipPath id="clipPath4424-1" clipPathUnits="userSpaceOnUse"><rect id="rect4426-7" width="32" height="32" x="392.571" y="507.798" fill="url(#linearGradient4566)" fill-opacity="1" stroke="none" ry="16"/></clipPath><clipPath id="clipPath4441-2" clipPathUnits="userSpaceOnUse"><rect id="rect4443-4" width="32" height="32" x="392.571" y="507.798" fill="url(#linearGradient4548)" fill-opacity="1" stroke="none" ry="16"/></clipPath><clipPath id="clipPath4528-1-8" clipPathUnits="userSpaceOnUse"><rect id="rect4530-7-2" width="32" height="32" x="8" y="8" fill="url(#linearGradient4532)" fill-opacity="1" stroke="none" ry="16"/></clipPath><clipPath id="clipPath4578-8-3" clipPathUnits="userSpaceOnUse"><rect id="rect4580-7-1" width="32" height="32" x="392.571" y="507.798" fill="url(#linearGradient4582)" fill-opacity="1" stroke="none" ry="16"/></clipPath><clipPath id="clipPath4562-8-4" clipPathUnits="userSpaceOnUse"><rect id="rect4564-8-5" width="32" height="32" x="392.571" y="507.798" fill="url(#linearGradient4566)" fill-opacity="1" stroke="none" ry="16"/></clipPath><clipPath id="clipPath4544-1-0" clipPathUnits="userSpaceOnUse"><rect id="rect4546-1-4" width="32" height="32" x="392.571" y="507.798" fill="url(#linearGradient4548)" fill-opacity="1" stroke="none" ry="16"/></clipPath></defs><metadata id="metadata3765"/><g id="layer1" transform="translate(-553.72253,-583.11926)"><g id="g4265"><g id="layer1-59" transform="translate(206.72253,50.25706)"><g id="layer1-31" transform="translate(20,-0.5)"><g id="layer1-58" fill="#fff" fill-opacity="1" transform="translate(-3,0)"><g id="layer1-6-5" fill="#fff" fill-opacity="1" transform="translate(-51.85714,-6.71427)"><path id="path4128" fill="#4d4d4d" fill-opacity="1" stroke="none" d="M 1.1503906 3 C 0.73326062 3 0.3984375 3.3367863 0.3984375 3.7539062 L 0.3984375 10.357422 L 1.65625 10.357422 L 1.65625 9.0722656 L 2.9433594 9.0722656 L 2.9433594 6.5 L 4.2285156 6.5 L 4.2285156 7.7851562 L 5.5136719 7.7851562 L 5.5136719 9.0722656 L 6.8007812 9.0722656 L 6.8007812 10.357422 L 6.8007812 11.642578 L 6.8007812 12.927734 L 5.5136719 12.927734 L 5.5136719 14.214844 L 4.2285156 14.214844 L 4.2285156 15.5 L 2.9433594 15.5 L 2.9433594 12.927734 L 1.65625 12.927734 L 1.65625 11.642578 L 0.3984375 11.642578 L 0.3984375 18.246094 C 0.3984375 18.663224 0.73326063 19 1.1503906 19 L 20.849609 19 C 21.266739 19 21.601562 18.663224 21.601562 18.246094 L 21.601562 11.642578 L 20.34375 11.642578 L 20.34375 12.927734 L 19.056641 12.927734 L 19.056641 14.214844 L 17.771484 14.214844 L 17.771484 15.5 L 16.486328 15.5 L 16.486328 14.214844 L 15.199219 14.214844 L 15.199219 12.927734 L 13.914062 12.927734 L 13.914062 11.642578 L 13.914062 10.357422 L 13.914062 9.0722656 L 15.199219 9.0722656 L 15.199219 7.7851562 L 16.486328 7.7851562 L 16.486328 6.5 L 17.771484 6.5 L 17.771484 7.7851562 L 19.056641 7.7851562 L 19.056641 9.0722656 L 20.34375 9.0722656 L 20.34375 10.357422 L 21.601562 10.357422 L 21.601562 3.7539062 C 21.601562 3.3367863 21.266739 3 20.849609 3 L 1.1503906 3 z M 21.601562 10.357422 L 21.601562 11.642578 L 21.628906 11.642578 L 21.628906 10.357422 L 21.601562 10.357422 z M 0.3984375 11.642578 L 0.3984375 10.357422 L 0.37109375 10.357422 L 0.37109375 11.642578 L 0.3984375 11.642578 z M 10.791016 7.1269531 L 11.054688 10.207031 L 13.308594 8.0917969 C 13.770406 8.5827522 13.608499 8.960854 12.900391 9.6269531 L 11.140625 11.277344 L 11.244141 12.421875 C 11.549007 12.418269 11.832381 12.459744 12.052734 12.607422 C 12.390577 12.833892 12.574363 13.205766 12.605469 13.574219 C 12.636583 13.942637 12.515801 14.331442 12.220703 14.611328 C 11.676118 15.105485 10.778331 14.909317 10.525391 13.916016 L 10.361328 12.015625 L 8.9707031 13.320312 C 8.1188108 13.890297 7.3191228 13.436624 7.2441406 12.705078 C 7.2115997 12.299656 7.3810741 11.929078 7.6503906 11.675781 C 7.9197214 11.422451 8.3062982 11.268914 8.7089844 11.326172 C 8.9715859 11.363546 9.2093054 11.521828 9.4335938 11.728516 L 10.275391 10.945312 L 10.068359 8.5429688 C 9.9865975 7.5742352 10.119384 7.1836381 10.791016 7.1269531 z M 8.5703125 11.892578 C 8.3956957 11.849508 8.2011839 11.898706 8.0449219 12.029297 C 7.7949613 12.238175 7.7371753 12.589561 7.9316406 12.822266 C 8.1260651 13.055072 8.4998915 13.074416 8.75 12.865234 C 8.9999457 12.65639 9.0362605 12.299145 8.8417969 12.066406 C 8.7688896 11.979087 8.6751237 11.918191 8.5703125 11.892578 z M 11.458984 13.068359 C 11.158779 13.111598 10.945767 13.402226 10.992188 13.724609 C 11.038518 14.04733 11.33067 14.281553 11.630859 14.238281 C 11.931042 14.195077 12.122583 13.896602 12.076172 13.574219 C 12.041393 13.33228 11.874912 13.140942 11.667969 13.080078 C 11.599012 13.059858 11.534027 13.057575 11.458984 13.068359 z" opacity="1" transform="translate(381.85714,540.07647)"/></g></g></g></g></g></g></svg>