<svg xmlns="http://www.w3.org/2000/svg" xmlns:svg="http://www.w3.org/2000/svg" id="svg3760" width="22" height="22" version="1.1"><metadata id="metadata3765"/><g id="layer1" transform="translate(-553.72253,-583.11926)"><g id="layer1-3" transform="translate(553.72253,-447.24294)"><path id="rect4112" fill="#4d4d4d" fill-opacity="1" stroke="none" d="m 16,1044.3622 0,2 -2,0 0,1 2,0 0,2 1,0 0,-2 2,0 0,-1 -2,0 0,-2 -1,0 z"/><path id="rect4155" fill="#4d4d4d" fill-opacity="1" stroke="none" d="m 3,1033.3622 0,1 0,2 1,0 0,-2 4,0 0,9 -1,0 0,1 3,0 0,-1 -1,0 0,-9 4,0 0,2 1,0 0,-3 -10,0 -1,0 z"/></g></g></svg>