<svg xmlns="http://www.w3.org/2000/svg" xmlns:svg="http://www.w3.org/2000/svg" xmlns:xlink="http://www.w3.org/1999/xlink" id="svg3869" width="22" height="22" version="1.1"><defs id="defs3871"><linearGradient id="linearGradient4066"><stop id="stop4068" offset="0" stop-color="#dbc9ee" stop-opacity="1"/><stop id="stop4070" offset="1" stop-color="#faf7fd" stop-opacity="1"/></linearGradient><linearGradient id="linearGradient3843-5"><stop id="stop3845-0" offset="0" stop-color="#5a2c8b" stop-opacity="1"/><stop id="stop3847-4" offset="1" stop-color="#9d59cf" stop-opacity="1"/></linearGradient><linearGradient id="linearGradient8311-06"><stop id="stop8313-6" offset="0" stop-color="#a9a3d4" stop-opacity="1"/><stop id="stop4462" offset=".47" stop-color="#87baff" stop-opacity="1"/><stop id="stop8315-2" offset="1" stop-color="#89ec85" stop-opacity="1"/></linearGradient><linearGradient id="linearGradient4460" x1="0" x2="47" y1="23.5" y2="23.5" gradientUnits="userSpaceOnUse" xlink:href="#linearGradient8311-06"/></defs><metadata id="metadata3874"/><g id="layer1" transform="translate(-326,-534.3622)"><g id="g4183" transform="translate(-1.0000019,0.99999614)"><g id="layer1-0" transform="matrix(0.32045072,0,0,0.32045072,207.07299,376.47867)"><g id="layer1-8" transform="translate(363.46801,-516.38811)"><g id="g4420" transform="matrix(0.03665026,0,0,0.03665026,2.771614,1009.831)"><g id="g4289" transform="matrix(1.0486692,0,0,1.0486692,-33.394037,-49.909457)"><g id="g4319" transform="translate(0,7.80506)"><g id="g4273" transform="matrix(1.9935157,0,0,1.9935157,-537.48696,36.004657)"><path id="path4194-2" fill="#4d4d4d" fill-opacity="1" fill-rule="evenodd" stroke="none" stroke-linecap="butt" stroke-linejoin="miter" stroke-opacity="1" stroke-width="1" d="m 471.41309,628.76803 733.45131,3.41252 c 0.822,36.55995 6.6204,94.54093 -43.7882,93.01 l -651.37457,0 c -41.61051,0.37255 -36.21824,-41.01776 -38.28854,-96.42252 z"/><path id="path4166-2" fill="#4d4d4d" fill-opacity="1" fill-rule="evenodd" stroke="none" stroke-linecap="butt" stroke-linejoin="miter" stroke-opacity="1" stroke-width="1" d="M 18.273438 3 L 3.7519531 3.0566406 C 2.6708008 2.9902861 2.5820313 4.0390625 2.5820312 4.0390625 L 1.9980469 16.488281 L 1.9667969 17.125 C 1.8633133 18.490482 3.140625 18.21875 3.140625 18.21875 L 18.919922 18.21875 C 18.919922 18.21875 20.090156 18.267904 20.037109 17.125 L 19.998047 16.357422 L 19.378906 3.9960938 C 19.378906 3.9960938 19.294365 2.9961619 18.273438 3 z M 15 6 L 16 6 L 16 13.800781 L 16 14.666016 L 11 14.666016 L 11 16.400391 L 8 14.232422 L 11 12.066406 L 11 13.800781 L 15 13.800781 L 15 6 z" opacity="1" transform="matrix(40.728978,0,0,40.728978,390.07196,-48.630325)"/></g></g></g></g></g></g></g></g></svg>