<svg xmlns="http://www.w3.org/2000/svg" xmlns:svg="http://www.w3.org/2000/svg" id="svg3869" width="22" height="22" version="1.1"><defs id="defs3871"><linearGradient id="linearGradient3257"><stop id="stop3259" offset="0" stop-color="#a50000" stop-opacity="1"/><stop id="stop3261" offset="1" stop-color="#e73800" stop-opacity="1"/></linearGradient><clipPath id="clipPath4210" clipPathUnits="userSpaceOnUse"><rect id="rect4212" width="34" height="34" x="-7" y="1024.362" fill="#00f" fill-opacity=".514" stroke="none" stroke-opacity="1" opacity="1"/></clipPath><clipPath id="clipPath4160" clipPathUnits="userSpaceOnUse"><rect id="rect4162" width="32" height="32" x="-6" y="1028.362" fill="#aade87" fill-opacity=".472" stroke="none" stroke-opacity="1" opacity="1"/></clipPath><clipPath id="clipPath4160-4" clipPathUnits="userSpaceOnUse"><rect id="rect4162-5" width="1" height="1" x="7" y="1023.362" fill="#f2f2f2" fill-opacity="1" stroke="none" stroke-opacity="1" opacity="1"/></clipPath><clipPath id="clipPath16" clipPathUnits="userSpaceOnUse"><path id="path18" d="m 0,706.465 1490.926,0 L 1490.926,0 0,0 0,706.465 Z"/></clipPath><clipPath id="clipPath24" clipPathUnits="userSpaceOnUse"><path id="path26" d="m 22.1953,686.117 1447.7347,0 0,-667.1902 -1447.7347,0 0,667.1902 z"/></clipPath><clipPath id="clipPath4160-3" clipPathUnits="userSpaceOnUse"><rect id="rect4162-58" width="1" height="1" x="7" y="1023.362" fill="#f2f2f2" fill-opacity="1" stroke="none" stroke-opacity="1" opacity="1"/></clipPath><clipPath id="clipPath4160-2" clipPathUnits="userSpaceOnUse"><rect id="rect4162-4" width="1" height="1" x="7" y="1023.362" fill="#f2f2f2" fill-opacity="1" stroke="none" stroke-opacity="1" opacity="1"/></clipPath><clipPath id="clipPath16-0" clipPathUnits="userSpaceOnUse"><path id="path18-2" d="m 0,706.465 1490.926,0 L 1490.926,0 0,0 0,706.465 Z"/></clipPath><clipPath id="clipPath24-0" clipPathUnits="userSpaceOnUse"><path id="path26-7" d="m 22.1953,686.117 1447.7347,0 0,-667.1902 -1447.7347,0 0,667.1902 z"/></clipPath><clipPath id="clipPath4534" clipPathUnits="userSpaceOnUse"><rect id="rect4536" width="32" height="32" x="8" y="8" fill="url(#linearGradient4538)" fill-opacity="1" stroke="none" ry="16"/></clipPath><clipPath id="clipPath4584" clipPathUnits="userSpaceOnUse"><rect id="rect4586" width="32" height="32" x="392.571" y="507.798" fill="url(#linearGradient4588)" fill-opacity="1" stroke="none" ry="16"/></clipPath><clipPath id="clipPath4550" clipPathUnits="userSpaceOnUse"><rect id="rect4552" width="32" height="32" x="392.571" y="507.798" fill="url(#linearGradient4554)" fill-opacity="1" stroke="none" ry="16"/></clipPath><clipPath id="clipPath4568" clipPathUnits="userSpaceOnUse"><rect id="rect4570" width="32" height="32" x="392.571" y="507.798" fill="url(#linearGradient4572)" fill-opacity="1" stroke="none" ry="16"/></clipPath><clipPath id="clipPath4528" clipPathUnits="userSpaceOnUse"><rect id="rect4530" width="32" height="32" x="8" y="8" fill="url(#linearGradient4532)" fill-opacity="1" stroke="none" ry="16"/></clipPath><clipPath id="clipPath4578" clipPathUnits="userSpaceOnUse"><rect id="rect4580" width="32" height="32" x="392.571" y="507.798" fill="url(#linearGradient4582)" fill-opacity="1" stroke="none" ry="16"/></clipPath><clipPath id="clipPath4562" clipPathUnits="userSpaceOnUse"><rect id="rect4564" width="32" height="32" x="392.571" y="507.798" fill="url(#linearGradient4566)" fill-opacity="1" stroke="none" ry="16"/></clipPath><clipPath id="clipPath4544" clipPathUnits="userSpaceOnUse"><rect id="rect4546" width="32" height="32" x="392.571" y="507.798" fill="url(#linearGradient4548)" fill-opacity="1" stroke="none" ry="16"/></clipPath><clipPath id="clipPath4390" clipPathUnits="userSpaceOnUse"><rect id="rect4392" width="32" height="32" x="8" y="8" fill="url(#linearGradient4532)" fill-opacity="1" stroke="none" ry="16"/></clipPath><clipPath id="clipPath4407" clipPathUnits="userSpaceOnUse"><rect id="rect4409" width="32" height="32" x="392.571" y="507.798" fill="url(#linearGradient4582)" fill-opacity="1" stroke="none" ry="16"/></clipPath><clipPath id="clipPath4424" clipPathUnits="userSpaceOnUse"><rect id="rect4426" width="32" height="32" x="392.571" y="507.798" fill="url(#linearGradient4566)" fill-opacity="1" stroke="none" ry="16"/></clipPath><clipPath id="clipPath4441" clipPathUnits="userSpaceOnUse"><rect id="rect4443" width="32" height="32" x="392.571" y="507.798" fill="url(#linearGradient4548)" fill-opacity="1" stroke="none" ry="16"/></clipPath><clipPath id="clipPath4528-1" clipPathUnits="userSpaceOnUse"><rect id="rect4530-7" width="32" height="32" x="8" y="8" fill="url(#linearGradient4532)" fill-opacity="1" stroke="none" ry="16"/></clipPath><clipPath id="clipPath4578-8" clipPathUnits="userSpaceOnUse"><rect id="rect4580-7" width="32" height="32" x="392.571" y="507.798" fill="url(#linearGradient4582)" fill-opacity="1" stroke="none" ry="16"/></clipPath><clipPath id="clipPath4562-8" clipPathUnits="userSpaceOnUse"><rect id="rect4564-8" width="32" height="32" x="392.571" y="507.798" fill="url(#linearGradient4566)" fill-opacity="1" stroke="none" ry="16"/></clipPath><clipPath id="clipPath4544-1" clipPathUnits="userSpaceOnUse"><rect id="rect4546-1" width="32" height="32" x="392.571" y="507.798" fill="url(#linearGradient4548)" fill-opacity="1" stroke="none" ry="16"/></clipPath></defs><metadata id="metadata3874"/><g id="layer1" transform="translate(-326,-534.3622)"><g id="g4422" transform="translate(56.8037,4.6670613)"><g id="g4288" transform="matrix(0.97084924,0,0,0.97084924,8.3620373,16.87835)"><g id="layer1-74" transform="translate(-60.125002,-5.4999962)"><g id="layer1-7" transform="matrix(0.66666666,0,0,0.66666666,70.952386,189.8302)"><g id="layer1-5" transform="matrix(1.5,0,0,1.5,-104.92858,-286.2453)"><g id="layer1-3-9" transform="matrix(0.28650725,0,0,0.28650725,116.73905,490.74772)"><path id="path7" fill="#4d4d4d" fill-opacity="1" stroke="none" stroke-dasharray="none" stroke-miterlimit="4" stroke-width=".5" d="M 8.9394531 3 C 4.6569429 3 1.1738281 5.9221607 1.1738281 9.5136719 C 1.1738281 11.461355 2.1850677 13.27365 3.9570312 14.513672 C 4.1250621 15.52873 3.5432844 16.590381 3.5371094 16.601562 C 3.4040788 16.836295 3.4131473 17.124947 3.5625 17.351562 C 3.6961119 17.55414 3.9216418 17.673828 4.1640625 17.673828 C 4.1899365 17.673828 4.2159296 17.672731 4.2421875 17.669922 C 4.996912 17.586078 6.2137533 17.012736 7.8632812 15.964844 C 8.218519 16.005997 8.5793783 16.027344 8.9394531 16.027344 C 13.222089 16.027344 16.707031 13.105155 16.707031 9.5136719 C 16.707031 5.9221913 13.222089 3 8.9394531 3 z M 8.1875 6.9394531 L 9.1582031 6.9394531 L 9.1582031 8.8808594 L 11.101562 8.8808594 L 11.101562 9.8515625 L 9.1582031 9.8515625 L 9.1582031 11.792969 L 8.1875 11.792969 L 8.1875 9.8515625 L 6.2460938 9.8515625 L 6.2460938 8.8808594 L 8.1875 8.8808594 L 8.1875 6.9394531 z" transform="matrix(3.5951134,0,0,3.5951134,736.63769,153.45834)"/></g></g></g></g><g id="layer1-74-6" transform="matrix(-0.52927739,0,0,0.52927739,464.77928,255.66654)"><g id="layer1-7-8" transform="matrix(0.66666666,0,0,0.66666666,70.952386,189.8302)"><g id="layer1-5-5" transform="matrix(1.5,0,0,1.5,-104.92858,-286.2453)"><g id="layer1-3-9-8" transform="matrix(0.28650725,0,0,0.28650725,116.73905,490.74772)"><path id="path7-3" fill="#4d4d4d" fill-opacity="1" stroke="none" stroke-dasharray="none" stroke-miterlimit="4" stroke-width=".5" d="m 740.85718,187.65999 c 0,-12.91189 12.52623,-23.41631 27.92234,-23.41631 15.39656,0 27.92267,10.50453 27.92267,23.41631 0,12.91179 -12.52611,23.41632 -27.92267,23.41632 -1.29451,0 -2.59354,-0.075 -3.87066,-0.22295 -5.93024,3.76729 -10.30801,5.82929 -13.02133,6.13072 -0.0944,0.0101 -0.18937,0.0155 -0.28239,0.0155 -0.87153,0 -1.67821,-0.43433 -2.15856,-1.16262 -0.53694,-0.81471 -0.57196,-1.8483 -0.0937,-2.69219 0.0222,-0.0402 2.11617,-3.86054 1.51208,-7.50979 -6.37041,-4.45802 -10.00778,-10.97288 -10.00778,-17.97502 z"/></g></g></g></g></g></g></g></svg>