<svg xmlns="http://www.w3.org/2000/svg" xmlns:svg="http://www.w3.org/2000/svg" xmlns:xlink="http://www.w3.org/1999/xlink" id="svg3760" width="22" height="22" version="1.1"><defs id="defs3762"><linearGradient id="linearGradient4737"><stop id="stop4739" offset="0" stop-color="#9e9e9e" stop-opacity="1"/><stop id="stop4741" offset="1" stop-color="#969696" stop-opacity="1"/></linearGradient><linearGradient id="linearGradient3923"><stop id="stop3925" offset="0" stop-color="#c8c8c8" stop-opacity="1"/><stop id="stop3927" offset="1" stop-color="#969696" stop-opacity="1"/></linearGradient><linearGradient id="linearGradient3911"><stop id="stop3913" offset="0" stop-color="#828282" stop-opacity="1"/><stop id="stop3915" offset="1" stop-color="#c8c8c8" stop-opacity="1"/></linearGradient><linearGradient id="linearGradient3781"><stop id="stop3783" offset="0" stop-color="#dcdcdc" stop-opacity="1"/><stop id="stop3785" offset="1" stop-color="#f0f0f0" stop-opacity="1"/></linearGradient><linearGradient id="linearGradient3780"><stop id="stop3782" offset="0" stop-color="#b2b2b2" stop-opacity="1"/><stop id="stop3784" offset="1" stop-color="#afafaf" stop-opacity="1"/></linearGradient><linearGradient id="linearGradient3687"><stop id="stop3689" offset="0" stop-color="#2c2c2c" stop-opacity="1"/><stop id="stop3691" offset=".111" stop-color="#414141" stop-opacity="1"/><stop id="stop3693" offset=".29" stop-color="#474747" stop-opacity="1"/><stop id="stop3695" offset=".512" stop-color="#4e4e4e" stop-opacity="1"/><stop id="stop3699" offset=".752" stop-color="#3c3c3c" stop-opacity="1"/><stop id="stop3701" offset=".897" stop-color="#323232" stop-opacity="1"/><stop id="stop3703" offset="1" stop-color="#272727" stop-opacity="1"/></linearGradient><linearGradient id="linearGradient4500"><stop id="stop4502" offset="0" stop-color="#ffce3b" stop-opacity="1"/><stop id="stop4504" offset="1" stop-color="#ffd762" stop-opacity="1"/></linearGradient><linearGradient id="linearGradient4234"><stop id="stop4236" offset="0" stop-color="#ffce3b" stop-opacity="1"/><stop id="stop4238" offset="1" stop-color="#fef4ab" stop-opacity="1"/></linearGradient><linearGradient id="linearGradient4240" x1="537.195" x2="537.195" y1="986.671" y2="-2.623" gradientUnits="userSpaceOnUse" xlink:href="#linearGradient4500"/><linearGradient id="linearGradient4320" x1="537.195" x2="537.195" y1="986.671" y2="-2.623" gradientUnits="userSpaceOnUse" xlink:href="#linearGradient4234"/><linearGradient id="linearGradient5263"><stop id="stop5265" offset="0" stop-color="#a0d5ff" stop-opacity="1"/><stop id="stop5267" offset="1" stop-color="#a0d5ff" stop-opacity="1"/></linearGradient><linearGradient id="linearGradient5146"><stop id="stop5148" offset="0" stop-color="#d5dbff" stop-opacity="1"/><stop id="stop5150" offset="1" stop-color="#ebedff" stop-opacity="1"/></linearGradient><linearGradient id="linearGradient5152" x1="767.857" x2="767.857" y1="200.934" y2="174.934" gradientUnits="userSpaceOnUse" xlink:href="#linearGradient5146"/><clipPath id="clipPath4458"><path id="use4460" d="m 69.626,12.145 -0.052,0 c -22.727,-0.292 -46.472,4.077 -46.709,4.122 -2.424,0.451 -4.946,2.974 -5.397,5.397 -0.044,0.237 -4.414,23.983 -4.122,46.71 -0.292,22.777 4.078,46.523 4.122,46.761 0.451,2.423 2.974,4.945 5.398,5.398 0.237,0.044 23.982,4.413 46.709,4.121 22.779,0.292 46.524,-4.077 46.761,-4.121 2.423,-0.452 4.946,-2.976 5.398,-5.399 0.044,-0.236 4.413,-23.981 4.121,-46.709 0.292,-22.777 -4.077,-46.523 -4.121,-46.761 -0.453,-2.423 -2.976,-4.946 -5.398,-5.397 -0.238,-0.045 -23.984,-4.414 -46.71,-4.122 z"/></clipPath><linearGradient id="linearGradient4237"><stop id="stop4239" offset="0" stop-color="#ff594d" stop-opacity="1"/><stop id="stop4241" offset="1" stop-color="#ff7f76" stop-opacity="1"/></linearGradient><linearGradient id="linearGradient4210"><stop id="stop4212" offset="0" stop-color="#ff584c" stop-opacity="1"/><stop id="stop4214" offset="1" stop-color="#ff8077" stop-opacity="1"/></linearGradient><linearGradient id="linearGradient4179"><stop id="stop4181" offset="0" stop-color="#ffee5e" stop-opacity="1"/><stop id="stop4183" offset="1" stop-color="#feff8b" stop-opacity="1"/></linearGradient><linearGradient id="linearGradient4210-3"><stop id="stop4212-1" offset="0" stop-color="#ffce69" stop-opacity="1"/><stop id="stop4214-6" offset="1" stop-color="#ffce54" stop-opacity="1"/></linearGradient><linearGradient id="linearGradient4237-0"><stop id="stop4239-8" offset="0" stop-color="#ffee5e" stop-opacity="1"/><stop id="stop4241-9" offset="1" stop-color="#feff9f" stop-opacity="1"/></linearGradient><linearGradient id="linearGradient4237-2"><stop id="stop4239-7" offset="0" stop-color="#ffa0a6" stop-opacity="1"/><stop id="stop4241-2" offset="1" stop-color="#ffa0a5" stop-opacity="1"/></linearGradient><linearGradient id="linearGradient8311"><stop id="stop8313" offset="0" stop-color="#ce89ff" stop-opacity="1"/><stop id="stop8315" offset="1" stop-color="#e898ff" stop-opacity="1"/></linearGradient><linearGradient id="linearGradient4237-8"><stop id="stop4239-2" offset="0" stop-color="#cf8aff" stop-opacity="1"/><stop id="stop4241-3" offset="1" stop-color="#eaa0ff" stop-opacity="1"/></linearGradient><linearGradient id="linearGradient8311-3"><stop id="stop8313-0" offset="0" stop-color="#ffcc6b" stop-opacity="1"/><stop id="stop8315-1" offset="1" stop-color="#ffcf98" stop-opacity="1"/></linearGradient><linearGradient id="linearGradient4237-3"><stop id="stop4239-0" offset="0" stop-color="#ffcc6e" stop-opacity="1"/><stop id="stop4241-7" offset="1" stop-color="#ffe4a0" stop-opacity="1"/></linearGradient><linearGradient id="linearGradient8311-31"><stop id="stop8313-2" offset="0" stop-color="#f089ff" stop-opacity="1"/><stop id="stop8315-6" offset="1" stop-color="#ffadea" stop-opacity="1"/></linearGradient><linearGradient id="linearGradient4237-6"><stop id="stop4239-22" offset="0" stop-color="#f18bfe" stop-opacity="1"/><stop id="stop4241-0" offset="1" stop-color="#fcc3ff" stop-opacity="1"/></linearGradient><linearGradient id="linearGradient8467"><stop id="stop8469" offset="0" stop-color="#b9b9b9" stop-opacity="1"/><stop id="stop8471" offset="1" stop-color="#d1d1d1" stop-opacity="1"/></linearGradient><linearGradient id="linearGradient8311-5"><stop id="stop8313-7" offset="0" stop-color="#b9b9b9" stop-opacity="1"/><stop id="stop8315-3" offset="1" stop-color="#d2d2d2" stop-opacity="1"/></linearGradient><linearGradient id="linearGradient4237-4"><stop id="stop4239-9" offset="0" stop-color="#bababa" stop-opacity="1"/><stop id="stop4241-37" offset="1" stop-color="#c8c8c8" stop-opacity="1"/></linearGradient><linearGradient id="linearGradient8467-7"><stop id="stop8469-4" offset="0" stop-color="#3ec896" stop-opacity="1"/><stop id="stop8471-7" offset="1" stop-color="#66d9af" stop-opacity="1"/></linearGradient><linearGradient id="linearGradient8311-1"><stop id="stop8313-9" offset="0" stop-color="#494949" stop-opacity="1"/><stop id="stop8315-5" offset="1" stop-color="#616774" stop-opacity="1"/></linearGradient><linearGradient id="linearGradient-1" x1="209.957" x2="209.957" y1="0" y2="116.694" gradientTransform="scale(1.1288018,0.8858951)" gradientUnits="userSpaceOnUse"><stop id="stop4884" offset="0%" stop-color="#A7A7A7"/><stop id="stop4886" offset="100%" stop-color="#8D8D8D"/></linearGradient><linearGradient id="linearGradient-2" x1="193" x2="193" y1="411.584" y2="105.4" gradientTransform="scale(1.2279807,0.81434507)" gradientUnits="userSpaceOnUse"><stop id="stop4889" offset="0%" stop-color="#707070"/><stop id="stop4891" offset="100%" stop-color="#ABABAB"/></linearGradient><linearGradient id="linearGradient-3" x1="193" x2="193" y1="70.609" y2="457.423" gradientTransform="scale(1.2279807,0.81434507)" gradientUnits="userSpaceOnUse"><stop id="stop4894" offset="0%" stop-color="#000" stop-opacity="0"/><stop id="stop4896" offset="100%" stop-color="#000" stop-opacity=".19"/></linearGradient><linearGradient id="linearGradient4232"><stop id="stop4234" offset="0" stop-color="#333" stop-opacity="1"/><stop id="stop4236-6" offset="1" stop-color="#353535" stop-opacity="1"/></linearGradient><linearGradient id="linearGradient4172"><stop id="stop4174" offset="0" stop-color="#3dc796" stop-opacity="1"/><stop id="stop4176" offset="1" stop-color="#57d68d" stop-opacity="1"/></linearGradient><linearGradient id="linearGradient4233"><stop id="stop4235" offset="0" stop-color="#212121" stop-opacity="1"/><stop id="stop4237" offset="1" stop-color="#1d2022" stop-opacity="0"/></linearGradient><linearGradient id="linearGradient8467-6"><stop id="stop8469-5" offset="0" stop-color="#56d8d1" stop-opacity="1"/><stop id="stop8471-8" offset="1" stop-color="#9df7ee" stop-opacity="1"/></linearGradient><linearGradient id="linearGradient8311-10"><stop id="stop8313-3" offset="0" stop-color="#55d8d1" stop-opacity="1"/><stop id="stop8315-8" offset="1" stop-color="#66efe7" stop-opacity="1"/></linearGradient><linearGradient id="linearGradient8467-8"><stop id="stop8469-9" offset="0" stop-color="#dea679" stop-opacity="1"/><stop id="stop8471-2" offset="1" stop-color="#f7d19d" stop-opacity="1"/></linearGradient><linearGradient id="linearGradient8311-0"><stop id="stop8313-90" offset="0" stop-color="#dda579" stop-opacity="1"/><stop id="stop8315-88" offset="1" stop-color="#f3bc87" stop-opacity="1"/></linearGradient><linearGradient id="linearGradient8467-2"><stop id="stop8469-6" offset="0" stop-color="#5fa4d5" stop-opacity="1"/><stop id="stop8471-5" offset="1" stop-color="#9dc9f7" stop-opacity="1"/></linearGradient><linearGradient id="linearGradient8311-06"><stop id="stop8313-6" offset="0" stop-color="#5fa3d4" stop-opacity="1"/><stop id="stop8315-2" offset="1" stop-color="#6bb9ff" stop-opacity="1"/></linearGradient><clipPath id="clipPath4458-7"><path id="use4460-2" d="m 69.626,12.145 -0.052,0 c -22.727,-0.292 -46.472,4.077 -46.709,4.122 -2.424,0.451 -4.946,2.974 -5.397,5.397 -0.044,0.237 -4.414,23.983 -4.122,46.71 -0.292,22.777 4.078,46.523 4.122,46.761 0.451,2.423 2.974,4.945 5.398,5.398 0.237,0.044 23.982,4.413 46.709,4.121 22.779,0.292 46.524,-4.077 46.761,-4.121 2.423,-0.452 4.946,-2.976 5.398,-5.399 0.044,-0.236 4.413,-23.981 4.121,-46.709 0.292,-22.777 -4.077,-46.523 -4.121,-46.761 -0.453,-2.423 -2.976,-4.946 -5.398,-5.397 -0.238,-0.045 -23.984,-4.414 -46.71,-4.122 z"/></clipPath><clipPath id="clipPath4458-9"><path id="use4460-27" d="m 69.626,12.145 -0.052,0 c -22.727,-0.292 -46.472,4.077 -46.709,4.122 -2.424,0.451 -4.946,2.974 -5.397,5.397 -0.044,0.237 -4.414,23.983 -4.122,46.71 -0.292,22.777 4.078,46.523 4.122,46.761 0.451,2.423 2.974,4.945 5.398,5.398 0.237,0.044 23.982,4.413 46.709,4.121 22.779,0.292 46.524,-4.077 46.761,-4.121 2.423,-0.452 4.946,-2.976 5.398,-5.399 0.044,-0.236 4.413,-23.981 4.121,-46.709 0.292,-22.777 -4.077,-46.523 -4.121,-46.761 -0.453,-2.423 -2.976,-4.946 -5.398,-5.397 -0.238,-0.045 -23.984,-4.414 -46.71,-4.122 z"/></clipPath><clipPath id="clipPath4458-5"><path id="use4460-5" d="m 69.626,12.145 -0.052,0 c -22.727,-0.292 -46.472,4.077 -46.709,4.122 -2.424,0.451 -4.946,2.974 -5.397,5.397 -0.044,0.237 -4.414,23.983 -4.122,46.71 -0.292,22.777 4.078,46.523 4.122,46.761 0.451,2.423 2.974,4.945 5.398,5.398 0.237,0.044 23.982,4.413 46.709,4.121 22.779,0.292 46.524,-4.077 46.761,-4.121 2.423,-0.452 4.946,-2.976 5.398,-5.399 0.044,-0.236 4.413,-23.981 4.121,-46.709 0.292,-22.777 -4.077,-46.523 -4.121,-46.761 -0.453,-2.423 -2.976,-4.946 -5.398,-5.397 -0.238,-0.045 -23.984,-4.414 -46.71,-4.122 z"/></clipPath><clipPath id="clipPath4458-2"><path id="use4460-4" d="m 69.626,12.145 -0.052,0 c -22.727,-0.292 -46.472,4.077 -46.709,4.122 -2.424,0.451 -4.946,2.974 -5.397,5.397 -0.044,0.237 -4.414,23.983 -4.122,46.71 -0.292,22.777 4.078,46.523 4.122,46.761 0.451,2.423 2.974,4.945 5.398,5.398 0.237,0.044 23.982,4.413 46.709,4.121 22.779,0.292 46.524,-4.077 46.761,-4.121 2.423,-0.452 4.946,-2.976 5.398,-5.399 0.044,-0.236 4.413,-23.981 4.121,-46.709 0.292,-22.777 -4.077,-46.523 -4.121,-46.761 -0.453,-2.423 -2.976,-4.946 -5.398,-5.397 -0.238,-0.045 -23.984,-4.414 -46.71,-4.122 z"/></clipPath><clipPath id="clipPath4458-7-6"><path id="use4460-2-9" d="m 69.626,12.145 -0.052,0 c -22.727,-0.292 -46.472,4.077 -46.709,4.122 -2.424,0.451 -4.946,2.974 -5.397,5.397 -0.044,0.237 -4.414,23.983 -4.122,46.71 -0.292,22.777 4.078,46.523 4.122,46.761 0.451,2.423 2.974,4.945 5.398,5.398 0.237,0.044 23.982,4.413 46.709,4.121 22.779,0.292 46.524,-4.077 46.761,-4.121 2.423,-0.452 4.946,-2.976 5.398,-5.399 0.044,-0.236 4.413,-23.981 4.121,-46.709 0.292,-22.777 -4.077,-46.523 -4.121,-46.761 -0.453,-2.423 -2.976,-4.946 -5.398,-5.397 -0.238,-0.045 -23.984,-4.414 -46.71,-4.122 z"/></clipPath><clipPath id="clipPath4458-9-1"><path id="use4460-27-5" d="m 69.626,12.145 -0.052,0 c -22.727,-0.292 -46.472,4.077 -46.709,4.122 -2.424,0.451 -4.946,2.974 -5.397,5.397 -0.044,0.237 -4.414,23.983 -4.122,46.71 -0.292,22.777 4.078,46.523 4.122,46.761 0.451,2.423 2.974,4.945 5.398,5.398 0.237,0.044 23.982,4.413 46.709,4.121 22.779,0.292 46.524,-4.077 46.761,-4.121 2.423,-0.452 4.946,-2.976 5.398,-5.399 0.044,-0.236 4.413,-23.981 4.121,-46.709 0.292,-22.777 -4.077,-46.523 -4.121,-46.761 -0.453,-2.423 -2.976,-4.946 -5.398,-5.397 -0.238,-0.045 -23.984,-4.414 -46.71,-4.122 z"/></clipPath><clipPath id="clipPath4458-0"><path id="use4460-56" d="m 69.626,12.145 -0.052,0 c -22.727,-0.292 -46.472,4.077 -46.709,4.122 -2.424,0.451 -4.946,2.974 -5.397,5.397 -0.044,0.237 -4.414,23.983 -4.122,46.71 -0.292,22.777 4.078,46.523 4.122,46.761 0.451,2.423 2.974,4.945 5.398,5.398 0.237,0.044 23.982,4.413 46.709,4.121 22.779,0.292 46.524,-4.077 46.761,-4.121 2.423,-0.452 4.946,-2.976 5.398,-5.399 0.044,-0.236 4.413,-23.981 4.121,-46.709 0.292,-22.777 -4.077,-46.523 -4.121,-46.761 -0.453,-2.423 -2.976,-4.946 -5.398,-5.397 -0.238,-0.045 -23.984,-4.414 -46.71,-4.122 z"/></clipPath><clipPath id="clipPath4458-7-3"><path id="use4460-2-4" d="m 69.626,12.145 -0.052,0 c -22.727,-0.292 -46.472,4.077 -46.709,4.122 -2.424,0.451 -4.946,2.974 -5.397,5.397 -0.044,0.237 -4.414,23.983 -4.122,46.71 -0.292,22.777 4.078,46.523 4.122,46.761 0.451,2.423 2.974,4.945 5.398,5.398 0.237,0.044 23.982,4.413 46.709,4.121 22.779,0.292 46.524,-4.077 46.761,-4.121 2.423,-0.452 4.946,-2.976 5.398,-5.399 0.044,-0.236 4.413,-23.981 4.121,-46.709 0.292,-22.777 -4.077,-46.523 -4.121,-46.761 -0.453,-2.423 -2.976,-4.946 -5.398,-5.397 -0.238,-0.045 -23.984,-4.414 -46.71,-4.122 z"/></clipPath><clipPath id="clipPath4458-9-5"><path id="use4460-27-3" d="m 69.626,12.145 -0.052,0 c -22.727,-0.292 -46.472,4.077 -46.709,4.122 -2.424,0.451 -4.946,2.974 -5.397,5.397 -0.044,0.237 -4.414,23.983 -4.122,46.71 -0.292,22.777 4.078,46.523 4.122,46.761 0.451,2.423 2.974,4.945 5.398,5.398 0.237,0.044 23.982,4.413 46.709,4.121 22.779,0.292 46.524,-4.077 46.761,-4.121 2.423,-0.452 4.946,-2.976 5.398,-5.399 0.044,-0.236 4.413,-23.981 4.121,-46.709 0.292,-22.777 -4.077,-46.523 -4.121,-46.761 -0.453,-2.423 -2.976,-4.946 -5.398,-5.397 -0.238,-0.045 -23.984,-4.414 -46.71,-4.122 z"/></clipPath><clipPath id="clipPath4458-5-5"><path id="use4460-5-3" d="m 69.626,12.145 -0.052,0 c -22.727,-0.292 -46.472,4.077 -46.709,4.122 -2.424,0.451 -4.946,2.974 -5.397,5.397 -0.044,0.237 -4.414,23.983 -4.122,46.71 -0.292,22.777 4.078,46.523 4.122,46.761 0.451,2.423 2.974,4.945 5.398,5.398 0.237,0.044 23.982,4.413 46.709,4.121 22.779,0.292 46.524,-4.077 46.761,-4.121 2.423,-0.452 4.946,-2.976 5.398,-5.399 0.044,-0.236 4.413,-23.981 4.121,-46.709 0.292,-22.777 -4.077,-46.523 -4.121,-46.761 -0.453,-2.423 -2.976,-4.946 -5.398,-5.397 -0.238,-0.045 -23.984,-4.414 -46.71,-4.122 z"/></clipPath><linearGradient id="linearGradient4542" x1="537.195" x2="537.195" y1="986.671" y2="-2.623" gradientUnits="userSpaceOnUse" xlink:href="#linearGradient4234"/><linearGradient id="linearGradient4544" x1="537.195" x2="537.195" y1="986.671" y2="-2.623" gradientUnits="userSpaceOnUse" xlink:href="#linearGradient4234"/><linearGradient id="linearGradient4546" x1="537.195" x2="537.195" y1="986.671" y2="-2.623" gradientUnits="userSpaceOnUse" xlink:href="#linearGradient4234"/><linearGradient id="linearGradient4548" x1="537.195" x2="537.195" y1="986.671" y2="-2.623" gradientUnits="userSpaceOnUse" xlink:href="#linearGradient4234"/><linearGradient id="linearGradient4550" x1="537.195" x2="537.195" y1="986.671" y2="-2.623" gradientUnits="userSpaceOnUse" xlink:href="#linearGradient4234"/><linearGradient id="linearGradient4552" x1="537.195" x2="537.195" y1="986.671" y2="-2.623" gradientUnits="userSpaceOnUse" xlink:href="#linearGradient4234"/><linearGradient id="linearGradient4554" x1="537.195" x2="537.195" y1="986.671" y2="-2.623" gradientUnits="userSpaceOnUse" xlink:href="#linearGradient4234"/><linearGradient id="linearGradient4556" x1="537.195" x2="537.195" y1="986.671" y2="-2.623" gradientUnits="userSpaceOnUse" xlink:href="#linearGradient4234"/><linearGradient id="linearGradient4558" x1="537.195" x2="537.195" y1="986.671" y2="-2.623" gradientUnits="userSpaceOnUse" xlink:href="#linearGradient4234"/><linearGradient id="linearGradient4560" x1="537.195" x2="537.195" y1="986.671" y2="-2.623" gradientUnits="userSpaceOnUse" xlink:href="#linearGradient4234"/><linearGradient id="linearGradient4562" x1="537.195" x2="537.195" y1="986.671" y2="-2.623" gradientUnits="userSpaceOnUse" xlink:href="#linearGradient4234"/><linearGradient id="linearGradient4564" x1="537.195" x2="537.195" y1="986.671" y2="-2.623" gradientUnits="userSpaceOnUse" xlink:href="#linearGradient4234"/><linearGradient id="linearGradient4566" x1="537.195" x2="537.195" y1="986.671" y2="-2.623" gradientUnits="userSpaceOnUse" xlink:href="#linearGradient4234"/><linearGradient id="linearGradient4568" x1="537.195" x2="537.195" y1="986.671" y2="-2.623" gradientUnits="userSpaceOnUse" xlink:href="#linearGradient4234"/></defs><metadata id="metadata3765"/><g id="layer1" transform="translate(-553.72253,-583.11926)"><g id="g4341" transform="matrix(0.99843254,0,0,0.99843254,0.92060114,0.91871459)"><g id="layer1-55" transform="matrix(1.3431295,0,0,1.3431295,553.93104,-808.59947)"><g id="g4164" transform="matrix(0.33041456,0,0,0.33041456,1.9623858,1038.6839)"><g id="g4399" transform="matrix(1.1483543,0,0,1.1483543,-2.2928463,-1.978147)"><g id="g4140" fill="#4d4d4d" fill-opacity="1"><path id="path4142-4" fill="#4d4d4d" fill-opacity="1" d="m 4.8,32.019455 c -0.5,0 -0.9,-0.343969 -1,-0.77393 L 3.1,26 l 8.1,0 13.6,0 8.1,0 -0.7,5.245525 c -0.1,0.429961 -0.5,0.77393 -1,0.77393 z" opacity="1"/><g id="g4144" fill="#4d4d4d" fill-opacity="1" transform="matrix(1,0,0,0.82171911,0,4.4570224)"><path id="path4146" fill="#4d4d4d" fill-opacity="1" d="m 31.8,27 -0.5,5 -26.5,0 -0.5,-5 6.4,0 14.8,0 6.3,0 M 34,25 24,25 2,25 2.4967786,32.2 c 0.1,1 0.6978671,1.8 1.6978671,1.8 l 27.7106433,0 c 1,0 1.597867,-0.8 1.697867,-1.8 z"/></g></g><path id="path4148" fill="none" fill-opacity=".12" stroke="#4d4d4d" stroke-linejoin="round" stroke-miterlimit="10" stroke-opacity="1" stroke-width="2" d="M 25,26 11,26 3.2,26 3,25 5.7,3.7 C 5.8,2.7 6.3966837,2 7.3966837,2 L 28.603376,2 C 29.603376,2 30.1,2.7 30.3,3.7 L 33,25 32.4,26 Z"/></g></g><g id="layer1-6" transform="translate(-415.54483,508.82119)"><g id="layer1-9-6" transform="translate(400.14523,-508.46478)"><g id="layer1-6-2" transform="translate(-400.1003,508.43645)"><g id="layer1-5-5" transform="matrix(0.81923526,0,0,0.81923526,84.164129,91.100876)"><path id="path4245" fill="#4d4d4d" fill-opacity="1" stroke="none" stroke-dasharray="none" stroke-dashoffset="0" stroke-linecap="butt" stroke-linejoin="miter" stroke-miterlimit="4" stroke-opacity="1" stroke-width="3.78" d="m 412.90001,538.24488 a 0.42358572,0.36659098 0 0 0 -0.42359,0.3666 0.42358572,0.36659098 0 0 0 0.42359,0.36658 0.42358572,0.36659098 0 0 0 0.42358,-0.36658 0.42358572,0.36659098 0 0 0 -0.42358,-0.3666 z m 2.11792,0 -0.84716,0.73318 1.69434,1.46638 -1.69434,1.46636 0.84716,0.73318 2.54152,-2.19954 -2.54152,-2.19956 z m -3.38869,2.19956 a 0.84716723,0.73317827 0 0 0 -0.84716,0.73318 0.84716723,0.73317827 0 0 0 0.84716,0.73318 0.84716723,0.73317827 0 0 0 0.84718,-0.73318 0.84716723,0.73317827 0 0 0 -0.84718,-0.73318 z m 1.69435,2.19954 a 0.84716723,0.73317827 0 0 0 -0.84717,0.73317 0.84716723,0.73317827 0 0 0 0.84717,0.73319 0.84716723,0.73317827 0 0 0 0.84718,-0.73319 0.84716723,0.73317827 0 0 0 -0.84718,-0.73317 z" opacity="1"/></g></g></g></g></g><g id="layer1-73" transform="translate(549.49753,-443.2178)"><rect id="rect4153-8" width="8" height="8" x="7" y="1037.362" fill="#32c671" fill-opacity="1" stroke="none" opacity="1" ry="4"/><g id="layer1-7" fill="#fff" fill-opacity="1" transform="translate(-12.938026,-2.0712019)"><g id="layer1-4" fill="#fff" fill-opacity="1" transform="matrix(0.31547706,0,0,0.31547706,-231.48304,981.61881)"><g id="g4206" fill="#fff" fill-opacity="1" stroke="url(#linearGradient4240)" stroke-dasharray="none" stroke-miterlimit="4" stroke-opacity="1" stroke-width="9.512" transform="matrix(0.05256276,0,0,0.05256276,755.17968,163.19164)"><g id="correct8" fill="#fff" fill-opacity="1" stroke="none" stroke-opacity="1" transform="matrix(2.6295796,0,0,2.6295796,865.65875,524.05093)"><path id="path325" fill="#fff" fill-opacity="1" stroke="none" stroke-opacity="1" d="m 123.861,12.966 -11.08,-11.08 c -1.52,-1.521 -3.368,-2.281 -5.54,-2.281 -2.173,0 -4.021,0.76 -5.541,2.281 L 48.254,55.414 24.301,31.379 c -1.521,-1.521 -3.368,-2.281 -5.54,-2.281 -2.173,0 -4.02,0.76 -5.541,2.281 L 2.14,42.459 C 0.619,43.98 -0.141,45.827 -0.141,48 c 0,2.172 0.76,4.02 2.281,5.54 l 29.493,29.493 11.081,11.08 c 1.52,1.521 3.367,2.281 5.54,2.281 2.172,0 4.019,-0.761 5.54,-2.281 l 11.081,-11.08 58.986,-58.986 c 1.52,-1.521 2.281,-3.368 2.281,-5.541 0.001,-2.172 -0.761,-4.019 -2.281,-5.54 l 0,0 z"/></g></g></g></g></g></g></g></svg>