<svg xmlns="http://www.w3.org/2000/svg" xmlns:svg="http://www.w3.org/2000/svg" id="svg2" width="22" height="22" version="1.1" viewBox="0 0 22 22"><defs id="defs4"><linearGradient id="linearGradient4290-48"><stop id="stop4292-0" offset="0" stop-color="#a5a5a5" stop-opacity="1"/><stop id="stop4294-0" offset="1" stop-color="#f5f2f5" stop-opacity="1"/></linearGradient></defs><metadata id="metadata7"/><g id="layer1" transform="translate(0,-1030.3622)"><g id="g4155" transform="matrix(1.375,0,0,1.375,-3.1749078,-391.51083)"><g id="layer1-21" fill="#4d4d4d" fill-opacity="1" transform="matrix(0.72727273,0,0,0.72727273,2.3090236,284.73515)"><g id="layer1-4" fill="#4d4d4d" fill-opacity="1" transform="translate(-327,497)"><g id="layer1-2" fill="#4d4d4d" fill-opacity="1" transform="matrix(0.6606173,0,0,0.6606173,73.375587,193.04724)"><g id="g3" fill="#4d4d4d" fill-opacity="1" transform="matrix(0.0249178,0,0,0.0249178,388.46155,519.68811)"><path id="path5" fill="#4d4d4d" fill-opacity="1" d="m 370.216,459.3 c 10.2,11.1 15.8,25.6 15.8,40.6 l 0,442 c 0,26.601 32.1,40.101 51.1,21.4 L 560.416,822 c 16.5,-19.8 25.6,-29.601 25.6,-49.2 l 0,-272.8 c 0,-15 5.7,-29.5 15.8,-40.601 L 955.615,75.5 C 982.115,46.7 961.716,0 922.515,0 l -873,0 c -39.2,0 -59.7,46.6 -33.1,75.5 l 353.801,383.8 z"/></g></g></g></g></g></g></svg>