<svg xmlns="http://www.w3.org/2000/svg" xmlns:svg="http://www.w3.org/2000/svg" id="svg3869" width="22" height="22" version="1.1"><metadata id="metadata3874"/><g id="layer1" transform="translate(-326,-534.3622)"><g id="layer1-5" transform="matrix(0.91666667,0,0,0.91666667,-29.190479,56.880698)"><g id="layer1-58" transform="matrix(0.97755135,0,0,0.97755135,388.62669,-485.15654)"><g id="g4151" fill="#4d4d4d" fill-opacity="1" transform="matrix(1.1159609,0,0,1.1159609,-1.1724939,-120.69549)"><path id="rect3356" fill="#4d4d4d" fill-opacity="1" stroke="none" stroke-opacity="1" d="M 11 3 C 6.568 3 3 6.568 3 11 C 3 15.432 6.568 19 11 19 C 15.432 19 19 15.432 19 11 C 19 6.568 15.432 3 11 3 z M 8 8 L 10 8 L 10 14 L 8 14 L 8 8 z M 12 8 L 14 8 L 14 14 L 12 14 L 12 8 z" transform="translate(3.7869757e-6,1030.3622)"/></g></g></g></g></svg>