<svg xmlns="http://www.w3.org/2000/svg" xmlns:svg="http://www.w3.org/2000/svg" id="svg4355" width="22" height="22" version="1.1"><metadata id="metadata4360"/><g id="layer1" transform="translate(-544.57141,-742.93359)"><g id="g4149"><path id="path4155" fill="#4d4d4d" fill-opacity="1" stroke="none" stroke-linecap="round" d="m 555.57141,750.93359 a 8,3 0 0 0 -8,3 l 1,0 a 7,2 0 0 1 7,-2 7,2 0 0 1 7,2 l 1,0 a 8,3 0 0 0 -8,-3 z" opacity="1"/><path id="path4155-7" fill="#4d4d4d" fill-opacity="1" stroke="none" stroke-linecap="round" d="m 555.57141,756.93359 a 8,3 0 0 0 8,-3 l -1,0 a 7,2 0 0 1 -7,2 7,2 0 0 1 -7,-2 l -1,0 a 8,3 0 0 0 8,3 z" opacity="1"/><rect id="rect4241" width="1" height="8" x="547.571" y="749.934" fill="#4d4d4d" fill-opacity="1" stroke="none" stroke-linecap="round" opacity="1"/><rect id="rect4243" width="1" height="8" x="562.571" y="749.934" fill="#4d4d4d" fill-opacity="1" stroke="none" stroke-linecap="round" opacity="1"/><path id="path4260" fill="#4d4d4d" fill-opacity="1" stroke="none" stroke-linecap="round" d="M 11 5 A 11 6 0 0 0 3 6.8886719 L 3 8.0097656 A 10 5 0 0 1 11 6 A 10 5 0 0 1 19 8.0097656 L 19 6.8925781 A 11 6 0 0 0 11 5 z" opacity="1" transform="translate(544.57141,742.93359)"/><path id="path4260-0" fill="#4d4d4d" fill-opacity="1" stroke="none" stroke-linecap="round" d="m 555.57141,759.93359 a 11,6 0 0 1 -8,-1.88867 l 0,-1.1211 a 10,5 0 0 0 8,2.00977 10,5 0 0 0 8,-2.00977 l 0,1.11719 a 11,6 0 0 1 -8,1.89258 z" opacity="1"/><path id="rect4364" fill="#4d4d4d" fill-opacity="1" stroke="none" stroke-linecap="round" d="M 3 3 L 3 19 L 19 19 L 19 3 L 3 3 z M 4 4 L 18 4 L 18 18 L 4 18 L 4 4 z" opacity="1" transform="translate(544.57141,742.93359)"/></g></g></svg>