<svg xmlns="http://www.w3.org/2000/svg" xmlns:osb="http://www.openswatchbook.org/uri/2009/osb" xmlns:svg="http://www.w3.org/2000/svg" id="svg3869" width="22" height="22" version="1.1"><defs id="defs3871"><linearGradient id="linearGradient4207" osb:paint="gradient"><stop id="stop3371" offset="0" stop-color="#3498db" stop-opacity="1"/><stop id="stop3373" offset="1" stop-color="#3498db" stop-opacity="0"/></linearGradient></defs><metadata id="metadata3874"/><g id="layer1" transform="translate(-326,-534.3622)"><g id="layer1-43" transform="matrix(0.66666667,0,0,-0.66666667,67.952372,901.8942)"><g id="g4153" transform="matrix(2.0307247,0,0,2.0307247,-409.87886,-545.13734)"><g id="g4248" stroke="#fff" stroke-dasharray="none" stroke-miterlimit="4" stroke-opacity="1" stroke-width=".6" transform="translate(-4.4107998e-7,0.39077854)"><g id="text4147" fill="#fff" fill-opacity="1" stroke="#fff" stroke-dasharray="none" stroke-linecap="butt" stroke-linejoin="miter" stroke-miterlimit="4" stroke-opacity="1" stroke-width=".498" font-family="sans-serif" font-size="13.75" font-style="normal" font-weight="normal" letter-spacing="0" transform="matrix(1.2054244,0,0,1.2054244,-40.626798,-111.89095)" word-spacing="0" style="line-height:125%"><path id="path4152" fill="#fdbc4b" fill-opacity="1" stroke="#fdbc4b" stroke-dasharray="none" stroke-miterlimit="4" stroke-opacity="1" stroke-width=".498" d="m 366.6432,530.54238 c -0.17417,0.17417 -0.385,0.26125 -0.6325,0.26125 -0.2475,0 -0.45833,-0.0871 -0.6325,-0.26125 -0.17417,-0.17417 -0.26125,-0.385 -0.26125,-0.6325 0,-0.2475 0.0871,-0.45833 0.26125,-0.6325 0.17417,-0.17417 0.385,-0.26125 0.6325,-0.26125 0.2475,0 0.45833,0.0871 0.6325,0.26125 0.17417,0.17417 0.26125,0.385 0.26125,0.6325 0,0.2475 -0.0871,0.45833 -0.26125,0.6325 z" font-family="Product Sans" font-stretch="normal" font-style="normal" font-variant="normal" font-weight="normal" style="-inkscape-font-specification:'Product Sans'"/></g><rect id="rect4246" width="1.5" height="7.646" x="399.818" y="529.371" fill="#fdbc4b" fill-opacity="1" fill-rule="evenodd" stroke="#fdbc4b" stroke-dasharray="none" stroke-dashoffset="0" stroke-linecap="round" stroke-linejoin="round" stroke-miterlimit="4" stroke-opacity="1" stroke-width=".6" opacity="1" ry=".8"/></g></g></g></g></svg>