<svg xmlns="http://www.w3.org/2000/svg" xmlns:osb="http://www.openswatchbook.org/uri/2009/osb" xmlns:svg="http://www.w3.org/2000/svg" xmlns:xlink="http://www.w3.org/1999/xlink" id="svg3869" width="22" height="22" version="1.1"><defs id="defs3871"><linearGradient id="linearGradient3257"><stop id="stop3259" offset="0" stop-color="#a50000" stop-opacity="1"/><stop id="stop3261" offset="1" stop-color="#e73800" stop-opacity="1"/></linearGradient><clipPath id="clipPath4210" clipPathUnits="userSpaceOnUse"><rect id="rect4212" width="34" height="34" x="-7" y="1024.362" fill="#00f" fill-opacity=".514" stroke="none" stroke-opacity="1" opacity="1"/></clipPath><clipPath id="clipPath4160" clipPathUnits="userSpaceOnUse"><rect id="rect4162" width="32" height="32" x="-6" y="1028.362" fill="#aade87" fill-opacity=".472" stroke="none" stroke-opacity="1" opacity="1"/></clipPath><clipPath id="clipPath4160-4" clipPathUnits="userSpaceOnUse"><rect id="rect4162-5" width="1" height="1" x="7" y="1023.362" fill="#f2f2f2" fill-opacity="1" stroke="none" stroke-opacity="1" opacity="1"/></clipPath><clipPath id="clipPath16" clipPathUnits="userSpaceOnUse"><path id="path18" d="m 0,706.465 1490.926,0 L 1490.926,0 0,0 0,706.465 Z"/></clipPath><clipPath id="clipPath24" clipPathUnits="userSpaceOnUse"><path id="path26" d="m 22.1953,686.117 1447.7347,0 0,-667.1902 -1447.7347,0 0,667.1902 z"/></clipPath><clipPath id="clipPath4160-3" clipPathUnits="userSpaceOnUse"><rect id="rect4162-58" width="1" height="1" x="7" y="1023.362" fill="#f2f2f2" fill-opacity="1" stroke="none" stroke-opacity="1" opacity="1"/></clipPath><clipPath id="clipPath4160-2" clipPathUnits="userSpaceOnUse"><rect id="rect4162-4" width="1" height="1" x="7" y="1023.362" fill="#f2f2f2" fill-opacity="1" stroke="none" stroke-opacity="1" opacity="1"/></clipPath><clipPath id="clipPath4210-9" clipPathUnits="userSpaceOnUse"><rect id="rect4212-5" width="34" height="34" x="-7" y="1024.362" fill="#00f" fill-opacity=".514" stroke="none" stroke-opacity="1" opacity="1"/></clipPath><clipPath id="clipPath4160-6" clipPathUnits="userSpaceOnUse"><rect id="rect4162-2" width="32" height="32" x="-6" y="1028.362" fill="#aade87" fill-opacity=".472" stroke="none" stroke-opacity="1" opacity="1"/></clipPath><clipPath id="clipPath4160-4-3" clipPathUnits="userSpaceOnUse"><rect id="rect4162-5-4" width="1" height="1" x="7" y="1023.362" fill="#f2f2f2" fill-opacity="1" stroke="none" stroke-opacity="1" opacity="1"/></clipPath><clipPath id="clipPath16-5" clipPathUnits="userSpaceOnUse"><path id="path18-7" d="m 0,706.465 1490.926,0 L 1490.926,0 0,0 0,706.465 Z"/></clipPath><clipPath id="clipPath24-5" clipPathUnits="userSpaceOnUse"><path id="path26-3" d="m 22.1953,686.117 1447.7347,0 0,-667.1902 -1447.7347,0 0,667.1902 z"/></clipPath><clipPath id="clipPath4160-3-7" clipPathUnits="userSpaceOnUse"><rect id="rect4162-58-2" width="1" height="1" x="7" y="1023.362" fill="#f2f2f2" fill-opacity="1" stroke="none" stroke-opacity="1" opacity="1"/></clipPath><clipPath id="clipPath4160-2-1" clipPathUnits="userSpaceOnUse"><rect id="rect4162-4-1" width="1" height="1" x="7" y="1023.362" fill="#f2f2f2" fill-opacity="1" stroke="none" stroke-opacity="1" opacity="1"/></clipPath><linearGradient id="linearGradient4207" osb:paint="gradient"><stop id="stop3371" offset="0" stop-color="#3498db" stop-opacity="1"/><stop id="stop3373" offset="1" stop-color="#3498db" stop-opacity="0"/></linearGradient><clipPath id="clipPath4160-8" clipPathUnits="userSpaceOnUse"><rect id="rect4162-46" width="1" height="1" x="7" y="1023.362" fill="#f2f2f2" fill-opacity="1" stroke="none" stroke-opacity="1" opacity="1"/></clipPath><clipPath id="clipPath4160-4-6" clipPathUnits="userSpaceOnUse"><rect id="rect4162-9" width="1" height="1" x="7" y="1023.362" fill="#f2f2f2" fill-opacity="1" stroke="none" stroke-opacity="1" opacity="1"/></clipPath><clipPath id="clipPath4160-3-5" clipPathUnits="userSpaceOnUse"><rect id="rect4162-0" width="1" height="1" x="7" y="1023.362" fill="#f2f2f2" fill-opacity="1" stroke="none" stroke-opacity="1" opacity="1"/></clipPath><linearGradient id="linearGradient4012"><stop id="stop4014" offset="0" stop-color="#1d99f3" stop-opacity="1"/><stop id="stop4016" offset=".417" stop-color="#48acf5" stop-opacity=".761"/><stop id="stop4018" offset=".667" stop-color="#73c0f7" stop-opacity="0"/><stop id="stop4020" offset="1" stop-color="#cae7fc" stop-opacity="0"/></linearGradient><linearGradient id="linearGradient4164" x1="3" x2="19" y1="1049.362" y2="1033.362" gradientTransform="matrix(0.75,0,0,0.75,1.7499999,269.34054)" gradientUnits="userSpaceOnUse" xlink:href="#linearGradient4012"/><linearGradient id="linearGradient3983" x1="3" x2="24.333" y1="1049.362" y2="1028.029" gradientTransform="matrix(0.75,0,0,0.75,2.7499999,262.34058)" gradientUnits="userSpaceOnUse" xlink:href="#linearGradient4012"/><linearGradient id="linearGradient4007" x1="3" x2="24.333" y1="1049.362" y2="1028.029" gradientTransform="matrix(0.75,0,0,0.75,3.7499999,-767.02162)" gradientUnits="userSpaceOnUse" xlink:href="#linearGradient4012"/><linearGradient id="linearGradient4164-76" x1="3" x2="19" y1="1049.362" y2="1033.362" gradientTransform="matrix(0.75,0,0,0.75,3.7499999,-769.02166)" gradientUnits="userSpaceOnUse" xlink:href="#linearGradient4012"/><clipPath id="clipPath4210-8" clipPathUnits="userSpaceOnUse"><rect id="rect4212-9" width="34" height="34" x="-7" y="1024.362" fill="#00f" fill-opacity=".514" stroke="none" stroke-opacity="1" opacity="1"/></clipPath><clipPath id="clipPath4160-5" clipPathUnits="userSpaceOnUse"><rect id="rect4162-1" width="32" height="32" x="-6" y="1028.362" fill="#aade87" fill-opacity=".472" stroke="none" stroke-opacity="1" opacity="1"/></clipPath><clipPath id="clipPath4210-6" clipPathUnits="userSpaceOnUse"><rect id="rect4212-40" width="34" height="34" x="-7" y="1024.362" fill="#00f" fill-opacity=".514" stroke="none" stroke-opacity="1" opacity="1"/></clipPath><clipPath id="clipPath4160-47" clipPathUnits="userSpaceOnUse"><rect id="rect4162-31" width="32" height="32" x="-6" y="1028.362" fill="#aade87" fill-opacity=".472" stroke="none" stroke-opacity="1" opacity="1"/></clipPath><clipPath id="clipPath4160-4-64" clipPathUnits="userSpaceOnUse"><rect id="rect4162-5-5" width="1" height="1" x="7" y="1023.362" fill="#f2f2f2" fill-opacity="1" stroke="none" stroke-opacity="1" opacity="1"/></clipPath><clipPath id="clipPath16-7" clipPathUnits="userSpaceOnUse"><path id="path18-4" d="m 0,706.465 1490.926,0 L 1490.926,0 0,0 0,706.465 Z"/></clipPath><clipPath id="clipPath24-1" clipPathUnits="userSpaceOnUse"><path id="path26-0" d="m 22.1953,686.117 1447.7347,0 0,-667.1902 -1447.7347,0 0,667.1902 z"/></clipPath><clipPath id="clipPath4160-3-2" clipPathUnits="userSpaceOnUse"><rect id="rect4162-58-28" width="1" height="1" x="7" y="1023.362" fill="#f2f2f2" fill-opacity="1" stroke="none" stroke-opacity="1" opacity="1"/></clipPath><clipPath id="clipPath4160-2-3" clipPathUnits="userSpaceOnUse"><rect id="rect4162-4-6" width="1" height="1" x="7" y="1023.362" fill="#f2f2f2" fill-opacity="1" stroke="none" stroke-opacity="1" opacity="1"/></clipPath><clipPath id="clipPath4210-3" clipPathUnits="userSpaceOnUse"><rect id="rect4212-4" width="34" height="34" x="-7" y="1024.362" fill="#00f" fill-opacity=".514" stroke="none" stroke-opacity="1" opacity="1"/></clipPath><clipPath id="clipPath4160-9" clipPathUnits="userSpaceOnUse"><rect id="rect4162-3" width="32" height="32" x="-6" y="1028.362" fill="#aade87" fill-opacity=".472" stroke="none" stroke-opacity="1" opacity="1"/></clipPath><clipPath id="clipPath4160-4-5" clipPathUnits="userSpaceOnUse"><rect id="rect4162-5-9" width="1" height="1" x="7" y="1023.362" fill="#f2f2f2" fill-opacity="1" stroke="none" stroke-opacity="1" opacity="1"/></clipPath><clipPath id="clipPath16-55" clipPathUnits="userSpaceOnUse"><path id="path18-3" d="m 0,706.465 1490.926,0 L 1490.926,0 0,0 0,706.465 Z"/></clipPath><clipPath id="clipPath24-7" clipPathUnits="userSpaceOnUse"><path id="path26-7" d="m 22.1953,686.117 1447.7347,0 0,-667.1902 -1447.7347,0 0,667.1902 z"/></clipPath><clipPath id="clipPath4160-3-1" clipPathUnits="userSpaceOnUse"><rect id="rect4162-58-7" width="1" height="1" x="7" y="1023.362" fill="#f2f2f2" fill-opacity="1" stroke="none" stroke-opacity="1" opacity="1"/></clipPath><clipPath id="clipPath4160-2-8" clipPathUnits="userSpaceOnUse"><rect id="rect4162-4-16" width="1" height="1" x="7" y="1023.362" fill="#f2f2f2" fill-opacity="1" stroke="none" stroke-opacity="1" opacity="1"/></clipPath><clipPath id="clipPath4210-9-2" clipPathUnits="userSpaceOnUse"><rect id="rect4212-5-8" width="34" height="34" x="-7" y="1024.362" fill="#00f" fill-opacity=".514" stroke="none" stroke-opacity="1" opacity="1"/></clipPath><clipPath id="clipPath4160-6-4" clipPathUnits="userSpaceOnUse"><rect id="rect4162-2-9" width="32" height="32" x="-6" y="1028.362" fill="#aade87" fill-opacity=".472" stroke="none" stroke-opacity="1" opacity="1"/></clipPath><clipPath id="clipPath4160-4-3-84" clipPathUnits="userSpaceOnUse"><rect id="rect4162-5-4-4" width="1" height="1" x="7" y="1023.362" fill="#f2f2f2" fill-opacity="1" stroke="none" stroke-opacity="1" opacity="1"/></clipPath><clipPath id="clipPath16-5-1" clipPathUnits="userSpaceOnUse"><path id="path18-7-4" d="m 0,706.465 1490.926,0 L 1490.926,0 0,0 0,706.465 Z"/></clipPath><clipPath id="clipPath24-5-82" clipPathUnits="userSpaceOnUse"><path id="path26-3-6" d="m 22.1953,686.117 1447.7347,0 0,-667.1902 -1447.7347,0 0,667.1902 z"/></clipPath><clipPath id="clipPath4160-3-7-5" clipPathUnits="userSpaceOnUse"><rect id="rect4162-58-2-7" width="1" height="1" x="7" y="1023.362" fill="#f2f2f2" fill-opacity="1" stroke="none" stroke-opacity="1" opacity="1"/></clipPath><clipPath id="clipPath4160-2-1-5" clipPathUnits="userSpaceOnUse"><rect id="rect4162-4-1-1" width="1" height="1" x="7" y="1023.362" fill="#f2f2f2" fill-opacity="1" stroke="none" stroke-opacity="1" opacity="1"/></clipPath><clipPath id="clipPath4160-8-05" clipPathUnits="userSpaceOnUse"><rect id="rect4162-46-73" width="1" height="1" x="7" y="1023.362" fill="#f2f2f2" fill-opacity="1" stroke="none" stroke-opacity="1" opacity="1"/></clipPath><clipPath id="clipPath4160-4-6-5" clipPathUnits="userSpaceOnUse"><rect id="rect4162-9-1" width="1" height="1" x="7" y="1023.362" fill="#f2f2f2" fill-opacity="1" stroke="none" stroke-opacity="1" opacity="1"/></clipPath><clipPath id="clipPath4160-3-5-4" clipPathUnits="userSpaceOnUse"><rect id="rect4162-0-8" width="1" height="1" x="7" y="1023.362" fill="#f2f2f2" fill-opacity="1" stroke="none" stroke-opacity="1" opacity="1"/></clipPath><linearGradient id="linearGradient5317" x1="3" x2="19" y1="1049.362" y2="1033.362" gradientTransform="matrix(0.75,0,0,0.75,1.7499999,269.34054)" gradientUnits="userSpaceOnUse" xlink:href="#linearGradient4012"/><linearGradient id="linearGradient5319" x1="3" x2="24.333" y1="1049.362" y2="1028.029" gradientTransform="matrix(0.75,0,0,0.75,2.7499999,262.34058)" gradientUnits="userSpaceOnUse" xlink:href="#linearGradient4012"/><linearGradient id="linearGradient5321" x1="3" x2="24.333" y1="1049.362" y2="1028.029" gradientTransform="matrix(0.75,0,0,0.75,3.7499999,-767.02162)" gradientUnits="userSpaceOnUse" xlink:href="#linearGradient4012"/><linearGradient id="linearGradient5323" x1="3" x2="19" y1="1049.362" y2="1033.362" gradientTransform="matrix(0.75,0,0,0.75,3.7499999,-769.02166)" gradientUnits="userSpaceOnUse" xlink:href="#linearGradient4012"/><clipPath id="clipPath4210-8-8" clipPathUnits="userSpaceOnUse"><rect id="rect4212-9-2" width="34" height="34" x="-7" y="1024.362" fill="#00f" fill-opacity=".514" stroke="none" stroke-opacity="1" opacity="1"/></clipPath><clipPath id="clipPath4160-5-4" clipPathUnits="userSpaceOnUse"><rect id="rect4162-1-0" width="32" height="32" x="-6" y="1028.362" fill="#aade87" fill-opacity=".472" stroke="none" stroke-opacity="1" opacity="1"/></clipPath><clipPath id="clipPath4210-38" clipPathUnits="userSpaceOnUse"><rect id="rect4212-441" width="34" height="34" x="-7" y="1024.362" fill="#00f" fill-opacity=".514" stroke="none" stroke-opacity="1" opacity="1"/></clipPath><clipPath id="clipPath4160-60" clipPathUnits="userSpaceOnUse"><rect id="rect4162-43" width="32" height="32" x="-6" y="1028.362" fill="#aade87" fill-opacity=".472" stroke="none" stroke-opacity="1" opacity="1"/></clipPath><clipPath id="clipPath4160-4-9" clipPathUnits="userSpaceOnUse"><rect id="rect4162-5-3" width="1" height="1" x="7" y="1023.362" fill="#f2f2f2" fill-opacity="1" stroke="none" stroke-opacity="1" opacity="1"/></clipPath><clipPath id="clipPath16-4" clipPathUnits="userSpaceOnUse"><path id="path18-2" d="m 0,706.465 1490.926,0 L 1490.926,0 0,0 0,706.465 Z"/></clipPath><clipPath id="clipPath24-6" clipPathUnits="userSpaceOnUse"><path id="path26-8" d="m 22.1953,686.117 1447.7347,0 0,-667.1902 -1447.7347,0 0,667.1902 z"/></clipPath><clipPath id="clipPath4160-3-8" clipPathUnits="userSpaceOnUse"><rect id="rect4162-58-9" width="1" height="1" x="7" y="1023.362" fill="#f2f2f2" fill-opacity="1" stroke="none" stroke-opacity="1" opacity="1"/></clipPath><clipPath id="clipPath4160-2-87" clipPathUnits="userSpaceOnUse"><rect id="rect4162-4-2" width="1" height="1" x="7" y="1023.362" fill="#f2f2f2" fill-opacity="1" stroke="none" stroke-opacity="1" opacity="1"/></clipPath><clipPath id="clipPath4210-5" clipPathUnits="userSpaceOnUse"><rect id="rect4212-0" width="34" height="34" x="-7" y="1024.362" fill="#00f" fill-opacity=".514" stroke="none" stroke-opacity="1" opacity="1"/></clipPath><clipPath id="clipPath4160-41" clipPathUnits="userSpaceOnUse"><rect id="rect4162-93" width="32" height="32" x="-6" y="1028.362" fill="#aade87" fill-opacity=".472" stroke="none" stroke-opacity="1" opacity="1"/></clipPath><clipPath id="clipPath4160-4-55" clipPathUnits="userSpaceOnUse"><rect id="rect4162-5-6" width="1" height="1" x="7" y="1023.362" fill="#f2f2f2" fill-opacity="1" stroke="none" stroke-opacity="1" opacity="1"/></clipPath><clipPath id="clipPath16-9" clipPathUnits="userSpaceOnUse"><path id="path18-5" d="m 0,706.465 1490.926,0 L 1490.926,0 0,0 0,706.465 Z"/></clipPath><clipPath id="clipPath24-0" clipPathUnits="userSpaceOnUse"><path id="path26-38" d="m 22.1953,686.117 1447.7347,0 0,-667.1902 -1447.7347,0 0,667.1902 z"/></clipPath><clipPath id="clipPath4160-3-53" clipPathUnits="userSpaceOnUse"><rect id="rect4162-58-8" width="1" height="1" x="7" y="1023.362" fill="#f2f2f2" fill-opacity="1" stroke="none" stroke-opacity="1" opacity="1"/></clipPath><clipPath id="clipPath4160-2-9" clipPathUnits="userSpaceOnUse"><rect id="rect4162-4-17" width="1" height="1" x="7" y="1023.362" fill="#f2f2f2" fill-opacity="1" stroke="none" stroke-opacity="1" opacity="1"/></clipPath><clipPath id="clipPath4210-3-8" clipPathUnits="userSpaceOnUse"><rect id="rect4212-4-9" width="34" height="34" x="-7" y="1024.362" fill="#00f" fill-opacity=".514" stroke="none" stroke-opacity="1" opacity="1"/></clipPath><clipPath id="clipPath4160-9-4" clipPathUnits="userSpaceOnUse"><rect id="rect4162-3-9" width="32" height="32" x="-6" y="1028.362" fill="#aade87" fill-opacity=".472" stroke="none" stroke-opacity="1" opacity="1"/></clipPath><clipPath id="clipPath4160-4-5-0" clipPathUnits="userSpaceOnUse"><rect id="rect4162-5-9-7" width="1" height="1" x="7" y="1023.362" fill="#f2f2f2" fill-opacity="1" stroke="none" stroke-opacity="1" opacity="1"/></clipPath><clipPath id="clipPath16-55-8" clipPathUnits="userSpaceOnUse"><path id="path18-3-7" d="m 0,706.465 1490.926,0 L 1490.926,0 0,0 0,706.465 Z"/></clipPath><clipPath id="clipPath24-7-0" clipPathUnits="userSpaceOnUse"><path id="path26-7-4" d="m 22.1953,686.117 1447.7347,0 0,-667.1902 -1447.7347,0 0,667.1902 z"/></clipPath><clipPath id="clipPath4160-3-1-2" clipPathUnits="userSpaceOnUse"><rect id="rect4162-58-7-0" width="1" height="1" x="7" y="1023.362" fill="#f2f2f2" fill-opacity="1" stroke="none" stroke-opacity="1" opacity="1"/></clipPath><clipPath id="clipPath4160-2-8-4" clipPathUnits="userSpaceOnUse"><rect id="rect4162-4-16-6" width="1" height="1" x="7" y="1023.362" fill="#f2f2f2" fill-opacity="1" stroke="none" stroke-opacity="1" opacity="1"/></clipPath><clipPath id="clipPath4210-9-4" clipPathUnits="userSpaceOnUse"><rect id="rect4212-5-1" width="34" height="34" x="-7" y="1024.362" fill="#00f" fill-opacity=".514" stroke="none" stroke-opacity="1" opacity="1"/></clipPath><clipPath id="clipPath4160-6-9" clipPathUnits="userSpaceOnUse"><rect id="rect4162-2-6" width="32" height="32" x="-6" y="1028.362" fill="#aade87" fill-opacity=".472" stroke="none" stroke-opacity="1" opacity="1"/></clipPath><clipPath id="clipPath4160-4-3-8" clipPathUnits="userSpaceOnUse"><rect id="rect4162-5-4-6" width="1" height="1" x="7" y="1023.362" fill="#f2f2f2" fill-opacity="1" stroke="none" stroke-opacity="1" opacity="1"/></clipPath><clipPath id="clipPath16-5-7" clipPathUnits="userSpaceOnUse"><path id="path18-7-3" d="m 0,706.465 1490.926,0 L 1490.926,0 0,0 0,706.465 Z"/></clipPath><clipPath id="clipPath24-5-8" clipPathUnits="userSpaceOnUse"><path id="path26-3-9" d="m 22.1953,686.117 1447.7347,0 0,-667.1902 -1447.7347,0 0,667.1902 z"/></clipPath><clipPath id="clipPath4160-3-7-2" clipPathUnits="userSpaceOnUse"><rect id="rect4162-58-2-3" width="1" height="1" x="7" y="1023.362" fill="#f2f2f2" fill-opacity="1" stroke="none" stroke-opacity="1" opacity="1"/></clipPath><clipPath id="clipPath4160-2-1-3" clipPathUnits="userSpaceOnUse"><rect id="rect4162-4-1-5" width="1" height="1" x="7" y="1023.362" fill="#f2f2f2" fill-opacity="1" stroke="none" stroke-opacity="1" opacity="1"/></clipPath><clipPath id="clipPath4160-8-0" clipPathUnits="userSpaceOnUse"><rect id="rect4162-46-7" width="1" height="1" x="7" y="1023.362" fill="#f2f2f2" fill-opacity="1" stroke="none" stroke-opacity="1" opacity="1"/></clipPath><clipPath id="clipPath4160-4-6-8" clipPathUnits="userSpaceOnUse"><rect id="rect4162-9-3" width="1" height="1" x="7" y="1023.362" fill="#f2f2f2" fill-opacity="1" stroke="none" stroke-opacity="1" opacity="1"/></clipPath><clipPath id="clipPath4160-3-5-3" clipPathUnits="userSpaceOnUse"><rect id="rect4162-0-0" width="1" height="1" x="7" y="1023.362" fill="#f2f2f2" fill-opacity="1" stroke="none" stroke-opacity="1" opacity="1"/></clipPath><linearGradient id="linearGradient5348" x1="3" x2="19" y1="1049.362" y2="1033.362" gradientTransform="matrix(0.75,0,0,0.75,1.7499999,269.34054)" gradientUnits="userSpaceOnUse" xlink:href="#linearGradient4012"/><linearGradient id="linearGradient5350" x1="3" x2="24.333" y1="1049.362" y2="1028.029" gradientTransform="matrix(0.75,0,0,0.75,2.7499999,262.34058)" gradientUnits="userSpaceOnUse" xlink:href="#linearGradient4012"/><linearGradient id="linearGradient5352" x1="3" x2="24.333" y1="1049.362" y2="1028.029" gradientTransform="matrix(0.75,0,0,0.75,3.7499999,-767.02162)" gradientUnits="userSpaceOnUse" xlink:href="#linearGradient4012"/><linearGradient id="linearGradient5354" x1="3" x2="19" y1="1049.362" y2="1033.362" gradientTransform="matrix(0.75,0,0,0.75,3.7499999,-769.02166)" gradientUnits="userSpaceOnUse" xlink:href="#linearGradient4012"/><clipPath id="clipPath4210-8-7" clipPathUnits="userSpaceOnUse"><rect id="rect4212-9-0" width="34" height="34" x="-7" y="1024.362" fill="#00f" fill-opacity=".514" stroke="none" stroke-opacity="1" opacity="1"/></clipPath><clipPath id="clipPath4160-5-3" clipPathUnits="userSpaceOnUse"><rect id="rect4162-1-4" width="32" height="32" x="-6" y="1028.362" fill="#aade87" fill-opacity=".472" stroke="none" stroke-opacity="1" opacity="1"/></clipPath><clipPath id="clipPath4210-1" clipPathUnits="userSpaceOnUse"><rect id="rect4212-44" width="34" height="34" x="-7" y="1024.362" fill="#00f" fill-opacity=".514" stroke="none" stroke-opacity="1" opacity="1"/></clipPath><clipPath id="clipPath4160-32" clipPathUnits="userSpaceOnUse"><rect id="rect4162-95" width="32" height="32" x="-6" y="1028.362" fill="#aade87" fill-opacity=".472" stroke="none" stroke-opacity="1" opacity="1"/></clipPath><linearGradient id="linearGradient5263"><stop id="stop5265" offset="0" stop-color="#a0d5ff" stop-opacity="1"/><stop id="stop5267" offset="1" stop-color="#a0d5ff" stop-opacity="1"/></linearGradient><clipPath id="clipPath4458"><path id="use4460" d="m 69.626,12.145 -0.052,0 c -22.727,-0.292 -46.472,4.077 -46.709,4.122 -2.424,0.451 -4.946,2.974 -5.397,5.397 -0.044,0.237 -4.414,23.983 -4.122,46.71 -0.292,22.777 4.078,46.523 4.122,46.761 0.451,2.423 2.974,4.945 5.398,5.398 0.237,0.044 23.982,4.413 46.709,4.121 22.779,0.292 46.524,-4.077 46.761,-4.121 2.423,-0.452 4.946,-2.976 5.398,-5.399 0.044,-0.236 4.413,-23.981 4.121,-46.709 0.292,-22.777 -4.077,-46.523 -4.121,-46.761 -0.453,-2.423 -2.976,-4.946 -5.398,-5.397 -0.238,-0.045 -23.984,-4.414 -46.71,-4.122 z"/></clipPath><linearGradient id="linearGradient4237"><stop id="stop4239" offset="0" stop-color="#ff594d" stop-opacity="1"/><stop id="stop4241" offset="1" stop-color="#ff7f76" stop-opacity="1"/></linearGradient><linearGradient id="linearGradient4210"><stop id="stop4212" offset="0" stop-color="#ff584c" stop-opacity="1"/><stop id="stop4214" offset="1" stop-color="#ff8077" stop-opacity="1"/></linearGradient><linearGradient id="linearGradient4179"><stop id="stop4181" offset="0" stop-color="#ffee5e" stop-opacity="1"/><stop id="stop4183" offset="1" stop-color="#feff8b" stop-opacity="1"/></linearGradient><linearGradient id="linearGradient4210-3"><stop id="stop4212-1" offset="0" stop-color="#ffce69" stop-opacity="1"/><stop id="stop4214-6" offset="1" stop-color="#ffce54" stop-opacity="1"/></linearGradient><linearGradient id="linearGradient4237-0"><stop id="stop4239-8" offset="0" stop-color="#ffee5e" stop-opacity="1"/><stop id="stop4241-9" offset="1" stop-color="#feff9f" stop-opacity="1"/></linearGradient><linearGradient id="linearGradient4237-2"><stop id="stop4239-7" offset="0" stop-color="#ffa0a6" stop-opacity="1"/><stop id="stop4241-2" offset="1" stop-color="#ffa0a5" stop-opacity="1"/></linearGradient><linearGradient id="linearGradient8311"><stop id="stop8313" offset="0" stop-color="#ce89ff" stop-opacity="1"/><stop id="stop8315" offset="1" stop-color="#e898ff" stop-opacity="1"/></linearGradient><linearGradient id="linearGradient4237-8"><stop id="stop4239-2" offset="0" stop-color="#cf8aff" stop-opacity="1"/><stop id="stop4241-3" offset="1" stop-color="#eaa0ff" stop-opacity="1"/></linearGradient><linearGradient id="linearGradient8311-3"><stop id="stop8313-0" offset="0" stop-color="#ffcc6b" stop-opacity="1"/><stop id="stop8315-1" offset="1" stop-color="#ffcf98" stop-opacity="1"/></linearGradient><linearGradient id="linearGradient4237-3"><stop id="stop4239-0" offset="0" stop-color="#ffcc6e" stop-opacity="1"/><stop id="stop4241-7" offset="1" stop-color="#ffe4a0" stop-opacity="1"/></linearGradient><linearGradient id="linearGradient8311-31"><stop id="stop8313-2" offset="0" stop-color="#f089ff" stop-opacity="1"/><stop id="stop8315-6" offset="1" stop-color="#ffadea" stop-opacity="1"/></linearGradient><linearGradient id="linearGradient4237-6"><stop id="stop4239-22" offset="0" stop-color="#f18bfe" stop-opacity="1"/><stop id="stop4241-0" offset="1" stop-color="#fcc3ff" stop-opacity="1"/></linearGradient><linearGradient id="linearGradient8467"><stop id="stop8469" offset="0" stop-color="#b9b9b9" stop-opacity="1"/><stop id="stop8471" offset="1" stop-color="#d1d1d1" stop-opacity="1"/></linearGradient><linearGradient id="linearGradient8311-5"><stop id="stop8313-7" offset="0" stop-color="#b9b9b9" stop-opacity="1"/><stop id="stop8315-3" offset="1" stop-color="#d2d2d2" stop-opacity="1"/></linearGradient><linearGradient id="linearGradient4237-4"><stop id="stop4239-9" offset="0" stop-color="#bababa" stop-opacity="1"/><stop id="stop4241-37" offset="1" stop-color="#c8c8c8" stop-opacity="1"/></linearGradient><linearGradient id="linearGradient8467-7"><stop id="stop8469-4" offset="0" stop-color="#3ec896" stop-opacity="1"/><stop id="stop8471-7" offset="1" stop-color="#66d9af" stop-opacity="1"/></linearGradient><linearGradient id="linearGradient8311-1"><stop id="stop8313-9" offset="0" stop-color="#494949" stop-opacity="1"/><stop id="stop8315-5" offset="1" stop-color="#616774" stop-opacity="1"/></linearGradient><linearGradient id="linearGradient-1" x1="209.957" x2="209.957" y1="0" y2="116.694" gradientTransform="scale(1.1288018,0.8858951)" gradientUnits="userSpaceOnUse"><stop id="stop4884" offset="0%" stop-color="#A7A7A7"/><stop id="stop4886" offset="100%" stop-color="#8D8D8D"/></linearGradient><linearGradient id="linearGradient-2" x1="193" x2="193" y1="411.584" y2="105.4" gradientTransform="scale(1.2279807,0.81434507)" gradientUnits="userSpaceOnUse"><stop id="stop4889" offset="0%" stop-color="#707070"/><stop id="stop4891" offset="100%" stop-color="#ABABAB"/></linearGradient><linearGradient id="linearGradient-3" x1="193" x2="193" y1="70.609" y2="457.423" gradientTransform="scale(1.2279807,0.81434507)" gradientUnits="userSpaceOnUse"><stop id="stop4894" offset="0%" stop-color="#000" stop-opacity="0"/><stop id="stop4896" offset="100%" stop-color="#000" stop-opacity=".19"/></linearGradient><linearGradient id="linearGradient4232"><stop id="stop4234" offset="0" stop-color="#333" stop-opacity="1"/><stop id="stop4236" offset="1" stop-color="#353535" stop-opacity="1"/></linearGradient><linearGradient id="linearGradient4172"><stop id="stop4174" offset="0" stop-color="#3dc796" stop-opacity="1"/><stop id="stop4176" offset="1" stop-color="#57d68d" stop-opacity="1"/></linearGradient><linearGradient id="linearGradient4233"><stop id="stop4235" offset="0" stop-color="#212121" stop-opacity="1"/><stop id="stop4237" offset="1" stop-color="#1d2022" stop-opacity="0"/></linearGradient><linearGradient id="linearGradient8467-6"><stop id="stop8469-5" offset="0" stop-color="#56d8d1" stop-opacity="1"/><stop id="stop8471-8" offset="1" stop-color="#9df7ee" stop-opacity="1"/></linearGradient><linearGradient id="linearGradient8311-10"><stop id="stop8313-3" offset="0" stop-color="#55d8d1" stop-opacity="1"/><stop id="stop8315-8" offset="1" stop-color="#66efe7" stop-opacity="1"/></linearGradient><linearGradient id="linearGradient8467-8"><stop id="stop8469-9" offset="0" stop-color="#dea679" stop-opacity="1"/><stop id="stop8471-2" offset="1" stop-color="#f7d19d" stop-opacity="1"/></linearGradient><linearGradient id="linearGradient8311-0"><stop id="stop8313-90" offset="0" stop-color="#dda579" stop-opacity="1"/><stop id="stop8315-88" offset="1" stop-color="#f3bc87" stop-opacity="1"/></linearGradient><linearGradient id="linearGradient8467-2"><stop id="stop8469-6" offset="0" stop-color="#5fa4d5" stop-opacity="1"/><stop id="stop8471-5" offset="1" stop-color="#9dc9f7" stop-opacity="1"/></linearGradient><linearGradient id="linearGradient8311-06"><stop id="stop8313-6" offset="0" stop-color="#5fa3d4" stop-opacity="1"/><stop id="stop8315-2" offset="1" stop-color="#6bb9ff" stop-opacity="1"/></linearGradient><linearGradient id="linearGradient4066"><stop id="stop4068" offset="0" stop-color="#dbc9ee" stop-opacity="1"/><stop id="stop4070" offset="1" stop-color="#faf7fd" stop-opacity="1"/></linearGradient><linearGradient id="linearGradient3843-5"><stop id="stop3845-0" offset="0" stop-color="#5a2c8b" stop-opacity="1"/><stop id="stop3847-4" offset="1" stop-color="#9d59cf" stop-opacity="1"/></linearGradient><clipPath id="clipPath16-54" clipPathUnits="userSpaceOnUse"><path id="path18-77" d="m 0,706.465 1490.926,0 L 1490.926,0 0,0 0,706.465 Z"/></clipPath><clipPath id="clipPath24-3" clipPathUnits="userSpaceOnUse"><path id="path26-76" d="m 22.1953,686.117 1447.7347,0 0,-667.1902 -1447.7347,0 0,667.1902 z"/></clipPath><clipPath id="clipPath4534" clipPathUnits="userSpaceOnUse"><rect id="rect4536" width="32" height="32" x="8" y="8" fill="url(#linearGradient4538)" fill-opacity="1" stroke="none" ry="16"/></clipPath><clipPath id="clipPath4584" clipPathUnits="userSpaceOnUse"><rect id="rect4586" width="32" height="32" x="392.571" y="507.798" fill="url(#linearGradient4588)" fill-opacity="1" stroke="none" ry="16"/></clipPath><clipPath id="clipPath4550" clipPathUnits="userSpaceOnUse"><rect id="rect4552" width="32" height="32" x="392.571" y="507.798" fill="url(#linearGradient4554)" fill-opacity="1" stroke="none" ry="16"/></clipPath><clipPath id="clipPath4568" clipPathUnits="userSpaceOnUse"><rect id="rect4570" width="32" height="32" x="392.571" y="507.798" fill="url(#linearGradient4572)" fill-opacity="1" stroke="none" ry="16"/></clipPath><clipPath id="clipPath4528" clipPathUnits="userSpaceOnUse"><rect id="rect4530" width="32" height="32" x="8" y="8" fill="url(#linearGradient4532)" fill-opacity="1" stroke="none" ry="16"/></clipPath><clipPath id="clipPath4578" clipPathUnits="userSpaceOnUse"><rect id="rect4580" width="32" height="32" x="392.571" y="507.798" fill="url(#linearGradient4582)" fill-opacity="1" stroke="none" ry="16"/></clipPath><clipPath id="clipPath4562" clipPathUnits="userSpaceOnUse"><rect id="rect4564" width="32" height="32" x="392.571" y="507.798" fill="url(#linearGradient4566)" fill-opacity="1" stroke="none" ry="16"/></clipPath><clipPath id="clipPath4544" clipPathUnits="userSpaceOnUse"><rect id="rect4546" width="32" height="32" x="392.571" y="507.798" fill="url(#linearGradient4548)" fill-opacity="1" stroke="none" ry="16"/></clipPath><clipPath id="clipPath4390" clipPathUnits="userSpaceOnUse"><rect id="rect4392" width="32" height="32" x="8" y="8" fill="url(#linearGradient4532)" fill-opacity="1" stroke="none" ry="16"/></clipPath><clipPath id="clipPath4407" clipPathUnits="userSpaceOnUse"><rect id="rect4409" width="32" height="32" x="392.571" y="507.798" fill="url(#linearGradient4582)" fill-opacity="1" stroke="none" ry="16"/></clipPath><clipPath id="clipPath4424" clipPathUnits="userSpaceOnUse"><rect id="rect4426" width="32" height="32" x="392.571" y="507.798" fill="url(#linearGradient4566)" fill-opacity="1" stroke="none" ry="16"/></clipPath><clipPath id="clipPath4441" clipPathUnits="userSpaceOnUse"><rect id="rect4443" width="32" height="32" x="392.571" y="507.798" fill="url(#linearGradient4548)" fill-opacity="1" stroke="none" ry="16"/></clipPath><clipPath id="clipPath4528-1" clipPathUnits="userSpaceOnUse"><rect id="rect4530-7" width="32" height="32" x="8" y="8" fill="url(#linearGradient4532)" fill-opacity="1" stroke="none" ry="16"/></clipPath><clipPath id="clipPath4578-8" clipPathUnits="userSpaceOnUse"><rect id="rect4580-7" width="32" height="32" x="392.571" y="507.798" fill="url(#linearGradient4582)" fill-opacity="1" stroke="none" ry="16"/></clipPath><clipPath id="clipPath4562-8" clipPathUnits="userSpaceOnUse"><rect id="rect4564-8" width="32" height="32" x="392.571" y="507.798" fill="url(#linearGradient4566)" fill-opacity="1" stroke="none" ry="16"/></clipPath><clipPath id="clipPath4544-1" clipPathUnits="userSpaceOnUse"><rect id="rect4546-1" width="32" height="32" x="392.571" y="507.798" fill="url(#linearGradient4548)" fill-opacity="1" stroke="none" ry="16"/></clipPath><clipPath id="clipPath4458-4"><path id="use4460-8" d="m 69.626,12.145 -0.052,0 c -22.727,-0.292 -46.472,4.077 -46.709,4.122 -2.424,0.451 -4.946,2.974 -5.397,5.397 -0.044,0.237 -4.414,23.983 -4.122,46.71 -0.292,22.777 4.078,46.523 4.122,46.761 0.451,2.423 2.974,4.945 5.398,5.398 0.237,0.044 23.982,4.413 46.709,4.121 22.779,0.292 46.524,-4.077 46.761,-4.121 2.423,-0.452 4.946,-2.976 5.398,-5.399 0.044,-0.236 4.413,-23.981 4.121,-46.709 0.292,-22.777 -4.077,-46.523 -4.121,-46.761 -0.453,-2.423 -2.976,-4.946 -5.398,-5.397 -0.238,-0.045 -23.984,-4.414 -46.71,-4.122 z"/></clipPath><clipPath id="clipPath4458-7"><path id="use4460-2" d="m 69.626,12.145 -0.052,0 c -22.727,-0.292 -46.472,4.077 -46.709,4.122 -2.424,0.451 -4.946,2.974 -5.397,5.397 -0.044,0.237 -4.414,23.983 -4.122,46.71 -0.292,22.777 4.078,46.523 4.122,46.761 0.451,2.423 2.974,4.945 5.398,5.398 0.237,0.044 23.982,4.413 46.709,4.121 22.779,0.292 46.524,-4.077 46.761,-4.121 2.423,-0.452 4.946,-2.976 5.398,-5.399 0.044,-0.236 4.413,-23.981 4.121,-46.709 0.292,-22.777 -4.077,-46.523 -4.121,-46.761 -0.453,-2.423 -2.976,-4.946 -5.398,-5.397 -0.238,-0.045 -23.984,-4.414 -46.71,-4.122 z"/></clipPath><clipPath id="clipPath4458-9"><path id="use4460-27" d="m 69.626,12.145 -0.052,0 c -22.727,-0.292 -46.472,4.077 -46.709,4.122 -2.424,0.451 -4.946,2.974 -5.397,5.397 -0.044,0.237 -4.414,23.983 -4.122,46.71 -0.292,22.777 4.078,46.523 4.122,46.761 0.451,2.423 2.974,4.945 5.398,5.398 0.237,0.044 23.982,4.413 46.709,4.121 22.779,0.292 46.524,-4.077 46.761,-4.121 2.423,-0.452 4.946,-2.976 5.398,-5.399 0.044,-0.236 4.413,-23.981 4.121,-46.709 0.292,-22.777 -4.077,-46.523 -4.121,-46.761 -0.453,-2.423 -2.976,-4.946 -5.398,-5.397 -0.238,-0.045 -23.984,-4.414 -46.71,-4.122 z"/></clipPath><clipPath id="clipPath4458-5"><path id="use4460-5" d="m 69.626,12.145 -0.052,0 c -22.727,-0.292 -46.472,4.077 -46.709,4.122 -2.424,0.451 -4.946,2.974 -5.397,5.397 -0.044,0.237 -4.414,23.983 -4.122,46.71 -0.292,22.777 4.078,46.523 4.122,46.761 0.451,2.423 2.974,4.945 5.398,5.398 0.237,0.044 23.982,4.413 46.709,4.121 22.779,0.292 46.524,-4.077 46.761,-4.121 2.423,-0.452 4.946,-2.976 5.398,-5.399 0.044,-0.236 4.413,-23.981 4.121,-46.709 0.292,-22.777 -4.077,-46.523 -4.121,-46.761 -0.453,-2.423 -2.976,-4.946 -5.398,-5.397 -0.238,-0.045 -23.984,-4.414 -46.71,-4.122 z"/></clipPath><clipPath id="clipPath4458-2"><path id="use4460-4" d="m 69.626,12.145 -0.052,0 c -22.727,-0.292 -46.472,4.077 -46.709,4.122 -2.424,0.451 -4.946,2.974 -5.397,5.397 -0.044,0.237 -4.414,23.983 -4.122,46.71 -0.292,22.777 4.078,46.523 4.122,46.761 0.451,2.423 2.974,4.945 5.398,5.398 0.237,0.044 23.982,4.413 46.709,4.121 22.779,0.292 46.524,-4.077 46.761,-4.121 2.423,-0.452 4.946,-2.976 5.398,-5.399 0.044,-0.236 4.413,-23.981 4.121,-46.709 0.292,-22.777 -4.077,-46.523 -4.121,-46.761 -0.453,-2.423 -2.976,-4.946 -5.398,-5.397 -0.238,-0.045 -23.984,-4.414 -46.71,-4.122 z"/></clipPath><clipPath id="clipPath4458-7-6"><path id="use4460-2-9" d="m 69.626,12.145 -0.052,0 c -22.727,-0.292 -46.472,4.077 -46.709,4.122 -2.424,0.451 -4.946,2.974 -5.397,5.397 -0.044,0.237 -4.414,23.983 -4.122,46.71 -0.292,22.777 4.078,46.523 4.122,46.761 0.451,2.423 2.974,4.945 5.398,5.398 0.237,0.044 23.982,4.413 46.709,4.121 22.779,0.292 46.524,-4.077 46.761,-4.121 2.423,-0.452 4.946,-2.976 5.398,-5.399 0.044,-0.236 4.413,-23.981 4.121,-46.709 0.292,-22.777 -4.077,-46.523 -4.121,-46.761 -0.453,-2.423 -2.976,-4.946 -5.398,-5.397 -0.238,-0.045 -23.984,-4.414 -46.71,-4.122 z"/></clipPath><clipPath id="clipPath4458-9-1"><path id="use4460-27-5" d="m 69.626,12.145 -0.052,0 c -22.727,-0.292 -46.472,4.077 -46.709,4.122 -2.424,0.451 -4.946,2.974 -5.397,5.397 -0.044,0.237 -4.414,23.983 -4.122,46.71 -0.292,22.777 4.078,46.523 4.122,46.761 0.451,2.423 2.974,4.945 5.398,5.398 0.237,0.044 23.982,4.413 46.709,4.121 22.779,0.292 46.524,-4.077 46.761,-4.121 2.423,-0.452 4.946,-2.976 5.398,-5.399 0.044,-0.236 4.413,-23.981 4.121,-46.709 0.292,-22.777 -4.077,-46.523 -4.121,-46.761 -0.453,-2.423 -2.976,-4.946 -5.398,-5.397 -0.238,-0.045 -23.984,-4.414 -46.71,-4.122 z"/></clipPath><clipPath id="clipPath4458-0"><path id="use4460-56" d="m 69.626,12.145 -0.052,0 c -22.727,-0.292 -46.472,4.077 -46.709,4.122 -2.424,0.451 -4.946,2.974 -5.397,5.397 -0.044,0.237 -4.414,23.983 -4.122,46.71 -0.292,22.777 4.078,46.523 4.122,46.761 0.451,2.423 2.974,4.945 5.398,5.398 0.237,0.044 23.982,4.413 46.709,4.121 22.779,0.292 46.524,-4.077 46.761,-4.121 2.423,-0.452 4.946,-2.976 5.398,-5.399 0.044,-0.236 4.413,-23.981 4.121,-46.709 0.292,-22.777 -4.077,-46.523 -4.121,-46.761 -0.453,-2.423 -2.976,-4.946 -5.398,-5.397 -0.238,-0.045 -23.984,-4.414 -46.71,-4.122 z"/></clipPath><clipPath id="clipPath4458-7-3"><path id="use4460-2-4" d="m 69.626,12.145 -0.052,0 c -22.727,-0.292 -46.472,4.077 -46.709,4.122 -2.424,0.451 -4.946,2.974 -5.397,5.397 -0.044,0.237 -4.414,23.983 -4.122,46.71 -0.292,22.777 4.078,46.523 4.122,46.761 0.451,2.423 2.974,4.945 5.398,5.398 0.237,0.044 23.982,4.413 46.709,4.121 22.779,0.292 46.524,-4.077 46.761,-4.121 2.423,-0.452 4.946,-2.976 5.398,-5.399 0.044,-0.236 4.413,-23.981 4.121,-46.709 0.292,-22.777 -4.077,-46.523 -4.121,-46.761 -0.453,-2.423 -2.976,-4.946 -5.398,-5.397 -0.238,-0.045 -23.984,-4.414 -46.71,-4.122 z"/></clipPath><clipPath id="clipPath4458-9-5"><path id="use4460-27-3" d="m 69.626,12.145 -0.052,0 c -22.727,-0.292 -46.472,4.077 -46.709,4.122 -2.424,0.451 -4.946,2.974 -5.397,5.397 -0.044,0.237 -4.414,23.983 -4.122,46.71 -0.292,22.777 4.078,46.523 4.122,46.761 0.451,2.423 2.974,4.945 5.398,5.398 0.237,0.044 23.982,4.413 46.709,4.121 22.779,0.292 46.524,-4.077 46.761,-4.121 2.423,-0.452 4.946,-2.976 5.398,-5.399 0.044,-0.236 4.413,-23.981 4.121,-46.709 0.292,-22.777 -4.077,-46.523 -4.121,-46.761 -0.453,-2.423 -2.976,-4.946 -5.398,-5.397 -0.238,-0.045 -23.984,-4.414 -46.71,-4.122 z"/></clipPath><clipPath id="clipPath4458-5-5"><path id="use4460-5-3" d="m 69.626,12.145 -0.052,0 c -22.727,-0.292 -46.472,4.077 -46.709,4.122 -2.424,0.451 -4.946,2.974 -5.397,5.397 -0.044,0.237 -4.414,23.983 -4.122,46.71 -0.292,22.777 4.078,46.523 4.122,46.761 0.451,2.423 2.974,4.945 5.398,5.398 0.237,0.044 23.982,4.413 46.709,4.121 22.779,0.292 46.524,-4.077 46.761,-4.121 2.423,-0.452 4.946,-2.976 5.398,-5.399 0.044,-0.236 4.413,-23.981 4.121,-46.709 0.292,-22.777 -4.077,-46.523 -4.121,-46.761 -0.453,-2.423 -2.976,-4.946 -5.398,-5.397 -0.238,-0.045 -23.984,-4.414 -46.71,-4.122 z"/></clipPath></defs><metadata id="metadata3874"/><g id="layer1" transform="translate(-326,-534.3622)"><g id="layer1-07" transform="matrix(-1,0,0,1,675,1)"><g id="layer1-95" transform="matrix(-1,0,0,1,676,0)"><g id="g4345" fill="#43be80" fill-opacity="1" stroke="#43be80" stroke-opacity="1" transform="matrix(5.0206924,0,0,5.0206924,-1376.5417,-2211.8262)"><g id="layer1-0" fill="#43be80" fill-opacity="1" stroke="#43be80" stroke-dasharray="none" stroke-miterlimit="4" stroke-opacity="1" stroke-width="1.003" transform="matrix(0.1875,0,0,0.1875,278.47478,446.89789)"><g id="layer1-9" fill="#43be80" fill-opacity="1" stroke="#43be80" stroke-dasharray="none" stroke-miterlimit="4" stroke-opacity="1" stroke-width=".926" transform="matrix(0,-1.082475,1.082475,0,-789.67467,556.15411)"><g id="g3" fill="#43be80" fill-opacity="1" stroke="#43be80" stroke-dasharray="none" stroke-miterlimit="4" stroke-opacity="1" stroke-width="28.316" transform="matrix(1.1827033e-4,0.03271224,-0.03271224,1.1827033e-4,18.268695,1034.3501)"><path id="path5" fill="#43be80" fill-opacity="1" stroke="#43be80" stroke-dasharray="none" stroke-miterlimit="4" stroke-opacity="1" stroke-width="28.316" d="M 345.441,248.292 151.154,442.573 c -12.359,12.365 -32.397,12.365 -44.75,0 -12.354,-12.354 -12.354,-32.391 0,-44.744 L 278.318,225.92 106.409,54.017 c -12.354,-12.359 -12.354,-32.394 0,-44.748 12.354,-12.359 32.391,-12.359 44.75,0 l 194.287,194.284 c 6.177,6.18 9.262,14.271 9.262,22.366 0,8.099 -3.091,16.196 -9.267,22.373 z"/></g></g></g><circle id="path4534" cx="340.689" cy="548.962" r=".421" fill="#43be80" fill-opacity="1" fill-rule="evenodd" stroke="#43be80" stroke-dasharray="none" stroke-dashoffset="0" stroke-linecap="square" stroke-linejoin="miter" stroke-miterlimit="4" stroke-opacity="1" stroke-width=".158" opacity="1"/></g></g></g></g></svg>