<svg xmlns="http://www.w3.org/2000/svg" xmlns:osb="http://www.openswatchbook.org/uri/2009/osb" xmlns:svg="http://www.w3.org/2000/svg" xmlns:xlink="http://www.w3.org/1999/xlink" id="svg3869" width="22" height="22" version="1.1"><defs id="defs3871"><linearGradient id="linearGradient3257"><stop id="stop3259" offset="0" stop-color="#a50000" stop-opacity="1"/><stop id="stop3261" offset="1" stop-color="#e73800" stop-opacity="1"/></linearGradient><clipPath id="clipPath4210" clipPathUnits="userSpaceOnUse"><rect id="rect4212" width="34" height="34" x="-7" y="1024.362" fill="#00f" fill-opacity=".514" stroke="none" stroke-opacity="1" opacity="1"/></clipPath><clipPath id="clipPath4160" clipPathUnits="userSpaceOnUse"><rect id="rect4162" width="32" height="32" x="-6" y="1028.362" fill="#aade87" fill-opacity=".472" stroke="none" stroke-opacity="1" opacity="1"/></clipPath><clipPath id="clipPath4160-4" clipPathUnits="userSpaceOnUse"><rect id="rect4162-5" width="1" height="1" x="7" y="1023.362" fill="#f2f2f2" fill-opacity="1" stroke="none" stroke-opacity="1" opacity="1"/></clipPath><clipPath id="clipPath16" clipPathUnits="userSpaceOnUse"><path id="path18" d="m 0,706.465 1490.926,0 L 1490.926,0 0,0 0,706.465 Z"/></clipPath><clipPath id="clipPath24" clipPathUnits="userSpaceOnUse"><path id="path26" d="m 22.1953,686.117 1447.7347,0 0,-667.1902 -1447.7347,0 0,667.1902 z"/></clipPath><clipPath id="clipPath4160-3" clipPathUnits="userSpaceOnUse"><rect id="rect4162-58" width="1" height="1" x="7" y="1023.362" fill="#f2f2f2" fill-opacity="1" stroke="none" stroke-opacity="1" opacity="1"/></clipPath><clipPath id="clipPath4160-2" clipPathUnits="userSpaceOnUse"><rect id="rect4162-4" width="1" height="1" x="7" y="1023.362" fill="#f2f2f2" fill-opacity="1" stroke="none" stroke-opacity="1" opacity="1"/></clipPath><clipPath id="clipPath4210-9" clipPathUnits="userSpaceOnUse"><rect id="rect4212-5" width="34" height="34" x="-7" y="1024.362" fill="#00f" fill-opacity=".514" stroke="none" stroke-opacity="1" opacity="1"/></clipPath><clipPath id="clipPath4160-6" clipPathUnits="userSpaceOnUse"><rect id="rect4162-2" width="32" height="32" x="-6" y="1028.362" fill="#aade87" fill-opacity=".472" stroke="none" stroke-opacity="1" opacity="1"/></clipPath><clipPath id="clipPath4160-4-3" clipPathUnits="userSpaceOnUse"><rect id="rect4162-5-4" width="1" height="1" x="7" y="1023.362" fill="#f2f2f2" fill-opacity="1" stroke="none" stroke-opacity="1" opacity="1"/></clipPath><clipPath id="clipPath16-5" clipPathUnits="userSpaceOnUse"><path id="path18-7" d="m 0,706.465 1490.926,0 L 1490.926,0 0,0 0,706.465 Z"/></clipPath><clipPath id="clipPath24-5" clipPathUnits="userSpaceOnUse"><path id="path26-3" d="m 22.1953,686.117 1447.7347,0 0,-667.1902 -1447.7347,0 0,667.1902 z"/></clipPath><clipPath id="clipPath4160-3-7" clipPathUnits="userSpaceOnUse"><rect id="rect4162-58-2" width="1" height="1" x="7" y="1023.362" fill="#f2f2f2" fill-opacity="1" stroke="none" stroke-opacity="1" opacity="1"/></clipPath><clipPath id="clipPath4160-2-1" clipPathUnits="userSpaceOnUse"><rect id="rect4162-4-1" width="1" height="1" x="7" y="1023.362" fill="#f2f2f2" fill-opacity="1" stroke="none" stroke-opacity="1" opacity="1"/></clipPath><linearGradient id="linearGradient4207" osb:paint="gradient"><stop id="stop3371" offset="0" stop-color="#3498db" stop-opacity="1"/><stop id="stop3373" offset="1" stop-color="#3498db" stop-opacity="0"/></linearGradient><clipPath id="clipPath4160-8" clipPathUnits="userSpaceOnUse"><rect id="rect4162-46" width="1" height="1" x="7" y="1023.362" fill="#f2f2f2" fill-opacity="1" stroke="none" stroke-opacity="1" opacity="1"/></clipPath><clipPath id="clipPath4160-4-6" clipPathUnits="userSpaceOnUse"><rect id="rect4162-9" width="1" height="1" x="7" y="1023.362" fill="#f2f2f2" fill-opacity="1" stroke="none" stroke-opacity="1" opacity="1"/></clipPath><clipPath id="clipPath4160-3-5" clipPathUnits="userSpaceOnUse"><rect id="rect4162-0" width="1" height="1" x="7" y="1023.362" fill="#f2f2f2" fill-opacity="1" stroke="none" stroke-opacity="1" opacity="1"/></clipPath><linearGradient id="linearGradient4012"><stop id="stop4014" offset="0" stop-color="#1d99f3" stop-opacity="1"/><stop id="stop4016" offset=".417" stop-color="#48acf5" stop-opacity=".761"/><stop id="stop4018" offset=".667" stop-color="#73c0f7" stop-opacity="0"/><stop id="stop4020" offset="1" stop-color="#cae7fc" stop-opacity="0"/></linearGradient><linearGradient id="linearGradient4164" x1="3" x2="19" y1="1049.362" y2="1033.362" gradientTransform="matrix(0.75,0,0,0.75,1.7499999,269.34054)" gradientUnits="userSpaceOnUse" xlink:href="#linearGradient4012"/><linearGradient id="linearGradient3983" x1="3" x2="24.333" y1="1049.362" y2="1028.029" gradientTransform="matrix(0.75,0,0,0.75,2.7499999,262.34058)" gradientUnits="userSpaceOnUse" xlink:href="#linearGradient4012"/><linearGradient id="linearGradient4007" x1="3" x2="24.333" y1="1049.362" y2="1028.029" gradientTransform="matrix(0.75,0,0,0.75,3.7499999,-767.02162)" gradientUnits="userSpaceOnUse" xlink:href="#linearGradient4012"/><linearGradient id="linearGradient4164-76" x1="3" x2="19" y1="1049.362" y2="1033.362" gradientTransform="matrix(0.75,0,0,0.75,3.7499999,-769.02166)" gradientUnits="userSpaceOnUse" xlink:href="#linearGradient4012"/><clipPath id="clipPath4210-8" clipPathUnits="userSpaceOnUse"><rect id="rect4212-9" width="34" height="34" x="-7" y="1024.362" fill="#00f" fill-opacity=".514" stroke="none" stroke-opacity="1" opacity="1"/></clipPath><clipPath id="clipPath4160-5" clipPathUnits="userSpaceOnUse"><rect id="rect4162-1" width="32" height="32" x="-6" y="1028.362" fill="#aade87" fill-opacity=".472" stroke="none" stroke-opacity="1" opacity="1"/></clipPath></defs><metadata id="metadata3874"/><g id="layer1" transform="translate(-326,-534.3622)"><g id="layer1-95" transform="matrix(-1,0,0,1,675,1)"><g id="g4345" fill="#4d4d4d" fill-opacity="1" stroke="#4d4d4d" stroke-opacity="1" transform="matrix(5.0206924,0,0,5.0206924,-1376.5417,-2211.8262)"><g id="layer1-0" fill="#4d4d4d" fill-opacity="1" stroke="#4d4d4d" stroke-dasharray="none" stroke-miterlimit="4" stroke-opacity="1" stroke-width="1.003" transform="matrix(0.1875,0,0,0.1875,278.47478,446.89789)"><g id="layer1-9" fill="#4d4d4d" fill-opacity="1" stroke="#4d4d4d" stroke-dasharray="none" stroke-miterlimit="4" stroke-opacity="1" stroke-width=".926" transform="matrix(0,-1.082475,1.082475,0,-789.67467,556.15411)"><g id="g3" fill="#4d4d4d" fill-opacity="1" stroke="#4d4d4d" stroke-dasharray="none" stroke-miterlimit="4" stroke-opacity="1" stroke-width="28.316" transform="matrix(1.1827033e-4,0.03271224,-0.03271224,1.1827033e-4,18.268695,1034.3501)"><path id="path5" fill="#4d4d4d" fill-opacity="1" stroke="#4d4d4d" stroke-dasharray="none" stroke-miterlimit="4" stroke-opacity="1" stroke-width="28.316" d="M 345.441,248.292 151.154,442.573 c -12.359,12.365 -32.397,12.365 -44.75,0 -12.354,-12.354 -12.354,-32.391 0,-44.744 L 278.318,225.92 106.409,54.017 c -12.354,-12.359 -12.354,-32.394 0,-44.748 12.354,-12.359 32.391,-12.359 44.75,0 l 194.287,194.284 c 6.177,6.18 9.262,14.271 9.262,22.366 0,8.099 -3.091,16.196 -9.267,22.373 z"/></g></g></g><circle id="path4534" cx="340.689" cy="548.962" r=".421" fill="#4d4d4d" fill-opacity="1" fill-rule="evenodd" stroke="#4d4d4d" stroke-dasharray="none" stroke-dashoffset="0" stroke-linecap="square" stroke-linejoin="miter" stroke-miterlimit="4" stroke-opacity="1" stroke-width=".158" opacity="1"/></g></g></g></svg>