<svg xmlns="http://www.w3.org/2000/svg" xmlns:svg="http://www.w3.org/2000/svg" id="svg2" width="22" height="22" version="1.1" viewBox="0 0 22 22"><metadata id="metadata7"/><g id="layer1" transform="translate(0,-1030.3622)"><path id="path4174" fill="#4d4d4d" fill-opacity="1" stroke="none" d="M 4,3 4,4 5,4 5,6 4,6 4,7 7,7 7,6 6,6 6,4 7,4 7,3 Z m 6,0 0,1 9,0 0,-1 z m 0,2 0,1 6,0 0,-1 z m -7,4 0,1 1,0 0,2 -1,0 0,1 5,0 0,-1 -1,0 0,-2 1,0 0,-1 z m 7,0 0,1 4,0 0,-1 z m -5,1 1,0 0,2 -1,0 z m 5,1 0,1 2,0 0,-1 z m 0,4 0,1 9,0 0,-1 z m 0,2 0,1 6,0 0,-1 z m 7,1 0,1 2,0 0,-1 z" opacity="1" transform="translate(0,1030.3622)"/><path id="path4162" fill="#1d99f3" fill-opacity="1" fill-rule="evenodd" stroke="none" stroke-linecap="butt" stroke-linejoin="miter" stroke-opacity="1" stroke-width="1" d="m 19,1042.3622 -5,0 2.5,-3 z"/></g></svg>