<svg xmlns="http://www.w3.org/2000/svg" xmlns:svg="http://www.w3.org/2000/svg" id="svg3869" width="22" height="22" version="1.1"><defs id="defs3871"><linearGradient id="linearGradient4066"><stop id="stop4068" offset="0" stop-color="#dbc9ee" stop-opacity="1"/><stop id="stop4070" offset="1" stop-color="#faf7fd" stop-opacity="1"/></linearGradient><linearGradient id="linearGradient3843-5"><stop id="stop3845-0" offset="0" stop-color="#5a2c8b" stop-opacity="1"/><stop id="stop3847-4" offset="1" stop-color="#9d59cf" stop-opacity="1"/></linearGradient><clipPath id="clipPath4160" clipPathUnits="userSpaceOnUse"><rect id="rect4162" width="1" height="1" x="7" y="1023.362" fill="#f2f2f2" fill-opacity="1" stroke="none" stroke-opacity="1" opacity="1"/></clipPath><linearGradient id="linearGradient4290-48"><stop id="stop4292-0" offset="0" stop-color="#a5a5a5" stop-opacity="1"/><stop id="stop4294-0" offset="1" stop-color="#f5f2f5" stop-opacity="1"/></linearGradient></defs><metadata id="metadata3874"/><g id="layer1" transform="translate(-326,-534.3622)"><g id="layer1-2" transform="translate(327,-497)"><g id="g4158" transform="translate(-1,1)"><path id="rect3356-8" fill="#4d4d4d" fill-opacity="1" stroke="none" d="M 11 3 C 6.568 3 3 6.568 3 11 C 3 15.432 6.568 19 11 19 C 15.432 19 19 15.432 19 11 C 19 6.568 15.432 3 11 3 z M 14 7 L 16 8.5 L 14 10 L 14 9 L 12.240234 9 C 12.24118 9.0079 11.404291 10.045972 10.628906 11.013672 L 12.240234 13 L 14 13 L 14 12 L 16 13.5 L 14 15 L 14 14 L 11.761719 14 C 11.761719 14 10.868772 12.881128 10 11.798828 C 9.131397 12.881128 8.2382812 14 8.2382812 14 L 6 14 L 6 13 L 7.7597656 13 L 9.3710938 11.013672 C 8.5955577 10.045972 7.7588201 9.01 7.7597656 9 L 6 9 L 6 8 L 8.1855469 8 L 10 10.238281 L 11.814453 8 L 14 8 L 14 7 z" transform="translate(0,1030.3622)"/></g></g></g></svg>