<svg xmlns="http://www.w3.org/2000/svg" xmlns:svg="http://www.w3.org/2000/svg" xmlns:xlink="http://www.w3.org/1999/xlink" id="svg3869" width="22" height="22" version="1.1"><defs id="defs3871"><clipPath id="clipPath4160" clipPathUnits="userSpaceOnUse"><rect id="rect4162" width="1" height="1" x="7" y="1023.362" fill="#f2f2f2" fill-opacity="1" stroke="none" stroke-opacity="1" opacity="1"/></clipPath><linearGradient id="linearGradient4123" x1="3" x2="15" y1="1045.362" y2="1045.362" gradientTransform="translate(0,-1.9999941)" gradientUnits="userSpaceOnUse" xlink:href="#linearGradient4021-3"/><linearGradient id="linearGradient4021-3"><stop id="stop4023-0" offset="0" stop-color="#b3b3b3" stop-opacity="1"/><stop id="stop4025-2" offset="1" stop-color="#4d4d4d" stop-opacity="1"/></linearGradient><clipPath id="clipPath4160-8" clipPathUnits="userSpaceOnUse"><rect id="rect4162-9" width="1" height="1" x="7" y="1023.362" fill="#f2f2f2" fill-opacity="1" stroke="none" stroke-opacity="1" opacity="1"/></clipPath></defs><metadata id="metadata3874"/><g id="layer1" transform="translate(-326,-534.3622)"><g id="layer1-3" transform="translate(326,-496)"><path id="rect4144" fill="#4d4d4d" fill-opacity="1" stroke="none" stroke-dasharray="none" stroke-miterlimit="4" stroke-opacity=".55" stroke-width="2.8" d="m 3,3 0,4 6,0 1,0 1,0 0,8 -1,0 -1,0 -6,0 0,4 9,0 0,-4 0,-2 7,0 0,-4 -7,0 0,-2 0,-4 -9,0 z M 4,4 11,4 11,6 4,6 4,4 Z M 7.5,8 C 7.223,8 7,8.223 7,8.5 7,8.777 7.223,9 7.5,9 7.777,9 8,8.777 8,8.5 8,8.223 7.777,8 7.5,8 Z m 4.5,2 1,0 1,0 4,0 0,2 -4,0 -1,0 -1,0 0,-2 z M 7.5,13 C 7.223,13 7,13.223 7,13.5 7,13.777 7.223,14 7.5,14 7.777,14 8,13.777 8,13.5 8,13.223 7.777,13 7.5,13 Z m -3.5,3 7,0 0,2 -7,0 0,-2 z" opacity="1" transform="translate(0,1030.3622)"/></g></g></svg>