<svg xmlns="http://www.w3.org/2000/svg" xmlns:svg="http://www.w3.org/2000/svg" xmlns:xlink="http://www.w3.org/1999/xlink" id="svg3869" width="22" height="22" version="1.1"><defs id="defs3871"><clipPath id="clipPath4160" clipPathUnits="userSpaceOnUse"><rect id="rect4162" width="1" height="1" x="7" y="1023.362" fill="#f2f2f2" fill-opacity="1" stroke="none" stroke-opacity="1" opacity="1"/></clipPath><linearGradient id="linearGradient4123" x1="3" x2="15" y1="1045.362" y2="1045.362" gradientTransform="translate(0,-1.9999941)" gradientUnits="userSpaceOnUse" xlink:href="#linearGradient4021-3"/><linearGradient id="linearGradient4021-3"><stop id="stop4023-0" offset="0" stop-color="#b3b3b3" stop-opacity="1"/><stop id="stop4025-2" offset="1" stop-color="#4d4d4d" stop-opacity="1"/></linearGradient><clipPath id="clipPath4160-8" clipPathUnits="userSpaceOnUse"><rect id="rect4162-9" width="1" height="1" x="7" y="1023.362" fill="#f2f2f2" fill-opacity="1" stroke="none" stroke-opacity="1" opacity="1"/></clipPath><linearGradient id="linearGradient4500"><stop id="stop4502" offset="0" stop-color="#ffce3b" stop-opacity="1"/><stop id="stop4504" offset="1" stop-color="#ffd762" stop-opacity="1"/></linearGradient><linearGradient id="linearGradient4234"><stop id="stop4236" offset="0" stop-color="#ffce3b" stop-opacity="1"/><stop id="stop4238" offset="1" stop-color="#fef4ab" stop-opacity="1"/></linearGradient><linearGradient id="linearGradient4240" x1="537.195" x2="537.195" y1="986.671" y2="-2.623" gradientUnits="userSpaceOnUse" xlink:href="#linearGradient4500"/><linearGradient id="linearGradient4320" x1="537.195" x2="537.195" y1="986.671" y2="-2.623" gradientUnits="userSpaceOnUse" xlink:href="#linearGradient4234"/><linearGradient id="linearGradient5263"><stop id="stop5265" offset="0" stop-color="#a0d5ff" stop-opacity="1"/><stop id="stop5267" offset="1" stop-color="#a0d5ff" stop-opacity="1"/></linearGradient><linearGradient id="linearGradient5146"><stop id="stop5148" offset="0" stop-color="#d5dbff" stop-opacity="1"/><stop id="stop5150" offset="1" stop-color="#ebedff" stop-opacity="1"/></linearGradient><linearGradient id="linearGradient5152" x1="767.857" x2="767.857" y1="200.934" y2="174.934" gradientUnits="userSpaceOnUse" xlink:href="#linearGradient5146"/><clipPath id="clipPath4458"><path id="use4460" d="m 69.626,12.145 -0.052,0 c -22.727,-0.292 -46.472,4.077 -46.709,4.122 -2.424,0.451 -4.946,2.974 -5.397,5.397 -0.044,0.237 -4.414,23.983 -4.122,46.71 -0.292,22.777 4.078,46.523 4.122,46.761 0.451,2.423 2.974,4.945 5.398,5.398 0.237,0.044 23.982,4.413 46.709,4.121 22.779,0.292 46.524,-4.077 46.761,-4.121 2.423,-0.452 4.946,-2.976 5.398,-5.399 0.044,-0.236 4.413,-23.981 4.121,-46.709 0.292,-22.777 -4.077,-46.523 -4.121,-46.761 -0.453,-2.423 -2.976,-4.946 -5.398,-5.397 -0.238,-0.045 -23.984,-4.414 -46.71,-4.122 z"/></clipPath><linearGradient id="linearGradient4237"><stop id="stop4239" offset="0" stop-color="#ff594d" stop-opacity="1"/><stop id="stop4241" offset="1" stop-color="#ff7f76" stop-opacity="1"/></linearGradient><linearGradient id="linearGradient4210"><stop id="stop4212" offset="0" stop-color="#ff584c" stop-opacity="1"/><stop id="stop4214" offset="1" stop-color="#ff8077" stop-opacity="1"/></linearGradient><linearGradient id="linearGradient4179"><stop id="stop4181" offset="0" stop-color="#ffee5e" stop-opacity="1"/><stop id="stop4183" offset="1" stop-color="#feff8b" stop-opacity="1"/></linearGradient><linearGradient id="linearGradient4210-3"><stop id="stop4212-1" offset="0" stop-color="#ffce69" stop-opacity="1"/><stop id="stop4214-6" offset="1" stop-color="#ffce54" stop-opacity="1"/></linearGradient><linearGradient id="linearGradient4237-0"><stop id="stop4239-8" offset="0" stop-color="#ffee5e" stop-opacity="1"/><stop id="stop4241-9" offset="1" stop-color="#feff9f" stop-opacity="1"/></linearGradient><linearGradient id="linearGradient4237-2"><stop id="stop4239-7" offset="0" stop-color="#ffa0a6" stop-opacity="1"/><stop id="stop4241-2" offset="1" stop-color="#ffa0a5" stop-opacity="1"/></linearGradient><linearGradient id="linearGradient8311"><stop id="stop8313" offset="0" stop-color="#ce89ff" stop-opacity="1"/><stop id="stop8315" offset="1" stop-color="#e898ff" stop-opacity="1"/></linearGradient><linearGradient id="linearGradient4237-8"><stop id="stop4239-2" offset="0" stop-color="#cf8aff" stop-opacity="1"/><stop id="stop4241-3" offset="1" stop-color="#eaa0ff" stop-opacity="1"/></linearGradient><linearGradient id="linearGradient8311-3"><stop id="stop8313-0" offset="0" stop-color="#ffcc6b" stop-opacity="1"/><stop id="stop8315-1" offset="1" stop-color="#ffcf98" stop-opacity="1"/></linearGradient><linearGradient id="linearGradient4237-3"><stop id="stop4239-0" offset="0" stop-color="#ffcc6e" stop-opacity="1"/><stop id="stop4241-7" offset="1" stop-color="#ffe4a0" stop-opacity="1"/></linearGradient><linearGradient id="linearGradient8311-31"><stop id="stop8313-2" offset="0" stop-color="#f089ff" stop-opacity="1"/><stop id="stop8315-6" offset="1" stop-color="#ffadea" stop-opacity="1"/></linearGradient><linearGradient id="linearGradient4237-6"><stop id="stop4239-22" offset="0" stop-color="#f18bfe" stop-opacity="1"/><stop id="stop4241-0" offset="1" stop-color="#fcc3ff" stop-opacity="1"/></linearGradient><linearGradient id="linearGradient8467"><stop id="stop8469" offset="0" stop-color="#b9b9b9" stop-opacity="1"/><stop id="stop8471" offset="1" stop-color="#d1d1d1" stop-opacity="1"/></linearGradient><linearGradient id="linearGradient8311-5"><stop id="stop8313-7" offset="0" stop-color="#b9b9b9" stop-opacity="1"/><stop id="stop8315-3" offset="1" stop-color="#d2d2d2" stop-opacity="1"/></linearGradient><linearGradient id="linearGradient4237-4"><stop id="stop4239-9" offset="0" stop-color="#bababa" stop-opacity="1"/><stop id="stop4241-37" offset="1" stop-color="#c8c8c8" stop-opacity="1"/></linearGradient><linearGradient id="linearGradient8467-7"><stop id="stop8469-4" offset="0" stop-color="#3ec896" stop-opacity="1"/><stop id="stop8471-7" offset="1" stop-color="#66d9af" stop-opacity="1"/></linearGradient><linearGradient id="linearGradient8311-1"><stop id="stop8313-9" offset="0" stop-color="#494949" stop-opacity="1"/><stop id="stop8315-5" offset="1" stop-color="#616774" stop-opacity="1"/></linearGradient><linearGradient id="linearGradient-1" x1="209.957" x2="209.957" y1="0" y2="116.694" gradientTransform="scale(1.1288018,0.8858951)" gradientUnits="userSpaceOnUse"><stop id="stop4884" offset="0%" stop-color="#A7A7A7"/><stop id="stop4886" offset="100%" stop-color="#8D8D8D"/></linearGradient><linearGradient id="linearGradient-2" x1="193" x2="193" y1="411.584" y2="105.4" gradientTransform="scale(1.2279807,0.81434507)" gradientUnits="userSpaceOnUse"><stop id="stop4889" offset="0%" stop-color="#707070"/><stop id="stop4891" offset="100%" stop-color="#ABABAB"/></linearGradient><linearGradient id="linearGradient-3" x1="193" x2="193" y1="70.609" y2="457.423" gradientTransform="scale(1.2279807,0.81434507)" gradientUnits="userSpaceOnUse"><stop id="stop4894" offset="0%" stop-color="#000" stop-opacity="0"/><stop id="stop4896" offset="100%" stop-color="#000" stop-opacity=".19"/></linearGradient><linearGradient id="linearGradient4232"><stop id="stop4234" offset="0" stop-color="#333" stop-opacity="1"/><stop id="stop4236-6" offset="1" stop-color="#353535" stop-opacity="1"/></linearGradient><linearGradient id="linearGradient4172"><stop id="stop4174" offset="0" stop-color="#3dc796" stop-opacity="1"/><stop id="stop4176" offset="1" stop-color="#57d68d" stop-opacity="1"/></linearGradient><linearGradient id="linearGradient4233"><stop id="stop4235" offset="0" stop-color="#212121" stop-opacity="1"/><stop id="stop4237" offset="1" stop-color="#1d2022" stop-opacity="0"/></linearGradient><linearGradient id="linearGradient8467-6"><stop id="stop8469-5" offset="0" stop-color="#56d8d1" stop-opacity="1"/><stop id="stop8471-8" offset="1" stop-color="#9df7ee" stop-opacity="1"/></linearGradient><linearGradient id="linearGradient8311-10"><stop id="stop8313-3" offset="0" stop-color="#55d8d1" stop-opacity="1"/><stop id="stop8315-8" offset="1" stop-color="#66efe7" stop-opacity="1"/></linearGradient><linearGradient id="linearGradient8467-8"><stop id="stop8469-9" offset="0" stop-color="#dea679" stop-opacity="1"/><stop id="stop8471-2" offset="1" stop-color="#f7d19d" stop-opacity="1"/></linearGradient><linearGradient id="linearGradient8311-0"><stop id="stop8313-90" offset="0" stop-color="#dda579" stop-opacity="1"/><stop id="stop8315-88" offset="1" stop-color="#f3bc87" stop-opacity="1"/></linearGradient><linearGradient id="linearGradient8467-2"><stop id="stop8469-6" offset="0" stop-color="#5fa4d5" stop-opacity="1"/><stop id="stop8471-5" offset="1" stop-color="#9dc9f7" stop-opacity="1"/></linearGradient><linearGradient id="linearGradient8311-06"><stop id="stop8313-6" offset="0" stop-color="#5fa3d4" stop-opacity="1"/><stop id="stop8315-2" offset="1" stop-color="#6bb9ff" stop-opacity="1"/></linearGradient><clipPath id="clipPath4458-7"><path id="use4460-2" d="m 69.626,12.145 -0.052,0 c -22.727,-0.292 -46.472,4.077 -46.709,4.122 -2.424,0.451 -4.946,2.974 -5.397,5.397 -0.044,0.237 -4.414,23.983 -4.122,46.71 -0.292,22.777 4.078,46.523 4.122,46.761 0.451,2.423 2.974,4.945 5.398,5.398 0.237,0.044 23.982,4.413 46.709,4.121 22.779,0.292 46.524,-4.077 46.761,-4.121 2.423,-0.452 4.946,-2.976 5.398,-5.399 0.044,-0.236 4.413,-23.981 4.121,-46.709 0.292,-22.777 -4.077,-46.523 -4.121,-46.761 -0.453,-2.423 -2.976,-4.946 -5.398,-5.397 -0.238,-0.045 -23.984,-4.414 -46.71,-4.122 z"/></clipPath><clipPath id="clipPath4458-9"><path id="use4460-27" d="m 69.626,12.145 -0.052,0 c -22.727,-0.292 -46.472,4.077 -46.709,4.122 -2.424,0.451 -4.946,2.974 -5.397,5.397 -0.044,0.237 -4.414,23.983 -4.122,46.71 -0.292,22.777 4.078,46.523 4.122,46.761 0.451,2.423 2.974,4.945 5.398,5.398 0.237,0.044 23.982,4.413 46.709,4.121 22.779,0.292 46.524,-4.077 46.761,-4.121 2.423,-0.452 4.946,-2.976 5.398,-5.399 0.044,-0.236 4.413,-23.981 4.121,-46.709 0.292,-22.777 -4.077,-46.523 -4.121,-46.761 -0.453,-2.423 -2.976,-4.946 -5.398,-5.397 -0.238,-0.045 -23.984,-4.414 -46.71,-4.122 z"/></clipPath><clipPath id="clipPath4458-5"><path id="use4460-5" d="m 69.626,12.145 -0.052,0 c -22.727,-0.292 -46.472,4.077 -46.709,4.122 -2.424,0.451 -4.946,2.974 -5.397,5.397 -0.044,0.237 -4.414,23.983 -4.122,46.71 -0.292,22.777 4.078,46.523 4.122,46.761 0.451,2.423 2.974,4.945 5.398,5.398 0.237,0.044 23.982,4.413 46.709,4.121 22.779,0.292 46.524,-4.077 46.761,-4.121 2.423,-0.452 4.946,-2.976 5.398,-5.399 0.044,-0.236 4.413,-23.981 4.121,-46.709 0.292,-22.777 -4.077,-46.523 -4.121,-46.761 -0.453,-2.423 -2.976,-4.946 -5.398,-5.397 -0.238,-0.045 -23.984,-4.414 -46.71,-4.122 z"/></clipPath><clipPath id="clipPath4458-2"><path id="use4460-4" d="m 69.626,12.145 -0.052,0 c -22.727,-0.292 -46.472,4.077 -46.709,4.122 -2.424,0.451 -4.946,2.974 -5.397,5.397 -0.044,0.237 -4.414,23.983 -4.122,46.71 -0.292,22.777 4.078,46.523 4.122,46.761 0.451,2.423 2.974,4.945 5.398,5.398 0.237,0.044 23.982,4.413 46.709,4.121 22.779,0.292 46.524,-4.077 46.761,-4.121 2.423,-0.452 4.946,-2.976 5.398,-5.399 0.044,-0.236 4.413,-23.981 4.121,-46.709 0.292,-22.777 -4.077,-46.523 -4.121,-46.761 -0.453,-2.423 -2.976,-4.946 -5.398,-5.397 -0.238,-0.045 -23.984,-4.414 -46.71,-4.122 z"/></clipPath><clipPath id="clipPath4458-7-6"><path id="use4460-2-9" d="m 69.626,12.145 -0.052,0 c -22.727,-0.292 -46.472,4.077 -46.709,4.122 -2.424,0.451 -4.946,2.974 -5.397,5.397 -0.044,0.237 -4.414,23.983 -4.122,46.71 -0.292,22.777 4.078,46.523 4.122,46.761 0.451,2.423 2.974,4.945 5.398,5.398 0.237,0.044 23.982,4.413 46.709,4.121 22.779,0.292 46.524,-4.077 46.761,-4.121 2.423,-0.452 4.946,-2.976 5.398,-5.399 0.044,-0.236 4.413,-23.981 4.121,-46.709 0.292,-22.777 -4.077,-46.523 -4.121,-46.761 -0.453,-2.423 -2.976,-4.946 -5.398,-5.397 -0.238,-0.045 -23.984,-4.414 -46.71,-4.122 z"/></clipPath><clipPath id="clipPath4458-9-1"><path id="use4460-27-5" d="m 69.626,12.145 -0.052,0 c -22.727,-0.292 -46.472,4.077 -46.709,4.122 -2.424,0.451 -4.946,2.974 -5.397,5.397 -0.044,0.237 -4.414,23.983 -4.122,46.71 -0.292,22.777 4.078,46.523 4.122,46.761 0.451,2.423 2.974,4.945 5.398,5.398 0.237,0.044 23.982,4.413 46.709,4.121 22.779,0.292 46.524,-4.077 46.761,-4.121 2.423,-0.452 4.946,-2.976 5.398,-5.399 0.044,-0.236 4.413,-23.981 4.121,-46.709 0.292,-22.777 -4.077,-46.523 -4.121,-46.761 -0.453,-2.423 -2.976,-4.946 -5.398,-5.397 -0.238,-0.045 -23.984,-4.414 -46.71,-4.122 z"/></clipPath><clipPath id="clipPath4458-0"><path id="use4460-56" d="m 69.626,12.145 -0.052,0 c -22.727,-0.292 -46.472,4.077 -46.709,4.122 -2.424,0.451 -4.946,2.974 -5.397,5.397 -0.044,0.237 -4.414,23.983 -4.122,46.71 -0.292,22.777 4.078,46.523 4.122,46.761 0.451,2.423 2.974,4.945 5.398,5.398 0.237,0.044 23.982,4.413 46.709,4.121 22.779,0.292 46.524,-4.077 46.761,-4.121 2.423,-0.452 4.946,-2.976 5.398,-5.399 0.044,-0.236 4.413,-23.981 4.121,-46.709 0.292,-22.777 -4.077,-46.523 -4.121,-46.761 -0.453,-2.423 -2.976,-4.946 -5.398,-5.397 -0.238,-0.045 -23.984,-4.414 -46.71,-4.122 z"/></clipPath><clipPath id="clipPath4458-7-3"><path id="use4460-2-4" d="m 69.626,12.145 -0.052,0 c -22.727,-0.292 -46.472,4.077 -46.709,4.122 -2.424,0.451 -4.946,2.974 -5.397,5.397 -0.044,0.237 -4.414,23.983 -4.122,46.71 -0.292,22.777 4.078,46.523 4.122,46.761 0.451,2.423 2.974,4.945 5.398,5.398 0.237,0.044 23.982,4.413 46.709,4.121 22.779,0.292 46.524,-4.077 46.761,-4.121 2.423,-0.452 4.946,-2.976 5.398,-5.399 0.044,-0.236 4.413,-23.981 4.121,-46.709 0.292,-22.777 -4.077,-46.523 -4.121,-46.761 -0.453,-2.423 -2.976,-4.946 -5.398,-5.397 -0.238,-0.045 -23.984,-4.414 -46.71,-4.122 z"/></clipPath><clipPath id="clipPath4458-9-5"><path id="use4460-27-3" d="m 69.626,12.145 -0.052,0 c -22.727,-0.292 -46.472,4.077 -46.709,4.122 -2.424,0.451 -4.946,2.974 -5.397,5.397 -0.044,0.237 -4.414,23.983 -4.122,46.71 -0.292,22.777 4.078,46.523 4.122,46.761 0.451,2.423 2.974,4.945 5.398,5.398 0.237,0.044 23.982,4.413 46.709,4.121 22.779,0.292 46.524,-4.077 46.761,-4.121 2.423,-0.452 4.946,-2.976 5.398,-5.399 0.044,-0.236 4.413,-23.981 4.121,-46.709 0.292,-22.777 -4.077,-46.523 -4.121,-46.761 -0.453,-2.423 -2.976,-4.946 -5.398,-5.397 -0.238,-0.045 -23.984,-4.414 -46.71,-4.122 z"/></clipPath><clipPath id="clipPath4458-5-5"><path id="use4460-5-3" d="m 69.626,12.145 -0.052,0 c -22.727,-0.292 -46.472,4.077 -46.709,4.122 -2.424,0.451 -4.946,2.974 -5.397,5.397 -0.044,0.237 -4.414,23.983 -4.122,46.71 -0.292,22.777 4.078,46.523 4.122,46.761 0.451,2.423 2.974,4.945 5.398,5.398 0.237,0.044 23.982,4.413 46.709,4.121 22.779,0.292 46.524,-4.077 46.761,-4.121 2.423,-0.452 4.946,-2.976 5.398,-5.399 0.044,-0.236 4.413,-23.981 4.121,-46.709 0.292,-22.777 -4.077,-46.523 -4.121,-46.761 -0.453,-2.423 -2.976,-4.946 -5.398,-5.397 -0.238,-0.045 -23.984,-4.414 -46.71,-4.122 z"/></clipPath><clipPath id="clipPath4458-99"><path id="use4460-1" d="m 69.626,12.145 -0.052,0 c -22.727,-0.292 -46.472,4.077 -46.709,4.122 -2.424,0.451 -4.946,2.974 -5.397,5.397 -0.044,0.237 -4.414,23.983 -4.122,46.71 -0.292,22.777 4.078,46.523 4.122,46.761 0.451,2.423 2.974,4.945 5.398,5.398 0.237,0.044 23.982,4.413 46.709,4.121 22.779,0.292 46.524,-4.077 46.761,-4.121 2.423,-0.452 4.946,-2.976 5.398,-5.399 0.044,-0.236 4.413,-23.981 4.121,-46.709 0.292,-22.777 -4.077,-46.523 -4.121,-46.761 -0.453,-2.423 -2.976,-4.946 -5.398,-5.397 -0.238,-0.045 -23.984,-4.414 -46.71,-4.122 z"/></clipPath><clipPath id="clipPath4458-7-9"><path id="use4460-2-7" d="m 69.626,12.145 -0.052,0 c -22.727,-0.292 -46.472,4.077 -46.709,4.122 -2.424,0.451 -4.946,2.974 -5.397,5.397 -0.044,0.237 -4.414,23.983 -4.122,46.71 -0.292,22.777 4.078,46.523 4.122,46.761 0.451,2.423 2.974,4.945 5.398,5.398 0.237,0.044 23.982,4.413 46.709,4.121 22.779,0.292 46.524,-4.077 46.761,-4.121 2.423,-0.452 4.946,-2.976 5.398,-5.399 0.044,-0.236 4.413,-23.981 4.121,-46.709 0.292,-22.777 -4.077,-46.523 -4.121,-46.761 -0.453,-2.423 -2.976,-4.946 -5.398,-5.397 -0.238,-0.045 -23.984,-4.414 -46.71,-4.122 z"/></clipPath><clipPath id="clipPath4458-9-8"><path id="use4460-27-4" d="m 69.626,12.145 -0.052,0 c -22.727,-0.292 -46.472,4.077 -46.709,4.122 -2.424,0.451 -4.946,2.974 -5.397,5.397 -0.044,0.237 -4.414,23.983 -4.122,46.71 -0.292,22.777 4.078,46.523 4.122,46.761 0.451,2.423 2.974,4.945 5.398,5.398 0.237,0.044 23.982,4.413 46.709,4.121 22.779,0.292 46.524,-4.077 46.761,-4.121 2.423,-0.452 4.946,-2.976 5.398,-5.399 0.044,-0.236 4.413,-23.981 4.121,-46.709 0.292,-22.777 -4.077,-46.523 -4.121,-46.761 -0.453,-2.423 -2.976,-4.946 -5.398,-5.397 -0.238,-0.045 -23.984,-4.414 -46.71,-4.122 z"/></clipPath><clipPath id="clipPath4458-5-4"><path id="use4460-5-9" d="m 69.626,12.145 -0.052,0 c -22.727,-0.292 -46.472,4.077 -46.709,4.122 -2.424,0.451 -4.946,2.974 -5.397,5.397 -0.044,0.237 -4.414,23.983 -4.122,46.71 -0.292,22.777 4.078,46.523 4.122,46.761 0.451,2.423 2.974,4.945 5.398,5.398 0.237,0.044 23.982,4.413 46.709,4.121 22.779,0.292 46.524,-4.077 46.761,-4.121 2.423,-0.452 4.946,-2.976 5.398,-5.399 0.044,-0.236 4.413,-23.981 4.121,-46.709 0.292,-22.777 -4.077,-46.523 -4.121,-46.761 -0.453,-2.423 -2.976,-4.946 -5.398,-5.397 -0.238,-0.045 -23.984,-4.414 -46.71,-4.122 z"/></clipPath><clipPath id="clipPath4458-2-0"><path id="use4460-4-2" d="m 69.626,12.145 -0.052,0 c -22.727,-0.292 -46.472,4.077 -46.709,4.122 -2.424,0.451 -4.946,2.974 -5.397,5.397 -0.044,0.237 -4.414,23.983 -4.122,46.71 -0.292,22.777 4.078,46.523 4.122,46.761 0.451,2.423 2.974,4.945 5.398,5.398 0.237,0.044 23.982,4.413 46.709,4.121 22.779,0.292 46.524,-4.077 46.761,-4.121 2.423,-0.452 4.946,-2.976 5.398,-5.399 0.044,-0.236 4.413,-23.981 4.121,-46.709 0.292,-22.777 -4.077,-46.523 -4.121,-46.761 -0.453,-2.423 -2.976,-4.946 -5.398,-5.397 -0.238,-0.045 -23.984,-4.414 -46.71,-4.122 z"/></clipPath><clipPath id="clipPath4458-7-6-7"><path id="use4460-2-9-5" d="m 69.626,12.145 -0.052,0 c -22.727,-0.292 -46.472,4.077 -46.709,4.122 -2.424,0.451 -4.946,2.974 -5.397,5.397 -0.044,0.237 -4.414,23.983 -4.122,46.71 -0.292,22.777 4.078,46.523 4.122,46.761 0.451,2.423 2.974,4.945 5.398,5.398 0.237,0.044 23.982,4.413 46.709,4.121 22.779,0.292 46.524,-4.077 46.761,-4.121 2.423,-0.452 4.946,-2.976 5.398,-5.399 0.044,-0.236 4.413,-23.981 4.121,-46.709 0.292,-22.777 -4.077,-46.523 -4.121,-46.761 -0.453,-2.423 -2.976,-4.946 -5.398,-5.397 -0.238,-0.045 -23.984,-4.414 -46.71,-4.122 z"/></clipPath><clipPath id="clipPath4458-9-1-9"><path id="use4460-27-5-8" d="m 69.626,12.145 -0.052,0 c -22.727,-0.292 -46.472,4.077 -46.709,4.122 -2.424,0.451 -4.946,2.974 -5.397,5.397 -0.044,0.237 -4.414,23.983 -4.122,46.71 -0.292,22.777 4.078,46.523 4.122,46.761 0.451,2.423 2.974,4.945 5.398,5.398 0.237,0.044 23.982,4.413 46.709,4.121 22.779,0.292 46.524,-4.077 46.761,-4.121 2.423,-0.452 4.946,-2.976 5.398,-5.399 0.044,-0.236 4.413,-23.981 4.121,-46.709 0.292,-22.777 -4.077,-46.523 -4.121,-46.761 -0.453,-2.423 -2.976,-4.946 -5.398,-5.397 -0.238,-0.045 -23.984,-4.414 -46.71,-4.122 z"/></clipPath><clipPath id="clipPath4458-0-8"><path id="use4460-56-1" d="m 69.626,12.145 -0.052,0 c -22.727,-0.292 -46.472,4.077 -46.709,4.122 -2.424,0.451 -4.946,2.974 -5.397,5.397 -0.044,0.237 -4.414,23.983 -4.122,46.71 -0.292,22.777 4.078,46.523 4.122,46.761 0.451,2.423 2.974,4.945 5.398,5.398 0.237,0.044 23.982,4.413 46.709,4.121 22.779,0.292 46.524,-4.077 46.761,-4.121 2.423,-0.452 4.946,-2.976 5.398,-5.399 0.044,-0.236 4.413,-23.981 4.121,-46.709 0.292,-22.777 -4.077,-46.523 -4.121,-46.761 -0.453,-2.423 -2.976,-4.946 -5.398,-5.397 -0.238,-0.045 -23.984,-4.414 -46.71,-4.122 z"/></clipPath><clipPath id="clipPath4458-7-3-5"><path id="use4460-2-4-2" d="m 69.626,12.145 -0.052,0 c -22.727,-0.292 -46.472,4.077 -46.709,4.122 -2.424,0.451 -4.946,2.974 -5.397,5.397 -0.044,0.237 -4.414,23.983 -4.122,46.71 -0.292,22.777 4.078,46.523 4.122,46.761 0.451,2.423 2.974,4.945 5.398,5.398 0.237,0.044 23.982,4.413 46.709,4.121 22.779,0.292 46.524,-4.077 46.761,-4.121 2.423,-0.452 4.946,-2.976 5.398,-5.399 0.044,-0.236 4.413,-23.981 4.121,-46.709 0.292,-22.777 -4.077,-46.523 -4.121,-46.761 -0.453,-2.423 -2.976,-4.946 -5.398,-5.397 -0.238,-0.045 -23.984,-4.414 -46.71,-4.122 z"/></clipPath><clipPath id="clipPath4458-9-5-2"><path id="use4460-27-3-2" d="m 69.626,12.145 -0.052,0 c -22.727,-0.292 -46.472,4.077 -46.709,4.122 -2.424,0.451 -4.946,2.974 -5.397,5.397 -0.044,0.237 -4.414,23.983 -4.122,46.71 -0.292,22.777 4.078,46.523 4.122,46.761 0.451,2.423 2.974,4.945 5.398,5.398 0.237,0.044 23.982,4.413 46.709,4.121 22.779,0.292 46.524,-4.077 46.761,-4.121 2.423,-0.452 4.946,-2.976 5.398,-5.399 0.044,-0.236 4.413,-23.981 4.121,-46.709 0.292,-22.777 -4.077,-46.523 -4.121,-46.761 -0.453,-2.423 -2.976,-4.946 -5.398,-5.397 -0.238,-0.045 -23.984,-4.414 -46.71,-4.122 z"/></clipPath><clipPath id="clipPath4458-5-5-5"><path id="use4460-5-3-6" d="m 69.626,12.145 -0.052,0 c -22.727,-0.292 -46.472,4.077 -46.709,4.122 -2.424,0.451 -4.946,2.974 -5.397,5.397 -0.044,0.237 -4.414,23.983 -4.122,46.71 -0.292,22.777 4.078,46.523 4.122,46.761 0.451,2.423 2.974,4.945 5.398,5.398 0.237,0.044 23.982,4.413 46.709,4.121 22.779,0.292 46.524,-4.077 46.761,-4.121 2.423,-0.452 4.946,-2.976 5.398,-5.399 0.044,-0.236 4.413,-23.981 4.121,-46.709 0.292,-22.777 -4.077,-46.523 -4.121,-46.761 -0.453,-2.423 -2.976,-4.946 -5.398,-5.397 -0.238,-0.045 -23.984,-4.414 -46.71,-4.122 z"/></clipPath><linearGradient id="linearGradient4550" x1="537.195" x2="537.195" y1="986.671" y2="-2.623" gradientUnits="userSpaceOnUse" xlink:href="#linearGradient4234"/><linearGradient id="linearGradient4552" x1="537.195" x2="537.195" y1="986.671" y2="-2.623" gradientUnits="userSpaceOnUse" xlink:href="#linearGradient4234"/><linearGradient id="linearGradient4554" x1="537.195" x2="537.195" y1="986.671" y2="-2.623" gradientUnits="userSpaceOnUse" xlink:href="#linearGradient4234"/><linearGradient id="linearGradient4556" x1="537.195" x2="537.195" y1="986.671" y2="-2.623" gradientUnits="userSpaceOnUse" xlink:href="#linearGradient4234"/><linearGradient id="linearGradient4558" x1="537.195" x2="537.195" y1="986.671" y2="-2.623" gradientUnits="userSpaceOnUse" xlink:href="#linearGradient4234"/><linearGradient id="linearGradient4560" x1="537.195" x2="537.195" y1="986.671" y2="-2.623" gradientUnits="userSpaceOnUse" xlink:href="#linearGradient4234"/><linearGradient id="linearGradient4562" x1="537.195" x2="537.195" y1="986.671" y2="-2.623" gradientUnits="userSpaceOnUse" xlink:href="#linearGradient4234"/><linearGradient id="linearGradient4564" x1="537.195" x2="537.195" y1="986.671" y2="-2.623" gradientUnits="userSpaceOnUse" xlink:href="#linearGradient4234"/><linearGradient id="linearGradient4566" x1="537.195" x2="537.195" y1="986.671" y2="-2.623" gradientUnits="userSpaceOnUse" xlink:href="#linearGradient4234"/><linearGradient id="linearGradient4568" x1="537.195" x2="537.195" y1="986.671" y2="-2.623" gradientUnits="userSpaceOnUse" xlink:href="#linearGradient4234"/><linearGradient id="linearGradient4570" x1="537.195" x2="537.195" y1="986.671" y2="-2.623" gradientUnits="userSpaceOnUse" xlink:href="#linearGradient4234"/><linearGradient id="linearGradient4572" x1="537.195" x2="537.195" y1="986.671" y2="-2.623" gradientUnits="userSpaceOnUse" xlink:href="#linearGradient4234"/><linearGradient id="linearGradient4574" x1="537.195" x2="537.195" y1="986.671" y2="-2.623" gradientUnits="userSpaceOnUse" xlink:href="#linearGradient4234"/><linearGradient id="linearGradient4576" x1="537.195" x2="537.195" y1="986.671" y2="-2.623" gradientUnits="userSpaceOnUse" xlink:href="#linearGradient4234"/></defs><metadata id="metadata3874"/><g id="layer1" transform="translate(-326,-534.3622)"><g id="layer1-1" transform="matrix(0.98331786,0,0,0.98331786,326.09481,-478.31309)"><g id="layer1-5" transform="matrix(1.1465202,0,0,1.1465202,-383.43138,419.03156)"><g id="g4284" fill="#fff" fill-opacity="1" transform="matrix(-0.23999606,0,0,0.23999606,395.2038,498.76004)"><g id="g4238" fill="#fff" fill-opacity="1" transform="matrix(0.17235131,0,0,0.17235131,181.93896,146.69807)"><g id="g4240" fill="#fff" fill-opacity="1"><path id="path4246" fill="#da4453" fill-opacity="1" d="m 180.559,265.364 c -9.097,0 -16.5,7.399 -16.5,16.5 0,9.098 7.403,16.5 16.5,16.5 9.097,0 16.5,-7.402 16.5,-16.5 0,-9.1 -7.404,-16.5 -16.5,-16.5 z m -15.665,-122.279 0,90.351 c 0,8.65 7.014,15.665 15.665,15.665 8.65,0 15.665,-7.015 15.665,-15.665 l 0,-90.351 c 0,-8.651 -7.015,-15.665 -15.665,-15.665 -8.651,0 -15.665,7.015 -15.665,15.665 z M 20.457579,107.48984 c 0.104898,-8.042176 6.293874,-14.68571 14.300731,-15.420345 66.54023,-6.223942 120.84273,-41.78433 138.74495,-54.791669 3.74136,-2.727345 8.81143,-2.727345 12.55279,0 17.8676,13.007339 72.16975,48.567727 138.70998,54.791669 8.00721,0.734635 14.16122,7.378169 14.30108,15.420345 0.80422,52.48391 -7.62258,230.67013 -155.28385,270.32188 -2.62245,0.69932 -5.38476,0.69932 -8.00721,0 C 28.114776,338.19528 19.688328,159.9734 20.457579,107.48984 Z"/></g></g></g></g></g></g></svg>