<svg xmlns="http://www.w3.org/2000/svg" xmlns:svg="http://www.w3.org/2000/svg" id="svg3869" width="22" height="22" version="1.1"><defs id="defs3871"><linearGradient id="linearGradient3257"><stop id="stop3259" offset="0" stop-color="#a50000" stop-opacity="1"/><stop id="stop3261" offset="1" stop-color="#e73800" stop-opacity="1"/></linearGradient><clipPath id="clipPath4210" clipPathUnits="userSpaceOnUse"><rect id="rect4212" width="34" height="34" x="-7" y="1024.362" fill="#00f" fill-opacity=".514" stroke="none" stroke-opacity="1" opacity="1"/></clipPath><clipPath id="clipPath4160" clipPathUnits="userSpaceOnUse"><rect id="rect4162" width="32" height="32" x="-6" y="1028.362" fill="#aade87" fill-opacity=".472" stroke="none" stroke-opacity="1" opacity="1"/></clipPath><clipPath id="clipPath4160-4" clipPathUnits="userSpaceOnUse"><rect id="rect4162-5" width="1" height="1" x="7" y="1023.362" fill="#f2f2f2" fill-opacity="1" stroke="none" stroke-opacity="1" opacity="1"/></clipPath><clipPath id="clipPath16" clipPathUnits="userSpaceOnUse"><path id="path18" d="m 0,706.465 1490.926,0 L 1490.926,0 0,0 0,706.465 Z"/></clipPath><clipPath id="clipPath24" clipPathUnits="userSpaceOnUse"><path id="path26" d="m 22.1953,686.117 1447.7347,0 0,-667.1902 -1447.7347,0 0,667.1902 z"/></clipPath></defs><metadata id="metadata3874"/><g id="layer1" transform="translate(-326,-534.3622)"><g id="layer1-1" transform="translate(326,-496)"><path id="rect4146" fill="#4d4d4d" fill-opacity="1" stroke="none" stroke-dasharray="none" stroke-miterlimit="4" stroke-opacity=".55" stroke-width="2.8" d="m 19,1046.3622 -1,0 0,-1 1,0 0,1 z m 0,-9 -1,0 0,-1 1,0 0,1 z m -2,9 -1,0 0,3 -10,0 0,-3 -1,0 0,-1 1,0 0,-3 3,0 0,-2 -3,0 0,-3 -1,0 0,-1 1,0 0,-3 10,0 0,3 1,0 0,1 -1,0 0,3 -3,0 0,2 3,0 0,3 1,0 0,1 z m -2,2 0,-5 -8,0 0,5 8,0 z m 0,-9 0,-5 -8,0 0,5 8,0 z m -1,8 -6,0 0,-3 6,0 0,3 z m -2,-5 0,-2 -2,0 0,2 2,0 z m -8,4 -1,0 0,-1 1,0 0,1 z m 0,-9 -1,0 0,-1 1,0 0,1 z" opacity="1"/></g></g></svg>