<svg xmlns="http://www.w3.org/2000/svg" xmlns:svg="http://www.w3.org/2000/svg" xmlns:xlink="http://www.w3.org/1999/xlink" id="svg3869" width="24" height="24" version="1.1"><defs id="defs3871"><clipPath id="clipPath4160" clipPathUnits="userSpaceOnUse"><rect id="rect4162" width="1" height="1" x="7" y="1023.362" fill="#f2f2f2" fill-opacity="1" stroke="none" stroke-opacity="1" opacity="1"/></clipPath><linearGradient id="linearGradient4123" x1="3" x2="15" y1="1045.362" y2="1045.362" gradientTransform="translate(0,-1.9999941)" gradientUnits="userSpaceOnUse" xlink:href="#linearGradient4021-3"/><linearGradient id="linearGradient4021-3"><stop id="stop4023-0" offset="0" stop-color="#b3b3b3" stop-opacity="1"/><stop id="stop4025-2" offset="1" stop-color="#4d4d4d" stop-opacity="1"/></linearGradient><clipPath id="clipPath4160-8" clipPathUnits="userSpaceOnUse"><rect id="rect4162-9" width="1" height="1" x="7" y="1023.362" fill="#f2f2f2" fill-opacity="1" stroke="none" stroke-opacity="1" opacity="1"/></clipPath></defs><metadata id="metadata3874"/><g id="layer1" transform="translate(-326,-532.3622)"><g id="layer1-5" transform="translate(-224.28571,-74.28568)"><path id="rect4144" fill="#4d4d4d" fill-opacity="1" stroke="none" stroke-dasharray="none" stroke-miterlimit="4" stroke-opacity=".55" stroke-width="2.8" d="M 4,3 4,6.9921875 4,8 l 0,7 0,1 0,1 -1,0 0,1 1,0 0,1 1,0 0,-1 14,0 0,-1 L 5,17 5,16 5.00781,16 6,16 8,16 8,15.9922 8.00781,16 l 1.999999,-2 1.591797,0 2,2 3.5,0 L 19,16 l 0,-1 -1.900391,0 -3.085937,0 -2,-2 L 12,13 l -0.992188,0 -0.408203,0 -1.005859,0 -2,2 L 6,15 5.0078125,15 5,15 5,12 5,11 5,10 5,8 5.0078125,8 6,8 l 1.5878906,0 1.7070313,1.7070312 0.8281251,0.8281248 2,2 0.002,-0.002 0.002,0.002 2.126953,-2.125 1.296875,1.296875 0.828125,0.828125 1.041016,1.041016 0.707031,-0.707031 L 17.085938,11.828125 16.257812,11 l -2,-2 -0.0039,0.00391 L 14.248047,9 12.125,11.123047 10.830078,9.828125 10.001953,9 8.0019531,7 8,7 6,7 6,6.99219 l -1,0 L 5,6 12,6 12,5 5,5 5,3 Z" opacity="1" transform="translate(551.28571,607.64788)"/><path id="rect3374" fill="#4d4d4d" fill-opacity="1" stroke="none" d="m 563.28571,610.64788 0,1 1,0 0,3 1,0 0,-4 -1,0 -1,0 z m 4.5,0 c -0.831,0 -1.5,0.669 -1.5,1.5 l 0,1 c 0,0.831 0.669,1.5 1.5,1.5 0.831,0 1.5,-0.669 1.5,-1.5 l 0,-1 c 0,-0.831 -0.669,-1.5 -1.5,-1.5 z m 4,0 c -0.831,0 -1.5,0.669 -1.5,1.5 l 0,1 c 0,0.831 0.669,1.5 1.5,1.5 0.831,0 1.5,-0.669 1.5,-1.5 l 0,-1 c 0,-0.831 -0.669,-1.5 -1.5,-1.5 z m -4,1 c 0.277,0 0.5,0.223 0.5,0.5 l 0,1 c 0,0.277 -0.223,0.5 -0.5,0.5 -0.277,0 -0.5,-0.223 -0.5,-0.5 l 0,-1 c 0,-0.277 0.223,-0.5 0.5,-0.5 z m 4,0 c 0.277,0 0.5,0.223 0.5,0.5 l 0,1 c 0,0.277 -0.223,0.5 -0.5,0.5 -0.277,0 -0.5,-0.223 -0.5,-0.5 l 0,-1 c 0,-0.277 0.223,-0.5 0.5,-0.5 z"/></g></g></svg>