<svg xmlns="http://www.w3.org/2000/svg" xmlns:svg="http://www.w3.org/2000/svg" xmlns:xlink="http://www.w3.org/1999/xlink" id="svg3869" width="24" height="24" version="1.1"><defs id="defs3871"><clipPath id="clipPath4160" clipPathUnits="userSpaceOnUse"><rect id="rect4162" width="1" height="1" x="7" y="1023.362" fill="#f2f2f2" fill-opacity="1" stroke="none" stroke-opacity="1" opacity="1"/></clipPath><linearGradient id="linearGradient4123" x1="3" x2="15" y1="1045.362" y2="1045.362" gradientTransform="translate(0,-1.9999941)" gradientUnits="userSpaceOnUse" xlink:href="#linearGradient4021-3"/><linearGradient id="linearGradient4021-3"><stop id="stop4023-0" offset="0" stop-color="#b3b3b3" stop-opacity="1"/><stop id="stop4025-2" offset="1" stop-color="#4d4d4d" stop-opacity="1"/></linearGradient><clipPath id="clipPath4160-8" clipPathUnits="userSpaceOnUse"><rect id="rect4162-9" width="1" height="1" x="7" y="1023.362" fill="#f2f2f2" fill-opacity="1" stroke="none" stroke-opacity="1" opacity="1"/></clipPath></defs><metadata id="metadata3874"/><g id="layer1" transform="translate(-326,-532.3622)"><g id="layer1-7" transform="translate(-224.28571,-74.28568)"><path id="rect4144" fill="#4d4d4d" fill-opacity="1" stroke="none" stroke-dasharray="none" stroke-miterlimit="4" stroke-opacity=".55" stroke-width="2.8" d="m 4,3 0,12 0,1 0,1 -1,0 0,1 1,0 0,1 1,0 0,-1 14,0 0,-1 L 5,17 5,16 5.00781,16 6,16 8,16 8,15.9922 8.00781,16 l 1.999999,-2 1.591797,0 2,2 3.5,0 L 19,16 l 0,-1 -1.900391,0 -3.085937,0 -2,-2 L 12,13 l -0.992188,0 -0.408203,0 -1.005859,0 -2,2 L 6,15 5.0078125,15 5,15 5,11 10,11 10,10.9922 10.007812,11 11.003906,10.003906 10.296875,9.296875 9.59375,10 5,10 5,3 4,3 Z M 14,5.59375 13.292969,6.3007812 12.296875,7.296875 13.003906,8.0039062 14,7.0078125 14.996094,8.0039062 15.703125,7.296875 14,5.59375 Z M 19,8 18,9 19,9 19,8 Z" opacity="1" transform="translate(551.28571,607.64788)"/><path id="rect4274" fill="#4d4d4d" fill-opacity="1" stroke="none" stroke-dasharray="none" stroke-miterlimit="4" stroke-opacity=".55" stroke-width="2.8" d="m 11,4 0,2 1,0 0,-1 1,0 0,-1 -2,0 z m 4,0 0,1 1,0 0,1 1,0 0,-2 -2,0 z m -4,4 0,2 2,0 0,-1 -1,0 0,-1 -1,0 z m 5,0 0,1 -1,0 0,1 2,0 0,-2 -1,0 z" opacity="1" transform="translate(551.28571,607.64788)"/><path id="path4149" fill="#4d4d4d" fill-opacity=".459" fill-rule="evenodd" stroke="none" stroke-linecap="butt" stroke-linejoin="miter" stroke-opacity="1" stroke-width="1" d="m 556.28572,623.64791 0,1 14,0 0,-1 -5.40001,0 -2,-2 -1.59999,0 -2,2 z"/><path id="path4150" fill="#4d4d4d" fill-opacity=".459" fill-rule="evenodd" stroke="none" stroke-linecap="butt" stroke-linejoin="miter" stroke-opacity="1" stroke-width="1" d="M 14,7 12.003906,9 13,9 13,10 11.005859,10 10.007812,11 5,11 l 0,4 2.5996094,0 2,-2 2.4082026,0 L 14,14.992188 19,15 l 0,-6 -2,0 0,1 -2,0 0,-1 1,0 -2,-2 z" transform="translate(551.28571,607.64788)"/></g></g></svg>