<svg xmlns="http://www.w3.org/2000/svg" xmlns:svg="http://www.w3.org/2000/svg" id="svg3049" width="16" height="16" version="1.1"><metadata id="metadata3054"/><g id="layer1" transform="translate(-421.71429,-531.79074)"><path id="path4144" fill="#b3b3b3" fill-opacity="1" fill-rule="evenodd" stroke="none" stroke-dasharray="none" stroke-miterlimit="4" stroke-width="2" d="M 9.5 3 A 3.5 3.5 0 0 0 6 6.5 A 3.5 3.5 0 0 0 6.0390625 7 L 9 7 L 9 9.9589844 A 3.5 3.5 0 0 0 9.5 10 A 3.5 3.5 0 0 0 13 6.5 A 3.5 3.5 0 0 0 9.5 3 z M 9 9.9589844 A 3.5 3.5 0 0 1 6.0390625 7 L 3 7 L 3 13 L 9 13 L 9 9.9589844 z" transform="translate(421.71429,531.79074)"/><path id="rect4159-66-5" fill="#4d4d4d" fill-opacity="1" fill-rule="evenodd" stroke="none" stroke-dasharray="none" stroke-miterlimit="4" stroke-width="2" d="m 423.71429,537.79074 0,8 8,0 0,-8 -8,0 z m 1,1 6,0 0,6 -6,0 0,-6 z"/><path id="path4142" fill="#4d4d4d" fill-opacity="1" fill-rule="evenodd" stroke="none" stroke-dasharray="none" stroke-miterlimit="4" stroke-width="2" d="m 431.21429,533.79074 a 4.5,4.5 0 0 0 -4.5,4.5 4.5,4.5 0 0 0 4.5,4.5 4.5,4.5 0 0 0 4.5,-4.5 4.5,4.5 0 0 0 -4.5,-4.5 z m 0,1 a 3.5,3.5 0 0 1 3.5,3.5 3.5,3.5 0 0 1 -3.5,3.5 3.5,3.5 0 0 1 -3.5,-3.5 3.5,3.5 0 0 1 3.5,-3.5 z"/></g></svg>