<svg xmlns="http://www.w3.org/2000/svg" xmlns:svg="http://www.w3.org/2000/svg" id="svg3049" width="16" height="16" version="1.1"><metadata id="metadata3054"/><g id="layer1" transform="translate(-421.71429,-531.79074)"><path id="rect4159-6" fill="#4d4d4d" fill-opacity="1" fill-rule="evenodd" stroke="none" stroke-dasharray="none" stroke-miterlimit="4" stroke-width="2" d="m 423.71429,537.79074 0,8 8,0 0,-8 -8,0 z m 1,1 6,0 0,6 -6,0 0,-6 z"/><rect id="rect4166-3" width="6" height="6" x="424.714" y="538.791" fill="#b3b3b3" fill-opacity="1" fill-rule="evenodd" stroke="none" stroke-dasharray="none" stroke-miterlimit="4" stroke-width="2"/><path id="path4142" fill="#4d4d4d" fill-opacity="1" fill-rule="evenodd" stroke="none" stroke-dasharray="none" stroke-miterlimit="4" stroke-width="2" d="M 9.5 2 A 4.5 4.5 0 0 0 5 6.5 A 4.5 4.5 0 0 0 9.5 11 A 4.5 4.5 0 0 0 14 6.5 A 4.5 4.5 0 0 0 9.5 2 z M 9.5 3 A 3.5 3.5 0 0 1 13 6.5 A 3.5 3.5 0 0 1 9.5 10 A 3.5 3.5 0 0 1 6 6.5 A 3.5 3.5 0 0 1 9.5 3 z" transform="translate(421.71429,531.79074)"/><circle id="path4144" cx="431.214" cy="538.291" r="3.5" fill="#b3b3b3" fill-opacity="1" fill-rule="evenodd" stroke="none" stroke-dasharray="none" stroke-miterlimit="4" stroke-width="2"/></g></svg>