<svg xmlns="http://www.w3.org/2000/svg" xmlns:svg="http://www.w3.org/2000/svg" id="svg3869" width="22" height="22" version="1.1"><defs id="defs3871"><linearGradient id="linearGradient4290-48"><stop id="stop4292-0" offset="0" stop-color="#a5a5a5" stop-opacity="1"/><stop id="stop4294-0" offset="1" stop-color="#f5f2f5" stop-opacity="1"/></linearGradient></defs><metadata id="metadata3874"/><g id="layer1" transform="translate(-326,-534.3622)"><g id="text4152" fill="#4d4d4d" fill-opacity="1" stroke="none" stroke-linecap="butt" stroke-linejoin="miter" stroke-opacity="1" stroke-width="1" font-family="sans-serif" font-size="180" font-style="normal" font-weight="normal" letter-spacing="0" transform="matrix(0.12414649,0,0,0.12414649,281.34448,481.3646)" word-spacing="0" style="line-height:125%"><path id="path4157" fill="#4d4d4d" fill-opacity="1" d="m 413.3852,578.50067 -10.26,-6.66 80.1,-119.34 10.08,6.84 z m 19.8,-75.06 c -6,6.12 -13.2,9.18 -21.6,9.18 -8.4,0 -15.66,-3.06 -21.78,-9.18 -6,-6.12 -9,-13.32 -9,-21.6 0,-8.28 3,-15.48 9,-21.6 6.12,-6.12 13.38,-9.18 21.78,-9.18 8.4,0 15.6,3.06 21.6,9.18 6.12,6.12 9.18,13.32 9.18,21.6 0,8.28 -3.06,15.48 -9.18,21.6 z m 73.44,67.32 c -6,6.12 -13.2,9.18 -21.6,9.18 -8.4,0 -15.66,-3.06 -21.78,-9.18 -6,-6.12 -9,-13.32 -9,-21.6 0,-8.28 3,-15.48 9,-21.6 6.12,-6.12 13.38,-9.18 21.78,-9.18 8.4,0 15.6,3.06 21.6,9.18 6.12,6.12 9.18,13.32 9.18,21.6 0,8.28 -3.06,15.48 -9.18,21.6 z" font-family="Product Sans" font-stretch="normal" font-style="normal" font-variant="normal" font-weight="normal" style="-inkscape-font-specification:'Product Sans'"/></g></g></svg>