<svg xmlns="http://www.w3.org/2000/svg" xmlns:svg="http://www.w3.org/2000/svg" id="svg3869" width="22" height="22" version="1.1"><defs id="defs3871"><linearGradient id="linearGradient4066"><stop id="stop4068" offset="0" stop-color="#dbc9ee" stop-opacity="1"/><stop id="stop4070" offset="1" stop-color="#faf7fd" stop-opacity="1"/></linearGradient><linearGradient id="linearGradient3843-5"><stop id="stop3845-0" offset="0" stop-color="#5a2c8b" stop-opacity="1"/><stop id="stop3847-4" offset="1" stop-color="#9d59cf" stop-opacity="1"/></linearGradient><clipPath id="clipPath4160" clipPathUnits="userSpaceOnUse"><rect id="rect4162" width="1" height="1" x="7" y="1023.362" fill="#f2f2f2" fill-opacity="1" stroke="none" stroke-opacity="1" opacity="1"/></clipPath><linearGradient id="linearGradient4290-48"><stop id="stop4292-0" offset="0" stop-color="#a5a5a5" stop-opacity="1"/><stop id="stop4294-0" offset="1" stop-color="#f5f2f5" stop-opacity="1"/></linearGradient></defs><metadata id="metadata3874"/><g id="layer1" transform="translate(-326,-534.3622)"><g id="layer1-4" transform="matrix(1.375,0,0,1.375,322.875,-887.51083)"><g id="layer1-3" transform="matrix(0.6517009,0,0,0.6517009,3.0368427,363.39251)"><g id="g4151" fill="#4d4d4d" fill-opacity="1" transform="matrix(1.1159609,0,0,1.1159609,-1.1724939,-120.69549)"><path id="rect3356-7" fill="#4d4d4d" fill-opacity="1" stroke="none" stroke-opacity="1" d="M 11 3 C 6.568 3 3 6.568 3 11 C 3 15.432 6.568 19 11 19 C 15.432 19 19 15.432 19 11 C 19 6.568 15.432 3 11 3 z M 8.7910156 7.7675781 L 13.890625 11.177734 L 8.7910156 14.585938 L 8.7910156 7.7675781 z" transform="translate(-1.3392253e-7,1030.3622)"/></g></g></g></g></svg>