<svg xmlns="http://www.w3.org/2000/svg" xmlns:svg="http://www.w3.org/2000/svg" id="svg4355" width="22" height="22" version="1.1"><defs id="defs4357"><clipPath id="clipPath4160" clipPathUnits="userSpaceOnUse"><rect id="rect4162" width="1" height="1" x="7" y="1023.362" fill="#f2f2f2" fill-opacity="1" stroke="none" stroke-opacity="1" opacity="1"/></clipPath></defs><metadata id="metadata4360"/><g id="layer1" transform="translate(-544.57141,-742.93359)"><g id="g4147"><path id="rect4151" fill="#4d4d4d" fill-opacity="1" stroke="none" d="m 560.07141,753.93359 c 0.48645,1.7025 1.69384,3.17195 2.21875,4.34375 0.18371,0.3484 0.28125,0.73355 0.28125,1.15625 0,1.385 -1.115,2.5 -2.5,2.5 -1.385,0 -2.5,-1.115 -2.5,-2.5 0,-0.4227 0.1288,-0.80785 0.3125,-1.15625 0.52493,-1.1718 1.70104,-2.64125 2.1875,-4.34375 z"/><path id="rect4151-6" fill="#4d4d4d" fill-opacity="1" stroke="none" d="m 551.07141,753.93359 c 0.48645,1.7025 1.69384,3.17195 2.21875,4.34375 0.18371,0.3484 0.28125,0.73355 0.28125,1.15625 0,1.385 -1.115,2.5 -2.5,2.5 -1.385,0 -2.5,-1.115 -2.5,-2.5 0,-0.4227 0.1288,-0.80785 0.3125,-1.15625 0.52493,-1.1718 1.70104,-2.64125 2.1875,-4.34375 z"/><path id="rect4151-6-6" fill="#4d4d4d" fill-opacity="1" stroke="none" d="m 555.57141,745.93359 c 0.48645,1.7025 1.69384,3.17195 2.21875,4.34375 0.18371,0.3484 0.28125,0.73355 0.28125,1.15625 0,1.385 -1.115,2.5 -2.5,2.5 -1.385,0 -2.5,-1.115 -2.5,-2.5 0,-0.4227 0.1288,-0.80785 0.3125,-1.15625 0.52493,-1.1718 1.70104,-2.64125 2.1875,-4.34375 z"/></g></g></svg>