<svg xmlns="http://www.w3.org/2000/svg" xmlns:svg="http://www.w3.org/2000/svg" xmlns:xlink="http://www.w3.org/1999/xlink" id="svg3869" width="22" height="22" version="1.1"><defs id="defs3871"><clipPath id="clipPath4160" clipPathUnits="userSpaceOnUse"><rect id="rect4162" width="1" height="1" x="7" y="1023.362" fill="#f2f2f2" fill-opacity="1" stroke="none" stroke-opacity="1" opacity="1"/></clipPath><linearGradient id="linearGradient4123" x1="3" x2="15" y1="1045.362" y2="1045.362" gradientTransform="translate(0,-1.9999941)" gradientUnits="userSpaceOnUse" xlink:href="#linearGradient4021-3"/><linearGradient id="linearGradient4021-3"><stop id="stop4023-0" offset="0" stop-color="#b3b3b3" stop-opacity="1"/><stop id="stop4025-2" offset="1" stop-color="#4d4d4d" stop-opacity="1"/></linearGradient><clipPath id="clipPath4160-8" clipPathUnits="userSpaceOnUse"><rect id="rect4162-9" width="1" height="1" x="7" y="1023.362" fill="#f2f2f2" fill-opacity="1" stroke="none" stroke-opacity="1" opacity="1"/></clipPath></defs><metadata id="metadata3874"/><g id="layer1" transform="translate(-326,-534.3622)"><g id="eye50-4" fill="#000" transform="matrix(0.1369863,0,0,0.13855801,327,538.85011)"><path id="path1643-0" fill="#da4453" fill-opacity="1" d="M 144.371,41.378 C 136.766,28.94 126.54,18.946 113.695,11.396 100.849,3.846 87.285,0.071 73,0.071 58.715,0.071 45.15,3.845 32.304,11.396 19.458,18.946 9.233,28.94 1.629,41.378 0.543,43.279 0,45.153 0,47 0,48.847 0.543,50.721 1.629,52.621 9.233,65.06 19.458,75.055 32.304,82.603 45.15,90.154 58.715,93.927 73,93.927 c 14.285,0 27.85,-3.761 40.695,-11.283 12.845,-7.522 23.072,-17.53 30.676,-30.023 1.086,-1.9 1.629,-3.773 1.629,-5.621 0,-1.847 -0.543,-3.721 -1.629,-5.622 z M 108.4,73.602 C 97.51,80.2 85.71,83.5 73,83.5 60.29,83.5 48.49,80.201 37.6,73.602 26.71,67.003 17.653,58.135 10.429,47 18.685,34.181 29.032,24.594 41.47,18.24 38.157,23.888 36.5,29.999 36.5,36.571 36.5,46.62 40.072,55.214 47.214,62.357 54.356,69.5 62.952,73.071 73,73.071 c 10.049,0 18.643,-3.572 25.786,-10.714 7.144,-7.142 10.714,-15.737 10.714,-25.786 0,-6.572 -1.657,-12.684 -4.971,-18.331 12.438,6.354 22.785,15.942 31.041,28.76 -7.222,11.135 -16.279,20.002 -27.17,26.602 z"/></g></g></svg>