<svg xmlns="http://www.w3.org/2000/svg" xmlns:svg="http://www.w3.org/2000/svg" id="svg3049" width="16" height="16" version="1.1"><metadata id="metadata3054"/><g id="layer1" transform="translate(-421.71429,-531.79074)"><path id="path3357-3-3-2" fill="#4d4d4d" fill-opacity="1" stroke="none" d="M 3.5 3 L 1 6 L 2.6660156 6 L 3 6 L 3 12 L 3 13 L 9 13 L 9 12 L 4 12 L 4 6 L 4.3339844 6 L 6 6 L 3.5 3 z M 7 3 L 7 4 L 12 4 L 12 10 L 11.666016 10 L 10 10 L 12.5 13 L 15 10 L 13.333984 10 L 13 10 L 13 4 L 13 3 L 7 3 z" transform="translate(421.71429,531.79074)"/><rect id="rect4035" width="0" height="11" x="409.871" y="546.666" fill="#4d4d4d" fill-opacity="1" stroke="none"/><rect id="rect4035-5" width="0" height="11" x="427.911" y="544.614" fill="#4d4d4d" fill-opacity="1" stroke="none"/><rect id="rect4035-8" width="0" height="11" x="409.871" y="546.666" fill="#4d4d4d" fill-opacity="1" stroke="none"/><rect id="rect4035-59" width="0" height="11" x="409.871" y="546.666" fill="#4d4d4d" fill-opacity="1" stroke="none"/><rect id="rect4035-9" width="0" height="11" x="409.871" y="546.666" fill="#4d4d4d" fill-opacity="1" stroke="none"/><rect id="rect4035-5-7" width="0" height="11" x="427.911" y="544.614" fill="#4d4d4d" fill-opacity="1" stroke="none"/><rect id="rect4035-9-0" width="0" height="11" x="389.871" y="546.666" fill="#4d4d4d" fill-opacity="1" stroke="none"/><rect id="rect4035-5-7-5" width="0" height="11" x="407.911" y="544.614" fill="#4d4d4d" fill-opacity="1" stroke="none"/><rect id="rect4035-3" width="0" height="11" x="409.871" y="546.666" fill="#4d4d4d" fill-opacity="1" stroke="none"/><rect id="rect4035-5-4" width="0" height="11" x="427.911" y="544.614" fill="#4d4d4d" fill-opacity="1" stroke="none"/><rect id="rect4035-8-7" width="0" height="11" x="409.871" y="546.666" fill="#4d4d4d" fill-opacity="1" stroke="none"/><rect id="rect4035-59-1" width="0" height="11" x="409.871" y="546.666" fill="#4d4d4d" fill-opacity="1" stroke="none"/><rect id="rect4035-9-08" width="0" height="11" x="409.871" y="546.666" fill="#4d4d4d" fill-opacity="1" stroke="none"/><rect id="rect4035-5-7-8" width="0" height="11" x="427.911" y="544.614" fill="#4d4d4d" fill-opacity="1" stroke="none"/><rect id="rect4035-9-0-2" width="0" height="11" x="389.871" y="546.666" fill="#4d4d4d" fill-opacity="1" stroke="none"/><rect id="rect4035-5-7-5-2" width="0" height="11" x="407.911" y="544.614" fill="#4d4d4d" fill-opacity="1" stroke="none"/><rect id="rect4035-2" width="0" height="11" x="405.636" y="548.641" fill="#4d4d4d" fill-opacity="1" stroke="none"/><rect id="rect4035-5-0" width="0" height="11" x="423.677" y="546.589" fill="#4d4d4d" fill-opacity="1" stroke="none"/><rect id="rect4035-8-1" width="0" height="11" x="405.636" y="548.641" fill="#4d4d4d" fill-opacity="1" stroke="none"/><rect id="rect4035-59-7" width="0" height="11" x="405.636" y="548.641" fill="#4d4d4d" fill-opacity="1" stroke="none"/><rect id="rect4035-9-9" width="0" height="11" x="405.636" y="548.641" fill="#4d4d4d" fill-opacity="1" stroke="none"/><rect id="rect4035-5-7-9" width="0" height="11" x="423.677" y="546.589" fill="#4d4d4d" fill-opacity="1" stroke="none"/><rect id="rect4035-9-0-5" width="0" height="11" x="385.636" y="548.641" fill="#4d4d4d" fill-opacity="1" stroke="none"/><rect id="rect4035-5-7-5-3" width="0" height="11" x="403.677" y="546.589" fill="#4d4d4d" fill-opacity="1" stroke="none"/></g></svg>