<svg xmlns="http://www.w3.org/2000/svg" xmlns:svg="http://www.w3.org/2000/svg" xmlns:xlink="http://www.w3.org/1999/xlink" id="svg3869" width="22" height="22" version="1.1"><defs id="defs3871"><clipPath id="clipPath4160" clipPathUnits="userSpaceOnUse"><rect id="rect4162" width="1" height="1" x="7" y="1023.362" fill="#f2f2f2" fill-opacity="1" stroke="none" stroke-opacity="1" opacity="1"/></clipPath><linearGradient id="linearGradient4123" x1="3" x2="15" y1="1045.362" y2="1045.362" gradientTransform="translate(0,-1.9999941)" gradientUnits="userSpaceOnUse" xlink:href="#linearGradient4021-3"/><linearGradient id="linearGradient4021-3"><stop id="stop4023-0" offset="0" stop-color="#b3b3b3" stop-opacity="1"/><stop id="stop4025-2" offset="1" stop-color="#4d4d4d" stop-opacity="1"/></linearGradient><clipPath id="clipPath4160-8" clipPathUnits="userSpaceOnUse"><rect id="rect4162-9" width="1" height="1" x="7" y="1023.362" fill="#f2f2f2" fill-opacity="1" stroke="none" stroke-opacity="1" opacity="1"/></clipPath></defs><metadata id="metadata3874"/><g id="layer1" transform="translate(-326,-534.3622)"><g id="g4153" transform="translate(-1,1.0000174)"><path id="rect4152" fill="#4d4d4d" fill-opacity="1" fill-rule="evenodd" stroke="none" stroke-dasharray="none" stroke-dashoffset="0" stroke-linecap="square" stroke-linejoin="miter" stroke-miterlimit="4" stroke-opacity="1" stroke-width=".8" d="M 3.6660156 3 C 3.2966823 3 3 3.2966823 3 3.6660156 L 3 18.333984 C 3 18.703318 3.2966823 19 3.6660156 19 L 18.333984 19 C 18.703318 19 19 18.703318 19 18.333984 L 19 3.6660156 C 19 3.2966823 18.703318 3 18.333984 3 L 3.6660156 3 z M 6.5 5 C 7.331 5 8 5.669 8 6.5 C 8 7.331 7.331 8 6.5 8 C 5.669 8 5 7.331 5 6.5 C 5 5.669 5.669 5 6.5 5 z M 15.5 5 C 16.331 5 17 5.669 17 6.5 C 17 7.331 16.331 8 15.5 8 C 14.669 8 14 7.331 14 6.5 C 14 5.669 14.669 5 15.5 5 z M 11 9.5 C 11.831 9.5 12.5 10.169 12.5 11 C 12.5 11.831 11.831 12.5 11 12.5 C 10.169 12.5 9.5 11.831 9.5 11 C 9.5 10.169 10.169 9.5 11 9.5 z M 6.5 14 C 7.331 14 8 14.669 8 15.5 C 8 16.331 7.331 17 6.5 17 C 5.669 17 5 16.331 5 15.5 C 5 14.669 5.669 14 6.5 14 z M 15.5 14 C 16.331 14 17 14.669 17 15.5 C 17 16.331 16.331 17 15.5 17 C 14.669 17 14 16.331 14 15.5 C 14 14.669 14.669 14 15.5 14 z" opacity="1" transform="translate(327,533.36218)"/></g></g></svg>