<svg xmlns="http://www.w3.org/2000/svg" xmlns:svg="http://www.w3.org/2000/svg" id="svg3049" width="16" height="16" version="1.1"><metadata id="metadata3054"/><g id="layer1" transform="translate(-421.71429,-531.79074)"><path id="path4144-3-8-1-9" fill="#4d4d4d" fill-opacity="1" fill-rule="evenodd" stroke="none" stroke-linecap="butt" stroke-linejoin="miter" stroke-opacity="1" stroke-width="1.333" d="m 426.71429,542.79075 -3,3 9,0 3,-3.00008 z"/><path id="rect4071-0-1-6-1-9" fill="#1d99f3" fill-opacity="1" stroke="none" d="m 432.71429,536.79076 0,4.03116 -1.34375,-1.43744 -0.65625,0.68744 2.3125,2.50005 0.1875,0.21877 0.1875,-0.21877 2.3125,-2.50005 -0.65625,-0.68744 -1.34375,1.43744 c 10e-6,-0.0232 0,-2.90774 0,-4.03116 z"/><path id="path4144-3-1-1-5-9-2" fill="#4d4d4d" fill-opacity="1" fill-rule="evenodd" stroke="none" stroke-linecap="butt" stroke-linejoin="miter" stroke-opacity="1" stroke-width="1.333" d="M 5 2 L 3 4 L 2 5 L 6 5 L 9 5 L 9 4 L 6 4 L 4.4160156 4 L 5.4140625 3 L 10 3 L 11.583984 3 L 10.585938 4 L 12 4 L 13 3 L 14 2 L 10 2 L 5 2 z" transform="translate(421.71429,531.79074)"/></g></svg>