<svg xmlns="http://www.w3.org/2000/svg" xmlns:svg="http://www.w3.org/2000/svg" id="svg3049" width="16" height="16" version="1.1"><metadata id="metadata3054"/><g id="layer1" transform="translate(-421.71429,-531.79074)"><g id="g4531" transform="matrix(0.75,0,0,-0.74999813,421.46429,1320.8106)"><path id="path4144-3-8-1" fill="#4d4d4d" fill-opacity="1" fill-rule="evenodd" stroke="none" stroke-linecap="butt" stroke-linejoin="miter" stroke-opacity="1" stroke-width="1.333" d="m 15.000005,1045.3624 3.999994,4 -11.9999938,0 -4,-4.0001 z"/><path id="rect4071-0-1-6-1" fill="#1d99f3" fill-opacity="1" stroke="none" d="M 11,5.0000153 11,9.03125 9.65625,7.59375 9,8.28125 l 2.3125,2.5 L 11.5,11 11.6875,10.78125 14,8.28125 13.34375,7.59375 12,9.03125 c 1.2e-5,-0.023517 -10e-7,-2.907742 0,-4.0312347 z" transform="matrix(1.3333333,0,0,1.3333367,0.3333327,1030.6957)"/><path id="path4144-3-1-1-5-9" fill="#4d4d4d" fill-opacity="1" fill-rule="evenodd" stroke="none" stroke-linecap="butt" stroke-linejoin="miter" stroke-opacity="1" stroke-width="1.333" d="M 2,2 5,5 10,5 10,4 5.4140625,4 4.4160156,3 10.585938,3 11.583984,4 12,4 13,4 11,2 2,2 Z" transform="matrix(1.3333333,0,0,1.3333367,0.3333327,1030.6957)"/></g></g></svg>