<svg xmlns="http://www.w3.org/2000/svg" xmlns:svg="http://www.w3.org/2000/svg" id="svg3869" width="22" height="22" version="1.1"><defs id="defs3871"><linearGradient id="linearGradient3257"><stop id="stop3259" offset="0" stop-color="#a50000" stop-opacity="1"/><stop id="stop3261" offset="1" stop-color="#e73800" stop-opacity="1"/></linearGradient></defs><metadata id="metadata3874"/><g id="layer1" transform="translate(-326,-534.3622)"><g id="layer1-6" fill="#1d99f3" fill-opacity="1" transform="translate(-1,1)"><g id="layer1-7" fill="#1d99f3" fill-opacity="1" transform="translate(-4.6361896e-6,-3.1814477e-6)"><g id="g3" fill="#1d99f3" fill-opacity="1" transform="matrix(0.03768616,0,0,0.03768616,327.99993,535.64791)"><path id="path5" fill="#1d99f3" fill-opacity="1" d="m 432.14438,155.42075 c -62.343,22.953 -109.84,39.299 -151.629,90.978 -37.229,46.05 -90.98,62.011 -151.628,31.657 l 0,165.457 -30.328996,0 0,-409.396004 c -0.001,-8.382 6.780996,-15.163 15.161996,-15.163 8.38,0 15.166,6.781 15.166,15.163 33.67,48.953 92.189,59.795 151.628,60.653 90.976,1.33 151.63,60.651004 151.63,60.651004 z"/></g></g></g></g></svg>