<svg xmlns="http://www.w3.org/2000/svg" xmlns:svg="http://www.w3.org/2000/svg" id="svg3869" width="24" height="24" version="1.1"><defs id="defs3871"><linearGradient id="linearGradient4290-48"><stop id="stop4292-0" offset="0" stop-color="#a5a5a5" stop-opacity="1"/><stop id="stop4294-0" offset="1" stop-color="#f5f2f5" stop-opacity="1"/></linearGradient><clipPath id="clipPath16" clipPathUnits="userSpaceOnUse"><path id="path18" d="m 0,706.465 1490.926,0 L 1490.926,0 0,0 0,706.465 Z"/></clipPath><clipPath id="clipPath24" clipPathUnits="userSpaceOnUse"><path id="path26" d="m 22.1953,686.117 1447.7347,0 0,-667.1902 -1447.7347,0 L 22.1953,686.117 Z"/></clipPath></defs><metadata id="metadata3874"/><g id="layer1" transform="translate(-326,-532.3622)"><g id="layer1-17" transform="translate(1,-1)"><g id="layer1-4" transform="translate(326,-496)"><rect id="rect4035" width="0" height="11" x="-37.468" y="1034.983" fill="#4d4d4d" fill-opacity="1" stroke="none"/><rect id="rect4035-5" width="0" height="11" x="-19.427" y="1032.931" fill="#4d4d4d" fill-opacity="1" stroke="none"/><rect id="rect4035-8" width="0" height="11" x="-37.468" y="1034.983" fill="#4d4d4d" fill-opacity="1" stroke="none"/><rect id="rect4035-59" width="0" height="11" x="-37.468" y="1034.983" fill="#4d4d4d" fill-opacity="1" stroke="none"/><rect id="rect4035-6" width="0" height="11" x="-44.776" y="1030.148" fill="#4d4d4d" fill-opacity="1" stroke="none"/><rect id="rect4035-5-1" width="0" height="11" x="-26.736" y="1028.097" fill="#4d4d4d" fill-opacity="1" stroke="none"/><rect id="rect4035-8-3" width="0" height="11" x="-44.776" y="1030.148" fill="#4d4d4d" fill-opacity="1" stroke="none"/><rect id="rect4035-59-4" width="0" height="11" x="-44.776" y="1030.148" fill="#4d4d4d" fill-opacity="1" stroke="none"/><rect id="rect4035-1" width="0" height="11" x="-38.761" y="1034.364" fill="#4d4d4d" fill-opacity="1" stroke="none"/><rect id="rect4035-5-0" width="0" height="11" x="-20.72" y="1032.313" fill="#4d4d4d" fill-opacity="1" stroke="none"/><rect id="rect4035-8-1" width="0" height="11" x="-38.761" y="1034.364" fill="#4d4d4d" fill-opacity="1" stroke="none"/><rect id="rect4035-59-1" width="0" height="11" x="-38.761" y="1034.364" fill="#4d4d4d" fill-opacity="1" stroke="none"/><path id="path3006" fill="#4d4d4d" fill-opacity="1" stroke="none" d="M 12,4 5,20 19,20 Z M 16.15625,17 17,19 7,19 c 0,0 9,-1.999983 9.15625,-2 z" transform="translate(-1,1029.3622)"/></g></g></g></svg>