<svg xmlns="http://www.w3.org/2000/svg" xmlns:osb="http://www.openswatchbook.org/uri/2009/osb" xmlns:svg="http://www.w3.org/2000/svg" id="svg3869" width="24" height="24" version="1.1"><defs id="defs3871"><linearGradient id="linearGradient4290-48"><stop id="stop4292-0" offset="0" stop-color="#a5a5a5" stop-opacity="1"/><stop id="stop4294-0" offset="1" stop-color="#f5f2f5" stop-opacity="1"/></linearGradient><linearGradient id="linearGradient4207" osb:paint="gradient"><stop id="stop3371" offset="0" stop-color="#3498db" stop-opacity="1"/><stop id="stop3373" offset="1" stop-color="#3498db" stop-opacity="0"/></linearGradient><linearGradient id="linearGradient3257"><stop id="stop3259" offset="0" stop-color="#a50000" stop-opacity="1"/><stop id="stop3261" offset="1" stop-color="#e73800" stop-opacity="1"/></linearGradient><clipPath id="clipPath4210" clipPathUnits="userSpaceOnUse"><rect id="rect4212" width="34" height="34" x="-7" y="1024.362" fill="#00f" fill-opacity=".514" stroke="none" stroke-opacity="1" opacity="1"/></clipPath><clipPath id="clipPath4160" clipPathUnits="userSpaceOnUse"><rect id="rect4162" width="32" height="32" x="-6" y="1028.362" fill="#aade87" fill-opacity=".472" stroke="none" stroke-opacity="1" opacity="1"/></clipPath><clipPath id="clipPath4160-4" clipPathUnits="userSpaceOnUse"><rect id="rect4162-5" width="1" height="1" x="7" y="1023.362" fill="#f2f2f2" fill-opacity="1" stroke="none" stroke-opacity="1" opacity="1"/></clipPath><clipPath id="clipPath16" clipPathUnits="userSpaceOnUse"><path id="path18" d="m 0,706.465 1490.926,0 L 1490.926,0 0,0 0,706.465 Z"/></clipPath><clipPath id="clipPath24" clipPathUnits="userSpaceOnUse"><path id="path26" d="m 22.1953,686.117 1447.7347,0 0,-667.1902 -1447.7347,0 L 22.1953,686.117 Z"/></clipPath></defs><metadata id="metadata3874"/><g id="layer1" transform="translate(-326,-532.3622)"><g id="layer1-0" fill="#fff" fill-opacity="1"><g id="g3" fill="#fff" fill-opacity="1" transform="matrix(0.46715328,0,0,0.46715328,330,536.3622)"><g id="g5" fill="#4d4d4d" fill-opacity="1"><rect id="rect9" width="5.187" height="5.275" x="7.132" y="0" fill="#4d4d4d" fill-opacity="1"/><rect id="rect11" width="5.185" height="5.275" x="14.266" y="0" fill="#4d4d4d" fill-opacity="1"/><rect id="rect13" width="5.185" height="5.275" x="21.398" y="0" fill="#4d4d4d" fill-opacity="1"/><rect id="rect15" width="5.186" height="5.275" x="29.064" y="0" fill="#4d4d4d" fill-opacity="1"/><rect id="rect19" width="5.187" height="5.274" x="7.132" y="7.244" fill="#4d4d4d" fill-opacity="1"/><rect id="rect21" width="5.185" height="5.274" x="14.266" y="7.244" fill="#4d4d4d" fill-opacity="1"/><rect id="rect23" width="5.185" height="5.274" x="21.398" y="7.244" fill="#4d4d4d" fill-opacity="1"/><rect id="rect25" width="5.186" height="5.274" x="29.064" y="7.244" fill="#4d4d4d" fill-opacity="1"/><rect id="rect29" width="5.187" height="5.275" x="7.132" y="14.487" fill="#4d4d4d" fill-opacity="1"/><rect id="rect31" width="5.185" height="5.275" x="14.266" y="14.487" fill="#4d4d4d" fill-opacity="1"/><rect id="rect33" width="5.185" height="5.275" x="21.398" y="14.487" fill="#4d4d4d" fill-opacity="1"/><rect id="rect35" width="5.186" height="5.275" x="29.064" y="14.487" fill="#4d4d4d" fill-opacity="1"/><rect id="rect39" width="5.187" height="5.274" x="7.132" y="21.73" fill="#4d4d4d" fill-opacity="1"/><rect id="rect41" width="5.185" height="5.274" x="14.266" y="21.73" fill="#4d4d4d" fill-opacity="1"/><rect id="rect43" width="5.185" height="5.274" x="21.398" y="21.73" fill="#4d4d4d" fill-opacity="1"/><rect id="rect45" width="5.186" height="5.274" x="29.064" y="21.73" fill="#4d4d4d" fill-opacity="1"/><g id="g4295" fill="#4d4d4d" fill-opacity="1"><rect id="rect7" width="5.185" height="5.275" x="0" y="0" fill="#4d4d4d" fill-opacity="1"/><rect id="rect17" width="5.185" height="5.274" x="0" y="7.244" fill="#4d4d4d" fill-opacity="1"/><rect id="rect27" width="5.185" height="5.275" x="0" y="14.487" fill="#4d4d4d" fill-opacity="1"/><rect id="rect37" width="5.185" height="5.274" x="0" y="21.73" fill="#4d4d4d" fill-opacity="1"/><rect id="rect47" width="5.185" height="5.275" x="0" y="28.975" fill="#4d4d4d" fill-opacity="1"/></g><rect id="rect49" width="5.187" height="5.275" x="7.132" y="28.975" fill="#4d4d4d" fill-opacity="1"/><rect id="rect51" width="5.185" height="5.275" x="14.266" y="28.975" fill="#4d4d4d" fill-opacity="1"/><rect id="rect53" width="5.185" height="5.275" x="21.398" y="28.975" fill="#4d4d4d" fill-opacity="1"/><rect id="rect55" width="5.186" height="5.275" x="29.064" y="28.975" fill="#4d4d4d" fill-opacity="1"/></g></g></g></g></svg>