<svg xmlns="http://www.w3.org/2000/svg" xmlns:svg="http://www.w3.org/2000/svg" id="svg3869" width="22" height="22" version="1.1"><defs id="defs3871"><linearGradient id="linearGradient4290-48"><stop id="stop4292-0" offset="0" stop-color="#a5a5a5" stop-opacity="1"/><stop id="stop4294-0" offset="1" stop-color="#f5f2f5" stop-opacity="1"/></linearGradient><clipPath id="clipPath16" clipPathUnits="userSpaceOnUse"><path id="path18" d="m 0,706.465 1490.926,0 L 1490.926,0 0,0 0,706.465 Z"/></clipPath><clipPath id="clipPath24" clipPathUnits="userSpaceOnUse"><path id="path26" d="m 22.1953,686.117 1447.7347,0 0,-667.1902 -1447.7347,0 0,667.1902 z"/></clipPath></defs><metadata id="metadata3874"/><g id="layer1" transform="translate(-326,-534.3622)"><g id="layer1-0" transform="translate(-95.71429,8.57146)"><path id="path3406" fill="#27ae60" fill-opacity="1" stroke="none" d="m 426.21429,528.79074 c -0.82842,0 -1.49999,0.67157 -1.5,1.5 10e-6,0.82843 0.67158,1.5 1.5,1.5 0.82842,0 1.49999,-0.67157 1.5,-1.5 -1e-5,-0.82843 -0.67158,-1.5 -1.5,-1.5 z" opacity="1"/><path id="path3404" fill="#4d4d4d" fill-opacity="1" stroke="none" d="M 7,3 7,4 19,4 19,3 7,3 Z m 0,2 0,1 5,0 0,-1 -5,0 z m 0,4 0,1 12,0 0,-1 -12,0 z m 0,2 0,1 6,0 0,-1 -6,0 z m 0,4 0,1 12,0 0,-1 -12,0 z m 0,2 0,1 9,0 0,-1 -9,0 z" opacity="1" transform="translate(421.71429,525.79074)"/><path id="path3398" fill="#27ae60" fill-opacity="1" stroke="none" d="m 426.21429,534.79074 c -0.82843,0 -1.5,0.67157 -1.5,1.5 0,0.82843 0.67157,1.5 1.5,1.5 0.82843,0 1.5,-0.67157 1.5,-1.5 0,-0.82843 -0.67157,-1.5 -1.5,-1.5 z" opacity="1"/><path id="path3390" fill="#da4453" fill-opacity="1" stroke="none" d="m 426.21429,540.79074 c -0.82843,0 -1.5,0.67157 -1.5,1.5 0,0.82843 0.67157,1.5 1.5,1.5 0.82843,0 1.5,-0.67157 1.5,-1.5 0,-0.82843 -0.67157,-1.5 -1.5,-1.5 z" opacity="1"/><path id="path4174" fill="#da4453" fill-opacity="1" stroke="none" d="m 438.71429,543.79074 0,1 2,0 0,-1 z" opacity="1"/></g></g></svg>