<svg xmlns="http://www.w3.org/2000/svg" xmlns:svg="http://www.w3.org/2000/svg" id="svg3869" width="22" height="22" version="1.1"><defs id="defs3871"><linearGradient id="linearGradient4290-48"><stop id="stop4292-0" offset="0" stop-color="#a5a5a5" stop-opacity="1"/><stop id="stop4294-0" offset="1" stop-color="#f5f2f5" stop-opacity="1"/></linearGradient><clipPath id="clipPath16" clipPathUnits="userSpaceOnUse"><path id="path18" d="m 0,706.465 1490.926,0 L 1490.926,0 0,0 0,706.465 Z"/></clipPath><clipPath id="clipPath24" clipPathUnits="userSpaceOnUse"><path id="path26" d="m 22.1953,686.117 1447.7347,0 0,-667.1902 -1447.7347,0 0,667.1902 z"/></clipPath></defs><metadata id="metadata3874"/><g id="layer1" transform="translate(-326,-534.3622)"><g id="g4162" transform="translate(-1,1.0000174)"><path id="rect4155" fill="#4d4d4d" fill-opacity="1" fill-rule="evenodd" stroke="none" stroke-dasharray="none" stroke-dashoffset="0" stroke-linecap="square" stroke-linejoin="miter" stroke-miterlimit="4" stroke-opacity="1" stroke-width=".8" d="M 3.5 3 C 3.223 3 3 3.223 3 3.5 L 3 18.5 C 3 18.777 3.223 19 3.5 19 L 18.5 19 C 18.777 19 19 18.777 19 18.5 L 19 3.5 C 19 3.223 18.777 3 18.5 3 L 3.5 3 z M 4.8125 4.0839844 A 0.75 0.75 0 0 1 5.5625 4.8339844 A 0.75 0.75 0 0 1 4.8125 5.5839844 A 0.75 0.75 0 0 1 4.0625 4.8339844 A 0.75 0.75 0 0 1 4.8125 4.0839844 z M 17.210938 4.0839844 A 0.75 0.75 0 0 1 17.960938 4.8339844 A 0.75 0.75 0 0 1 17.210938 5.5839844 A 0.75 0.75 0 0 1 16.460938 4.8339844 A 0.75 0.75 0 0 1 17.210938 4.0839844 z M 11 5 A 6 6 0 0 1 17 11 A 6 6 0 0 1 11 17 A 6 6 0 0 1 5 11 A 6 6 0 0 1 11 5 z M 11 8.5 A 2.5 2.5 0 0 0 8.5 11 A 2.5 2.5 0 0 0 11 13.5 A 2.5 2.5 0 0 0 13.5 11 A 2.5 2.5 0 0 0 11 8.5 z M 4.8125 16.484375 A 0.75 0.75 0 0 1 5.5625 17.234375 A 0.75 0.75 0 0 1 4.8125 17.984375 A 0.75 0.75 0 0 1 4.0625 17.234375 A 0.75 0.75 0 0 1 4.8125 16.484375 z M 17.210938 16.484375 A 0.75 0.75 0 0 1 17.960938 17.234375 A 0.75 0.75 0 0 1 17.210938 17.984375 A 0.75 0.75 0 0 1 16.460938 17.234375 A 0.75 0.75 0 0 1 17.210938 16.484375 z" opacity="1" transform="translate(327,533.36218)"/></g></g></svg>