<svg xmlns="http://www.w3.org/2000/svg" xmlns:svg="http://www.w3.org/2000/svg" id="svg3869" width="22" height="22" version="1.1"><metadata id="metadata3874"/><g id="layer1" transform="translate(-326,-534.3622)"><g id="g4157"><path id="rect4282" fill="#4d4d4d" fill-opacity="1" stroke="none" stroke-linecap="round" d="m 5,4 0,1 6,0 0,12 0,1 6,0 0,-1 -5,0 0,-13 -1,0 -6,0 z" opacity="1" transform="translate(326,534.3622)"/><path id="path4240" fill="#1d99f3" fill-opacity="1" stroke="none" stroke-linecap="round" d="m 330.5,537.3622 c -0.82843,0 -1.5,0.67157 -1.5,1.5 0,0.82843 0.67157,1.5 1.5,1.5 0.82843,0 1.5,-0.67157 1.5,-1.5 0,-0.82843 -0.67157,-1.5 -1.5,-1.5 z" opacity="1"/><path id="path4240-5" fill="#1d99f3" fill-opacity="1" stroke="none" stroke-linecap="round" d="m 343.5,550.3622 c -0.82843,0 -1.5,0.67157 -1.5,1.5 0,0.82843 0.67157,1.5 1.5,1.5 0.82843,0 1.5,-0.67157 1.5,-1.5 0,-0.82843 -0.67157,-1.5 -1.5,-1.5 z" opacity="1"/></g></g></svg>