<svg xmlns="http://www.w3.org/2000/svg" xmlns:svg="http://www.w3.org/2000/svg" id="svg3869" width="22" height="22" version="1.1"><defs id="defs3871"><linearGradient id="linearGradient4290-48"><stop id="stop4292-0" offset="0" stop-color="#a5a5a5" stop-opacity="1"/><stop id="stop4294-0" offset="1" stop-color="#f5f2f5" stop-opacity="1"/></linearGradient><clipPath id="clipPath16" clipPathUnits="userSpaceOnUse"><path id="path18" d="m 0,706.465 1490.926,0 L 1490.926,0 0,0 0,706.465 Z"/></clipPath><clipPath id="clipPath24" clipPathUnits="userSpaceOnUse"><path id="path26" d="m 22.1953,686.117 1447.7347,0 0,-667.1902 -1447.7347,0 0,667.1902 z"/></clipPath></defs><metadata id="metadata3874"/><g id="layer1" transform="translate(-326,-534.3622)"><g id="layer1-7" transform="translate(-95.71429,8.5714595)"><path id="rect3355" fill="#4d4d4d" fill-opacity="1" stroke="none" stroke-dasharray="none" stroke-miterlimit="4" stroke-opacity=".55" stroke-width="2.8" d="M 11,3 C 8.2300013,3 6,5.2300013 6,8 l 0,6 0,5 1,0 3,0 0,-0.09961 0,-0.175782 L 10,17 10,9 10,8 c 0,-0.554 0.446,-1 1,-1 0.554,0 1,0.446 1,1 l 0,9 0,1 0,0.724609 0,0.175782 0,0.09961 1,0 2,0 1,0 0,-1 0,-9 0,-1 C 16,5.2300013 13.769999,3 11,3 Z" opacity="1" transform="translate(421.71429,525.79074)"/></g></g></svg>