<svg xmlns="http://www.w3.org/2000/svg" xmlns:svg="http://www.w3.org/2000/svg" id="svg3869" width="22" height="22" version="1.1"><defs id="defs3871"><linearGradient id="linearGradient4290-48"><stop id="stop4292-0" offset="0" stop-color="#a5a5a5" stop-opacity="1"/><stop id="stop4294-0" offset="1" stop-color="#f5f2f5" stop-opacity="1"/></linearGradient><clipPath id="clipPath16" clipPathUnits="userSpaceOnUse"><path id="path18" d="m 0,706.465 1490.926,0 L 1490.926,0 0,0 0,706.465 Z"/></clipPath><clipPath id="clipPath24" clipPathUnits="userSpaceOnUse"><path id="path26" d="m 22.1953,686.117 1447.7347,0 0,-667.1902 -1447.7347,0 0,667.1902 z"/></clipPath></defs><metadata id="metadata3874"/><g id="layer1" transform="translate(-326,-534.3622)"><g id="layer1-1" transform="translate(-95.71429,8.57146)"><path id="rect4144" fill="#4d4d4d" fill-opacity="1" stroke="none" stroke-dasharray="none" stroke-miterlimit="4" stroke-opacity=".55" stroke-width="2.8" d="M 9.2421875,3 5,7.2421875 5.0078125,7.25 5,7.25 5,10 5,19 6,19 9,19 9,18 9,9.65625 11.65625,7 16,7 17,7 17,6 17,4 17,3 16,3 10.990234,3 9.2441406,3 Z M 11,9 l 0,1 0,9 1,0 3,0 0,-1 0,-5 1,0 1,0 0,-1 0,-2 0,-1 -1,0 -1,0 -3,0 z" opacity="1" transform="translate(421.71429,525.79074)"/></g></g></svg>