<svg xmlns="http://www.w3.org/2000/svg" xmlns:osb="http://www.openswatchbook.org/uri/2009/osb" xmlns:svg="http://www.w3.org/2000/svg" xmlns:xlink="http://www.w3.org/1999/xlink" id="svg3760" width="22" height="22" version="1.1"><defs id="defs3762"><linearGradient id="linearGradient4123" x1="3" x2="15" y1="1045.362" y2="1045.362" gradientTransform="translate(0,-1.9999941)" gradientUnits="userSpaceOnUse" xlink:href="#linearGradient4021-3"/><linearGradient id="linearGradient4021-3"><stop id="stop4023-0" offset="0" stop-color="#b3b3b3" stop-opacity="1"/><stop id="stop4025-2" offset="1" stop-color="#4d4d4d" stop-opacity="1"/></linearGradient><linearGradient id="linearGradient4232"><stop id="stop4234-0" offset="0" stop-color="#3889e9" stop-opacity="1"/><stop id="stop4236" offset="1" stop-color="#5ea5fb" stop-opacity="1"/></linearGradient><linearGradient id="linearGradient3426" x1="399.571" x2="399.571" y1="545.798" y2="517.798" gradientUnits="userSpaceOnUse" xlink:href="#linearGradient4232"/><linearGradient id="linearGradient4207" osb:paint="gradient"><stop id="stop3371" offset="0" stop-color="#3498db" stop-opacity="1"/><stop id="stop3373" offset="1" stop-color="#3498db" stop-opacity="0"/></linearGradient><linearGradient id="linearGradient4304-0"><stop id="stop4306-4" offset="0" stop-color="#dbdada" stop-opacity="1"/><stop id="stop4308-9" offset="1" stop-color="#fff" stop-opacity="1"/></linearGradient></defs><metadata id="metadata3765"/><g id="layer1" transform="translate(-553.72253,-583.11926)"><g id="layer1-73" transform="matrix(0.57142895,0,0,0.57142895,335.81071,290.19085)"><g id="layer1-39" stroke="none" transform="translate(-0.11123528,0.03124873)"><g id="layer1-3" stroke="none" stroke-dasharray="none" stroke-miterlimit="4" stroke-opacity="1" stroke-width="1.3" transform="translate(0.13524268,0.04517549)"><circle id="circle4174" cx="400.571" cy="531.798" r="14" fill="#5ea5fb" fill-opacity="0" stroke="none" stroke-dasharray="none" stroke-dashoffset="0" stroke-miterlimit="4" stroke-opacity="1" stroke-width="1.3" opacity="1"/><circle id="ellipse4233" cx="400.571" cy="531.798" r="0" fill="url(#linearGradient3426)" fill-opacity="1" stroke="none" stroke-dasharray="none" stroke-dashoffset="0" stroke-miterlimit="4" stroke-opacity="1" stroke-width="1.3" opacity="1"/></g></g><g id="layer1-7" transform="translate(-47.590987,3.824298)"><g id="g4471" transform="matrix(1.0931221,0,0,1.0931221,33.310366,-50.486049)"><g id="layer1-5" fill="#e7f0fa" fill-opacity="1" transform="matrix(0.7996534,0,0,0.7996534,370.63944,-303.64638)"><g id="layer1-1" fill="#424448" fill-opacity="1" transform="matrix(1.4281444,0,0,1.4281444,-0.33206276,-449.65458)"><g id="g4207" fill="#424448" fill-opacity="1" transform="matrix(0.03390116,0,0,0.03390116,1.5421219,1037.6656)"><path id="path4169" fill="#4d4d4d" fill-opacity="1" stroke="none" d="m 299.022,161.265 -185.845,0 0,-46.285 c 0,-41.344 33.635,-74.979 74.979,-74.979 33.758,0 63.513,22.716 72.359,55.241 2.898,10.657 13.888,16.946 24.547,14.05 10.659,-2.898 16.949,-13.889 14.05,-24.548 C 285.542,34.848 239.916,0 188.156,0 124.756,0 73.177,51.58 73.177,114.979 l 0,46.715 c -9.061,1.902 -15.888,9.952 -15.888,19.571 l 0,175.047 c 0,11.028 8.972,20 20,20 l 221.733,0 c 11.028,0 20,-8.972 20,-20 l 0,-175.047 c 0,-11.029 -8.972,-20 -20,-20 z m 222.86714,30.64339 c 3e-5,182.69756 -148.10561,330.80319 -330.80317,330.80316 -182.6975518,3e-5 -330.80319,-148.10561 -330.80316,-330.80316 -3e-5,-182.6975518 148.1056082,-330.80319 330.80316,-330.80316 182.69756,-3e-5 330.8032,148.1056043 330.80317,330.80316 z"/></g></g></g></g></g></g></g></svg>