<svg xmlns="http://www.w3.org/2000/svg" xmlns:osb="http://www.openswatchbook.org/uri/2009/osb" xmlns:svg="http://www.w3.org/2000/svg" xmlns:xlink="http://www.w3.org/1999/xlink" id="svg3760" width="22" height="22" version="1.1"><defs id="defs3762"><linearGradient id="linearGradient4232"><stop id="stop4234-0" offset="0" stop-color="#3889e9" stop-opacity="1"/><stop id="stop4236" offset="1" stop-color="#5ea5fb" stop-opacity="1"/></linearGradient><linearGradient id="linearGradient3426" x1="399.571" x2="399.571" y1="545.798" y2="517.798" gradientUnits="userSpaceOnUse" xlink:href="#linearGradient4232"/><linearGradient id="linearGradient4207" osb:paint="gradient"><stop id="stop3371" offset="0" stop-color="#3498db" stop-opacity="1"/><stop id="stop3373" offset="1" stop-color="#3498db" stop-opacity="0"/></linearGradient><linearGradient id="linearGradient4304-0"><stop id="stop4306-4" offset="0" stop-color="#dbdada" stop-opacity="1"/><stop id="stop4308-9" offset="1" stop-color="#fff" stop-opacity="1"/></linearGradient></defs><metadata id="metadata3765"/><g id="layer1" transform="translate(-553.72253,-583.11926)"><g id="layer1-30" transform="matrix(0.56987453,0,0,0.56987453,336.44024,291.03937)"><g id="layer1-39" stroke="none" transform="translate(-0.11123528,0.03124873)"><g id="layer1-3" stroke="none" stroke-dasharray="none" stroke-miterlimit="4" stroke-opacity="1" stroke-width="1.3" transform="translate(0.13524268,0.04517549)"><circle id="circle4174" cx="400.571" cy="531.798" r="14" fill="#5ea5fb" fill-opacity="0" stroke="none" stroke-dasharray="none" stroke-dashoffset="0" stroke-miterlimit="4" stroke-opacity="1" stroke-width="1.3" opacity="1"/><circle id="ellipse4233" cx="400.571" cy="531.798" r="0" fill="url(#linearGradient3426)" fill-opacity="1" stroke="none" stroke-dasharray="none" stroke-dashoffset="0" stroke-miterlimit="4" stroke-opacity="1" stroke-width="1.3" opacity="1"/></g></g><path id="path4206" fill="#4d4d4d" fill-opacity="1" fill-rule="evenodd" stroke="none" stroke-dasharray="none" stroke-dashoffset="0" stroke-linecap="round" stroke-linejoin="round" stroke-miterlimit="4" stroke-opacity="1" stroke-width=".989" d="m 414.57143,531.798 a 13.999996,13.999996 0 0 1 -13.99999,14 13.999996,13.999996 0 0 1 -14.00001,-14 13.999996,13.999996 0 0 1 14.00001,-14 13.999996,13.999996 0 0 1 13.99999,14 z m -6.42621,-3.07344 c -0.59128,-1.18227 -1.42282,-2.17377 -2.49504,-2.97421 -0.3084,-0.235 -0.65725,-0.32681 -1.04652,-0.27543 -0.38928,0.0514 -0.6977,0.235 -0.92539,0.55072 -0.235,0.30839 -0.3249,0.65536 -0.26988,1.04097 0.0548,0.38577 0.23689,0.69592 0.5453,0.93091 0.71946,0.54343 1.27611,1.20812 1.66876,1.99396 0.39292,0.78571 0.58926,1.62306 0.58926,2.51153 0,0.76392 -0.14874,1.49271 -0.44607,2.18676 -0.29746,0.69402 -0.69958,1.29436 -1.20634,1.80113 -0.50677,0.50662 -1.10697,0.90873 -1.801,1.20621 -0.69404,0.29746 -1.42295,0.44632 -2.18675,0.44632 -0.76367,0 -1.49258,-0.14886 -2.18662,-0.44632 -0.69403,-0.29747 -1.29436,-0.69958 -1.80114,-1.20621 -0.50663,-0.50677 -0.90874,-1.10712 -1.2062,-1.80113 -0.29747,-0.69403 -0.4462,-1.42283 -0.4462,-2.18676 0,-0.88847 0.19646,-1.72569 0.58939,-2.51153 0.39292,-0.7857 0.94917,-1.45039 1.6689,-1.99396 0.30841,-0.23512 0.49013,-0.54526 0.5453,-0.93091 0.055,-0.38548 -0.0349,-0.73258 -0.26988,-1.04097 -0.22769,-0.31573 -0.53421,-0.49934 -0.91984,-0.55072 -0.38562,-0.0514 -0.73635,0.0404 -1.05207,0.27543 -1.07235,0.80044 -1.90389,1.79193 -2.49516,2.97421 -0.59128,1.18242 -0.88685,2.44191 -0.88685,3.77845 0,1.14576 0.22405,2.23988 0.67199,3.28277 0.44809,1.04289 1.05019,1.94242 1.80668,2.69894 0.75637,0.75636 1.65606,1.35871 2.69893,1.80641 1.04289,0.44808 2.13714,0.67226 3.28277,0.67226 1.14563,0 2.23989,-0.22418 3.28277,-0.67226 1.04287,-0.44782 1.94256,-1.05005 2.69892,-1.80641 0.75636,-0.75637 1.35846,-1.65606 1.80654,-2.69894 0.44796,-1.04288 0.67187,-2.13713 0.67187,-3.28277 0,-1.33654 -0.29517,-2.59603 -0.88644,-3.77845 l 0,0 z m -7.57387,3.77859 c 0.38183,0 0.71256,-0.1394 0.99136,-0.41861 0.27906,-0.27894 0.41888,-0.60953 0.41888,-0.99135 l 0,-7.0504 c 0,-0.38198 -0.13967,-0.71243 -0.41888,-0.99136 -0.27881,-0.27921 -0.60939,-0.41874 -0.99136,-0.41874 -0.38196,0 -0.71242,0.13966 -0.99149,0.41874 -0.27907,0.27894 -0.4186,0.60952 -0.4186,0.99136 l 0,7.0504 c 0,0.38181 0.13952,0.71242 0.4186,0.99135 0.27907,0.27922 0.60966,0.41861 0.99149,0.41861 l 0,0 z" opacity="1"/></g></g></svg>