<svg xmlns="http://www.w3.org/2000/svg" xmlns:svg="http://www.w3.org/2000/svg" id="svg3869" width="22" height="22" version="1.1"><defs id="defs3871"><linearGradient id="linearGradient3257"><stop id="stop3259" offset="0" stop-color="#a50000" stop-opacity="1"/><stop id="stop3261" offset="1" stop-color="#e73800" stop-opacity="1"/></linearGradient><clipPath id="clipPath4210" clipPathUnits="userSpaceOnUse"><rect id="rect4212" width="34" height="34" x="-7" y="1024.362" fill="#00f" fill-opacity=".514" stroke="none" stroke-opacity="1" opacity="1"/></clipPath><clipPath id="clipPath4210-9" clipPathUnits="userSpaceOnUse"><rect id="rect4212-7" width="34" height="34" x="-7" y="1024.362" fill="#00f" fill-opacity=".514" stroke="none" stroke-opacity="1" opacity="1"/></clipPath><clipPath id="clipPath4160" clipPathUnits="userSpaceOnUse"><rect id="rect4162" width="32" height="32" x="-6" y="1028.362" fill="#aade87" fill-opacity=".472" stroke="none" stroke-opacity="1" opacity="1"/></clipPath><clipPath id="clipPath4210-7" clipPathUnits="userSpaceOnUse"><rect id="rect4212-1" width="34" height="34" x="-7" y="1024.362" fill="#00f" fill-opacity=".514" stroke="none" stroke-opacity="1" opacity="1"/></clipPath></defs><metadata id="metadata3874"/><g id="layer1" transform="translate(-326,-534.3622)"><g id="layer1-9" transform="translate(-20.310861,-0.1134282)"><g id="g4186" transform="matrix(1.1850354,0,0,1.1850354,-38.400076,-99.429647)"><g id="g4236" transform="matrix(1.0506226,0,0,1.0506226,-17.322583,-25.998937)"><g id="g4197" transform="translate(16.033276,-7.847982)"><g id="text4190" fill="#4d4d4d" fill-opacity="1" stroke="none" stroke-linecap="butt" stroke-linejoin="miter" stroke-opacity="1" stroke-width="1" font-family="sans-serif" font-size="11.603" font-style="normal" font-weight="normal" letter-spacing="0" transform="matrix(0.71102071,0,0,0.71102071,93.176238,159.51856)" word-spacing="0" style="line-height:125%"><path id="path4195" fill="#4d4d4d" fill-opacity="1" d="m 321.25702,549.27075 0,-8.30777 3.00518,0 q 0.97466,0 1.68244,0.64977 0.71939,0.63817 0.71939,1.61282 0,0.59176 -0.31328,1.04428 -0.30168,0.45251 -0.81221,0.68458 l 0,0.0464 q 0.61496,0.20885 1.00946,0.71939 0.3945,0.51053 0.3945,1.1835 0,1.02107 -0.75419,1.69405 -0.7426,0.67297 -1.76366,0.67297 l -3.16763,0 z m 1.06748,-4.74564 1.9377,0 q 0.60336,0 0.96305,-0.3945 0.3713,-0.40611 0.3713,-0.88183 0,-0.47572 -0.35969,-0.87023 -0.34809,-0.3945 -0.92824,-0.3945 l -1.98412,0 0,2.54106 z m 0,3.72458 2.14656,0 q 0.61496,0 0.99786,-0.42932 0.3829,-0.42931 0.3829,-0.93984 0,-0.51054 -0.3945,-0.92824 -0.39451,-0.42932 -1.03267,-0.42932 l -2.10015,0 0,2.72672 z" font-family="Product Sans" font-stretch="normal" font-style="normal" font-variant="normal" font-weight="normal" style="-inkscape-font-specification:'Product Sans'"/></g></g><g id="text4229" fill="#4d4d4d" fill-opacity="1" stroke="none" stroke-linecap="butt" stroke-linejoin="miter" stroke-opacity="1" stroke-width="1" font-family="sans-serif" font-size="11.603" font-style="normal" font-weight="normal" letter-spacing="0" transform="matrix(1.5236158,0,0,1.5236158,-142.15492,-280.00566)" word-spacing="0" style="line-height:125%"><path style="-inkscape-font-specification:'Product Sans'" id="path4234" fill="#4d4d4d" fill-opacity="1" d="m 307.90297,544.20758 3.13282,-8.30777 1.20671,0 3.13282,8.30777 -1.18351,0 -0.80061,-2.25099 -3.49251,0 -0.81221,2.25099 -1.18351,0 z m 2.35541,-3.24885 2.76153,0 -1.35756,-3.74778 -0.0464,0 -1.35756,3.74778 z" font-family="Product Sans" font-stretch="normal" font-style="normal" font-variant="normal" font-weight="normal"/></g></g></g></g></g></svg>