<svg xmlns="http://www.w3.org/2000/svg" xmlns:svg="http://www.w3.org/2000/svg" id="svg4355" width="22" height="22" version="1.1"><defs id="defs4357"><clipPath id="clipPath4160" clipPathUnits="userSpaceOnUse"><rect id="rect4162" width="1" height="1" x="7" y="1023.362" fill="#f2f2f2" fill-opacity="1" stroke="none" stroke-opacity="1" opacity="1"/></clipPath></defs><metadata id="metadata4360"/><g id="layer1" transform="translate(-544.57141,-742.93359)"><path id="rect4234-0" fill="#4d4d4d" fill-opacity="1" stroke="none" stroke-linecap="round" d="m 546.57141,744.93359 0,1.125 0,2.25 0,1.125 0,2.25 0,1.125 0,2.25 0,1.125 0,2.25 0,1.125 0,2.25 0,1.125 16.875,0 1.125,0 0,-1.125 0,-2.25 0,-1.125 0,-2.25 0,-1.125 0,-2.25 0,-1.125 0,-2.25 0,-1.125 0,-2.25 0,-1.125 -1.125,0 -16.875,0 z m 1.125,1.125 15.75,0 0,2.25 -15.75,0 0,-2.25 z m 0,3.375 15.75,0 0,2.25 -15.75,0 0,-2.25 z m 0,3.375 15.75,0 0,2.25 -15.75,0 0,-2.25 z m 0,3.375 15.75,0 0,2.25 -15.75,0 0,-2.25 z m 0,3.375 15.75,0 0,2.25 -15.75,0 0,-2.25 z" opacity="1"/></g></svg>