<svg xmlns="http://www.w3.org/2000/svg" xmlns:svg="http://www.w3.org/2000/svg" id="svg2" width="22" height="22" version="1.1" viewBox="0 0 22 22"><metadata id="metadata7"/><g id="layer1" transform="translate(1,-1031.3622)"><g id="layer1-9" transform="translate(-1,1.738e-5)"><g id="g4150" transform="matrix(1.125,0,0,1.125,-2.5,-129.17029)"><g id="layer1-8" transform="translate(1,-1)"><path id="path4172" fill="#1d99f3" fill-opacity="1" stroke="none" d="m 16,1034.3622 -3,4 2,0 0,1 0,5 0,2 0,0 -2,0 3,4 3,-4 -2,0 0,-3 0,-1 0,-3 0,-1 2,0 z" opacity="1"/><g id="layer1-9-3" transform="matrix(-1,0,0,1,22,0)"><g id="layer1-2" transform="matrix(-1,0,0,1,22,0)"><path id="path4174" fill="#4d4d4d" fill-opacity="1" stroke="none" d="m 3,1034.3622 0,1 9,0 0,-1 z m 0,2 0,1 8,0 0,-1 z m 0,3 0,1 9,0 0,-1 z m 0,2 0,1 4,0 0,-1 z m 0,3 0,1 9,0 0,-1 z m 0,2 0,1 6,0 0,-1 z m 7,1 0,1 2,0 0,-1 z" opacity="1"/></g></g></g></g></g></g></svg>