<svg xmlns="http://www.w3.org/2000/svg" xmlns:svg="http://www.w3.org/2000/svg" id="svg3869" width="22" height="22" version="1.1"><defs id="defs3871"><linearGradient id="linearGradient4290-48"><stop id="stop4292-0" offset="0" stop-color="#a5a5a5" stop-opacity="1"/><stop id="stop4294-0" offset="1" stop-color="#f5f2f5" stop-opacity="1"/></linearGradient><clipPath id="clipPath16" clipPathUnits="userSpaceOnUse"><path id="path18" d="m 0,706.465 1490.926,0 L 1490.926,0 0,0 0,706.465 Z"/></clipPath><clipPath id="clipPath24" clipPathUnits="userSpaceOnUse"><path id="path26" d="m 22.1953,686.117 1447.7347,0 0,-667.1902 -1447.7347,0 0,667.1902 z"/></clipPath></defs><metadata id="metadata3874"/><g id="layer1" transform="translate(-326,-534.3622)"><g id="layer1-7" transform="matrix(1.125,0,0,1.125,324.625,-626.17027)"><path id="path4185" fill="#4d4d4d" fill-opacity="1" stroke="none" stroke-dasharray="none" stroke-miterlimit="4" stroke-opacity=".55" stroke-width="2.8" d="m 3,3 0,1 0,15 1,0 6,0 0,-1 L 10,4 10,3 4,3 3,3 Z M 4,4 9,4 9,18 4,18 4,4 Z M 5,5 5,6 8,6 8,5 5,5 Z M 5,7 5,8 8,8 8,7 5,7 Z m 0,2 0,1 3,0 0,-1 -3,0 z m 0,2 0,1 2,0 0,-1 -2,0 z" opacity="1" transform="translate(0,1030.3622)"/><path id="path4183" fill="#da4453" fill-opacity="1" stroke="none" stroke-dasharray="none" stroke-miterlimit="4" stroke-opacity=".55" stroke-width="2.8" d="m 13,3 0,1 5,0 0,14 -5,0 0,1 6,0 0,-1 0,-15 -6,0 z m 0,15 0,-14 -1,0 0,14 1,0 z" opacity="1" transform="translate(0,1030.3622)"/></g></g></svg>