<svg xmlns="http://www.w3.org/2000/svg" xmlns:svg="http://www.w3.org/2000/svg" id="svg2" width="22" height="22" version="1.1" viewBox="0 0 22 22"><metadata id="metadata7"/><g id="layer1" transform="translate(1,-1031.3622)"><g id="g4151" transform="matrix(0.99999891,0,0,0.99999891,-0.99998601,1.0011438)"><path id="rect4149" fill="#4d4d4d" fill-opacity="1" fill-rule="evenodd" stroke="none" stroke-linecap="butt" stroke-linejoin="miter" stroke-opacity="1" stroke-width="1" d="m 15.499996,1034.3622 a 1.5,1.5 0 0 0 -1.5,1.5 l 0,1.5 -1,0 0,2 -1,0 0,10 7,0 0,-10 -1,0 0,-2 -1,0 0,-1.5 a 1.5,1.5 0 0 0 -1.5,-1.5 z"/><circle id="path4160" cx="8" cy="1034.362" r="1" fill="#4d4d4d" fill-opacity="1" stroke="none"/><circle id="path4162" cx="8" cy="1037.362" r="1" fill="#4d4d4d" fill-opacity="1" stroke="none"/><circle id="path4164" cx="12" cy="1035.362" r="1" fill="#4d4d4d" fill-opacity="1" stroke="none"/><ellipse id="path4166" cx="4" cy="1034.362" fill="#4d4d4d" fill-opacity="1" stroke="none" rx="1" ry="1"/><ellipse id="path4168" cx="4" cy="1037.362" fill="#4d4d4d" fill-opacity="1" stroke="none" rx="1" ry="1"/><ellipse id="path4170" cx="4" cy="1040.362" fill="#4d4d4d" fill-opacity="1" stroke="none" rx="1" ry="1"/></g></g></svg>