<svg xmlns="http://www.w3.org/2000/svg" xmlns:svg="http://www.w3.org/2000/svg" id="svg3869" width="22" height="22" version="1.1"><defs id="defs3871"><linearGradient id="linearGradient4290-48"><stop id="stop4292-0" offset="0" stop-color="#a5a5a5" stop-opacity="1"/><stop id="stop4294-0" offset="1" stop-color="#f5f2f5" stop-opacity="1"/></linearGradient></defs><metadata id="metadata3874"/><g id="layer1" transform="translate(-326,-534.3622)"><g id="g4154" transform="matrix(1.0446315,0,0,1.0446315,-16.085446,-23.295722)"><g id="layer1-4" transform="translate(326.987,-496.88218)"><path id="path4143" fill="#4d4d4d" fill-opacity="1" fill-rule="evenodd" stroke="none" stroke-dasharray="none" stroke-dashoffset="0" stroke-linecap="round" stroke-linejoin="miter" stroke-miterlimit="4" stroke-opacity="1" stroke-width=".685" d="M 11,3.3417969 A 7.6575441,7.6575437 0 0 0 3.3417969,11 7.6575441,7.6575437 0 0 0 11,18.658203 7.6575441,7.6575437 0 0 0 18.658203,11 7.6575441,7.6575437 0 0 0 11,3.3417969 Z M 8.3359375,7.1113281 c 0.645494,0 1.1699219,0.5241219 1.1699219,1.1699219 0,0.6461 -0.5244279,1.1699219 -1.1699219,1.1699219 -0.645682,0 -1.1699219,-0.5238219 -1.1699219,-1.1699219 0,-0.6457 0.5242399,-1.1699219 1.1699219,-1.1699219 z m 5.3027345,0 c 0.645493,0 1.167969,0.5241219 1.167969,1.1699219 0,0.6461 -0.522287,1.1699219 -1.167969,1.1699219 -0.645682,0 -1.169922,-0.5238219 -1.169922,-1.1699219 0,-0.6457 0.52424,-1.1699219 1.169922,-1.1699219 z m -2.640625,4.4570309 c 1.901593,0 3.599524,1.083966 4.324219,2.759766 0.124082,0.2867 -0.0083,0.617888 -0.294922,0.742187 -0.286634,0.124201 -0.620058,-0.0081 -0.744141,-0.294921 -0.54536,-1.2615 -1.835012,-2.076172 -3.285156,-2.076172 -1.4837124,0 -2.7810136,0.815372 -3.3046876,2.076172 -0.090328,0.2178 -0.2997194,0.347656 -0.5214844,0.347656 -0.072413,0 -0.1458969,-0.01397 -0.2167969,-0.04297 -0.288712,-0.1199 -0.4265746,-0.449981 -0.3066406,-0.738281 0.699615,-1.6844 2.4070941,-2.773438 4.3496095,-2.773438 z" opacity="1" transform="translate(0.01299953,1030.2444)"/></g></g></g></svg>