<svg xmlns="http://www.w3.org/2000/svg" xmlns:svg="http://www.w3.org/2000/svg" id="svg3869" width="22" height="22" version="1.1"><defs id="defs3871"><linearGradient id="linearGradient4290-48"><stop id="stop4292-0" offset="0" stop-color="#a5a5a5" stop-opacity="1"/><stop id="stop4294-0" offset="1" stop-color="#f5f2f5" stop-opacity="1"/></linearGradient></defs><metadata id="metadata3874"/><g id="layer1" transform="translate(-326,-534.3622)"><g id="g4153" transform="translate(-1,1)"><g id="layer1-1" transform="translate(327,-497)"><g id="layer1-0"><path id="rect4119" fill="#4d4d4d" fill-opacity="1" stroke="none" d="M 11 3 C 6.568 3 3 6.568 3 11 C 3 15.432 6.568 19 11 19 C 15.432 19 19 15.432 19 11 C 19 6.568 15.432 3 11 3 z M 15.800781 9 A 2 2 0 0 1 17.800781 11 A 2 2 0 0 1 15.800781 13 A 2 2 0 0 1 13.800781 11 A 2 2 0 0 1 15.800781 9 z M 11 10 C 11.553999 10 12 10.446001 12 11 C 12 11.553999 11.553999 12 11 12 C 10.446001 12 10 11.553999 10 11 C 10 10.446001 10.446001 10 11 10 z" opacity="1" transform="translate(0,1030.3622)"/></g></g></g></g></svg>