<svg xmlns="http://www.w3.org/2000/svg" xmlns:svg="http://www.w3.org/2000/svg" id="svg3869" width="20" height="22" version="1.1"><defs id="defs3871"><linearGradient id="linearGradient4290-48"><stop id="stop4292-0" offset="0" stop-color="#a5a5a5" stop-opacity="1"/><stop id="stop4294-0" offset="1" stop-color="#f5f2f5" stop-opacity="1"/></linearGradient></defs><metadata id="metadata3874"/><g id="layer1" transform="translate(-326,-534.3622)"><g id="layer1-7" transform="translate(-228.72253,-48.75706)"><path id="rect4152" fill="#4d4d4d" fill-opacity="1" stroke="none" stroke-dasharray="none" stroke-miterlimit="4" stroke-opacity="1" stroke-width=".1" d="m 572.72253,602.11926 -1,-0.0996 -9,-0.90039 0,-1 0,-9 0,-1 1,0.0996 9,0.90039 0,1 0,9 0,1 z m -1,-1.09961 0,-9 -8,-0.80078 0,9 8,0.80078 z m -15,-1.90039 0,-1 0,-11 0,-1 9,0 1,0 0,1 0,2 -1,0 0,-2 -8,0 0,11 4,0 0,1 -5,0 z" opacity="1"/></g></g></svg>