<svg xmlns="http://www.w3.org/2000/svg" xmlns:svg="http://www.w3.org/2000/svg" id="svg3869" width="22" height="22" version="1.1"><defs id="defs3871"><linearGradient id="linearGradient4290-48"><stop id="stop4292-0" offset="0" stop-color="#a5a5a5" stop-opacity="1"/><stop id="stop4294-0" offset="1" stop-color="#f5f2f5" stop-opacity="1"/></linearGradient></defs><metadata id="metadata3874"/><g id="layer1" transform="translate(-326,-534.3622)"><g id="layer1-5" transform="translate(-227.72253,-48.75706)"><path id="rect4150" fill="#4d4d4d" fill-opacity="1" stroke="none" stroke-dasharray="none" stroke-miterlimit="4" stroke-opacity="1" stroke-width=".1" d="M 3,3 3,5 3,6 6,6 6,5 6,3 4,3 3,3 Z m 13,0 0,1 0,1 0,1 1,0 1,0 1,0 0,-1 0,-1 0,-1 -3,0 z M 4,4 5,4 5,5 4,5 4,4 Z m 13,0 1,0 0,1 -1,0 0,-1 z M 7,5 7,6 9,6 9,5 7,5 Z m 3,0 0,1 2,0 0,-1 -2,0 z m 3,0 0,1 2,0 0,-1 -2,0 z M 5,7 5,9 6,9 6,7 5,7 Z m 11,0 0,2 1,0 0,-2 -1,0 z m -11,3 0,2 1,0 0,-2 -1,0 z m 11,0 0,2 1,0 0,-2 -1,0 z m -11,3 0,2 1,0 0,-2 -1,0 z m 9,0 0,1 2,0 0,5 1,0 0,-5 2,0 0,-1 -5,0 z m -11,3 0,1 0,2 1,0 1,0 1,0 0,-3 -3,0 z m 4,0 0,1 2,0 0,-1 -2,0 z m 3,0 0,1 2,0 0,-1 -2,0 z m -6,1 1,0 0,1 -1,0 0,-1 z" opacity="1" transform="translate(553.72253,583.11926)"/></g></g></svg>