<svg xmlns="http://www.w3.org/2000/svg" xmlns:svg="http://www.w3.org/2000/svg" id="svg3869" width="22" height="22" version="1.1"><defs id="defs3871"><linearGradient id="linearGradient4290-48"><stop id="stop4292-0" offset="0" stop-color="#a5a5a5" stop-opacity="1"/><stop id="stop4294-0" offset="1" stop-color="#f5f2f5" stop-opacity="1"/></linearGradient></defs><metadata id="metadata3874"/><g id="layer1" transform="translate(-326,-534.3622)"><g id="layer1-3" transform="translate(-227.72253,-48.75706)"><path id="rect4152" fill="#4d4d4d" fill-opacity="1" stroke="none" stroke-dasharray="none" stroke-miterlimit="4" stroke-opacity="1" stroke-width=".1" d="M 19,3 18,3.0996094 9,4 9,5 9,14 9,15 10,14.900391 19,14 19,13 19,4 19,3 Z m -1,1.0996094 0,8.9999996 -8,0.800782 0,-9.0000004 8,-0.8007812 z M 3,6 l 0,1 0,11 0,1 9,0 1,0 0,-1 0,-2 -1,0 0,2 L 4,18 4,7 8,7 8,6 3,6 Z" opacity="1" transform="translate(553.72253,583.11926)"/></g></g></svg>