<svg xmlns="http://www.w3.org/2000/svg" xmlns:svg="http://www.w3.org/2000/svg" xmlns:xlink="http://www.w3.org/1999/xlink" id="svg3869" width="22" height="22" version="1.1"><defs id="defs3871"><linearGradient id="linearGradient4602"><stop id="stop4604" offset="0" stop-color="#d0d2d2" stop-opacity="1"/><stop id="stop4606" offset="1" stop-color="#f9fafb" stop-opacity="1"/></linearGradient><linearGradient id="linearGradient4493" x1="433.005" x2="432.423" y1="545.042" y2="529.933" gradientUnits="userSpaceOnUse" xlink:href="#linearGradient4602"/><linearGradient id="linearGradient4495" x1="433.005" x2="432.423" y1="545.042" y2="529.933" gradientUnits="userSpaceOnUse" xlink:href="#linearGradient4602"/><linearGradient id="linearGradient4497" x1="433.005" x2="432.423" y1="545.042" y2="529.933" gradientUnits="userSpaceOnUse" xlink:href="#linearGradient4602"/><linearGradient id="linearGradient4499" x1="433.005" x2="432.423" y1="545.042" y2="529.933" gradientUnits="userSpaceOnUse" xlink:href="#linearGradient4602"/><linearGradient id="linearGradient4501" x1="433.005" x2="432.423" y1="545.042" y2="529.933" gradientUnits="userSpaceOnUse" xlink:href="#linearGradient4602"/><linearGradient id="linearGradient4503" x1="433.005" x2="432.423" y1="545.042" y2="529.933" gradientUnits="userSpaceOnUse" xlink:href="#linearGradient4602"/><linearGradient id="linearGradient4505" x1="433.005" x2="432.423" y1="545.042" y2="529.933" gradientUnits="userSpaceOnUse" xlink:href="#linearGradient4602"/><linearGradient id="linearGradient4507" x1="433.005" x2="432.423" y1="545.042" y2="529.933" gradientUnits="userSpaceOnUse" xlink:href="#linearGradient4602"/><linearGradient id="linearGradient4509" x1="433.005" x2="432.423" y1="545.042" y2="529.933" gradientUnits="userSpaceOnUse" xlink:href="#linearGradient4602"/><linearGradient id="linearGradient4511" x1="433.005" x2="432.423" y1="545.042" y2="529.933" gradientUnits="userSpaceOnUse" xlink:href="#linearGradient4602"/><linearGradient id="linearGradient4513" x1="433.005" x2="432.423" y1="545.042" y2="529.933" gradientUnits="userSpaceOnUse" xlink:href="#linearGradient4602"/><linearGradient id="linearGradient4515" x1="433.005" x2="432.423" y1="545.042" y2="529.933" gradientUnits="userSpaceOnUse" xlink:href="#linearGradient4602"/><linearGradient id="linearGradient4517" x1="433.005" x2="432.423" y1="545.042" y2="529.933" gradientUnits="userSpaceOnUse" xlink:href="#linearGradient4602"/><linearGradient id="linearGradient4519" x1="433.005" x2="432.423" y1="545.042" y2="529.933" gradientUnits="userSpaceOnUse" xlink:href="#linearGradient4602"/><linearGradient id="linearGradient4521" x1="433.005" x2="432.423" y1="545.042" y2="529.933" gradientUnits="userSpaceOnUse" xlink:href="#linearGradient4602"/><linearGradient id="linearGradient4523" x1="433.005" x2="432.423" y1="545.042" y2="529.933" gradientUnits="userSpaceOnUse" xlink:href="#linearGradient4602"/><linearGradient id="linearGradient4525" x1="433.005" x2="432.423" y1="545.042" y2="529.933" gradientUnits="userSpaceOnUse" xlink:href="#linearGradient4602"/><linearGradient id="linearGradient4527" x1="433.005" x2="432.423" y1="545.042" y2="529.933" gradientUnits="userSpaceOnUse" xlink:href="#linearGradient4602"/><linearGradient id="linearGradient4529" x1="433.005" x2="432.423" y1="545.042" y2="529.933" gradientUnits="userSpaceOnUse" xlink:href="#linearGradient4602"/><linearGradient id="linearGradient4531" x1="433.005" x2="432.423" y1="545.042" y2="529.933" gradientUnits="userSpaceOnUse" xlink:href="#linearGradient4602"/><linearGradient id="linearGradient4066"><stop id="stop4068" offset="0" stop-color="#dbc9ee" stop-opacity="1"/><stop id="stop4070" offset="1" stop-color="#faf7fd" stop-opacity="1"/></linearGradient><linearGradient id="linearGradient3843-5"><stop id="stop3845-0" offset="0" stop-color="#5a2c8b" stop-opacity="1"/><stop id="stop3847-4" offset="1" stop-color="#9d59cf" stop-opacity="1"/></linearGradient><clipPath id="clipPath4160" clipPathUnits="userSpaceOnUse"><rect id="rect4162" width="1" height="1" x="7" y="1023.362" fill="#f2f2f2" fill-opacity="1" stroke="none" stroke-opacity="1" opacity="1"/></clipPath><linearGradient id="linearGradient4290-48"><stop id="stop4292-0" offset="0" stop-color="#a5a5a5" stop-opacity="1"/><stop id="stop4294-0" offset="1" stop-color="#f5f2f5" stop-opacity="1"/></linearGradient></defs><metadata id="metadata3874"/><g id="layer1" transform="translate(-326,-534.3622)"><g id="layer1-2" transform="matrix(0.66666666,0,0,0.66666666,70.952384,189.8302)"><g id="layer1-982" transform="translate(-65.373855,-0.48280426)"><g id="layer1-7" transform="matrix(0.57039525,0,0,0.57039525,267.29089,228.30404)"><g id="g4878" transform="matrix(0.28880751,0,0,0.28880751,261.18349,424.4134)"><g id="g4433" transform="matrix(1.0519029,0,0,1.0519029,-14.616469,-19.639268)"><g id="g4259" transform="translate(-8.656283,8.6563165)"><rect id="rect4233-5-5" width="108.237" height="44.11" x="246.871" y="306.598" fill="#4d4d4d" fill-opacity="1" stroke="none" stroke-dasharray="none" stroke-linecap="round" stroke-linejoin="round" stroke-miterlimit="4" stroke-opacity="1" stroke-width=".5" opacity="1" ry="5.156"/><g id="g4878-3-8" fill="#898a8a" fill-opacity="1" transform="matrix(0.59323819,0,0,0.59323819,120.73889,102.62232)"><rect id="rect4648-8-2-2" width="67.64" height="9.486" x="298.134" y="360.98" fill="#898a8a" fill-opacity="1" stroke="none" stroke-dasharray="none" stroke-linecap="round" stroke-linejoin="round" stroke-miterlimit="4" stroke-opacity="1" stroke-width=".5" opacity=".875" ry="4.743" transform="translate(1.04856,6.95709)"/><rect id="rect4648-8-7-6-3" width="27.027" height="9.486" x="297.934" y="373.947" fill="#898a8a" fill-opacity="1" stroke="none" stroke-dasharray="none" stroke-linecap="round" stroke-linejoin="round" stroke-miterlimit="4" stroke-opacity="1" stroke-width=".5" opacity=".875" ry="4.743" transform="translate(1.04856,6.95709)"/><rect id="rect4648-8-7-0-0-4" width="27.027" height="9.486" x="298.171" y="387.447" fill="#898a8a" fill-opacity="1" stroke="none" stroke-dasharray="none" stroke-linecap="round" stroke-linejoin="round" stroke-miterlimit="4" stroke-opacity="1" stroke-width=".5" opacity=".875" ry="4.743" transform="translate(1.04856,6.95709)"/><g id="layer1-01-4-3" fill="#898a8a" fill-opacity="1" opacity=".837" transform="matrix(2.2021861,0,0,2.2021861,-201.56158,-776.38984)"><g id="layer1-15-6-6" fill="#898a8a" fill-opacity="1" transform="matrix(1.2025087,0,0,1.2025087,240.38649,-722.34283)"><g id="layer1-00-9-1" fill="#898a8a" fill-opacity="1" transform="translate(-401.01229,510.63371)"><g id="g4187-5-0" fill="#898a8a" fill-opacity="1" stroke="none" stroke-opacity="1" transform="matrix(0.7863692,0,0,0.78394543,93.325829,112.65489)"><g id="layer1-0-9-7-9" fill="#898a8a" fill-opacity="1" stroke="none" stroke-opacity="1" transform="matrix(0.66776072,0,0,0.66982528,94.696491,188.79573)"><g id="layer1-1-2-8-1" fill="#898a8a" fill-opacity="1" stroke="none" stroke-opacity="1" transform="translate(547.69352,-328.64093)"><g id="g4265-5-9" fill="#898a8a" fill-opacity="1" stroke="none" stroke-opacity="1" transform="matrix(0.12613922,0,0,0.12613922,-162.53176,751.54587)"><g id="g5246-7-4-8" fill="#898a8a" fill-opacity="1" stroke="none" stroke-opacity="1" transform="translate(673.22783,402.74069)"><path id="Bookmarks-1-6" fill="#898a8a" fill-opacity="1" stroke="none" stroke-opacity="1" d="m 0.67360886,341.77577 -56.20167986,-8.23881 -25.19081,-51.35568 c -1.41682,-3.0852 -3.24728,-4.62713 -5.48595,-4.62713 -2.23856,0 -4.06767,1.54193 -5.48586,4.62713 l -25.192339,51.35568 -56.20429,8.23881 c -4.17904,0.67745 -6.26921,2.40778 -6.26921,5.19238 0,1.5807 0.93311,3.38721 2.79934,5.41818 l 40.75392,39.95548 -9.62777,56.43442 c -0.14986,1.05428 -0.22402,1.80793 -0.22402,2.25817 0,1.5807 0.39163,2.9148 1.17496,4.00786 0.78327,1.09167 1.95823,1.63613 3.52628,1.63613 1.34394,0 2.83638,-0.44885 4.47859,-1.35348 l 50.269049,-26.63929 50.27322,26.63929 c 1.56931,0.90324 3.06175,1.35348 4.47722,1.35348 1.49652,0 2.63301,-0.54306 3.41626,-1.63613 0.78198,-1.09167 1.17362,-2.42716 1.17362,-4.00786 0,-0.97808 -0.0373,-1.73032 -0.11264,-2.25817 l -9.62923,-56.43442 40.6412699,-39.95548 c 1.94319,-1.95615 2.91199,-3.76266 2.91199,-5.41818 0,-2.7846 -2.0888,-4.51493 -6.27192004,-5.19238 z"/></g></g></g></g></g></g></g></g></g><rect id="rect4233-5" width="135.237" height="35.2" x="233.271" y="315.798" fill="#4d4d4d" fill-opacity="1" stroke="none" stroke-dasharray="none" stroke-linecap="round" stroke-linejoin="round" stroke-miterlimit="4" stroke-opacity="1" stroke-width=".5" opacity="1" ry="5.712"/><path id="rect4233" fill="#4d4d4d" fill-opacity="1" stroke="none" stroke-dasharray="none" stroke-linecap="round" stroke-linejoin="round" stroke-miterlimit="4" stroke-opacity="1" stroke-width=".5" d="M 2.6816406 5.3691406 C 2.2336421 5.3691406 1.8730469 5.7297359 1.8730469 6.1777344 L 1.8730469 18.191406 C 1.8730469 18.639405 2.2336421 19 2.6816406 19 L 19.318359 19 C 19.766358 19 20.126953 18.639405 20.126953 18.191406 L 20.126953 6.1777344 C 20.126953 5.7297359 19.766358 5.3691406 19.318359 5.3691406 L 2.6816406 5.3691406 z M 11 8.5 C 13.216 8.5 15 10.284 15 12.5 C 15 14.716 13.216 16.5 11 16.5 C 8.784 16.5 7 14.716 7 12.5 C 7 10.284 8.784 8.5 11 8.5 z" opacity="1" transform="matrix(8.6562787,0,0,8.6562787,205.35236,280.6287)"/><g id="layer1-47" fill="#fff" fill-opacity="1" transform="matrix(4.3281393,0,0,4.3281393,-1162.3397,-1967.2432)"><g id="layer1-4" fill="#fff" fill-opacity="1" transform="translate(327,-497)"><path id="path3357" fill="#4d4d4d" fill-opacity="1" stroke="none" d="m 9,1044.3622 4,-3 -4,-3 z"/></g></g></g></g></g></g></g></g></g></svg>