<svg xmlns="http://www.w3.org/2000/svg" xmlns:svg="http://www.w3.org/2000/svg" id="svg3869" width="22" height="22" version="1.1"><defs id="defs3871"><linearGradient id="linearGradient3257"><stop id="stop3259" offset="0" stop-color="#a50000" stop-opacity="1"/><stop id="stop3261" offset="1" stop-color="#e73800" stop-opacity="1"/></linearGradient><clipPath id="clipPath4210" clipPathUnits="userSpaceOnUse"><rect id="rect4212" width="34" height="34" x="-7" y="1024.362" fill="#00f" fill-opacity=".514" stroke="none" stroke-opacity="1" opacity="1"/></clipPath><clipPath id="clipPath4160" clipPathUnits="userSpaceOnUse"><rect id="rect4162" width="32" height="32" x="-6" y="1028.362" fill="#aade87" fill-opacity=".472" stroke="none" stroke-opacity="1" opacity="1"/></clipPath><clipPath id="clipPath4160-4" clipPathUnits="userSpaceOnUse"><rect id="rect4162-5" width="1" height="1" x="7" y="1023.362" fill="#f2f2f2" fill-opacity="1" stroke="none" stroke-opacity="1" opacity="1"/></clipPath><clipPath id="clipPath16" clipPathUnits="userSpaceOnUse"><path id="path18" d="m 0,706.465 1490.926,0 L 1490.926,0 0,0 0,706.465 Z"/></clipPath><clipPath id="clipPath24" clipPathUnits="userSpaceOnUse"><path id="path26" d="m 22.1953,686.117 1447.7347,0 0,-667.1902 -1447.7347,0 0,667.1902 z"/></clipPath><clipPath id="clipPath4160-3" clipPathUnits="userSpaceOnUse"><rect id="rect4162-58" width="1" height="1" x="7" y="1023.362" fill="#f2f2f2" fill-opacity="1" stroke="none" stroke-opacity="1" opacity="1"/></clipPath><clipPath id="clipPath4160-2" clipPathUnits="userSpaceOnUse"><rect id="rect4162-4" width="1" height="1" x="7" y="1023.362" fill="#f2f2f2" fill-opacity="1" stroke="none" stroke-opacity="1" opacity="1"/></clipPath></defs><metadata id="metadata3874"/><g id="layer1" transform="translate(-326,-534.3622)"><g id="layer1-6" transform="translate(-226.72253,-49.757051)"><g id="layer1-1" transform="matrix(0.88888885,0,0,0.88888885,555.71607,-332.31381)"><g id="g4242" transform="matrix(1.1242131,0,0,1.1242131,-3.3854928,-127.37945)"><rect id="rect3030" width="7" height="1" x="7" y="1046.362" fill="#4d4d4d" fill-opacity="1" fill-rule="nonzero" stroke="none" stroke-width="2" color="#000" display="inline" enable-background="accumulate" overflow="visible" ry=".5" visibility="visible" style="marker:none"/><rect id="rect3034" width="1" height="1" x="14" y="1048.362" fill="#4d4d4d" fill-opacity="1" fill-rule="nonzero" stroke="none" stroke-width="2" color="#000" display="inline" enable-background="accumulate" overflow="visible" ry=".5" visibility="visible" style="marker:none"/><rect id="rect3036" width="1" height="1" x="12" y="1048.362" fill="#4d4d4d" fill-opacity="1" fill-rule="nonzero" stroke="none" stroke-width="2" color="#000" display="inline" enable-background="accumulate" overflow="visible" ry=".5" visibility="visible" style="marker:none"/><rect id="rect3038" width="1" height="1" x="10" y="1048.362" fill="#4d4d4d" fill-opacity="1" fill-rule="nonzero" stroke="none" stroke-width="2" color="#000" display="inline" enable-background="accumulate" overflow="visible" ry=".5" visibility="visible" style="marker:none"/><rect id="rect3040" width="8" height="1" x="7" y="1040.362" fill="#4d4d4d" fill-opacity="1" fill-rule="nonzero" stroke="none" stroke-width="2" color="#000" display="inline" enable-background="accumulate" overflow="visible" ry=".5" visibility="visible" style="marker:none"/><rect id="rect3042" width="10" height="1" x="7" y="1034.362" fill="#4d4d4d" fill-opacity="1" fill-rule="nonzero" stroke="none" stroke-width="2" color="#000" display="inline" enable-background="accumulate" overflow="visible" ry=".5" visibility="visible" style="marker:none"/><rect id="rect3044" width="1" height="1" x="18" y="1036.362" fill="#4d4d4d" fill-opacity="1" fill-rule="nonzero" stroke="none" stroke-width="2" color="#000" display="inline" enable-background="accumulate" overflow="visible" ry=".5" visibility="visible" style="marker:none"/><rect id="rect3046" width="1" height="1" x="16" y="1036.362" fill="#4d4d4d" fill-opacity="1" fill-rule="nonzero" stroke="none" stroke-width="2" color="#000" display="inline" enable-background="accumulate" overflow="visible" ry=".5" visibility="visible" style="marker:none"/><rect id="rect3048" width="1" height="1" x="14" y="1036.362" fill="#4d4d4d" fill-opacity="1" fill-rule="nonzero" stroke="none" stroke-width="2" color="#000" display="inline" enable-background="accumulate" overflow="visible" ry=".5" visibility="visible" style="marker:none"/><rect id="rect3050" width="1" height="1" x="16" y="1042.362" fill="#4d4d4d" fill-opacity="1" fill-rule="nonzero" stroke="none" stroke-width="2" color="#000" display="inline" enable-background="accumulate" overflow="visible" ry=".5" visibility="visible" style="marker:none"/><rect id="rect3052" width="1" height="1" x="14" y="1042.362" fill="#4d4d4d" fill-opacity="1" fill-rule="nonzero" stroke="none" stroke-width="2" color="#000" display="inline" enable-background="accumulate" overflow="visible" ry=".5" visibility="visible" style="marker:none"/><rect id="rect3054" width="1" height="1" x="12" y="1042.362" fill="#4d4d4d" fill-opacity="1" fill-rule="nonzero" stroke="none" stroke-width="2" color="#000" display="inline" enable-background="accumulate" overflow="visible" ry=".5" visibility="visible" style="marker:none"/><rect id="rect3056" width="6" height="1" x="7" y="1036.362" fill="#4d4d4d" fill-opacity="1" fill-rule="nonzero" stroke="none" stroke-width="2" color="#000" display="inline" enable-background="accumulate" overflow="visible" ry=".5" visibility="visible" style="marker:none"/><rect id="rect3058" width="4" height="1" x="7" y="1042.362" fill="#4d4d4d" fill-opacity="1" fill-rule="nonzero" stroke="none" stroke-width="2" color="#000" display="inline" enable-background="accumulate" overflow="visible" ry=".5" visibility="visible" style="marker:none"/><rect id="rect3060" width="2" height="1" x="7" y="1048.362" fill="#4d4d4d" fill-opacity="1" fill-rule="nonzero" stroke="none" stroke-width="2" color="#000" display="inline" enable-background="accumulate" overflow="visible" ry=".5" visibility="visible" style="marker:none"/><g id="text4221" fill="#4d4d4d" fill-opacity="1" stroke="none" stroke-linecap="butt" stroke-linejoin="miter" stroke-opacity="1" stroke-width="1" font-family="sans-serif" font-size="5.82" font-style="normal" font-weight="normal" letter-spacing="0" word-spacing="0" style="line-height:125%"><path style="-inkscape-font-specification:'Product Sans'" id="path4237" fill="#4d4d4d" fill-opacity="1" d="m 4.7075187,1037.363 -0.5354497,0 0,-3.3174 -0.7740739,0.3375 -0.2037036,-0.4539 1.169841,-0.5471 0.3433862,0 0,3.9809 z" font-family="Product Sans" font-stretch="normal" font-style="normal" font-variant="normal" font-weight="normal"/></g><g id="text4225" fill="#4d4d4d" fill-opacity="1" stroke="none" stroke-linecap="butt" stroke-linejoin="miter" stroke-opacity="1" stroke-width="1" font-family="sans-serif" font-size="5.574" font-style="normal" font-weight="normal" letter-spacing="0" word-spacing="0" style="line-height:125%"><path style="-inkscape-font-specification:'Product Sans'" id="path4240" fill="#4d4d4d" fill-opacity="1" d="m 5.4859614,1043.3842 -2.4303107,0 0,-0.5129 q 1.092525,-1.0981 1.3991009,-1.4325 0.2731313,-0.3066 0.3678911,-0.4627 0.09476,-0.1616 0.09476,-0.3957 0,-0.2397 -0.1895196,-0.4237 -0.1895197,-0.1839 -0.5072438,-0.1839 -0.2898536,0 -0.468225,0.1728 -0.1783714,0.1672 -0.2285384,0.3623 l -0.468225,-0.1895 q 0.09476,-0.301 0.3957616,-0.5686 0.3010018,-0.2675 0.780375,-0.2675 0.5295402,0 0.8695607,0.3233 0.3400206,0.3233 0.3400206,0.7748 0,0.5574 -0.6075777,1.1928 l -1.1148214,1.1204 1.7669919,0 0,0.4906 z" font-family="Product Sans" font-stretch="normal" font-style="normal" font-variant="normal" font-weight="normal"/></g><g id="text4229" fill="#4d4d4d" fill-opacity="1" stroke="none" stroke-linecap="butt" stroke-linejoin="miter" stroke-opacity="1" stroke-width="1" font-family="sans-serif" font-size="5.895" font-style="normal" font-weight="normal" letter-spacing="0" word-spacing="0" style="line-height:125%"><path style="-inkscape-font-specification:'Product Sans'" id="path4234" fill="#4d4d4d" fill-opacity="1" d="m 4.367521,1049.3929 q -0.4067676,0 -0.7899546,-0.2535 -0.3831869,-0.2535 -0.5305665,-0.7546 l 0.4951954,-0.2063 q 0.094323,0.3301 0.3124448,0.5129 0.2181218,0.1827 0.5128809,0.1827 0.3301303,0 0.5659377,-0.2063 0.2417025,-0.2063 0.2417025,-0.5129 0,-0.3006 -0.2475977,-0.507 -0.2417026,-0.2063 -0.5836232,-0.2063 l -0.3478158,0 0,-0.507 0.3065495,0 q 0.3183399,0 0.5246713,-0.1768 0.2122267,-0.1769 0.2122267,-0.4717 0,-0.277 -0.2063315,-0.4362 -0.2004362,-0.1592 -0.5010906,-0.1592 -0.5187761,0 -0.7015268,0.5247 l -0.5010906,-0.2122 q 0.1179037,-0.3243 0.418558,-0.5778 0.3006544,-0.2534 0.7840594,-0.2534 0.5423569,0 0.9019631,0.3183 0.3596062,0.3124 0.3596062,0.7958 0,0.5837 -0.5423569,0.8666 l 0,0.024 q 0.2947592,0.1238 0.4834051,0.3773 0.194541,0.2535 0.194541,0.6013 0,0.5365 -0.3949773,0.8902 -0.3949773,0.3478 -0.9668101,0.3478 z" font-family="Product Sans" font-stretch="normal" font-style="normal" font-variant="normal" font-weight="normal"/></g></g></g></g></g></svg>