<svg xmlns="http://www.w3.org/2000/svg" xmlns:osb="http://www.openswatchbook.org/uri/2009/osb" xmlns:svg="http://www.w3.org/2000/svg" xmlns:xlink="http://www.w3.org/1999/xlink" id="svg3869" width="22" height="22" version="1.1"><defs id="defs3871"><linearGradient id="linearGradient4207" osb:paint="gradient"><stop id="stop3371" offset="0" stop-color="#3498db" stop-opacity="1"/><stop id="stop3373" offset="1" stop-color="#3498db" stop-opacity="0"/></linearGradient><linearGradient id="linearGradient4290-48"><stop id="stop4292-0" offset="0" stop-color="#a5a5a5" stop-opacity="1"/><stop id="stop4294-0" offset="1" stop-color="#f5f2f5" stop-opacity="1"/></linearGradient><linearGradient id="linearGradient3257"><stop id="stop3259" offset="0" stop-color="#a50000" stop-opacity="1"/><stop id="stop3261" offset="1" stop-color="#e73800" stop-opacity="1"/></linearGradient><clipPath id="clipPath4210" clipPathUnits="userSpaceOnUse"><rect id="rect4212" width="34" height="34" x="-7" y="1024.362" fill="#00f" fill-opacity=".514" stroke="none" stroke-opacity="1" opacity="1"/></clipPath><clipPath id="clipPath4160" clipPathUnits="userSpaceOnUse"><rect id="rect4162" width="32" height="32" x="-6" y="1028.362" fill="#aade87" fill-opacity=".472" stroke="none" stroke-opacity="1" opacity="1"/></clipPath><clipPath id="clipPath4210-4" clipPathUnits="userSpaceOnUse"><rect id="rect4212-2" width="34" height="34" x="-7" y="1024.362" fill="#00f" fill-opacity=".514" stroke="none" stroke-opacity="1" opacity="1"/></clipPath><clipPath id="clipPath4160-2" clipPathUnits="userSpaceOnUse"><rect id="rect4162-7" width="32" height="32" x="-6" y="1028.362" fill="#aade87" fill-opacity=".472" stroke="none" stroke-opacity="1" opacity="1"/></clipPath><clipPath id="clipPath4210-5" clipPathUnits="userSpaceOnUse"><rect id="rect4212-7" width="34" height="34" x="-7" y="1024.362" fill="#00f" fill-opacity=".514" stroke="none" stroke-opacity="1" opacity="1"/></clipPath><clipPath id="clipPath4160-0" clipPathUnits="userSpaceOnUse"><rect id="rect4162-9" width="32" height="32" x="-6" y="1028.362" fill="#aade87" fill-opacity=".472" stroke="none" stroke-opacity="1" opacity="1"/></clipPath><clipPath id="clipPath4160-5" clipPathUnits="userSpaceOnUse"><rect id="rect4162-8" width="1" height="1" x="7" y="1023.362" fill="#f2f2f2" fill-opacity="1" stroke="none" stroke-opacity="1" opacity="1"/></clipPath><linearGradient id="linearGradient4123" x1="3" x2="15" y1="1045.362" y2="1045.362" gradientTransform="translate(0,-1.9999941)" gradientUnits="userSpaceOnUse" xlink:href="#linearGradient4021-3"/><linearGradient id="linearGradient4021-3"><stop id="stop4023-0" offset="0" stop-color="#b3b3b3" stop-opacity="1"/><stop id="stop4025-2" offset="1" stop-color="#4d4d4d" stop-opacity="1"/></linearGradient><clipPath id="clipPath4160-8" clipPathUnits="userSpaceOnUse"><rect id="rect4162-9-9" width="1" height="1" x="7" y="1023.362" fill="#f2f2f2" fill-opacity="1" stroke="none" stroke-opacity="1" opacity="1"/></clipPath><clipPath id="clipPath4210-2" clipPathUnits="userSpaceOnUse"><rect id="rect4212-8" width="34" height="34" x="-7" y="1024.362" fill="#00f" fill-opacity=".514" stroke="none" stroke-opacity="1" opacity="1"/></clipPath><clipPath id="clipPath4160-6" clipPathUnits="userSpaceOnUse"><rect id="rect4162-5" width="32" height="32" x="-6" y="1028.362" fill="#aade87" fill-opacity=".472" stroke="none" stroke-opacity="1" opacity="1"/></clipPath><clipPath id="clipPath4210-4-5" clipPathUnits="userSpaceOnUse"><rect id="rect4212-2-0" width="34" height="34" x="-7" y="1024.362" fill="#00f" fill-opacity=".514" stroke="none" stroke-opacity="1" opacity="1"/></clipPath><clipPath id="clipPath4160-2-6" clipPathUnits="userSpaceOnUse"><rect id="rect4162-7-2" width="32" height="32" x="-6" y="1028.362" fill="#aade87" fill-opacity=".472" stroke="none" stroke-opacity="1" opacity="1"/></clipPath><clipPath id="clipPath4210-5-7" clipPathUnits="userSpaceOnUse"><rect id="rect4212-7-7" width="34" height="34" x="-7" y="1024.362" fill="#00f" fill-opacity=".514" stroke="none" stroke-opacity="1" opacity="1"/></clipPath><clipPath id="clipPath4160-0-3" clipPathUnits="userSpaceOnUse"><rect id="rect4162-9-6" width="32" height="32" x="-6" y="1028.362" fill="#aade87" fill-opacity=".472" stroke="none" stroke-opacity="1" opacity="1"/></clipPath><clipPath id="clipPath4160-5-5" clipPathUnits="userSpaceOnUse"><rect id="rect4162-8-3" width="1" height="1" x="7" y="1023.362" fill="#f2f2f2" fill-opacity="1" stroke="none" stroke-opacity="1" opacity="1"/></clipPath><clipPath id="clipPath4160-8-1" clipPathUnits="userSpaceOnUse"><rect id="rect4162-9-9-7" width="1" height="1" x="7" y="1023.362" fill="#f2f2f2" fill-opacity="1" stroke="none" stroke-opacity="1" opacity="1"/></clipPath><clipPath id="clipPath4210-7" clipPathUnits="userSpaceOnUse"><rect id="rect4212-1" width="34" height="34" x="-7" y="1024.362" fill="#00f" fill-opacity=".514" stroke="none" stroke-opacity="1" opacity="1"/></clipPath><clipPath id="clipPath4160-04" clipPathUnits="userSpaceOnUse"><rect id="rect4162-4" width="32" height="32" x="-6" y="1028.362" fill="#aade87" fill-opacity=".472" stroke="none" stroke-opacity="1" opacity="1"/></clipPath><clipPath id="clipPath4210-4-0" clipPathUnits="userSpaceOnUse"><rect id="rect4212-2-08" width="34" height="34" x="-7" y="1024.362" fill="#00f" fill-opacity=".514" stroke="none" stroke-opacity="1" opacity="1"/></clipPath><clipPath id="clipPath4160-2-4" clipPathUnits="userSpaceOnUse"><rect id="rect4162-7-4" width="32" height="32" x="-6" y="1028.362" fill="#aade87" fill-opacity=".472" stroke="none" stroke-opacity="1" opacity="1"/></clipPath><clipPath id="clipPath4210-5-2" clipPathUnits="userSpaceOnUse"><rect id="rect4212-7-9" width="34" height="34" x="-7" y="1024.362" fill="#00f" fill-opacity=".514" stroke="none" stroke-opacity="1" opacity="1"/></clipPath><clipPath id="clipPath4160-0-2" clipPathUnits="userSpaceOnUse"><rect id="rect4162-9-4" width="32" height="32" x="-6" y="1028.362" fill="#aade87" fill-opacity=".472" stroke="none" stroke-opacity="1" opacity="1"/></clipPath></defs><metadata id="metadata3874"/><g id="layer1" transform="translate(-326,-534.3622)"><g id="layer1-0" transform="translate(-36.999994,-3.9999808)"><g id="layer1-2" transform="translate(-25.299998,0.29999811)"><g id="layer1-72-3" transform="translate(-21,2)"><g id="layer1-5-6" transform="translate(-94.71429,7.57146)"><path id="rect4227" fill="#4d4d4d" fill-opacity="1" fill-rule="evenodd" stroke="none" stroke-dasharray="none" stroke-dashoffset="0" stroke-linecap="round" stroke-linejoin="miter" stroke-miterlimit="4" stroke-opacity="1" stroke-width="1" d="M 4 3 C 3.4459836 3 3 3.4459836 3 4 L 3 18 C 3 18.554016 3.4459836 19 4 19 L 18 19 C 18.554016 19 19 18.554016 19 18 L 19 4 C 19 3.4459836 18.554016 3 18 3 L 4 3 z M 10.994141 6 C 11.816182 6 12.483142 6.244617 12.998047 6.7324219 C 13.512952 7.2111933 13.771484 7.8244446 13.771484 8.5742188 C 13.771484 8.899422 13.685307 9.2302165 13.513672 9.5644531 C 13.342037 9.8986898 13.188236 10.136715 13.052734 10.28125 C 12.926266 10.416751 12.746588 10.593745 12.511719 10.810547 L 12.443359 10.878906 C 11.892321 11.375745 11.617187 11.872302 11.617188 12.369141 L 11.617188 12.910156 L 10.34375 12.910156 L 10.34375 12.273438 C 10.34375 11.866933 10.427974 11.519538 10.599609 11.230469 C 10.771244 10.932366 11.074208 10.584971 11.507812 10.1875 C 11.751715 9.9616644 11.92407 9.793948 12.023438 9.6855469 C 12.131839 9.5681124 12.234617 9.4096728 12.333984 9.2109375 C 12.442385 9.0031688 12.498047 8.7910209 12.498047 8.5742188 C 12.498047 8.1586813 12.360846 7.8252015 12.089844 7.5722656 C 11.827874 7.3193298 11.463879 7.1933594 10.994141 7.1933594 C 10.217266 7.1933594 9.6836008 7.626932 9.3945312 8.4941406 L 8.2285156 8.0058594 C 8.4182175 7.4909542 8.7443735 7.0295509 9.2050781 6.6230469 C 9.6748162 6.2075094 10.271467 6 10.994141 6 z M 10.980469 14.15625 C 11.242438 14.15625 11.459224 14.247066 11.630859 14.427734 C 11.811528 14.608403 11.900391 14.825189 11.900391 15.078125 C 11.900391 15.331061 11.811528 15.547847 11.630859 15.728516 C 11.459224 15.909184 11.242438 16 10.980469 16 C 10.718499 16 10.497075 15.909184 10.316406 15.728516 C 10.144771 15.547847 10.058594 15.331061 10.058594 15.078125 C 10.058594 14.825189 10.144771 14.608403 10.316406 14.427734 C 10.497075 14.247066 10.718499 14.15625 10.980469 14.15625 z" opacity="1" transform="translate(504.01428,528.49072)"/></g></g></g></g></g></svg>