<svg xmlns="http://www.w3.org/2000/svg" xmlns:svg="http://www.w3.org/2000/svg" id="svg3760" width="22" height="22" version="1.1"><metadata id="metadata3765"/><g id="layer1" transform="translate(-551.28571,-607.64788)"><g id="g4144" transform="translate(0,5e-6)"><path id="path4155-8" fill="#4d4d4d" fill-opacity="1" stroke="none" stroke-dasharray="none" stroke-miterlimit="4" stroke-opacity=".55" stroke-width="2.8" d="m 555.28572,610.6479 -10e-6,13.99997 -1,0 0,1 1,0 0,1 1,0 0,-1 14,0 0,-1 -14,0 10e-6,-13.99997 z" opacity="1"/><path id="rect4152-3" fill="#4d4d4d" fill-opacity="1" stroke="none" stroke-linecap="round" d="m 560.28571,610.64788 0,2 -1,0 0,3 -1,0 0,2 -1,0 0,3 -1,0 0,4 1,0 1,0 1,0 1,0 1,0 1,0 1,0 1,0 1,0 1,0 1,0 1,0 1,0 0,-1 -1,0 -1,0 0,-1 -1,0 -1,0 0,-1 -1,0 0,1 -1,0 0,-1 -1,0 0,-7 -1,0 0,-4 -1,0 z" opacity="1"/></g></g></svg>