<svg xmlns="http://www.w3.org/2000/svg" xmlns:svg="http://www.w3.org/2000/svg" id="svg3869" width="22" height="22" version="1.1"><defs id="defs3871"><linearGradient id="linearGradient3257"><stop id="stop3259" offset="0" stop-color="#a50000" stop-opacity="1"/><stop id="stop3261" offset="1" stop-color="#e73800" stop-opacity="1"/></linearGradient><clipPath id="clipPath4210" clipPathUnits="userSpaceOnUse"><rect id="rect4212" width="34" height="34" x="-7" y="1024.362" fill="#00f" fill-opacity=".514" stroke="none" stroke-opacity="1" opacity="1"/></clipPath><clipPath id="clipPath4160" clipPathUnits="userSpaceOnUse"><rect id="rect4162" width="32" height="32" x="-6" y="1028.362" fill="#aade87" fill-opacity=".472" stroke="none" stroke-opacity="1" opacity="1"/></clipPath><clipPath id="clipPath4160-4" clipPathUnits="userSpaceOnUse"><rect id="rect4162-5" width="1" height="1" x="7" y="1023.362" fill="#f2f2f2" fill-opacity="1" stroke="none" stroke-opacity="1" opacity="1"/></clipPath><clipPath id="clipPath16" clipPathUnits="userSpaceOnUse"><path id="path18" d="m 0,706.465 1490.926,0 L 1490.926,0 0,0 0,706.465 Z"/></clipPath><clipPath id="clipPath24" clipPathUnits="userSpaceOnUse"><path id="path26" d="m 22.1953,686.117 1447.7347,0 0,-667.1902 -1447.7347,0 0,667.1902 z"/></clipPath></defs><metadata id="metadata3874"/><g id="layer1" transform="translate(-326,-534.3622)"><g id="g4211" transform="matrix(0.79999999,0,0,0.79999999,67.400004,109.07245)"><g id="layer1-6" transform="matrix(0.67322778,0,0,0.67322778,67.324185,187.34101)"><g id="layer1-0" fill="#4d4d4d" fill-opacity="1" transform="matrix(1.4861058,0,0,1.4861058,-242.47995,-265.98878)"><g id="layer1-9" fill="#4d4d4d" fill-opacity="1" transform="translate(-14.826669,-2.8964678)"><g id="circle33" fill="#4d4d4d" fill-opacity="1" transform="matrix(0.05593646,0,0,0.05593646,439.43695,531.71068)"><path id="path285" fill="#4d4d4d" fill-opacity="1" d="m 81.442575,-4.1454253 c -5.595,-9.5859997 -13.185,-17.1759997 -22.771,-22.7709997 -9.588,-5.595 -20.055,-8.392 -31.408,-8.392 -11.352,0 -21.8220003,2.797 -31.4080003,8.392 -9.5869997,5.594 -17.1769997,13.184 -22.7719997,22.7709997 -5.596,9.587 -8.393,20.0570003 -8.393,31.4080003 0,11.352 2.798,21.82 8.392,31.408 5.595,9.585 13.185,17.176 22.7719997,22.771 9.587,5.595 20.0560003,8.392 31.4080003,8.392 11.352,0 21.822,-2.797 31.408,-8.392 9.586,-5.594 17.176,-13.185 22.771,-22.771 5.594,-9.587 8.391,-20.057 8.391,-31.408 0,-11.352 -2.797,-21.8220003 -8.39,-31.4080003 z"/></g><g id="circular56" fill="#4d4d4d" fill-opacity="1" transform="matrix(0.05593646,0,0,0.05593646,439.51194,540.69898)"><path id="path291" fill="#4d4d4d" fill-opacity="1" d="m 81.442575,67.329425 c -5.595,-9.586 -13.185,-17.176 -22.771,-22.771 -9.588,-5.595 -20.055,-8.392 -31.408,-8.392 -11.352,0 -21.8220003,2.797 -31.4080003,8.392 -9.5869997,5.594 -17.1769997,13.184 -22.7719997,22.771 -5.596,9.587 -8.393,20.057 -8.393,31.408 0,11.352005 2.798,21.820005 8.392,31.408005 5.595,9.585 13.185,17.176 22.7719997,22.771 9.587,5.595 20.0560003,8.392 31.4080003,8.392 11.352,0 21.822,-2.797 31.408,-8.392 9.586,-5.594 17.176,-13.185 22.771,-22.771 5.594,-9.587 8.391,-20.057 8.391,-31.408005 0,-11.352 -2.797,-21.822 -8.39,-31.408 l 0,0 z"/></g><g id="circular56-3" fill="#4d4d4d" fill-opacity="1" transform="matrix(0.05593646,0,0,0.05593646,448.58654,531.70678)"><path id="path291-5" fill="#4d4d4d" fill-opacity="1" d="m 152.91743,-4.1454253 c -5.595,-9.5859997 -13.185,-17.1759997 -22.771,-22.7709997 -9.588,-5.595 -20.055,-8.392 -31.408005,-8.392 -11.352,0 -21.822,2.797 -31.408,8.392 -9.587,5.594 -17.177,13.184 -22.772,22.7709997 -5.596,9.587 -8.393,20.0570003 -8.393,31.4080003 0,11.352 2.798,21.82 8.392,31.408 5.595,9.585 13.185,17.176 22.772,22.771 9.587,5.595 20.056,8.392 31.408,8.392 11.352005,0 21.822005,-2.797 31.408005,-8.392 9.586,-5.594 17.176,-13.185 22.771,-22.771 5.594,-9.587 8.391,-20.057 8.391,-31.408 0,-11.352 -2.797,-21.8220003 -8.39,-31.4080003 l 0,0 z"/></g><g id="circle33-5" fill="#4d4d4d" fill-opacity="1" transform="matrix(0.05593646,0,0,0.05593646,448.4929,540.65041)"><path id="path285-1" fill="#4d4d4d" fill-opacity="1" d="m 152.91743,67.329425 c -5.595,-9.586 -13.185,-17.176 -22.771,-22.771 -9.588,-5.595 -20.055,-8.392 -31.408005,-8.392 -11.352,0 -21.822,2.797 -31.408,8.392 -9.587,5.594 -17.177,13.184 -22.772,22.771 -5.596,9.587 -8.393,20.057 -8.393,31.408 0,11.352005 2.798,21.820005 8.392,31.408005 5.595,9.585 13.185,17.176 22.772,22.771 9.587,5.595 20.056,8.392 31.408,8.392 11.352005,0 21.822005,-2.797 31.408005,-8.392 9.586,-5.594 17.176,-13.185 22.771,-22.771 5.594,-9.587 8.391,-20.057 8.391,-31.408005 0,-11.352 -2.797,-21.822 -8.39,-31.408 z"/></g></g></g></g><g id="layer1-6-9" transform="matrix(0.67322778,0,0,0.67322778,62.747159,191.8393)"><g id="layer1-0-9" fill="#4d4d4d" fill-opacity="1" transform="matrix(1.4861058,0,0,1.4861058,-242.47995,-265.98878)"><g id="layer1-9-2" fill="#4d4d4d" fill-opacity="1" transform="translate(-14.826669,-2.8964678)"><g id="circular56-3-7" fill="#4d4d4d" fill-opacity="1" transform="matrix(0.05593646,0,0,0.05593646,448.58654,531.70678)"><path id="path291-5-1" fill="#4d4d4d" fill-opacity="1" d="M 117.18,31.592 C 111.585,22.006 103.995,14.416 94.409,8.821 84.821,3.226 74.354,0.429 63.001,0.429 51.649,0.429 41.179,3.226 31.593,8.821 22.006,14.415 14.416,22.005 8.821,31.592 3.225,41.179 0.428,51.649 0.428,63 c 0,11.352 2.798,21.82 8.392,31.408 5.595,9.585 13.185,17.176 22.772,22.771 9.587,5.595 20.056,8.392 31.408,8.392 11.352,0 21.822,-2.797 31.408,-8.392 9.586,-5.594 17.176,-13.185 22.771,-22.771 5.594,-9.587 8.391,-20.057 8.391,-31.408 0,-11.352 -2.797,-21.822 -8.39,-31.408 l 0,0 z"/></g></g></g></g></g></g></svg>