<svg xmlns="http://www.w3.org/2000/svg" xmlns:svg="http://www.w3.org/2000/svg" id="svg3760" width="22" height="22" version="1.1"><metadata id="metadata3765"/><g id="layer1" transform="translate(-551.28571,-607.64788)"><g id="g4144"><path id="path4155" fill="#4d4d4d" fill-opacity="1" stroke="none" stroke-dasharray="none" stroke-miterlimit="4" stroke-opacity=".55" stroke-width="2.8" d="M 4.0000144,3.0000252 4,17 l -1,0 0,1 1,0 0,1 1,0 0,-1 14,0 0,-1 -14,0 1.44e-5,-13.99997 z" opacity="1" transform="translate(551.28571,607.64788)"/><path id="rect4152" fill="#4d4d4d" fill-opacity="1" stroke="none" stroke-linecap="round" d="M 9,3 9,4 8,4 8,5 7,5 7,6 6,6 6,7 5,7 l 0,11 1,0 0,-1 1,0 1,0 1,0 1,0 1,0 1,0 1,0 1,0 1,0 1,0 1,0 1,0 1,0 0,-9 -1,0 0,1 -1,0 0,-1 -1,0 0,-1 -1,0 0,1 -1,0 0,-2 -1,0 0,3 -1,0 0,-2 -1,0 0,-2 -1,0 0,-2 -1,0 z" opacity="1" transform="translate(551.28571,607.64788)"/></g></g></svg>