<svg xmlns="http://www.w3.org/2000/svg" xmlns:svg="http://www.w3.org/2000/svg" id="svg3869" width="22" height="22" version="1.1"><metadata id="metadata3874"/><g id="layer1" transform="translate(-326,-534.3622)"><g id="g3" fill="#4d4d4d" fill-opacity="1" transform="matrix(0.02145577,0,0,0.02145577,327,535.3622)"><path id="path5" fill="#4d4d4d" fill-opacity="1" d="m 466.075,161.525 c -205.6,0 -382.8,121.2 -464.2,296.1 -2.5,5.3 -2.5,11.5 0,16.9 81.4,174.899 258.601,296.1 464.2,296.1 205.599,0 382.8,-121.2 464.2,-296.1 2.5,-5.3 2.5,-11.5 0,-16.9 -81.4,-174.9 -258.6,-296.1 -464.2,-296.1 z m 0,514.701 c -116.1,0 -210.1,-94.101 -210.1,-210.101 0,-116.1 94.1,-210.1 210.1,-210.1 116.1,0 210.1,94.1 210.1,210.1 0,116 -94.1,210.101 -210.1,210.101 z"/><circle id="circle7" cx="466.075" cy="466.025" r="134.5" fill="#4d4d4d" fill-opacity="1"/></g></g></svg>