<svg xmlns="http://www.w3.org/2000/svg" xmlns:svg="http://www.w3.org/2000/svg" id="svg3869" width="22" height="22" version="1.1"><metadata id="metadata3874"/><g id="layer1" transform="translate(-326,-534.3622)"><g id="layer1-2" transform="translate(-94.71429,7.57146)"><g id="g4176" transform="translate(-1.0000022,1)"><path id="path4174" fill="#4d4d4d" fill-opacity="1" stroke="none" d="m 426.31429,528.79074 c -0.88365,0 -1.59999,0.71634 -1.6,1.6 10e-6,0.88366 0.71635,1.6 1.6,1.6 0.88365,0 1.59999,-0.71634 1.6,-1.6 -10e-6,-0.88366 -0.71635,-1.6 -1.6,-1.6 z m 0,6.4 c -0.88366,0 -1.6,0.71634 -1.6,1.6 0,0.88366 0.71634,1.6 1.6,1.6 0.88366,0 1.6,-0.71634 1.6,-1.6 0,-0.88366 -0.71634,-1.6 -1.6,-1.6 z m 0,6.4 c -0.88366,0 -1.6,0.71634 -1.6,1.6 0,0.88366 0.71634,1.6 1.6,1.6 0.88366,0 1.6,-0.71634 1.6,-1.6 0,-0.88366 -0.71634,-1.6 -1.6,-1.6 z" opacity="1"/><rect id="rect4144" width="11" height="1" x="429.214" y="529.891" fill="#fff" fill-opacity="1" fill-rule="evenodd" stroke="#4d4d4d" stroke-dasharray="none" stroke-dashoffset="0" stroke-linecap="square" stroke-linejoin="miter" stroke-miterlimit="4" stroke-opacity="1" stroke-width="1" opacity="1" ry=".5"/><rect id="rect4144-1" width="11" height="1" x="429.214" y="536.291" fill="#fff" fill-opacity="1" fill-rule="evenodd" stroke="#4d4d4d" stroke-dasharray="none" stroke-dashoffset="0" stroke-linecap="square" stroke-linejoin="miter" stroke-miterlimit="4" stroke-opacity="1" stroke-width="1" opacity="1" ry=".5"/><rect id="rect4144-1-7" width="11" height="1" x="429.214" y="542.691" fill="#fff" fill-opacity="1" fill-rule="evenodd" stroke="#4d4d4d" stroke-dasharray="none" stroke-dashoffset="0" stroke-linecap="square" stroke-linejoin="miter" stroke-miterlimit="4" stroke-opacity="1" stroke-width="1" opacity="1" ry=".5"/></g></g></g></svg>