<svg xmlns="http://www.w3.org/2000/svg" xmlns:svg="http://www.w3.org/2000/svg" id="svg3869" width="22" height="22" version="1.1"><defs id="defs3871"><linearGradient id="linearGradient4290-48"><stop id="stop4292-0" offset="0" stop-color="#a5a5a5" stop-opacity="1"/><stop id="stop4294-0" offset="1" stop-color="#f5f2f5" stop-opacity="1"/></linearGradient></defs><metadata id="metadata3874"/><g id="layer1" transform="translate(-326,-534.3622)"><g id="layer1-98" transform="translate(-94.71429,7.57146)"><g id="layer1-4" transform="translate(421.71429,-504.57146)"><g id="layer1-9" transform="matrix(-1,0,0,1,22,0)"><g id="layer1-2" transform="matrix(-1,0,0,1,22,0)"><g id="layer1-27" stroke="#4d4d4d" stroke-opacity="1" transform="matrix(0.64,0,0,0.64,-246.36573,702.0115)"><rect id="rect4544" width="24" height="1" x="388.571" y="519.798" fill="#4d4d4d" fill-opacity="1" stroke="#4d4d4d" stroke-linecap="square" stroke-opacity="1" ry=".5"/><rect id="rect4546" width="13" height="1" x="388.571" y="522.798" fill="#4d4d4d" fill-opacity="1" stroke="#4d4d4d" stroke-linecap="square" stroke-opacity="1" ry=".5"/><rect id="rect4548" width="24" height="1" x="388.571" y="528.798" fill="#4d4d4d" fill-opacity="1" stroke="#4d4d4d" stroke-linecap="square" stroke-opacity="1" ry=".5"/><rect id="rect4550" width="15" height="1" x="388.571" y="531.798" fill="#4d4d4d" fill-opacity="1" stroke="#4d4d4d" stroke-linecap="square" stroke-opacity="1" ry=".5"/><rect id="rect4552" width="24" height="1" x="388.571" y="537.798" fill="#4d4d4d" fill-opacity="1" stroke="#4d4d4d" stroke-linecap="square" stroke-opacity="1" ry=".5"/><rect id="rect4554" width="19" height="1" x="388.571" y="540.798" fill="#4d4d4d" fill-opacity="1" stroke="#4d4d4d" stroke-linecap="square" stroke-opacity="1" ry=".5"/><rect id="rect4556" width="4" height="1" x="408.571" y="542.798" fill="#4d4d4d" fill-opacity="1" stroke="#4d4d4d" stroke-linecap="square" stroke-opacity="1" ry=".5"/></g></g></g></g></g></g></svg>