<svg xmlns="http://www.w3.org/2000/svg" xmlns:svg="http://www.w3.org/2000/svg" xmlns:xlink="http://www.w3.org/1999/xlink" id="svg3760" width="22" height="22" version="1.1"><defs id="defs3762"><linearGradient id="linearGradient4300-8"><stop id="stop4302-5" offset="0" stop-color="#f27935" stop-opacity="1"/><stop id="stop4304-7" offset="1" stop-color="#f2784b" stop-opacity="1"/></linearGradient><linearGradient id="linearGradient4357" x1="47" x2="47" y1="61" y2="47" gradientUnits="userSpaceOnUse" xlink:href="#linearGradient4351"/><linearGradient id="linearGradient4410"><stop id="stop4412" offset="0" stop-color="#383e51" stop-opacity="1"/><stop id="stop4414" offset="1" stop-color="#655c6f" stop-opacity="0"/></linearGradient><linearGradient id="linearGradient4427" x1="54" x2="40" y1="31" y2="17" gradientTransform="matrix(1,0,0,-1,-14,78)" gradientUnits="userSpaceOnUse" xlink:href="#linearGradient4410"/><linearGradient id="linearGradient4306" x1="32" x2="32" y1="61" y2="3" gradientUnits="userSpaceOnUse" xlink:href="#linearGradient4300-8"/><linearGradient id="linearGradient4351"><stop id="stop4353" offset="0" stop-color="#f7ab89" stop-opacity="1"/><stop id="stop4355" offset="1" stop-color="#f9bda3" stop-opacity="1"/></linearGradient><linearGradient id="linearGradient3444" x1="54" x2="40" y1="31" y2="17" gradientTransform="matrix(1,0,0,-1,503.93261,656.69754)" gradientUnits="userSpaceOnUse" xlink:href="#linearGradient4410"/><linearGradient id="linearGradient3447" x1="47" x2="47" y1="61" y2="47" gradientTransform="translate(517.93261,578.69754)" gradientUnits="userSpaceOnUse" xlink:href="#linearGradient4351"/><linearGradient id="linearGradient3452" x1="32" x2="32" y1="61" y2="3" gradientTransform="translate(517.93261,578.69754)" gradientUnits="userSpaceOnUse" xlink:href="#linearGradient4300-8"/><clipPath id="clipPath16" clipPathUnits="userSpaceOnUse"><path id="path18" d="m 0,706.465 1490.926,0 L 1490.926,0 0,0 0,706.465 Z"/></clipPath><clipPath id="clipPath24" clipPathUnits="userSpaceOnUse"><path id="path26" d="m 22.1953,686.117 1447.7347,0 0,-667.1902 -1447.7347,0 0,667.1902 z"/></clipPath></defs><metadata id="metadata3765"/><g id="layer1" transform="translate(-550.28571,-608.64789)"><g id="g4162" transform="matrix(0.99374996,0,0,1,2.5143082,2)"><path id="rect4336" fill="#4d4d4d" fill-opacity="1" stroke="none" d="m 17,3 0,2 -2,0 0,1 2,0 0,2 1,0 0,-2 2,0 0,-1 -2,0 0,-2 -1,0 z" transform="translate(550.28571,606.64789)"/><path id="path4149-2-5-2" fill="#4d4d4d" fill-opacity="1" fill-rule="nonzero" stroke="none" d="m 559.1962,611.64789 -3.31458,9.59375 -0.12277,0.40625 -1.47314,4 1.65728,0 1.6266,-4.4375 5.43223,0 1.6266,4.4375 1.65729,0 -1.47314,-4 -0.12276,-0.40625 -3.31458,-9.59375 -0.21484,0 -1.74937,0 -0.21482,0 z m 1.10485,1.9375 2.17903,6.34375 -4.38874,0 2.20971,-6.34375 z" color="#000" display="inline" enable-background="accumulate" font-family="Oxygen" font-size="medium" font-stretch="normal" font-style="normal" font-variant="normal" font-weight="normal" letter-spacing="0" overflow="visible" visibility="visible" word-spacing="0" style="line-height:125%;-inkscape-font-specification:Oxygen;marker:none"/></g></g></svg>