<svg xmlns="http://www.w3.org/2000/svg" xmlns:svg="http://www.w3.org/2000/svg" id="svg4355" width="22" height="22" version="1.1"><metadata id="metadata4360"/><g id="layer1" transform="translate(-544.57141,-742.93359)"><g id="g3845" transform="translate(0,-0.53516)"><g id="g4149" transform="translate(-1.5191097e-7,-0.484375)"><path id="path5273-9-0" fill="#4d4d4d" fill-opacity="1" fill-rule="nonzero" stroke="none" stroke-width=".41" d="m 561.09523,749.46875 c -0.8178,0 -1.52573,0.72285 -1.52381,1.52307 -0.002,0.80023 0.70601,1.47693 1.52381,1.47693 0.81779,0 1.4781,-0.6767 1.47618,-1.47693 0.002,-0.80022 -0.65839,-1.52307 -1.47618,-1.52307 z" baseline-shift="baseline" color="#000" direction="ltr" display="inline" enable-background="accumulate" font-family="Sans" font-size="medium" font-stretch="normal" font-style="normal" font-variant="normal" font-weight="normal" letter-spacing="normal" overflow="visible" text-anchor="start" text-decoration="none" visibility="visible" word-spacing="normal" writing-mode="lr-tb" style="line-height:normal;-inkscape-font-specification:Sans;text-indent:0;text-align:start;text-decoration-line:none;text-transform:none;block-progression:tb;marker:none"/><path id="path5273-9-0-3" fill="#4d4d4d" fill-opacity="1" fill-rule="nonzero" stroke="none" stroke-width=".41" d="m 562.09522,756.46875 c -0.8178,0 -1.52573,0.72285 -1.52381,1.52307 -0.002,0.80023 0.70601,1.47693 1.52381,1.47693 0.81779,0 1.4781,-0.6767 1.47618,-1.47693 0.002,-0.80022 -0.65839,-1.52307 -1.47618,-1.52307 z" baseline-shift="baseline" color="#000" direction="ltr" display="inline" enable-background="accumulate" font-family="Sans" font-size="medium" font-stretch="normal" font-style="normal" font-variant="normal" font-weight="normal" letter-spacing="normal" overflow="visible" text-anchor="start" text-decoration="none" visibility="visible" word-spacing="normal" writing-mode="lr-tb" style="line-height:normal;-inkscape-font-specification:Sans;text-indent:0;text-align:start;text-decoration-line:none;text-transform:none;block-progression:tb;marker:none"/><path id="path5273-9-0-9" fill="#4d4d4d" fill-opacity="1" fill-rule="nonzero" stroke="none" stroke-width=".41" d="m 554.09522,750.46875 c -0.8178,0 -1.52573,0.72285 -1.52381,1.52307 -0.002,0.80023 0.70601,1.47693 1.52381,1.47693 0.81779,0 1.4781,-0.6767 1.47618,-1.47693 0.002,-0.80022 -0.65839,-1.52307 -1.47618,-1.52307 z" baseline-shift="baseline" color="#000" direction="ltr" display="inline" enable-background="accumulate" font-family="Sans" font-size="medium" font-stretch="normal" font-style="normal" font-variant="normal" font-weight="normal" letter-spacing="normal" overflow="visible" text-anchor="start" text-decoration="none" visibility="visible" word-spacing="normal" writing-mode="lr-tb" style="line-height:normal;-inkscape-font-specification:Sans;text-indent:0;text-align:start;text-decoration-line:none;text-transform:none;block-progression:tb;marker:none"/><path id="path5273-9-0-0" fill="#4d4d4d" fill-opacity="1" fill-rule="nonzero" stroke="none" stroke-width=".41" d="m 556.59522,757.46875 c -0.8178,0 -1.52573,0.72285 -1.52381,1.52307 -0.002,0.80023 0.70601,1.47693 1.52381,1.47693 0.81779,0 1.4781,-0.6767 1.47618,-1.47693 0.002,-0.80022 -0.65839,-1.52307 -1.47618,-1.52307 z" baseline-shift="baseline" color="#000" direction="ltr" display="inline" enable-background="accumulate" font-family="Sans" font-size="medium" font-stretch="normal" font-style="normal" font-variant="normal" font-weight="normal" letter-spacing="normal" overflow="visible" text-anchor="start" text-decoration="none" visibility="visible" word-spacing="normal" writing-mode="lr-tb" style="line-height:normal;-inkscape-font-specification:Sans;text-indent:0;text-align:start;text-decoration-line:none;text-transform:none;block-progression:tb;marker:none"/><path id="path5273-9-0-7" fill="#4d4d4d" fill-opacity="1" fill-rule="nonzero" stroke="none" stroke-width=".41" d="m 549.09523,752.96875 c -0.8178,0 -1.52573,0.72285 -1.52381,1.52307 -0.002,0.80023 0.70601,1.47693 1.52381,1.47693 0.81779,0 1.4781,-0.6767 1.47618,-1.47693 0.002,-0.80022 -0.65839,-1.52307 -1.47618,-1.52307 z" baseline-shift="baseline" color="#000" direction="ltr" display="inline" enable-background="accumulate" font-family="Sans" font-size="medium" font-stretch="normal" font-style="normal" font-variant="normal" font-weight="normal" letter-spacing="normal" overflow="visible" text-anchor="start" text-decoration="none" visibility="visible" word-spacing="normal" writing-mode="lr-tb" style="line-height:normal;-inkscape-font-specification:Sans;text-indent:0;text-align:start;text-decoration-line:none;text-transform:none;block-progression:tb;marker:none"/><path id="path3927" fill="#4d4d4d" fill-opacity="1" stroke="none" stroke-width="1" d="m 561.35266,749.4375 -0.71875,1.28125 -3.96875,7.0625 -2.125,-5.96875 -0.1875,-0.53125 -0.5,0.25 -5,2.5 0.4375,0.875 4.5,-2.25 2.3125,6.46875 0.375,1.03125 0.53125,-0.9375 3.78125,-6.71875 0.78125,5.53125 1,-0.125 -1,-7 -0.21875,-1.46875 z" baseline-shift="baseline" color="#000" direction="ltr" display="inline" enable-background="accumulate" font-family="Sans" font-size="medium" font-stretch="normal" font-style="normal" font-variant="normal" font-weight="normal" letter-spacing="normal" overflow="visible" text-anchor="start" text-decoration="none" visibility="visible" word-spacing="normal" writing-mode="lr-tb" style="line-height:normal;-inkscape-font-specification:Sans;text-indent:0;text-align:start;text-decoration-line:none;text-transform:none;block-progression:tb;marker:none"/></g></g></g></svg>