<svg xmlns="http://www.w3.org/2000/svg" xmlns:osb="http://www.openswatchbook.org/uri/2009/osb" xmlns:svg="http://www.w3.org/2000/svg" id="svg7384" width="16" height="16" enable-background="new" version="1.1"><metadata id="metadata90"/><title id="title8473">Paper Symbolic Icon Theme</title><defs id="defs7386"><linearGradient id="linearGradient5606" osb:paint="solid"><stop id="stop5608" offset="0" stop-color="#000" stop-opacity="1"/></linearGradient><filter id="filter7554" color-interpolation-filters="sRGB"><feBlend id="feBlend7556" in2="BackgroundImage" mode="darken"/></filter></defs><g id="layer12" display="inline" transform="translate(-566.00018,-41)"><path id="path8662" fill="#555" fill-opacity="1" stroke="none" d="m 582.00018,46 0,6 -3.99998,-3 z"/><path id="path11643-3-2-67" fill="#555" fill-opacity="1" stroke="none" stroke-width="2" d="m 572,44 0,2 2.90625,0 C 574.85107,46 575,46.171037 575,46.09375 l 0,0.9375 -1,0 c -1.71588,0 -3.03787,1.10986 -3.0625,2.46875 -0.0123,0.679445 0.3195,1.353231 0.875,1.8125 0.5555,0.459269 1.30959,0.71875 2.1875,0.71875 l 2,0 1,0 0,-1 0,-4.9375 C 577,44.932958 576.11821,44.015991 574.9375,44 l -0.0312,0 L 572,44 z m 2,5.03125 1,0 0,1 -1,0 c -0.51941,0 -0.78011,-0.145714 -0.90625,-0.25 -0.12614,-0.104286 -0.15755,-0.178037 -0.15625,-0.25 0.003,-0.143925 0.0927,-0.5 1.0625,-0.5 z" baseline-shift="baseline" color="#000" direction="ltr" display="inline" enable-background="accumulate" font-family="Sans" font-size="medium" font-stretch="normal" font-style="normal" font-variant="normal" font-weight="normal" letter-spacing="normal" overflow="visible" text-anchor="start" text-decoration="none" visibility="visible" word-spacing="normal" writing-mode="lr-tb" style="text-indent:0;text-align:start;line-height:normal;text-transform:none;block-progression:tb;marker:none;-inkscape-font-specification:Sans"/><path id="path8656" fill="#555" fill-opacity="1" stroke="none" d="m 566.0002,46 0,6 4,-3 z"/></g></svg>