<svg xmlns="http://www.w3.org/2000/svg" xmlns:osb="http://www.openswatchbook.org/uri/2009/osb" xmlns:svg="http://www.w3.org/2000/svg" id="svg7384" width="16" height="16" enable-background="new" version="1.1"><metadata id="metadata90"/><title id="title8473">Paper Symbolic Icon Theme</title><defs id="defs7386"><linearGradient id="linearGradient5606" osb:paint="solid"><stop id="stop5608" offset="0" stop-color="#000" stop-opacity="1"/></linearGradient><filter id="filter7554" color-interpolation-filters="sRGB"><feBlend id="feBlend7556" in2="BackgroundImage" mode="darken"/></filter></defs><g id="layer12" display="inline" transform="translate(-485.0004,-40.996643)"><path id="path6844" fill="#555" fill-opacity="1" fill-rule="nonzero" stroke="none" stroke-width="1" d="m 487.34416,41.93414 12.71875,12.71875 -1.40625,1.40625 -12.71875,-12.71875 z" color="#000" display="inline" enable-background="accumulate" overflow="visible" visibility="visible" style="marker:none"/><path id="path6857" fill="#555" fill-opacity="1" stroke="none" d="m 491.40645,43.99609 2,2 1.59375,0 c 0.42816,0 1,0.61414 1,1 l 0,1 -0.59375,0 2.59375,2.59375 0,-3.59375 c 9e-5,-1.63434 -1.3198,-3 -3,-3 l -3.59375,0 z m -2.40625,0.40625 0,1.59375 1.59375,0 -1.59375,-1.59375 z m 2,3.59375 c -0.91927,0 -1.7356,0.38396 -2.25,0.96875 -0.5144,0.58479 -0.75639,1.31063 -0.75,2.03125 0.006,0.72062 0.26893,1.45271 0.78125,2.03125 0.51232,0.57854 1.31047,0.96875 2.21875,0.96875 l 5,0 1,0 1,0 0,-0.59375 -2,-2 0,0.59375 -5,0 c -0.39787,0 -0.56691,-0.10979 -0.71875,-0.28125 -0.15184,-0.17146 -0.27877,-0.43937 -0.28125,-0.71875 -0.002,-0.27938 0.10467,-0.55354 0.25,-0.71875 0.14533,-0.16521 0.32764,-0.28125 0.75,-0.28125 l 3.59375,0 -2,-2 -1.59375,0 z"/></g></svg>