<svg xmlns="http://www.w3.org/2000/svg" xmlns:osb="http://www.openswatchbook.org/uri/2009/osb" xmlns:svg="http://www.w3.org/2000/svg" id="svg2" width="16" height="16" enable-background="new" version="1.1"><metadata id="metadata90"/><defs id="defs7386"><linearGradient id="linearGradient5606" osb:paint="solid"><stop id="stop5608"/></linearGradient><linearGradient id="linearGradient3257"><stop id="stop3259" offset="0" stop-color="#a50000" stop-opacity="1"/><stop id="stop3261" offset="1" stop-color="#e73800" stop-opacity="1"/></linearGradient><clipPath id="clipPath4210" clipPathUnits="userSpaceOnUse"><rect id="rect4212" width="34" height="34" x="-7" y="1024.362" fill="#00f" fill-opacity=".514" stroke="none" stroke-opacity="1" opacity="1"/></clipPath><clipPath id="clipPath4160" clipPathUnits="userSpaceOnUse"><rect id="rect4162" width="32" height="32" x="-6" y="1028.362" fill="#aade87" fill-opacity=".472" stroke="none" stroke-opacity="1" opacity="1"/></clipPath></defs><g id="layer12" transform="translate(-341.0002,-28)"><g id="layer1" transform="matrix(0,0.75,-0.75,0,758.02185,-216.75)"><g id="g4154" transform="translate(-3.7136835,0.99999917)"><g id="layer1-9" transform="matrix(0,-1.082475,1.082475,0,-789.67467,556.15411)"><g id="g3" fill="#4d4d4d" fill-opacity="1" transform="matrix(1.1827033e-4,0.03271224,-0.03271224,1.1827033e-4,18.268695,1034.3501)"><path id="path5" fill="#4d4d4d" fill-opacity="1" d="M 345.441,248.292 151.154,442.573 c -12.359,12.365 -32.397,12.365 -44.75,0 -12.354,-12.354 -12.354,-32.391 0,-44.744 L 278.318,225.92 106.409,54.017 c -12.354,-12.359 -12.354,-32.394 0,-44.748 12.354,-12.359 32.391,-12.359 44.75,0 l 194.287,194.284 c 6.177,6.18 9.262,14.271 9.262,22.366 0,8.099 -3.091,16.196 -9.267,22.373 z"/></g></g><circle id="path4152" cx="346" cy="544.362" r="2" fill="#4d4d4d" fill-opacity="1" fill-rule="evenodd" stroke="none" stroke-dasharray="none" stroke-dashoffset="0" stroke-linecap="round" stroke-linejoin="round" stroke-miterlimit="4" stroke-opacity="1" stroke-width="1" opacity="1"/></g></g></g></svg>