<svg xmlns="http://www.w3.org/2000/svg" xmlns:osb="http://www.openswatchbook.org/uri/2009/osb" xmlns:svg="http://www.w3.org/2000/svg" id="svg7384" width="16" height="16" enable-background="new" version="1.1"><metadata id="metadata90"/><title id="title8473">Paper Symbolic Icon Theme</title><defs id="defs7386"><filter id="filter7554" color-interpolation-filters="sRGB"><feBlend id="feBlend7556" in2="BackgroundImage" mode="darken"/></filter><linearGradient id="linearGradient3257"><stop id="stop3259" offset="0" stop-color="#a50000" stop-opacity="1"/><stop id="stop3261" offset="1" stop-color="#e73800" stop-opacity="1"/></linearGradient><clipPath id="clipPath4210" clipPathUnits="userSpaceOnUse"><rect id="rect4212" width="34" height="34" x="-7" y="1024.362" fill="#00f" fill-opacity=".514" stroke="none" stroke-opacity="1" opacity="1"/></clipPath><clipPath id="clipPath4160" clipPathUnits="userSpaceOnUse"><rect id="rect4162" width="32" height="32" x="-6" y="1028.362" fill="#aade87" fill-opacity=".472" stroke="none" stroke-opacity="1" opacity="1"/></clipPath><clipPath id="clipPath4160-4" clipPathUnits="userSpaceOnUse"><rect id="rect4162-5" width="1" height="1" x="7" y="1023.362" fill="#f2f2f2" fill-opacity="1" stroke="none" stroke-opacity="1" opacity="1"/></clipPath><clipPath id="clipPath16" clipPathUnits="userSpaceOnUse"><path id="path18" d="m 0,706.465 1490.926,0 L 1490.926,0 0,0 0,706.465 Z"/></clipPath><clipPath id="clipPath24" clipPathUnits="userSpaceOnUse"><path id="path26" d="m 22.1953,686.117 1447.7347,0 0,-667.1902 -1447.7347,0 0,667.1902 z"/></clipPath><clipPath id="clipPath4160-3" clipPathUnits="userSpaceOnUse"><rect id="rect4162-58" width="1" height="1" x="7" y="1023.362" fill="#f2f2f2" fill-opacity="1" stroke="none" stroke-opacity="1" opacity="1"/></clipPath><linearGradient id="linearGradient4207" osb:paint="gradient"><stop id="stop3371" offset="0" stop-color="#3498db" stop-opacity="1"/><stop id="stop3373" offset="1" stop-color="#3498db" stop-opacity="0"/></linearGradient></defs><g id="layer1" transform="matrix(0.875,0,0,0.875,-1.624999,-903.19192)"><g id="g846" transform="translate(-61.043672,-14.648105)"><g id="layer1-9" transform="translate(-265.95633,511.6481)"><g id="layer1-5" transform="matrix(0.66666667,0,0,0.66666667,70.952371,189.83022)"><g id="g4221" transform="translate(2.846752e-6,1.2081979e-6)"><path id="path4278" fill="#4d4d4d" fill-opacity="1" fill-rule="evenodd" stroke="none" stroke-dasharray="none" stroke-dashoffset="0" stroke-linecap="round" stroke-linejoin="round" stroke-miterlimit="4" stroke-opacity="1" stroke-width="1" d="m 11,3 a 8,8 0 0 0 -8,8 8,8 0 0 0 8,8 8,8 0 0 0 8,-8 8,8 0 0 0 -8,-8 z m -0.0059,3.5 c 0.764076,0 1.384683,0.2191787 1.863281,0.6582031 0.478597,0.4308943 0.71875,0.9834064 0.71875,1.6582031 0,0.292683 -0.0807,0.589812 -0.240234,0.890625 -0.159533,0.3008128 -0.301788,0.5164028 -0.427735,0.6464848 -0.11755,0.121951 -0.285599,0.28144 -0.503906,0.476562 l -0.0625,0.06055 c -0.512183,0.447154 -0.769531,0.894642 -0.769531,1.341797 l 0,0.486328 -1.183594,0 0,-0.572266 c 0,-0.365853 0.0807,-0.67929 0.240234,-0.939453 0.159533,-0.268292 0.440721,-0.581729 0.84375,-0.939453 0.226704,-0.203252 0.386155,-0.3536108 0.478516,-0.4511718 0.100757,-0.105691 0.196701,-0.2469194 0.289062,-0.4257812 0.100758,-0.1869919 0.152344,-0.3790968 0.152344,-0.5742188 0,-0.3739837 -0.127013,-0.6747014 -0.378906,-0.9023437 C 11.770134,7.6864232 11.430715,7.5722686 10.9941,7.5722686 c -0.722095,0 -1.2176422,0.3913872 -1.4863285,1.171875 L 8.4238281,8.3046875 C 8.6001535,7.8412729 8.9038125,7.4264005 9.3320312,7.0605469 9.7686464,6.6865631 10.322425,6.5 10.994141,6.5 Z m -0.01367,7.341797 c 0.243497,0 0.445936,0.08154 0.605469,0.244141 0.167928,0.162601 0.251953,0.356342 0.251953,0.583984 0,0.227642 -0.08403,0.423336 -0.251953,0.585937 C 11.426405,15.418461 11.223966,15.5 10.980469,15.5 10.736972,15.5 10.53121,15.418461 10.363281,15.255859 10.203749,15.093258 10.125,14.897564 10.125,14.669922 c 0,-0.227642 0.07875,-0.421383 0.238281,-0.583984 0.167929,-0.162602 0.373691,-0.244141 0.617188,-0.244141 z" opacity="1" transform="matrix(1.5,0,0,1.5,384.07144,515.29797)"/></g></g></g></g></g></svg>