<svg xmlns="http://www.w3.org/2000/svg" xmlns:osb="http://www.openswatchbook.org/uri/2009/osb" xmlns:svg="http://www.w3.org/2000/svg" id="svg7384" width="16" height="16" enable-background="new" version="1.1"><metadata id="metadata90"/><title id="title8473">Paper Symbolic Icon Theme</title><defs id="defs7386"><filter id="filter7554" color-interpolation-filters="sRGB"><feBlend id="feBlend7556" in2="BackgroundImage" mode="darken"/></filter><filter id="filter7554-4" color-interpolation-filters="sRGB"><feBlend id="feBlend7556-8" in2="BackgroundImage" mode="darken"/></filter><linearGradient id="linearGradient5606" osb:paint="solid"><stop id="stop5608"/></linearGradient><filter id="filter7554-5" color-interpolation-filters="sRGB"><feBlend id="feBlend7556-1" in2="BackgroundImage" mode="darken"/></filter><clipPath id="clipPath4160" clipPathUnits="userSpaceOnUse"><rect id="rect4162" width="1" height="1" x="7" y="1023.362" fill="#f2f2f2" fill-opacity="1" stroke="none" stroke-opacity="1" opacity="1"/></clipPath><clipPath id="clipPath4160-4" clipPathUnits="userSpaceOnUse"><rect id="rect4162-9" width="1" height="1" x="7" y="1023.362" fill="#f2f2f2" fill-opacity="1" stroke="none" stroke-opacity="1" opacity="1"/></clipPath><clipPath id="clipPath4160-3" clipPathUnits="userSpaceOnUse"><rect id="rect4162-0" width="1" height="1" x="7" y="1023.362" fill="#f2f2f2" fill-opacity="1" stroke="none" stroke-opacity="1" opacity="1"/></clipPath><linearGradient id="linearGradient3257"><stop id="stop3259" offset="0" stop-color="#a50000" stop-opacity="1"/><stop id="stop3261" offset="1" stop-color="#e73800" stop-opacity="1"/></linearGradient><clipPath id="clipPath4210" clipPathUnits="userSpaceOnUse"><rect id="rect4212" width="34" height="34" x="-7" y="1024.362" fill="#00f" fill-opacity=".514" stroke="none" stroke-opacity="1" opacity="1"/></clipPath><clipPath id="clipPath4160-1" clipPathUnits="userSpaceOnUse"><rect id="rect4162-6" width="32" height="32" x="-6" y="1028.362" fill="#aade87" fill-opacity=".472" stroke="none" stroke-opacity="1" opacity="1"/></clipPath><clipPath id="clipPath4160-4-5" clipPathUnits="userSpaceOnUse"><rect id="rect4162-5" width="1" height="1" x="7" y="1023.362" fill="#f2f2f2" fill-opacity="1" stroke="none" stroke-opacity="1" opacity="1"/></clipPath><clipPath id="clipPath16" clipPathUnits="userSpaceOnUse"><path id="path18" d="m 0,706.465 1490.926,0 L 1490.926,0 0,0 0,706.465 Z"/></clipPath><clipPath id="clipPath24" clipPathUnits="userSpaceOnUse"><path id="path26" d="m 22.1953,686.117 1447.7347,0 0,-667.1902 -1447.7347,0 0,667.1902 z"/></clipPath><clipPath id="clipPath4160-3-6" clipPathUnits="userSpaceOnUse"><rect id="rect4162-58" width="1" height="1" x="7" y="1023.362" fill="#f2f2f2" fill-opacity="1" stroke="none" stroke-opacity="1" opacity="1"/></clipPath><linearGradient id="linearGradient4207" osb:paint="gradient"><stop id="stop3371" offset="0" stop-color="#3498db" stop-opacity="1"/><stop id="stop3373" offset="1" stop-color="#3498db" stop-opacity="0"/></linearGradient></defs><g id="layer12" transform="translate(-465 -141)"><rect id="rect46078" width="2" height="14" x="466" y="142" fill="#4d4d4d" fill-opacity="1" color="#000" enable-background="new" rx="0" ry="0"/><rect id="rect46080" width="2" height="14" x="154" y="-480" fill="#555" color="#000" enable-background="new" rx="0" ry="0" transform="rotate(90)"/><path style="block-progression:tb;text-indent:0;text-transform:none" id="path46082" fill="#4d4d4d" fill-opacity="1" d="m478.44 142.06a0.50005 0.50005 0 0 0 -0.44 0.53c0.0174 1.1818-0.0427 2.2919-0.6875 3.2188-0.64481 0.92683-1.9108 1.742-4.4375 2.25-2.7203 0.54687-4.3482 1.6884-5.3125 3.0625-0.96427 1.3741-1.2786 2.9308-1.5625 4.2812a0.51182 0.51182 0 1 0 1 0.21875c0.28448-1.3532 0.58971-2.7426 1.4062-3.9062 0.81654-1.1636 2.1191-2.1462 4.6562-2.6562 2.6739-0.53756 4.2306-1.4917 5.0625-2.6875 0.83193-1.1958 0.89324-2.5745 0.875-3.8125a0.50005 0.50005 0 0 0 -0.5625 -0.5z" color="#000" enable-background="new"/><path id="path46084" fill="#4d4d4d" fill-opacity="1" d="m466.5 155.51c0.5684-2.7037 1.2581-5.3669 6.4967-6.5138 5.218-0.9552 5.0855-3.6476 6-6v12.558z" color="#000" enable-background="new" opacity=".33"/></g></svg>