<svg xmlns="http://www.w3.org/2000/svg" xmlns:osb="http://www.openswatchbook.org/uri/2009/osb" xmlns:svg="http://www.w3.org/2000/svg" id="svg7384" width="16" height="16" enable-background="new" version="1.1"><metadata id="metadata90"/><title id="title8473">Paper Symbolic Icon Theme</title><defs id="defs7386"><linearGradient id="linearGradient5606" osb:paint="solid"><stop id="stop5608" offset="0" stop-color="#000" stop-opacity="1"/></linearGradient><filter id="filter7554" color-interpolation-filters="sRGB"><feBlend id="feBlend7556" in2="BackgroundImage" mode="darken"/></filter><filter id="filter7554-7" color-interpolation-filters="sRGB"><feBlend id="feBlend7556-6" in2="BackgroundImage" mode="darken"/></filter><filter id="filter7554-25" color-interpolation-filters="sRGB"><feBlend id="feBlend7556-53" in2="BackgroundImage" mode="darken"/></filter><filter id="filter7554-1" color-interpolation-filters="sRGB"><feBlend id="feBlend7556-57" in2="BackgroundImage" mode="darken"/></filter><filter id="filter7554-2" color-interpolation-filters="sRGB"><feBlend id="feBlend7556-5" in2="BackgroundImage" mode="darken"/></filter><filter id="filter7554-4" color-interpolation-filters="sRGB"><feBlend id="feBlend7556-8" in2="BackgroundImage" mode="darken"/></filter><filter id="filter7554-5" color-interpolation-filters="sRGB"><feBlend id="feBlend7556-1" in2="BackgroundImage" mode="darken"/></filter><clipPath id="clipPath4160" clipPathUnits="userSpaceOnUse"><rect id="rect4162" width="1" height="1" x="7" y="1023.362" fill="#f2f2f2" fill-opacity="1" stroke="none" stroke-opacity="1" opacity="1"/></clipPath><clipPath id="clipPath4160-4" clipPathUnits="userSpaceOnUse"><rect id="rect4162-9" width="1" height="1" x="7" y="1023.362" fill="#f2f2f2" fill-opacity="1" stroke="none" stroke-opacity="1" opacity="1"/></clipPath><clipPath id="clipPath4160-3" clipPathUnits="userSpaceOnUse"><rect id="rect4162-0" width="1" height="1" x="7" y="1023.362" fill="#f2f2f2" fill-opacity="1" stroke="none" stroke-opacity="1" opacity="1"/></clipPath><linearGradient id="linearGradient3257"><stop id="stop3259" offset="0" stop-color="#a50000" stop-opacity="1"/><stop id="stop3261" offset="1" stop-color="#e73800" stop-opacity="1"/></linearGradient><clipPath id="clipPath4210" clipPathUnits="userSpaceOnUse"><rect id="rect4212" width="34" height="34" x="-7" y="1024.362" fill="#00f" fill-opacity=".514" stroke="none" stroke-opacity="1" opacity="1"/></clipPath><clipPath id="clipPath4160-1" clipPathUnits="userSpaceOnUse"><rect id="rect4162-6" width="32" height="32" x="-6" y="1028.362" fill="#aade87" fill-opacity=".472" stroke="none" stroke-opacity="1" opacity="1"/></clipPath><clipPath id="clipPath4160-4-5" clipPathUnits="userSpaceOnUse"><rect id="rect4162-5" width="1" height="1" x="7" y="1023.362" fill="#f2f2f2" fill-opacity="1" stroke="none" stroke-opacity="1" opacity="1"/></clipPath><clipPath id="clipPath16" clipPathUnits="userSpaceOnUse"><path id="path18" d="m 0,706.465 1490.926,0 L 1490.926,0 0,0 0,706.465 Z"/></clipPath><clipPath id="clipPath24" clipPathUnits="userSpaceOnUse"><path id="path26" d="m 22.1953,686.117 1447.7347,0 0,-667.1902 -1447.7347,0 0,667.1902 z"/></clipPath><clipPath id="clipPath4160-3-6" clipPathUnits="userSpaceOnUse"><rect id="rect4162-58" width="1" height="1" x="7" y="1023.362" fill="#f2f2f2" fill-opacity="1" stroke="none" stroke-opacity="1" opacity="1"/></clipPath><linearGradient id="linearGradient4207" osb:paint="gradient"><stop id="stop3371" offset="0" stop-color="#3498db" stop-opacity="1"/><stop id="stop3373" offset="1" stop-color="#3498db" stop-opacity="0"/></linearGradient><filter id="filter7554-0" color-interpolation-filters="sRGB"><feBlend id="feBlend7556-58" in2="BackgroundImage" mode="darken"/></filter><filter id="filter7554-4-6" color-interpolation-filters="sRGB"><feBlend id="feBlend7556-8-5" in2="BackgroundImage" mode="darken"/></filter><filter id="filter7554-5-0" color-interpolation-filters="sRGB"><feBlend id="feBlend7556-1-4" in2="BackgroundImage" mode="darken"/></filter><clipPath id="clipPath4160-2" clipPathUnits="userSpaceOnUse"><rect id="rect4162-1" width="1" height="1" x="7" y="1023.362" fill="#f2f2f2" fill-opacity="1" stroke="none" stroke-opacity="1" opacity="1"/></clipPath><clipPath id="clipPath4160-4-2" clipPathUnits="userSpaceOnUse"><rect id="rect4162-9-8" width="1" height="1" x="7" y="1023.362" fill="#f2f2f2" fill-opacity="1" stroke="none" stroke-opacity="1" opacity="1"/></clipPath><clipPath id="clipPath4160-3-7" clipPathUnits="userSpaceOnUse"><rect id="rect4162-0-9" width="1" height="1" x="7" y="1023.362" fill="#f2f2f2" fill-opacity="1" stroke="none" stroke-opacity="1" opacity="1"/></clipPath><clipPath id="clipPath4210-1" clipPathUnits="userSpaceOnUse"><rect id="rect4212-7" width="34" height="34" x="-7" y="1024.362" fill="#00f" fill-opacity=".514" stroke="none" stroke-opacity="1" opacity="1"/></clipPath><clipPath id="clipPath4160-1-8" clipPathUnits="userSpaceOnUse"><rect id="rect4162-6-5" width="32" height="32" x="-6" y="1028.362" fill="#aade87" fill-opacity=".472" stroke="none" stroke-opacity="1" opacity="1"/></clipPath><clipPath id="clipPath4160-4-5-6" clipPathUnits="userSpaceOnUse"><rect id="rect4162-5-5" width="1" height="1" x="7" y="1023.362" fill="#f2f2f2" fill-opacity="1" stroke="none" stroke-opacity="1" opacity="1"/></clipPath><clipPath id="clipPath16-0" clipPathUnits="userSpaceOnUse"><path id="path18-5" d="m 0,706.465 1490.926,0 L 1490.926,0 0,0 0,706.465 Z"/></clipPath><clipPath id="clipPath24-0" clipPathUnits="userSpaceOnUse"><path id="path26-0" d="m 22.1953,686.117 1447.7347,0 0,-667.1902 -1447.7347,0 0,667.1902 z"/></clipPath><clipPath id="clipPath4160-3-6-5" clipPathUnits="userSpaceOnUse"><rect id="rect4162-58-2" width="1" height="1" x="7" y="1023.362" fill="#f2f2f2" fill-opacity="1" stroke="none" stroke-opacity="1" opacity="1"/></clipPath></defs><g id="layer12" display="inline" transform="translate(-285.00021,-101)"><path id="path10558" fill="#4d4d4d" fill-opacity="1" stroke="none" d="m 289.29929,103 -2.85714,8 1.42858,0 0.60713,-1.71429 2.78571,0 0.60716,1.71429 1.58928,0 -3.01786,-8 z m 0.57144,2.28571 1,2.85715 -2,0 z"/><path id="path11643-3-2-7" fill="#4d4d4d" fill-opacity="1" stroke="none" stroke-width="2" d="m 295.00026,106 0,1 2.49994,0 c 0.21408,0 0.5,0.30707 0.5,0.5 l 0,0.5 -2.5,0 c -0.45964,0 -0.8678,0.19198 -1.125,0.48438 -0.2572,0.29239 -0.3782,0.65531 -0.375,1.01562 0.003,0.36031 0.13446,0.72635 0.39062,1.01563 0.25616,0.28927 0.65524,0.48437 1.10938,0.48437 l 2.5,0 0.5,0 0.5,0 0,-0.42187 c 0.008,-0.0469 0,-0.0781 0,-0.0781 l 0,-0.5 0,-2.5 c 0,-0.81717 -0.6599,-1.5 -1.5,-1.5 l -2.49994,0 z m 0.49994,3 2.5,0 0,1 -2.5,0 c -0.19894,0 -0.28346,-0.0549 -0.35938,-0.14062 -0.0759,-0.0857 -0.13938,-0.21969 -0.14062,-0.35938 -0.001,-0.13969 0.0523,-0.27677 0.125,-0.35937 0.0727,-0.0826 0.16382,-0.14063 0.375,-0.14063 z" baseline-shift="baseline" color="#000" direction="ltr" display="inline" enable-background="accumulate" font-family="Sans" font-stretch="normal" font-style="normal" font-variant="normal" font-weight="normal" letter-spacing="normal" overflow="visible" text-anchor="start" text-decoration="none" visibility="visible" word-spacing="normal" writing-mode="lr-tb" style="line-height:normal;-inkscape-font-specification:Sans;text-indent:0;text-align:start;text-decoration-line:none;text-transform:none;block-progression:tb;marker:none"/><path id="path6901" fill="#4d4d4d" fill-opacity="1" stroke="none" d="m 290.00026,112.99664 3.00025,3.99995 2.99975,-3.99995 z"/></g></svg>