<svg xmlns="http://www.w3.org/2000/svg" xmlns:osb="http://www.openswatchbook.org/uri/2009/osb" xmlns:svg="http://www.w3.org/2000/svg" id="svg7384" width="16" height="16" enable-background="new" version="1.1"><metadata id="metadata90"/><title id="title8473">Paper Symbolic Icon Theme</title><defs id="defs7386"><linearGradient id="linearGradient5606" osb:paint="solid"><stop id="stop5608" offset="0" stop-color="#000" stop-opacity="1"/></linearGradient><filter id="filter7554" color-interpolation-filters="sRGB"><feBlend id="feBlend7556" in2="BackgroundImage" mode="darken"/></filter><filter id="filter7554-3" color-interpolation-filters="sRGB"><feBlend id="feBlend7556-2" in2="BackgroundImage" mode="darken"/></filter><filter id="filter7554-25" color-interpolation-filters="sRGB"><feBlend id="feBlend7556-53" in2="BackgroundImage" mode="darken"/></filter><filter id="filter7554-1" color-interpolation-filters="sRGB"><feBlend id="feBlend7556-57" in2="BackgroundImage" mode="darken"/></filter><filter id="filter7554-2" color-interpolation-filters="sRGB"><feBlend id="feBlend7556-5" in2="BackgroundImage" mode="darken"/></filter><filter id="filter7554-4" color-interpolation-filters="sRGB"><feBlend id="feBlend7556-8" in2="BackgroundImage" mode="darken"/></filter><filter id="filter7554-5" color-interpolation-filters="sRGB"><feBlend id="feBlend7556-1" in2="BackgroundImage" mode="darken"/></filter><clipPath id="clipPath4160" clipPathUnits="userSpaceOnUse"><rect id="rect4162" width="1" height="1" x="7" y="1023.362" fill="#f2f2f2" fill-opacity="1" stroke="none" stroke-opacity="1" opacity="1"/></clipPath><clipPath id="clipPath4160-4" clipPathUnits="userSpaceOnUse"><rect id="rect4162-9" width="1" height="1" x="7" y="1023.362" fill="#f2f2f2" fill-opacity="1" stroke="none" stroke-opacity="1" opacity="1"/></clipPath><clipPath id="clipPath4160-3" clipPathUnits="userSpaceOnUse"><rect id="rect4162-0" width="1" height="1" x="7" y="1023.362" fill="#f2f2f2" fill-opacity="1" stroke="none" stroke-opacity="1" opacity="1"/></clipPath><linearGradient id="linearGradient3257"><stop id="stop3259" offset="0" stop-color="#a50000" stop-opacity="1"/><stop id="stop3261" offset="1" stop-color="#e73800" stop-opacity="1"/></linearGradient><clipPath id="clipPath4210" clipPathUnits="userSpaceOnUse"><rect id="rect4212" width="34" height="34" x="-7" y="1024.362" fill="#00f" fill-opacity=".514" stroke="none" stroke-opacity="1" opacity="1"/></clipPath><clipPath id="clipPath4160-1" clipPathUnits="userSpaceOnUse"><rect id="rect4162-6" width="32" height="32" x="-6" y="1028.362" fill="#aade87" fill-opacity=".472" stroke="none" stroke-opacity="1" opacity="1"/></clipPath><clipPath id="clipPath4160-4-5" clipPathUnits="userSpaceOnUse"><rect id="rect4162-5" width="1" height="1" x="7" y="1023.362" fill="#f2f2f2" fill-opacity="1" stroke="none" stroke-opacity="1" opacity="1"/></clipPath><clipPath id="clipPath16" clipPathUnits="userSpaceOnUse"><path id="path18" d="m 0,706.465 1490.926,0 L 1490.926,0 0,0 0,706.465 Z"/></clipPath><clipPath id="clipPath24" clipPathUnits="userSpaceOnUse"><path id="path26" d="m 22.1953,686.117 1447.7347,0 0,-667.1902 -1447.7347,0 0,667.1902 z"/></clipPath><clipPath id="clipPath4160-3-6" clipPathUnits="userSpaceOnUse"><rect id="rect4162-58" width="1" height="1" x="7" y="1023.362" fill="#f2f2f2" fill-opacity="1" stroke="none" stroke-opacity="1" opacity="1"/></clipPath><linearGradient id="linearGradient4207" osb:paint="gradient"><stop id="stop3371" offset="0" stop-color="#3498db" stop-opacity="1"/><stop id="stop3373" offset="1" stop-color="#3498db" stop-opacity="0"/></linearGradient><filter id="filter7554-0" color-interpolation-filters="sRGB"><feBlend id="feBlend7556-58" in2="BackgroundImage" mode="darken"/></filter><filter id="filter7554-4-6" color-interpolation-filters="sRGB"><feBlend id="feBlend7556-8-5" in2="BackgroundImage" mode="darken"/></filter><filter id="filter7554-5-0" color-interpolation-filters="sRGB"><feBlend id="feBlend7556-1-4" in2="BackgroundImage" mode="darken"/></filter><clipPath id="clipPath4160-2" clipPathUnits="userSpaceOnUse"><rect id="rect4162-1" width="1" height="1" x="7" y="1023.362" fill="#f2f2f2" fill-opacity="1" stroke="none" stroke-opacity="1" opacity="1"/></clipPath><clipPath id="clipPath4160-4-2" clipPathUnits="userSpaceOnUse"><rect id="rect4162-9-8" width="1" height="1" x="7" y="1023.362" fill="#f2f2f2" fill-opacity="1" stroke="none" stroke-opacity="1" opacity="1"/></clipPath><clipPath id="clipPath4160-3-7" clipPathUnits="userSpaceOnUse"><rect id="rect4162-0-9" width="1" height="1" x="7" y="1023.362" fill="#f2f2f2" fill-opacity="1" stroke="none" stroke-opacity="1" opacity="1"/></clipPath><clipPath id="clipPath4210-1" clipPathUnits="userSpaceOnUse"><rect id="rect4212-7" width="34" height="34" x="-7" y="1024.362" fill="#00f" fill-opacity=".514" stroke="none" stroke-opacity="1" opacity="1"/></clipPath><clipPath id="clipPath4160-1-8" clipPathUnits="userSpaceOnUse"><rect id="rect4162-6-5" width="32" height="32" x="-6" y="1028.362" fill="#aade87" fill-opacity=".472" stroke="none" stroke-opacity="1" opacity="1"/></clipPath><clipPath id="clipPath4160-4-5-6" clipPathUnits="userSpaceOnUse"><rect id="rect4162-5-5" width="1" height="1" x="7" y="1023.362" fill="#f2f2f2" fill-opacity="1" stroke="none" stroke-opacity="1" opacity="1"/></clipPath><clipPath id="clipPath16-0" clipPathUnits="userSpaceOnUse"><path id="path18-5" d="m 0,706.465 1490.926,0 L 1490.926,0 0,0 0,706.465 Z"/></clipPath><clipPath id="clipPath24-0" clipPathUnits="userSpaceOnUse"><path id="path26-0" d="m 22.1953,686.117 1447.7347,0 0,-667.1902 -1447.7347,0 0,667.1902 z"/></clipPath><clipPath id="clipPath4160-3-6-5" clipPathUnits="userSpaceOnUse"><rect id="rect4162-58-2" width="1" height="1" x="7" y="1023.362" fill="#f2f2f2" fill-opacity="1" stroke="none" stroke-opacity="1" opacity="1"/></clipPath></defs><g id="layer12" display="inline" transform="translate(-565.00018,-81)"><path id="path6522" fill="#4d4d4d" fill-opacity="1" stroke="none" stroke-dasharray="none" stroke-miterlimit="4" stroke-opacity="1" stroke-width="4" d="m 568.0002,82 c -1.108,0 -2,0.892 -2,2 l 0,10 c 0,1.108 0.892,1.99998 2,2 l 10,0 c 1.108,2e-5 2,-0.892 2,-2 l 0,-4 -2,-0.006 0,4.00586 -10,0 0,-10 4,0 0,-2 -4,0 z m 5,0 0,2 3.58594,0 -4.49414,4.49414 -0.70703,0.70703 0.006,0.006 A 1,1 0 0 0 571.0002,90 a 1,1 0 0 0 1,1 1,1 0 0 0 0.79297,-0.39062 l 0.006,0.006 0.70703,-0.70703 4.494,-4.49429 0,3.58594 2,0.006 0,-7.00586 -7,0 z" opacity="1"/></g></svg>