<svg xmlns="http://www.w3.org/2000/svg" xmlns:osb="http://www.openswatchbook.org/uri/2009/osb" xmlns:svg="http://www.w3.org/2000/svg" id="svg2" width="16" height="16" enable-background="new" version="1.1"><metadata id="metadata90"/><defs id="defs7386"><linearGradient id="linearGradient5606" osb:paint="solid"><stop id="stop5608"/></linearGradient><linearGradient id="linearGradient4066"><stop id="stop4068" offset="0" stop-color="#dbc9ee" stop-opacity="1"/><stop id="stop4070" offset="1" stop-color="#faf7fd" stop-opacity="1"/></linearGradient><linearGradient id="linearGradient3843-5"><stop id="stop3845-0" offset="0" stop-color="#5a2c8b" stop-opacity="1"/><stop id="stop3847-4" offset="1" stop-color="#9d59cf" stop-opacity="1"/></linearGradient><clipPath id="clipPath4160" clipPathUnits="userSpaceOnUse"><rect id="rect4162" width="1" height="1" x="7" y="1023.362" fill="#f2f2f2" fill-opacity="1" stroke="none" stroke-opacity="1" opacity="1"/></clipPath><linearGradient id="linearGradient4290-48"><stop id="stop4292-0" offset="0" stop-color="#a5a5a5" stop-opacity="1"/><stop id="stop4294-0" offset="1" stop-color="#f5f2f5" stop-opacity="1"/></linearGradient><clipPath id="clipPath4160-7" clipPathUnits="userSpaceOnUse"><rect id="rect4162-2" width="1" height="1" x="7" y="1023.362" fill="#f2f2f2" fill-opacity="1" stroke="none" stroke-opacity="1" opacity="1"/></clipPath><clipPath id="clipPath4160-2" clipPathUnits="userSpaceOnUse"><rect id="rect4162-4" width="1" height="1" x="7" y="1023.362" fill="#f2f2f2" fill-opacity="1" stroke="none" stroke-opacity="1" opacity="1"/></clipPath></defs><g id="layer12" transform="translate(-461.0002,-9)"><g id="layer1" transform="matrix(0.875,0,0,0.875,174.1252,-460.19193)"><g id="layer1-5" transform="translate(326,-496)"><path id="rect3356-6" fill="#4d4d4d" fill-opacity="1" stroke="none" d="m 11,3 c -4.432,0 -8,3.568 -8,8 0,4.432 3.568,8 8,8 4.432,0 8,-3.568 8,-8 0,-4.432 -3.568,-8 -8,-8 z m 0,5 c 1.662,0 3,1.338 3,3 0,1.662 -1.338,3 -3,3 C 9.338,14 8,12.662 8,11 8,9.338 9.338,8 11,8 Z" transform="translate(0,1030.3622)"/></g></g></g></svg>