<svg xmlns="http://www.w3.org/2000/svg" xmlns:osb="http://www.openswatchbook.org/uri/2009/osb" xmlns:svg="http://www.w3.org/2000/svg" id="svg2" width="16" height="16" enable-background="new" version="1.1"><metadata id="metadata90"/><defs id="defs7386"><linearGradient id="linearGradient5606" osb:paint="solid"><stop id="stop5608"/></linearGradient><linearGradient id="linearGradient4066"><stop id="stop4068" offset="0" stop-color="#dbc9ee" stop-opacity="1"/><stop id="stop4070" offset="1" stop-color="#faf7fd" stop-opacity="1"/></linearGradient><linearGradient id="linearGradient3843-5"><stop id="stop3845-0" offset="0" stop-color="#5a2c8b" stop-opacity="1"/><stop id="stop3847-4" offset="1" stop-color="#9d59cf" stop-opacity="1"/></linearGradient><clipPath id="clipPath4160" clipPathUnits="userSpaceOnUse"><rect id="rect4162" width="1" height="1" x="7" y="1023.362" fill="#f2f2f2" fill-opacity="1" stroke="none" stroke-opacity="1" opacity="1"/></clipPath><linearGradient id="linearGradient4290-48"><stop id="stop4292-0" offset="0" stop-color="#a5a5a5" stop-opacity="1"/><stop id="stop4294-0" offset="1" stop-color="#f5f2f5" stop-opacity="1"/></linearGradient></defs><g id="layer12" transform="translate(-461.0002,-9)"><g id="layer1" transform="matrix(0.87500001,0,0,0.87500001,174.1252,-460.19193)"><g id="layer1-4" transform="matrix(1.375,0,0,1.375,322.875,-887.51083)"><g id="layer1-3" transform="matrix(0.6517009,0,0,0.6517009,3.0368427,363.39251)"><g id="g4151" fill="#4d4d4d" fill-opacity="1" transform="matrix(1.1159609,0,0,1.1159609,-1.1724939,-120.69549)"><path id="rect3356-7" fill="#4d4d4d" fill-opacity="1" stroke="none" stroke-opacity="1" d="m 11,3 c -4.432,0 -8,3.568 -8,8 0,4.432 3.568,8 8,8 4.432,0 8,-3.568 8,-8 0,-4.432 -3.568,-8 -8,-8 z m -2.2089844,4.7675781 5.0996094,3.4101559 -5.0996094,3.408204 0,-6.8183599 z" transform="translate(-1.3392253e-7,1030.3622)"/></g></g></g></g></g></svg>