<svg xmlns="http://www.w3.org/2000/svg" xmlns:osb="http://www.openswatchbook.org/uri/2009/osb" xmlns:svg="http://www.w3.org/2000/svg" id="svg2" width="16" height="16" enable-background="new" version="1.1"><metadata id="metadata90"/><defs id="defs7386"><linearGradient id="linearGradient5606" osb:paint="solid"><stop id="stop5608"/></linearGradient></defs><g id="layer12" transform="translate(-381.0002,-9)"><g id="layer1" transform="matrix(0.875,0,0,0.875,94.1252,-460.19192)"><g id="layer1-5" transform="matrix(0.91666667,0,0,0.91666667,-29.190479,56.880698)"><g id="layer1-58" transform="matrix(0.97755135,0,0,0.97755135,388.62669,-485.15654)"><g id="g4151" fill="#4d4d4d" fill-opacity="1" transform="matrix(1.1159609,0,0,1.1159609,-1.1724939,-120.69549)"><path id="rect3356" fill="#4d4d4d" fill-opacity="1" stroke="none" stroke-opacity="1" d="m 11,3 c -4.432,0 -8,3.568 -8,8 0,4.432 3.568,8 8,8 4.432,0 8,-3.568 8,-8 0,-4.432 -3.568,-8 -8,-8 z m -3,5 2,0 0,6 -2,0 0,-6 z m 4,0 2,0 0,6 -2,0 0,-6 z" transform="translate(3.7869757e-6,1030.3622)"/></g></g></g></g></g></svg>