<svg xmlns="http://www.w3.org/2000/svg" xmlns:osb="http://www.openswatchbook.org/uri/2009/osb" xmlns:svg="http://www.w3.org/2000/svg" id="svg7384" width="16" height="16" enable-background="new" version="1.1"><metadata id="metadata90"/><title id="title8473">Paper Symbolic Icon Theme</title><defs id="defs7386"><linearGradient id="linearGradient5606" osb:paint="solid"><stop id="stop5608" offset="0" stop-color="#000" stop-opacity="1"/></linearGradient><filter id="filter7554" color-interpolation-filters="sRGB"><feBlend id="feBlend7556" in2="BackgroundImage" mode="darken"/></filter><filter id="filter7554-1" color-interpolation-filters="sRGB"><feBlend id="feBlend7556-6" in2="BackgroundImage" mode="darken"/></filter><filter id="filter7554-8" color-interpolation-filters="sRGB"><feBlend id="feBlend7556-9" in2="BackgroundImage" mode="darken"/></filter><linearGradient id="linearGradient4066"><stop id="stop4068" offset="0" stop-color="#dbc9ee" stop-opacity="1"/><stop id="stop4070" offset="1" stop-color="#faf7fd" stop-opacity="1"/></linearGradient><linearGradient id="linearGradient3843-5"><stop id="stop3845-0" offset="0" stop-color="#5a2c8b" stop-opacity="1"/><stop id="stop3847-4" offset="1" stop-color="#9d59cf" stop-opacity="1"/></linearGradient><clipPath id="clipPath4160" clipPathUnits="userSpaceOnUse"><rect id="rect4162" width="1" height="1" x="7" y="1023.362" fill="#f2f2f2" fill-opacity="1" stroke="none" stroke-opacity="1" opacity="1"/></clipPath><linearGradient id="linearGradient4290-48"><stop id="stop4292-0" offset="0" stop-color="#a5a5a5" stop-opacity="1"/><stop id="stop4294-0" offset="1" stop-color="#f5f2f5" stop-opacity="1"/></linearGradient><clipPath id="clipPath4160-7" clipPathUnits="userSpaceOnUse"><rect id="rect4162-2" width="1" height="1" x="7" y="1023.362" fill="#f2f2f2" fill-opacity="1" stroke="none" stroke-opacity="1" opacity="1"/></clipPath><clipPath id="clipPath4160-2" clipPathUnits="userSpaceOnUse"><rect id="rect4162-4" width="1" height="1" x="7" y="1023.362" fill="#f2f2f2" fill-opacity="1" stroke="none" stroke-opacity="1" opacity="1"/></clipPath><clipPath id="clipPath4160-9" clipPathUnits="userSpaceOnUse"><rect id="rect4162-28" width="1" height="1" x="7" y="1023.362" fill="#f2f2f2" fill-opacity="1" stroke="none" stroke-opacity="1" opacity="1"/></clipPath><clipPath id="clipPath4160-1" clipPathUnits="userSpaceOnUse"><rect id="rect4162-29" width="1" height="1" x="7" y="1023.362" fill="#f2f2f2" fill-opacity="1" stroke="none" stroke-opacity="1" opacity="1"/></clipPath></defs><g id="layer12" display="inline" transform="translate(-485.03396,-101.01747)"><path id="path6694" fill="#4d4d4d" fill-opacity="1" stroke="none" stroke-dasharray="none" stroke-linecap="square" stroke-linejoin="miter" stroke-miterlimit="4" stroke-opacity="1" stroke-width="2" d="m 487.03389,110.01747 c 0,3.31371 2.68629,6 6,6 3.28006,0 5.94034,-2.63317 5.99414,-5.90039 a 1,1 0 0 0 0.006,-0.0996 1,1 0 0 0 -1,-1 1,1 0 0 0 -1,1 c 0,2.20914 -1.79086,4 -4,4 -2.20914,0 -4,-1.79086 -4,-4 0,-2.20914 1.79086,-4 4,-4 l 0,2 4,-3 -4,-3 0,2 c -3.31371,0 -6,2.68629 -6,6 z" opacity="1"/></g></svg>