<svg xmlns="http://www.w3.org/2000/svg" xmlns:osb="http://www.openswatchbook.org/uri/2009/osb" xmlns:svg="http://www.w3.org/2000/svg" id="svg7384" width="16" height="16" enable-background="new" version="1.1"><metadata id="metadata90"/><title id="title8473">Paper Symbolic Icon Theme</title><defs id="defs7386"><linearGradient id="linearGradient5606" osb:paint="solid"><stop id="stop5608" offset="0" stop-color="#000" stop-opacity="1"/></linearGradient><filter id="filter7554" color-interpolation-filters="sRGB"><feBlend id="feBlend7556" in2="BackgroundImage" mode="darken"/></filter></defs><g id="layer12" display="inline" transform="translate(-325.00043,-20.996641)"><rect id="rect5820" width="2" height="7.003" x="332" y="21.997" fill="#555" fill-opacity="1" stroke="none" color="#bebebe" rx="1" ry="1"/><path display="inline" style="line-height:normal;text-indent:0;text-align:start;text-decoration-line:none;text-decoration-style:solid;text-decoration-color:#000;text-transform:none;block-progression:tb;white-space:normal;isolation:auto;mix-blend-mode:normal;solid-color:#000;solid-opacity:1" id="path6796" fill="#555" fill-opacity="1" fill-rule="nonzero" stroke="none" stroke-dasharray="none" stroke-dashoffset="0" stroke-linecap="round" stroke-linejoin="round" stroke-miterlimit="4" stroke-opacity="1" stroke-width="2" d="m 335.93945,23.988281 a 1.0001,1.0001 0 0 0 -0.54297,1.808594 c 1.37787,1.030686 1.94105,2.816324 1.4043,4.451172 -0.53674,1.634848 -2.04888,2.738556 -3.76953,2.751953 -1.72065,0.0134 -3.25036,-1.067067 -3.8125,-2.693359 -0.56214,-1.626292 -0.0257,-3.42064 1.33594,-4.472657 a 1.0001,1.0001 0 1 0 -1.22266,-1.582031 c -2.03498,1.57224 -2.84207,4.27849 -2.00195,6.708985 0.84011,2.430494 3.14528,4.059085 5.7168,4.039062 2.57151,-0.02002 4.85213,-1.685624 5.65429,-4.128906 0.80217,-2.443283 -0.0482,-5.13542 -2.10742,-6.675782 a 1.0001,1.0001 0 0 0 -0.6543,-0.207031 z" baseline-shift="baseline" clip-rule="nonzero" color="#000" color-interpolation="sRGB" color-interpolation-filters="linearRGB" color-rendering="auto" direction="ltr" enable-background="accumulate" font-family="sans-serif" font-size="medium" font-stretch="normal" font-style="normal" font-variant="normal" font-weight="normal" image-rendering="auto" letter-spacing="normal" opacity="1" overflow="visible" shape-rendering="auto" text-anchor="start" text-decoration="none" text-rendering="auto" visibility="visible" word-spacing="normal" writing-mode="lr-tb"/></g></svg>