<svg xmlns="http://www.w3.org/2000/svg" xmlns:osb="http://www.openswatchbook.org/uri/2009/osb" xmlns:svg="http://www.w3.org/2000/svg" id="svg7384" width="16" height="16" enable-background="new" version="1.1"><metadata id="metadata90"/><title id="title8473">Paper Symbolic Icon Theme</title><defs id="defs7386"><linearGradient id="linearGradient5606" osb:paint="solid"><stop id="stop5608" offset="0" stop-color="#000" stop-opacity="1"/></linearGradient><filter id="filter7554" color-interpolation-filters="sRGB"><feBlend id="feBlend7556" in2="BackgroundImage" mode="darken"/></filter></defs><g id="layer12" display="inline" transform="translate(-586.0002,-41)"><path id="path28099" fill="#555" fill-opacity="1" stroke="none" stroke-width="2" d="m 588,44 0,2 2.90625,0 C 590.85107,46 591,46.171037 591,46.09375 l 0,0.9375 -1,0 c -1.71588,0 -3.03787,1.10986 -3.0625,2.46875 -0.0123,0.679445 0.3195,1.353231 0.875,1.8125 0.5555,0.459269 1.30959,0.71875 2.1875,0.71875 l 2,0 1,0 0,-1 0,-4.9375 C 593,44.932958 592.11821,44.015991 590.9375,44 l -0.0312,0 L 588,44 z m 2,5.03125 1,0 0,1 -1,0 c -0.51941,0 -0.78011,-0.145714 -0.90625,-0.25 -0.12614,-0.104286 -0.15755,-0.178037 -0.15625,-0.25 0.003,-0.143925 0.0927,-0.5 1.0625,-0.5 z" baseline-shift="baseline" color="#000" direction="ltr" display="inline" enable-background="accumulate" font-family="Sans" font-size="medium" font-stretch="normal" font-style="normal" font-variant="normal" font-weight="normal" letter-spacing="normal" overflow="visible" text-anchor="start" text-decoration="none" visibility="visible" word-spacing="normal" writing-mode="lr-tb" style="text-indent:0;text-align:start;line-height:normal;text-transform:none;block-progression:tb;marker:none;-inkscape-font-specification:Sans"/><path id="path28101" fill="#555" fill-opacity="1" stroke="none" stroke-width="2" d="m 594,43 0,8.03125 0,1 1,0 2,0 c 0.93855,0 1.78249,-0.382302 2.3125,-0.96875 0.53001,-0.586448 0.75988,-1.33268 0.75,-2.0625 -0.01,-0.72982 -0.28566,-1.454073 -0.8125,-2.03125 C 598.72316,46.391573 597.92105,46 597,46 l -1,0 0,-3 -2,0 z m 2,5 1,0 c 0.42179,0 0.61965,0.135455 0.78125,0.3125 0.1616,0.177045 0.27751,0.44294 0.28125,0.71875 0.004,0.27581 -0.0984,0.519725 -0.25,0.6875 -0.15163,0.167775 -0.35374,0.3125 -0.8125,0.3125 l -1,0 L 596,48 z" baseline-shift="baseline" color="#000" direction="ltr" display="inline" enable-background="accumulate" font-family="Sans" font-size="medium" font-stretch="normal" font-style="normal" font-variant="normal" font-weight="normal" letter-spacing="normal" overflow="visible" text-anchor="start" text-decoration="none" visibility="visible" word-spacing="normal" writing-mode="lr-tb" style="text-indent:0;text-align:start;line-height:normal;text-transform:none;block-progression:tb;marker:none;-inkscape-font-specification:Sans"/><path id="path28103" fill="#555" fill-opacity="1" stroke="none" stroke-width="1" d="m 589,52.28125 -0.34375,0.375 -2,2 a 0.50005,0.50005 0 1 0 0.6875,0.6875 L 589,53.6875 l 1.65625,1.65625 0.34375,0.375 0.34375,-0.375 L 593,53.6875 l 1.65625,1.65625 0.34375,0.375 0.34375,-0.375 L 597,53.6875 l 1.65625,1.65625 0.34375,0.375 0.34375,-0.375 2,-2 a 0.50005,0.50005 0 1 0 -0.6875,-0.6875 L 599,54.3125 597.34375,52.65625 597,52.28125 596.65625,52.65625 595,54.3125 593.34375,52.65625 593,52.28125 592.65625,52.65625 591,54.3125 589.34375,52.65625 589,52.28125 z" baseline-shift="baseline" color="#000" direction="ltr" display="inline" enable-background="accumulate" font-family="Sans" font-size="medium" font-stretch="normal" font-style="normal" font-variant="normal" font-weight="normal" letter-spacing="normal" overflow="visible" text-anchor="start" text-decoration="none" visibility="visible" word-spacing="normal" writing-mode="lr-tb" style="text-indent:0;text-align:start;line-height:normal;text-transform:none;block-progression:tb;marker:none;-inkscape-font-specification:Sans"/></g></svg>