<svg xmlns="http://www.w3.org/2000/svg" xmlns:osb="http://www.openswatchbook.org/uri/2009/osb" xmlns:svg="http://www.w3.org/2000/svg" id="svg7384" width="16" height="16.031" enable-background="new" version="1.1"><metadata id="metadata90"/><title id="title8473">Paper Symbolic Icon Theme</title><defs id="defs7386"><linearGradient id="linearGradient5606" osb:paint="solid"><stop id="stop5608" offset="0" stop-color="#000" stop-opacity="1"/></linearGradient><filter id="filter7554" color-interpolation-filters="sRGB"><feBlend id="feBlend7556" in2="BackgroundImage" mode="darken"/></filter></defs><g id="layer12" display="inline" transform="translate(-457.00041,-80.996639)"><path id="path8130" fill="#555" fill-opacity="1" stroke="none" stroke-width="2" d="m 458.0004,81.02789 c 0,4.33333 0,8.66667 0,13 0.66667,0 1.33333,0 2,0 -4.1e-4,-3.67607 -1.1e-4,-7.35213 -2e-4,-11.0282 2.71591,0.005 9,3.1e-4 9,3.1e-4 0,0 2e-4,-1.52168 2e-4,-1.97251 -3.66653,2.7e-4 -7.33413,-5.3e-4 -11,4e-4 z" baseline-shift="baseline" color="#000" direction="ltr" display="inline" enable-background="accumulate" font-family="Sans" font-size="medium" font-stretch="normal" font-style="normal" font-variant="normal" font-weight="normal" letter-spacing="normal" overflow="visible" text-anchor="start" text-decoration="none" visibility="visible" word-spacing="normal" writing-mode="lr-tb" style="text-indent:0;text-align:start;line-height:normal;text-transform:none;block-progression:tb;marker:none;-inkscape-font-specification:Sans"/><path id="path8128" fill="#555" fill-opacity="1" stroke="none" stroke-width="2" d="m 461.0004,84.02789 c 0,4.33333 0,8.66667 0,13 3.66667,0 7.33333,0 11,0 0,-4.33333 0,-8.66667 0,-13 -3.66667,0 -7.33333,0 -11,0 z M 463.0002,86 c 2.33333,0 4.66667,0 7,0 0,3 0,6 0,9 -2.33333,0 -4.66667,0 -7,0 0,-3 0,-6 0,-9 z" baseline-shift="baseline" color="#000" direction="ltr" display="inline" enable-background="accumulate" font-family="Sans" font-size="medium" font-stretch="normal" font-style="normal" font-variant="normal" font-weight="normal" letter-spacing="normal" overflow="visible" text-anchor="start" text-decoration="none" visibility="visible" word-spacing="normal" writing-mode="lr-tb" style="text-indent:0;text-align:start;line-height:normal;text-transform:none;block-progression:tb;marker:none;-inkscape-font-specification:Sans"/></g></svg>