<svg xmlns="http://www.w3.org/2000/svg" xmlns:svg="http://www.w3.org/2000/svg" id="svg7384" width="16" height="16" enable-background="new" version="1.1"><metadata id="metadata90"/><title id="title8473">Paper Symbolic Icon Theme</title><defs id="defs7386"><filter id="filter7554" color-interpolation-filters="sRGB"><feBlend id="feBlend7556" in2="BackgroundImage" mode="darken"/></filter><linearGradient id="linearGradient3257"><stop id="stop3259" offset="0" stop-color="#a50000" stop-opacity="1"/><stop id="stop3261" offset="1" stop-color="#e73800" stop-opacity="1"/></linearGradient><clipPath id="clipPath4210" clipPathUnits="userSpaceOnUse"><rect id="rect4212" width="34" height="34" x="-7" y="1024.362" fill="#00f" fill-opacity=".514" stroke="none" stroke-opacity="1" opacity="1"/></clipPath><clipPath id="clipPath4160" clipPathUnits="userSpaceOnUse"><rect id="rect4162" width="32" height="32" x="-6" y="1028.362" fill="#aade87" fill-opacity=".472" stroke="none" stroke-opacity="1" opacity="1"/></clipPath><clipPath id="clipPath4160-4" clipPathUnits="userSpaceOnUse"><rect id="rect4162-5" width="1" height="1" x="7" y="1023.362" fill="#f2f2f2" fill-opacity="1" stroke="none" stroke-opacity="1" opacity="1"/></clipPath><clipPath id="clipPath16" clipPathUnits="userSpaceOnUse"><path id="path18" d="m 0,706.465 1490.926,0 L 1490.926,0 0,0 0,706.465 Z"/></clipPath><clipPath id="clipPath24" clipPathUnits="userSpaceOnUse"><path id="path26" d="m 22.1953,686.117 1447.7347,0 0,-667.1902 -1447.7347,0 0,667.1902 z"/></clipPath></defs><g id="layer1" transform="matrix(0.75,0,0,0.75,-244.75,-401.02165)"><g id="layer1-9" transform="matrix(0.66754261,0,0,0.66754261,68.600187,191.36438)"><g id="layer1-8" transform="matrix(1.4991279,0,0,1.4991279,-246.91528,-274.3759)"><rect id="rect4163" width="7" height="1" x="433.714" y="529.791" fill="#4d4d4d" fill-opacity="1" stroke="#4d4d4d" stroke-dasharray="none" stroke-miterlimit="4" stroke-opacity="1" stroke-width=".799" ry=".4"/><rect id="rect4165" width="4" height="1" x="433.714" y="538.791" fill="#4d4d4d" fill-opacity="1" stroke="#4d4d4d" stroke-dasharray="none" stroke-miterlimit="4" stroke-opacity="1" stroke-width=".799" ry=".4"/><rect id="rect4167" width="4" height="1" x="433.714" y="542.79" fill="#4d4d4d" fill-opacity="1" stroke="#4d4d4d" stroke-dasharray="none" stroke-miterlimit="4" stroke-opacity="1" stroke-width=".799" ry=".4"/><rect id="rect4169" width="7" height="1" x="433.714" y="533.79" fill="#4d4d4d" fill-opacity="1" stroke="#4d4d4d" stroke-dasharray="none" stroke-miterlimit="4" stroke-opacity="1" stroke-width=".799" ry=".4"/><g id="circle33" fill="#4d4d4d" fill-opacity="1" transform="matrix(0.05593646,0,0,0.05593646,424.72965,528.7445)"><path id="path285" fill="#4d4d4d" fill-opacity="1" d="M 117.18,31.592 C 111.585,22.006 103.995,14.416 94.409,8.821 84.821,3.226 74.354,0.429 63.001,0.429 51.649,0.429 41.179,3.226 31.593,8.821 22.006,14.415 14.416,22.005 8.821,31.592 3.225,41.179 0.428,51.649 0.428,63 c 0,11.352 2.798,21.82 8.392,31.408 5.595,9.585 13.185,17.176 22.772,22.771 9.587,5.595 20.056,8.392 31.408,8.392 11.352,0 21.822,-2.797 31.408,-8.392 9.586,-5.594 17.176,-13.185 22.771,-22.771 5.594,-9.587 8.391,-20.057 8.391,-31.408 0,-11.352 -2.797,-21.822 -8.39,-31.408 z"/></g><g id="circular56" fill="#4d4d4d" fill-opacity="1" transform="matrix(0.05593646,0,0,0.05593646,424.68105,537.7328)"><path id="path291" fill="#4d4d4d" fill-opacity="1" d="M 117.18,31.592 C 111.585,22.006 103.995,14.416 94.409,8.821 84.821,3.226 74.354,0.429 63.001,0.429 51.649,0.429 41.179,3.226 31.593,8.821 22.006,14.415 14.416,22.005 8.821,31.592 3.225,41.179 0.428,51.649 0.428,63 c 0,11.352 2.798,21.82 8.392,31.408 5.595,9.585 13.185,17.176 22.772,22.771 9.587,5.595 20.056,8.392 31.408,8.392 11.352,0 21.822,-2.797 31.408,-8.392 9.586,-5.594 17.176,-13.185 22.771,-22.771 5.594,-9.587 8.391,-20.057 8.391,-31.408 0,-11.352 -2.797,-21.822 -8.39,-31.408 l 0,0 z"/></g></g></g></g></svg>