<svg xmlns="http://www.w3.org/2000/svg" xmlns:osb="http://www.openswatchbook.org/uri/2009/osb" xmlns:svg="http://www.w3.org/2000/svg" id="svg2" width="16" height="16" enable-background="new" version="1.1"><metadata id="metadata90"/><defs id="defs7386"><linearGradient id="linearGradient5606" osb:paint="solid"><stop id="stop5608"/></linearGradient></defs><g id="layer12" transform="translate(-320,-149.00003)"><g id="g4178" transform="matrix(1.1713897,0,0,1.1713897,-56.274533,-28.913963)"><g id="g4161" transform="matrix(0,1,-1,0,336,149.00003)"><g id="layer12-0" transform="translate(-387,-169.00012)"><g id="layer1" transform="matrix(0.75,0,0,0.75,142.25,-232.02153)"><g id="layer1-0" transform="matrix(0.6659084,0,0,0.6659084,70.25612,191.21391)"><g id="list29-2" fill="#4d4d4d" fill-opacity="1" transform="matrix(0.16438356,0,0,0.16438356,359.99998,523.14233)"><g id="g762" fill="#4d4d4d" fill-opacity="1"><g id="g4166" transform="translate(173.80916,-19.892341)"><path id="path770" fill="#4d4d4d" fill-opacity="1" d="M 145.227,10.498522 C 144.709,9.9835218 144.1,9.7255218 143.393,9.7255218 l -99.072,0 c -0.706,0 -1.317,0.257 -1.833,0.7730002 -0.516,0.517 -0.774,1.127 -0.774,1.833 l 0,15.644 c 0,0.706 0.258,1.316 0.774,1.833 0.516,0.515 1.127,0.773 1.833,0.773 l 99.072,0 c 0.707,0 1.317,-0.257 1.834,-0.773 0.516,-0.517 0.773,-1.127 0.773,-1.833 l 0,-15.644 c 0,-0.706 -0.258,-1.317 -0.773,-1.833 l 0,0 z"/></g><g id="g4170" transform="translate(173.80966,-4.3446736)"><path id="path772" fill="#4d4d4d" fill-opacity="1" d="m 143.393,46.572 -99.072,0 c -0.706,0 -1.317,0.257 -1.833,0.774 -0.516,0.516 -0.774,1.127 -0.774,1.833 l 0,15.644 c 0,0.705 0.258,1.316 0.774,1.832 0.516,0.517 1.127,0.774 1.833,0.774 l 99.072,0 c 0.707,0 1.317,-0.257 1.834,-0.774 0.516,-0.516 0.773,-1.127 0.773,-1.832 l 0,-15.644 c 0,-0.706 -0.258,-1.318 -0.773,-1.833 -0.518,-0.516 -1.127,-0.774 -1.834,-0.774 l 0,0 z"/></g><g id="g4174" transform="translate(173.80916,11.55991)"><path id="path774" fill="#4d4d4d" fill-opacity="1" d="m 143.393,82.19748 -99.072,0 c -0.706,0 -1.317,0.258 -1.833,0.774 -0.516,0.516 -0.774,1.127 -0.774,1.832 l 0,15.644 c 0,0.707 0.258,1.317 0.774,1.834 0.516,0.515 1.127,0.772 1.833,0.772 l 99.072,0 c 0.707,0 1.317,-0.257 1.834,-0.772 0.516,-0.517 0.773,-1.127 0.773,-1.834 l 0,-15.644 c 0,-0.705 -0.258,-1.317 -0.773,-1.832 -0.518,-0.515 -1.127,-0.774 -1.834,-0.774 l 0,0 z"/></g></g></g></g></g></g></g></g></g></svg>