<svg xmlns="http://www.w3.org/2000/svg" xmlns:osb="http://www.openswatchbook.org/uri/2009/osb" id="svg7384" width="16" height="16" enable-background="new" version="1.1"><metadata id="metadata90"/><title id="title8473">Paper Symbolic Icon Theme</title><defs id="defs7386"><filter id="filter7554" color-interpolation-filters="sRGB"><feBlend id="feBlend7556" in2="BackgroundImage" mode="darken"/></filter></defs><g id="layer12" transform="translate(-437 -80.997)"><path id="rect5700" fill="#555" d="m437 81.997v14c5.3333-0.002 10.667 0.005 16 0.003v-14c-5.3333 0.002-10.667-0.005-16-0.003zm1.9998 2.0034c1.6667-0.001 3.3335-0.002 5.0002-0.003-0.00007 3.3344-0.00013 6.6689-0.0002 10.003-1.6667 0.001-3.3335 0.002-5.0002 0.003 0.00007-3.3343 0.00013-6.6687 0.0002-10.003zm7 0h5c-0.00007 3.3344-0.00013 6.6689-0.0002 10.003h-5c0.00007-3.3344 0.00013-6.6689 0.0002-10.003z"/></g></svg>