<svg xmlns="http://www.w3.org/2000/svg" xmlns:osb="http://www.openswatchbook.org/uri/2009/osb" id="svg7384" width="16" height="16" enable-background="new" version="1.1"><metadata id="metadata90"/><title id="title8473">Paper Symbolic Icon Theme</title><defs id="defs7386"><filter id="filter7554" color-interpolation-filters="sRGB"><feBlend id="feBlend7556" in2="BackgroundImage" mode="darken"/></filter></defs><g id="layer12" transform="translate(-451 -102)"><path id="path8910" fill="#555" d="m453.5 115c-0.82235 0-1.5-0.67765-1.5-1.5s0.67765-1.5 1.5-1.5 1.5 0.67765 1.5 1.5-0.67765 1.5-1.5 1.5zm0-4c-0.82235 0-1.5-0.67765-1.5-1.5s0.67765-1.5 1.5-1.5 1.5 0.67765 1.5 1.5-0.67765 1.5-1.5 1.5zm0-4c-0.82235 0-1.5-0.67765-1.5-1.5s0.67765-1.5 1.5-1.5 1.5 0.67765 1.5 1.5-0.67765 1.5-1.5 1.5z" color="#000" enable-background="new"/><path id="path8912" fill="#555" d="m459 105v4h-3.0625l5.0625 7 5.1875-7h-3.1875v-4z" color="#000" enable-background="new"/></g></svg>