<svg xmlns="http://www.w3.org/2000/svg" xmlns:osb="http://www.openswatchbook.org/uri/2009/osb" xmlns:svg="http://www.w3.org/2000/svg" id="svg7384" width="15.982" height="16" enable-background="new" version="1.1"><metadata id="metadata90"/><title id="title8473">Paper Symbolic Icon Theme</title><defs id="defs7386"><linearGradient id="linearGradient5606" osb:paint="solid"><stop id="stop5608" offset="0" stop-color="#000" stop-opacity="1"/></linearGradient><filter id="filter7554" color-interpolation-filters="sRGB"><feBlend id="feBlend7556" in2="BackgroundImage" mode="darken"/></filter></defs><g id="layer12" display="inline" transform="translate(-385.00058,-0.99665998)"><path id="path5311" fill="#555" stroke="none" d="m 388.1877,3 c -0.6627,0 -1.1875,0.54894 -1.1875,1.21875 l 0,3.78125 2,0 0,-3 3,0 0,-2 -3.8125,0 z m 5.8125,0 0,2 3,0 0,3 2,0 0,-3.78125 C 399.0002,3.54899 398.4754,3 397.8127,3 l -3.8125,0 z m -7,7 0,3.78125 c 0,0.66976 0.5248,1.21875 1.1875,1.21875 l 3.8125,0 0,-2 -3,0 0,-3 -2,0 z m 10,0 0,3 -3,0 0,2 3.8125,0 c 0.6627,0 1.1875,-0.54894 1.1875,-1.21875 l 0,-3.78125 -2,0 z" color="#555"/></g></svg>